<svg width="72" height="24" viewBox="0 0 72 24" fill="none" xmlns="http://www.w3.org/2000/svg">
    <path d="M12.6904 8.31428L10.352 6L8.01369 8.31428L9.17685 9.466L3.31299 15.2695L5.65133 17.5838L7.98966 15.2695L6.8265 14.1183L12.6904 8.31428Z" fill="#EF4E23"/>
    <path d="M5.72757 6.10402L0 11.8316L2.2841 14.1157L8.01167 8.38812L5.72757 6.10402Z" fill="#EF4E23"/>
    <path d="M13.7159 9.52485L7.98828 15.2524L10.2724 17.5365L16 11.8089L13.7159 9.52485Z" fill="#EF4E23"/>
    <path d="M20 11.9126V8.08743H20.9865V11.9126H20Z" fill="white"/>
    <path d="M23.8583 12C22.6668 12 21.9622 11.3115 21.9622 10.4372C21.9622 9.56284 22.6668 8.87432 23.8583 8.87432C25.0498 8.87432 25.7545 9.56284 25.7545 10.4372C25.7545 11.3115 25.0498 12 23.8583 12ZM23.8583 11.3224C24.4477 11.3224 24.8064 10.9508 24.8064 10.4372C24.8064 9.9235 24.4477 9.55191 23.8583 9.55191C23.269 9.55191 22.9103 9.9235 22.9103 10.4372C22.9103 10.9508 23.269 11.3224 23.8583 11.3224Z" fill="white"/>
    <path d="M27.942 11.9126V8.86339H26.3213L26.3533 8.08743H30.5172L30.5492 8.86339H28.9285V11.9126H27.942Z" fill="white"/>
    <path d="M34.9818 12C34.1298 12 33.4892 11.8306 32.9704 11.612V10.7541H32.9768C33.611 11.0492 34.3669 11.2295 34.9882 11.2295C35.5968 11.2295 35.9043 11.0765 35.9043 10.8251C35.9043 10.5628 35.6481 10.4863 34.6231 10.3333C33.848 10.2186 32.9704 10.0109 32.9704 9.25137C32.9704 8.61202 33.5853 8 34.9818 8C35.5456 8 36.1926 8.13661 36.6538 8.36066V9.21858H36.6474C36.1349 8.93989 35.4815 8.77049 34.905 8.77049C34.2644 8.77049 34.0017 8.93443 34.0017 9.1694C34.0017 9.4918 34.5526 9.52459 35.2573 9.63388C36.0324 9.7541 36.9357 9.94535 36.9357 10.7705C36.9357 11.224 36.6474 12 34.9818 12Z" fill="white"/>
    <path d="M37.8538 11.9126V8.08743H41.5885L41.6205 8.84699H38.8339V9.55191H41.076V10.3115H38.8339V11.153H41.7166L41.6846 11.9126H37.8538Z" fill="white"/>
    <path d="M44.8989 12C43.1757 12 42.4646 11.0601 42.4646 10.0219C42.4646 8.96175 43.3166 8 44.9949 8C45.7316 8 46.321 8.23497 46.6477 8.45355V9.30601H46.6413C46.1608 9.03279 45.6868 8.76503 44.9757 8.76503C44.0148 8.76503 43.4767 9.30055 43.4767 10.0164C43.4767 10.6995 43.9764 11.235 44.9693 11.235C45.6676 11.235 46.1736 11.0164 46.6413 10.7158H46.6477V11.5683C46.3338 11.7705 45.7124 12 44.8989 12Z" fill="white"/>
    <path d="M49.8266 12C48.6223 12 47.6935 11.5738 47.6935 10.4372V8.08743H48.68V10.3989C48.68 11.0219 49.2373 11.224 49.8394 11.224C50.4416 11.224 50.9989 11.0328 50.9989 10.4262V8.08743H51.9854V10.4098C51.9854 11.5792 51.031 12 49.8266 12Z" fill="white"/>
    <path d="M53.2619 11.9126V8.08743H55.6449C56.7916 8.08743 57.3489 8.54645 57.3489 9.40437C57.3489 10.0383 57.0222 10.4481 56.388 10.623L57.5283 11.9126H56.3688L55.4207 10.7869H54.2484V11.9126H53.2619ZM54.2484 10.0437H55.6193C56.1574 10.0437 56.3496 9.78689 56.3496 9.44262C56.3496 9.09836 56.1574 8.84699 55.6193 8.84699H54.2484V10.0437Z" fill="white"/>
    <path d="M58.4232 11.9126V8.08743H59.4098V11.9126H58.4232Z" fill="white"/>
    <path d="M61.9549 11.9126V8.86339H60.3342L60.3662 8.08743H64.5301L64.5621 8.86339H62.9414V11.9126H61.9549Z" fill="white"/>
    <path d="M67.002 11.9126V10.5902L64.9905 8.08743H66.1436L67.4632 9.77596H67.5401L68.8854 8.08743H70L67.9885 10.5738V11.9126H67.002Z" fill="white"/>
    <path d="M20 15H21.0876C21.445 15 21.6703 15.1704 21.6703 15.5022C21.6703 15.7265 21.5926 15.8789 21.3751 15.9596C21.6004 16.0583 21.7014 16.1928 21.7014 16.435C21.7014 16.8475 21.4295 17 21.0488 17H20V15ZM20.9556 15.7982C21.0954 15.7982 21.1576 15.7444 21.1576 15.6188C21.1576 15.5022 21.0954 15.4484 20.9556 15.4484H20.5127V15.7982H20.9556ZM20.9789 16.5426C21.1343 16.5426 21.1886 16.4888 21.1886 16.3543C21.1886 16.2287 21.1265 16.1659 20.9789 16.1659H20.5127V16.5426H20.9789Z" fill="#808080"/>
    <path d="M22.9292 16.3543L22.0417 15H22.73L23.2281 15.7982H23.2553L23.7625 15H24.4236L23.536 16.3543V17H22.9292V16.3543Z" fill="#808080"/>
    <path d="M26.125 15H27.3727C27.8926 15 28.1667 15.287 28.1667 15.7444C28.1667 16.2646 27.8169 16.5067 27.3254 16.5067H26.7583V17H26.125V15ZM27.2593 16.0314C27.4578 16.0314 27.5428 15.9148 27.5428 15.7534C27.5428 15.574 27.4483 15.4753 27.2593 15.4753H26.7677V16.0314H27.2593Z" fill="#808080"/>
    <path d="M28.8731 15H29.8512L30.5486 17H29.9146L29.7697 16.5874H28.9365L28.7916 17H28.1667L28.8731 15ZM29.0814 16.13H29.6248L29.4075 15.5022H29.2988L29.0814 16.13Z" fill="#808080"/>
    <path d="M31.2292 15H31.8362V16.4798H32.9306L32.903 17H31.2292V15Z" fill="#808080"/>
    <path d="M33.2708 16C33.2708 15.3898 33.6712 15 34.2957 15C34.9202 15 35.3125 15.3898 35.3125 16C35.3125 16.6102 34.9202 17 34.2957 17C33.6712 17 33.2708 16.6186 33.2708 16ZM34.7841 16C34.7841 15.6695 34.6079 15.4831 34.2957 15.4831C33.9834 15.4831 33.8073 15.678 33.8073 16C33.8073 16.3305 33.9834 16.5169 34.2957 16.5169C34.5999 16.5254 34.7841 16.3305 34.7841 16Z" fill="#808080"/>
    <path d="M37.723 15H38.6958L39.3958 17H38.7594L38.614 16.5874H37.7867L37.6412 17H37.0139L37.723 15ZM37.9321 16.13H38.4776L38.2594 15.5022H38.1503L37.9321 16.13Z" fill="#808080"/>
    <path d="M39.7361 15H40.3523V16.4798H41.4375L41.4191 17H39.7361V15Z" fill="#808080"/>
    <path d="M42.3729 15.5112H41.7778L41.793 15H43.4639L43.4792 15.5112H42.8841V17H42.3729V15.5112Z" fill="#808080"/>
    <path d="M44.1597 16C44.1597 15.3814 44.5536 15 45.1806 15C45.8075 15 46.2014 15.3898 46.2014 16C46.2014 16.6102 45.8075 17 45.1806 17C44.5536 17 44.1597 16.6186 44.1597 16ZM45.6709 16C45.6709 15.6695 45.494 15.4831 45.1806 15.4831C44.8671 15.4831 44.6902 15.678 44.6902 16C44.6902 16.3305 44.8671 16.5169 45.1806 16.5169C45.486 16.5254 45.6709 16.3305 45.6709 16Z" fill="#808080"/>
    <path d="M47.9028 15H48.518L49.3738 16.13H49.3828V15H49.9444V17H49.3471L48.4734 15.8341H48.4645V17H47.9028V15Z" fill="#808080"/>
    <path d="M50.625 15H52.6057L52.626 15.4843H51.2954V15.7534H52.3416V16.2018H51.2954V16.5067H52.6667L52.6464 17H50.625V15Z" fill="#808080"/>
    <path d="M53.7179 15.5112H53.0069L53.0343 15H55.0213L55.0486 15.5112H54.3377V17H53.7179V15.5112Z" fill="#808080"/>
    <path d="M55.3889 15H56.0388L56.3637 16.3812H56.3908L56.815 15H57.4107L57.8259 16.3812H57.853L58.1779 15H58.7917L58.2682 17H57.4739L57.1038 15.7892H57.0858L56.7157 17H55.9214L55.3889 15Z" fill="#808080"/>
    <path d="M59.1319 16C59.1319 15.3898 59.5915 15 60.3229 15C61.0544 15 61.5139 15.3898 61.5139 16C61.5139 16.6102 61.0544 17 60.3229 17C59.5915 17 59.1319 16.6186 59.1319 16ZM60.895 16C60.895 15.6695 60.6886 15.4831 60.3229 15.4831C59.9572 15.4831 59.7509 15.678 59.7509 16C59.7509 16.3305 59.9572 16.5169 60.3229 16.5169C60.6886 16.5254 60.895 16.3305 60.895 16Z" fill="#808080"/>
    <path d="M62.1944 15H63.3586C63.8869 15 64.1466 15.2511 64.1466 15.7175C64.1466 16.0404 64.0122 16.2556 63.7615 16.3543L64.2361 17H63.5556L63.1884 16.4709H62.7944V17H62.1944V15ZM63.278 16.0045C63.475 16.0045 63.5466 15.8969 63.5466 15.7444C63.5466 15.5919 63.475 15.4843 63.278 15.4843H62.7944V16.0045H63.278Z" fill="#808080"/>
    <path d="M64.5764 15H65.1464V15.7354H65.376L65.929 15H66.5755L65.8439 15.9596L66.6181 16.991L66.6095 17H65.946L65.376 16.2287H65.1464V17H64.5764V15Z" fill="#808080"/>
    <path d="M67.3149 16.8291V16.3102C67.6161 16.4718 67.9173 16.5484 68.1697 16.5484C68.365 16.5484 68.4627 16.4973 68.4627 16.4038C68.4627 16.3102 68.3976 16.2846 68.0068 16.2166C67.5835 16.1485 67.2986 16.0124 67.2986 15.6296C67.2986 15.2722 67.5998 15 68.1778 15C68.4139 15 68.6581 15.051 68.8779 15.1531V15.6721C68.6662 15.5445 68.3732 15.4594 68.1371 15.4594C67.9336 15.4594 67.844 15.5105 67.844 15.5955C67.844 15.7061 67.9743 15.7146 68.2918 15.7742C68.7151 15.8508 69 15.9784 69 16.3782C69 16.693 68.7802 16.9993 68.1371 16.9993C67.8278 17.0078 67.5754 16.9397 67.3149 16.8291Z" fill="#808080"/>
</svg>
