<svg width="72" height="24" viewBox="0 0 72 24" fill="none" xmlns="http://www.w3.org/2000/svg">
    <path d="M25.4487 15.5551C24.2562 15.5551 23.2587 15.1539 22.4562 14.3514C21.6612 13.5489 21.2637 12.5476 21.2637 11.3476C21.2637 10.1476 21.6612 9.15014 22.4562 8.35514C23.2512 7.54514 24.2487 7.14014 25.4487 7.14014C26.6637 7.14014 27.6499 7.57889 28.4074 8.45639L27.6649 9.17639C27.0874 8.47889 26.3487 8.13014 25.4487 8.13014C24.5562 8.13014 23.8099 8.43014 23.2099 9.03014C22.6174 9.62264 22.3212 10.3951 22.3212 11.3476C22.3212 12.3001 22.6174 13.0726 23.2099 13.6651C23.8099 14.2651 24.5562 14.5651 25.4487 14.5651C26.3862 14.5651 27.1999 14.1714 27.8899 13.3839L28.6437 14.1151C28.2612 14.5726 27.7924 14.9289 27.2374 15.1839C26.6824 15.4314 26.0862 15.5551 25.4487 15.5551Z" fill="#F0F0F0"/>
    <path d="M29.5634 7.32014H30.5984V9.86264L30.5534 10.6276H30.5984C30.7559 10.3576 30.9959 10.1326 31.3184 9.95264C31.6484 9.77264 31.9896 9.68264 32.3421 9.68264C33.0171 9.68264 33.5346 9.87764 33.8946 10.2676C34.2621 10.6501 34.4459 11.1976 34.4459 11.9101V15.3751H33.4109V12.1126C33.4109 11.1226 32.9721 10.6276 32.0946 10.6276C31.6746 10.6276 31.3184 10.8039 31.0259 11.1564C30.7409 11.5014 30.5984 11.9064 30.5984 12.3714V15.3751H29.5634V7.32014Z" fill="#F0F0F0"/>
    <path d="M36.6958 15.3751H35.6608V9.86264H36.6508V10.7626H36.6958C36.8008 10.4701 37.0145 10.2226 37.337 10.0201C37.667 9.81014 37.9895 9.70514 38.3045 9.70514C38.6045 9.70514 38.8595 9.75014 39.0695 9.84014L38.7545 10.8414C38.627 10.7889 38.4245 10.7626 38.147 10.7626C37.757 10.7626 37.4158 10.9201 37.1233 11.2351C36.8383 11.5501 36.6958 11.9176 36.6958 12.3376V15.3751Z" fill="#F0F0F0"/>
    <path d="M39.0921 12.6189C39.0921 11.7714 39.3584 11.0701 39.8909 10.5151C40.4309 9.96014 41.1096 9.68264 41.9271 9.68264C42.7446 9.68264 43.4196 9.96014 43.9521 10.5151C44.4921 11.0701 44.7621 11.7714 44.7621 12.6189C44.7621 13.4739 44.4921 14.1751 43.9521 14.7226C43.4196 15.2776 42.7446 15.5551 41.9271 15.5551C41.1096 15.5551 40.4309 15.2776 39.8909 14.7226C39.3584 14.1676 39.0921 13.4664 39.0921 12.6189ZM40.1271 12.6189C40.1271 13.2114 40.2996 13.6914 40.6446 14.0589C40.9896 14.4264 41.4171 14.6101 41.9271 14.6101C42.4371 14.6101 42.8646 14.4264 43.2096 14.0589C43.5546 13.6914 43.7271 13.2114 43.7271 12.6189C43.7271 12.0339 43.5546 11.5576 43.2096 11.1901C42.8571 10.8151 42.4296 10.6276 41.9271 10.6276C41.4246 10.6276 40.9971 10.8151 40.6446 11.1901C40.2996 11.5576 40.1271 12.0339 40.1271 12.6189Z" fill="#F0F0F0"/>
    <path d="M45.5924 9.86264H46.5824V10.6276H46.6274C46.7849 10.3576 47.0249 10.1326 47.3474 9.95264C47.6774 9.77264 48.0187 9.68264 48.3712 9.68264C49.0462 9.68264 49.5637 9.87764 49.9237 10.2676C50.2912 10.6501 50.4749 11.1976 50.4749 11.9101V15.3751H49.4399V11.9776C49.4174 11.0776 48.9637 10.6276 48.0787 10.6276C47.6662 10.6276 47.3212 10.7964 47.0437 11.1339C46.7662 11.4639 46.6274 11.8614 46.6274 12.3264V15.3751H45.5924V9.86264Z" fill="#F0F0F0"/>
    <path d="M53.0286 7.96139C53.0286 8.16389 52.9573 8.33639 52.8148 8.47889C52.6723 8.62139 52.4998 8.69264 52.2973 8.69264C52.0948 8.69264 51.9223 8.62139 51.7798 8.47889C51.6373 8.33639 51.5661 8.16389 51.5661 7.96139C51.5661 7.75889 51.6373 7.58639 51.7798 7.44389C51.9223 7.30139 52.0948 7.23014 52.2973 7.23014C52.4998 7.23014 52.6723 7.30139 52.8148 7.44389C52.9573 7.58639 53.0286 7.75889 53.0286 7.96139ZM52.8148 9.86264V15.3751H51.7798V9.86264H52.8148Z" fill="#F0F0F0"/>
    <path d="M56.6268 15.5551C55.8093 15.5551 55.1306 15.2776 54.5906 14.7226C54.0581 14.1526 53.7918 13.4514 53.7918 12.6189C53.7918 11.7714 54.0581 11.0701 54.5906 10.5151C55.1306 9.96014 55.8093 9.68264 56.6268 9.68264C57.1893 9.68264 57.6806 9.82514 58.1006 10.1101C58.5206 10.3876 58.8356 10.7739 59.0456 11.2689L58.1006 11.6626C57.8081 10.9726 57.2943 10.6276 56.5593 10.6276C56.0868 10.6276 55.6781 10.8189 55.3331 11.2014C54.9956 11.5839 54.8268 12.0564 54.8268 12.6189C54.8268 13.1814 54.9956 13.6539 55.3331 14.0364C55.6781 14.4189 56.0868 14.6101 56.5593 14.6101C57.3168 14.6101 57.8493 14.2651 58.1568 13.5751L59.0793 13.9689C58.8768 14.4639 58.5581 14.8539 58.1231 15.1389C57.6956 15.4164 57.1968 15.5551 56.6268 15.5551Z" fill="#F0F0F0"/>
    <path d="M61.0195 7.32014V15.3751H59.9845V7.32014H61.0195Z" fill="#F0F0F0"/>
    <path d="M64.7007 15.5551C63.8907 15.5551 63.2232 15.2776 62.6982 14.7226C62.1732 14.1676 61.9107 13.4664 61.9107 12.6189C61.9107 11.7789 62.1657 11.0814 62.6757 10.5264C63.1857 9.96389 63.8382 9.68264 64.6332 9.68264C65.4507 9.68264 66.0995 9.94889 66.5795 10.4814C67.067 11.0064 67.3107 11.7451 67.3107 12.6976L67.2995 12.8101H62.9682C62.9832 13.3501 63.1632 13.7851 63.5082 14.1151C63.8532 14.4451 64.2657 14.6101 64.7457 14.6101C65.4057 14.6101 65.9232 14.2801 66.2982 13.6201L67.2207 14.0701C66.9732 14.5351 66.6282 14.8989 66.1857 15.1614C65.7507 15.4239 65.2557 15.5551 64.7007 15.5551ZM63.047 11.9551H66.2082C66.1782 11.5726 66.0207 11.2576 65.7357 11.0101C65.4582 10.7551 65.0832 10.6276 64.6107 10.6276C64.2207 10.6276 63.8832 10.7476 63.5982 10.9876C63.3207 11.2276 63.137 11.5501 63.047 11.9551Z" fill="#F0F0F0"/>
    <g clip-path="url(#clip0_2698_3152)">
        <path d="M7.87109 17.871L16.0742 12.6851V15.4722C16.0742 15.8499 15.8816 16.2009 15.5646 16.4006L10.5371 19.5681L7.87109 17.871Z" fill="#EA4335"/>
        <path d="M16.0742 5.08545H5V7.98954H16.0742V5.08545Z" fill="#4285F4"/>
        <path d="M5 14.0237L7.87109 12.2134V17.8707L5.53581 16.4289C5.20301 16.2234 5 15.8575 5 15.4632V14.0237Z" fill="#FBBC04"/>
        <path d="M5 7.9895L7.87109 9.79985V12.2136L5 14.024V7.9895Z" fill="#34A853"/>
    </g>
    <defs>
        <clipPath id="clip0_2698_3152">
            <rect width="11.25" height="15" fill="white" transform="translate(5 5)"/>
        </clipPath>
    </defs>
</svg>
