<svg width="72" height="24" viewBox="0 0 72 24" fill="none" xmlns="http://www.w3.org/2000/svg">
<g clip-path="url(#clip0_4380_4605)">
<path d="M58.8516 11.7167H55.9756L61.2338 5H64.1098L58.8516 11.7167Z" fill="url(#paint0_linear_4380_4605)"/>
<path d="M61.4224 18.6219L53.459 8.4541H50.583L54.5628 13.5358L50.583 18.6219H53.459L56.0016 15.3724L58.5464 18.6219H61.4224Z" fill="white"/>
<path d="M46.835 8.4541H49.315V18.6241H46.835V8.4541Z" fill="white"/>
<path d="M42.6196 5H45.0997V18.6238H42.6196V5Z" fill="white"/>
<path d="M38.3013 5H40.7814V18.6238H38.3013V5Z" fill="white"/>
<path d="M31.9036 18.7774C30.9423 18.7774 30.058 18.5408 29.2503 18.0674C28.4429 17.5942 27.8084 16.9545 27.3468 16.1486C26.8853 15.3428 26.6548 14.4731 26.6548 13.539C26.6548 12.6049 26.8918 11.6967 27.3662 10.8909C27.8403 10.0851 28.4813 9.44877 29.2887 8.98157C30.0961 8.51469 30.9677 8.28125 31.9036 8.28125C32.7367 8.28125 33.5153 8.46694 34.2395 8.8377C34.9634 9.20877 35.5726 9.72028 36.0661 10.3729C36.5592 11.0251 36.8832 11.7482 37.037 12.5412C37.178 13.2194 37.1843 13.8589 37.0561 14.4599H29.1346C29.224 14.9078 29.4004 15.2917 29.6634 15.6112C29.926 15.9311 30.2528 16.1711 30.644 16.3309C31.0349 16.491 31.4545 16.5709 31.9033 16.5709C32.3902 16.5709 32.8677 16.4782 33.3358 16.2928C33.8036 16.1075 34.1976 15.8484 34.5182 15.5157L36.7099 16.1106C36.2997 16.9164 35.6395 17.5627 34.7295 18.0486C33.8192 18.5349 32.8771 18.7777 31.9033 18.7777L31.9036 18.7774ZM34.6145 12.5603C34.5247 12.1895 34.3549 11.844 34.1051 11.5241C33.8552 11.2046 33.5409 10.9518 33.1629 10.7661C32.7848 10.5807 32.3583 10.488 31.8842 10.488C31.4101 10.488 30.9805 10.581 30.5962 10.7661C30.2115 10.9518 29.8944 11.2046 29.6446 11.5241C29.3947 11.844 29.2246 12.1895 29.1352 12.5603H34.6148H34.6145Z" fill="white"/>
<path d="M19.8823 8.45439H22.3818V9.9702C22.702 9.3944 23.1826 8.95654 23.8237 8.65569C24.4644 8.35546 25.2528 8.27526 26.1887 8.41569V11.0831C25.5605 10.8656 24.9516 10.8241 24.3622 10.9583C23.7724 11.0928 23.2952 11.3805 22.9297 11.8218C22.5644 12.2631 22.3818 12.8036 22.3818 13.4434V18.6244H19.8823V8.45439Z" fill="white"/>
<path d="M13.23 7.3987H9V5H19.8823V7.3987H15.8061V18.6238H13.2297V7.3987H13.23Z" fill="white"/>
</g>
<defs>
<linearGradient id="paint0_linear_4380_4605" x1="55.9756" y1="8.35837" x2="64.1098" y2="8.35837" gradientUnits="userSpaceOnUse">
<stop offset="0.07" stop-color="#3600FF"/>
<stop offset="0.12" stop-color="#2E17FF"/>
<stop offset="0.25" stop-color="#1A54FF"/>
<stop offset="0.36" stop-color="#0C7FFF"/>
<stop offset="0.45" stop-color="#039AFF"/>
<stop offset="0.5" stop-color="#00A5FF"/>
<stop offset="1" stop-color="#00D300"/>
</linearGradient>
<clipPath id="clip0_4380_4605">
<rect width="55" height="13.7774" fill="white" transform="translate(9 5)"/>
</clipPath>
</defs>
</svg>
