<svg width="72" height="24" viewBox="0 0 72 24" fill="none" xmlns="http://www.w3.org/2000/svg">
<g clip-path="url(#clip0_2891_1452)">
<path d="M65.8129 7.7657C65.9227 7.7657 66.048 7.77187 66.048 7.62705C66.048 7.50996 65.954 7.49456 65.8664 7.49456H65.6848V7.7657H65.8161H65.8129ZM65.6816 8.2248H65.5656V7.39904H65.8882C66.0761 7.39904 66.1606 7.47915 66.1606 7.62705C66.1606 7.77495 66.0635 7.83657 65.9663 7.85814L66.2014 8.2248H66.0729L65.8442 7.85814H65.6816V8.2248ZM66.4206 7.81192C66.4206 7.47607 66.1669 7.21109 65.8287 7.21109C65.4906 7.21109 65.2369 7.47607 65.2369 7.81192C65.2369 8.14777 65.4906 8.41275 65.8287 8.41275C66.1669 8.41275 66.4206 8.14777 66.4206 7.81192ZM66.5364 7.81192C66.5364 8.19399 66.22 8.50519 65.8319 8.50519C65.4435 8.50519 65.1274 8.19091 65.1274 7.81192C65.1274 7.43293 65.4435 7.11865 65.8319 7.11865C66.22 7.11865 66.5364 7.43293 66.5364 7.81192Z" fill="white"/>
<path d="M45.2252 7.37109H36.0879V8.48957H40.096V16.1093H41.2325V8.48957H45.2252V7.37109Z" fill="white"/>
<path d="M15.4241 7.37109H14.1215L10.2043 14.8892L6.28384 7.37109H5L9.5686 16.1248H10.2043H10.8555L15.4241 7.37109Z" fill="white"/>
<path d="M67.0002 16.1246L62.4315 7.35547L61.1602 7.37087L56.5918 16.1246H57.86L61.796 8.59102L65.7131 16.1246H67.0002Z" fill="white"/>
<path d="M25.1062 8.48957V7.37109H18.0263H16.8896V16.1124V16.1248H25.1062V15.0094H18.0263V12.301H24.8369V11.1825H18.0263V8.48957H25.1062Z" fill="white"/>
<path d="M31.2309 16.4576C32.6838 16.4576 33.9927 15.8968 34.9321 15.0002C34.9603 14.9694 34.9916 14.9355 35.0198 14.9201L34.1242 14.1652C33.3884 14.8215 32.377 15.2374 31.2309 15.2374C29.0265 15.2374 27.2354 13.666 27.2354 11.7434C27.2354 9.82071 29.0265 8.2493 31.2309 8.2493C32.3613 8.2493 33.3759 8.66526 34.1086 9.32463L35.0042 8.56974C34.0648 7.62382 32.7277 7.03223 31.2309 7.03223C28.4096 7.03223 26.1206 9.14901 26.1206 11.7434C26.1206 14.3377 28.4127 16.4545 31.2309 16.4545" fill="white"/>
<path d="M47.8429 8.48942H53.2634C54.0179 8.48942 54.6255 9.08408 54.6255 9.82973C54.6255 10.5754 54.0492 11.1392 53.3384 11.1855H47.8429V8.48942ZM55.7748 9.82973C55.7748 8.46168 54.6537 7.37402 53.2634 7.37402H46.7095V16.1277H47.8587V12.3009H52.5055L54.5034 16.1277H55.7903L53.7487 12.2577C54.8979 12.0359 55.7748 11.0376 55.7748 9.82973Z" fill="white"/>
</g>
<defs>
<clipPath id="clip0_2891_1452">
<rect width="62" height="9.4898" fill="white" transform="translate(5 7)"/>
</clipPath>
</defs>
</svg>
