<svg width="72" height="24" viewBox="0 0 72 24" fill="none" xmlns="http://www.w3.org/2000/svg">
    <path d="M16.747 6.416L16.7848 6.38L15.5874 6.656C15.5748 6.656 14.995 6.788 14.0245 6.932C12.8397 5.708 11.1507 5 9.3987 5C7.63411 5 5.95774 5.708 4.76033 6.932C3.80241 6.788 3.21001 6.656 3.1974 6.656L2 6.38L2.03781 6.416L2.0126 6.404L3.39907 9.152C3.19741 9.752 3.09657 10.376 3.09657 11.012C3.09657 14.324 5.91993 17.012 9.3987 17.012C12.8775 17.012 15.7008 14.324 15.7008 11.012C15.7008 10.376 15.6 9.752 15.3983 9.152L16.7848 6.404L16.747 6.416Z" fill="white"/>
    <path d="M16.7848 6.38L15.5874 6.656C15.5748 6.656 14.995 6.788 14.0245 6.932C12.8397 5.708 11.1507 5 9.3987 5C7.63411 5 5.95774 5.708 4.76033 6.932C3.80241 6.788 3.21001 6.656 3.1974 6.656L2 6.38L2.03781 6.416L2.0126 6.404L3.39907 9.152C3.19741 9.752 3.09657 10.376 3.09657 11.012C3.09657 14.324 5.91993 17.012 9.3987 17.012C12.8775 17.012 15.7008 14.324 15.7008 11.012C15.7008 10.376 15.6 9.752 15.3983 9.152L16.7848 6.404L16.7596 6.416L16.7848 6.38ZM14.1883 10.856C14.1883 10.328 13.9867 9.812 13.6211 9.428C13.7724 9.248 13.9236 9.08 14.0623 8.924C14.5791 9.44 14.869 10.124 14.869 10.844C14.869 12.368 13.5833 13.604 11.9952 13.628V13.616C11.9952 13.616 11.9826 13.616 11.97 13.628H11.9574C11.554 13.628 11.1633 13.556 10.7978 13.4C10.8986 13.22 10.9994 13.052 11.1003 12.872C11.365 12.968 11.6423 13.016 11.9196 13.016C13.1674 13.016 14.1883 12.044 14.1883 10.856ZM13.0035 10.148C13.0791 10.052 13.1548 9.968 13.2178 9.884C13.4447 10.16 13.5707 10.496 13.5707 10.856C13.5707 11.12 13.5077 11.372 13.3816 11.588C13.4195 11.468 13.4321 11.336 13.4321 11.204C13.4447 10.808 13.2808 10.436 13.0035 10.148ZM13.117 11.192C13.117 11.864 12.5372 12.416 11.8313 12.416C11.6927 12.416 11.554 12.392 11.4154 12.356C11.8691 11.636 12.3481 10.988 12.8145 10.4C13.0035 10.616 13.117 10.904 13.117 11.192ZM9.18443 15.908C8.2013 15.872 7.25598 15.572 6.4367 15.032C5.91993 14.684 5.46617 14.252 5.11325 13.76C5.57961 14.012 6.12159 14.168 6.70139 14.18C7.04171 14.324 8.42817 14.912 9.18443 15.908ZM7.86098 14.06C7.99963 14.024 8.15088 13.964 8.27692 13.916C8.37776 14.108 8.47859 14.3 8.57943 14.504C8.32734 14.324 8.08786 14.18 7.86098 14.06ZM10.2054 14.492C10.3062 14.288 10.407 14.096 10.5079 13.904C10.6465 13.964 10.7852 14.012 10.9238 14.048C10.6969 14.18 10.4575 14.324 10.2054 14.492ZM12.0834 14.192C12.6506 14.168 13.1926 14.024 13.6589 13.772C12.7514 15.044 11.2515 15.848 9.60037 15.908C10.3566 14.912 11.7431 14.324 12.0834 14.192ZM3.95366 12.764C4.10491 12.968 4.28137 13.16 4.47044 13.328C4.87377 14.108 5.49138 14.792 6.24764 15.296C7.16775 15.908 8.25171 16.232 9.3861 16.232C11.4784 16.232 13.369 15.104 14.3018 13.328C14.5034 13.16 14.6799 12.968 14.8311 12.764C14.0623 14.912 11.9196 16.472 9.3987 16.472C6.87785 16.472 4.72252 14.912 3.95366 12.764ZM3.91585 10.832C3.91585 10.112 4.20575 9.44 4.72252 8.912C4.86117 9.068 5.01242 9.236 5.16367 9.416C4.79815 9.812 4.59648 10.316 4.59648 10.844C4.59648 12.032 5.61742 13.004 6.86525 13.004C7.14254 13.004 7.41983 12.956 7.68452 12.86C7.78536 13.028 7.88619 13.208 7.98703 13.388C7.6215 13.532 7.23077 13.616 6.82743 13.616H6.81483C6.80222 13.616 6.78962 13.604 6.78962 13.604V13.616C5.21409 13.592 3.91585 12.356 3.91585 10.832ZM5.42836 11.192C5.42836 11.42 5.47878 11.648 5.57961 11.84C5.35273 11.564 5.21409 11.228 5.21409 10.844C5.21409 10.484 5.34013 10.148 5.56701 9.872C5.65524 9.98 5.74347 10.076 5.81909 10.184C5.56701 10.472 5.42836 10.832 5.42836 11.192ZM6.02076 10.448C6.47451 11.024 6.94087 11.672 7.38202 12.368C7.319 12.392 7.25598 12.404 7.19296 12.416C7.14254 12.416 7.09212 12.428 7.04171 12.428C6.33587 12.428 5.75607 11.876 5.75607 11.204C5.75607 10.928 5.8443 10.664 6.02076 10.448ZM4.31918 8.492C4.18054 8.624 4.05449 8.768 3.95366 8.912L3.1848 7.376C3.42428 7.592 3.82762 7.964 4.31918 8.492ZM13.3438 7.028C13.243 7.04 13.1296 7.052 13.0161 7.064C12.0078 6.224 10.7348 5.768 9.3987 5.768C8.05005 5.768 6.77702 6.224 5.78128 7.064C5.66784 7.052 5.5544 7.04 5.45357 7.028C6.51233 6.068 7.924 5.528 9.41131 5.528C10.8734 5.528 12.2851 6.08 13.3438 7.028ZM9.3987 6.08C10.5583 6.08 11.6675 6.452 12.575 7.124C11.6549 7.232 10.5709 7.304 9.3987 7.328H9.3861C8.22651 7.316 7.14254 7.232 6.20982 7.124C7.11733 6.452 8.22651 6.08 9.3987 6.08ZM14.7051 7.412C14.2639 7.832 13.6715 8.444 13.0161 9.212C11.9196 10.496 10.4575 12.452 9.3987 14.828C8.32734 12.452 6.86525 10.484 5.78128 9.2C5.12586 8.432 4.53346 7.832 4.09231 7.4C5.21409 7.592 7.15514 7.856 9.37349 7.892H9.41131C11.6423 7.868 13.5707 7.604 14.7051 7.412ZM15.6126 7.376L14.8437 8.912C14.7303 8.768 14.6043 8.624 14.4782 8.492C14.9572 7.964 15.3605 7.592 15.6126 7.376Z" fill="#292829"/>
    <path d="M69.7603 10.1601C69.7351 10.2321 69.6973 10.2801 69.6469 10.3281C69.5965 10.3761 69.5335 10.4121 69.4704 10.4481C69.4074 10.4721 69.3318 10.4841 69.2562 10.4841C69.1805 10.4841 69.1049 10.4721 69.0419 10.4481C68.9789 10.4241 68.9158 10.3881 68.8654 10.3281C68.815 10.2801 68.7772 10.2201 68.752 10.1601C68.7268 10.0881 68.7142 10.0161 68.7142 9.94408C68.7142 9.86008 68.7268 9.78808 68.752 9.72808C68.7772 9.65608 68.815 9.60808 68.8654 9.54808C68.9158 9.50008 68.9789 9.46408 69.0419 9.42808C69.1049 9.40408 69.1805 9.39208 69.2562 9.39208C69.3318 9.39208 69.4074 9.40408 69.4704 9.42808C69.5335 9.45208 69.5965 9.48808 69.6469 9.54808C69.6973 9.59608 69.7351 9.65608 69.7603 9.72808C69.7855 9.80008 69.7982 9.87208 69.7982 9.94408C69.7982 10.0161 69.7855 10.0881 69.7603 10.1601ZM69.9368 9.64408C69.899 9.56008 69.836 9.48808 69.7729 9.42808C69.7099 9.36808 69.6217 9.32008 69.5335 9.28408C69.4452 9.24808 69.3444 9.23608 69.2436 9.23608C69.1427 9.23608 69.0545 9.24808 68.9537 9.28408C68.8654 9.32008 68.7772 9.36808 68.7142 9.42808C68.6386 9.48808 68.5881 9.56008 68.5503 9.64408C68.5125 9.72808 68.4873 9.82408 68.4873 9.93208C68.4873 10.0401 68.5125 10.1361 68.5503 10.2201C68.5881 10.3041 68.6512 10.3761 68.7142 10.4361C68.7898 10.4961 68.8654 10.5441 68.9537 10.5801C69.0419 10.6161 69.1427 10.6281 69.2436 10.6281C69.3444 10.6281 69.4326 10.6161 69.5335 10.5801C69.6217 10.5441 69.7099 10.4961 69.7729 10.4361C69.8486 10.3761 69.899 10.3041 69.9368 10.2201C69.9746 10.1361 69.9998 10.0401 69.9998 9.93208C69.9998 9.82408 69.9746 9.72808 69.9368 9.64408Z" fill="#292829"/>
    <path d="M69.4077 10.16C69.3699 10.184 69.3321 10.196 69.2691 10.196C69.2312 10.196 69.206 10.184 69.1682 10.172C69.143 10.16 69.1178 10.136 69.0926 10.112C69.0674 10.088 69.0548 10.064 69.0422 10.028C69.0296 9.992 69.0296 9.956 69.0296 9.92C69.0296 9.836 69.0548 9.776 69.0926 9.728C69.1304 9.68 69.1934 9.656 69.2691 9.656C69.3195 9.656 69.3699 9.668 69.3951 9.692C69.4329 9.716 69.4581 9.752 69.4707 9.8H69.622C69.622 9.752 69.5968 9.716 69.5842 9.68C69.559 9.644 69.5337 9.608 69.5085 9.584C69.4833 9.56 69.4455 9.536 69.4077 9.524C69.3699 9.512 69.3195 9.5 69.2817 9.5C69.2186 9.5 69.1556 9.512 69.1052 9.536C69.0548 9.56 69.0044 9.584 68.9792 9.62C68.9414 9.656 68.9161 9.704 68.8909 9.752C68.8657 9.8 68.8657 9.86 68.8657 9.92C68.8657 9.98 68.8783 10.028 68.8909 10.088C68.9161 10.136 68.9414 10.184 68.9792 10.22C69.017 10.256 69.0548 10.292 69.1178 10.304C69.1682 10.328 69.2312 10.34 69.2943 10.34C69.3321 10.34 69.3825 10.328 69.4203 10.316C69.4581 10.304 69.4959 10.28 69.5337 10.256C69.5716 10.232 69.5968 10.196 69.6094 10.16C69.6346 10.124 69.6472 10.076 69.6472 10.04H69.4833C69.4707 10.1 69.4455 10.136 69.4077 10.16Z" fill="#292829"/>
    <path d="M34.9728 11.144C35.0736 10.556 35.4644 10.196 35.9938 10.196C36.5357 10.196 36.9139 10.604 36.9517 11.144H34.9728ZM36.0064 9.17603C34.6325 9.17603 33.3721 10.148 33.3721 11.612C33.3721 13.148 34.4434 14.084 36.0442 14.084C37.229 14.084 38.1869 13.544 38.4642 12.548H36.9769C36.8508 12.86 36.4853 13.052 36.0694 13.052C35.4266 13.052 35.0232 12.68 34.9854 11.996H38.565V11.804C38.5398 10.232 37.5945 9.17603 36.0064 9.17603Z" fill="#292829"/>
    <path d="M25.2799 12.3321H25.2673L24.3472 9.30811H22.6582L23.9186 12.5601C24.1833 13.2321 24.3094 13.5681 24.3094 13.7481C24.3094 14.0601 24.0573 14.2641 23.6287 14.2641H23.112V15.5001H24.0321C25.0782 15.5001 25.5572 15.2721 25.9227 14.3121L27.826 9.30811H26.1874L25.2799 12.3321Z" fill="#292829"/>
    <path d="M30.5865 12.9201C29.9058 12.9201 29.6159 12.4761 29.6159 11.5761C29.6159 10.7361 30.0445 10.3281 30.5865 10.3281C31.2041 10.3281 31.5318 10.8441 31.5318 11.5761C31.5444 12.3561 31.2041 12.9201 30.5865 12.9201ZM31.0906 9.17612C30.4856 9.17612 30.0319 9.39212 29.7042 9.82412H29.6916V7.56812H28.0908V13.9521H29.6033V13.4121H29.6159C29.931 13.8561 30.3848 14.0841 30.9646 14.0841C32.5149 14.0841 33.1451 12.8121 33.1451 11.5281C33.1451 10.2681 32.4267 9.17612 31.0906 9.17612Z" fill="#292829"/>
    <path d="M20.3897 12.92C19.7721 12.92 19.4318 12.416 19.4318 11.696C19.4318 10.748 19.7847 10.34 20.4653 10.34C20.8687 10.34 21.2342 10.604 21.2468 11.012H22.7971C22.6837 9.84803 21.6754 9.17603 20.3897 9.17603C18.8898 9.17603 17.8311 10.172 17.8311 11.708C17.8311 13.172 18.9654 14.084 20.3897 14.084C21.7006 14.084 22.6963 13.376 22.8349 12.128H21.2846C21.2216 12.656 20.9191 12.92 20.3897 12.92Z" fill="#292829"/>
    <path d="M60.2442 12.92C59.6266 12.92 59.2737 12.416 59.2737 11.636C59.2737 10.832 59.6518 10.34 60.2316 10.34C60.887 10.34 61.2147 10.892 61.2147 11.636C61.2147 12.38 60.8996 12.92 60.2442 12.92ZM60.2442 9.17603C58.6813 9.17603 57.6855 10.292 57.6855 11.636C57.6855 13.052 58.7443 14.084 60.2442 14.084C61.8197 14.084 62.8155 12.98 62.8155 11.636C62.8155 10.22 61.7315 9.17603 60.2442 9.17603Z" fill="#292829"/>
    <path d="M56.2112 11.156C55.5053 11.036 55.039 10.94 54.8247 10.856C54.6104 10.76 54.497 10.64 54.497 10.508C54.497 10.28 54.6987 10.16 55.1776 10.16C55.6314 10.16 55.8961 10.328 55.8961 10.676H57.3708C57.3329 9.68003 56.5389 9.17603 55.1272 9.17603C54.081 9.17603 52.8962 9.53603 52.8962 10.592C52.8962 11.288 53.2492 11.72 54.3583 11.948C54.7365 12.032 55.1146 12.104 55.4423 12.188C55.7952 12.272 55.9339 12.404 55.9339 12.608C55.9339 12.908 55.5936 13.1 55.1776 13.1C54.6482 13.1 54.3205 12.836 54.3205 12.416H52.7954C52.8332 13.52 53.7155 14.084 55.1776 14.084C56.312 14.084 57.522 13.652 57.522 12.44C57.5346 11.852 57.0683 11.288 56.2112 11.156Z" fill="#292829"/>
    <path d="M66.3701 9.17603C65.7651 9.17603 65.1223 9.48803 64.8324 9.94403H64.8198V9.30803H63.2568V13.952H64.8576V11.456C64.8576 10.856 65.1601 10.424 65.7273 10.424C66.2567 10.424 66.5213 10.688 66.5213 11.204V13.952H68.1221V10.94C68.1095 9.76403 67.5297 9.17603 66.3701 9.17603Z" fill="#292829"/>
    <path d="M43.9342 11.144C44.0351 10.556 44.4258 10.196 44.9552 10.196C45.4972 10.196 45.8753 10.604 45.9131 11.144H43.9342ZM44.9678 9.17603C43.5939 9.17603 42.3335 10.148 42.3335 11.612C42.3335 13.148 43.4049 14.084 45.0056 14.084C46.1904 14.084 47.1483 13.544 47.4256 12.548H45.9383C45.8123 12.86 45.4467 13.052 45.0308 13.052C44.388 13.052 43.9847 12.68 43.9468 11.996H47.5265V11.804C47.5138 10.232 46.5685 9.17603 44.9678 9.17603Z" fill="#292829"/>
    <path d="M42.4095 9.26012C42.2961 9.23612 42.17 9.22412 42.0314 9.22412C41.3129 9.22412 40.7835 9.56012 40.5693 10.1241H40.5567V9.30812H39.0063V13.9521H40.6071V11.6241C40.6071 11.0481 41.0608 10.5561 41.8045 10.5561C42.0314 10.5561 42.17 10.5801 42.4095 10.6401V9.26012Z" fill="#292829"/>
    <path d="M50.8921 11.96C50.8921 12.8 50.6148 13.148 49.9216 13.148C49.4931 13.148 49.241 12.98 49.241 12.62C49.241 12.308 49.4552 12.116 49.8964 12.032L50.451 11.912C50.6779 11.864 50.8417 11.816 50.8795 11.78V11.96H50.8921ZM52.4298 10.7C52.4298 9.74003 51.7996 9.17603 50.1611 9.17603C48.7368 9.17603 47.9049 9.69203 47.8545 10.736H49.3418C49.4174 10.352 49.6947 10.16 50.1359 10.16C50.5518 10.16 50.9047 10.34 50.9047 10.64C50.9047 10.976 50.6779 11.06 50.2241 11.108C49.8586 11.156 49.5057 11.204 49.1023 11.276C48.283 11.408 47.6528 11.792 47.6528 12.668C47.6528 13.532 48.2578 14.072 49.3166 14.072C50.0098 14.072 50.5518 13.868 50.9173 13.496C50.9551 13.76 50.9677 13.88 51.0056 13.928H52.6063C52.4677 13.664 52.4172 13.292 52.4172 12.968L52.4298 10.7Z" fill="#292829"/>
</svg>
