<svg width="72" height="24" viewBox="0 0 72 24" fill="none" xmlns="http://www.w3.org/2000/svg">
    <path d="M16.9629 6.534C16.9373 6.495 16.8862 6.469 16.8478 6.482L15.6575 6.768C15.6319 6.768 15.0815 6.911 14.16 7.054C12.9569 5.754 11.2547 5 9.48845 5C7.72222 5 6.03277 5.754 4.81689 7.054C3.93377 6.911 3.38342 6.781 3.31943 6.768L2.12914 6.469C2.07795 6.456 2.02675 6.482 2.01395 6.521C1.98836 6.56 2.00115 6.612 2.02675 6.651L3.38342 9.524C3.17864 10.161 3.08905 10.824 3.08905 11.5C3.08905 15.088 5.95598 18 9.48845 18C13.0209 18 15.8878 15.088 15.8878 11.5C15.8878 10.824 15.7855 10.161 15.5935 9.537L16.9501 6.664C16.9885 6.625 16.9885 6.573 16.9629 6.534Z" fill="#F6BD03"/>
    <path d="M16.8733 6.573L15.683 6.859C15.6702 6.859 15.0815 7.002 14.1216 7.158C12.9313 5.858 11.2419 5.104 9.48842 5.104C7.72219 5.104 6.04555 5.858 4.85526 7.171C3.89535 7.015 3.3066 6.872 3.2938 6.872L2.10352 6.586L2.14191 6.625L2.11631 6.612L3.49858 9.537C3.2938 10.174 3.19141 10.837 3.19141 11.513C3.19141 15.036 6.01995 17.909 9.48842 17.909C12.9569 17.909 15.7854 15.036 15.7854 11.513C15.7854 10.837 15.683 10.174 15.4783 9.537L16.8605 6.612L16.8349 6.625L16.8733 6.573ZM14.2752 11.344C14.2752 10.772 14.0704 10.239 13.712 9.823C13.8656 9.641 14.0192 9.459 14.16 9.29C14.6719 9.849 14.9663 10.564 14.9663 11.331C14.9663 12.956 13.6864 14.269 12.0994 14.295V14.282C12.0994 14.282 12.0866 14.282 12.0738 14.295H12.061C11.6642 14.295 11.2675 14.217 10.9091 14.061C11.0115 13.866 11.1139 13.684 11.2163 13.502C11.4722 13.606 11.7538 13.658 12.0354 13.658C13.2513 13.645 14.2752 12.618 14.2752 11.344ZM13.0977 10.59C13.1745 10.499 13.2385 10.395 13.3153 10.304C13.5456 10.603 13.6608 10.967 13.6608 11.344C13.6608 11.63 13.5968 11.89 13.4688 12.124C13.5072 11.994 13.52 11.851 13.52 11.708C13.5328 11.292 13.3793 10.889 13.0977 10.59ZM13.2129 11.708C13.2129 12.423 12.6369 13.008 11.933 13.008C11.7922 13.008 11.6514 12.982 11.5234 12.943C11.9842 12.176 12.4577 11.487 12.9185 10.863C13.0977 11.097 13.2129 11.396 13.2129 11.708ZM9.28364 16.726C8.29813 16.687 7.35102 16.375 6.5447 15.803C6.01995 15.439 5.58479 14.971 5.22642 14.451C5.69998 14.724 6.23753 14.88 6.81347 14.906C7.14624 15.036 8.52851 15.673 9.28364 16.726ZM7.95257 14.75C8.09335 14.711 8.23414 14.659 8.37493 14.594C8.47732 14.802 8.57971 15.01 8.6693 15.218C8.42612 15.036 8.18294 14.88 7.95257 14.75ZM10.3075 15.218C10.4099 15.01 10.4995 14.802 10.6019 14.594C10.7427 14.659 10.8835 14.711 11.0243 14.75C10.7939 14.88 10.5507 15.036 10.3075 15.218ZM12.1762 14.906C12.7521 14.88 13.2769 14.724 13.7504 14.451C12.8417 15.803 11.3442 16.661 9.706 16.726C10.4483 15.673 11.8434 15.036 12.1762 14.906ZM4.06173 13.372C4.21532 13.593 4.3817 13.788 4.58648 13.97C4.99604 14.802 5.59759 15.53 6.36551 16.063C7.28703 16.713 8.37493 17.064 9.50122 17.064C11.5874 17.064 13.4816 15.855 14.4032 13.97C14.5951 13.788 14.7743 13.593 14.9279 13.372C14.16 15.66 12.0098 17.324 9.50122 17.324C6.97986 17.324 4.82966 15.673 4.06173 13.372ZM4.02334 11.331C4.02334 10.564 4.30491 9.836 4.82966 9.29C4.97045 9.459 5.12403 9.641 5.27762 9.823C4.91925 10.239 4.71447 10.785 4.71447 11.344C4.71447 12.618 5.73837 13.645 6.97986 13.645C7.26143 13.645 7.53021 13.593 7.79898 13.489C7.90137 13.671 8.00376 13.853 8.10615 14.048C7.74779 14.204 7.35102 14.282 6.95426 14.282H6.94146C6.92866 14.282 6.91586 14.269 6.91586 14.269V14.282C5.31601 14.269 4.02334 12.943 4.02334 11.331ZM5.53359 11.708C5.53359 11.955 5.58479 12.189 5.68718 12.397C5.4568 12.111 5.31601 11.734 5.31601 11.344C5.31601 10.967 5.444 10.603 5.66158 10.304C5.75117 10.408 5.82797 10.525 5.91756 10.642C5.67438 10.941 5.53359 11.318 5.53359 11.708ZM6.12234 10.915C6.5703 11.526 7.03105 12.215 7.47901 12.956C7.41502 12.982 7.35102 12.995 7.28703 13.008C7.23583 13.008 7.18464 13.021 7.13344 13.021C6.42951 13.021 5.85356 12.436 5.85356 11.721C5.85356 11.422 5.94315 11.136 6.12234 10.915ZM4.4329 8.822C4.29211 8.965 4.17692 9.108 4.06173 9.277L3.2938 7.639C3.52418 7.873 3.93374 8.276 4.4329 8.822ZM13.4432 7.275C13.3409 7.288 13.2257 7.301 13.1105 7.314C12.1122 6.417 10.8323 5.936 9.48842 5.936C8.14455 5.936 6.87747 6.43 5.86636 7.327C5.75117 7.314 5.64878 7.301 5.53359 7.288C6.60869 6.248 8.01656 5.676 9.48842 5.676C10.9603 5.676 12.3809 6.248 13.4432 7.275ZM9.48842 6.261C10.6531 6.261 11.7538 6.651 12.6625 7.366C11.741 7.47 10.6531 7.561 9.50122 7.587H9.48842C8.32373 7.574 7.24863 7.483 6.32712 7.366C7.22303 6.651 8.32373 6.261 9.48842 6.261ZM14.7871 7.678C14.352 8.133 13.7632 8.77 13.0977 9.589C12.0098 10.954 10.5507 13.047 9.48842 15.582C8.42612 13.047 6.96706 10.954 5.87916 9.589C5.22642 8.77 4.63768 8.133 4.18972 7.678C5.31601 7.886 7.24863 8.172 9.46282 8.198H9.50122C11.7282 8.172 13.6608 7.886 14.7871 7.678ZM15.6958 7.639L14.9279 9.277C14.8127 9.121 14.6975 8.965 14.5567 8.822C15.0431 8.276 15.4527 7.873 15.6958 7.639Z" fill="#292829"/>
    <path d="M69.4123 10.6029C69.3739 10.6289 69.3355 10.6419 69.2715 10.6419C69.2331 10.6419 69.2075 10.6289 69.1691 10.6159C69.1435 10.6029 69.1179 10.5769 69.0923 10.5509C69.0667 10.5249 69.0539 10.4989 69.0411 10.4599C69.0283 10.4209 69.0283 10.3819 69.0283 10.3559C69.0283 10.2779 69.0539 10.1999 69.0923 10.1479C69.1307 10.0959 69.1947 10.0699 69.2587 10.0699C69.3099 10.0699 69.3483 10.0829 69.3867 10.1089C69.4251 10.1349 69.4507 10.1739 69.4507 10.2129H69.6043C69.5915 10.1609 69.5787 10.1219 69.5659 10.0829C69.5403 10.0439 69.5147 10.0179 69.4891 9.99188C69.4635 9.96588 69.4251 9.95288 69.3867 9.92688C69.3483 9.91388 69.3099 9.90088 69.2587 9.90088C69.1947 9.90088 69.1307 9.91388 69.0795 9.93988C69.0283 9.96588 68.9899 9.99188 68.9515 10.0309C68.9131 10.0699 68.8875 10.1219 68.8747 10.1739C68.8619 10.2259 68.8491 10.2909 68.8491 10.3559C68.8491 10.4209 68.8619 10.4729 68.8747 10.5249C68.9003 10.5769 68.9259 10.6289 68.9643 10.6679C69.0027 10.7069 69.0411 10.7329 69.0923 10.7589C69.1435 10.7849 69.2075 10.7979 69.2715 10.7979C69.3099 10.7979 69.3611 10.7849 69.3995 10.7719C69.4379 10.7589 69.4763 10.7329 69.5019 10.7069C69.5403 10.6809 69.5659 10.6419 69.5787 10.6029C69.5915 10.5639 69.617 10.5249 69.617 10.4729H69.4635C69.4635 10.5379 69.4507 10.5769 69.4123 10.6029Z" fill="white"/>
    <path d="M69.7583 10.6029C69.7327 10.6809 69.6943 10.7329 69.6431 10.7849C69.5919 10.8369 69.5407 10.8759 69.4639 10.9019C69.3999 10.9279 69.3231 10.9409 69.2463 10.9409C69.1696 10.9409 69.0928 10.9279 69.0288 10.9019C68.9648 10.8759 68.9008 10.8369 68.8496 10.7849C68.7984 10.7329 68.76 10.6679 68.7344 10.6029C68.7088 10.5379 68.696 10.4469 68.696 10.3689C68.696 10.2779 68.7088 10.1999 68.7344 10.1349C68.76 10.0569 68.7984 10.0049 68.8496 9.95293C68.9008 9.90093 68.952 9.86193 69.0288 9.83593C69.0928 9.80993 69.1696 9.79693 69.2463 9.79693C69.3231 9.79693 69.3999 9.80993 69.4639 9.83593C69.5279 9.86193 69.5919 9.90093 69.6431 9.95293C69.6943 10.0049 69.7327 10.0699 69.7583 10.1349C69.7839 10.2129 69.7967 10.2909 69.7967 10.3689C69.7967 10.4469 69.7839 10.5249 69.7583 10.6029ZM69.9375 10.0569C69.8991 9.96593 69.8351 9.88793 69.7711 9.82293C69.7071 9.75793 69.6175 9.70593 69.5279 9.67993C69.4383 9.64093 69.3359 9.62793 69.2463 9.62793C69.144 9.62793 69.0544 9.64093 68.9648 9.67993C68.8752 9.71893 68.7984 9.77093 68.7216 9.82293C68.6576 9.88793 68.5936 9.96593 68.5552 10.0569C68.5168 10.1479 68.4912 10.2519 68.4912 10.3689C68.4912 10.4859 68.5168 10.5899 68.5552 10.6809C68.5936 10.7719 68.6576 10.8499 68.7216 10.9149C68.7856 10.9799 68.8752 11.0319 68.9648 11.0579C69.0544 11.0969 69.1568 11.1099 69.2463 11.1099C69.3487 11.1099 69.4383 11.0969 69.5279 11.0579C69.6175 11.0189 69.6943 10.9799 69.7711 10.9149C69.8351 10.8499 69.8991 10.7719 69.9375 10.6809C69.9759 10.5899 70.0015 10.4859 70.0015 10.3689C70.0015 10.2519 69.9759 10.1479 69.9375 10.0569Z" fill="white"/>
    <path d="M35.0221 11.656C35.1245 11.032 35.5085 10.642 36.046 10.642C36.5836 10.642 36.9675 11.084 37.0059 11.656H35.0221ZM36.0588 9.55005C34.6893 9.55005 33.4351 10.59 33.4351 12.15C33.4351 13.788 34.4974 14.776 36.0972 14.776C37.2747 14.776 38.2346 14.204 38.5162 13.138H37.0315C36.9035 13.476 36.5452 13.684 36.1228 13.684C35.4829 13.684 35.0733 13.281 35.0349 12.566H38.6058V12.371C38.593 10.694 37.6459 9.55005 36.0588 9.55005Z" fill="white"/>
    <path d="M20.4698 13.541C19.8555 13.541 19.5099 12.995 19.5099 12.241C19.5099 11.227 19.8555 10.798 20.5466 10.798C20.9434 10.798 21.3145 11.084 21.3273 11.513H22.876C22.7608 10.278 21.7625 9.56299 20.4698 9.56299C18.9724 9.56299 17.9229 10.629 17.9229 12.254C17.9229 13.814 19.0619 14.789 20.4698 14.789C21.7753 14.789 22.7608 14.035 22.9144 12.709H21.3657C21.3017 13.268 20.9946 13.541 20.4698 13.541Z" fill="white"/>
    <path d="M25.3464 12.9171H25.3336L24.4121 9.69312H22.7227L23.9897 13.1641C24.2585 13.8791 24.3865 14.2431 24.3865 14.4251C24.3865 14.7631 24.1305 14.9711 23.7082 14.9711H23.1962V16.2841H24.1177C25.1544 16.2841 25.6408 16.0501 25.9991 15.0231L27.9062 9.69312H26.2807L25.3464 12.9171Z" fill="white"/>
    <path d="M30.6579 13.5409C29.9795 13.5409 29.698 13.0599 29.698 12.1109C29.698 11.2139 30.1331 10.7849 30.6707 10.7849C31.285 10.7849 31.6178 11.3309 31.6178 12.1109C31.6178 12.9429 31.2594 13.5409 30.6579 13.5409ZM31.157 9.54992C30.5555 9.54992 30.0947 9.78392 29.7748 10.2389H29.762V7.84692H28.1621V14.6459H29.6852V14.0739H29.698C30.0179 14.5549 30.4659 14.7889 31.0418 14.7889C32.5905 14.7889 33.2176 13.4369 33.2176 12.0719C33.2048 10.7199 32.4881 9.54992 31.157 9.54992Z" fill="white"/>
    <path d="M43.9812 11.656C44.0836 11.032 44.4676 10.642 45.0051 10.642C45.5426 10.642 45.9266 11.084 45.965 11.656H43.9812ZM45.0051 9.55005C43.6356 9.55005 42.3813 10.59 42.3813 12.15C42.3813 13.788 43.4564 14.776 45.0435 14.776C46.221 14.776 47.1809 14.204 47.4625 13.138H45.9778C45.8498 13.476 45.4915 13.684 45.0691 13.684C44.4292 13.684 44.0196 13.281 43.9812 12.566H47.5521V12.371C47.5521 10.694 46.6049 9.55005 45.0051 9.55005Z" fill="white"/>
    <path d="M42.4581 9.64105C42.3429 9.61505 42.2149 9.60205 42.0869 9.60205C41.3702 9.60205 40.8454 9.96605 40.6279 10.5641H40.6151V9.69305H39.0664V14.633H40.6535V12.1631C40.6535 11.5521 41.1014 11.0191 41.8565 11.0191C42.0869 11.0191 42.2277 11.0451 42.4709 11.1101L42.4581 9.64105Z" fill="white"/>
    <path d="M66.379 9.55005C65.7775 9.55005 65.1376 9.88805 64.8432 10.369H64.8304V9.69305H63.2817V14.633H64.8816V11.981C64.8816 11.344 65.176 10.889 65.7391 10.889C66.2639 10.889 66.5326 11.162 66.5326 11.721V14.646H68.1325V11.435C68.1197 10.187 67.5437 9.55005 66.379 9.55005Z" fill="white"/>
    <path d="M60.2614 13.541C59.6471 13.541 59.3015 13.008 59.3015 12.176C59.3015 11.318 59.6727 10.798 60.2614 10.798C60.9142 10.798 61.2469 11.383 61.2469 12.176C61.2341 12.969 60.9142 13.541 60.2614 13.541ZM60.2614 9.55005C58.7 9.55005 57.7017 10.746 57.7017 12.163C57.7017 13.671 58.764 14.776 60.2614 14.776C61.8357 14.776 62.834 13.593 62.834 12.163C62.834 10.668 61.7461 9.55005 60.2614 9.55005Z" fill="white"/>
    <path d="M50.931 12.514C50.931 13.411 50.6622 13.775 49.9711 13.775C49.5487 13.775 49.2927 13.593 49.2927 13.216C49.2927 12.878 49.5103 12.683 49.9455 12.592L50.4958 12.462C50.7262 12.41 50.8798 12.358 50.931 12.319V12.514ZM52.4668 11.188C52.4668 10.161 51.8397 9.56299 50.2014 9.56299C48.7808 9.56299 47.9488 10.122 47.8977 11.227H49.3823C49.4591 10.811 49.7279 10.603 50.1758 10.603C50.5854 10.603 50.9438 10.798 50.9438 11.123C50.9438 11.474 50.7134 11.565 50.2654 11.63C49.8943 11.682 49.5487 11.734 49.1391 11.812C48.32 11.955 47.6929 12.358 47.6929 13.294C47.6929 14.217 48.3072 14.789 49.3567 14.789C50.0478 14.789 50.5982 14.568 50.9566 14.178C50.995 14.464 51.0078 14.594 51.0462 14.646H52.646C52.5052 14.373 52.454 13.97 52.454 13.632L52.4668 11.188Z" fill="white"/>
    <path d="M56.2298 11.6691C55.5258 11.5391 55.0523 11.4351 54.8475 11.3441C54.6299 11.2401 54.5147 11.1101 54.5147 10.9671C54.5147 10.7331 54.7067 10.5901 55.1931 10.5901C55.6538 10.5901 55.9098 10.7721 55.9098 11.1361H57.3817C57.3433 10.0831 56.5625 9.53711 55.1419 9.53711C54.1052 9.53711 52.9149 9.91411 52.9149 11.0451C52.9149 11.7861 53.2605 12.2411 54.374 12.4881C54.7451 12.5791 55.1291 12.6571 55.4491 12.7481C55.7946 12.8391 55.9482 12.9821 55.9482 13.1901C55.9482 13.5021 55.6154 13.7101 55.1931 13.7101C54.6683 13.7101 54.3356 13.4371 54.3356 12.9821H52.8125C52.8509 14.1521 53.734 14.7501 55.1931 14.7501C56.3322 14.7501 57.5225 14.2951 57.5225 12.9951C57.5481 12.3971 57.0873 11.8121 56.2298 11.6691Z" fill="white"/>
</svg>
