<svg width="129px" height="71px" viewBox="0 0 129 71" version="1.1" xmlns="http://www.w3.org/2000/svg" xmlns:xlink="http://www.w3.org/1999/xlink">
    <defs>
        <polygon id="path-1" points="0 71 125.99706 71 125.99706 0.00498245614 0 0.00498245614"></polygon>
        <polygon id="path-3" points="0 0 11 0 11 6 0 6"></polygon>
    </defs>
    <g id="Landingpage" stroke="none" stroke-width="1" fill="none" fill-rule="evenodd">
        <g id="Tria.ge" transform="translate(-90.000000, -90.000000)">
            <g id="Group-15" transform="translate(154.500000, 125.500000) rotate(-360.000000) translate(-154.500000, -125.500000) translate(90.000000, 90.000000)">
                <polygon id="Fill-1" fill="#FC493E" points="63 0 63 28 77.5654911 13.8809408 92 0"></polygon>
                <polygon id="Fill-2" fill="#FC493E" points="25 0 39.4345089 13.8809408 54 28 54 0"></polygon>
                <polygon id="Fill-3" fill="#000000" points="0 35 0 39.9300506 9.53245982 39.9300506 9.53245982 62.9999573 15.4675402 63 15.4675402 39.9300506 25 39.9300506 25 35"></polygon>
                <g id="Group-11">
                    <path d="M27.048084,44.5103152 L27.635874,44.5103152 C28.434084,42.2266895 30.197874,41.4378006 32.844084,41.4378006 L34.859874,41.4378006 L34.859874,46.1711339 L31.751664,46.1711339 C29.064084,46.1711339 27.131874,47.5828298 27.131874,50.4892626 L27.131874,62.114786 L21.839874,62.114786 L21.839874,41.5210491 L27.048084,41.5210491 L27.048084,44.5103152 Z" id="Fill-4" fill="#000000"></path>
                    <mask id="mask-2" fill="white">
                        <use xlink:href="#path-1"></use>
                    </mask>
                    <g id="Clip-7"></g>
                    <path d="M37.54779,62.1148275 L42.83979,62.1148275 L42.83979,41.5210906 L37.54779,41.5210906 L37.54779,62.1148275 Z M40.19379,31.9711754 C42.29358,31.9711754 43.93179,33.4243918 43.93179,35.5421433 C43.93179,37.6596871 42.29358,39.1129035 40.19379,39.1129035 C38.09379,39.1129035 36.45579,37.6596871 36.45579,35.5421433 C36.45579,33.4243918 38.09379,31.9711754 40.19379,31.9711754 Z" id="Fill-6" fill="#000000" mask="url(#mask-2)"></path>
                    <path d="M55.565433,58.3779023 C59.261433,58.3779023 61.319013,56.2190456 61.319013,53.3956538 L61.319013,53.0632825 L54.935433,53.8108585 C52.961433,54.0597737 51.995433,54.7658292 51.995433,55.9697152 C51.995433,57.3814111 53.213223,58.3779023 55.565433,58.3779023 M57.245223,40.9397211 C62.915223,40.9397211 66.611223,44.1365895 66.611223,48.9529637 L66.611223,62.1147444 L61.403223,62.1147444 L61.403223,59.2083117 L60.815223,59.2083117 C60.143223,60.5786947 58.673223,62.696031 54.263223,62.696031 C49.559433,62.696031 46.451433,60.2048029 46.451433,56.2605661 C46.451433,52.9804491 49.349433,50.6968234 53.339223,50.2816187 L61.319013,49.4096889 L61.319013,48.9114433 C61.319013,46.9599813 59.807223,45.4239316 56.951433,45.4239316 C54.179223,45.4239316 52.457223,46.8354199 51.155433,48.9944842 L46.871433,46.2543409 C49.349433,43.1818263 52.163433,40.9397211 57.245223,40.9397211" id="Fill-8" fill="#000000" mask="url(#mask-2)"></path>
                    <path d="M86.519097,51.4856708 C86.519097,47.7488287 84.083097,45.5899719 80.807307,45.5899719 C77.615307,45.5899719 75.095307,47.6659953 75.095307,51.4856708 C75.095307,55.3053462 77.615307,57.3813696 80.807307,57.3813696 C84.083097,57.3813696 86.519097,55.2225129 86.519097,51.4856708 Z M91.810887,41.5209661 L91.810887,61.408855 C91.810887,67.0556386 87.653097,71.000083 81.101097,71.000083 C75.389097,71.000083 72.155517,68.425814 70.055517,65.1872175 L74.507307,62.4468667 C75.599097,64.5644105 77.615307,66.5156649 80.765097,66.5156649 C84.041097,66.5156649 86.519097,64.8550538 86.519097,61.2012526 L86.519097,58.5439427 L86.015097,58.5439427 C84.923097,60.2878023 83.075097,62.031662 79.379097,62.031662 C74.171307,62.031662 69.803097,57.6307 69.803097,51.4856708 C69.803097,45.3406415 74.171307,40.9396795 79.379097,40.9396795 C83.075097,40.9396795 84.923097,42.6835392 86.015097,44.4273988 L86.603097,44.4273988 L86.603097,41.5209661 L91.810887,41.5209661 Z" id="Fill-9" fill="#000000" mask="url(#mask-2)"></path>
                    <path d="M110.458488,49.7003737 C110.080488,47.0845842 108.400488,45.4237655 105.670488,45.4237655 C102.688698,45.4237655 101.134698,47.1676251 100.714698,49.7003737 L110.458488,49.7003737 Z M105.712488,40.9397626 C111.760488,40.9397626 115.834488,45.1331222 115.834488,51.3196719 L115.834488,53.3541749 L100.672698,53.3541749 C100.882698,56.0943181 102.856698,58.211862 105.880488,58.211862 C108.820488,58.211862 110.374698,56.5925637 111.088488,55.1393474 L115.414488,57.6305754 C113.986488,59.7896398 111.550488,62.6960725 105.964698,62.6960725 C99.748698,62.6960725 95.254698,58.0457801 95.254698,51.6516281 C95.254698,45.4237655 99.580698,40.9397626 105.712488,40.9397626 Z" id="Fill-10" fill="#000000" mask="url(#mask-2)"></path>
                </g>
                <g id="Group-14" transform="translate(118.000000, 35.000000)">
                    <mask id="mask-4" fill="white">
                        <use xlink:href="#path-3"></use>
                    </mask>
                    <g id="Clip-13"></g>
                    <path d="M9.2594022,0 L8.0989284,4.9731255 L8.00611759,4.9731255 L6.8458696,0 L5.10549762,0 L5.10549762,6 L6.07989818,6 L6.07989818,1.0268745 L6.1729348,1.0268745 L7.33340861,6 L8.77208901,6 L9.932337,1.0268745 L10.0253736,1.0268745 L10.0253736,6 L11,6 L11,0 L9.2594022,0 Z M0,0 L0,1.0268745 L1.71711283,1.0268745 L1.71711283,6 L2.69196502,6 L2.69196502,1.0268745 L4.40907785,1.0268745 L4.40907785,0 L0,0 Z" id="Fill-12" fill="#000000" mask="url(#mask-4)"></path>
                </g>
            </g>
        </g>
    </g>
</svg>
