<svg width="73" height="24" viewBox="0 0 73 24" fill="none" xmlns="http://www.w3.org/2000/svg">
<g clip-path="url(#clip0_4092_1634)">
<path d="M17.356 14.5502V14.5356C17.3589 13.1359 18.4181 11.9922 19.9314 11.9951C20.8597 11.9951 21.4155 12.3094 21.8695 12.7605L21.1798 13.5549C20.8015 13.2086 20.4144 12.9962 19.9226 12.9962C19.0933 12.9962 18.4909 13.683 18.4909 14.5269V14.5414C18.4909 15.3854 19.07 16.0896 19.9168 16.0925C20.4785 16.0925 20.8248 15.8684 21.2118 15.5192L21.8986 16.2176C21.3893 16.7589 20.8277 17.0936 19.8761 17.0907C18.4269 17.0877 17.3531 15.9645 17.356 14.5502Z" fill="white"/>
<path d="M22.7714 12.085H23.854L23.8481 14.0376L25.8473 14.0434L25.8532 12.0937H26.9357L26.9241 17.0233H25.8415L25.8473 15.0445L23.8481 15.0387L23.8423 17.0146H22.7598L22.7714 12.085Z" fill="white"/>
<path d="M28.2514 12.0996L31.9675 12.1083V13.0715L29.3252 13.0657V14.0639L31.6445 14.0697V15.0329L29.3194 15.0271V16.0602L31.9908 16.066V17.0292L28.2397 17.0205L28.2514 12.0938V12.0996Z" fill="white"/>
<path d="M32.7383 14.5882V14.5737C32.7412 13.174 33.8005 12.0303 35.3137 12.0332C36.242 12.0332 36.7978 12.3475 37.2547 12.7986L36.5621 13.593C36.1838 13.2467 35.7968 13.0343 35.305 13.0343C34.4756 13.0343 33.8761 13.721 33.8732 14.565V14.5795C33.8732 15.4234 34.4523 16.1277 35.2962 16.1306C35.8579 16.1306 36.2042 15.9065 36.5941 15.5573L37.2809 16.2557C36.7716 16.797 36.21 17.1316 35.2584 17.1287C33.8092 17.1258 32.7354 16.0025 32.7383 14.5882Z" fill="white"/>
<path d="M38.0927 12.126H39.1752L39.1694 14.2823L41.1715 12.1347H42.4811L40.4702 14.2212L42.5596 17.0615H41.2588L39.7369 14.9575L39.1665 15.5482V17.0527H38.0781L38.0898 12.126H38.0927Z" fill="white"/>
<path d="M45.4965 12.1436L47.5074 12.1494C48.683 12.1523 49.3902 12.8507 49.3902 13.8576V13.8721C49.3873 15.0129 48.4997 15.6007 47.3939 15.5978H46.5703L46.5674 17.0732H45.4849L45.4965 12.1436ZM47.4317 14.6317C47.973 14.6317 48.2902 14.3116 48.2902 13.8896V13.875C48.2902 13.3891 47.9555 13.1272 47.4142 13.1272H46.5761L46.5732 14.6317H47.4317Z" fill="white"/>
<path d="M50.0884 14.6312V14.6167C50.0913 13.2169 51.2 12.0733 52.7191 12.0762C54.2381 12.0791 55.3265 13.2169 55.3236 14.6167V14.6312C55.3207 16.031 54.212 17.1746 52.6929 17.1717C51.1738 17.1688 50.0855 16.0339 50.0884 14.6312ZM54.1916 14.6429V14.6283C54.1916 13.7844 53.5746 13.0772 52.7045 13.0772C51.8344 13.0772 51.2262 13.764 51.2233 14.6079V14.6225C51.2233 15.4664 51.8373 16.1706 52.7104 16.1736C53.5834 16.1765 54.1916 15.4868 54.1916 14.6429Z" fill="white"/>
<path d="M56.3857 12.1729H57.4682L57.4566 17.1025H56.374L56.3857 12.1729Z" fill="white"/>
<path d="M58.83 12.1787H59.8282L62.1271 15.2197L62.1358 12.1874H63.2038L63.1922 17.1171H62.2726L59.8951 13.9771L59.8864 17.1084H58.8184L58.83 12.1787Z" fill="white"/>
<path d="M65.6598 13.1973H64.1611V12.1934L68.241 12.205V13.2032L66.7424 13.2002L66.7307 17.1259H65.6453L65.6569 13.1973H65.6598Z" fill="white"/>
<path d="M16.4771 8.39501C15.7031 9.35824 14.2946 9.50957 13.3343 8.73549C12.371 7.96141 12.2197 6.55585 12.9938 5.59261C13.7679 4.63229 15.1734 4.47806 16.1367 5.25214C17.0999 6.0233 17.2512 7.43178 16.4771 8.39501Z" fill="white"/>
<path d="M13.4592 11.887C12.8394 12.1722 12.0973 12.1664 11.4629 11.8055L9.70523 14.1394C9.92348 14.3955 10.0457 14.7156 10.0603 15.0445C10.0719 15.3355 9.99624 15.6352 9.82745 15.9C9.38803 16.581 8.47427 16.7789 7.79331 16.3365C7.72056 16.29 7.65654 16.2376 7.59543 16.1794C7.57506 16.1619 7.5576 16.1445 7.54014 16.1241C7.4994 16.0804 7.46157 16.0368 7.42665 15.9902C7.4121 15.9699 7.39463 15.9495 7.38008 15.9291C7.33643 15.8651 7.2986 15.8011 7.26659 15.7312C7.25786 15.7138 7.25204 15.6963 7.24331 15.6759C7.22003 15.6206 7.19966 15.5624 7.1822 15.5042C7.17638 15.4839 7.17056 15.4606 7.16474 15.4402C7.14728 15.3675 7.13564 15.2947 7.12982 15.222C7.12982 15.2016 7.12982 15.1812 7.12982 15.1609C7.12691 15.0939 7.12982 15.027 7.13273 14.9601C7.13273 14.9455 7.13273 14.931 7.13564 14.9193C7.14437 14.8408 7.16183 14.7651 7.1822 14.6894C7.18802 14.672 7.19384 14.6545 7.19966 14.6341C7.22585 14.5556 7.25495 14.4799 7.29569 14.4042L5.87849 13.3392L5.43907 13.9241L3.81816 12.7048L5.03748 11.0839L6.65839 12.3032L6.21897 12.8881L7.65072 13.9648C8.09596 13.5923 8.73618 13.5108 9.26872 13.7844L11.0206 11.4593C10.3222 10.7754 10.1446 9.6812 10.6597 8.79654C10.7616 8.62194 10.8838 8.47061 11.0206 8.33384C10.069 7.68489 8.9166 7.30076 7.67691 7.29785C4.37398 7.29494 1.69381 9.96057 1.68508 13.2548C1.67635 16.5519 4.34197 19.2291 7.63908 19.2379C10.9362 19.2466 13.6135 16.581 13.6222 13.2839C13.6222 12.8008 13.5669 12.3323 13.4592 11.8841V11.887Z" fill="#EE0C5D"/>
<path d="M69.2741 12.888H69.1548V12.3176H68.9395V12.207H69.4924V12.3205H69.277V12.8909L69.2741 12.888Z" fill="white"/>
<path d="M70.0104 12.7221H70.0075L69.7951 12.402V12.888H69.6758V12.207H69.8038L70.0104 12.53L70.2171 12.2099H70.3451V12.8909H70.2258V12.402L70.0104 12.7221Z" fill="white"/>
</g>
<defs>
<clipPath id="clip0_4092_1634">
<rect width="68.6602" height="14.4834" fill="white" transform="translate(1.68506 4.75781)"/>
</clipPath>
</defs>
</svg>
