<svg width="72" height="24" viewBox="0 0 72 24" fill="none" xmlns="http://www.w3.org/2000/svg">
    <g clip-path="url(#clip0_2626_470)">
        <path d="M20.6739 15.1082L18.5527 8.86603H19.6568C20.9593 12.7835 21.1329 13.3358 21.2694 13.8238C21.3934 13.3743 21.5919 12.7706 22.944 8.86603H24.048L21.8276 15.1082H20.6739Z" fill="white"/>
        <path d="M25.0898 15.1083V8.87891H26.1194V15.1083H25.0898Z" fill="white"/>
        <path d="M38.1648 12.4881C38.1648 13.3358 38.0904 13.8752 37.8671 14.2734C37.5198 14.9028 36.7879 15.2495 35.7211 15.2495C34.7163 15.2495 33.972 14.9413 33.6247 14.2477C33.4138 13.8495 33.3394 13.2587 33.3394 12.5523V8.87891H34.3689V12.5266C34.3689 13.0404 34.4062 13.4 34.493 13.6312C34.6419 14.0294 35.014 14.3376 35.7707 14.3376C36.4281 14.3376 36.8251 14.1064 37.0236 13.6826C37.1228 13.4642 37.222 13.0532 37.222 12.5395V8.87891H38.1648V12.4881Z" fill="white"/>
        <path d="M39.467 13.9138C39.926 14.1321 40.5214 14.3376 41.2161 14.3376C42.0348 14.3376 42.4566 14.0294 42.4566 13.4771C42.4566 13.0532 42.3077 12.822 41.5138 12.5395L40.6703 12.2441C39.7896 11.9358 39.3802 11.3964 39.3802 10.5101C39.3802 9.55966 40.0997 8.72479 41.6503 8.72479C42.2581 8.72479 42.8535 8.82754 43.3373 9.00736L43.114 9.8936C42.6178 9.72663 42.0224 9.61103 41.5262 9.61103C40.6951 9.61103 40.4594 10.0606 40.4594 10.433C40.4594 10.8055 40.5711 11.0624 41.2657 11.2936L42.1093 11.6019C43.1388 11.9615 43.4986 12.5266 43.4986 13.3358C43.4986 14.3248 42.8411 15.211 41.2161 15.211C40.4594 15.211 39.7275 15.0312 39.2065 14.7743L39.467 13.9138Z" fill="white"/>
        <path d="M46.3392 15.1083V9.85505H44.5405V8.87891H49.1799V9.85505H47.3812V15.1083H46.3392Z" fill="white"/>
        <path d="M57.0941 15.1083V9.85505H55.2954V8.87891H59.9348V9.85505H58.1361V15.1083H57.0941Z" fill="white"/>
        <path d="M52.1075 15.2367C50.3584 15.2367 49.2544 13.7211 49.2544 11.9229C49.2544 9.94495 50.3708 8.73761 52.2563 8.73761C54.0674 8.73761 55.0102 10.189 55.0226 11.9229C55.035 13.7083 53.9434 15.2367 52.1075 15.2367ZM52.1819 9.63669C50.9911 9.63669 50.346 10.4073 50.346 11.9358C50.346 13.7982 51.1275 14.3376 52.1571 14.3376C53.2239 14.3376 53.9434 13.6569 53.9434 11.9872C53.9682 10.5101 53.5588 9.63669 52.1819 9.63669Z" fill="white"/>
        <path d="M59.7241 15.1082L62.0438 8.86603H63.2347L65.4923 15.1082H64.3883L63.7805 13.477H61.436L60.8157 15.1211H59.7241V15.1082ZM63.5076 12.5651C62.9494 10.9596 62.7633 10.4458 62.6392 10.0091C62.5028 10.433 62.3415 10.9211 61.7213 12.5651H63.5076Z" fill="white"/>
        <path d="M66.4849 15.1083V8.87891H67.6013V14.1706L70.6032 14.1321L70.6156 15.1083H66.4849Z" fill="white"/>
        <path d="M1 5.75781L7.04111 12L1 18.2294H14.3351V5.75781H1ZM13.045 16.8936H4.03916L8.80259 12L4.03916 7.09359H13.045V16.8936Z" fill="white"/>
        <path d="M30.8704 12.411C31.7636 12.1028 32.1109 11.4477 32.1109 10.6514C32.1109 9.79083 31.6767 9.25138 31.0441 9.04588C30.672 8.93028 30.1385 8.87891 29.6175 8.87891H27.7568V15.1211H28.7864V12.5651L29.1338 12.5395C29.5927 12.5395 29.816 12.5908 29.9153 12.578L31.2674 15.1083H32.4086L30.8704 12.411ZM30.5975 11.5633C30.3494 11.7046 29.9897 11.7431 29.5555 11.7431H28.7864V9.76514H29.5679C29.9773 9.76514 30.2874 9.77799 30.5231 9.8679C30.8456 9.99634 31.0193 10.2918 31.0193 10.7156C31.0069 11.1009 30.8704 11.4092 30.5975 11.5633Z" fill="white"/>
    </g>
    <defs>
        <clipPath id="clip0_2626_470">
            <rect width="70" height="14" fill="white" transform="translate(1 5)"/>
        </clipPath>
    </defs>
</svg>
