<svg xmlns="http://www.w3.org/2000/svg" width="189" height="33" viewBox="0 0 189 33" fill="none"><path d="M166.958 6.06616C170.466 13.6262 173.974 21.1858 177.482 28.7455C178.683 31.3356 181.279 32.9921 184.133 32.9921H188.679V29.0536C188.115 29.0542 187.551 29.0546 186.987 29.0549C184.142 29.0572 181.552 27.4137 180.343 24.8379C176.787 17.2616 173.23 9.68497 169.673 2.10834C169.07 0.821444 167.776 0 166.355 0H166.23C164.808 0 163.515 0.821444 162.911 2.10834C159.354 9.68563 155.797 17.2629 152.241 24.8399C151.032 27.4147 148.444 29.0579 145.6 29.0569C142.647 29.0559 139.693 29.0546 136.739 29.0536V32.9921H148.452C151.307 32.9921 153.902 31.3352 155.103 28.7455C158.611 21.1858 162.119 13.6262 165.627 6.06616C165.89 5.4999 166.695 5.4999 166.958 6.06616Z" fill="#125695"></path><path d="M145.909 0.0143014H149.51C143.574 6.26212 137.638 12.5103 131.702 18.7581C131.56 18.9075 131.501 19.0568 131.501 19.2631V32.9914H126.92V19.2631C126.92 19.0568 126.86 18.9075 126.718 18.7581C120.782 12.5103 114.846 6.26212 108.91 0.0143014H112.512C114.674 0.0143014 116.726 0.968823 118.12 2.62235C121.629 6.78812 125.139 10.9539 128.649 15.1197C128.942 15.4673 129.478 15.4673 129.771 15.1197C133.281 10.9539 136.791 6.78812 140.301 2.62202C141.694 0.968823 143.746 0.0143014 145.909 0.0143014Z" fill="#125695"></path><path d="M93.7492 6.06616C90.2412 13.6262 86.7332 21.1858 83.2252 28.7455C82.0235 31.3356 79.4281 32.9921 76.5735 32.9921H66.978V29.0536H73.7262C76.5692 29.0536 79.1559 27.4103 80.3643 24.8366C83.9205 17.2606 87.4765 9.6843 91.0327 2.10834C91.6369 0.821444 92.9305 5.71835e-07 94.3521 5.71835e-07H94.4765C95.8978 5.71835e-07 97.1914 0.821444 97.7956 2.10834C101.352 9.6843 104.908 17.2606 108.464 24.8366C109.672 27.4103 112.259 29.0536 115.102 29.0536H121.93V32.9921H112.255C109.4 32.9921 106.805 31.3352 105.603 28.7455C102.095 21.1858 98.5874 13.6262 95.0797 6.06616C94.8169 5.4999 94.0121 5.4999 93.7492 6.06616Z" fill="#125695"></path><path d="M75.2206 0.309337V0.0375185H43.6804V0.309337C43.6804 2.33416 45.322 3.97571 47.3468 3.97571H53.4955C55.5203 3.97571 57.1618 5.61727 57.1618 7.64243V33H61.7388V7.64243C61.7388 5.61727 63.3804 3.97571 65.4052 3.97571H71.5542C73.579 3.97571 75.2206 2.33416 75.2206 0.309337Z" fill="#125695"></path><path d="M21.7211 6.06616C18.2131 13.6262 14.7051 21.1858 11.1971 28.7455C9.99538 31.3356 7.39997 32.9921 4.54538 32.9921H0V29.0536C0.563598 29.0542 1.12786 29.0546 1.69179 29.0549C4.53706 29.0572 7.12649 27.4137 8.33553 24.8379C11.8921 17.2616 15.4484 9.68497 19.0053 2.10834C19.6091 0.821444 20.9027 0 22.324 0H22.4491C23.8704 0 25.1639 0.821444 25.7678 2.10834C29.3247 9.68563 32.8813 17.2629 36.4379 24.8399C37.6463 27.4147 40.2347 29.0579 43.0786 29.0569C46.032 29.0559 48.9858 29.0546 51.9392 29.0536V32.9921H40.227C37.3721 32.9921 34.7767 31.3352 33.5753 28.7455C30.0673 21.1858 26.5596 13.6262 23.0516 6.06616C22.7888 5.4999 21.984 5.4999 21.7211 6.06616Z" fill="#125695"></path></svg>