<svg width="72" height="25" viewBox="0 0 72 25" fill="none" xmlns="http://www.w3.org/2000/svg">
<g clip-path="url(#clip0_2895_1966)">
<path d="M19.7716 19.6857L35.4858 15.2857L35.1716 14.1714L19.4858 18.5714L19.7716 19.6857Z" fill="white"/>
<path d="M34.9715 14.7429V19.2571V19.2857V19.3143H34.9429V19.3429V19.3714V19.4V19.4286V19.4571V19.4857H34.9143V19.5143V19.5429V19.5714H34.8858V19.6V19.6286H34.8572V19.6571V19.6857H34.8286V19.7143V19.7429H34.8V19.7714H34.7715V19.8L34.7429 19.8286V19.8571H34.7143V19.8857H34.6858V19.9143H34.6572L34.6286 19.9429H34.6V19.9714H34.5715V20H34.5429H34.5143V20.0286H34.4858H34.4572V20.0571H34.4286H34.4V20.0857H34.3715H34.3429H34.3143V20.1143H34.2858H34.2572H34.2286H34.2H34.1715H34.1429V20.1429H34.1143H34.0858H20.8286H20.8H20.7715V20.1143H20.7429H20.7143H20.6858H20.6572H20.6286H20.6V20.0857H20.5715H20.5429H20.5143V20.0571H20.4858H20.4572V20.0286H20.4286H20.4V20H20.3715L20.3429 19.9714H20.3143V19.9429H20.2858V19.9143H20.2572V19.8857H20.2286L20.2 19.8571V19.8286H20.1715V19.8H20.1429V19.7714H20.1143V19.7429V19.7143H20.0858V19.6857L20.0572 19.6571V19.6286L20.0286 19.6V19.5714V19.5429H20V19.5143V19.4857V19.4571L19.9715 19.4286V19.4V19.3714V19.3429V19.3143V19.2857V19.2571V6V5.97143V5.94286V5.91429V5.88571V5.85714V5.82857H20V5.8V5.77143V5.74286V5.71429H20.0286V5.68571V5.65714H20.0572V5.62857V5.6H20.0858V5.57143V5.54286H20.1143V5.51429H20.1429V5.48571V5.45714H20.1715V5.42857H20.2V5.4H20.2286V5.37143H20.2572V5.34286H20.2858V5.31429H20.3143H20.3429V5.28571H20.3715V5.25714H20.4H20.4286V5.22857H20.4572H20.4858V5.2H20.5143H20.5429V5.17143H20.5715H20.6H20.6286H20.6572V5.14286H20.6858H20.7143H20.7429H20.7715H20.8H20.8286H34.0858H34.1143H34.1429H34.1715H34.2H34.2286H34.2572V5.17143H34.2858H34.3143H34.3429H34.3715V5.2H34.4H34.4286L34.4572 5.22857H34.4858L34.5143 5.25714H34.5429V5.28571H34.5715H34.6V5.31429H34.6286V5.34286H34.6572V5.37143H34.6858V5.4H34.7143V5.42857H34.7429V5.45714H34.7715V5.48571H34.8V5.51429L34.8286 5.54286V5.57143H34.8572V5.6V5.62857H34.8858V5.65714V5.68571H34.9143V5.71429V5.74286V5.77143H34.9429V5.8V5.82857V5.85714V5.88571V5.91429V5.94286L34.9715 5.97143V6V14.8857H36.0858V6V5.97143V5.94286V5.91429V5.88571V5.85714V5.82857V5.8V5.77143V5.74286V5.71429V5.68571H36.0572V5.65714V5.62857V5.6V5.57143V5.54286H36.0286V5.51429V5.48571V5.45714L36 5.42857V5.4V5.37143V5.34286H35.9715V5.31429V5.28571L35.9429 5.25714V5.22857V5.2H35.9143V5.17143V5.14286H35.8858V5.11429V5.08571H35.8572V5.05714V5.02857H35.8286V5L35.8 4.97143V4.94286L35.7715 4.91429V4.88571H35.7429V4.85714H35.7143V4.82857L35.6858 4.8V4.77143H35.6572V4.74286H35.6286V4.71429L35.6 4.68571L35.5715 4.65714V4.62857H35.5429V4.6H35.5143L35.4858 4.57143V4.54286H35.4572L35.4286 4.51429L35.4 4.48571H35.3715V4.45714H35.3429V4.42857H35.3143V4.4H35.2858L35.2572 4.37143H35.2286V4.34286H35.2L35.1715 4.31429H35.1429V4.28571H35.1143H35.0858V4.25714H35.0572L35.0286 4.22857H35L34.9715 4.2H34.9429L34.9143 4.17143H34.8858H34.8572V4.14286H34.8286H34.8V4.11429H34.7715H34.7429H34.7143V4.08571H34.6858H34.6572H34.6286L34.6 4.05714H34.5715H34.5429H34.5143L34.4858 4.02857H34.4572H34.4286H34.4H34.3715H34.3429L34.3143 4H34.2858H34.2572H34.2286H34.2H34.1715H34.1429H34.1143H20.8286H20.8H20.7715H20.7429H20.7143H20.6858H20.6572H20.6286H20.6V4.02857H20.5715H20.5429H20.5143H20.4858H20.4572H20.4286V4.05714H20.4H20.3715H20.3429H20.3143L20.2858 4.08571H20.2572H20.2286L20.2 4.11429H20.1715H20.1429L20.1143 4.14286H20.0858H20.0572V4.17143H20.0286H20V4.2H19.9715H19.9429V4.22857H19.9143H19.8858L19.8572 4.25714H19.8286V4.28571H19.8H19.7715V4.31429H19.7429V4.34286H19.7143H19.6858V4.37143H19.6572V4.4H19.6286L19.6 4.42857L19.5715 4.45714H19.5429V4.48571H19.5143V4.51429H19.4858V4.54286H19.4572L19.4286 4.57143V4.6H19.4L19.3715 4.62857V4.65714H19.3429V4.68571H19.3143V4.71429H19.2858V4.74286L19.2572 4.77143L19.2286 4.8V4.82857H19.2V4.85714L19.1715 4.88571V4.91429H19.1429V4.94286H19.1143V4.97143V5H19.0858V5.02857L19.0572 5.05714V5.08571V5.11429H19.0286V5.14286V5.17143H19V5.2V5.22857H18.9715V5.25714V5.28571L18.9429 5.31429V5.34286V5.37143L18.9143 5.4V5.42857V5.45714L18.8858 5.48571V5.51429V5.54286V5.57143V5.6H18.8572V5.62857V5.65714V5.68571V5.71429V5.74286L18.8286 5.77143V5.8V5.82857V5.85714V5.88571V5.91429V5.94286V5.97143V6V19.2571V19.2857V19.3143V19.3429V19.3714V19.4V19.4286V19.4571V19.4857V19.5143H18.8572V19.5429V19.5714V19.6V19.6286V19.6571V19.6857H18.8858V19.7143V19.7429V19.7714V19.8H18.9143V19.8286V19.8571V19.8857H18.9429V19.9143V19.9429V19.9714H18.9715V20V20.0286H19V20.0571V20.0857L19.0286 20.1143V20.1429L19.0572 20.1714V20.2V20.2286H19.0858V20.2571H19.1143V20.2857V20.3143H19.1429V20.3429L19.1715 20.3714V20.4H19.2V20.4286V20.4571H19.2286V20.4857H19.2572V20.5143H19.2858V20.5429H19.3143V20.5714L19.3429 20.6L19.3715 20.6286V20.6571H19.4V20.6857H19.4286V20.7143H19.4572V20.7429H19.4858L19.5143 20.7714L19.5429 20.8H19.5715V20.8286H19.6V20.8571H19.6286L19.6572 20.8857H19.6858V20.9143H19.7143V20.9429H19.7429L19.7715 20.9714H19.8L19.8286 21H19.8572V21.0286H19.8858H19.9143V21.0571H19.9429H19.9715V21.0857H20H20.0286V21.1143H20.0572H20.0858L20.1143 21.1429H20.1429H20.1715V21.1714H20.2H20.2286H20.2572V21.2H20.2858H20.3143H20.3429H20.3715V21.2286H20.4H20.4286H20.4572H20.4858H20.5143V21.2571H20.5429H20.5715H20.6H20.6286H20.6572H20.6858H20.7143H20.7429H20.7715H20.8H20.8286H34.0858H34.1143H34.1429H34.1715H34.2H34.2286H34.2572H34.2858H34.3143H34.3429H34.3715H34.4L34.4286 21.2286H34.4572H34.4858H34.5143H34.5429L34.5715 21.2H34.6H34.6286H34.6572L34.6858 21.1714H34.7143H34.7429V21.1429H34.7715H34.8H34.8286V21.1143H34.8572H34.8858L34.9143 21.0857H34.9429L34.9715 21.0571H35L35.0286 21.0286H35.0572V21H35.0858H35.1143V20.9714H35.1429H35.1715V20.9429H35.2V20.9143H35.2286L35.2572 20.8857H35.2858V20.8571H35.3143L35.3429 20.8286L35.3715 20.8H35.4V20.7714H35.4286V20.7429H35.4572V20.7143H35.4858V20.6857H35.5143V20.6571H35.5429V20.6286H35.5715V20.6H35.6V20.5714H35.6286V20.5429H35.6572V20.5143L35.6858 20.4857V20.4571H35.7143V20.4286L35.7429 20.4V20.3714H35.7715V20.3429H35.8V20.3143V20.2857H35.8286V20.2571V20.2286H35.8572V20.2H35.8858V20.1714V20.1429L35.9143 20.1143V20.0857L35.9429 20.0571V20.0286V20H35.9715V19.9714V19.9429V19.9143H36V19.8857V19.8571V19.8286H36.0286V19.8V19.7714V19.7429V19.7143H36.0572V19.6857V19.6571V19.6286V19.6L36.0858 19.5714V19.5429V19.5143V19.4857V19.4571V19.4286V19.4V19.3714V19.3429V19.3143V19.2857V19.2571V14.7714L34.9715 14.7429Z" fill="white"/>
<path d="M21.4287 7.37153C21.6287 7.11439 22.0859 6.85725 22.3716 6.74296C24.343 5.28582 25.2859 6.68582 26.6287 8.31439C29.0287 9.85725 29.943 12.4287 31.0859 15.343C31.8573 16.1715 32.0287 16.543 32.8001 17.3715C32.7144 17.4287 32.5716 17.4001 32.4287 17.343C32.8287 17.7715 33.2573 18.4001 33.4573 18.9144C33.1716 18.8572 32.8859 18.6287 32.6287 18.3715C32.8859 18.943 33.1716 19.6858 33.0287 19.8858C32.9144 19.943 32.7716 19.8001 32.6573 19.6001C32.6573 19.7715 32.6287 19.943 32.6001 20.0572C32.4287 20.0572 32.343 19.943 32.2573 19.6858C31.6001 17.7715 30.0859 16.4001 28.8001 15.4858C28.8001 15.7144 28.8001 15.9715 28.8859 16.2858C28.8859 16.4572 28.9716 16.8858 28.8287 16.9715C28.8287 16.7144 28.6859 16.2572 28.543 16.0287C28.4001 16.3715 28.1716 17.343 27.9716 17.2572C27.9144 17.4001 27.8573 17.6287 27.9144 17.8001C27.8001 17.7144 27.7716 17.3715 27.8573 17.2001C27.7716 17.1715 28.1144 16.6001 28.0573 16.3715C27.9144 16.6001 27.8859 16.6572 27.7716 16.8001C27.7716 16.5715 27.9144 16.2001 28.0573 16.0287C28.3144 15.8572 28.5144 15.6287 28.6001 15.3715C28.4859 15.2858 28.4001 15.2287 28.2859 15.1715C27.6859 15.2287 26.943 15.1715 26.2859 14.9715C26.343 15.143 26.3144 15.343 25.943 15.5715C25.6001 15.9144 25.343 16.2572 25.0573 16.7144C25.0573 16.743 25.0287 16.7715 25.0287 16.8572C25.0573 17.0572 25.143 17.8858 25.1716 18.0858C25.0859 17.8858 24.9144 17.3715 24.8573 17.1715C24.6287 17.4572 24.4859 17.9144 24.3716 18.2858C24.343 18.343 24.2859 18.343 24.2287 18.343C24.1716 18.5144 24.143 18.743 24.1716 18.8858C24.0859 18.7144 24.0287 18.4287 24.0859 18.2572C24.0859 18.2572 24.0859 18.2001 24.0859 18.1715C24.143 17.943 24.2573 17.6572 24.343 17.4287C24.2001 17.5144 24.1144 17.6572 24.0573 17.8858C23.9716 17.6287 24.1144 17.1715 24.4001 16.9715C24.943 16.543 25.2859 15.943 25.6573 15.4001C25.5716 15.1715 25.543 14.9144 25.5144 14.6572C25.4287 14.6287 25.343 14.5715 25.2859 14.5144C23.6001 13.1715 22.8859 11.7144 22.7716 8.88582C22.4859 8.65725 22.2573 8.25725 22.2859 7.85725C22.143 7.71439 21.6573 7.54296 21.4287 7.37153Z" fill="#CE222E"/>
<path d="M8.51429 12.4287C8.02857 12.4287 7.57143 12.4287 7.11429 12.4859V15.3716H6V11.5716C6.71429 11.4287 7.77143 11.3145 8.51429 11.3145V12.4287Z" fill="white"/>
<path d="M12.7998 13.0001C12.7998 13.3715 12.7712 13.4572 12.7141 13.8001H9.9998C10.1427 14.2286 10.5427 14.4858 11.1141 14.4858C11.4284 14.4858 11.8284 14.4286 12.5141 14.2858L12.6569 15.1715C12.0569 15.3715 11.5141 15.4858 11.0855 15.4858C9.57123 15.4858 8.7998 14.5715 8.7998 13.4001C8.7998 12.1429 9.68552 11.3143 10.8569 11.3143C11.9712 11.2858 12.7998 11.9715 12.7998 13.0001ZM9.94266 13.0001H11.7998C11.7712 12.5143 11.3998 12.2001 10.8855 12.2001C10.3712 12.1715 10.0569 12.4858 9.94266 13.0001Z" fill="white"/>
<path d="M17.5428 15.2856C16.2856 15.4284 15.7999 15.4284 15.2285 15.4284C14.1713 15.4284 13.3428 14.7142 13.3428 13.3427C13.3428 12.1142 14.0285 11.2856 15.3999 11.2856C15.7142 11.2856 16.1428 11.3142 16.3999 11.3713V9.51416H17.5428V15.2856ZM14.4571 13.3427C14.4571 14.057 14.7713 14.5142 15.4856 14.5142C15.6285 14.5142 15.9142 14.4856 16.3999 14.457V12.3427C16.1142 12.2856 15.7713 12.257 15.5428 12.257C14.7142 12.257 14.4571 12.7142 14.4571 13.3427Z" fill="white"/>
<path d="M40.5428 12.3716C40.0857 12.2859 39.7143 12.2002 39.4286 12.2002C38.6571 12.2002 38.2 12.6859 38.2 13.343C38.2 14.0288 38.6857 14.4859 39.3714 14.4859C39.6286 14.4859 40.0857 14.4288 40.5428 14.3145L40.6857 15.2002C40.2571 15.343 39.7143 15.4573 39.2857 15.4573C38 15.4573 37.0571 14.6288 37.0571 13.343C37.0571 12.0573 37.9714 11.2573 39.3143 11.2573C39.6857 11.2573 40.2286 11.343 40.6857 11.4859L40.5428 12.3716Z" fill="white"/>
<path d="M45.2571 11.4856V15.3428H44.1143V15.0571C43.8 15.3142 43.4 15.4571 42.9428 15.4571C41.8571 15.4571 41.0571 14.6571 41.0571 13.3428C41.0857 12.1142 41.7714 11.2856 43.0286 11.2856C43.8571 11.3142 44.3143 11.3714 45.2571 11.4856ZM42.1714 13.3999C42.1714 14.0571 42.5428 14.5142 43.1143 14.5142C43.4286 14.5142 43.7714 14.3999 44.1143 14.1428V12.2856C43.8571 12.2571 43.5714 12.2285 43.2 12.2285C42.4571 12.2571 42.1714 12.7428 42.1714 13.3999Z" fill="white"/>
<path d="M50.2859 12.7999V15.3428H49.143V13.1428C49.143 12.6571 48.8287 12.3428 48.3716 12.3428C48.0859 12.3428 47.7716 12.3714 47.4573 12.3999V15.3428H46.3145V11.4856C46.8287 11.3999 47.8859 11.2856 48.6573 11.2856C49.6287 11.3142 50.2859 11.9142 50.2859 12.7999Z" fill="white"/>
<path d="M55.1712 11.4856V15.3428H54.0283V15.0571C53.7141 15.3142 53.3141 15.4571 52.8569 15.4571C51.7712 15.4571 50.9712 14.6571 50.9712 13.3428C50.9998 12.1142 51.6855 11.2856 52.9426 11.2856C53.7712 11.3142 54.2283 11.3714 55.1712 11.4856ZM52.0855 13.3999C52.0855 14.0571 52.4569 14.5142 53.0283 14.5142C53.3426 14.5142 53.6855 14.3999 54.0283 14.1428V12.2856C53.7712 12.2571 53.4855 12.2285 53.114 12.2285C52.3712 12.2571 52.0855 12.7428 52.0855 13.3999Z" fill="white"/>
<path d="M58.7431 12.4287C58.2573 12.4287 57.8002 12.4287 57.3431 12.4859V15.3716H56.2002V11.5716C56.9145 11.4287 57.9716 11.3145 58.7145 11.3145L58.7431 12.4287Z" fill="white"/>
<path d="M61.2859 17.2287H60.0288L61.0574 15.0573L59.1431 11.4287H60.4574L61.6574 13.7716L62.7716 11.4287H64.0574L61.2859 17.2287Z" fill="white"/>
<path d="M65.1427 12.8001C65.057 12.8001 64.9713 12.7716 64.9142 12.743C64.857 12.7144 64.7713 12.6573 64.7142 12.6001C64.657 12.543 64.5999 12.4858 64.5713 12.4001C64.5427 12.3144 64.5142 12.2287 64.5142 12.143C64.5142 12.0573 64.5427 11.943 64.5713 11.8858C64.5999 11.8001 64.657 11.743 64.7142 11.6858C64.7713 11.6287 64.8284 11.5716 64.9142 11.543C64.9999 11.5144 65.057 11.4858 65.1427 11.4858C65.2284 11.4858 65.3142 11.5144 65.3999 11.543C65.4856 11.5716 65.5427 11.6287 65.5999 11.6858C65.657 11.743 65.7142 11.8001 65.7427 11.8858C65.7713 11.9716 65.7999 12.0573 65.7999 12.143C65.7999 12.2287 65.7713 12.343 65.7427 12.4001C65.7142 12.4858 65.657 12.543 65.5999 12.6001C65.5427 12.6573 65.4856 12.7144 65.3999 12.743C65.3142 12.7716 65.2284 12.8001 65.1427 12.8001ZM65.1427 12.6573C65.1999 12.6573 65.2856 12.6573 65.3427 12.6287C65.3999 12.6001 65.457 12.5716 65.5142 12.5144C65.5713 12.4573 65.5999 12.4001 65.6284 12.343C65.657 12.2858 65.657 12.2001 65.657 12.1144C65.657 12.0287 65.657 11.9716 65.6284 11.8858C65.5999 11.8287 65.5713 11.7716 65.5142 11.7144C65.457 11.6573 65.4284 11.6287 65.3427 11.6001C65.2856 11.5716 65.2284 11.5716 65.1427 11.5716C65.0856 11.5716 64.9999 11.5716 64.9427 11.6001C64.8856 11.6287 64.8284 11.6573 64.7999 11.7144C64.7427 11.7716 64.7142 11.8287 64.6856 11.8858C64.657 11.943 64.657 12.0287 64.657 12.1144C64.657 12.2001 64.657 12.2573 64.6856 12.343C64.7142 12.4001 64.7427 12.4573 64.7999 12.5144C64.857 12.5716 64.8856 12.6001 64.9427 12.6287C64.9999 12.6573 65.0856 12.6573 65.1427 12.6573ZM64.9142 11.8001H65.1713C65.2284 11.8001 65.3142 11.8287 65.3427 11.8573C65.3999 11.8858 65.4284 11.943 65.4284 12.0287C65.4284 12.0573 65.4284 12.1144 65.3999 12.143C65.3713 12.1716 65.3427 12.2001 65.3142 12.2001L65.457 12.4858H65.3142L65.1999 12.2573H65.057V12.4858H64.9142V11.8001ZM65.1427 12.1144C65.2284 12.1144 65.2856 12.0858 65.2856 12.0001C65.2856 11.9716 65.2856 11.943 65.257 11.9144C65.2284 11.8858 65.1999 11.8858 65.1427 11.8858H65.057V12.1144H65.1427Z" fill="white"/>
</g>
<defs>
<clipPath id="clip0_2895_1966">
<rect width="60" height="17.1429" fill="white" transform="translate(6 4)"/>
</clipPath>
</defs>
</svg>
