<svg width="72" height="24" viewBox="0 0 72 24" fill="none" xmlns="http://www.w3.org/2000/svg">
<g clip-path="url(#clip0_2895_1961)">
<path d="M19.7716 18.6857L35.4858 14.2857L35.1716 13.1714L19.4858 17.5714L19.7716 18.6857Z" fill="black"/>
<path d="M34.9715 13.7429V18.2571V18.2857V18.3143H34.9429V18.3429V18.3714V18.4V18.4286V18.4571V18.4857H34.9143V18.5143V18.5429V18.5714H34.8858V18.6V18.6286H34.8572V18.6571V18.6857H34.8286V18.7143V18.7429H34.8V18.7714H34.7715V18.8L34.7429 18.8286V18.8571H34.7143V18.8857H34.6858V18.9143H34.6572L34.6286 18.9429H34.6V18.9714H34.5715V19H34.5429H34.5143V19.0286H34.4858H34.4572V19.0571H34.4286H34.4V19.0857H34.3715H34.3429H34.3143V19.1143H34.2858H34.2572H34.2286H34.2H34.1715H34.1429V19.1429H34.1143H34.0858H20.8286H20.8H20.7715V19.1143H20.7429H20.7143H20.6858H20.6572H20.6286H20.6V19.0857H20.5715H20.5429H20.5143V19.0571H20.4858H20.4572V19.0286H20.4286H20.4V19H20.3715L20.3429 18.9714H20.3143V18.9429H20.2858V18.9143H20.2572V18.8857H20.2286L20.2 18.8571V18.8286H20.1715V18.8H20.1429V18.7714H20.1143V18.7429V18.7143H20.0858V18.6857L20.0572 18.6571V18.6286L20.0286 18.6V18.5714V18.5429H20V18.5143V18.4857V18.4571L19.9715 18.4286V18.4V18.3714V18.3429V18.3143V18.2857V18.2571V5V4.97143V4.94286V4.91429V4.88571V4.85714V4.82857H20V4.8V4.77143V4.74286V4.71429H20.0286V4.68571V4.65714H20.0572V4.62857V4.6H20.0858V4.57143V4.54286H20.1143V4.51429H20.1429V4.48571V4.45714H20.1715V4.42857H20.2V4.4H20.2286V4.37143H20.2572V4.34286H20.2858V4.31429H20.3143H20.3429V4.28571H20.3715V4.25714H20.4H20.4286V4.22857H20.4572H20.4858V4.2H20.5143H20.5429V4.17143H20.5715H20.6H20.6286H20.6572V4.14286H20.6858H20.7143H20.7429H20.7715H20.8H20.8286H34.0858H34.1143H34.1429H34.1715H34.2H34.2286H34.2572V4.17143H34.2858H34.3143H34.3429H34.3715V4.2H34.4H34.4286L34.4572 4.22857H34.4858L34.5143 4.25714H34.5429V4.28571H34.5715H34.6V4.31429H34.6286V4.34286H34.6572V4.37143H34.6858V4.4H34.7143V4.42857H34.7429V4.45714H34.7715V4.48571H34.8V4.51429L34.8286 4.54286V4.57143H34.8572V4.6V4.62857H34.8858V4.65714V4.68571H34.9143V4.71429V4.74286V4.77143H34.9429V4.8V4.82857V4.85714V4.88571V4.91429V4.94286L34.9715 4.97143V5V13.8857H36.0858V5V4.97143V4.94286V4.91429V4.88571V4.85714V4.82857V4.8V4.77143V4.74286V4.71429V4.68571H36.0572V4.65714V4.62857V4.6V4.57143V4.54286H36.0286V4.51429V4.48571V4.45714L36 4.42857V4.4V4.37143V4.34286H35.9715V4.31429V4.28571L35.9429 4.25714V4.22857V4.2H35.9143V4.17143V4.14286H35.8858V4.11429V4.08571H35.8572V4.05714V4.02857H35.8286V4L35.8 3.97143V3.94286L35.7715 3.91429V3.88571H35.7429V3.85714H35.7143V3.82857L35.6858 3.8V3.77143H35.6572V3.74286H35.6286V3.71429L35.6 3.68571L35.5715 3.65714V3.62857H35.5429V3.6H35.5143L35.4858 3.57143V3.54286H35.4572L35.4286 3.51429L35.4 3.48571H35.3715V3.45714H35.3429V3.42857H35.3143V3.4H35.2858L35.2572 3.37143H35.2286V3.34286H35.2L35.1715 3.31429H35.1429V3.28571H35.1143H35.0858V3.25714H35.0572L35.0286 3.22857H35L34.9715 3.2H34.9429L34.9143 3.17143H34.8858H34.8572V3.14286H34.8286H34.8V3.11429H34.7715H34.7429H34.7143V3.08571H34.6858H34.6572H34.6286L34.6 3.05714H34.5715H34.5429H34.5143L34.4858 3.02857H34.4572H34.4286H34.4H34.3715H34.3429L34.3143 3H34.2858H34.2572H34.2286H34.2H34.1715H34.1429H34.1143H20.8286H20.8H20.7715H20.7429H20.7143H20.6858H20.6572H20.6286H20.6V3.02857H20.5715H20.5429H20.5143H20.4858H20.4572H20.4286V3.05714H20.4H20.3715H20.3429H20.3143L20.2858 3.08571H20.2572H20.2286L20.2 3.11429H20.1715H20.1429L20.1143 3.14286H20.0858H20.0572V3.17143H20.0286H20V3.2H19.9715H19.9429V3.22857H19.9143H19.8858L19.8572 3.25714H19.8286V3.28571H19.8H19.7715V3.31429H19.7429V3.34286H19.7143H19.6858V3.37143H19.6572V3.4H19.6286L19.6 3.42857L19.5715 3.45714H19.5429V3.48571H19.5143V3.51429H19.4858V3.54286H19.4572L19.4286 3.57143V3.6H19.4L19.3715 3.62857V3.65714H19.3429V3.68571H19.3143V3.71429H19.2858V3.74286L19.2572 3.77143L19.2286 3.8V3.82857H19.2V3.85714L19.1715 3.88571V3.91429H19.1429V3.94286H19.1143V3.97143V4H19.0858V4.02857L19.0572 4.05714V4.08571V4.11429H19.0286V4.14286V4.17143H19V4.2V4.22857H18.9715V4.25714V4.28571L18.9429 4.31429V4.34286V4.37143L18.9143 4.4V4.42857V4.45714L18.8858 4.48571V4.51429V4.54286V4.57143V4.6H18.8572V4.62857V4.65714V4.68571V4.71429V4.74286L18.8286 4.77143V4.8V4.82857V4.85714V4.88571V4.91429V4.94286V4.97143V5V18.2571V18.2857V18.3143V18.3429V18.3714V18.4V18.4286V18.4571V18.4857V18.5143H18.8572V18.5429V18.5714V18.6V18.6286V18.6571V18.6857H18.8858V18.7143V18.7429V18.7714V18.8H18.9143V18.8286V18.8571V18.8857H18.9429V18.9143V18.9429V18.9714H18.9715V19V19.0286H19V19.0571V19.0857L19.0286 19.1143V19.1429L19.0572 19.1714V19.2V19.2286H19.0858V19.2571H19.1143V19.2857V19.3143H19.1429V19.3429L19.1715 19.3714V19.4H19.2V19.4286V19.4571H19.2286V19.4857H19.2572V19.5143H19.2858V19.5429H19.3143V19.5714L19.3429 19.6L19.3715 19.6286V19.6571H19.4V19.6857H19.4286V19.7143H19.4572V19.7429H19.4858L19.5143 19.7714L19.5429 19.8H19.5715V19.8286H19.6V19.8571H19.6286L19.6572 19.8857H19.6858V19.9143H19.7143V19.9429H19.7429L19.7715 19.9714H19.8L19.8286 20H19.8572V20.0286H19.8858H19.9143V20.0571H19.9429H19.9715V20.0857H20H20.0286V20.1143H20.0572H20.0858L20.1143 20.1429H20.1429H20.1715V20.1714H20.2H20.2286H20.2572V20.2H20.2858H20.3143H20.3429H20.3715V20.2286H20.4H20.4286H20.4572H20.4858H20.5143V20.2571H20.5429H20.5715H20.6H20.6286H20.6572H20.6858H20.7143H20.7429H20.7715H20.8H20.8286H34.0858H34.1143H34.1429H34.1715H34.2H34.2286H34.2572H34.2858H34.3143H34.3429H34.3715H34.4L34.4286 20.2286H34.4572H34.4858H34.5143H34.5429L34.5715 20.2H34.6H34.6286H34.6572L34.6858 20.1714H34.7143H34.7429V20.1429H34.7715H34.8H34.8286V20.1143H34.8572H34.8858L34.9143 20.0857H34.9429L34.9715 20.0571H35L35.0286 20.0286H35.0572V20H35.0858H35.1143V19.9714H35.1429H35.1715V19.9429H35.2V19.9143H35.2286L35.2572 19.8857H35.2858V19.8571H35.3143L35.3429 19.8286L35.3715 19.8H35.4V19.7714H35.4286V19.7429H35.4572V19.7143H35.4858V19.6857H35.5143V19.6571H35.5429V19.6286H35.5715V19.6H35.6V19.5714H35.6286V19.5429H35.6572V19.5143L35.6858 19.4857V19.4571H35.7143V19.4286L35.7429 19.4V19.3714H35.7715V19.3429H35.8V19.3143V19.2857H35.8286V19.2571V19.2286H35.8572V19.2H35.8858V19.1714V19.1429L35.9143 19.1143V19.0857L35.9429 19.0571V19.0286V19H35.9715V18.9714V18.9429V18.9143H36V18.8857V18.8571V18.8286H36.0286V18.8V18.7714V18.7429V18.7143H36.0572V18.6857V18.6571V18.6286V18.6L36.0858 18.5714V18.5429V18.5143V18.4857V18.4571V18.4286V18.4V18.3714V18.3429V18.3143V18.2857V18.2571V13.7714L34.9715 13.7429Z" fill="black"/>
<path d="M21.4287 6.37153C21.6287 6.11439 22.0859 5.85725 22.3716 5.74296C24.343 4.28582 25.2859 5.68582 26.6287 7.31439C29.0287 8.85725 29.943 11.4287 31.0859 14.343C31.8573 15.1715 32.0287 15.543 32.8001 16.3715C32.7144 16.4287 32.5716 16.4001 32.4287 16.343C32.8287 16.7715 33.2573 17.4001 33.4573 17.9144C33.1716 17.8572 32.8859 17.6287 32.6287 17.3715C32.8859 17.943 33.1716 18.6858 33.0287 18.8858C32.9144 18.943 32.7716 18.8001 32.6573 18.6001C32.6573 18.7715 32.6287 18.943 32.6001 19.0572C32.4287 19.0572 32.343 18.943 32.2573 18.6858C31.6001 16.7715 30.0859 15.4001 28.8001 14.4858C28.8001 14.7144 28.8001 14.9715 28.8859 15.2858C28.8859 15.4572 28.9716 15.8858 28.8287 15.9715C28.8287 15.7144 28.6859 15.2572 28.543 15.0287C28.4001 15.3715 28.1716 16.343 27.9716 16.2572C27.9144 16.4001 27.8573 16.6287 27.9144 16.8001C27.8001 16.7144 27.7716 16.3715 27.8573 16.2001C27.7716 16.1715 28.1144 15.6001 28.0573 15.3715C27.9144 15.6001 27.8859 15.6572 27.7716 15.8001C27.7716 15.5715 27.9144 15.2001 28.0573 15.0287C28.3144 14.8572 28.5144 14.6287 28.6001 14.3715C28.4859 14.2858 28.4001 14.2287 28.2859 14.1715C27.6859 14.2287 26.943 14.1715 26.2859 13.9715C26.343 14.143 26.3144 14.343 25.943 14.5715C25.6001 14.9144 25.343 15.2572 25.0573 15.7144C25.0573 15.743 25.0287 15.7715 25.0287 15.8572C25.0573 16.0572 25.143 16.8858 25.1716 17.0858C25.0859 16.8858 24.9144 16.3715 24.8573 16.1715C24.6287 16.4572 24.4859 16.9144 24.3716 17.2858C24.343 17.343 24.2859 17.343 24.2287 17.343C24.1716 17.5144 24.143 17.743 24.1716 17.8858C24.0859 17.7144 24.0287 17.4287 24.0859 17.2572C24.0859 17.2572 24.0859 17.2001 24.0859 17.1715C24.143 16.943 24.2573 16.6572 24.343 16.4287C24.2001 16.5144 24.1144 16.6572 24.0573 16.8858C23.9716 16.6287 24.1144 16.1715 24.4001 15.9715C24.943 15.543 25.2859 14.943 25.6573 14.4001C25.5716 14.1715 25.543 13.9144 25.5144 13.6572C25.4287 13.6287 25.343 13.5715 25.2859 13.5144C23.6001 12.1715 22.8859 10.7144 22.7716 7.88582C22.4859 7.65725 22.2573 7.25725 22.2859 6.85725C22.143 6.71439 21.6573 6.54296 21.4287 6.37153Z" fill="#CE222E"/>
<path d="M8.51429 11.4287C8.02857 11.4287 7.57143 11.4287 7.11429 11.4859V14.3716H6V10.5716C6.71429 10.4287 7.77143 10.3145 8.51429 10.3145V11.4287Z" fill="black"/>
<path d="M12.7998 12.0001C12.7998 12.3715 12.7712 12.4572 12.7141 12.8001H9.9998C10.1427 13.2286 10.5427 13.4858 11.1141 13.4858C11.4284 13.4858 11.8284 13.4286 12.5141 13.2858L12.6569 14.1715C12.0569 14.3715 11.5141 14.4858 11.0855 14.4858C9.57123 14.4858 8.7998 13.5715 8.7998 12.4001C8.7998 11.1429 9.68552 10.3143 10.8569 10.3143C11.9712 10.2858 12.7998 10.9715 12.7998 12.0001ZM9.94266 12.0001H11.7998C11.7712 11.5143 11.3998 11.2001 10.8855 11.2001C10.3712 11.1715 10.0569 11.4858 9.94266 12.0001Z" fill="black"/>
<path d="M17.5428 14.2856C16.2856 14.4284 15.7999 14.4284 15.2285 14.4284C14.1713 14.4284 13.3428 13.7142 13.3428 12.3427C13.3428 11.1142 14.0285 10.2856 15.3999 10.2856C15.7142 10.2856 16.1428 10.3142 16.3999 10.3713V8.51416H17.5428V14.2856ZM14.4571 12.3427C14.4571 13.057 14.7713 13.5142 15.4856 13.5142C15.6285 13.5142 15.9142 13.4856 16.3999 13.457V11.3427C16.1142 11.2856 15.7713 11.257 15.5428 11.257C14.7142 11.257 14.4571 11.7142 14.4571 12.3427Z" fill="black"/>
<path d="M40.5428 11.3716C40.0857 11.2859 39.7143 11.2002 39.4286 11.2002C38.6571 11.2002 38.2 11.6859 38.2 12.343C38.2 13.0288 38.6857 13.4859 39.3714 13.4859C39.6286 13.4859 40.0857 13.4288 40.5428 13.3145L40.6857 14.2002C40.2571 14.343 39.7143 14.4573 39.2857 14.4573C38 14.4573 37.0571 13.6288 37.0571 12.343C37.0571 11.0573 37.9714 10.2573 39.3143 10.2573C39.6857 10.2573 40.2286 10.343 40.6857 10.4859L40.5428 11.3716Z" fill="black"/>
<path d="M45.2571 10.4856V14.3428H44.1143V14.0571C43.8 14.3142 43.4 14.4571 42.9428 14.4571C41.8571 14.4571 41.0571 13.6571 41.0571 12.3428C41.0857 11.1142 41.7714 10.2856 43.0286 10.2856C43.8571 10.3142 44.3143 10.3714 45.2571 10.4856ZM42.1714 12.3999C42.1714 13.0571 42.5428 13.5142 43.1143 13.5142C43.4286 13.5142 43.7714 13.3999 44.1143 13.1428V11.2856C43.8571 11.2571 43.5714 11.2285 43.2 11.2285C42.4571 11.2571 42.1714 11.7428 42.1714 12.3999Z" fill="black"/>
<path d="M50.2859 11.7999V14.3428H49.143V12.1428C49.143 11.6571 48.8287 11.3428 48.3716 11.3428C48.0859 11.3428 47.7716 11.3714 47.4573 11.3999V14.3428H46.3145V10.4856C46.8287 10.3999 47.8859 10.2856 48.6573 10.2856C49.6287 10.3142 50.2859 10.9142 50.2859 11.7999Z" fill="black"/>
<path d="M55.1712 10.4856V14.3428H54.0283V14.0571C53.7141 14.3142 53.3141 14.4571 52.8569 14.4571C51.7712 14.4571 50.9712 13.6571 50.9712 12.3428C50.9998 11.1142 51.6855 10.2856 52.9426 10.2856C53.7712 10.3142 54.2283 10.3714 55.1712 10.4856ZM52.0855 12.3999C52.0855 13.0571 52.4569 13.5142 53.0283 13.5142C53.3426 13.5142 53.6855 13.3999 54.0283 13.1428V11.2856C53.7712 11.2571 53.4855 11.2285 53.114 11.2285C52.3712 11.2571 52.0855 11.7428 52.0855 12.3999Z" fill="black"/>
<path d="M58.7431 11.4287C58.2573 11.4287 57.8002 11.4287 57.3431 11.4859V14.3716H56.2002V10.5716C56.9145 10.4287 57.9716 10.3145 58.7145 10.3145L58.7431 11.4287Z" fill="black"/>
<path d="M61.2859 16.2287H60.0288L61.0574 14.0573L59.1431 10.4287H60.4574L61.6574 12.7716L62.7716 10.4287H64.0574L61.2859 16.2287Z" fill="black"/>
<path d="M65.1427 11.8001C65.057 11.8001 64.9713 11.7716 64.9142 11.743C64.857 11.7144 64.7713 11.6573 64.7142 11.6001C64.657 11.543 64.5999 11.4858 64.5713 11.4001C64.5427 11.3144 64.5142 11.2287 64.5142 11.143C64.5142 11.0573 64.5427 10.943 64.5713 10.8858C64.5999 10.8001 64.657 10.743 64.7142 10.6858C64.7713 10.6287 64.8284 10.5716 64.9142 10.543C64.9999 10.5144 65.057 10.4858 65.1427 10.4858C65.2284 10.4858 65.3142 10.5144 65.3999 10.543C65.4856 10.5716 65.5427 10.6287 65.5999 10.6858C65.657 10.743 65.7142 10.8001 65.7427 10.8858C65.7713 10.9716 65.7999 11.0573 65.7999 11.143C65.7999 11.2287 65.7713 11.343 65.7427 11.4001C65.7142 11.4858 65.657 11.543 65.5999 11.6001C65.5427 11.6573 65.4856 11.7144 65.3999 11.743C65.3142 11.7716 65.2284 11.8001 65.1427 11.8001ZM65.1427 11.6573C65.1999 11.6573 65.2856 11.6573 65.3427 11.6287C65.3999 11.6001 65.457 11.5716 65.5142 11.5144C65.5713 11.4573 65.5999 11.4001 65.6284 11.343C65.657 11.2858 65.657 11.2001 65.657 11.1144C65.657 11.0287 65.657 10.9716 65.6284 10.8858C65.5999 10.8287 65.5713 10.7716 65.5142 10.7144C65.457 10.6573 65.4284 10.6287 65.3427 10.6001C65.2856 10.5716 65.2284 10.5716 65.1427 10.5716C65.0856 10.5716 64.9999 10.5716 64.9427 10.6001C64.8856 10.6287 64.8284 10.6573 64.7999 10.7144C64.7427 10.7716 64.7142 10.8287 64.6856 10.8858C64.657 10.943 64.657 11.0287 64.657 11.1144C64.657 11.2001 64.657 11.2573 64.6856 11.343C64.7142 11.4001 64.7427 11.4573 64.7999 11.5144C64.857 11.5716 64.8856 11.6001 64.9427 11.6287C64.9999 11.6573 65.0856 11.6573 65.1427 11.6573ZM64.9142 10.8001H65.1713C65.2284 10.8001 65.3142 10.8287 65.3427 10.8573C65.3999 10.8858 65.4284 10.943 65.4284 11.0287C65.4284 11.0573 65.4284 11.1144 65.3999 11.143C65.3713 11.1716 65.3427 11.2001 65.3142 11.2001L65.457 11.4858H65.3142L65.1999 11.2573H65.057V11.4858H64.9142V10.8001ZM65.1427 11.1144C65.2284 11.1144 65.2856 11.0858 65.2856 11.0001C65.2856 10.9716 65.2856 10.943 65.257 10.9144C65.2284 10.8858 65.1999 10.8858 65.1427 10.8858H65.057V11.1144H65.1427Z" fill="black"/>
</g>
<defs>
<clipPath id="clip0_2895_1961">
<rect width="60" height="17.1429" fill="white" transform="translate(6 3)"/>
</clipPath>
</defs>
</svg>
