<svg width="73" height="25" viewBox="0 0 73 25" fill="none" xmlns="http://www.w3.org/2000/svg">
<g clip-path="url(#clip0_4167_4659)">
<path d="M11.083 23.381V13.1787H12.9943V21.7659H17.6512L17.3282 23.381H11.083Z" fill="#E61D26"/>
<path d="M26.0493 23.3809H24.0308L23.1421 20.5273H19.8579L18.9429 23.3809H16.978L20.0737 13.1787H22.9536L26.0493 23.3809ZM21.4468 14.4971C21.3391 15.0354 21.2308 15.6008 21.0962 16.1123L20.2349 18.9385H22.7925L21.9312 16.1123C21.7696 15.6008 21.6613 15.0624 21.5806 14.4971H21.4468Z" fill="#E61D26"/>
<path d="M28.5801 13.0977C31.3257 13.0977 32.995 13.5822 32.9951 15.8701V16.0049C32.9951 16.8931 32.6182 17.7275 31.7031 18.1582C32.672 18.5619 33.0487 19.4234 33.0488 20.3115V20.4463C33.0488 22.9767 31.1644 23.4619 28.5264 23.4619C27.369 23.4619 26.8575 23.4347 25.5654 23.3809V13.1787C26.9113 13.1249 27.3958 13.0977 28.5801 13.0977ZM27.4229 21.8994H27.9336C30.0332 21.8994 31.1367 21.8729 31.1367 20.4463V20.2852H31.1641C31.1641 19.3968 30.7332 18.8311 29.1719 18.8311H27.4229V21.8994ZM27.4229 17.4316H29.1455C30.7335 17.4316 31.1104 16.9199 31.1104 16.0586V15.9248H31.1367C31.1367 14.7673 30.222 14.6592 28.5801 14.6592H27.4229V17.4316Z" fill="#E61D26"/>
<path d="M36.7634 23.5969C35.4175 23.5969 34.0446 23.4084 33.5601 23.2738V21.7933C34.3946 21.8741 35.3367 21.9548 36.6288 21.9548C37.8671 21.9548 38.4593 21.6049 38.4593 20.6896C38.4593 20.0436 38.1901 19.6667 37.1941 19.236L35.6598 18.6169C34.1523 17.9977 33.3447 17.1363 33.3447 15.6558C33.3447 13.6638 34.583 12.9639 37.0057 12.9639C38.2978 12.9639 39.5092 13.1792 39.9937 13.2869V14.7405C39.2131 14.6598 38.1632 14.5521 37.0865 14.5521C35.902 14.5521 35.256 14.7674 35.256 15.575C35.256 16.1941 35.5521 16.5172 36.5481 16.921L37.9479 17.4863C39.7245 18.2131 40.4513 18.9399 40.4513 20.6627C40.3706 22.547 39.0516 23.5969 36.7634 23.5969Z" fill="#E61D26"/>
<path d="M2.33398 12.4248V12.3975H2.34961L2.33398 12.4248ZM7.47559 2.1416C8.49849 2.1416 9.44079 2.16882 10.3291 2.22266V12.4248H8.47168V8.65625H7.50293C7.17994 8.65625 6.88342 8.65582 6.61426 8.62891L4.35254 12.3975H2.34961L4.72949 8.25195C3.65296 7.79431 2.98049 6.98685 2.98047 5.42578V5.31836C2.98047 2.62646 5.02596 2.1416 7.47559 2.1416ZM8.44434 3.75684C5.94096 3.75684 4.837 3.7836 4.83691 5.34473V5.42578H4.86426C4.86431 6.74471 5.64485 7.12109 7.39453 7.12109C7.74445 7.12109 8.09442 7.12164 8.44434 7.09473V3.75684Z" fill="white"/>
<path d="M11.0562 12.4245V2.19531H17.5705V3.81045H12.9943V6.39467H17.2744V7.92906H12.9943V10.8363H17.5705V12.4245H11.0562Z" fill="white"/>
<path d="M22.8733 12.4245H20.0737L16.978 2.19531H18.9431L21.0428 9.27501C21.2312 9.86722 21.312 10.5671 21.4466 11.1055H21.5004C21.6081 10.5671 21.7427 9.86722 21.9042 9.27501L24.0039 2.19531H25.942L22.8733 12.4245Z" fill="white"/>
<path d="M25.5654 12.4245V2.19531H32.0529V3.81045H27.4767V6.39467H31.7837V7.92906H27.4767V10.8363H32.0529V12.4245H25.5654Z" fill="white"/>
<path d="M35.6328 2.11426C38.0824 2.11427 40.1279 2.59915 40.1279 5.29102V5.39844C40.1279 6.95946 39.4554 7.76696 38.3789 8.22461L40.7744 12.3975H38.7285V12.4238L36.4668 8.65527C36.1978 8.68215 35.9019 8.68262 35.5791 8.68262H34.6367V12.4512H32.7793V2.19531C33.6945 2.14147 34.6099 2.11426 35.6328 2.11426ZM34.6367 7.12109C34.9867 7.14801 35.3366 7.14844 35.6865 7.14844C37.4363 7.14844 38.2168 6.77118 38.2168 5.45215V5.34473H38.2441C38.2441 3.75668 37.1401 3.75684 34.6367 3.75684V7.12109Z" fill="white"/>
<path d="M44.1931 12.6398C42.8472 12.6398 41.4743 12.4514 40.9898 12.3168V10.8363C41.8243 10.917 42.7664 10.9978 44.0585 10.9978C45.2968 10.9978 45.889 10.6478 45.889 9.73258C45.889 9.08653 45.6198 8.70966 44.6238 8.27896L43.0894 7.65982C41.582 7.04069 40.7744 6.17928 40.7744 4.69873C40.7744 2.70673 42.0127 2.00684 44.4354 2.00684C45.7275 2.00684 46.9389 2.22219 47.4234 2.32986V3.78349C46.6428 3.70273 45.5929 3.59506 44.5162 3.59506C43.3317 3.59506 42.6857 3.81041 42.6857 4.61798C42.6857 5.23711 42.9818 5.56014 43.9778 5.96393L45.3776 6.52923C47.1542 7.25604 47.881 7.98285 47.881 9.70567C47.8272 11.59 46.4812 12.6398 44.1931 12.6398Z" fill="white"/>
<path d="M48.1235 2.19531H50.0348V12.3976H48.1235V2.19531Z" fill="white"/>
<path d="M56.4945 12.4245L53.2374 6.36776C52.9951 5.91013 52.699 5.34483 52.4567 4.83337H52.4298C52.4567 5.39867 52.4836 6.04473 52.4836 6.66386V12.4245H50.7339V2.19531H52.9682L56.2254 8.11749C56.4676 8.57511 56.7907 9.16733 57.006 9.67879H57.0329C56.9791 9.08657 56.9791 8.35976 56.9791 7.74062V2.19531H58.7557V12.3976H56.4945V12.4245Z" fill="white"/>
<path d="M63.4403 12.6398C61.0983 12.6398 59.1602 11.7246 59.1602 8.03669V6.58306C59.1602 2.67981 61.3675 2.00684 63.4672 2.00684C64.9747 2.00684 66.4283 2.24911 66.7513 2.35678V3.83733C66.1053 3.78349 64.4901 3.70273 63.7902 3.70273C62.1212 3.70273 61.0445 4.0796 61.0445 6.60998V8.06361C61.0445 10.4056 61.9059 10.9978 63.548 10.9978C64.0594 10.9978 64.5709 10.9709 64.9208 10.9439V8.46739H64.1402V7.01377H66.7513V12.3168C66.2129 12.4514 64.9208 12.6398 63.4403 12.6398Z" fill="white"/>
</g>
<defs>
<clipPath id="clip0_4167_4659">
<rect width="72" height="24" fill="white" transform="translate(0.0151367 0.5)"/>
</clipPath>
</defs>
</svg>
