<svg width="73" height="25" viewBox="0 0 73 25" fill="none" xmlns="http://www.w3.org/2000/svg">
<path d="M6.80176 17.6851C7.18976 17.9271 7.83476 18.1961 8.51676 18.1961C9.13776 18.1961 9.71476 18.0161 10.1928 17.7091C10.1928 17.7091 10.1938 17.7091 10.1948 17.7081L11.9998 16.5801V20.6531C11.7138 20.6531 11.4258 20.5751 11.1758 20.4191L6.80176 17.6851Z" fill="#225086"/>
<path d="M10.853 5.16032L3.353 13.6203C2.774 14.2743 2.925 15.2623 3.676 15.7313C3.676 15.7313 6.452 17.4663 6.802 17.6853C7.19 17.9273 7.835 18.1963 8.517 18.1963C9.138 18.1963 9.715 18.0163 10.193 17.7093L10.195 17.7083L12 16.5803L7.636 13.8523L12.001 8.92832V4.65332C11.577 4.65332 11.153 4.82232 10.853 5.16032Z" fill="#66DDFF"/>
<path d="M7.63623 13.8527L7.68823 13.8847L12.0002 16.5807H12.0012V8.92971L12.0002 8.92871L7.63623 13.8527Z" fill="#CBF8FF"/>
<path d="M20.324 15.7313C21.075 15.2623 21.226 14.2743 20.647 13.6203L15.726 8.06932C15.329 7.88432 14.884 7.77832 14.413 7.77832C13.488 7.77832 12.661 8.17732 12.111 8.80432L12.002 8.92732L16.366 13.8513L12.001 16.5793V20.6523C12.288 20.6523 12.574 20.5743 12.824 20.4183L20.324 15.7303V15.7313Z" fill="#074793"/>
<path d="M12.001 4.65332V8.92832L12.11 8.80532C12.66 8.17832 13.487 7.77932 14.412 7.77932C14.884 7.77932 15.328 7.88632 15.725 8.07032L13.146 5.16132C12.847 4.82332 12.423 4.65432 12 4.65432L12.001 4.65332Z" fill="#0294E4"/>
<path d="M16.365 13.8527L12.001 8.92969V16.5797L16.365 13.8527Z" fill="#96BCC2"/>
<path d="M32.2592 5.59145V13.3914H30.9263V7.27061H30.9085L28.527 13.3914H27.6384L25.2035 7.27061H25.1858V13.3914H23.9595V5.59145H25.8789L28.0827 11.3692H28.1182L30.4464 5.59145H32.2592ZM33.3611 6.18728C33.3611 5.97061 33.4322 5.79006 33.5921 5.64561C33.7521 5.50117 33.9298 5.42895 34.1431 5.42895C34.3741 5.42895 34.5696 5.50117 34.7118 5.64561C34.854 5.79006 34.9429 5.97061 34.9429 6.18728C34.9429 6.40395 34.8718 6.5845 34.7118 6.72895C34.5519 6.87339 34.3741 6.94561 34.1431 6.94561C33.9121 6.94561 33.7343 6.87339 33.5921 6.72895C33.45 6.56645 33.3611 6.38589 33.3611 6.18728ZM34.8007 7.79422V13.3914H33.5033V7.79422H34.8007ZM38.7284 12.4345C38.9239 12.4345 39.1372 12.3984 39.3682 12.29C39.5992 12.1998 39.8125 12.0734 40.008 11.9289V13.1567C39.7947 13.2831 39.5637 13.3734 39.2971 13.4275C39.0305 13.4817 38.7462 13.5178 38.4263 13.5178C37.6087 13.5178 36.9511 13.265 36.4535 12.7414C35.9381 12.2178 35.6893 11.5498 35.6893 10.7553C35.6893 9.85255 35.9559 9.11227 36.4713 8.5345C36.9867 7.95672 37.7154 7.66783 38.6751 7.66783C38.9239 7.66783 39.1727 7.70394 39.4037 7.75811C39.6526 7.81228 39.8481 7.90255 39.9902 7.97478V9.23866C39.7947 9.09422 39.5815 8.96783 39.386 8.89561C39.1727 8.82339 38.9594 8.76922 38.7462 8.76922C38.2308 8.76922 37.822 8.93172 37.5021 9.27477C37.1822 9.61783 37.04 10.0692 37.04 10.647C37.04 11.2067 37.2 11.6581 37.5021 11.965C37.8042 12.272 38.213 12.4345 38.7284 12.4345ZM43.6869 7.70394C43.7935 7.70394 43.8824 7.70394 43.9713 7.722C44.0601 7.74005 44.1312 7.75811 44.1845 7.77617V9.11227C44.1134 9.05811 44.0246 9.00394 43.8824 8.96783C43.7402 8.93172 43.598 8.89561 43.4025 8.89561C43.0826 8.89561 42.8161 9.04005 42.6028 9.31088C42.3895 9.58172 42.2651 9.99699 42.2651 10.5748V13.3914H40.9677V7.79422H42.2651V8.67894H42.2829C42.4073 8.372 42.585 8.13728 42.8161 7.95672C43.0649 7.79422 43.3492 7.70394 43.6869 7.70394ZM44.2556 10.6831C44.2556 9.76227 44.5222 9.022 45.0198 8.48033C45.5352 7.93867 46.2461 7.66783 47.1525 7.66783C48.0056 7.66783 48.681 7.92061 49.1608 8.44422C49.6407 8.96783 49.8895 9.67199 49.8895 10.5567C49.8895 11.4595 49.6229 12.1817 49.1253 12.7234C48.6099 13.265 47.9167 13.5359 47.0281 13.5359C46.175 13.5359 45.4997 13.2831 45.0021 12.7775C44.5044 12.2539 44.2556 11.5498 44.2556 10.6831ZM45.6063 10.6289C45.6063 11.2067 45.7307 11.6581 45.9973 11.965C46.2639 12.272 46.6371 12.4345 47.117 12.4345C47.5791 12.4345 47.9523 12.29 48.2011 11.965C48.4499 11.6581 48.5743 11.2067 48.5743 10.5928C48.5743 9.99699 48.4499 9.54561 48.2011 9.22061C47.9523 8.91366 47.5791 8.75116 47.1348 8.75116C46.6549 8.75116 46.2995 8.91366 46.0329 9.23866C45.7307 9.58172 45.6063 10.0331 45.6063 10.6289ZM51.8267 9.27477C51.8267 9.45533 51.88 9.61783 52.0044 9.72616C52.1288 9.83449 52.3776 9.96088 52.7864 10.1234C53.3018 10.34 53.675 10.5748 53.8705 10.8275C54.0838 11.0984 54.1904 11.4053 54.1904 11.7845C54.1904 12.3081 53.9949 12.7234 53.5862 13.0484C53.1952 13.3734 52.6442 13.5178 51.9689 13.5178C51.7378 13.5178 51.489 13.4817 51.2047 13.4275C50.9203 13.3734 50.6893 13.3012 50.4938 13.2109V11.9109C50.7248 12.0734 50.9914 12.2178 51.258 12.3081C51.5246 12.3984 51.7734 12.4525 52.0044 12.4525C52.2888 12.4525 52.5198 12.4164 52.6442 12.3262C52.7864 12.2359 52.8575 12.1095 52.8575 11.9109C52.8575 11.7303 52.7864 11.5859 52.6442 11.4414C52.502 11.315 52.2177 11.1706 51.8267 11.0081C51.3468 10.8095 51.0092 10.5748 50.8137 10.322C50.6182 10.0692 50.5115 9.74422 50.5115 9.347C50.5115 8.84144 50.707 8.42616 51.098 8.10116C51.489 7.77617 52.0044 7.61367 52.6265 7.61367C52.8219 7.61367 53.0352 7.63172 53.2663 7.68589C53.4973 7.74005 53.7106 7.79422 53.8705 7.84839V9.13033C53.6928 9.022 53.4973 8.91366 53.2663 8.82339C53.0352 8.73311 52.8042 8.697 52.5909 8.697C52.3421 8.697 52.1466 8.75116 52.0222 8.84144C51.8978 8.96783 51.8267 9.09422 51.8267 9.27477ZM54.7414 10.6831C54.7414 9.76227 55.008 9.022 55.5056 8.48033C56.021 7.93867 56.7319 7.66783 57.6383 7.66783C58.4914 7.66783 59.1667 7.92061 59.6466 8.44422C60.1264 8.96783 60.3752 9.67199 60.3752 10.5567C60.3752 11.4595 60.1087 12.1817 59.611 12.7234C59.0956 13.265 58.4025 13.5359 57.5139 13.5359C56.6608 13.5359 55.9854 13.2831 55.4878 12.7775C55.008 12.2539 54.7414 11.5498 54.7414 10.6831ZM56.0921 10.6289C56.0921 11.2067 56.2165 11.6581 56.4831 11.965C56.7497 12.272 57.1229 12.4345 57.6027 12.4345C58.0648 12.4345 58.438 12.29 58.6869 11.965C58.9357 11.6581 59.0601 11.2067 59.0601 10.5928C59.0601 9.99699 58.9357 9.54561 58.6869 9.22061C58.438 8.91366 58.0648 8.75116 57.6205 8.75116C57.1407 8.75116 56.7852 8.91366 56.5186 9.23866C56.2343 9.58172 56.0921 10.0331 56.0921 10.6289ZM64.694 8.87755H62.7568V13.3914H61.4416V8.87755H60.5174V7.79422H61.4416V7.01783C61.4416 6.44006 61.6371 5.95256 62.0103 5.57339C62.3835 5.19423 62.8634 5.01367 63.4499 5.01367C63.6098 5.01367 63.752 5.03173 63.8764 5.03173C64.0008 5.03173 64.1075 5.06784 64.1963 5.10395V6.24145C64.1608 6.22339 64.0719 6.18728 63.9653 6.15117C63.8586 6.11506 63.7342 6.097 63.5921 6.097C63.3255 6.097 63.1122 6.18728 62.97 6.34978C62.8278 6.51228 62.7568 6.78311 62.7568 7.10811V7.77617H64.694V6.51228L65.9913 6.11506V7.77617H67.3065V8.8595H65.9913V11.4775C65.9913 11.8206 66.0624 12.0553 66.1691 12.1998C66.2935 12.3442 66.489 12.4164 66.7556 12.4164C66.8266 12.4164 66.9155 12.3984 67.0221 12.3623C67.1288 12.3262 67.2176 12.29 67.2887 12.2359V13.3192C67.1999 13.3734 67.0755 13.4095 66.88 13.4456C66.6845 13.4817 66.5067 13.4998 66.3112 13.4998C65.7603 13.4998 65.3515 13.3553 65.0849 13.0664C64.8184 12.7775 64.6762 12.3262 64.6762 11.7303L64.694 8.87755Z" fill="#E4E4E4"/>
<path d="M24.0688 20.5355V16.7423H26.354V17.3107H24.7416V18.2793H26.1046V18.8477H24.7416V19.9671H26.412V20.5355H24.0688Z" fill="#E4E4E4"/>
<path d="M27.1317 20.5355V17.6877H27.6827L27.7291 18.0705H27.7523C27.8799 17.9468 28.0191 17.8405 28.1699 17.7515C28.3207 17.6626 28.4928 17.6181 28.6861 17.6181C28.9916 17.6181 29.2139 17.7167 29.3531 17.9139C29.4923 18.1111 29.5619 18.3895 29.5619 18.7491V20.5355H28.8949V18.8361C28.8949 18.6003 28.8601 18.434 28.7905 18.3373C28.7209 18.2407 28.6069 18.1923 28.4483 18.1923C28.3246 18.1923 28.2144 18.2233 28.1177 18.2851C28.0249 18.3431 27.9186 18.4301 27.7987 18.5461V20.5355H27.1317Z" fill="#E4E4E4"/>
<path d="M31.3807 20.6051C31.052 20.6051 30.8181 20.5104 30.6789 20.3209C30.5435 20.1276 30.4759 19.8782 30.4759 19.5727V18.2155H30.0699V17.7167L30.5107 17.6877L30.5919 16.9105H31.1487V17.6877H31.8737V18.2155H31.1487V19.5727C31.1487 19.9053 31.2821 20.0715 31.5489 20.0715C31.5991 20.0715 31.6513 20.0657 31.7055 20.0541C31.7596 20.0387 31.806 20.0232 31.8447 20.0077L31.9607 20.5007C31.8833 20.5278 31.7944 20.551 31.6939 20.5703C31.5972 20.5935 31.4928 20.6051 31.3807 20.6051Z" fill="#E4E4E4"/>
<path d="M32.473 20.5355V17.6877H33.024L33.0704 18.1923H33.0936C33.1941 18.0067 33.3159 17.8656 33.459 17.7689C33.602 17.6684 33.749 17.6181 33.8998 17.6181C34.0351 17.6181 34.1434 17.6375 34.2246 17.6761L34.1086 18.2561C34.0583 18.2407 34.0119 18.2291 33.9694 18.2213C33.9268 18.2136 33.8746 18.2097 33.8128 18.2097C33.7006 18.2097 33.5827 18.2542 33.459 18.3431C33.3352 18.4282 33.2289 18.579 33.14 18.7955V20.5355H32.473Z" fill="#E4E4E4"/>
<path d="M35.1739 20.6051C34.9264 20.6051 34.7234 20.5278 34.5649 20.3731C34.4102 20.2185 34.3329 20.0174 34.3329 19.7699C34.3329 19.4645 34.4663 19.2286 34.7331 19.0623C34.9999 18.8922 35.4252 18.7762 36.0091 18.7143C36.0052 18.5635 35.9646 18.434 35.8873 18.3257C35.8138 18.2136 35.6804 18.1575 35.4871 18.1575C35.3479 18.1575 35.2106 18.1846 35.0753 18.2387C34.9438 18.2929 34.8143 18.3586 34.6867 18.4359L34.4431 17.9893C34.6016 17.8888 34.7795 17.8018 34.9767 17.7283C35.1778 17.6549 35.3904 17.6181 35.6147 17.6181C35.9704 17.6181 36.2353 17.7245 36.4093 17.9371C36.5872 18.1459 36.6761 18.4495 36.6761 18.8477V20.5355H36.1251L36.0787 20.2223H36.0555C35.9279 20.3306 35.7906 20.4215 35.6437 20.4949C35.5006 20.5684 35.344 20.6051 35.1739 20.6051ZM35.3885 20.0831C35.5045 20.0831 35.6089 20.0561 35.7017 20.0019C35.7984 19.9439 35.9008 19.8666 36.0091 19.7699V19.1319C35.6224 19.1822 35.3537 19.2576 35.2029 19.3581C35.0521 19.4548 34.9767 19.5747 34.9767 19.7177C34.9767 19.8453 35.0154 19.9381 35.0927 19.9961C35.17 20.0541 35.2686 20.0831 35.3885 20.0831Z" fill="#E4E4E4"/>
<path d="M38.6935 20.5355V16.7423H39.3663V20.5355H38.6935Z" fill="#E4E4E4"/>
<path d="M40.3304 20.5355V16.7423H41.3454C41.9254 16.7423 42.3778 16.8989 42.7026 17.2121C43.0274 17.5253 43.1898 17.9951 43.1898 18.6215C43.1898 19.2518 43.0293 19.7293 42.7084 20.0541C42.3874 20.3751 41.9447 20.5355 41.3802 20.5355H40.3304ZM41.0032 19.9903H41.299C41.6818 19.9903 41.9776 19.8801 42.1864 19.6597C42.3952 19.4355 42.4996 19.0894 42.4996 18.6215C42.4996 18.1575 42.3952 17.8192 42.1864 17.6065C41.9776 17.3939 41.6818 17.2875 41.299 17.2875H41.0032V19.9903Z" fill="#E4E4E4"/>
<path d="M45.8473 21.5679C45.6076 21.1735 45.42 20.7617 45.2847 20.3325C45.1494 19.9033 45.0817 19.4335 45.0817 18.9231C45.0817 18.4127 45.1494 17.9429 45.2847 17.5137C45.42 17.0845 45.6076 16.6727 45.8473 16.2783L46.2649 16.4639C46.0484 16.8351 45.8879 17.2315 45.7835 17.6529C45.6791 18.0744 45.6269 18.4978 45.6269 18.9231C45.6269 19.3485 45.6791 19.7719 45.7835 20.1933C45.8879 20.6148 46.0484 21.0111 46.2649 21.3823L45.8473 21.5679Z" fill="#E4E4E4"/>
<path d="M47.7742 18.5171L47.6408 18.9811H48.6094L48.476 18.5171C48.4141 18.3161 48.3542 18.1092 48.2962 17.8965C48.242 17.6839 48.1879 17.4731 48.1338 17.2643H48.1106C48.0603 17.477 48.0062 17.6897 47.9482 17.9023C47.894 18.1111 47.836 18.3161 47.7742 18.5171ZM46.504 20.5355L47.7394 16.7423H48.5282L49.7636 20.5355H49.056L48.7602 19.5089H47.4842L47.1884 20.5355H46.504Z" fill="#E4E4E4"/>
<path d="M49.947 20.5355V20.1759L51.2926 18.2155H50.0978V17.6877H52.1278V18.0415L50.788 20.0019H52.1742V20.5355H49.947Z" fill="#E4E4E4"/>
<path d="M53.5348 20.6051C53.2293 20.6051 53.007 20.5065 52.8678 20.3093C52.7286 20.1121 52.659 19.8337 52.659 19.4741V17.6877H53.326V19.3871C53.326 19.623 53.3608 19.7893 53.4304 19.8859C53.5 19.9826 53.6121 20.0309 53.7668 20.0309C53.8905 20.0309 53.9988 20 54.0916 19.9381C54.1883 19.8763 54.2907 19.7757 54.399 19.6365V17.6877H55.066V20.5355H54.5208L54.4686 20.1179H54.4512C54.3275 20.2649 54.1921 20.3828 54.0452 20.4717C53.8983 20.5607 53.7281 20.6051 53.5348 20.6051Z" fill="#E4E4E4"/>
<path d="M55.9108 20.5355V17.6877H56.4618L56.5082 18.1923H56.5314C56.632 18.0067 56.7538 17.8656 56.8969 17.7689C57.0399 17.6684 57.1869 17.6181 57.3377 17.6181C57.473 17.6181 57.5812 17.6375 57.6624 17.6761L57.5464 18.2561C57.4962 18.2407 57.4498 18.2291 57.4072 18.2213C57.3647 18.2136 57.3125 18.2097 57.2506 18.2097C57.1385 18.2097 57.0206 18.2542 56.8969 18.3431C56.7731 18.4282 56.6668 18.579 56.5779 18.7955V20.5355H55.9108Z" fill="#E4E4E4"/>
<path d="M59.2359 20.6051C58.9729 20.6051 58.7351 20.5471 58.5225 20.4311C58.3098 20.3113 58.1416 20.1411 58.0179 19.9207C57.8941 19.6965 57.8323 19.4277 57.8323 19.1145C57.8323 18.8052 57.8941 18.5384 58.0179 18.3141C58.1455 18.0899 58.3098 17.9178 58.5109 17.7979C58.7119 17.6781 58.9227 17.6181 59.1431 17.6181C59.4021 17.6181 59.6187 17.6761 59.7927 17.7921C59.9667 17.9043 60.0981 18.0628 60.1871 18.2677C60.276 18.4688 60.3205 18.7027 60.3205 18.9695C60.3205 19.1087 60.3108 19.217 60.2915 19.2943H58.4819C58.5128 19.5457 58.6037 19.7409 58.7545 19.8801C58.9053 20.0193 59.0947 20.0889 59.3229 20.0889C59.4466 20.0889 59.5607 20.0715 59.6651 20.0367C59.7733 19.9981 59.8797 19.9459 59.9841 19.8801L60.2103 20.2977C60.0749 20.3867 59.9241 20.4601 59.7579 20.5181C59.5916 20.5761 59.4176 20.6051 59.2359 20.6051ZM58.4761 18.8419H59.7405C59.7405 18.6215 59.6921 18.4495 59.5955 18.3257C59.4988 18.1981 59.3538 18.1343 59.1605 18.1343C58.9942 18.1343 58.8453 18.1962 58.7139 18.3199C58.5863 18.4398 58.507 18.6138 58.4761 18.8419Z" fill="#E4E4E4"/>
<path d="M62.9539 18.5171L62.8205 18.9811H63.7891L63.6557 18.5171C63.5938 18.3161 63.5339 18.1092 63.4759 17.8965C63.4217 17.6839 63.3676 17.4731 63.3135 17.2643H63.2903C63.24 17.477 63.1859 17.6897 63.1279 17.9023C63.0737 18.1111 63.0157 18.3161 62.9539 18.5171ZM61.6837 20.5355L62.9191 16.7423H63.7079L64.9433 20.5355H64.2357L63.9399 19.5089H62.6639L62.3681 20.5355H61.6837Z" fill="#E4E4E4"/>
<path d="M65.4108 20.5355V16.7423H66.4258C67.0058 16.7423 67.4582 16.8989 67.783 17.2121C68.1078 17.5253 68.2702 17.9951 68.2702 18.6215C68.2702 19.2518 68.1098 19.7293 67.7888 20.0541C67.4679 20.3751 67.0252 20.5355 66.4606 20.5355H65.4108ZM66.0836 19.9903H66.3794C66.7622 19.9903 67.058 19.8801 67.2668 19.6597C67.4756 19.4355 67.58 19.0894 67.58 18.6215C67.58 18.1575 67.4756 17.8192 67.2668 17.6065C67.058 17.3939 66.7622 17.2875 66.3794 17.2875H66.0836V19.9903Z" fill="#E4E4E4"/>
<path d="M69.2214 21.5679L68.8038 21.3823C69.0204 21.0111 69.1808 20.6148 69.2852 20.1933C69.3896 19.7719 69.4418 19.3485 69.4418 18.9231C69.4418 18.4978 69.3896 18.0744 69.2852 17.6529C69.1808 17.2315 69.0204 16.8351 68.8038 16.4639L69.2214 16.2783C69.4612 16.6727 69.6487 17.0845 69.784 17.5137C69.9194 17.9429 69.987 18.4127 69.987 18.9231C69.987 19.4335 69.9194 19.9033 69.784 20.3325C69.6487 20.7617 69.4612 21.1735 69.2214 21.5679Z" fill="#E4E4E4"/>
</svg>
