<svg width="72" height="24" viewBox="0 0 72 24" fill="none" xmlns="http://www.w3.org/2000/svg">
    <path fill-rule="evenodd" clip-rule="evenodd" d="M13.1271 17.7487C13.2502 17.7487 13.298 17.7085 13.298 17.6215C13.298 17.5346 13.2502 17.4944 13.1271 17.4944H12.751V17.7487H13.1271ZM13.1066 17.2385C13.2228 17.2385 13.2707 17.205 13.2707 17.118C13.2707 17.0377 13.216 17.0043 13.1066 17.0043H12.751V17.2451H13.1066V17.2385ZM12.3398 16.6904H13.2151C13.5023 16.6904 13.6801 16.8042 13.6801 17.0317C13.6801 17.1856 13.6186 17.2926 13.4476 17.3462C13.6254 17.4131 13.7143 17.5067 13.7143 17.6673C13.7143 17.9484 13.4955 18.0487 13.1878 18.0487H12.3398V16.6904Z" fill="#808181"/>
    <path fill-rule="evenodd" clip-rule="evenodd" d="M14.5476 17.6193L13.939 16.6959H14.4108L14.7527 17.2379H14.7732L15.122 16.6959H15.5801L14.9715 17.6193V18.0542H14.5544V17.6193H14.5476Z" fill="#808181"/>
    <path fill-rule="evenodd" clip-rule="evenodd" d="M17.4146 17.4002C17.5445 17.4002 17.5992 17.3199 17.5992 17.2129C17.5992 17.0924 17.5377 17.0255 17.4077 17.0255H17.0795V17.4002H17.4146ZM16.6685 16.6904H17.489C17.8309 16.6904 18.0156 16.8845 18.0156 17.199C18.0156 17.5536 17.7831 17.7209 17.4617 17.7209H17.0924V18.0554H16.6753V16.6904H16.6685Z" fill="#808181"/>
    <path fill-rule="evenodd" clip-rule="evenodd" d="M18.8365 17.4679H19.2126L19.0621 17.0397H18.9869L18.8365 17.4679ZM18.6862 16.6904H19.3563L19.8418 18.0554H19.4042L19.3085 17.7744H18.7341L18.6315 18.0554H18.2007L18.6862 16.6904Z" fill="#808181"/>
    <path fill-rule="evenodd" clip-rule="evenodd" d="M20.21 16.6889H20.6271V17.6993H21.3656L21.3519 18.0539H20.21V16.6889Z" fill="#808181"/>
    <mask id="mask0_2665_870" style="mask-type:luminance" maskUnits="userSpaceOnUse" x="21" y="16" width="3" height="3">
        <path fill-rule="evenodd" clip-rule="evenodd" d="M21.6396 16.6499H23.226V18.0952H21.6396V16.6499Z" fill="white"/>
    </mask>
    <g mask="url(#mask0_2665_870)">
        <path fill-rule="evenodd" clip-rule="evenodd" d="M22.8166 17.3738C22.8166 17.1396 22.6798 16.9991 22.4337 16.9991C22.1943 16.9991 22.0508 17.1396 22.0508 17.3738C22.0508 17.6079 22.1875 17.7485 22.4269 17.7485C22.673 17.7485 22.8166 17.6079 22.8166 17.3738ZM21.6396 17.3725C21.6396 16.9309 21.9474 16.6499 22.4328 16.6499C22.9183 16.6499 23.226 16.9309 23.226 17.3725C23.226 17.8142 22.9183 18.0952 22.4328 18.0952C21.9474 18.0952 21.6396 17.8208 21.6396 17.3725Z" fill="#808181"/>
    </g>
    <path fill-rule="evenodd" clip-rule="evenodd" d="M24.9146 17.4679H25.2907L25.1403 17.0397H25.0651L24.9146 17.4679ZM24.7643 16.6904H25.4345L25.92 18.0554H25.4823L25.3866 17.7744H24.8122L24.7096 18.0554H24.2856L24.7643 16.6904Z" fill="#808181"/>
    <path fill-rule="evenodd" clip-rule="evenodd" d="M26.2896 16.6889H26.7067V17.6993H27.4451L27.4315 18.0539H26.2896V16.6889Z" fill="#808181"/>
    <path fill-rule="evenodd" clip-rule="evenodd" d="M28.026 17.0439H27.5405L27.5543 16.6959H28.915L28.9287 17.0439H28.4432V18.0542H28.026V17.0439Z" fill="#808181"/>
    <mask id="mask1_2665_870" style="mask-type:luminance" maskUnits="userSpaceOnUse" x="29" y="16" width="2" height="3">
        <path fill-rule="evenodd" clip-rule="evenodd" d="M29.21 16.6499H30.7964V18.0952H29.21V16.6499Z" fill="white"/>
    </mask>
    <g mask="url(#mask1_2665_870)">
        <path fill-rule="evenodd" clip-rule="evenodd" d="M30.387 17.3738C30.387 17.1396 30.2502 16.9991 30.004 16.9991C29.7579 16.9991 29.6211 17.1396 29.6211 17.3738C29.6211 17.6079 29.7579 17.7485 29.9972 17.7485C30.2434 17.7485 30.387 17.6079 30.387 17.3738ZM29.21 17.3725C29.21 16.9309 29.5177 16.6499 30.0032 16.6499C30.4887 16.6499 30.7964 16.9309 30.7964 17.3725C30.7964 17.8142 30.4887 18.0952 30.0032 18.0952C29.5177 18.0952 29.21 17.8208 29.21 17.3725Z" fill="#808181"/>
    </g>
    <path fill-rule="evenodd" clip-rule="evenodd" d="M31.9785 16.6889H32.4094L33.0111 17.4651H33.0179V16.6889H33.4145V18.0539H32.9974L32.382 17.2643H32.3752V18.0539H31.9785V16.6889Z" fill="#808181"/>
    <path fill-rule="evenodd" clip-rule="evenodd" d="M33.9136 16.6889H35.1308L35.1445 17.0168H34.3239V17.2041H34.9667V17.5052H34.3239V17.7193H35.165L35.1514 18.0472H33.9067V16.6889H33.9136Z" fill="#808181"/>
    <path fill-rule="evenodd" clip-rule="evenodd" d="M35.9866 17.0439H35.501L35.5147 16.6959H36.8755L36.8892 17.0439H36.4037V18.0542H35.9866V17.0439Z" fill="#808181"/>
    <path fill-rule="evenodd" clip-rule="evenodd" d="M37.1958 16.6889H37.6403L37.8659 17.6324H37.8865L38.1804 16.6889H38.5907L38.878 17.6324H38.8984L39.1241 16.6889H39.5481L39.1788 18.0539H38.6317L38.3788 17.2309H38.3719L38.112 18.0539H37.565L37.1958 16.6889Z" fill="#808181"/>
    <mask id="mask2_2665_870" style="mask-type:luminance" maskUnits="userSpaceOnUse" x="39" y="16" width="3" height="3">
        <path fill-rule="evenodd" clip-rule="evenodd" d="M39.8223 16.6499H41.4087V18.0952H39.8223V16.6499Z" fill="white"/>
    </mask>
    <g mask="url(#mask2_2665_870)">
        <path fill-rule="evenodd" clip-rule="evenodd" d="M40.9989 17.3738C40.9989 17.1396 40.8621 16.9991 40.6159 16.9991C40.3698 16.9991 40.233 17.1396 40.233 17.3738C40.233 17.6079 40.3698 17.7485 40.6091 17.7485C40.8621 17.7485 40.9989 17.6079 40.9989 17.3738ZM39.8228 17.3725C39.8228 16.9309 40.1305 16.6499 40.616 16.6499C41.1015 16.6499 41.4092 16.9309 41.4092 17.3725C41.4092 17.8142 41.1015 18.0952 40.616 18.0952C40.1305 18.0952 39.8228 17.8208 39.8228 17.3725Z" fill="#808181"/>
    </g>
    <path fill-rule="evenodd" clip-rule="evenodd" d="M42.5939 17.3801C42.7307 17.3801 42.7854 17.3065 42.7854 17.1995C42.7854 17.0991 42.7376 17.0255 42.5939 17.0255H42.252V17.3801H42.5939ZM41.834 16.6904H42.6477C43.017 16.6904 43.2016 16.8644 43.2016 17.1789C43.2016 17.3997 43.1128 17.5469 42.9281 17.6138L43.2563 18.0487H42.7845L42.5246 17.6874H42.2511V18.0487H41.834V16.6904Z" fill="#808181"/>
    <path fill-rule="evenodd" clip-rule="evenodd" d="M43.6318 16.6889H44.049V17.1907H44.2199L44.6302 16.6889H45.102L44.5687 17.3379L45.1294 18.0472H44.6439L44.2199 17.5253H44.049V18.0472H43.6318V16.6889Z" fill="#808181"/>
    <mask id="mask3_2665_870" style="mask-type:luminance" maskUnits="userSpaceOnUse" x="45" y="16" width="2" height="3">
        <path fill-rule="evenodd" clip-rule="evenodd" d="M45.4028 16.6639H46.7089V18.0958H45.4028V16.6639Z" fill="white"/>
    </mask>
    <g mask="url(#mask3_2665_870)">
        <path fill-rule="evenodd" clip-rule="evenodd" d="M45.4097 17.9687V17.594C45.6422 17.7078 45.8678 17.768 46.0661 17.768C46.2166 17.768 46.2918 17.7345 46.2918 17.6676C46.2918 17.6007 46.2439 17.5806 45.943 17.5338C45.6148 17.4803 45.4028 17.3866 45.4028 17.1122C45.4028 16.858 45.6285 16.6639 46.0798 16.6639C46.2576 16.6639 46.4491 16.7041 46.62 16.771V17.139C46.4559 17.0453 46.2303 16.9851 46.0525 16.9851C45.8952 16.9851 45.8268 17.0253 45.8268 17.0855C45.8268 17.1658 45.9225 17.1725 46.1687 17.2126C46.4969 17.2661 46.7089 17.3598 46.7089 17.6475C46.7089 17.8683 46.538 18.0958 46.0456 18.0958C45.8063 18.0958 45.6148 18.0423 45.4097 17.9687Z" fill="#808181"/>
    </g>
    <path fill-rule="evenodd" clip-rule="evenodd" d="M11.8032 12.0519C11.8032 13.3984 12.8873 14.3421 14.7907 14.3421C15.4794 14.3421 16.0504 14.2075 16.5485 14.0101V12.9414C16.0622 13.1827 15.5466 13.3849 14.8555 13.3849C13.7496 13.3849 13.0604 12.8768 13.0604 12.0452C13.0604 11.2336 13.7783 10.706 14.8698 10.706C15.5641 10.706 16.0622 10.9095 16.5485 11.1477V10.0705C16.0448 9.87374 15.4943 9.74945 14.805 9.74945C12.9526 9.74945 11.8032 10.7657 11.8032 12.0519Z" fill="#000101"/>
    <path fill-rule="evenodd" clip-rule="evenodd" d="M28.1205 11.8871H26.9318V10.732H28.1784C28.8826 10.732 29.1696 10.9367 29.1696 11.3065C29.1696 11.6958 28.8172 11.8871 28.1205 11.8871ZM30.4331 11.2869C30.4331 10.3822 29.7364 9.84784 28.4219 9.84784H25.6816V14.2431H26.9313V12.7382H27.8541L29.2407 14.2431H30.6704L29.176 12.6529C29.9232 12.4677 30.4331 11.9998 30.4331 11.2869Z" fill="#000101"/>
    <path fill-rule="evenodd" clip-rule="evenodd" d="M68.3951 11.8875H67.2065V10.7323H68.453C69.1572 10.7323 69.4443 10.937 69.4443 11.3069C69.4443 11.6962 69.0919 11.8875 68.3951 11.8875ZM70.708 11.2872C70.708 10.3824 70.0113 9.84808 68.6968 9.84808H65.9565V14.2433H67.2062V12.7384H68.129L69.5156 14.2433H70.9453L69.4509 12.6531C70.1981 12.4679 70.708 12 70.708 11.2872Z" fill="#828181"/>
    <path fill-rule="evenodd" clip-rule="evenodd" d="M31.936 10.7917H33.8233V14.2432H35.073V10.7917H36.9602V9.8479H31.936V10.7917Z" fill="#000101"/>
    <path fill-rule="evenodd" clip-rule="evenodd" d="M38.7314 14.2432H43.0807V13.3451H39.9599V12.4281H42.2762V11.6099H39.9599V10.7454H43.0807V9.8479H38.7314V14.2432Z" fill="#000101"/>
    <path fill-rule="evenodd" clip-rule="evenodd" d="M47.9578 12.0126L49.9739 9.8479H48.4945L47.2237 11.3205L45.9479 9.8479H44.418L46.4354 12.0254L44.3613 14.2432H45.8408L47.1689 12.787L48.502 14.2432H50.0318L47.9578 12.0126Z" fill="#000101"/>
    <path fill-rule="evenodd" clip-rule="evenodd" d="M56.5364 12.0128L58.5526 9.84808H57.0731L55.8023 11.3207L54.5265 9.84808H52.9966L55.014 12.0256L52.9399 14.2433H54.4194L55.7475 12.7872L57.0806 14.2433H58.6105L56.5364 12.0128Z" fill="#828181"/>
    <path fill-rule="evenodd" clip-rule="evenodd" d="M19.7198 12.0447C19.7198 12.8636 20.3405 13.3455 21.1301 13.3455C21.9265 13.3455 22.5541 12.8636 22.5541 12.0447C22.5541 11.2198 21.9265 10.7439 21.1301 10.7439C20.3405 10.7439 19.7198 11.2198 19.7198 12.0447ZM23.9165 12.0448C23.9165 13.4308 22.81 14.3624 21.1301 14.3624C19.4633 14.3624 18.3574 13.4308 18.3574 12.0448C18.3574 10.6587 19.4633 9.72711 21.1301 9.72711C22.81 9.72711 23.9165 10.6648 23.9165 12.0448Z" fill="#000101"/>
    <path fill-rule="evenodd" clip-rule="evenodd" d="M5.86993 9.07346C4.34569 9.07346 3.10976 10.3081 3.10976 11.831C3.10976 13.3539 4.34558 14.5885 5.86972 14.5886V9.07347C7.39395 9.07347 8.62988 10.3081 8.62988 11.831C8.62988 13.3539 7.39406 14.5885 5.86993 14.5886V16.6568C3.19963 16.6568 1.03418 14.4935 1.03418 11.8257C1.03418 9.1574 3.19963 6.99456 5.86993 6.99456V9.07346Z" fill="#00CC66"/>
    <path d="M64.7582 12.0495C64.7582 12.3811 64.6913 12.6875 64.5574 12.9687C64.426 13.2478 64.2399 13.4902 63.999 13.6959C63.758 13.8994 63.4672 14.0589 63.1266 14.1743C62.7883 14.2877 62.4123 14.3443 61.9986 14.3443H59.9326V9.75787H61.9986C62.4123 9.75787 62.7883 9.81558 63.1266 9.93101C63.4672 10.0464 63.758 10.2059 63.999 10.4095C64.2399 10.613 64.426 10.8554 64.5574 11.1366C64.6913 11.4158 64.7582 11.7201 64.7582 12.0495ZM63.4952 12.0495C63.4952 11.8229 63.4612 11.6183 63.393 11.4357C63.3249 11.2531 63.2263 11.0989 63.0973 10.973C62.9708 10.8449 62.8151 10.7474 62.6301 10.6802C62.4452 10.6109 62.2347 10.5763 61.9986 10.5763H61.1737V13.5259H61.9986C62.2347 13.5259 62.4452 13.4923 62.6301 13.4252C62.8151 13.3559 62.9708 13.2583 63.0973 13.1324C63.2263 13.0044 63.3249 12.8491 63.393 12.6665C63.4612 12.4839 63.4952 12.2783 63.4952 12.0495Z" fill="#828181"/>
</svg>
