<svg width="72" height="24" viewBox="0 0 72 24" fill="none" xmlns="http://www.w3.org/2000/svg">
<g clip-path="url(#clip0_2895_1873)">
<path d="M7.20376 8.52549L4.64561 9.99737C4.24666 10.2273 4 10.6528 4 11.1127V14.0555C4 14.5154 4.24666 14.9409 4.64561 15.1708L7.20376 16.6427C7.60366 16.8727 8.09604 16.8727 8.49591 16.6427L11.0541 15.1708C11.4539 14.9409 11.6997 14.5154 11.6997 14.0555V11.1127C11.6997 10.6528 11.453 10.2273 11.0541 9.99737L8.49591 8.52549C8.09604 8.29554 7.60366 8.29554 7.20376 8.52549ZM4.96421 14.0993V11.0699C4.96421 10.9777 5.01373 10.893 5.09315 10.8464L7.72045 9.33544C7.80079 9.28889 7.89983 9.28982 7.98016 9.33544L8.81266 9.81955L6.89918 10.92V14.2473L5.93216 14.804L5.09408 14.3218C5.01373 14.2761 4.96514 14.1905 4.96514 14.0983L4.96421 14.0993ZM10.6075 14.3208L7.98016 15.8318C7.89983 15.8784 7.80079 15.8774 7.72045 15.8318L6.88797 15.3477L8.80145 14.2473V10.92L9.76845 10.3632L10.6065 10.8455C10.6869 10.8911 10.7355 10.9768 10.7355 11.0689V14.0983C10.7355 14.1905 10.6859 14.2752 10.6065 14.3218L10.6075 14.3208Z" fill="white"/>
<path d="M45.0567 11.4572H44.3916C44.357 10.8149 43.8984 10.5356 43.2265 10.5356C42.5547 10.5356 42.123 10.8121 42.123 11.3381C42.123 11.8641 42.5611 12.0419 43.0554 12.1266L43.6788 12.2355C44.4019 12.3622 45.1045 12.6898 45.1045 13.619C45.1045 14.5481 44.3234 15.0769 43.3022 15.0769C42.281 15.0769 41.3486 14.5509 41.314 13.3695H41.9791C42.0268 14.1682 42.5752 14.4969 43.3022 14.4969C44.0292 14.4969 44.4468 14.1654 44.4468 13.6264C44.4468 13.0874 43.9701 12.9058 43.4525 12.8137L42.8284 12.7048C42.1707 12.5884 41.4642 12.2607 41.4642 11.3455C41.4642 10.4304 42.2658 9.95557 43.2255 9.95557C44.1851 9.95557 45.0147 10.4341 45.0557 11.4582L45.0567 11.4572Z" fill="white"/>
<path d="M49.0797 13.848C48.9768 14.3879 48.5108 15.0769 47.3803 15.0769C46.2496 15.0769 45.5703 14.36 45.5703 13.1991C45.5703 12.0381 46.2694 11.3213 47.3662 11.3213C48.463 11.3213 49.0656 12.0381 49.0656 13.0287V13.3704H46.1834C46.2245 14.1692 46.7177 14.5453 47.3793 14.5453C48.0409 14.5453 48.335 14.2511 48.4351 13.8489H49.0797V13.848ZM46.2011 12.8574H48.4493C48.422 12.202 48.0175 11.8538 47.3662 11.8538C46.7768 11.8538 46.304 12.188 46.2011 12.8574Z" fill="white"/>
<path d="M53.0998 13.5757C53.0447 14.4294 52.4422 15.0783 51.3722 15.0783C50.3026 15.0783 49.542 14.4089 49.542 13.2005C49.542 11.9921 50.3026 11.3228 51.3722 11.3228C52.4422 11.3228 53.0309 11.9716 53.0719 12.7229H52.4347C52.3728 12.224 52.0571 11.8692 51.3722 11.8692C50.653 11.8692 50.1661 12.3478 50.1661 13.2005C50.1661 14.0533 50.653 14.5328 51.3722 14.5328C52.0917 14.5328 52.4142 14.1371 52.4627 13.5767H53.0998V13.5757Z" fill="white"/>
<path d="M56.9788 11.4238V14.9755H56.3685V14.5798C56.3685 14.5454 56.3547 14.5324 56.3207 14.5324C56.2872 14.5324 56.2734 14.5528 56.2451 14.5873C56.005 14.888 55.6493 15.0788 55.1277 15.0788C54.2363 15.0788 53.689 14.5668 53.689 13.6442V11.4248H54.3056V13.5418C54.3056 14.1907 54.6486 14.5324 55.2653 14.5324C55.9509 14.5324 56.3621 14.1227 56.3621 13.269V11.4248H56.9788V11.4238Z" fill="white"/>
<path d="M57.8125 14.9748V11.4241H58.4292V11.9017C58.4292 11.9361 58.4433 11.9491 58.4769 11.9491C58.5179 11.9491 58.5321 11.9287 58.5451 11.8942C58.7028 11.5526 58.9497 11.4092 59.4365 11.4092H59.8343V12.0106H59.3411C58.7449 12.0106 58.4292 12.2769 58.4292 12.9602V14.9748H57.8125Z" fill="white"/>
<path d="M60.1689 10.0581H61.0603V10.8774H60.1689V10.0581ZM60.3065 11.4239H60.9232V14.9755H60.3065V11.4239Z" fill="white"/>
<path d="M61.394 11.9704V11.4239H62.2165V10.4678H62.8332V11.4239H63.8607V11.9704H62.8332V14.3267C62.8332 14.3611 62.8395 14.3816 62.86 14.4021C62.8805 14.4226 62.9014 14.4291 62.9357 14.4291H63.8607V14.9756H63.244C62.5482 14.9756 62.2165 14.6441 62.2165 13.9515V11.9704H61.394Z" fill="white"/>
<path d="M64.2192 11.5607V11.4238H64.8433L65.8645 14.4085C65.8786 14.4495 65.8917 14.4635 65.9338 14.4635C65.9755 14.4635 65.9886 14.4495 66.0017 14.4085L67.0232 11.4238H67.6473V11.5607L66.31 15.3851C66.0774 16.0545 65.7347 16.2733 64.9805 16.2733H64.4052V15.7268H65.4264C65.5049 15.7268 65.5498 15.6998 65.5703 15.6411L65.7616 15.1254C65.7825 15.0705 65.7888 15.037 65.7683 15.009C65.7478 14.982 65.7337 14.9746 65.6796 14.9746C65.5197 14.9746 65.3769 14.874 65.3246 14.7232L64.2199 11.5598L64.2192 11.5607Z" fill="white"/>
<path d="M17.8615 11.4583H17.1981C17.1635 10.8178 16.7057 10.5385 16.0358 10.5385C15.3659 10.5385 14.9352 10.8141 14.9352 11.3392C14.9352 11.8643 15.3725 12.0411 15.8648 12.1259L16.4871 12.2348C17.2084 12.3605 17.9091 12.6882 17.9091 13.6145C17.9091 14.5408 17.1299 15.0687 16.1115 15.0687C15.0931 15.0687 14.1635 14.5445 14.1289 13.3659H14.7922C14.8399 14.1628 15.3874 14.4896 16.1115 14.4896C16.8356 14.4896 17.2532 14.1591 17.2532 13.621C17.2532 13.0829 16.7777 12.9023 16.2619 12.8101L15.6397 12.7012C14.9838 12.5858 14.2793 12.2581 14.2793 11.3457C14.2793 10.4333 15.0791 9.95947 16.0358 9.95947C16.9926 9.95947 17.8204 10.4361 17.8615 11.4583Z" fill="white"/>
<path d="M21.8306 11.424V11.56L20.2853 12.8782L21.8306 14.8295V14.9655H21.157L19.8312 13.2655L19.165 13.8343V14.9655H18.5493V10.062H19.165V13.0728L21.0421 11.424H21.8316H21.8306Z" fill="white"/>
<path d="M22.1797 11.5598V11.4238H22.8019L23.8204 14.4011C23.8344 14.4421 23.8474 14.456 23.8886 14.456C23.9297 14.456 23.9437 14.4421 23.9568 14.4011L24.9752 11.4238H25.5974V11.5598L24.2641 15.374C24.0315 16.0415 23.6896 16.2593 22.9384 16.2593H22.3638V15.7147H23.3822C23.4606 15.7147 23.5055 15.6877 23.5261 15.63L23.7176 15.1161C23.7381 15.0612 23.7447 15.0276 23.7241 15.0007C23.7036 14.9736 23.6896 14.9662 23.6354 14.9662C23.4756 14.9662 23.3336 14.8657 23.2813 14.7158L22.1797 11.5607V11.5598Z" fill="white"/>
<path d="M26.0571 14.9664V10.062H26.6728V11.8122C26.6728 11.8467 26.6868 11.8597 26.7204 11.8597C26.7541 11.8597 26.7681 11.8393 26.7952 11.8048C27.0204 11.505 27.3829 11.3207 27.9024 11.3207C28.7909 11.3207 29.3384 11.8318 29.3384 12.7516V14.9655H28.7227V12.854C28.7227 12.207 28.3807 11.8662 27.7659 11.8662C27.082 11.8662 26.6719 12.2749 26.6719 13.1268V14.9664H26.0562H26.0571Z" fill="white"/>
<path d="M29.9775 10.062H30.8661V10.8794H29.9775V10.062ZM30.114 11.424H30.7297V14.9664H30.114V11.424Z" fill="white"/>
<path d="M32.023 15.0821C32.0949 15.5252 32.4677 15.8176 33.1236 15.8176C33.8654 15.8176 34.2924 15.3819 34.2924 14.6259V14.3811C34.2924 14.3541 34.2784 14.3401 34.2513 14.3401C34.2242 14.3401 34.2102 14.3466 34.1897 14.3745C33.9159 14.7283 33.5132 14.8652 33.0274 14.8652C32.1314 14.8652 31.311 14.2517 31.311 13.0944C31.311 11.9372 32.1314 11.3237 33.0274 11.3237C33.5123 11.3237 33.9028 11.4736 34.1962 11.8209C34.2438 11.8823 34.2709 11.8953 34.3055 11.8953C34.3466 11.8953 34.3532 11.8749 34.3672 11.8339L34.497 11.4252H34.9072V14.5924C34.9072 15.7161 34.2373 16.3631 33.1161 16.3631C31.995 16.3631 31.4101 15.8315 31.339 15.0821H32.023ZM33.1301 14.3196C33.7795 14.3196 34.3261 13.8765 34.3261 13.0935C34.3261 12.3106 33.7795 11.8674 33.1301 11.8674C32.4808 11.8674 31.9342 12.3106 31.9342 13.0935C31.9342 13.8765 32.4808 14.3196 33.1301 14.3196Z" fill="white"/>
<path d="M35.7182 14.9664V10.062H36.3339V11.8122C36.3339 11.8467 36.3479 11.8597 36.3816 11.8597C36.4152 11.8597 36.4292 11.8393 36.4563 11.8048C36.6815 11.505 37.044 11.3207 37.5635 11.3207C38.452 11.3207 38.9995 11.8318 38.9995 12.7516V14.9655H38.3838V12.854C38.3838 12.207 38.0418 11.8662 37.4271 11.8662C36.7432 11.8662 36.333 12.2749 36.333 13.1268V14.9664H35.7173H35.7182Z" fill="white"/>
</g>
<defs>
<clipPath id="clip0_2895_1873">
<rect width="64" height="8.83978" fill="white" transform="translate(4 8)"/>
</clipPath>
</defs>
</svg>
