<svg width="270" height="60" fill="none" xmlns="http://www.w3.org/2000/svg"><path d="M51.4 0L30.115 21.207 8.842 0 0 8.809 21.287 30 0 51.191 8.842 60l21.272-21.207L51.385 60l8.842-8.809L38.94 30 60.227 8.809 51.401 0zM240.39.549a29.691 29.691 0 00-16.434 4.981 29.521 29.521 0 00-10.892 13.232 29.397 29.397 0 00-1.686 17.03 29.47 29.47 0 008.089 15.097 29.646 29.646 0 0015.141 8.083 29.714 29.714 0 0017.097-1.652 29.58 29.58 0 0013.3-10.83 29.413 29.413 0 005.026-16.364 29.415 29.415 0 00-2.242-11.315 29.528 29.528 0 00-6.423-9.597 29.651 29.651 0 00-9.622-6.413A29.738 29.738 0 00240.39.55zm0 46.834a17.446 17.446 0 01-9.68-2.92 17.35 17.35 0 01-6.415-7.79 17.276 17.276 0 01-.984-10.027 17.314 17.314 0 014.781-8.879 17.423 17.423 0 018.93-4.73 17.462 17.462 0 0110.062 1.015 17.387 17.387 0 017.796 6.42 17.287 17.287 0 012.895 9.654 17.316 17.316 0 01-5.129 12.187 17.449 17.449 0 01-12.256 5.054v.016zM195.534 43.448a17.415 17.415 0 01-7.43 3.547 17.45 17.45 0 01-8.235-.26 17.407 17.407 0 01-7.19-4.007 17.313 17.313 0 01-4.531-6.856 17.279 17.279 0 012.162-15.802 17.367 17.367 0 016.206-5.398 17.444 17.444 0 018.005-1.945 17.35 17.35 0 0110.242 3.323l1.007.737 7.017-9.969-.975-.72a29.703 29.703 0 00-31.825-1.746 29.554 29.554 0 00-11.597 11.834 29.405 29.405 0 002.518 31.653 29.601 29.601 0 0013.324 9.867 29.718 29.718 0 0016.561 1.173 29.644 29.644 0 0014.59-7.891l1.039-1.035-10.148-7.1-.74.595zM123.255.47a21.91 21.91 0 00-8.6 1.754 21.835 21.835 0 00-7.212 4.986A21.856 21.856 0 0096.301.963a21.915 21.915 0 00-12.743 1.038 21.823 21.823 0 00-9.975 7.966 21.698 21.698 0 00-3.79 12.165v36.395h12.083V22.1a.765.765 0 000-.172 9.702 9.702 0 012.862-6.883 9.802 9.802 0 0113.817 0 9.73 9.73 0 012.862 6.883v36.614H113.5V21.928a9.703 9.703 0 012.862-6.883 9.8 9.8 0 0113.818 0 9.732 9.732 0 012.861 6.883.554.554 0 000 .172v36.395h12.083V22.132a21.759 21.759 0 00-6.454-15.32A21.928 21.928 0 00123.255.47z" fill="#1B233D"/></svg>