<svg width="72" height="24" viewBox="0 0 72 24" fill="none" xmlns="http://www.w3.org/2000/svg">
    <path d="M36.2116 15.7184C36.1581 15.7035 35.3345 15.4873 34.4592 15.4873C32.8021 15.4873 31.8045 16.3983 31.8045 17.7548C31.8045 18.9557 32.6391 19.5545 33.6407 19.8767C33.7518 19.914 33.9154 19.9661 34.0244 20.0029C34.4702 20.1457 34.8261 20.3579 34.8261 20.7254C34.8261 21.1364 34.4148 21.4025 33.5206 21.4025C32.7347 21.4025 31.9814 21.1737 31.8227 21.133V22.802C31.9111 22.8212 32.8065 23.0001 33.763 23.0001C35.1388 23.0001 36.7125 22.3881 36.7125 20.5662C36.7125 19.6825 36.181 18.8689 35.0142 18.4913L34.5182 18.3305C34.2223 18.2354 33.6941 18.0814 33.6941 17.6399C33.6941 17.2911 34.0855 17.0454 34.8062 17.0454C35.428 17.0454 36.1848 17.2582 36.2116 17.2667V15.7184ZM51.4046 19.2438C51.4046 20.2991 50.6106 21.1529 49.5451 21.1529C48.4786 21.1529 47.6867 20.2991 47.6867 19.2438C47.6867 18.1906 48.4786 17.3365 49.5451 17.3365C50.6106 17.3365 51.4046 18.1906 51.4046 19.2438ZM49.5451 15.4896C47.3539 15.4896 45.7824 17.1722 45.7824 19.2438C45.7824 21.3187 47.3539 23.0001 49.5451 23.0001C51.7362 23.0001 53.3099 21.3187 53.3099 19.2438C53.3099 17.1722 51.7362 15.4896 49.5451 15.4896ZM29.3936 22.871H27.5957V15.6181H29.3936" fill="#049FD9"/>
    <path d="M25.1245 15.7494C24.9555 15.6984 24.331 15.4895 23.4852 15.4895C21.2974 15.4895 19.6914 17.0776 19.6914 19.2437C19.6914 21.5806 21.4643 23 23.4852 23C24.2882 23 24.9011 22.8063 25.1245 22.7418V20.7949C25.0472 20.8385 24.4596 21.1798 23.6141 21.1798C22.4164 21.1798 21.6438 20.3216 21.6438 19.2437C21.6438 18.1329 22.4498 17.3091 23.6141 17.3091C24.474 17.3091 25.0522 17.6579 25.1245 17.6964" fill="#049FD9"/>
    <path d="M43.8896 15.7494C43.7207 15.6984 43.0962 15.4895 42.2504 15.4895C40.0626 15.4895 38.4565 17.0776 38.4565 19.2437C38.4565 21.5806 40.2294 23 42.2504 23C43.0533 23 43.6662 22.8063 43.8896 22.7418V20.7949C43.8124 20.8385 43.2247 21.1798 42.3793 21.1798C41.1815 21.1798 40.409 20.3216 40.409 19.2437C40.409 18.1329 41.2149 17.3091 42.3793 17.3091C43.2391 17.3091 43.8173 17.6579 43.8896 17.6964" fill="#049FD9"/>
    <path d="M27.5903 1.90535C27.5903 1.40543 27.1892 1 26.6976 1C26.2062 1 25.8051 1.40543 25.8051 1.90535V11.5367C25.8051 12.0395 26.2062 12.4448 26.6976 12.4448C27.1892 12.4448 27.5903 12.0395 27.5903 11.5367V1.90535ZM22.6876 5.32425C22.6876 4.82452 22.2867 4.41851 21.795 4.41851C21.3034 4.41851 20.9025 4.82452 20.9025 5.32425V9.72734C20.9025 10.23 21.3034 10.6354 21.795 10.6354C22.2867 10.6354 22.6876 10.23 22.6876 9.72734V5.32425ZM17.785 7.82329C17.785 7.32337 17.3841 6.91813 16.8925 6.91813C16.4015 6.91813 16 7.32337 16 7.82329V9.72734C16 10.23 16.4015 10.6354 16.8925 10.6354C17.3841 10.6354 17.785 10.23 17.785 9.72734" fill="#049FD9"/>
    <path d="M25.8052 1.90535C25.8052 1.40543 26.2063 1 26.6979 1C27.1894 1 27.5904 1.40543 27.5904 1.90535V11.5367C27.5904 12.0395 27.1894 12.4448 26.6979 12.4448C26.2063 12.4448 25.8052 12.0395 25.8052 11.5367V1.90535ZM30.708 5.32425C30.708 4.82452 31.1088 4.41851 31.6005 4.41851C32.0921 4.41851 32.493 4.82452 32.493 5.32425V9.72734C32.493 10.23 32.0921 10.6354 31.6005 10.6354C31.1088 10.6354 30.708 10.23 30.708 9.72734V5.32425ZM35.6105 7.82329C35.6105 7.32337 36.0114 6.91813 36.503 6.91813C36.994 6.91813 37.3955 7.32337 37.3955 7.82329V9.72734C37.3955 10.23 36.994 10.6354 36.503 10.6354C36.0114 10.6354 35.6105 10.23 35.6105 9.72734" fill="#049FD9"/>
    <path d="M45.4097 1.90535C45.4097 1.40543 45.8108 1 46.3024 1C46.7938 1 47.1949 1.40543 47.1949 1.90535V11.5367C47.1949 12.0395 46.7938 12.4448 46.3024 12.4448C45.8108 12.4448 45.4097 12.0395 45.4097 11.5367V1.90535ZM50.3124 5.32425C50.3124 4.82452 50.7133 4.41851 51.205 4.41851C51.6966 4.41851 52.0975 4.82452 52.0975 5.32425V9.72734C52.0975 10.23 51.6966 10.6354 51.205 10.6354C50.7133 10.6354 50.3124 10.23 50.3124 9.72734V5.32425ZM55.215 7.82329C55.215 7.32337 55.6159 6.91813 56.1075 6.91813C56.5985 6.91813 57 7.32337 57 7.82329V9.72734C57 10.23 56.5985 10.6354 56.1075 10.6354C55.6159 10.6354 55.215 10.23 55.215 9.72734" fill="#049FD9"/>
    <path d="M47.1948 1.90535C47.1948 1.40543 46.7937 1 46.3021 1C45.8106 1 45.4096 1.40543 45.4096 1.90535V11.5367C45.4096 12.0395 45.8106 12.4448 46.3021 12.4448C46.7937 12.4448 47.1948 12.0395 47.1948 11.5367V1.90535ZM42.292 5.32425C42.292 4.82452 41.8912 4.41851 41.3995 4.41851C40.9079 4.41851 40.507 4.82452 40.507 5.32425V9.72734C40.507 10.23 40.9079 10.6354 41.3995 10.6354C41.8912 10.6354 42.292 10.23 42.292 9.72734V5.32425ZM37.3895 7.82329C37.3895 7.32337 36.9886 6.91813 36.497 6.91813C36.006 6.91813 35.6045 7.32337 35.6045 7.82329V9.72734C35.6045 10.23 36.006 10.6354 36.497 10.6354C36.9886 10.6354 37.3895 10.23 37.3895 9.72734" fill="#049FD9"/>
</svg>
