<svg width="72" height="24" viewBox="0 0 72 24" fill="none" xmlns="http://www.w3.org/2000/svg">
<g clip-path="url(#clip0_4070_6204)">
<path d="M20.6739 15.1084L18.5527 8.86621H19.6568C20.9593 12.7836 21.1329 13.3359 21.2694 13.824C21.3934 13.3745 21.5919 12.7708 22.944 8.86621H24.048L21.8276 15.1084H20.6739Z" fill="white"/>
<path d="M25.0898 15.1083V8.87891H26.1194V15.1083H25.0898Z" fill="white"/>
<path d="M38.1648 12.4881C38.1648 13.3358 38.0904 13.8752 37.8671 14.2734C37.5198 14.9028 36.7879 15.2495 35.7211 15.2495C34.7163 15.2495 33.972 14.9413 33.6247 14.2477C33.4138 13.8495 33.3394 13.2587 33.3394 12.5523V8.87891H34.3689V12.5266C34.3689 13.0404 34.4062 13.4 34.493 13.6312C34.6419 14.0294 35.014 14.3376 35.7707 14.3376C36.4281 14.3376 36.8251 14.1064 37.0236 13.6826C37.1228 13.4642 37.222 13.0532 37.222 12.5395V8.87891H38.1648V12.4881Z" fill="white"/>
<path d="M39.467 13.9136C39.926 14.1319 40.5214 14.3375 41.2161 14.3375C42.0348 14.3375 42.4566 14.0292 42.4566 13.4769C42.4566 13.053 42.3077 12.8219 41.5138 12.5393L40.6703 12.2439C39.7896 11.9356 39.3802 11.3962 39.3802 10.5099C39.3802 9.55947 40.0997 8.72461 41.6503 8.72461C42.2581 8.72461 42.8535 8.82736 43.3373 9.00718L43.114 9.89342C42.6178 9.72644 42.0224 9.61085 41.5262 9.61085C40.6951 9.61085 40.4594 10.0604 40.4594 10.4329C40.4594 10.8053 40.5711 11.0622 41.2657 11.2934L42.1093 11.6017C43.1388 11.9613 43.4986 12.5264 43.4986 13.3356C43.4986 14.3246 42.8411 15.2108 41.2161 15.2108C40.4594 15.2108 39.7275 15.031 39.2065 14.7742L39.467 13.9136Z" fill="white"/>
<path d="M46.3392 15.1083V9.85505H44.5405V8.87891H49.1799V9.85505H47.3812V15.1083H46.3392Z" fill="white"/>
<path d="M57.0941 15.1083V9.85505H55.2954V8.87891H59.9348V9.85505H58.1361V15.1083H57.0941Z" fill="white"/>
<path d="M52.1075 15.2369C50.3584 15.2369 49.2544 13.7213 49.2544 11.9231C49.2544 9.94513 50.3708 8.73779 52.2563 8.73779C54.0674 8.73779 55.0102 10.1892 55.0226 11.9231C55.035 13.7084 53.9434 15.2369 52.1075 15.2369ZM52.1819 9.63688C50.9911 9.63688 50.346 10.4075 50.346 11.936C50.346 13.7983 51.1275 14.3378 52.1571 14.3378C53.2239 14.3378 53.9434 13.6571 53.9434 11.9873C53.9682 10.5103 53.5588 9.63688 52.1819 9.63688Z" fill="white"/>
<path d="M59.7241 15.1084L62.0438 8.86621H63.2347L65.4923 15.1084H64.3883L63.7805 13.4772H61.436L60.8157 15.1213H59.7241V15.1084ZM63.5076 12.5653C62.9494 10.9598 62.7633 10.446 62.6392 10.0093C62.5028 10.4332 62.3415 10.9213 61.7213 12.5653H63.5076Z" fill="white"/>
<path d="M66.4849 15.1083V8.87891H67.6013V14.1706L70.6032 14.1321L70.6156 15.1083H66.4849Z" fill="white"/>
<path d="M1 5.75781L7.04111 12L1 18.2294H14.3351V5.75781H1ZM13.045 16.8936H4.03916L8.80259 12L4.03916 7.09359H13.045V16.8936Z" fill="white"/>
<path d="M30.8704 12.411C31.7636 12.1028 32.1109 11.4477 32.1109 10.6514C32.1109 9.79083 31.6767 9.25138 31.0441 9.04588C30.672 8.93028 30.1385 8.87891 29.6175 8.87891H27.7568V15.1211H28.7864V12.5651L29.1338 12.5395C29.5927 12.5395 29.816 12.5908 29.9153 12.578L31.2674 15.1083H32.4086L30.8704 12.411ZM30.5975 11.5633C30.3494 11.7046 29.9897 11.7431 29.5555 11.7431H28.7864V9.76514H29.5679C29.9773 9.76514 30.2874 9.77799 30.5231 9.8679C30.8456 9.99634 31.0193 10.2918 31.0193 10.7156C31.0069 11.1009 30.8704 11.4092 30.5975 11.5633Z" fill="white"/>
</g>
<defs>
<clipPath id="clip0_4070_6204">
<rect width="70" height="14" fill="white" transform="translate(1 5)"/>
</clipPath>
</defs>
</svg>
