<svg width="73" height="24" viewBox="0 0 73 24" fill="none" xmlns="http://www.w3.org/2000/svg">
<path d="M10.3642 5.00481L5.01514 8.09302V13.7211C5.01514 17.2951 9.89278 19.3924 10.0996 19.479L10.3642 19.5896L10.6239 19.479C10.6865 19.4549 11.1819 19.2385 11.8361 18.8585L10.3642 18.007V16.3282L13.183 17.9541C13.5486 17.6703 13.9094 17.3528 14.2461 16.9969L10.369 14.7553V13.0765L15.1312 15.8232C15.3573 15.4239 15.5304 14.9958 15.6315 14.5388L10.3738 11.5035V9.82473L15.7229 12.9129V11.34L10.3738 8.25176V6.57297L15.7229 9.66118V8.08821L10.3738 5L10.3642 5.00481Z" fill="white"/>
<path d="M21.5818 9.63672V13.153V15.818H20.7593V13.153V9.63672H21.5818Z" fill="white"/>
<path d="M25.2135 9.63672C25.9736 9.63672 26.4931 9.79065 26.7625 10.1033C27.0366 10.416 27.1713 10.7623 27.1761 11.152C27.1761 11.4791 27.0944 11.7629 26.9356 12.0034C26.7769 12.2439 26.5508 12.4219 26.2574 12.5373V12.5566C26.6374 12.6383 26.9308 12.8115 27.1328 13.0761C27.3349 13.3406 27.4359 13.6629 27.4359 14.0478C27.4359 14.5577 27.2579 14.9761 26.9019 15.3177C26.546 15.6544 26.1082 15.8228 25.5887 15.8228H22.5679V9.64153H25.2087L25.2135 9.63672ZM25.0837 12.292C25.4973 12.292 25.8148 12.215 26.0313 12.0611C26.2478 11.9072 26.3536 11.657 26.3536 11.3059C26.3536 10.9836 26.2622 10.7383 26.0794 10.5747C25.8966 10.4112 25.5695 10.3294 25.0885 10.3294H23.3904V12.292H25.0788H25.0837ZM25.4925 15.1205C25.8244 15.1205 26.0986 15.0243 26.3055 14.827C26.5123 14.6298 26.6181 14.3604 26.6181 14.0141C26.6181 13.3262 26.1612 12.9847 25.2424 12.9847H23.4001V15.1205H25.4925Z" fill="white"/>
<path d="M29.1871 9.63672L31.1353 14.8318L33.0883 9.63672H34.2139V15.818H33.4346V10.6757H33.4202L31.4865 15.818H30.789L28.8552 10.6757H28.8408V15.818H28.0615V9.63672H29.1871Z" fill="white"/>
<path d="M39.4906 9.49268C40.1881 9.49268 40.7413 9.66585 41.1502 10.0122C41.5591 10.3585 41.7659 10.8396 41.7659 11.4505H40.9867C40.8953 10.6087 40.3854 10.1854 39.4522 10.1854C39.0096 10.1854 38.6681 10.2768 38.4276 10.4595C38.1871 10.6423 38.0668 10.9021 38.0668 11.2436C38.0668 11.4553 38.1582 11.6429 38.3362 11.8064C38.5142 11.97 39.0866 12.148 40.0486 12.3452C40.7125 12.4799 41.2079 12.6867 41.535 12.9657C41.8621 13.2447 42.0257 13.6343 42.0257 14.1298C42.0257 14.707 41.79 15.1592 41.3138 15.4815C40.8423 15.8038 40.2699 15.9673 39.6109 15.977C38.8316 15.977 38.2111 15.7845 37.7493 15.3949C37.2875 15.0053 37.0566 14.4713 37.0566 13.7979H37.8359C37.8407 14.2789 38.0091 14.6445 38.341 14.8994C38.6729 15.1544 39.1058 15.2843 39.635 15.2843C40.1352 15.2843 40.5249 15.1881 40.7942 14.9957C41.0636 14.8032 41.2031 14.5242 41.2031 14.1587C41.2031 13.8604 41.0732 13.6199 40.8087 13.4419C40.5441 13.2688 40.0967 13.1196 39.4618 12.9946C38.5575 12.8166 37.961 12.5953 37.6724 12.3356C37.3886 12.0758 37.2442 11.7343 37.2442 11.3062C37.2442 10.7578 37.4511 10.32 37.86 9.99295C38.2688 9.66585 38.8124 9.49749 39.4858 9.49749" fill="white"/>
<path d="M44.6328 11.2387C45.2677 11.2387 45.7632 11.4648 46.1192 11.9218C46.4751 12.3787 46.6579 12.9752 46.6579 13.7112V13.7978H43.31V13.8507C43.31 14.2836 43.435 14.63 43.6803 14.8849C43.9305 15.1398 44.2672 15.2697 44.7001 15.2697C45.3399 15.2697 45.7295 14.9811 45.8594 14.3943H46.5858C46.4896 14.8945 46.2731 15.2745 45.9364 15.5343C45.5997 15.7892 45.1812 15.9191 44.6713 15.9191C43.969 15.9191 43.435 15.6882 43.0694 15.2264C42.7039 14.7646 42.5259 14.2067 42.5259 13.5476C42.5259 12.8886 42.7231 12.3306 43.1224 11.8929C43.5216 11.4552 44.0219 11.2339 44.628 11.2339M45.8738 13.1484C45.8498 12.7828 45.7199 12.4846 45.4794 12.2441C45.2389 12.0035 44.9406 11.8833 44.5751 11.8833C44.2335 11.8833 43.9449 11.9987 43.7092 12.2248C43.4735 12.4557 43.3388 12.7588 43.3003 13.1484H45.869H45.8738Z" fill="white"/>
<path d="M49.2314 11.2388C49.775 11.2388 50.2127 11.3686 50.5543 11.6236C50.8958 11.8785 51.0978 12.2634 51.1603 12.7781H50.4003C50.2753 12.1816 49.9049 11.8882 49.294 11.8882C48.837 11.8882 48.4906 12.0373 48.2549 12.3403C48.0192 12.6434 47.899 13.0763 47.899 13.6343C47.899 14.1249 48.0144 14.5194 48.2453 14.8176C48.4762 15.1159 48.7985 15.2698 49.2074 15.2698C49.5633 15.2698 49.8471 15.1736 50.054 14.986C50.2608 14.7984 50.3907 14.529 50.434 14.1827H51.1892C51.1074 14.7407 50.9006 15.1736 50.5639 15.4718C50.2272 15.7701 49.7798 15.9192 49.217 15.9192C48.5724 15.9192 48.0577 15.7172 47.6873 15.3083C47.3121 14.8994 47.1245 14.3414 47.1245 13.6343C47.1245 12.9272 47.3121 12.3115 47.6921 11.8833C48.0721 11.4552 48.5868 11.2388 49.2362 11.2388" fill="white"/>
<path d="M52.382 11.3447V14.3896C52.382 14.6493 52.4637 14.861 52.6225 15.0245C52.7812 15.1881 53.0073 15.2699 53.2911 15.2699C53.724 15.2699 54.0511 15.1448 54.2772 14.8898C54.5033 14.6349 54.6139 14.303 54.6139 13.8941V11.3398H55.3499V15.8134H54.6572V15.1063H54.638C54.3301 15.6499 53.8491 15.9192 53.1853 15.9192C52.1607 15.9192 51.646 15.3901 51.646 14.327V11.3398H52.382V11.3447Z" fill="white"/>
<path d="M58.4527 11.2388V12.018C57.8996 12.018 57.4907 12.1623 57.2261 12.4558C56.9616 12.7492 56.8317 13.2014 56.8317 13.8171V15.8182H56.0957V11.3446H56.7884V12.2874H56.8076C57.1492 11.5899 57.6639 11.2388 58.3469 11.2388H58.4527Z" fill="white"/>
<path d="M59.6266 9.64209V10.5416H58.8906V9.64209H59.6266ZM59.6266 11.3449V15.8185H58.8906V11.3449H59.6266Z" fill="white"/>
<path d="M61.6371 10.0024V11.3444H62.527V11.9938H61.6371V14.7982C61.6371 14.9329 61.6612 15.0243 61.7141 15.082C61.767 15.1398 61.8969 15.1686 62.1037 15.1686H62.527V15.818H61.9209C61.5409 15.818 61.2763 15.7555 61.1272 15.6256C60.9781 15.5005 60.9011 15.2504 60.9011 14.88V11.989H60.1411V11.3396H60.9011V9.99756H61.6371V10.0024Z" fill="white"/>
<path d="M63.6526 11.3447L64.961 15.0054H64.9802L66.2357 11.3447H67.015L65.1101 16.2945C64.9081 16.8333 64.7156 17.1844 64.528 17.3576C64.3404 17.526 64.0855 17.6125 63.7728 17.6125C63.5756 17.6125 63.4072 17.5885 63.2629 17.5356V16.8621C63.4698 16.9295 63.6141 16.968 63.6959 16.968C63.9989 16.968 64.2106 16.8188 64.3164 16.5206L64.6002 15.8039L62.8252 11.3543H63.6574L63.6526 11.3447Z" fill="white"/>
</svg>
