<svg width="72" height="24" viewBox="0 0 72 24" fill="none" xmlns="http://www.w3.org/2000/svg">
    <path d="M5.40075 8.64913C5.3767 8.61839 5.34495 8.59423 5.30855 8.57899C5.27215 8.56374 5.23234 8.55793 5.19297 8.56211C5.1536 8.56629 5.116 8.58031 5.08381 8.60284C5.05161 8.62536 5.02591 8.65562 5.00918 8.69069L3.02503 12.5661C3.00696 12.6014 2.99842 12.6406 3.00024 12.6801C3.00206 12.7195 3.01417 12.7579 3.03541 12.7915C3.05666 12.825 3.08635 12.8528 3.12165 12.872C3.15696 12.8912 3.19671 12.9013 3.23713 12.9013H5.99995C6.0442 12.9023 6.0878 12.8908 6.12545 12.868C6.1631 12.8453 6.19318 12.8124 6.21204 12.7733C6.80802 11.5702 6.44684 9.74096 5.40075 8.64913Z" fill="url(#paint0_linear_2715_365)"/>
    <path d="M6.85593 5.12432C6.36154 5.86746 6.07343 6.72339 6.01987 7.60813C5.96631 8.49288 6.14915 9.37602 6.55044 10.1709L7.88242 12.7733C7.90212 12.8118 7.93239 12.8441 7.96985 12.8668C8.00731 12.8894 8.05048 12.9014 8.09452 12.9014H10.8568C10.8973 12.9014 10.937 12.8913 10.9723 12.872C11.0076 12.8528 11.0373 12.8251 11.0586 12.7915C11.0798 12.7579 11.0919 12.7196 11.0937 12.6801C11.0955 12.6407 11.087 12.6014 11.0689 12.5661C11.0689 12.5661 7.35268 5.3045 7.25928 5.12287C7.24082 5.0859 7.21206 5.05476 7.17631 5.03303C7.14055 5.0113 7.09925 4.99985 7.05714 5C7.01503 5.00015 6.97382 5.0119 6.93823 5.03389C6.90264 5.05588 6.87412 5.08722 6.85593 5.12432Z" fill="#2684FF"/>
    <path d="M39.2565 8.23155C39.2565 9.19118 39.7122 9.95308 41.4946 10.2894C42.5581 10.5075 42.7808 10.6752 42.7808 11.0215C42.7808 11.3579 42.5576 11.5756 41.8086 11.5756C40.9033 11.5597 40.0161 11.3252 39.2261 10.893V12.456C39.7629 12.7132 40.4717 13.0002 41.7883 13.0002C43.6518 13.0002 44.3912 12.1884 44.3912 10.9819M44.3912 10.9819C44.3912 9.84415 43.7734 9.30981 42.0314 8.94388C41.0693 8.73608 40.8364 8.5284 40.8364 8.23155C40.8364 7.85593 41.1807 7.69733 41.8187 7.69733C42.5885 7.69733 43.348 7.92488 44.0671 8.24148V6.7475C43.3776 6.44095 42.6267 6.28885 41.8693 6.30234C40.1476 6.30234 39.2565 7.03442 39.2565 8.23155" fill="#0052CC"/>
    <path d="M63.1973 6.40137V12.9015H64.6151V7.94478L65.2127 9.26053L67.2179 12.9015H69.0004V6.40137H67.5826V10.5963L67.0457 9.37927L65.4354 6.40137H63.1973Z" fill="#0052CC"/>
    <path d="M54.1794 6.40137H52.6299V12.9015H54.1794V6.40137Z" fill="#0052CC"/>
    <path d="M50.8418 10.9819C50.8418 9.84415 50.224 9.30981 48.4821 8.94388C47.52 8.73608 47.2871 8.5284 47.2871 8.23155C47.2871 7.85593 47.6314 7.69733 48.2694 7.69733C49.0392 7.69733 49.7987 7.92488 50.5177 8.24148V6.7475C49.8283 6.44095 49.0774 6.28885 48.32 6.30234C46.5983 6.30234 45.7071 7.03442 45.7071 8.23155C45.7071 9.19118 46.1628 9.95308 47.9453 10.2894C49.0088 10.5075 49.2315 10.6752 49.2315 11.0215C49.2315 11.3579 49.0083 11.5756 48.2592 11.5756C47.3539 11.5597 46.4667 11.3252 45.6768 10.893V12.456C46.2136 12.7132 46.9224 13.0002 48.239 13.0002C50.1025 13.0002 50.8418 12.1884 50.8418 10.9819Z" fill="#0052CC"/>
    <path d="M27.2192 6.40137V12.9015H30.4041L30.9056 11.4965H28.7788V6.40137H27.2192Z" fill="#0052CC"/>
    <path d="M20.9272 6.40137V7.80617H22.6489V12.9015H24.2085V7.80617H26.0518V6.40137H20.9272Z" fill="#0052CC"/>
    <path d="M18.6655 6.40137H16.6215L14.3013 12.9015H16.0732L16.4021 11.8067C17.2122 12.0391 18.0737 12.0391 18.8838 11.8067L19.2127 12.9015H20.985L18.6655 6.40137ZM17.6434 10.6346C17.3548 10.6345 17.0677 10.5942 16.7907 10.5147L17.6434 7.6781L18.4962 10.5157C18.2192 10.5948 17.932 10.6349 17.6434 10.6346Z" fill="#0052CC"/>
    <path d="M35.8948 6.40137H33.851L31.5308 12.9015H33.3031L33.632 11.8067C34.4421 12.0391 35.3035 12.0391 36.1136 11.8067L36.4426 12.9015H38.2149L35.8948 6.40137ZM34.8729 10.6346C34.5843 10.6345 34.2972 10.5942 34.0202 10.5147L34.8729 7.6781L35.7257 10.5157C35.4487 10.5948 35.1615 10.6349 34.8729 10.6346Z" fill="#0052CC"/>
    <path d="M59.763 6.40137H57.7192L55.3989 12.9015H57.1712L57.5002 11.8067C58.3103 12.0391 59.1717 12.0391 59.9818 11.8067L60.3107 12.9015H62.0832L59.763 6.40137ZM58.7405 10.6346C58.4518 10.6345 58.1647 10.5942 57.8878 10.5147L58.7405 7.6781L59.5932 10.5157C59.3162 10.5948 59.0291 10.6349 58.7405 10.6346Z" fill="#0052CC"/>
    <path d="M21.1513 21.072C20.8113 21.072 20.5113 20.99 20.2513 20.826C19.9913 20.658 19.7873 20.422 19.6393 20.118C19.4953 19.81 19.4233 19.444 19.4233 19.02C19.4233 18.596 19.4953 18.234 19.6393 17.934C19.7873 17.634 19.9913 17.404 20.2513 17.244C20.5113 17.084 20.8113 17.004 21.1513 17.004C21.4953 17.004 21.7973 17.084 22.0573 17.244C22.3173 17.404 22.5193 17.634 22.6633 17.934C22.8113 18.234 22.8853 18.596 22.8853 19.02C22.8853 19.444 22.8113 19.81 22.6633 20.118C22.5193 20.422 22.3173 20.658 22.0573 20.826C21.7973 20.99 21.4953 21.072 21.1513 21.072ZM21.1513 20.466C21.4593 20.466 21.7053 20.336 21.8893 20.076C22.0733 19.812 22.1653 19.46 22.1653 19.02C22.1653 18.58 22.0733 18.236 21.8893 17.988C21.7053 17.736 21.4593 17.61 21.1513 17.61C20.8433 17.61 20.5973 17.736 20.4133 17.988C20.2293 18.236 20.1373 18.58 20.1373 19.02C20.1373 19.46 20.2293 19.812 20.4133 20.076C20.5973 20.336 20.8433 20.466 21.1513 20.466Z" fill="#727175"/>
    <path d="M23.7003 22.164V18.054H24.2703L24.3183 18.366H24.3423C24.4663 18.262 24.6043 18.172 24.7563 18.096C24.9123 18.02 25.0703 17.982 25.2303 17.982C25.5983 17.982 25.8823 18.118 26.0823 18.39C26.2863 18.662 26.3883 19.026 26.3883 19.482C26.3883 19.818 26.3283 20.106 26.2083 20.346C26.0883 20.582 25.9323 20.762 25.7403 20.886C25.5523 21.01 25.3483 21.072 25.1283 21.072C25.0003 21.072 24.8723 21.044 24.7443 20.988C24.6163 20.928 24.4923 20.848 24.3723 20.748L24.3903 21.24V22.164H23.7003ZM24.9843 20.502C25.1803 20.502 25.3443 20.416 25.4763 20.244C25.6083 20.072 25.6743 19.82 25.6743 19.488C25.6743 19.192 25.6243 18.962 25.5243 18.798C25.4243 18.634 25.2623 18.552 25.0383 18.552C24.8303 18.552 24.6143 18.662 24.3903 18.882V20.256C24.4983 20.344 24.6023 20.408 24.7023 20.448C24.8023 20.484 24.8963 20.502 24.9843 20.502Z" fill="#727175"/>
    <path d="M27.9756 21.072C27.7756 21.072 27.5756 21.034 27.3756 20.958C27.1756 20.878 27.0036 20.78 26.8596 20.664L27.1836 20.22C27.3156 20.32 27.4476 20.4 27.5796 20.46C27.7116 20.52 27.8516 20.55 27.9996 20.55C28.1596 20.55 28.2776 20.516 28.3536 20.448C28.4296 20.38 28.4676 20.296 28.4676 20.196C28.4676 20.112 28.4356 20.044 28.3716 19.992C28.3116 19.936 28.2336 19.888 28.1376 19.848C28.0416 19.804 27.9416 19.762 27.8376 19.722C27.7096 19.674 27.5816 19.616 27.4536 19.548C27.3296 19.476 27.2276 19.386 27.1476 19.278C27.0676 19.166 27.0276 19.028 27.0276 18.864C27.0276 18.604 27.1236 18.392 27.3156 18.228C27.5076 18.064 27.7676 17.982 28.0956 17.982C28.3036 17.982 28.4896 18.018 28.6536 18.09C28.8176 18.162 28.9596 18.244 29.0796 18.336L28.7616 18.756C28.6576 18.68 28.5516 18.62 28.4436 18.576C28.3396 18.528 28.2296 18.504 28.1136 18.504C27.9656 18.504 27.8556 18.536 27.7836 18.6C27.7116 18.66 27.6756 18.736 27.6756 18.828C27.6756 18.944 27.7356 19.032 27.8556 19.092C27.9756 19.152 28.1156 19.21 28.2756 19.266C28.4116 19.314 28.5436 19.374 28.6716 19.446C28.7996 19.514 28.9056 19.604 28.9896 19.716C29.0776 19.828 29.1216 19.976 29.1216 20.16C29.1216 20.412 29.0236 20.628 28.8276 20.808C28.6316 20.984 28.3476 21.072 27.9756 21.072Z" fill="#727175"/>
    <path d="M31.5316 21.072C31.1796 21.072 30.8636 20.994 30.5836 20.838C30.3036 20.682 30.0836 20.454 29.9236 20.154C29.7636 19.85 29.6836 19.482 29.6836 19.05C29.6836 18.622 29.7656 18.256 29.9296 17.952C30.0936 17.644 30.3156 17.41 30.5956 17.25C30.8756 17.086 31.1896 17.004 31.5376 17.004C31.8176 17.004 32.0536 17.056 32.2456 17.16C32.4416 17.26 32.6016 17.374 32.7256 17.502L32.3536 17.952C32.2536 17.856 32.1416 17.776 32.0176 17.712C31.8976 17.644 31.7456 17.61 31.5616 17.61C31.2136 17.61 30.9316 17.738 30.7156 17.994C30.5036 18.246 30.3976 18.592 30.3976 19.032C30.3976 19.48 30.4996 19.832 30.7036 20.088C30.9076 20.34 31.2056 20.466 31.5976 20.466C31.7096 20.466 31.8156 20.452 31.9156 20.424C32.0156 20.392 32.0976 20.348 32.1616 20.292V19.446H31.4176V18.876H32.7856V20.604C32.6536 20.736 32.4776 20.848 32.2576 20.94C32.0416 21.028 31.7996 21.072 31.5316 21.072Z" fill="#727175"/>
    <path d="M34.9452 21.072C34.6732 21.072 34.4272 21.012 34.2072 20.892C33.9872 20.768 33.8132 20.592 33.6852 20.364C33.5572 20.132 33.4932 19.854 33.4932 19.53C33.4932 19.21 33.5572 18.934 33.6852 18.702C33.8172 18.47 33.9872 18.292 34.1952 18.168C34.4032 18.044 34.6212 17.982 34.8492 17.982C35.1172 17.982 35.3412 18.042 35.5212 18.162C35.7012 18.278 35.8372 18.442 35.9292 18.654C36.0212 18.862 36.0672 19.104 36.0672 19.38C36.0672 19.524 36.0572 19.636 36.0372 19.716H34.1652C34.1972 19.976 34.2912 20.178 34.4472 20.322C34.6032 20.466 34.7992 20.538 35.0352 20.538C35.1632 20.538 35.2812 20.52 35.3892 20.484C35.5012 20.444 35.6112 20.39 35.7192 20.322L35.9532 20.754C35.8132 20.846 35.6572 20.922 35.4852 20.982C35.3132 21.042 35.1332 21.072 34.9452 21.072ZM34.1592 19.248H35.4672C35.4672 19.02 35.4172 18.842 35.3172 18.714C35.2172 18.582 35.0672 18.516 34.8672 18.516C34.6952 18.516 34.5412 18.58 34.4052 18.708C34.2732 18.832 34.1912 19.012 34.1592 19.248Z" fill="#727175"/>
    <path d="M36.8162 21V18.054H37.3862L37.4342 18.45H37.4582C37.5902 18.322 37.7342 18.212 37.8902 18.12C38.0462 18.028 38.2242 17.982 38.4242 17.982C38.7402 17.982 38.9702 18.084 39.1142 18.288C39.2582 18.492 39.3302 18.78 39.3302 19.152V21H38.6402V19.242C38.6402 18.998 38.6042 18.826 38.5322 18.726C38.4602 18.626 38.3422 18.576 38.1782 18.576C38.0502 18.576 37.9362 18.608 37.8362 18.672C37.7402 18.732 37.6302 18.822 37.5062 18.942V21H36.8162Z" fill="#727175"/>
    <path d="M40.2636 21V18.054H40.9536V21H40.2636ZM40.6116 17.538C40.4876 17.538 40.3876 17.502 40.3116 17.43C40.2356 17.358 40.1976 17.262 40.1976 17.142C40.1976 17.026 40.2356 16.932 40.3116 16.86C40.3876 16.788 40.4876 16.752 40.6116 16.752C40.7356 16.752 40.8356 16.788 40.9116 16.86C40.9876 16.932 41.0256 17.026 41.0256 17.142C41.0256 17.262 40.9876 17.358 40.9116 17.43C40.8356 17.502 40.7356 17.538 40.6116 17.538Z" fill="#727175"/>
    <path d="M43.1839 21.072C42.9119 21.072 42.6659 21.012 42.4459 20.892C42.2259 20.768 42.0519 20.592 41.9239 20.364C41.7959 20.132 41.7319 19.854 41.7319 19.53C41.7319 19.21 41.7959 18.934 41.9239 18.702C42.0559 18.47 42.2259 18.292 42.4339 18.168C42.6419 18.044 42.8599 17.982 43.0879 17.982C43.3559 17.982 43.5799 18.042 43.7599 18.162C43.9399 18.278 44.0759 18.442 44.1679 18.654C44.2599 18.862 44.3059 19.104 44.3059 19.38C44.3059 19.524 44.2959 19.636 44.2759 19.716H42.4039C42.4359 19.976 42.5299 20.178 42.6859 20.322C42.8419 20.466 43.0379 20.538 43.2739 20.538C43.4019 20.538 43.5199 20.52 43.6279 20.484C43.7399 20.444 43.8499 20.39 43.9579 20.322L44.1919 20.754C44.0519 20.846 43.8959 20.922 43.7239 20.982C43.5519 21.042 43.3719 21.072 43.1839 21.072ZM42.3979 19.248H43.7059C43.7059 19.02 43.6559 18.842 43.5559 18.714C43.4559 18.582 43.3059 18.516 43.1059 18.516C42.9339 18.516 42.7799 18.58 42.6439 18.708C42.5119 18.832 42.4299 19.012 42.3979 19.248Z" fill="#727175"/>
    <path d="M45.688 21L44.464 17.076H45.202L45.754 19.05C45.818 19.27 45.876 19.482 45.928 19.686C45.98 19.89 46.038 20.104 46.102 20.328H46.126C46.194 20.104 46.252 19.89 46.3 19.686C46.352 19.482 46.408 19.27 46.468 19.05L47.014 17.076H47.728L46.51 21H45.688Z" fill="#727175"/>
    <path d="M49.2348 21.072C48.9268 21.072 48.6668 21.02 48.4548 20.916C48.2468 20.808 48.0748 20.68 47.9388 20.532L48.2688 20.088C48.3848 20.204 48.5168 20.304 48.6648 20.388C48.8128 20.468 48.9828 20.508 49.1748 20.508C49.3828 20.508 49.5508 20.458 49.6788 20.358C49.8108 20.254 49.8768 20.112 49.8768 19.932C49.8768 19.8 49.8428 19.686 49.7748 19.59C49.7108 19.49 49.5968 19.414 49.4328 19.362C49.2728 19.31 49.0468 19.284 48.7548 19.284V18.78C49.1308 18.78 49.3908 18.722 49.5348 18.606C49.6788 18.49 49.7508 18.344 49.7508 18.168C49.7508 18.008 49.7008 17.884 49.6008 17.796C49.5008 17.704 49.3628 17.658 49.1868 17.658C49.0388 17.658 48.9028 17.692 48.7788 17.76C48.6548 17.824 48.5348 17.91 48.4188 18.018L48.0648 17.592C48.2288 17.448 48.4028 17.332 48.5868 17.244C48.7748 17.156 48.9828 17.112 49.2108 17.112C49.5788 17.112 49.8768 17.2 50.1048 17.376C50.3328 17.548 50.4468 17.796 50.4468 18.12C50.4468 18.332 50.3868 18.512 50.2668 18.66C50.1508 18.804 49.9888 18.916 49.7808 18.996V19.02C50.0048 19.08 50.1928 19.19 50.3448 19.35C50.4968 19.51 50.5728 19.716 50.5728 19.968C50.5728 20.2 50.5108 20.398 50.3868 20.562C50.2668 20.726 50.1048 20.852 49.9008 20.94C49.7008 21.028 49.4788 21.072 49.2348 21.072Z" fill="#727175"/>
    <defs>
        <linearGradient id="paint0_linear_2715_365" x1="6.48814" y1="9.2472" x2="4.4668" y2="12.8312" gradientUnits="userSpaceOnUse">
            <stop stop-color="#0052CC"/>
            <stop offset="0.923" stop-color="#2684FF"/>
        </linearGradient>
    </defs>
</svg>
