<svg width="120" height="50" viewBox="0 0 120 50" fill="none" xmlns="http://www.w3.org/2000/svg">
<path d="M37.6338 16.538C37.0728 15.84 35.9958 14.897 33.9738 14.897C30.8928 14.897 28.7588 17.37 28.7588 20.562C28.7588 23.754 30.7598 26.2229 34.0858 26.2229C35.5898 26.2229 37.0078 25.6399 37.7928 24.337H37.8398L38.1208 25.9529H40.3988V9.37895H35.9718V9.57695L36.8178 10.124C37.5878 10.61 37.7028 10.847 37.7028 11.531V16.541H37.6348L37.6338 16.538ZM37.7918 20.562C37.7918 22.246 36.6008 23.798 34.6248 23.798C32.6488 23.798 31.4578 22.247 31.4578 20.562C31.4578 18.877 32.6488 17.326 34.6248 17.326C36.6008 17.326 37.7918 18.877 37.7918 20.562ZM14.5058 15.167H18.6518V25.95H15.9558V17.47C15.9558 16.574 15.9058 16.433 14.9368 15.688L14.5048 15.342V15.166L14.5058 15.167ZM0.00783594 10.042V10.28L0.824836 10.975C1.80384 11.774 1.92984 11.925 1.92984 12.649V25.951H7.65984C10.6688 25.951 13.6808 24.875 13.6808 21.412C13.6808 19.368 12.2448 17.7949 10.2438 17.5719V17.529C11.8848 17.032 13.0078 15.841 13.0078 14.045C13.0078 11.148 10.5388 10.046 8.13084 10.046H2.31784H0.00683594L0.00783594 10.042ZM4.76284 12.471H7.09884C8.67884 12.471 9.16784 12.691 9.64684 13.144C10.0108 13.486 10.1798 13.965 10.1798 14.515C10.1798 15.03 10.0038 15.49 9.62884 15.847C9.16084 16.293 8.51684 16.516 7.34684 16.516H4.76284V12.471ZM4.76284 18.943H7.48384C9.77684 18.943 10.8528 19.53 10.8528 21.192C10.8528 23.28 8.83384 23.528 7.37284 23.528H4.76384L4.76284 18.943ZM24.7128 12.043V15.171H27.5958V17.464H24.7128V22.352C24.7128 24.299 26.0408 24.342 27.9198 23.792L28.0058 23.85L26.6668 25.995C24.4678 26.592 21.9988 25.955 21.9988 22.428V18.059C21.9988 17.361 21.8838 17.397 20.3688 16.151L19.3898 15.305V15.175H22.0098L22.9958 12.047H24.7088L24.7128 12.043ZM17.2808 13.123C16.2908 13.123 15.5748 12.36 15.5748 11.507C15.5748 10.654 16.2908 9.88695 17.2808 9.88695C18.2708 9.88695 19.0338 10.585 19.0338 11.507C19.0338 12.429 18.2708 13.123 17.2808 13.123ZM47.6138 14.897C44.3528 14.897 41.9808 17.168 41.9808 20.562C41.9808 23.956 44.4788 26.2229 48.0848 26.2229C49.1398 26.2229 50.1218 26.039 50.9638 25.69L52.5008 23.127L52.2958 23.023C50.9748 23.714 49.5818 24.07 48.3258 24.07C46.4688 24.07 44.8598 23.1229 44.6758 21.511H52.8998V20.766C52.8998 17.016 50.6218 14.903 47.6128 14.903L47.6138 14.897ZM44.6738 19.49C44.8758 17.9349 45.8648 16.927 47.4628 16.927C49.1468 16.927 50.1798 17.917 50.2058 19.49H44.6738ZM118.607 24.4209C118.672 24.3919 118.729 24.353 118.78 24.306C118.83 24.2559 118.87 24.198 118.899 24.126C118.928 24.054 118.942 23.975 118.942 23.878C118.942 23.684 118.884 23.536 118.773 23.432C118.662 23.328 118.481 23.277 118.237 23.277H117.409V25.44H117.675V24.479H118.125L118.733 25.44H119.046L118.402 24.479C118.478 24.468 118.546 24.443 118.611 24.418L118.607 24.4209ZM118.028 24.251H117.675V23.499H118.164C118.229 23.499 118.294 23.5059 118.355 23.5129C118.416 23.5199 118.47 23.542 118.521 23.571C118.568 23.6 118.607 23.636 118.636 23.683C118.665 23.7299 118.679 23.7909 118.679 23.87C118.679 23.964 118.661 24.032 118.625 24.086C118.589 24.136 118.539 24.176 118.477 24.198C118.416 24.2229 118.344 24.234 118.265 24.241C118.189 24.248 118.107 24.248 118.027 24.248L118.028 24.251ZM103.628 14.894C100.371 14.894 97.9988 17.165 97.9988 20.559C97.9988 23.953 100.497 26.2199 104.1 26.2199C105.155 26.2199 106.141 26.036 106.979 25.687L108.516 23.124L108.311 23.02C106.994 23.711 105.597 24.067 104.345 24.067C102.484 24.067 100.879 23.12 100.695 21.508H108.919C109.272 17.283 107.004 14.9 103.628 14.9V14.894ZM100.694 19.486C100.896 17.931 101.885 16.923 103.48 16.923C105.168 16.923 106.201 17.913 106.223 19.486H100.694ZM119.421 23.028C119.255 22.859 119.054 22.726 118.827 22.632C118.597 22.538 118.352 22.488 118.086 22.488C117.82 22.488 117.575 22.535 117.345 22.632C117.118 22.729 116.92 22.859 116.751 23.028C116.582 23.1969 116.452 23.3949 116.355 23.622C116.261 23.8519 116.215 24.097 116.215 24.36C116.215 24.6229 116.262 24.871 116.355 25.094C116.452 25.3209 116.582 25.5189 116.751 25.688C116.92 25.857 117.118 25.9869 117.345 26.08C117.575 26.177 117.82 26.224 118.086 26.224C118.352 26.224 118.597 26.177 118.827 26.08C119.054 25.986 119.252 25.853 119.421 25.688C119.59 25.5189 119.72 25.325 119.817 25.094C119.914 24.867 119.961 24.622 119.961 24.36C119.961 24.0979 119.914 23.853 119.817 23.622C119.723 23.3949 119.59 23.1969 119.421 23.028ZM119.547 24.986C119.468 25.18 119.356 25.35 119.216 25.493C119.076 25.636 118.91 25.7519 118.716 25.8349C118.522 25.9179 118.313 25.961 118.09 25.961C117.867 25.961 117.651 25.9179 117.457 25.8349C117.266 25.7519 117.097 25.6369 116.957 25.493C116.817 25.349 116.705 25.18 116.626 24.986C116.547 24.792 116.507 24.5829 116.507 24.36C116.507 24.137 116.547 23.9249 116.626 23.7299C116.705 23.5359 116.817 23.3659 116.957 23.2229C117.097 23.08 117.263 22.964 117.457 22.8809C117.651 22.7949 117.86 22.755 118.09 22.755C118.32 22.755 118.522 22.7979 118.716 22.8809C118.907 22.964 119.076 23.0789 119.216 23.2229C119.356 23.367 119.468 23.5359 119.547 23.7299C119.63 23.924 119.669 24.1329 119.669 24.36C119.669 24.587 119.629 24.792 119.547 24.986ZM113.36 15.167V16.88H113.407C113.99 15.642 115.178 14.9 116.596 14.9C116.931 14.9 117.247 14.968 117.564 15.058V17.6639C117.114 17.5519 116.686 17.462 116.261 17.462C113.724 17.462 113.364 19.596 113.364 20.183V25.9559H110.665V17.984C110.665 16.624 110.593 16.426 109.499 15.727L108.822 15.281L108.815 15.162H113.364L113.36 15.167ZM61.0278 9.19995L61.6538 11.482L61.5278 11.59C59.3678 10.741 57.6948 11.284 57.6948 13.17V15.128H60.1998V17.428H57.6948V25.954H54.9878V18.356C54.9878 17.449 54.8078 17.2509 53.7318 16.402L52.3608 15.286V15.12H54.9878V13.151C54.9878 10.221 56.8958 8.36795 61.0308 9.19595L61.0278 9.19995ZM65.9628 14.894C62.7018 14.894 60.3298 17.165 60.3298 20.559C60.3298 23.953 62.8278 26.2199 66.4338 26.2199C67.4848 26.2199 68.4708 26.036 69.3128 25.687L70.8498 23.124L70.6448 23.02C69.3238 23.711 67.9308 24.067 66.6748 24.067C64.8138 24.067 63.2128 23.12 63.0288 21.508H71.2488C71.6048 17.283 69.3378 14.9 65.9618 14.9L65.9628 14.894ZM63.0258 19.486C63.2238 17.931 64.2168 16.923 65.8118 16.923C67.4958 16.923 68.5288 17.913 68.5508 19.486H63.0258ZM93.6688 16.542C93.1078 15.844 92.0308 14.901 90.0088 14.901C86.9318 14.901 84.7968 17.374 84.7968 20.566C84.7968 23.7579 86.7948 26.2269 90.1198 26.2269C91.6278 26.2269 93.0418 25.6439 93.8308 24.341H93.8738L94.1578 25.957H96.4358V9.37895H91.9048V9.57695L92.2788 9.82495C93.5778 10.642 93.7398 10.883 93.7398 12.29V16.537H93.6718L93.6688 16.542ZM93.8268 20.566C93.8268 22.25 92.6358 23.802 90.6558 23.802C88.6758 23.802 87.4888 22.2509 87.4888 20.566C87.4888 18.881 88.6798 17.33 90.6558 17.33C92.6318 17.33 93.8268 18.881 93.8268 20.566ZM73.4598 15.167L75.7598 15.171V16.816H75.8028C76.6918 15.495 78.0378 14.901 79.2368 14.901C81.7848 14.901 83.2498 16.647 83.2498 19.148V25.958H80.5538V19.955C80.5538 18.767 80.2548 17.328 78.3658 17.328C76.5918 17.328 75.8968 18.631 75.8968 20.067V25.955H73.2008V17.987C73.2008 16.627 73.1288 16.429 72.0308 15.73L71.3578 15.284V15.165H73.4638L73.4598 15.167Z" fill="white" fill-opacity="0.9"/>
<path d="M6.07605 38.101H6.04005C5.92805 38.742 5.30605 39.231 4.31605 39.231C2.77205 39.231 1.60205 38.054 1.60205 35.851C1.60205 33.648 2.77905 32.432 4.53205 32.432C5.69805 32.432 6.54805 32.968 7.01905 33.929L6.01105 34.523C5.77705 33.958 5.31305 33.533 4.53205 33.533C3.56005 33.533 2.92005 34.145 2.92005 35.304V36.359C2.92005 37.507 3.56105 38.13 4.55005 38.13C5.32405 38.13 5.95405 37.752 5.95405 37.011V36.586H4.66605V35.542H7.15305V39.12H6.08005V38.101H6.07605Z" fill="white" fill-opacity="0.9"/>
<path d="M8.51718 39.119V34.203H9.72318V35.222H9.77018C9.89218 34.704 10.2882 34.203 11.0692 34.203H11.3322V35.344H10.9542C10.1442 35.344 9.71918 35.571 9.71918 36.107V39.119H8.51318H8.51718Z" fill="white" fill-opacity="0.9"/>
<path d="M11.7671 37.781C11.7671 36.773 12.5301 36.273 13.8691 36.273H14.7081V35.917C14.7081 35.37 14.4341 35.05 13.7941 35.05C13.2291 35.05 12.9091 35.331 12.6751 35.673L11.9591 35.032C12.3151 34.467 12.8911 34.089 13.8811 34.089C15.2091 34.089 15.9151 34.719 15.9151 35.842V38.16H16.4041V39.121H15.7351C15.2171 39.121 14.8961 38.783 14.8211 38.272H14.7631C14.6051 38.902 14.0651 39.233 13.3311 39.233C12.3341 39.233 11.7691 38.657 11.7691 37.783L11.7671 37.781ZM14.7041 37.647V36.996H13.9301C13.3001 36.996 12.9871 37.212 12.9871 37.597V37.759C12.9871 38.155 13.2611 38.353 13.7321 38.353C14.2681 38.353 14.7041 38.108 14.7041 37.648V37.647Z" fill="white" fill-opacity="0.9"/>
<path d="M18.3528 39.119L16.7148 34.203H17.9028L18.5898 36.323L19.0688 38.076H19.1338L19.6128 36.323L20.2818 34.203H21.4298L19.7818 39.119H18.3498H18.3528Z" fill="white" fill-opacity="0.9"/>
<path d="M22.1289 32.886V32.699C22.1289 32.35 22.3379 32.098 22.8339 32.098C23.3299 32.098 23.5389 32.354 23.5389 32.699V32.886C23.5389 33.235 23.3229 33.487 22.8339 33.487C22.3449 33.487 22.1289 33.231 22.1289 32.886ZM22.2329 34.203H23.4389V39.119H22.2329V34.203Z" fill="white" fill-opacity="0.9"/>
<path d="M25.0981 37.8671V35.1641H24.3711V34.2031H24.7491C25.1051 34.2031 25.2201 34.0341 25.2201 33.6961V32.8571H26.3031V34.2031H27.3111V35.1641H26.3031V38.1581H27.2351V39.1191H26.3681C25.5401 39.1191 25.0981 38.6651 25.0981 37.8661V37.8671Z" fill="white" fill-opacity="0.9"/>
<path d="M31.3712 34.203H32.5012L30.5212 39.994C30.2762 40.699 29.9272 41.002 29.1172 41.002H28.3902V40.041H29.2752L29.5022 39.354L27.7422 34.204H28.9372L29.7942 36.803L30.1142 38.045H30.1722L30.5102 36.803L31.3672 34.204L31.3712 34.203Z" fill="white" fill-opacity="0.9"/>
<path d="M37.8782 39.1189H32.9512V38.0069L36.3522 33.6449H33.1202V32.5439H37.7812V33.6559L34.3732 38.0179H37.8752V39.1189H37.8782Z" fill="white" fill-opacity="0.9"/>
<path d="M38.5591 36.65C38.5591 35.077 39.4341 34.087 40.8371 34.087C42.2401 34.087 43.1261 35.077 43.1261 36.65C43.1261 38.223 42.2511 39.231 40.8371 39.231C39.4231 39.231 38.5591 38.234 38.5591 36.65ZM41.8661 37.111V36.197C41.8661 35.463 41.4701 35.056 40.8401 35.056C40.2101 35.056 39.8211 35.463 39.8211 36.197V37.111C39.8211 37.856 40.2171 38.259 40.8401 38.259C41.4631 38.259 41.8661 37.856 41.8661 37.111Z" fill="white" fill-opacity="0.9"/>
<path d="M44.1909 39.119V34.203H45.3969V35.024H45.4439C45.6419 34.495 46.0559 34.092 46.8189 34.092C47.8269 34.092 48.3919 34.79 48.3919 36.014V39.124H47.1859V36.137C47.1859 35.439 46.9519 35.082 46.3759 35.082C45.8759 35.082 45.3969 35.345 45.3969 35.874V39.124H44.1909V39.119Z" fill="white" fill-opacity="0.9"/>
<path d="M49.4029 36.65C49.4029 35.095 50.2419 34.087 51.6809 34.087C53.2179 34.087 53.9229 35.217 53.9229 36.563V36.959H50.6549V37.081C50.6549 37.786 51.0619 38.269 51.8499 38.269C52.4439 38.269 52.7999 37.985 53.1019 37.6L53.7529 38.327C53.3499 38.881 52.6339 39.23 51.7189 39.23C50.2689 39.23 49.4009 38.222 49.4009 36.649L49.4029 36.65ZM50.6549 36.143V36.219H52.6709V36.133C52.6709 35.456 52.3219 34.992 51.6989 34.992C51.0759 34.992 50.6549 35.463 50.6549 36.14V36.143Z" fill="white" fill-opacity="0.9"/>
</svg>
