<svg width="72" height="24" viewBox="0 0 72 24" fill="none" xmlns="http://www.w3.org/2000/svg">
    <g clip-path="url(#clip0_2715_148)">
        <path d="M18.0348 5.00122H18.4705C19.9833 5.03412 21.4714 5.64275 22.5402 6.7202C22.1455 7.12321 21.7427 7.50977 21.3563 7.91279C20.7561 7.36995 20.0326 6.95049 19.2434 6.80244C18.0759 6.5557 16.818 6.77777 15.8397 7.44398C14.7709 8.14308 14.0474 9.32745 13.8912 10.5941C13.7185 11.8442 14.0721 13.1602 14.886 14.1307C15.667 15.0766 16.8591 15.6687 18.0924 15.7099C19.2434 15.7757 20.4437 15.422 21.2823 14.616C21.94 14.0485 22.2442 13.1849 22.3429 12.3459C20.9781 12.3459 19.6133 12.3542 18.2486 12.3459V10.6516H23.9954C24.2913 12.4693 23.8638 14.5173 22.4826 15.8168C21.5618 16.738 20.2875 17.2808 18.9885 17.3877C17.7306 17.5111 16.4316 17.2726 15.3135 16.6639C13.9734 15.9484 12.9046 14.7393 12.3784 13.3165C11.8851 12.0087 11.8769 10.5283 12.3373 9.2123C12.7566 8.01149 13.5623 6.95049 14.5982 6.21026C15.593 5.47826 16.8016 5.07524 18.0348 5.00122Z" fill="#3780FF"/>
        <path d="M51.0029 5.4292H52.7623V17.1742C52.1786 17.1742 51.5867 17.1824 51.0029 17.1659C51.0112 13.2592 51.0029 9.34419 51.0029 5.4292Z" fill="#38B137"/>
        <path d="M27.9088 9.50045C28.994 9.29483 30.1697 9.52512 31.0658 10.1749C31.8797 10.7506 32.447 11.6553 32.6197 12.6423C32.8416 13.7856 32.5621 15.0357 31.8222 15.9404C31.0247 16.9521 29.7175 17.4949 28.4432 17.4127C27.2757 17.3469 26.1411 16.7629 25.4505 15.8088C24.6695 14.7561 24.4804 13.3085 24.9079 12.0748C25.3354 10.7506 26.544 9.73897 27.9088 9.50045ZM28.1554 11.0632C27.7114 11.1783 27.3004 11.4333 27.0044 11.7952C26.2069 12.7492 26.2562 14.3037 27.1359 15.192C27.6374 15.7019 28.3938 15.9404 29.0926 15.8006C29.7421 15.6855 30.3094 15.2496 30.6218 14.6738C31.1645 13.6951 31.0083 12.3462 30.1779 11.5813C29.6435 11.0878 28.8624 10.8822 28.1554 11.0632Z" fill="#FA3913"/>
        <path d="M36.6235 9.50032C37.8649 9.2618 39.2214 9.60724 40.1505 10.4791C41.6632 11.8362 41.8277 14.3776 40.5369 15.9403C39.7558 16.9273 38.4897 17.4701 37.2401 17.4125C36.048 17.3796 34.8723 16.7875 34.1652 15.8087C33.3678 14.7313 33.1951 13.2508 33.6473 11.9924C34.0995 10.7094 35.2834 9.73062 36.6235 9.50032ZM36.8701 11.063C36.4261 11.1782 36.0151 11.4331 35.7191 11.7868C34.9298 12.7244 34.9627 14.2542 35.8095 15.1507C36.311 15.6853 37.0921 15.9485 37.8156 15.8005C38.4568 15.6771 39.0324 15.2494 39.3448 14.6737C39.8792 13.6867 39.723 12.3379 38.8844 11.573C38.35 11.0795 37.5689 10.8821 36.8701 11.063Z" fill="#FCBD06"/>
        <path d="M44.0144 9.97737C44.9599 9.38519 46.2178 9.22069 47.2372 9.73063C47.5579 9.87045 47.821 10.109 48.0758 10.3475C48.084 10.1254 48.0758 9.89512 48.084 9.66483C48.6349 9.67305 49.1857 9.66483 49.7448 9.67305V16.9273C49.7366 18.0212 49.457 19.1809 48.6678 19.9787C47.8045 20.8587 46.4809 21.1302 45.2887 20.9492C44.0144 20.76 42.9045 19.8306 42.4112 18.6545C42.9045 18.416 43.4225 18.2268 43.9322 18.0047C44.22 18.6792 44.8037 19.2549 45.5354 19.3865C46.2671 19.5181 47.1139 19.3372 47.5908 18.7285C48.1005 18.1034 48.1005 17.2481 48.0758 16.4832C47.6976 16.8533 47.2619 17.1823 46.7357 17.3056C45.5929 17.6264 44.3351 17.2316 43.4554 16.4585C42.5674 15.6854 42.0413 14.4928 42.0906 13.3084C42.1153 11.9678 42.8716 10.6765 44.0144 9.97737ZM45.7163 11.0301C45.2148 11.1124 44.7461 11.392 44.4255 11.7786C43.6527 12.6998 43.6527 14.172 44.4337 15.0767C44.8777 15.6113 45.5929 15.9074 46.2835 15.8334C46.933 15.7676 47.5332 15.3564 47.8538 14.7889C48.3965 13.8266 48.306 12.5188 47.5743 11.6799C47.1221 11.1617 46.3986 10.9068 45.7163 11.0301Z" fill="#3780FF"/>
        <path d="M54.875 10.3968C55.8615 9.47567 57.3825 9.16313 58.6486 9.64839C59.849 10.1007 60.6136 11.244 61 12.4201C59.2159 13.1604 57.4401 13.8924 55.656 14.6326C55.9026 15.1014 56.2808 15.5291 56.7906 15.7018C57.5058 15.9568 58.3609 15.8663 58.961 15.3893C59.1995 15.2083 59.3886 14.9698 59.5694 14.7395C60.0216 15.0438 60.4738 15.3399 60.926 15.6442C60.2847 16.6065 59.2077 17.281 58.0485 17.3879C56.7659 17.5442 55.4011 17.0507 54.5708 16.0473C53.206 14.4681 53.3375 11.8197 54.875 10.3968ZM55.7547 11.9184C55.4751 12.3214 55.36 12.8149 55.3683 13.3002C56.5604 12.8067 57.7525 12.3132 58.9446 11.8115C58.7473 11.3509 58.2704 11.0713 57.7854 10.9972C57.0043 10.8574 56.1904 11.2769 55.7547 11.9184Z" fill="#FA3913"/>
    </g>
    <defs>
        <clipPath id="clip0_2715_148">
            <rect width="49" height="16" fill="white" transform="translate(12 5)"/>
        </clipPath>
    </defs>
</svg>
