<svg width="72" height="24" viewBox="0 0 72 24" fill="none" xmlns="http://www.w3.org/2000/svg">
    <g clip-path="url(#clip0_2660_850)">
        <path fill-rule="evenodd" clip-rule="evenodd" d="M17.4664 9.51502C16.7473 9.51334 16.0503 9.76639 15.4974 10.23V9.58762H13.7012V16.6425H15.5694V12.1325C15.7701 11.8693 16.0265 11.6543 16.3198 11.5033C16.613 11.3522 16.936 11.2688 17.2652 11.2591C17.52 11.2459 17.7748 11.2844 18.0146 11.3724V9.56342C17.8336 9.53141 17.6502 9.51521 17.4664 9.51502Z" fill="black"/>
        <path fill-rule="evenodd" clip-rule="evenodd" d="M1.1784 14.4898C1.71184 14.9446 2.38894 15.1921 3.08749 15.1877C3.5904 15.1877 3.97822 14.9402 3.97822 14.5915C3.97822 13.5295 0.601313 13.9079 0.601313 11.6386C0.601313 10.2861 1.89459 9.44244 3.27404 9.44244C4.11172 9.44476 4.93057 9.69323 5.6304 10.1574L4.75659 11.522C4.3709 11.2269 3.90409 11.0593 3.42022 11.0424C2.90313 11.0424 2.47168 11.2459 2.47168 11.6094C2.47168 12.5257 5.84913 12.1622 5.84913 14.6058C5.84913 15.9588 4.54004 16.7877 3.07549 16.7877C2.06635 16.7778 1.08587 16.448 0.272949 15.845L1.1784 14.4898Z" fill="black"/>
        <path fill-rule="evenodd" clip-rule="evenodd" d="M12.9038 13.0493C12.9038 11.0858 11.5402 9.44244 9.61254 9.44244C7.54309 9.44244 6.22091 11.1584 6.22091 13.1225C6.20038 13.6108 6.28092 14.0981 6.4574 14.5532C6.63389 15.0084 6.90244 15.4216 7.24597 15.7664C7.5895 16.1112 8.00047 16.38 8.45272 16.5559C8.90496 16.7317 9.38856 16.8107 9.87273 16.7877C10.4113 16.7948 10.9452 16.6856 11.4385 16.4675C11.9318 16.2493 12.373 15.9271 12.7325 15.5227L11.6689 14.4463C11.4462 14.6942 11.1761 14.8941 10.8748 15.034C10.5736 15.174 10.2474 15.2512 9.91582 15.2609C9.44994 15.2762 8.99579 15.1119 8.64579 14.8015C8.29579 14.4911 8.07624 14.0579 8.03182 13.59H12.8607C12.8905 13.4114 12.9049 13.2305 12.9038 13.0493ZM8.118 12.2062C8.18503 11.8567 8.3711 11.5419 8.64402 11.3161C8.91694 11.0903 9.25953 10.9678 9.61254 10.9698C9.95265 10.9703 10.2808 11.0964 10.535 11.3241C10.7893 11.5519 10.952 11.8657 10.9925 12.2062H8.118Z" fill="black"/>
        <path fill-rule="evenodd" clip-rule="evenodd" d="M22.4672 13.893L24.3784 9.58765H26.3192L23.1141 16.6425H21.8208L18.6157 9.58765H20.5559L22.4672 13.893Z" fill="black"/>
        <path fill-rule="evenodd" clip-rule="evenodd" d="M27.8878 6.27498C28.1242 6.27931 28.354 6.35395 28.5485 6.48951C28.7429 6.62507 28.8933 6.81553 28.9808 7.03697C29.0683 7.25842 29.089 7.50099 29.0402 7.73424C28.9915 7.96749 28.8755 8.18102 28.7069 8.34805C28.5382 8.51508 28.3244 8.62816 28.0922 8.67309C27.8601 8.71802 27.6199 8.69281 27.4019 8.60062C27.1839 8.50842 26.9978 8.35336 26.8668 8.15488C26.7359 7.9564 26.6661 7.72335 26.666 7.48498C26.666 7.32421 26.6977 7.16505 26.7594 7.01679C26.8211 6.86854 26.9114 6.73416 27.0252 6.62151C27.1389 6.50886 27.2738 6.42019 27.4219 6.36069C27.57 6.3012 27.7284 6.27206 27.8878 6.27498Z" fill="black"/>
        <path d="M28.8218 9.58765H26.9536V16.6425H28.8218V9.58765Z" fill="black"/>
        <path fill-rule="evenodd" clip-rule="evenodd" d="M36.5456 15.202C36.1918 15.712 35.7169 16.1244 35.1642 16.4014C34.6115 16.6784 33.9987 16.8112 33.382 16.7877C32.8953 16.8001 32.411 16.7141 31.9579 16.5346C31.5047 16.3552 31.0918 16.086 30.7435 15.743C30.3952 15.3999 30.1187 14.99 29.9302 14.5374C29.7417 14.0847 29.6451 13.5986 29.646 13.1077C29.647 12.6168 29.7455 12.131 29.9357 11.6792C30.126 11.2273 30.4041 10.8184 30.7537 10.4768C31.1033 10.1351 31.5172 9.86752 31.9711 9.68986C32.4249 9.51221 32.9095 9.42808 33.3961 9.44243C33.9589 9.4382 34.5153 9.56299 35.0232 9.80739C35.5311 10.0518 35.9772 10.4094 36.328 10.8532L35.0058 12.0313C34.8214 11.7737 34.5798 11.5633 34.3003 11.4168C34.0208 11.2703 33.7111 11.1918 33.3961 11.1876C33.1457 11.1865 32.8976 11.2362 32.6665 11.3336C32.4354 11.4309 32.226 11.5741 32.0508 11.7545C31.8755 11.9349 31.7379 12.1489 31.6462 12.3839C31.5544 12.6189 31.5103 12.87 31.5165 13.1225C31.5082 13.3787 31.5525 13.6339 31.6467 13.8721C31.7408 14.1103 31.8828 14.3263 32.0636 14.5065C32.2445 14.6867 32.4603 14.8273 32.6976 14.9195C32.9349 15.0116 33.1885 15.0533 33.4425 15.042C33.7745 15.0353 34.0998 14.9471 34.3903 14.7849C34.6808 14.6227 34.9276 14.3915 35.1094 14.1114L36.5456 15.202Z" fill="black"/>
        <path fill-rule="evenodd" clip-rule="evenodd" d="M43.332 15.5221C42.9725 15.9266 42.5312 16.2488 42.0379 16.467C41.5447 16.6851 41.0108 16.7943 40.4722 16.7871C39.9881 16.8099 39.5047 16.7307 39.0527 16.5548C38.6006 16.3789 38.1898 16.1099 37.8465 15.7652C37.5031 15.4204 37.2347 15.0074 37.0583 14.5523C36.882 14.0972 36.8015 13.6101 36.822 13.1219C36.822 11.1579 38.1442 9.44189 40.2136 9.44189C42.1391 9.44189 43.5043 11.0853 43.5043 13.0488C43.5055 13.2292 43.4911 13.4094 43.4612 13.5872H38.6323C38.6764 14.0552 38.8956 14.4887 39.2454 14.7994C39.5952 15.1101 40.0493 15.2748 40.5152 15.2598C40.8469 15.25 41.1731 15.1728 41.4744 15.0328C41.7758 14.8928 42.046 14.693 42.2689 14.4452L43.332 15.5221ZM41.5931 12.2062C41.5527 11.8657 41.39 11.552 41.1359 11.3242C40.8817 11.0964 40.5537 10.9703 40.2136 10.9698C39.8606 10.9677 39.5179 11.0902 39.245 11.3159C38.972 11.5417 38.786 11.8567 38.7191 12.2062H41.5931Z" fill="black"/>
        <path fill-rule="evenodd" clip-rule="evenodd" d="M44.2471 16.6425V9.58766H46.0433V10.1547C46.5965 9.69215 47.2931 9.44008 48.0118 9.44246C48.4722 9.44116 48.9273 9.54216 49.3446 9.73826C49.762 9.93437 50.1314 10.2208 50.4265 10.5771C50.9639 11.2828 51.2201 12.1656 51.1449 13.0521V16.6425H49.2767V12.9025C49.3029 12.6647 49.2794 12.424 49.2076 12.196C49.1358 11.968 49.0174 11.7577 48.86 11.5787C48.5755 11.3132 48.1984 11.172 47.8111 11.186C47.4819 11.1957 47.1591 11.2791 46.8658 11.4301C46.5725 11.581 46.3162 11.7958 46.1152 12.0588V16.6425H44.2471Z" fill="black"/>
        <path fill-rule="evenodd" clip-rule="evenodd" d="M55.9559 9.44245C55.1362 9.44072 54.3349 9.68732 53.6559 10.1503C52.9769 10.6132 52.4514 11.2712 52.1477 12.0389C51.8439 12.8065 51.7759 13.6485 51.9524 14.4556C52.1289 15.2628 52.5418 15.9978 53.1375 16.5655C53.2773 16.6997 53.46 16.779 53.6527 16.7891C53.8454 16.7991 54.0353 16.7393 54.1881 16.6205C54.6921 16.2423 55.3036 16.038 55.9319 16.038C56.5602 16.038 57.1717 16.2423 57.6757 16.6205C57.8299 16.7396 58.0215 16.7989 58.2154 16.7875C58.4094 16.7761 58.5928 16.6947 58.7323 16.5583C59.3233 15.9928 59.7334 15.2621 59.91 14.46C60.0866 13.6578 60.0215 12.8208 59.7233 12.0562C59.425 11.2916 58.907 10.6342 58.2358 10.1683C57.5646 9.70244 56.7707 9.4493 55.9559 9.44135M55.9319 15.625C55.6625 15.6323 55.3944 15.5843 55.1441 15.4837C54.8937 15.3831 54.6663 15.2322 54.4757 15.04C54.2851 14.8479 54.1353 14.6186 54.0355 14.3662C53.9357 14.1138 53.888 13.8435 53.8952 13.5718C53.8952 13.0272 54.1097 12.5048 54.4917 12.1197C54.8737 11.7345 55.3917 11.5181 55.9319 11.5181C56.4721 11.5181 56.9901 11.7345 57.3721 12.1197C57.754 12.5048 57.9686 13.0272 57.9686 13.5718C57.9758 13.8435 57.9281 14.1138 57.8283 14.3662C57.7285 14.6186 57.5787 14.8479 57.3881 15.04C57.1975 15.2322 56.9701 15.3831 56.7197 15.4837C56.4694 15.5843 56.2013 15.6323 55.9319 15.625Z" fill="#62D84E"/>
        <path fill-rule="evenodd" clip-rule="evenodd" d="M63.7023 16.6425H62.3109L59.5361 9.58765H61.4016L62.9229 13.6191L64.4147 9.58765H65.9736L67.4518 13.6191L68.9861 9.58765H70.8521L68.0774 16.6425H66.686L65.1941 12.6253L63.7023 16.6425Z" fill="black"/>
        <path d="M70.8739 15.845H70.7162V16.1437H70.582V15.3264H70.9093C70.9436 15.3262 70.9776 15.3329 71.0093 15.3461C71.041 15.3592 71.0698 15.3786 71.094 15.403C71.1182 15.4275 71.1374 15.4565 71.1505 15.4885C71.1635 15.5204 71.1702 15.5547 71.17 15.5893C71.1696 15.6405 71.1541 15.6905 71.1255 15.7328C71.0968 15.7751 71.0563 15.8078 71.0091 15.8269L71.1935 16.1453H71.0473L70.8739 15.845ZM70.7162 15.7246H70.9093C70.9455 15.7246 70.9802 15.7101 71.0057 15.6843C71.0313 15.6585 71.0457 15.6235 71.0457 15.5871C71.0457 15.5506 71.0313 15.5156 71.0057 15.4898C70.9802 15.464 70.9455 15.4496 70.9093 15.4496H70.7179L70.7162 15.7246Z" fill="black"/>
        <path d="M70.8547 14.9914C71.0034 14.9913 71.1489 15.0357 71.2727 15.119C71.3965 15.2022 71.493 15.3207 71.55 15.4592C71.607 15.5978 71.622 15.7503 71.593 15.8975C71.564 16.0447 71.4924 16.1799 71.3873 16.286C71.2821 16.3921 71.1481 16.4644 71.0021 16.4937C70.8562 16.523 70.705 16.508 70.5675 16.4506C70.43 16.3933 70.3125 16.296 70.2298 16.1713C70.1471 16.0466 70.103 15.8999 70.103 15.7499C70.1033 15.5489 70.1826 15.3562 70.3235 15.2141C70.4643 15.0719 70.6553 14.9919 70.8547 14.9914ZM70.8547 14.8715C70.682 14.8715 70.5133 14.9231 70.3698 15.0198C70.2263 15.1165 70.1144 15.254 70.0484 15.4148C69.9823 15.5756 69.965 15.7525 69.9987 15.9232C70.0324 16.0939 70.1155 16.2507 70.2375 16.3738C70.3596 16.4968 70.5151 16.5807 70.6844 16.6146C70.8537 16.6486 71.0292 16.6311 71.1886 16.5645C71.3481 16.4979 71.4844 16.3851 71.5803 16.2404C71.6762 16.0957 71.7274 15.9256 71.7274 15.7515C71.7274 15.5181 71.6354 15.2943 71.4718 15.1293C71.3081 14.9642 71.0861 14.8715 70.8547 14.8715Z" fill="black"/>
    </g>
    <defs>
        <clipPath id="clip0_2660_850">
            <rect width="72" height="11" fill="white" transform="translate(0 6)"/>
        </clipPath>
    </defs>
</svg>
