<svg width="72" height="24" viewBox="0 0 72 24" fill="none" xmlns="http://www.w3.org/2000/svg">
<g clip-path="url(#clip0_2848_1987)">
<mask id="mask0_2848_1987" style="mask-type:luminance" maskUnits="userSpaceOnUse" x="20" y="1" width="32" height="22">
<path d="M20.0068 1.05762H51.3367V22.9424H20.0068V1.05762Z" fill="white"/>
</mask>
<g mask="url(#mask0_2848_1987)">
<path fill-rule="evenodd" clip-rule="evenodd" d="M33.0155 3.4533C34.0268 2.40052 35.4344 1.74859 36.9893 1.74859C39.0626 1.74859 40.8595 2.90042 41.827 4.61665C42.6859 4.23271 43.6161 4.0345 44.5569 4.03497C48.2888 4.03497 51.3181 7.08733 51.3181 10.8538C51.3181 14.6203 48.2888 17.6727 44.5569 17.6727C44.1008 17.6727 43.6561 17.6268 43.2208 17.5402C42.3742 19.0491 40.7558 20.0742 38.9129 20.0742C38.1626 20.0757 37.4219 19.9055 36.7475 19.5766C35.8893 21.5924 33.8909 23.0091 31.5642 23.0091C29.1338 23.0091 27.0721 21.4772 26.2773 19.3232C25.9236 19.3979 25.563 19.4354 25.2015 19.4352C22.3104 19.4352 19.9722 17.0624 19.9722 14.1483C19.9722 12.1902 21.0249 10.4855 22.5868 9.564C22.2555 8.80068 22.0849 7.97729 22.0858 7.14515C22.0858 3.7818 24.8156 1.06348 28.179 1.06348C30.1486 1.06348 31.9109 2.00222 33.0167 3.45929" fill="#00A1E0"/>
</g>
<path fill-rule="evenodd" clip-rule="evenodd" d="M24.5384 12.4379C24.5187 12.4893 24.5454 12.5 24.5517 12.5091C24.6106 12.5517 24.6704 12.5826 24.7303 12.6173C25.0505 12.7866 25.3523 12.8361 25.6679 12.8361C26.3106 12.8361 26.7103 12.494 26.7103 11.9435V11.9326C26.7103 11.4235 26.2588 11.2381 25.8372 11.1056L25.782 11.0878C25.4629 10.9843 25.1877 10.8943 25.1877 10.6846V10.6739C25.1877 10.4942 25.3489 10.3618 25.5977 10.3618C25.8742 10.3618 26.2036 10.4538 26.4144 10.5702C26.4144 10.5702 26.4768 10.6106 26.4995 10.5503C26.5118 10.5177 26.6193 10.2301 26.6308 10.1979C26.643 10.1641 26.6216 10.1386 26.5996 10.1255C26.3577 9.97808 26.0237 9.87787 25.6781 9.87787L25.614 9.8781C25.0254 9.8781 24.6142 10.234 24.6142 10.7431V10.7541C24.6142 11.2908 25.068 11.4659 25.4919 11.5868L25.56 11.608C25.8687 11.703 26.136 11.7854 26.136 12.002V12.0128C26.136 12.2121 25.962 12.3606 25.6833 12.3606C25.5749 12.3606 25.2295 12.3588 24.8551 12.1222C24.8099 12.0958 24.7841 12.0768 24.7492 12.0555C24.7307 12.0444 24.6847 12.0242 24.6646 12.0846L24.5379 12.437M33.9484 12.437C33.9287 12.4884 33.9554 12.4991 33.962 12.5082C34.0206 12.5508 34.0806 12.5817 34.1405 12.6164C34.4607 12.7857 34.7625 12.8352 35.0781 12.8352C35.7208 12.8352 36.1205 12.4931 36.1205 11.9425V11.9317C36.1205 11.4226 35.6701 11.2372 35.2474 11.1047L35.1922 11.0868C34.8732 10.9834 34.5979 10.8933 34.5979 10.6837V10.673C34.5979 10.4933 34.7592 10.3608 35.008 10.3608C35.2844 10.3608 35.6127 10.4529 35.8246 10.5693C35.8246 10.5693 35.887 10.6096 35.9098 10.5494C35.922 10.5168 36.0296 10.2292 36.04 10.1969C36.0523 10.1632 36.0308 10.1377 36.0089 10.1246C35.767 9.97716 35.433 9.87695 35.0874 9.87695L35.0232 9.87718C34.4346 9.87718 34.0234 10.2331 34.0234 10.7422V10.7532C34.0234 11.2899 34.4772 11.465 34.9011 11.5859L34.9691 11.6071C35.279 11.702 35.5451 11.7845 35.5451 12.001V12.0119C35.5451 12.2111 35.3711 12.3597 35.0924 12.3597C34.9838 12.3597 34.6374 12.3579 34.2642 12.1213C34.2189 12.0949 34.1925 12.0767 34.1581 12.0546C34.1465 12.0472 34.0922 12.026 34.0737 12.0836L33.947 12.4361M40.3742 11.358C40.3742 11.669 40.3162 11.9143 40.2026 12.0882C40.0893 12.2599 39.9181 12.3439 39.6797 12.3439C39.4412 12.3439 39.2708 12.2606 39.159 12.0894C39.0465 11.9166 38.9897 11.6701 38.9897 11.3591C38.9897 11.0481 39.0469 10.8039 39.159 10.6323C39.2705 10.4619 39.4401 10.3801 39.6797 10.3801C39.9193 10.3801 40.0897 10.4627 40.2026 10.6323C40.3169 10.8039 40.3742 11.0481 40.3742 11.3591M40.911 10.7821C40.8581 10.6035 40.7762 10.4469 40.6668 10.3156C40.5573 10.1843 40.4191 10.0783 40.2544 10.0023C40.0909 9.92568 39.8974 9.88709 39.6785 9.88709C39.4597 9.88709 39.2673 9.92591 39.1026 10.0023C38.939 10.0788 38.7997 10.1843 38.6902 10.3156C38.5811 10.4469 38.499 10.6035 38.4461 10.7821C38.3937 10.9594 38.367 11.153 38.367 11.3591C38.367 11.5653 38.3937 11.7588 38.4461 11.9362C38.4987 12.1147 38.5808 12.2714 38.6902 12.4027C38.7998 12.534 38.939 12.6388 39.1026 12.7137C39.2673 12.7883 39.4608 12.8263 39.6785 12.8263C39.8962 12.8263 40.0897 12.7883 40.2533 12.7137C40.4168 12.639 40.5562 12.534 40.6656 12.4027C40.775 12.2714 40.8568 12.1147 40.9098 11.9362C40.9621 11.7588 40.9887 11.5653 40.9887 11.3591C40.9887 11.1541 40.9621 10.9594 40.9098 10.7821M45.3213 12.2564C45.3037 12.2042 45.2528 12.2239 45.2528 12.2239C45.1748 12.2538 45.0916 12.2814 45.0029 12.2952C44.9135 12.3093 44.814 12.3163 44.7091 12.3163C44.45 12.3163 44.2427 12.239 44.0952 12.0859C43.9466 11.9327 43.8637 11.6863 43.8649 11.3522C43.8657 11.0481 43.9391 10.8201 44.071 10.645C44.2012 10.4722 44.4016 10.3824 44.6665 10.3824C44.8877 10.3824 45.057 10.4081 45.2344 10.4636C45.2344 10.4636 45.2764 10.4819 45.2966 10.4265C45.3437 10.2963 45.3785 10.203 45.429 10.0602C45.4433 10.0193 45.4083 10.002 45.3955 9.99709C45.326 9.96991 45.1617 9.92533 45.0373 9.90655C44.921 9.88882 44.7862 9.8796 44.6342 9.8796C44.4084 9.8796 44.208 9.91819 44.0364 9.99467C43.8647 10.071 43.7196 10.1767 43.6044 10.308C43.4892 10.4393 43.4017 10.5959 43.343 10.7745C43.2848 10.9518 43.2554 11.1465 43.2554 11.3527C43.2554 11.7973 43.3752 12.1578 43.6125 12.4216C43.8498 12.6865 44.2068 12.8201 44.6722 12.8201C44.9475 12.8201 45.2297 12.7645 45.4324 12.6842C45.4324 12.6842 45.4711 12.6655 45.4543 12.6204L45.3218 12.2564M46.2606 11.0585C46.2862 10.8857 46.3336 10.7417 46.408 10.63C46.5194 10.4595 46.689 10.3663 46.9275 10.3663C47.1659 10.3663 47.3237 10.46 47.4366 10.63C47.5114 10.7423 47.5442 10.8915 47.5564 11.0585L46.2548 11.0583L46.2606 11.0585ZM48.0689 10.6784C48.0232 10.5068 47.91 10.3328 47.8363 10.2534C47.7188 10.1278 47.6047 10.0391 47.4907 9.99075C47.3261 9.92075 47.149 9.88482 46.9701 9.88513C46.7432 9.88513 46.537 9.92349 46.37 10.0015C46.203 10.08 46.0624 10.1869 45.9519 10.3205C45.8414 10.4541 45.7584 10.6119 45.7054 10.7928C45.6524 10.9713 45.6257 11.1671 45.6257 11.3721C45.6257 11.5818 45.6534 11.7764 45.708 11.9527C45.7632 12.1301 45.852 12.2855 45.9718 12.4146C46.0916 12.5447 46.2448 12.6461 46.4291 12.7175C46.6122 12.7883 46.8345 12.8251 47.0891 12.8243C47.6143 12.8225 47.8907 12.7056 48.0036 12.6423C48.0238 12.631 48.0428 12.6115 48.0191 12.5554L47.9004 12.2225C47.8822 12.1729 47.832 12.1909 47.832 12.1909C47.7018 12.2395 47.5175 12.3268 47.0856 12.3256C46.8034 12.3252 46.5949 12.2419 46.4636 12.1114C46.33 11.9778 46.2632 11.7831 46.2528 11.5067L48.0727 11.5081C48.0727 11.5081 48.1206 11.5076 48.1256 11.4608C48.1276 11.4415 48.1879 11.0876 48.0713 10.6787L48.0689 10.6784ZM31.7129 11.0585C31.7386 10.8857 31.786 10.7417 31.8603 10.63C31.9718 10.4595 32.1414 10.3663 32.3798 10.3663C32.6182 10.3663 32.776 10.46 32.8889 10.63C32.9637 10.7423 32.9964 10.8915 33.0087 11.0585L31.7071 11.0583L31.7129 11.0585ZM33.5213 10.6784C33.4757 10.5068 33.3623 10.3328 33.2886 10.2534C33.1711 10.1278 33.0571 10.0391 32.9431 9.99075C32.7784 9.92075 32.6013 9.88482 32.4224 9.88513C32.1955 9.88513 31.9893 9.92349 31.8223 10.0015C31.6553 10.08 31.5148 10.1869 31.4042 10.3205C31.294 10.4541 31.2107 10.6119 31.1577 10.7928C31.1049 10.9713 31.0782 11.1671 31.0782 11.3721C31.0782 11.5818 31.1058 11.7764 31.1607 11.9527C31.2158 12.1301 31.3047 12.2855 31.4233 12.4146C31.5431 12.5447 31.6963 12.6461 31.8806 12.7175C32.0638 12.7883 32.2849 12.8251 32.5406 12.8243C33.0658 12.8225 33.3423 12.7056 33.4552 12.6423C33.4752 12.631 33.4943 12.6115 33.4705 12.5554L33.3518 12.2225C33.3335 12.1729 33.2833 12.1909 33.2833 12.1909C33.1532 12.2395 32.9689 12.3268 32.5369 12.3256C32.2559 12.3252 32.0462 12.2419 31.9149 12.1114C31.7813 11.9778 31.7145 11.7831 31.7042 11.5067L33.524 11.5081C33.524 11.5081 33.572 11.5076 33.5769 11.4608C33.5789 11.4415 33.6392 11.0876 33.5226 10.6787L33.5213 10.6784ZM27.7852 12.2449C27.7139 12.188 27.704 12.1741 27.6803 12.1371C27.6443 12.0814 27.6259 12.0023 27.6259 11.901C27.6259 11.742 27.6788 11.6268 27.7883 11.5496C27.7871 11.5499 27.9449 11.4137 28.3158 11.4183C28.4809 11.4213 28.6456 11.4353 28.8088 11.4604V12.2862H28.809C28.809 12.2862 28.5787 12.3359 28.3183 12.3516C27.9486 12.3738 27.785 12.2451 27.7862 12.2455L27.7852 12.2449ZM28.5085 10.9664C28.4348 10.9609 28.3392 10.9583 28.2252 10.9583C28.0697 10.9583 27.9188 10.9776 27.7782 11.0157C27.6366 11.0539 27.5087 11.1131 27.3993 11.1919C27.2896 11.2702 27.1993 11.3726 27.1355 11.4914C27.0711 11.6112 27.0383 11.7517 27.0383 11.9106C27.0383 12.0719 27.0663 12.2113 27.1216 12.3253C27.1758 12.4384 27.2573 12.5362 27.3589 12.6098C27.4599 12.6833 27.5846 12.7376 27.7286 12.7699C27.8714 12.8025 28.0327 12.819 28.2101 12.819C28.3967 12.819 28.5821 12.8033 28.7618 12.773C28.9148 12.7466 29.0673 12.717 29.2191 12.6841C29.2797 12.6701 29.3469 12.6518 29.3469 12.6518C29.3919 12.6404 29.3884 12.5924 29.3884 12.5924L29.3874 10.9338C29.3874 10.5698 29.2901 10.2991 29.0982 10.1321C28.907 9.96507 28.6271 9.88098 28.2643 9.88098C28.1284 9.88098 27.9084 9.89941 27.7771 9.92579C27.7771 9.92579 27.3809 10.0027 27.2173 10.1308C27.2173 10.1308 27.1814 10.1529 27.2009 10.203L27.33 10.5486C27.346 10.5934 27.3896 10.5781 27.3896 10.5781C27.3896 10.5781 27.4033 10.5727 27.4195 10.5631C27.7685 10.373 28.2108 10.3788 28.2108 10.3788C28.4066 10.3788 28.5586 10.4185 28.66 10.4963C28.7591 10.5724 28.8097 10.6875 28.8097 10.9294V11.0062C28.6542 10.9836 28.5102 10.9706 28.5102 10.9706L28.5085 10.9664ZM43.1368 10.0299C43.1394 10.0238 43.1408 10.0173 43.1408 10.0107C43.1408 10.0041 43.1396 9.99752 43.137 9.99141C43.1345 9.98531 43.1307 9.97978 43.126 9.97515C43.1213 9.97053 43.1156 9.9669 43.1095 9.96449C43.0785 9.95274 42.924 9.92015 42.8054 9.91277C42.5773 9.89849 42.4506 9.93696 42.3366 9.9881C42.224 10.0389 42.0993 10.1206 42.0302 10.215L42.03 9.99386C42.03 9.96346 42.0084 9.93892 41.9778 9.93892H41.5125C41.4823 9.93892 41.4604 9.96346 41.4604 9.99386V12.7007C41.4604 12.7153 41.4663 12.7293 41.4766 12.7396C41.4869 12.75 41.501 12.7558 41.5156 12.7558H41.9924C42.007 12.7558 42.0211 12.75 42.0314 12.7396C42.0417 12.7293 42.0475 12.7153 42.0475 12.7007V11.3415C42.0475 11.1595 42.0675 10.9787 42.1075 10.8646C42.1469 10.7519 42.2005 10.6619 42.2665 10.5974C42.3294 10.5351 42.4065 10.4889 42.4911 10.4627C42.5705 10.4399 42.6527 10.4283 42.7353 10.4283C42.8303 10.4283 42.9345 10.4528 42.9345 10.4528C42.9695 10.4567 42.989 10.4352 43.0009 10.4037C43.0321 10.3206 43.1207 10.072 43.1379 10.0224" fill="#FFFFFE"/>
<path fill-rule="evenodd" clip-rule="evenodd" d="M38.683 8.78057C38.624 8.76276 38.5641 8.74853 38.5034 8.73795C38.4218 8.72433 38.3392 8.71794 38.2564 8.71883C37.9278 8.71883 37.6688 8.81167 37.4869 8.99504C37.3063 9.17703 37.1834 9.45428 37.1218 9.81906L37.0995 9.94219H36.6871C36.6871 9.94219 36.6367 9.94012 36.6261 9.99506L36.5584 10.3729C36.5537 10.409 36.5692 10.4316 36.6176 10.4314H37.0191L36.6117 12.7054C36.5798 12.8886 36.5433 13.0392 36.5029 13.1534C36.463 13.266 36.4241 13.3505 36.3762 13.4117C36.3298 13.4711 36.2858 13.5147 36.2099 13.5402C36.1472 13.5613 36.0751 13.5709 35.9961 13.5709C35.9521 13.5709 35.8936 13.5636 35.8504 13.5549C35.8072 13.5464 35.7847 13.5367 35.7524 13.5231C35.7524 13.5231 35.7053 13.5052 35.6867 13.5524C35.6716 13.591 35.5646 13.8853 35.5519 13.9217C35.539 13.9576 35.5571 13.9859 35.5799 13.9941C35.6334 14.0132 35.6731 14.0254 35.7459 14.0426C35.847 14.0664 35.9323 14.0679 36.0121 14.0679C36.1793 14.0679 36.3317 14.0444 36.4581 13.9988C36.5852 13.9529 36.6959 13.8728 36.7938 13.7644C36.8997 13.6475 36.9663 13.5251 37.03 13.3581C37.093 13.1926 37.1467 12.9871 37.1896 12.7476L37.599 10.4314H38.1975C38.1975 10.4314 38.2479 10.4332 38.2584 10.3785L38.3261 10.0007C38.3309 9.96454 38.3154 9.94196 38.2668 9.94219H37.6859C37.6888 9.92906 37.7152 9.72473 37.7819 9.53237C37.8103 9.45025 37.8639 9.38402 37.9093 9.33852C37.9517 9.29519 38.0038 9.26271 38.0614 9.24384C38.1246 9.22432 38.1904 9.21484 38.2564 9.21573C38.3112 9.21573 38.3648 9.2223 38.4057 9.23082C38.462 9.2428 38.4839 9.24914 38.4987 9.25351C38.5579 9.2716 38.5658 9.25409 38.5775 9.22541L38.7164 8.84392C38.7307 8.80292 38.6959 8.78564 38.683 8.78057ZM30.5655 12.7103C30.5655 12.7407 30.5439 12.7655 30.5135 12.7655H30.0317C30.0011 12.7655 29.9795 12.7407 29.9795 12.7103V8.83229C29.9795 8.802 30.0011 8.77746 30.0317 8.77746H30.5135C30.5439 8.77746 30.5655 8.802 30.5655 8.83229V12.7103Z" fill="#FFFFFE"/>
</g>
<defs>
<clipPath id="clip0_2848_1987">
<rect width="31.445" height="22" fill="white" transform="translate(20 1)"/>
</clipPath>
</defs>
</svg>
