<svg width="72" height="24" viewBox="0 0 72 24" fill="none" xmlns="http://www.w3.org/2000/svg">
<g clip-path="url(#clip0_2601_1137)">
<path d="M1.88438 19C0.786885 19 0.0207075 18.6764 0.0207075 18.6764V17.7459C0.0207075 17.7459 1.18033 18.11 1.86368 18.11C2.46419 18.11 3.06471 18.0089 3.06471 17.2807C3.06471 16.7345 2.65056 16.6132 2.13287 16.4716L1.6566 16.3502C1.03538 16.1682 0 15.9254 0 14.6915C0 13.3161 1.13891 12.9722 2.31924 12.9722C3.37532 12.9722 3.97584 13.3161 3.97584 13.3161V14.2263C3.97584 14.2263 3.18896 13.8622 2.27783 13.8622C1.53236 13.8622 1.05608 14.0038 1.05608 14.6309C1.05608 15.177 1.49094 15.2984 2.00863 15.44L2.58844 15.6018C3.27179 15.7838 4.1415 16.1682 4.1415 17.2604C4.16221 18.6359 3.12683 19 1.88438 19Z" fill="#666666"/>
<path d="M8.1586 19C6.99897 19 5.38379 18.6359 5.38379 15.9861C5.38379 13.397 7.01968 12.9722 8.1586 12.9722C9.23539 12.9722 10.9334 13.3363 10.9334 15.9861C10.9334 18.6764 9.25609 19 8.1586 19ZM8.1586 13.7813C7.53737 13.7813 6.50199 13.9633 6.50199 15.9861C6.50199 18.0291 7.70303 18.1707 8.1586 18.1707C8.7177 18.1707 9.8152 17.9482 9.8152 15.9861C9.79449 13.9431 8.75911 13.7813 8.1586 13.7813Z" fill="#666666"/>
<path d="M12.3833 18.8989V11.1719H13.5015V18.8989H12.3833Z" fill="#666666"/>
<path d="M19.0508 18.8988L18.9473 18.1504C18.9473 18.1504 18.264 19.0202 17.0008 19.0202C16.0897 19.0202 15.0957 18.6966 15.0957 17.2402C15.0957 15.622 16.6488 15.3186 17.6013 15.3186H18.9059V14.8129C18.9059 14.0645 18.4503 13.8824 17.6634 13.8824C16.7109 13.8824 15.5927 14.287 15.5927 14.287V13.397C15.5927 13.397 16.6074 12.9924 17.8291 12.9924C19.1337 12.9924 20.0241 13.4576 20.0241 14.9949V18.9191H19.0508V18.8988ZM18.9059 15.9659L17.8291 15.9861C16.8144 16.0063 16.1932 16.2693 16.1932 17.1997C16.1932 17.9482 16.6695 18.1707 17.27 18.1707C18.0983 18.1707 18.9059 17.4222 18.9059 17.4222V15.9659Z" fill="#666666"/>
<path d="M24.0827 13.9633C23.4201 13.9633 22.9024 14.6713 22.9024 14.6713V18.8989H21.7842V13.0733H22.6746L22.8196 13.8824C22.8196 13.8824 23.1923 12.9722 24.207 12.9722C24.7868 12.9722 25.0146 13.134 25.0146 13.134V14.1252C25.0146 14.1252 24.6625 13.9633 24.0827 13.9633Z" fill="#666666"/>
<path d="M33.8774 18.8989H32.3244L31.3925 15.8041C31.144 14.9747 30.792 13.6195 30.792 13.6195C30.792 13.6195 30.4193 14.995 30.1708 15.7838L29.2596 18.8989H27.7066L26.1328 13.0733H27.4167L28.1414 16.4109C28.3071 17.1795 28.4935 18.3932 28.4935 18.3932C28.4935 18.3932 28.7213 17.1795 28.9697 16.4109L29.9844 13.0733H31.5996L32.6143 16.4109C32.842 17.1593 33.0905 18.3932 33.0905 18.3932C33.0905 18.3932 33.2769 17.2807 33.4633 16.4109L34.188 13.0733H35.4512L33.8774 18.8989Z" fill="#666666"/>
<path d="M36.8594 18.8989V13.0531H37.9776V18.8989H36.8594Z" fill="#666666"/>
<path d="M43.9 18.8989V14.914C43.9 14.1859 43.5894 13.9229 42.8232 13.9229C41.8293 13.9229 40.856 14.6511 40.856 14.6511V18.8989H39.7378V13.0733H40.6075L40.8353 13.9027C40.8353 13.9027 41.8293 12.9722 43.0924 12.9722C44.1899 12.9722 45.0182 13.4374 45.0182 14.9343V18.8989H43.9Z" fill="#666666"/>
<path d="M50.8575 18.8989L50.7333 18.1707C50.7333 18.1707 50.112 19.0202 48.8075 19.0202C47.8756 19.0202 46.3433 18.6157 46.3433 16.0063C46.3433 13.3565 48.2484 12.9924 49.0352 12.9924C50.112 12.9924 50.609 13.579 50.609 13.579V11.1719H51.7272V18.8989H50.8575ZM50.609 14.4286C50.609 14.4286 49.9878 13.842 49.1388 13.842C48.3105 13.842 47.4615 14.1656 47.4615 15.9861C47.4615 17.9077 48.3312 18.1302 49.0352 18.1302C49.8428 18.1302 50.609 17.4627 50.609 17.4627V14.4286Z" fill="#666666"/>
<path d="M55.1857 19C54.0882 19 53.322 18.6764 53.322 18.6764V17.7459C53.322 17.7459 54.4816 18.11 55.1649 18.11C55.7655 18.11 56.366 18.0089 56.366 17.2807C56.366 16.7345 55.9518 16.6132 55.4341 16.4716L54.9579 16.3502C54.3366 16.1682 53.3013 15.9254 53.3013 14.6915C53.3013 13.3161 54.4402 12.9722 55.6205 12.9722C56.6766 12.9722 57.2771 13.3161 57.2771 13.3161V14.2263C57.2771 14.2263 56.4902 13.8622 55.5791 13.8622C54.8336 13.8622 54.3574 14.0038 54.3574 14.6309C54.3574 15.177 54.7922 15.2984 55.3099 15.44L55.8897 15.6018C56.5731 15.7838 57.4428 16.1682 57.4428 17.2604C57.4635 18.6359 56.4488 19 55.1857 19Z" fill="#666666"/>
<path d="M62.7023 9.5335C62.7644 9.51327 62.8058 9.51327 62.8472 9.49305C63.9861 9.16941 65.0836 8.74463 66.2019 8.29962C67.2786 7.85462 68.3347 7.3287 69.2873 6.58028C70.2398 5.81163 71.006 4.82048 71.4408 3.60683C71.503 3.44501 71.6272 3.18205 71.6272 3C70.1363 5.00253 64.1932 5.2048 64.1932 5.2048L65.6013 3.9507C59.9689 3.97092 56.0345 6.29709 54.2329 7.5512C56.5314 7.79393 58.6229 8.74463 60.2588 10.1808C61.0664 9.93805 61.8947 9.75601 62.7023 9.5335Z" fill="#F99D1C"/>
<path d="M71.9997 9.33122C71.9997 9.33122 66.5329 8.92667 60.8384 10.7067C61.5838 11.4753 62.2258 12.3654 62.7228 13.3161C65.7046 11.7181 69.8669 9.63464 71.9997 9.33122Z" fill="#F99D1C"/>
<path d="M63.0957 14.1656C63.4477 15.0354 63.6755 15.9659 63.779 16.9368L68.9973 11.6978L63.0957 14.1656Z" fill="#F99D1C"/>
</g>
<defs>
<clipPath id="clip0_2601_1137">
<rect width="72" height="16" fill="white" transform="translate(0 3)"/>
</clipPath>
</defs>
</svg>
