<svg width="72" height="24" viewBox="0 0 72 24" fill="none" xmlns="http://www.w3.org/2000/svg">
    <g clip-path="url(#clip0_2695_1935)">
        <path d="M8.96378 5L9.9754 6.43084L3.21099 15.9985H5.23422L10.987 7.86169L11.9986 9.29253L6.06969 17.6792H0L8.96378 5ZM8.09292 17.6792H14.1626L15.3504 16.0002L16.0459 15.0168L15.0343 13.5859L13.3271 16.0002H11.3039L14.0227 12.1542L13.0111 10.7234L8.09374 17.6792H8.09292Z" fill="#009D00"/>
        <path d="M67.9182 8.80796C67.0703 8.80796 66.5172 9.02237 65.89 9.37523C65.6068 9.02237 65.1525 8.80796 64.452 8.80796C63.7515 8.80796 63.2107 9.07302 62.6946 9.41322V8.89659H61.1332V16.0061H62.7556V10.6491C63.2593 10.3713 63.6281 10.2329 63.8865 10.2329C64.5746 10.2329 64.7343 10.4853 64.7343 11.4561V16.0061H66.3567V11.4561C66.3567 11.1412 66.3444 10.8255 66.3073 10.5486C66.7502 10.3089 67.2169 10.2337 67.4506 10.2337C68.1388 10.2337 68.3355 10.4861 68.3355 11.4569V16.0069H69.9579V11.4569C69.9579 9.98218 69.5891 8.80964 67.9173 8.80964M44.4625 12.8228C44.4625 13.856 44.2041 14.625 43.1472 14.625H41.9668V10.2574C42.3109 10.2067 42.8517 10.1687 43.1472 10.1687C44.2041 10.1687 44.4625 10.9378 44.4625 11.971V12.8219V12.8228ZM43.1472 8.80796C42.8525 8.80796 42.422 8.83328 41.9668 8.89575V6.41309H40.3444V15.9867H43.1464C45.1251 15.9867 46.0841 14.7888 46.0841 12.8228V11.9719C46.0841 10.005 45.1251 8.80796 43.1464 8.80796M23.2886 11.8461H20.6826V11.7954C20.6826 10.7993 21.2357 10.2447 21.9979 10.2447C22.7601 10.2447 23.2886 10.812 23.2886 11.7954V11.8461ZM21.9979 8.80796C20.1171 8.80796 19.0479 10.0438 19.0479 12.0098V12.9426C19.0479 15.4261 20.7929 16.1065 22.0226 16.1065C22.9297 16.1065 23.4153 16.0643 24.0014 15.9656H24.008C24.1347 15.9436 24.2656 15.9191 24.4072 15.893C24.4121 15.893 24.4154 15.8913 24.4195 15.8904L24.6632 15.8457V15.6228C24.6632 15.6043 24.6648 15.5857 24.6648 15.5646V14.7322C24.6648 14.7263 24.664 14.7213 24.6632 14.7162V14.5204L24.4113 14.5432H24.4072C24.3841 14.5457 24.3603 14.5474 24.3364 14.5499L23.9504 14.5854C23.454 14.6276 22.8136 14.6698 22.1461 14.6698C20.9657 14.6698 20.671 13.8003 20.671 13.0684V13.0304H24.9233V12.009C24.9233 10.1307 23.8911 8.80711 21.9979 8.80711M51.4681 11.8461H48.8621V11.7954C48.8621 10.7993 49.4152 10.2447 50.1774 10.2447C50.9397 10.2447 51.4681 10.812 51.4681 11.7954V11.8461ZM50.1774 8.80796C48.2966 8.80796 47.2274 10.0438 47.2274 12.0098V12.9426C47.2274 15.4261 48.9724 16.1065 50.2021 16.1065C51.1092 16.1065 51.5949 16.0643 52.1809 15.9656H52.1875C52.3143 15.9436 52.4451 15.9191 52.5867 15.893C52.5917 15.893 52.5949 15.8913 52.5991 15.8904L52.8427 15.8457V15.6228C52.8427 15.6043 52.8444 15.5857 52.8444 15.5646V14.7322C52.8444 14.7263 52.8435 14.7213 52.8427 14.7162V14.5204L52.5908 14.5432H52.5867C52.5637 14.5457 52.5398 14.5474 52.5159 14.5499L52.1299 14.5854C51.6327 14.6276 50.9932 14.6698 50.3256 14.6698C49.1453 14.6698 48.8506 13.8003 48.8506 13.0684V13.0304H53.1028V12.009C53.1028 10.1307 52.0706 8.80711 50.1774 8.80711M37.0018 14.43C36.6453 14.6318 36.1902 14.7829 35.7481 14.7829C35.1333 14.7829 34.8633 14.6191 34.8633 14.0012V13.9506C34.8633 13.2448 35.1094 12.8793 36.228 12.8793H37.0026V14.43H37.0018ZM35.9202 8.80796C35.1728 8.80796 34.5307 8.88646 34.0525 8.97425C33.5743 9.06205 33.9776 8.98861 33.9776 8.98861C33.9397 8.99536 33.9035 9.00296 33.8681 9.00971C33.8673 9.00971 33.8657 9.01055 33.8648 9.01055L33.6377 9.05614V9.23932C33.6368 9.25114 33.6352 9.26211 33.6352 9.27477V10.0818C33.6352 10.0936 33.6368 10.1037 33.6377 10.1147V10.3241L34.0533 10.2835V10.2802C34.4879 10.2354 35.2139 10.1941 35.921 10.1941C36.6281 10.1941 37.0026 10.3958 37.0026 11.2155V11.7701H36.228C34.0896 11.7701 33.2294 12.5138 33.2294 13.9506V14.0012C33.2294 15.703 34.3357 16.1065 35.3555 16.1065C35.9457 16.1065 36.5227 15.9048 37.0882 15.5519V16.0061H38.6241V11.2163C38.6241 9.60315 37.6652 8.8088 35.9202 8.8088M57.9559 14.43C57.5995 14.6318 57.1443 14.7829 56.7023 14.7829C56.0875 14.7829 55.8175 14.6191 55.8175 14.0012V13.9506C55.8175 13.2448 56.0636 12.8793 57.1822 12.8793H57.9568V14.43H57.9559ZM56.8744 8.80796C56.127 8.80796 55.4849 8.88646 55.0067 8.97425C54.5285 9.06205 54.9318 8.98861 54.9318 8.98861C54.8939 8.99536 54.8577 9.00296 54.8223 9.00971C54.8215 9.00971 54.8198 9.01055 54.819 9.01055L54.5918 9.05614V9.23932C54.591 9.25114 54.5894 9.26211 54.5894 9.27477V10.0818C54.5894 10.0936 54.591 10.1037 54.5918 10.1147V10.3241L55.0075 10.2835V10.2802C55.4421 10.2354 56.1681 10.1941 56.8752 10.1941C57.5822 10.1941 57.9568 10.3958 57.9568 11.2155V11.7701H57.1822C55.0437 11.7701 54.1827 12.5138 54.1827 13.9506V14.0012C54.1827 15.703 55.289 16.1065 56.3089 16.1065C56.899 16.1065 57.4769 15.9048 58.0415 15.5519V16.0061H59.5783V11.2163C59.5783 9.60315 58.6194 8.8088 56.8744 8.8088M30.7205 8.89659L29.0405 11.2653L27.3605 8.89659H25.6781L28.1993 12.4513L25.6781 16.0061H27.3605L29.0405 13.6374L30.7205 16.0061H32.4022L29.8818 12.4513L32.4022 8.89659H30.7205Z" fill="#F5F5F5"/>
        <path d="M70.6846 10.5072C70.5208 10.3426 70.4385 10.14 70.4385 9.89942C70.4385 9.65884 70.5208 9.46046 70.6854 9.29754C70.85 9.13462 71.0468 9.05273 71.2764 9.05273C71.5061 9.05273 71.7003 9.13462 71.8641 9.29838C72.0279 9.46215 72.1102 9.66221 72.1102 9.89858C72.1102 10.1349 72.0287 10.3426 71.8658 10.5064C71.7028 10.6701 71.5061 10.7529 71.2772 10.7529C71.0484 10.7529 70.8492 10.671 70.6854 10.5064L70.6846 10.5072ZM71.7267 10.3814C71.8501 10.2523 71.9119 10.091 71.9119 9.89942C71.9119 9.7078 71.8501 9.55416 71.7258 9.42501C71.6015 9.2967 71.4517 9.2317 71.2764 9.2317C71.1011 9.2317 70.9463 9.29585 70.8229 9.42501C70.6986 9.55416 70.6369 9.71202 70.6369 9.89942C70.6369 10.0868 70.6986 10.2523 70.8229 10.3814C70.9472 10.5106 71.0978 10.5756 71.2764 10.5756C71.455 10.5756 71.604 10.5106 71.7267 10.3814ZM71.5505 10.0598C71.5448 10.0438 71.5406 10.0328 71.5382 10.0286C71.5357 10.0244 71.5316 10.0159 71.525 10.0041C71.5184 9.99228 71.5127 9.98384 71.5077 9.97877C71.5028 9.97371 71.4954 9.9678 71.4871 9.96105C71.4781 9.95429 71.4682 9.94838 71.4567 9.94416C71.497 9.93403 71.5316 9.90955 71.5587 9.87072C71.5859 9.83189 71.5999 9.78209 71.5999 9.72131C71.5999 9.64955 71.5727 9.59384 71.5184 9.55416C71.4641 9.51449 71.3917 9.49423 71.3019 9.49423H70.9776V10.2911H71.1801V10.0168H71.2493C71.3085 10.0193 71.348 10.0539 71.367 10.1197C71.3958 10.2151 71.4221 10.2725 71.4452 10.292H71.6386V10.2827C71.6229 10.2573 71.5966 10.194 71.5604 10.0927C71.5587 10.0885 71.5555 10.0784 71.5497 10.0615L71.5505 10.0598ZM71.1809 9.85215V9.66728H71.2921C71.3678 9.66728 71.4048 9.69598 71.4048 9.75423C71.4048 9.78293 71.3941 9.80572 71.3719 9.82429C71.3505 9.84286 71.3217 9.85215 71.2871 9.85215H71.1801H71.1809Z" fill="#F5F5F5"/>
    </g>
    <defs>
        <clipPath id="clip0_2695_1935">
            <rect width="72" height="24" fill="white"/>
        </clipPath>
    </defs>
</svg>
