<svg width="72" height="24" viewBox="0 0 72 24" fill="none" xmlns="http://www.w3.org/2000/svg">
    <path d="M56.7724 15.2191H61.9172C62.7168 15.2191 63.1543 15.1444 63.4106 14.9791C63.7273 14.7838 63.9074 14.4537 63.9074 14.0644C63.9074 13.5998 63.6667 13.1951 63.2596 12.9998C63.0478 12.8798 62.6566 12.8198 62.1735 12.8198H60.0259C58.8199 12.8198 58.0364 12.6098 57.5078 12.1609C56.9048 11.6356 56.5579 10.8263 56.5579 9.95558C56.5579 8.68209 57.2659 7.57419 58.3066 7.21372C58.7598 7.04842 59.286 7.00372 60.4637 7.00372H65.7076V8.78791H60.9451C59.9952 8.8032 59.6282 8.8032 59.3108 8.87791C58.8889 8.9826 58.6323 9.37209 58.6323 9.89721C58.6323 10.3472 58.8429 10.7065 59.2053 10.8719C59.5069 11.0066 60.0403 11.0366 60.7648 11.0366H62.3779C63.8571 11.0366 64.6553 11.2613 65.2429 11.8612C65.6949 12.3105 65.9962 13.1959 65.9962 14.0647C65.9962 15.1293 65.4983 16.1193 64.7143 16.5996C64.2175 16.9138 63.5834 17.0042 62.09 17.0042H56.7705V15.2207H56.7711L56.7724 15.2191ZM49.3124 9.72837C49.025 10.2019 48.8881 10.9619 48.8881 11.9814C48.8881 14.2184 49.6249 15.2372 51.2623 15.2372C52.8718 15.2372 53.6086 14.2184 53.6086 12.0093C53.6086 9.77046 52.886 8.76744 51.2623 8.76744C50.3761 8.76744 49.6806 9.11209 49.3129 9.7293L49.3124 9.72837ZM55.0496 8.52651C55.6384 9.32465 55.9676 10.6253 55.9676 12.1498C55.9676 13.8798 55.4366 15.3009 54.4903 16.0847C53.7728 16.6758 52.683 17.0023 51.3916 17.0023C49.5555 17.0023 48.1065 16.3805 47.3607 15.2712C46.8014 14.4581 46.5281 13.3781 46.5281 12.0619C46.5281 10.1688 47.0296 8.73395 47.9767 7.96419C48.7229 7.34349 49.9001 7.00349 51.2476 7.00349C52.9544 7.00349 54.318 7.55047 55.0496 8.52814V8.52651ZM45.3476 17.0009H43.1793V12.8777H39.257V17.0009H37.0886V7.00093H39.257V11.094H43.1793V7.00093H45.3476V17.0009ZM32.6933 11.7079C33.2215 11.7079 33.5269 11.6326 33.7364 11.4226C33.9861 11.1967 34.1388 10.7179 34.1388 10.1626C34.1388 9.50256 33.8887 9.02186 33.458 8.85674C33.3046 8.79674 33.0544 8.76674 32.7346 8.76674H30.0088V11.7086H32.6945L32.6933 11.7079ZM29.7622 17.0009H27.6495V7.00093H32.6032C34.3425 7.00093 34.9525 7.18035 35.6074 7.91512C36.1875 8.54442 36.4991 9.36977 36.4991 10.2547C36.4991 11.304 36.0837 12.2788 35.3988 12.864C34.8194 13.3581 34.283 13.5074 33.1533 13.5074H29.762V17.0005H29.7626L29.7622 17.0009ZM19.8124 9.72651C19.5257 10.2 19.39 10.96 19.39 11.9795C19.39 14.2165 20.1263 15.2353 21.7642 15.2353C23.3732 15.2353 24.1105 14.2165 24.1105 12.0074C24.1105 9.7686 23.3878 8.76558 21.7642 8.76558C20.8773 8.76558 20.1811 9.11023 19.8129 9.72744L19.8124 9.72651ZM25.552 8.52465C26.1408 9.32279 26.47 10.6235 26.47 12.1479C26.47 13.8779 25.939 15.2991 24.9922 16.0828C24.2752 16.674 23.1856 17.0005 21.8935 17.0005C20.0569 17.0005 18.6084 16.3786 17.8626 15.2693C17.3028 14.4563 17.03 13.3763 17.03 12.06C17.03 10.167 17.5322 8.73209 18.4795 7.96233C19.2248 7.34163 20.401 7.00163 21.7505 7.00163C23.4572 7.00163 24.8208 7.5486 25.5524 8.52628L25.552 8.52465ZM7.21476 15.2153H12.3596C13.1584 15.2153 13.5962 15.1407 13.8523 14.9753C14.169 14.78 14.3497 14.45 14.3497 14.0607C14.3497 13.596 14.109 13.1914 13.7019 12.996C13.4901 12.876 13.0989 12.816 12.6163 12.816H10.4687C9.26277 12.816 8.47807 12.606 7.95061 12.1572C7.34763 11.6319 7 10.8226 7 9.95186C7 8.67837 7.70918 7.57047 8.74994 7.21C9.20188 7.0447 9.72934 7 10.9058 7H16.1497V8.78419H11.3872C10.4373 8.79948 10.0692 8.79948 9.75294 8.87419C9.33097 8.97888 9.07444 9.36837 9.07444 9.89349C9.07444 10.3435 9.28625 10.7028 9.64745 10.8681C9.94953 11.0028 10.4829 11.0328 11.2069 11.0328H12.82C14.2974 11.0328 15.0974 11.2575 15.685 11.8575C16.137 12.3068 16.4391 13.1921 16.4391 14.061C16.4391 15.1256 15.9411 16.1156 15.1576 16.5959C14.6601 16.91 14.0271 17.0005 12.5333 17.0005H7.21382V15.217L7.21476 15.2153Z" fill="#0175BC"/>
</svg>
