<svg width="72" height="24" viewBox="0 0 72 24" fill="none" xmlns="http://www.w3.org/2000/svg">
<g clip-path="url(#clip0_2795_744)">
<path d="M15.0933 7.11035V8.80879H17.8808V17.4785H19.8335V8.80879H22.6211V7.11035H15.0933Z" fill="white"/>
<path d="M32.8262 17.4787H34.7789V13.9858H36.391C38.3677 13.9858 39.6631 12.1723 39.6631 10.1188C39.6631 8.19963 38.3197 7.12012 36.4342 7.12012H32.8262V17.4787ZM36.0791 12.4217H34.7789V8.80896C35.3583 8.72012 35.9464 8.70239 36.5301 8.75619C37.3026 8.85694 37.648 9.31274 37.648 10.2771C37.648 11.2415 37.4897 12.4217 36.0791 12.4217Z" fill="white"/>
<path d="M45.3868 7.09619V10.0469C45.2333 9.79259 44.3841 9.63426 43.626 9.63426C41.2271 9.63426 40.0996 11.1024 40.0996 13.6117C40.0996 15.7083 41.6445 17.45 43.65 17.45H47.3396V7.09619H45.3868ZM45.3868 15.8619H43.8803C42.7912 15.8619 41.9612 14.8303 41.9612 13.2422C41.9612 12.0092 42.5945 11.1456 43.8036 11.1456C44.8639 11.1456 45.3772 11.7261 45.3772 12.5082L45.3868 15.8619Z" fill="white"/>
<path d="M66.4112 13.266L69.6354 9.64842H67.3228L64.5352 12.9925V7.11035H62.5825V17.4785H64.5352V13.6402L67.6635 17.4785H70L66.4112 13.266Z" fill="white"/>
<path d="M27.3613 7C24.3386 7 22.6162 9.49488 22.6162 12.4887C22.6162 15.6265 24.7417 17.5889 27.1406 17.5889C30.144 17.5889 31.8809 15.2667 31.8809 12.1865C31.8857 9.21661 29.861 7 27.3613 7ZM27.3325 15.8376C25.6581 15.8376 24.6601 14.5422 24.6601 12.2153C24.6601 10.0274 25.6437 8.72243 27.1742 8.72243C28.9782 8.72243 29.8466 10.0994 29.8466 12.4887C29.8466 14.5134 28.7911 15.8376 27.3325 15.8376Z" fill="white"/>
<path d="M51.4755 14.4369H50.2377C50.3768 15.3965 51.25 16.001 52.3631 16.001C53.226 16.042 54.0756 15.7769 54.7621 15.2525V16.5719C54.6709 16.6919 54.0184 17.6659 52.0177 17.6035C51.5213 17.6017 51.0303 17.5011 50.5732 17.3077C50.1161 17.1143 49.702 16.8319 49.355 16.4769C49.0081 16.122 48.7352 15.7015 48.5524 15.2401C48.3695 14.7787 48.2802 14.2855 48.2898 13.7892C48.2898 11.2559 49.8395 9.66303 52.0081 9.66303C52.4027 9.64882 52.796 9.71445 53.1646 9.85599C53.5332 9.99754 53.8694 10.2121 54.153 10.4867C54.4366 10.7614 54.6619 11.0905 54.8152 11.4544C54.9685 11.8182 55.0467 12.2093 55.0451 12.6041C55.0355 13.9859 53.98 14.4369 51.4755 14.4369ZM51.8258 11.2223C51.4003 11.2324 50.9956 11.4088 50.6987 11.7138C50.4018 12.0188 50.2363 12.428 50.2377 12.8536V13.1079H51.0821C52.8669 13.1079 53.2747 12.9112 53.2747 12.3738C53.2603 11.6062 52.699 11.2223 51.8258 11.2223Z" fill="white"/>
<path d="M58.4755 17.5891C58.0182 17.6084 57.5623 17.5259 57.1408 17.3475C56.7193 17.1691 56.3426 16.8993 56.0381 16.5576V15.2525C56.7279 15.7312 57.5497 15.9827 58.3891 15.9722C59.3199 15.9722 59.7709 15.7035 59.7709 15.1374C59.7709 14.7008 59.5022 14.4897 58.1924 14.3074C56.5899 14.0819 55.7935 13.4486 55.7935 12.2971C55.7935 10.8577 57.0745 9.66305 59.0128 9.66305C59.3926 9.63035 59.775 9.68032 60.1336 9.80953C60.4922 9.93873 60.8186 10.1441 61.0903 10.4115V11.7837C60.5143 11.4578 59.8616 11.2921 59.1999 11.3039C58.0484 11.3039 57.6838 11.6542 57.6838 12.1483C57.6838 12.5322 57.9093 12.6857 59.1999 12.8968C60.7784 13.1511 61.6229 13.8564 61.6229 15.051C61.642 16.6343 60.5193 17.5891 58.4755 17.5891Z" fill="white"/>
<path d="M9.48009 16.0342L13.2176 12.2919L9.48009 8.53516L5.73776 12.2775L1.98584 16.0342C2.47647 16.5289 3.06018 16.9215 3.70331 17.1894C4.34644 17.4574 5.03625 17.5953 5.73296 17.5953C6.42968 17.5953 7.11949 17.4574 7.76262 17.1894C8.40575 16.9215 8.98947 16.5289 9.48009 16.0342Z" fill="white"/>
<path opacity="0.75" d="M9.48009 8.53524C8.98947 8.04057 8.40575 7.64795 7.76262 7.38001C7.11949 7.11207 6.42968 6.97412 5.73296 6.97412C5.03625 6.97412 4.34644 7.11207 3.70331 7.38001C3.06018 7.64795 2.47647 8.04057 1.98584 8.53524L5.72337 12.2776L9.4657 8.53524H9.48009Z" fill="white"/>
</g>
<defs>
<clipPath id="clip0_2795_744">
<rect width="68" height="10.5937" fill="white" transform="translate(2 7)"/>
</clipPath>
</defs>
</svg>
