<svg width="72" height="24" viewBox="0 0 72 24" fill="none" xmlns="http://www.w3.org/2000/svg">
<g clip-path="url(#clip0_2795_728)">
<path d="M66.4017 13.2899L69.6317 9.66327H67.3083L64.5317 13.0066V7.1416H62.5767V17.5116H64.5317V13.6583L67.6483 17.5116H70L66.4017 13.2899Z" fill="#0A7DA0"/>
<path d="M58.468 17.5964C57.3064 17.5964 56.3714 17.0581 56.0314 16.5764V15.2448C56.428 15.6131 57.4764 15.9531 58.383 15.9531C59.318 15.9531 59.7714 15.6981 59.7714 15.1314C59.7714 14.7064 59.5164 14.4798 58.1847 14.3098C56.5697 14.0831 55.8047 13.4598 55.8047 12.2981C55.8047 10.8814 57.0797 9.66309 59.0347 9.66309C60.083 9.66309 60.7347 10.0031 61.103 10.3998V11.7598C60.6497 11.4764 59.9414 11.2781 59.2047 11.2781C58.043 11.2781 57.6747 11.6181 57.6747 12.1281C57.6747 12.4964 57.9014 12.6664 59.2047 12.8648C60.7914 13.1198 61.613 13.7998 61.613 15.0181C61.6414 16.6614 60.508 17.5964 58.468 17.5964Z" fill="#0A7DA0"/>
<path d="M51.4697 14.4514H50.2231C50.3647 15.4148 51.2431 16.0098 52.3481 16.0098C53.1414 16.0098 54.1331 15.8114 54.7281 15.2448V15.8681V16.5481C54.6431 16.6614 53.9914 17.6248 51.9797 17.5681C50.0814 17.5681 48.2397 16.0664 48.2397 13.7431C48.2397 11.2214 49.7981 9.60645 51.9514 9.60645C53.5381 9.60645 54.9831 10.7398 54.9831 12.5531C55.0397 13.9981 53.9914 14.4514 51.4697 14.4514ZM51.8381 11.2498C50.9314 11.2498 50.2797 11.9864 50.2514 12.8648V13.1198H51.1014C52.8864 13.1198 53.2831 12.9214 53.2831 12.3831C53.2547 11.6181 52.6881 11.2498 51.8381 11.2498Z" fill="#0A7DA0"/>
<path d="M45.3784 7.14161V10.0883C45.2367 9.83328 44.3867 9.66328 43.6217 9.66328C41.2417 9.66328 40.1084 11.1366 40.1084 13.6299C40.1084 15.7266 41.6384 17.4833 43.6501 17.4833H45.9451H47.3334C47.3334 16.8599 47.3334 7.11328 47.3334 7.11328H45.3784V7.14161ZM45.3784 15.8966H43.8767C42.8001 15.8966 41.9784 14.8766 41.9784 13.2899C41.9784 12.0716 42.6017 11.1933 43.8201 11.1933C44.8684 11.1933 45.4067 11.7599 45.4067 12.5533V15.8966H45.3784Z" fill="#0A7DA0"/>
<path d="M32.8267 17.5116H34.7817V14.0266C34.7817 14.0266 35.7167 14.0266 36.3967 14.0266C38.38 14.0266 39.655 12.2133 39.655 10.1733C39.655 8.24659 38.3233 7.16992 36.425 7.16992H32.8267V17.5116ZM36.085 12.4399C35.6033 12.4399 34.7817 12.4399 34.7817 12.4399V8.84159C35.2633 8.72826 36.17 8.75659 36.5667 8.78492C37.3317 8.86992 37.6717 9.35159 37.6717 10.3149C37.6717 11.2216 37.4733 12.4399 36.085 12.4399Z" fill="#0A7DA0"/>
<path d="M27.3581 7.02832C24.3265 7.02832 22.6265 9.52165 22.6265 12.525C22.6265 15.67 24.7515 17.625 27.1598 17.625C30.1631 17.625 31.8915 15.3017 31.8915 12.2133C31.8915 9.23832 29.8515 7.02832 27.3581 7.02832ZM27.3298 15.8683C25.6581 15.8683 24.6665 14.565 24.6665 12.2417C24.6665 10.06 25.6581 8.75665 27.1881 8.75665C29.0015 8.75665 29.8515 10.145 29.8515 12.525C29.8515 14.5367 28.8031 15.8683 27.3298 15.8683Z" fill="#0A7DA0"/>
<path d="M15.0898 7.1416V8.8416H17.8665V17.5116H19.8215V8.8416H22.6265V7.1416H15.0898Z" fill="#0A7DA0"/>
<path d="M6.845 13.4319L2 8.55857C4.06833 6.49024 7.41167 6.49024 9.48 8.55857L10.5283 9.60691L6.845 13.4319Z" fill="#C24530"/>
<path d="M9.48 16.0669L13.22 12.3269L9.48 8.55859L5.74 12.3269L2 16.0669C4.06833 18.1353 7.41167 18.1353 9.48 16.0669Z" fill="#E65038"/>
</g>
<defs>
<clipPath id="clip0_2795_728">
<rect width="68" height="10.5967" fill="white" transform="translate(2 7)"/>
</clipPath>
</defs>
</svg>
