<svg width="72" height="24" viewBox="0 0 72 24" fill="none" xmlns="http://www.w3.org/2000/svg">
    <path d="M10 11.4158C10 13.8283 11.5424 15.6985 13.9583 15.6985C15.2963 15.6985 16.4299 15.1001 16.9874 14.0902V15.8107C16.9874 17.4378 15.9467 18.5038 14.33 18.5038C12.899 18.5038 11.9513 17.7744 11.7468 16.5027H10.0929C10.4088 18.6908 12.007 19.9999 14.33 19.9999C16.9502 19.9999 18.6042 18.2794 18.6042 15.5676V7.33883H17.1361L17.006 8.79756C16.4671 7.73156 15.3892 7.0957 14.014 7.0957C11.5424 7.0957 10 9.00328 10 11.4158ZM11.6353 11.3784C11.6353 9.78876 12.6203 8.53574 14.2556 8.53574C15.9281 8.53574 16.9131 9.73265 16.9131 11.3784C16.9131 13.0616 15.891 14.2585 14.237 14.2585C12.6389 14.2772 11.6353 13.0055 11.6353 11.3784Z" fill="#697586"/>
    <path d="M24.9969 7.26407C24.6624 7.18926 24.4208 7.15186 24.1234 7.15186C22.9527 7.15186 22.0978 7.75031 21.7448 8.648L21.6332 7.33887H20.0908V15.9417H21.7262V11.3785C21.7262 9.7327 22.6925 8.77891 24.2349 8.77891H24.9597V7.26407H24.9969Z" fill="#697586"/>
    <path d="M28.1749 16.1474C29.5501 16.1474 30.7209 15.5302 31.1669 14.539L31.3341 15.9229H32.7279V10.5368C32.7279 8.21781 31.297 7.0957 29.1784 7.0957C26.9856 7.0957 25.5175 8.27391 25.5175 10.0693H26.9484C26.9484 9.04069 27.7289 8.42353 29.1227 8.42353C30.2749 8.42353 31.1297 8.92848 31.1297 10.3685V10.6116L28.4351 10.8174C26.4281 10.967 25.2573 11.9582 25.2573 13.5478C25.2573 15.1188 26.3352 16.1474 28.1749 16.1474ZM28.6395 14.8756C27.5803 14.8756 26.9113 14.4268 26.9113 13.5104C26.9113 12.6688 27.5059 12.1078 28.9554 11.9582L31.1483 11.7898V12.2387C31.1483 13.847 30.2005 14.8756 28.6395 14.8756Z" fill="#697586"/>
    <path d="M33.1361 19.7942C33.5821 19.9065 34.0281 19.9626 34.567 19.9626C35.8864 19.9626 36.7413 19.3454 37.3174 17.868L41.35 7.33887H39.6589L37.1315 14.2772L34.6414 7.33887H32.9131L36.351 16.3905L36.0537 17.2134C35.6449 18.2981 35.0316 18.429 34.2325 18.429H33.1361V19.7942Z" fill="#697586"/>
    <path d="M43.9889 15.9416V3H42.3535V15.9416H43.9889Z" fill="#EB5454"/>
    <path d="M54.3774 11.4158C54.3774 13.8283 55.9199 15.6985 58.3357 15.6985C59.6737 15.6985 60.8073 15.1001 61.3648 14.0902V15.8107C61.3648 17.4378 60.3242 18.5038 58.7074 18.5038C57.2765 18.5038 56.3287 17.7744 56.1243 16.5027H54.4889C54.8049 18.6908 56.403 19.9999 58.726 19.9999C61.3463 19.9999 63.0002 18.2794 63.0002 15.5676V7.33883H61.5321L61.402 8.79756C60.8631 7.73156 59.7852 7.0957 58.4101 7.0957C55.9385 7.0957 54.3774 9.00328 54.3774 11.4158ZM56.0314 11.3784C56.0314 9.78876 57.0163 8.53574 58.6516 8.53574C60.3242 8.53574 61.3091 9.73265 61.3091 11.3784C61.3091 13.0616 60.287 14.2585 58.6331 14.2585C57.0163 14.2772 56.0314 13.0055 56.0314 11.3784Z" fill="#EB5454"/>
    <path fill-rule="evenodd" clip-rule="evenodd" d="M49.3969 14.4455C50.9951 14.4455 52.2773 13.1551 52.2773 11.5468C52.2773 9.93842 50.9951 8.648 49.3969 8.648C47.7987 8.648 46.5165 9.93842 46.5165 11.5468C46.5165 13.1551 47.7987 14.4455 49.3969 14.4455ZM49.3969 15.9417C51.8128 15.9417 53.764 13.978 53.764 11.5468C53.764 9.11554 51.8128 7.15186 49.3969 7.15186C46.9811 7.15186 45.0298 9.11554 45.0298 11.5468C45.0298 13.978 46.9811 15.9417 49.3969 15.9417Z" fill="#EB5454"/>
    <path fill-rule="evenodd" clip-rule="evenodd" d="M49.6386 9.60172C49.6572 9.52692 49.7687 9.50822 49.8058 9.58302L50.6049 11.2288C50.6235 11.2662 50.6607 11.2849 50.6793 11.2849H51.3297C51.4784 11.2849 51.6084 11.4158 51.6084 11.5654C51.6084 11.715 51.4969 11.8272 51.3483 11.8272H50.3448C50.3076 11.8272 50.2704 11.8085 50.2704 11.7711L49.8616 10.9296L49.174 13.4917C49.1554 13.5665 49.0439 13.5852 49.0068 13.5104L48.2077 11.8646C48.1891 11.8272 48.1519 11.8085 48.1333 11.8085H47.4457C47.2971 11.8085 47.167 11.6776 47.167 11.528C47.167 11.3784 47.2971 11.2475 47.4457 11.2475H48.4493C48.4864 11.2475 48.5236 11.2662 48.5236 11.3036L48.9324 12.1452L49.6386 9.60172Z" fill="#697586"/>
</svg>
