<svg width="73" height="25" viewBox="0 0 73 25" fill="none" xmlns="http://www.w3.org/2000/svg">
<g clip-path="url(#clip0_4092_1792)">
<g clip-path="url(#clip1_4092_1792)">
<path d="M71.2332 9.25155H71.3149C71.4121 9.25155 71.4607 9.21403 71.4607 9.14341C71.4619 9.12804 71.4591 9.11263 71.4525 9.09869C71.4459 9.08475 71.4358 9.07278 71.4232 9.06396C71.3883 9.04437 71.3482 9.0359 71.3083 9.03969H71.2332V9.26038V9.25155ZM71.5711 9.267C71.5366 9.3028 71.4932 9.32871 71.4453 9.34203L71.644 9.63776H71.4629L71.2973 9.35527H71.2332V9.62893H71.0786V8.92493H71.2995C71.5203 8.92493 71.6286 8.99776 71.6286 9.14562C71.6293 9.16844 71.6254 9.19117 71.617 9.21242C71.6087 9.23367 71.5961 9.25299 71.58 9.2692L71.5711 9.267ZM71.6043 9.75693C71.6831 9.71534 71.7489 9.65269 71.7942 9.57596C71.8406 9.49181 71.8649 9.39729 71.8649 9.3012C71.8649 9.20512 71.8406 9.1106 71.7942 9.02644C71.7498 8.94489 71.6832 8.87756 71.6021 8.83224C71.5169 8.78536 71.4209 8.76176 71.3238 8.76382C71.2281 8.76212 71.1336 8.78572 71.0499 8.83224C70.9699 8.87827 70.9042 8.94547 70.86 9.02644C70.8136 9.1106 70.7892 9.20512 70.7892 9.3012C70.7892 9.39729 70.8136 9.49181 70.86 9.57596C70.9044 9.65566 70.9702 9.72139 71.0499 9.76576C71.1339 9.81133 71.2282 9.83487 71.3238 9.83417C71.4208 9.83514 71.5165 9.8116 71.6021 9.76576L71.6043 9.75693ZM71.6749 8.71748C71.7781 8.77359 71.8642 8.85654 71.9241 8.95755C71.984 9.05856 72.0154 9.17387 72.0151 9.29127C72.0157 9.4085 71.9844 9.52369 71.9245 9.62451C71.865 9.7255 71.7786 9.80801 71.6749 9.86286C71.5686 9.92081 71.4494 9.95117 71.3282 9.95117C71.207 9.95117 71.0878 9.92081 70.9814 9.86286C70.8787 9.807 70.793 9.72436 70.7335 9.62371C70.674 9.52306 70.6429 9.40817 70.6435 9.29127C70.6437 9.17414 70.6749 9.05915 70.7341 8.95803C70.7938 8.85742 70.8792 8.77442 70.9814 8.71748C71.0874 8.65813 71.2068 8.62697 71.3282 8.62697C71.4496 8.62697 71.569 8.65813 71.6749 8.71748ZM23.1456 10.8692C23.1245 10.8902 23.0993 10.9067 23.0716 10.9177C23.0438 10.9287 23.0142 10.934 22.9844 10.9332H21.0563C21.0439 10.9314 21.0312 10.9325 21.0193 10.9364C21.0074 10.9403 20.9966 10.9469 20.9876 10.9556C20.9786 10.9643 20.9718 10.975 20.9676 10.9868C20.9634 10.9986 20.962 11.0113 20.9635 11.0237V15.4C20.9635 15.859 21.0673 16.1922 21.2749 16.3975C21.5515 16.6277 21.9081 16.7388 22.2666 16.7064H22.8342C22.8636 16.706 22.8929 16.7114 22.9202 16.7224C22.9475 16.7334 22.9723 16.7497 22.9932 16.7704C23.0144 16.7902 23.0313 16.8141 23.0427 16.8407C23.0541 16.8673 23.0598 16.896 23.0595 16.9249V18.2866C23.0595 18.419 22.9844 18.5073 22.8386 18.5227L21.8558 18.5404C20.859 18.5404 20.1154 18.3771 19.6251 18.0504C19.1348 17.7238 18.8816 17.1059 18.8654 16.1967V11.0237C18.8654 10.9641 18.8345 10.9332 18.7704 10.9332H17.6948C17.665 10.934 17.6354 10.9287 17.6077 10.9177C17.5799 10.9067 17.5548 10.8902 17.5336 10.8692C17.5122 10.8497 17.4951 10.8258 17.4837 10.7991C17.4723 10.7725 17.4667 10.7437 17.4673 10.7147V9.44355C17.4682 9.38534 17.492 9.32981 17.5336 9.28907C17.5549 9.26847 17.5802 9.25239 17.6079 9.24177C17.6356 9.23115 17.6652 9.22622 17.6948 9.22727H18.7704C18.7832 9.22952 18.7963 9.2287 18.8087 9.22487C18.8211 9.22105 18.8324 9.21433 18.8417 9.20527C18.851 9.19621 18.858 9.18508 18.8621 9.17279C18.8662 9.16049 18.8673 9.1474 18.8654 9.13458V7.01155C18.8647 6.98256 18.8703 6.95378 18.8818 6.92713C18.8932 6.90049 18.9102 6.8766 18.9316 6.85707C18.9528 6.83608 18.978 6.81958 19.0057 6.80859C19.0334 6.79759 19.063 6.79231 19.0929 6.79307H20.736C20.7659 6.79231 20.7955 6.79759 20.8232 6.80859C20.8509 6.81958 20.8761 6.83608 20.8973 6.85707C20.9187 6.8766 20.9357 6.90049 20.9472 6.92713C20.9586 6.95378 20.9642 6.98256 20.9635 7.01155V9.13458C20.9617 9.14718 20.9628 9.16005 20.9668 9.17214C20.9708 9.18423 20.9776 9.19522 20.9866 9.20423C20.9956 9.21324 21.0066 9.22001 21.0187 9.22401C21.0308 9.22801 21.0437 9.22913 21.0563 9.22727H22.9844C23.014 9.22622 23.0436 9.23115 23.0713 9.24177C23.099 9.25239 23.1243 9.26847 23.1456 9.28907C23.1872 9.32981 23.211 9.38534 23.2119 9.44355V10.7147C23.2125 10.7437 23.2069 10.7725 23.1955 10.7991C23.1841 10.8258 23.1671 10.8497 23.1456 10.8692ZM26.379 11.2333C26.0605 11.4624 25.8274 11.7908 25.7164 12.1669C25.6309 12.4253 25.5804 12.694 25.5662 12.9658C25.5397 13.0275 25.5662 13.0562 25.6413 13.0562H29.4776C29.5395 13.0562 29.5704 13.0275 29.5704 12.9658C29.5581 12.7328 29.5203 12.5019 29.4578 12.2772C29.3642 11.8705 29.1294 11.51 28.7952 11.2598C28.4265 11.0086 27.9867 10.8825 27.5407 10.9001C27.1272 10.8846 26.7197 11.003 26.379 11.2378V11.2333ZM31.8187 13.8375L31.7989 14.4002C31.8029 14.4302 31.7999 14.4606 31.7902 14.4892C31.7805 14.5178 31.7644 14.5438 31.743 14.5651C31.7217 14.5865 31.6957 14.6026 31.667 14.6123C31.6384 14.622 31.608 14.6249 31.578 14.6209H25.6524C25.5883 14.6209 25.5574 14.6518 25.5574 14.7114C25.568 14.9912 25.6255 15.2672 25.7275 15.528C26.0308 16.399 26.767 16.8403 27.936 16.8521C28.3339 16.8645 28.7286 16.778 29.0848 16.6005C29.4409 16.4229 29.7474 16.1598 29.9768 15.8347C29.9963 15.8018 30.0241 15.7745 30.0574 15.7555C30.0907 15.7366 30.1284 15.7266 30.1667 15.7266C30.1911 15.7264 30.2152 15.7313 30.2376 15.7407C30.26 15.7502 30.2802 15.7642 30.297 15.7818L31.4698 16.7064C31.495 16.7198 31.5168 16.7386 31.5337 16.7615C31.5507 16.7844 31.5622 16.8109 31.5675 16.8388C31.5728 16.8668 31.5717 16.8956 31.5644 16.9231C31.557 16.9506 31.5436 16.9761 31.525 16.9978C31.1242 17.5392 30.5869 17.9649 29.9679 18.2314C29.2862 18.5309 28.5482 18.6814 27.8035 18.6728C26.9262 18.7004 26.0588 18.4801 25.3012 18.0372C24.6209 17.6216 24.0939 16.9967 23.7994 16.2562C23.5049 15.603 23.3576 14.6952 23.3576 13.5329C23.3388 12.9561 23.4134 12.38 23.5785 11.827C23.807 11.0133 24.3113 10.3042 25.0052 9.82093C25.7483 9.31823 26.6305 9.06119 27.5275 9.08603C30.0099 9.08603 31.4087 10.3366 31.7238 12.8378C31.7757 13.1736 31.8008 13.5131 31.7989 13.8529L31.8187 13.8375ZM39.7167 9.95334C40.3292 10.5345 40.6347 11.3268 40.6332 12.3302V18.2888C40.6336 18.3177 40.6279 18.3464 40.6165 18.373C40.605 18.3996 40.5882 18.4236 40.567 18.4433C40.5458 18.4643 40.5206 18.4808 40.4929 18.4918C40.4652 18.5028 40.4355 18.508 40.4057 18.5073H38.6654C38.6359 18.5077 38.6067 18.5023 38.5794 18.4913C38.5521 18.4803 38.5273 18.464 38.5064 18.4433C38.4851 18.4236 38.4683 18.3996 38.4569 18.373C38.4455 18.3464 38.4397 18.3177 38.4401 18.2888V12.7715C38.461 12.2733 38.284 11.787 37.9476 11.4187C37.7793 11.2453 37.5762 11.1095 37.3516 11.0201C37.127 10.9307 36.886 10.8898 36.6445 10.9001C36.4004 10.8889 36.1565 10.9284 35.9284 11.0161C35.7003 11.1039 35.4929 11.238 35.3194 11.4099C35.1499 11.5888 35.0183 11.8001 34.9326 12.031C34.8468 12.262 34.8086 12.5078 34.8202 12.7539V18.2866C34.8206 18.3155 34.8149 18.3442 34.8034 18.3708C34.792 18.3974 34.7752 18.4214 34.754 18.4411C34.7328 18.4621 34.7076 18.4785 34.6799 18.4895C34.6522 18.5005 34.6225 18.5058 34.5927 18.5051H32.8546C32.8248 18.5058 32.7951 18.5005 32.7674 18.4895C32.7397 18.4785 32.7145 18.4621 32.6933 18.4411C32.6721 18.4214 32.6553 18.3974 32.6439 18.3708C32.6324 18.3442 32.6267 18.3155 32.6271 18.2866V9.44355C32.6279 9.38534 32.6517 9.32981 32.6933 9.28907C32.7147 9.26847 32.74 9.25239 32.7677 9.24177C32.7954 9.23115 32.8249 9.22622 32.8546 9.22727H34.5927C34.6224 9.22622 34.6519 9.23115 34.6796 9.24177C34.7073 9.25239 34.7326 9.26847 34.754 9.28907C34.7956 9.32981 34.8194 9.38534 34.8202 9.44355V10.0173C34.8183 10.0316 34.8209 10.046 34.8276 10.0587C34.8343 10.0714 34.8449 10.0816 34.8578 10.088C34.8821 10.1012 34.9019 10.088 34.913 10.0527C35.4298 9.39941 36.2109 9.07279 37.2563 9.07279C38.2767 9.07279 39.0924 9.36336 39.7034 9.94451L39.7167 9.95334ZM46.7841 16.5078C46.9863 16.3797 47.153 16.2027 47.2688 15.9933C47.3846 15.7839 47.4458 15.5487 47.4467 15.3095V14.4554C47.4467 14.3958 47.4158 14.3649 47.3518 14.3649H45.766C45.2162 14.3365 44.6693 14.4618 44.1868 14.7269C44.0071 14.8308 43.8585 14.981 43.7567 15.162C43.6549 15.3429 43.6036 15.5478 43.6082 15.7553C43.5999 15.9304 43.636 16.1048 43.7132 16.2622C43.7904 16.4197 43.9063 16.555 44.0499 16.6557C44.3871 16.88 44.787 16.9913 45.1918 16.9735C45.7578 16.988 46.3138 16.8226 46.7797 16.5012L46.7841 16.5078ZM47.8178 9.48107C48.3776 9.71153 48.8618 10.0937 49.2158 10.5845C49.5434 11.0491 49.7158 11.6052 49.7083 12.1735V18.2866C49.7087 18.3155 49.703 18.3442 49.6915 18.3708C49.6801 18.3974 49.6633 18.4214 49.6421 18.4411C49.6209 18.4621 49.5957 18.4785 49.568 18.4895C49.5403 18.5005 49.5106 18.5058 49.4808 18.5051H47.7427C47.7129 18.5058 47.6832 18.5005 47.6555 18.4895C47.6278 18.4785 47.6026 18.4621 47.5814 18.4411C47.5602 18.4214 47.5434 18.3974 47.532 18.3708C47.5205 18.3442 47.5148 18.3155 47.5152 18.2866V17.7062C47.5152 17.6687 47.5152 17.6488 47.4776 17.6422C47.4639 17.6396 47.4497 17.6407 47.4365 17.6453C47.4234 17.65 47.4116 17.658 47.4025 17.6687C46.7856 18.3219 45.8911 18.6493 44.7191 18.6507C43.887 18.6846 43.067 18.4425 42.3868 17.9622C41.7758 17.5031 41.4703 16.819 41.4703 15.9098C41.45 15.4861 41.5332 15.0639 41.7124 14.6794C41.8917 14.295 42.1618 13.9599 42.4995 13.7029C43.1856 13.1747 44.1522 12.9113 45.3994 12.9128H47.4224C47.4348 12.9146 47.4475 12.9135 47.4594 12.9096C47.4713 12.9057 47.4822 12.8991 47.4911 12.8904C47.5001 12.8816 47.5069 12.871 47.5111 12.8592C47.5153 12.8473 47.5167 12.8347 47.5152 12.8223V12.3809C47.527 12.1759 47.4935 11.9708 47.4172 11.7801C47.3409 11.5894 47.2235 11.4178 47.0735 11.2775C46.7819 11.0171 46.3491 10.8869 45.7682 10.8869C45.3663 10.8696 44.9665 10.9546 44.6065 11.134C44.4707 11.2013 44.3508 11.2968 44.2549 11.414C44.1589 11.5312 44.089 11.6675 44.0499 11.8138C44.0452 11.8434 44.0345 11.8718 44.0184 11.8972C44.0023 11.9225 43.9812 11.9443 43.9564 11.9613C43.9316 11.9782 43.9036 11.9899 43.8741 11.9957C43.8446 12.0014 43.8142 12.0011 43.7849 11.9947L41.9518 11.774C41.8951 11.7633 41.841 11.7415 41.7927 11.71C41.7724 11.6985 41.7565 11.6805 41.7477 11.6589C41.7389 11.6373 41.7376 11.6133 41.7441 11.5909C41.8054 11.2179 41.9493 10.8632 42.1651 10.5528C42.381 10.2424 42.6635 9.9841 42.992 9.79665C43.7142 9.32438 44.6264 9.08824 45.7218 9.08824C46.4407 9.07328 47.1548 9.20936 47.8178 9.48769V9.48107ZM56.7758 13.875C56.7758 12.9304 56.5873 12.1948 56.2104 11.6681C56.0472 11.4188 55.8214 11.2166 55.5556 11.0818C55.2897 10.947 54.993 10.8844 54.6953 10.9001C54.4088 10.8912 54.1253 10.961 53.8757 11.1019C53.6261 11.2427 53.42 11.4493 53.2796 11.699C52.9638 12.1955 52.807 12.9172 52.807 13.8595C52.807 14.8019 52.9505 15.4949 53.2487 15.9671C53.3837 16.2399 53.5943 16.4682 53.8555 16.6247C54.1167 16.7812 54.4174 16.8594 54.7218 16.8499C55.0506 16.858 55.376 16.782 55.6671 16.6292C55.9429 16.4791 56.1721 16.2562 56.3297 15.9848C56.6271 15.461 56.7758 14.7578 56.7758 13.875ZM59.0241 13.8375C59.0383 14.6095 58.9172 15.378 58.6664 16.1084C58.4327 16.8724 57.9513 17.537 57.2978 17.9973C56.6444 18.4577 55.8562 18.6875 55.0575 18.6507C54.6464 18.6612 54.238 18.58 53.8621 18.4132C53.4862 18.2464 53.1522 17.9981 52.8843 17.6863C52.86 17.651 52.8335 17.64 52.8092 17.651C52.7961 17.6577 52.7855 17.6684 52.7788 17.6814C52.772 17.6945 52.7695 17.7093 52.7716 17.7238V18.2866C52.772 18.3155 52.7663 18.3442 52.7549 18.3708C52.7435 18.3974 52.7266 18.4214 52.7054 18.4411C52.6842 18.4621 52.659 18.4785 52.6313 18.4895C52.6036 18.5005 52.574 18.5058 52.5441 18.5051H50.8126C50.7828 18.5058 50.7532 18.5005 50.7254 18.4895C50.6977 18.4785 50.6725 18.4621 50.6514 18.4411C50.6302 18.4214 50.6133 18.3974 50.6019 18.3708C50.5905 18.3442 50.5848 18.3155 50.5851 18.2866V6.01182C50.586 5.95361 50.6098 5.89809 50.6514 5.85734C50.6727 5.83675 50.698 5.82066 50.7257 5.81005C50.7534 5.79943 50.783 5.7945 50.8126 5.79555H52.5508C52.5804 5.7945 52.61 5.79943 52.6377 5.81005C52.6654 5.82066 52.6907 5.83675 52.712 5.85734C52.7536 5.89809 52.7774 5.95361 52.7783 6.01182V9.95334C52.7765 9.965 52.7776 9.97691 52.7814 9.98806C52.7853 9.99921 52.7918 10.0093 52.8003 10.0173C52.8133 10.0227 52.8277 10.0237 52.8412 10.0201C52.8548 10.0165 52.8668 10.0086 52.8754 9.99748C53.1429 9.69299 53.475 9.45199 53.8476 9.29202C54.2201 9.13205 54.6236 9.05715 55.0288 9.07279C55.8517 9.03736 56.6639 9.26968 57.3434 9.73486C57.9731 10.2076 58.4444 10.8602 58.6951 11.6063C58.9142 12.3212 59.0222 13.0655 59.0153 13.8132L59.0241 13.8375ZM59.9275 18.4543C59.906 18.4348 59.889 18.4109 59.8776 18.3842C59.8661 18.3576 59.8606 18.3288 59.8612 18.2998V6.02727C59.8606 5.99829 59.8661 5.96951 59.8776 5.94286C59.889 5.91621 59.906 5.89232 59.9275 5.87279C59.9486 5.8518 59.9738 5.83531 60.0015 5.82431C60.0292 5.81331 60.0589 5.80803 60.0887 5.80879H61.8268C61.8567 5.80803 61.8863 5.81331 61.914 5.82431C61.9417 5.83531 61.9669 5.8518 61.9881 5.87279C62.0095 5.89232 62.0265 5.91621 62.0379 5.94286C62.0494 5.96951 62.055 5.99829 62.0543 6.02727V18.2998C62.055 18.3288 62.0494 18.3576 62.0379 18.3842C62.0265 18.4109 62.0095 18.4348 61.9881 18.4543C61.9669 18.4753 61.9417 18.4918 61.914 18.5028C61.8863 18.5138 61.8567 18.5191 61.8268 18.5183H60.0887C60.0589 18.5191 60.0292 18.5138 60.0015 18.5028C59.9738 18.4918 59.9486 18.4753 59.9275 18.4543Z" fill="#F0F0F0"/>
<path d="M65.9149 11.218C65.6009 11.4501 65.372 11.7789 65.2634 12.1537C65.1757 12.4117 65.1244 12.6806 65.111 12.9526C65.0867 13.0144 65.111 13.0431 65.1861 13.0431H69.0224C69.0843 13.0431 69.1174 13.0144 69.1174 12.9526C69.1031 12.719 69.0647 12.4875 69.0025 12.2619C68.9101 11.8553 68.6751 11.4952 68.34 11.2467C67.9712 10.9934 67.5305 10.8657 67.0833 10.8826C66.6701 10.867 66.2628 10.9846 65.9216 11.218H65.9149ZM71.3525 13.8244L71.3348 14.3871C71.3348 14.5328 71.2597 14.6078 71.1139 14.6078H65.1861C65.1737 14.606 65.161 14.6071 65.1491 14.611C65.1372 14.6149 65.1264 14.6215 65.1174 14.6302C65.1084 14.6389 65.1016 14.6496 65.0974 14.6614C65.0932 14.6732 65.0919 14.6859 65.0933 14.6983C65.1031 14.9782 65.1606 15.2543 65.2634 15.5148C65.5579 16.3873 66.2941 16.8287 67.472 16.839C67.8697 16.8508 68.2642 16.7641 68.6203 16.5865C68.9764 16.409 69.283 16.1462 69.5127 15.8216C69.5323 15.7887 69.5601 15.7614 69.5934 15.7424C69.6267 15.7234 69.6643 15.7135 69.7027 15.7135C69.7521 15.713 69.7997 15.732 69.8352 15.7664L71.0057 16.6933C71.0311 16.7064 71.0531 16.7251 71.0703 16.7479C71.0874 16.7708 71.0992 16.7972 71.1047 16.8251C71.1102 16.8531 71.1093 16.882 71.1021 16.9096C71.0949 16.9372 71.0816 16.9629 71.0631 16.9846C70.6608 17.5255 70.123 17.951 69.5039 18.2183C68.8229 18.5178 68.0857 18.6683 67.3417 18.6597C66.4639 18.6877 65.5959 18.4682 64.8371 18.0263C64.1568 17.6107 63.6298 16.9857 63.3353 16.2453C63.0408 15.5921 62.8936 14.6843 62.8936 13.522C62.8733 12.9451 62.9479 12.3688 63.1144 11.8161C63.3427 10.9951 63.8524 10.2804 64.5544 9.79677C65.2965 9.29178 66.1792 9.03381 67.0766 9.05966C69.5576 9.05966 70.9564 10.3102 71.273 12.8114C71.326 13.1479 71.3511 13.4882 71.3481 13.8288L71.3525 13.8244ZM15.696 14.2922L12.6371 17.7173L15.3139 12.6415C15.3935 12.491 15.4409 12.3257 15.4531 12.1559L15.8771 13.4161C15.9272 13.5661 15.9368 13.7268 15.9051 13.8817C15.8733 14.0367 15.8012 14.1806 15.696 14.2988V14.2922ZM11.058 19.4718C10.9543 19.5879 10.8223 19.6751 10.6748 19.725C10.5273 19.7749 10.3694 19.7857 10.2165 19.7565L5.97824 18.9267L11.4644 18.6464C11.6169 18.64 11.7667 18.6048 11.9061 18.5427L11.0757 19.4718H11.058ZM2.7272 17.8321L1.28941 13.5684L4.34389 18.3816C4.40884 18.4845 4.48929 18.5768 4.58241 18.6553L3.40745 18.4346C3.25163 18.4046 3.10657 18.3339 2.98706 18.2296C2.86755 18.1253 2.77788 17.9911 2.7272 17.8409V17.8321ZM0.72401 10.4588L3.78291 7.03815L1.10389 12.114C1.02527 12.2655 0.978659 12.4315 0.966955 12.6017L0.542906 11.3416C0.490967 11.1918 0.480375 11.0307 0.512243 10.8754C0.544111 10.7201 0.617262 10.5762 0.72401 10.4588ZM5.34879 5.28146C5.45244 5.16288 5.58594 5.07417 5.73545 5.0245C5.88495 4.97483 6.04504 4.96602 6.1991 4.99898L10.4506 5.82435L4.95346 6.10684C4.80117 6.11459 4.65154 6.14972 4.51174 6.21056L5.34217 5.28146H5.34879ZM13.5979 9.67097L14.859 11.6572C14.9299 11.7684 14.9701 11.8964 14.9755 12.0282C14.9809 12.16 14.9514 12.2908 14.8899 12.4075L13.6178 14.8263V9.86518C13.6178 9.79994 13.6111 9.73486 13.5979 9.67097ZM2.81996 15.0933L1.56106 13.1071C1.49063 12.9953 1.45071 12.867 1.44529 12.735C1.43986 12.6029 1.46912 12.4718 1.53014 12.3546L2.80229 9.92918V14.8903C2.8027 14.9554 2.80861 15.0204 2.81996 15.0845V15.0933ZM13.1363 14.8991C13.1361 15.0018 13.1092 15.1026 13.058 15.1916C13.0069 15.2807 12.9334 15.3548 12.8447 15.4067L8.50266 17.9071C8.4135 17.9591 8.31213 17.9864 8.20892 17.9864C8.1057 17.9864 8.00434 17.9591 7.91518 17.9071L3.5753 15.3979C3.4864 15.3461 3.41256 15.272 3.36105 15.183C3.30954 15.094 3.28214 14.9931 3.28156 14.8903V9.86518C3.28108 9.76185 3.30801 9.66024 3.35961 9.57069C3.41121 9.48115 3.48563 9.40686 3.5753 9.35539L7.91518 6.84615C8.00434 6.79419 8.1057 6.76681 8.20892 6.76681C8.31213 6.76681 8.4135 6.79419 8.50266 6.84615L12.8447 9.35539C12.9337 9.40695 13.0074 9.48101 13.0586 9.57012C13.1098 9.65923 13.1366 9.76024 13.1363 9.86297V14.8903V14.8991ZM11.6698 6.62987L13.1738 9.00008C13.1451 8.98022 13.1164 8.96035 13.0855 8.9427L8.7434 6.43125L8.68156 6.39815L10.9962 6.28118C11.1293 6.27431 11.2619 6.30299 11.3803 6.36427C11.4987 6.42556 11.5986 6.51723 11.6698 6.62987ZM4.97775 6.58573L7.64131 6.45111L3.32794 8.9427L3.30806 8.95373L4.34389 6.98739C4.40495 6.87212 4.49478 6.77456 4.60468 6.70419C4.71458 6.63382 4.8408 6.59302 4.97113 6.58573H4.97775ZM4.75689 18.1256L3.24622 15.7554C3.27493 15.7753 3.30364 15.7951 3.33456 15.8128L7.67444 18.3242L7.73628 18.3551L5.42168 18.4743C5.29047 18.4785 5.16041 18.4486 5.04426 18.3875C4.9281 18.3263 4.82984 18.2361 4.7591 18.1256H4.75689ZM11.4467 18.1675L8.7964 18.3021L13.1032 15.8128L13.1208 15.7995L12.085 17.7681C12.024 17.8832 11.9341 17.9806 11.8242 18.0506C11.7142 18.1206 11.588 18.1609 11.4578 18.1675H11.4467ZM13.6928 6.9278L15.1284 11.1915L12.0739 6.37166C12.0085 6.26972 11.929 6.17758 11.8376 6.09801L13.0126 6.3187C13.1699 6.35066 13.3159 6.42395 13.4354 6.53101C13.555 6.63807 13.6439 6.77503 13.6928 6.9278ZM16.3321 13.2528L14.15 6.77111C14.0718 6.54042 13.934 6.33445 13.7506 6.17402C13.5671 6.0136 13.3446 5.9044 13.1054 5.85746L6.28524 4.5267C6.04973 4.48205 5.80665 4.49924 5.57979 4.57661C5.35293 4.65398 5.15005 4.78887 4.991 4.96808L0.352967 10.1477C0.193725 10.33 0.0853829 10.5511 0.0388548 10.7886C-0.00767325 11.0261 0.00925564 11.2716 0.0879362 11.5005L2.27223 17.9844C2.34989 18.215 2.48723 18.421 2.67031 18.5815C2.8534 18.7419 3.07571 18.8511 3.31468 18.898L10.1348 20.2221C10.2206 20.2397 10.3079 20.2486 10.3954 20.2486C10.5905 20.2486 10.7833 20.2074 10.9614 20.128C11.1395 20.0485 11.2988 19.9325 11.429 19.7874L16.0538 14.6122C16.2155 14.4299 16.3263 14.2084 16.3752 13.9697C16.424 13.7311 16.4092 13.4838 16.3321 13.2528Z" fill="#F0F0F0"/>
</g>
</g>
<defs>
<clipPath id="clip0_4092_1792">
<rect width="72" height="24" fill="white" transform="translate(0.0151367 0.5)"/>
</clipPath>
<clipPath id="clip1_4092_1792">
<rect width="72" height="16" fill="white" transform="translate(0.0151367 4.5)"/>
</clipPath>
</defs>
</svg>
