<svg width="72" height="24" viewBox="0 0 72 24" fill="none" xmlns="http://www.w3.org/2000/svg">
    <path fill-rule="evenodd" clip-rule="evenodd" d="M8.06097 9.73824C11.3555 11.824 12.0503 13.2283 12.4351 14.3251C11.2863 12.7129 9.86604 11.9145 8.55287 11.1763C8.05997 10.8993 7.58216 10.6307 7.13947 10.3307C2.20135 7.26723 1.22169 4.90746 1 4C3.73273 6.96662 5.88651 8.34433 7.45761 9.34931C7.66932 9.48473 7.87044 9.61338 8.06097 9.73824ZM43.7909 9.04478C43.7909 10.2001 42.7265 10.7992 41.5002 10.7992C40.46 10.7992 39.5643 10.4058 39.0658 9.84958V9.72976L39.8433 8.75361H39.9616C40.2656 9.05336 40.8909 9.38746 41.4069 9.38746C41.8132 9.38746 42.0759 9.25905 42.0759 9.04478C42.0759 8.80059 41.8285 8.73823 41.4395 8.64016C41.351 8.61784 41.2551 8.59367 41.1532 8.56509C40.3078 8.32545 39.311 7.84577 39.311 6.7494C39.311 5.73071 40.2149 5.02895 41.517 5.02895C42.4474 5.02895 43.2924 5.38842 43.7066 5.85912V5.97895L42.9205 6.92075H42.8022C42.5657 6.69788 42.1008 6.3552 41.5509 6.3552C41.2293 6.3552 41.0178 6.47502 41.0178 6.67212C41.0178 6.94612 41.3987 7.07492 41.771 7.18615C42.7179 7.46015 43.7909 7.78566 43.7909 9.04478ZM11.7394 9.76547V9.64565L10.7246 8.77215H10.6063C10.3273 9.08049 9.89636 9.31155 9.41434 9.31155C8.66183 9.31155 8.06974 8.73781 8.06974 7.95017C8.06974 7.16254 8.66183 6.5888 9.41434 6.5888C9.89636 6.5888 10.3273 6.81986 10.6063 7.1282H10.7246L11.7394 6.2547V6.13487C11.2066 5.48424 10.3698 5.06466 9.42253 5.06466C7.681 5.06466 6.36216 6.29763 6.36216 7.95017C6.36216 7.9877 6.36713 8.02348 6.3721 8.05933C6.37561 8.08463 6.37912 8.10996 6.3809 8.13596C6.84472 8.45144 7.27316 8.72592 7.66515 8.97705L7.66516 8.97705L7.66526 8.97712L7.66543 8.97723L7.66578 8.97744L7.66604 8.97761C7.87605 9.11216 8.07559 9.24 8.2645 9.36385C9.0455 9.85798 9.67584 10.3127 10.1949 10.7354C10.8421 10.5718 11.3666 10.2171 11.7394 9.76547ZM17.6153 10.4676L17.3616 9.37162L17.2687 9.31151L17.2576 9.31735L17.2474 9.32284C17.2044 9.3463 17.1579 9.37162 17.049 9.37162C16.8634 9.37162 16.7473 9.18495 16.649 9.0269L16.6345 9.00356C16.4655 8.74635 16.33 8.60935 16.2118 8.54964C16.8289 8.27565 17.2434 7.76201 17.2434 7.02551C17.2434 5.8866 16.4655 5.16727 15.0198 5.16727H12.5V10.733H14.174V8.7807H14.3262C14.6828 8.7807 15.133 9.52026 15.3632 9.89848L15.3918 9.94536C15.8484 10.6733 16.2118 10.8356 16.8628 10.8356C17.1672 10.8356 17.4209 10.7244 17.5732 10.5874L17.6153 10.4676ZM15.5354 7.11957C15.5354 7.48801 15.2649 7.66755 14.9519 7.66755H14.174V6.53724H14.9519C15.2649 6.53724 15.5354 6.74293 15.5354 7.11957ZM21.0147 5.06473C22.7648 5.06473 24.0836 6.2977 24.0836 7.95024C24.0836 9.5942 22.7648 10.8358 21.0147 10.8358C19.2641 10.8358 17.9453 9.60279 17.9453 7.95024C17.9453 6.2977 19.2641 5.06473 21.0147 5.06473ZM21.0147 9.31162C21.7668 9.31162 22.3756 8.74646 22.3756 7.95024C22.3756 7.15403 21.7668 6.58887 21.0147 6.58887C20.2622 6.58887 19.6533 7.15403 19.6533 7.95024C19.6533 8.74646 20.2622 9.31162 21.0147 9.31162ZM32.4625 5.16734H30.8646L29.8752 8.24996L28.8268 5.16734H27.8124L26.7722 8.23278L25.7832 5.16734H24.1849L24.1088 5.29575L26.1552 10.7331H27.1696L28.3194 7.70197L29.4778 10.7331H30.4926L32.5386 5.29575L32.4625 5.16734ZM35.7601 5.16734C37.5609 5.16734 38.6686 6.28049 38.6686 7.94162C38.6686 9.61992 37.5609 10.7331 35.7601 10.7331H33.1981V5.16734H35.7601ZM35.6925 9.3631C36.4279 9.3631 36.9606 8.85766 36.9606 7.9502C36.9606 7.04275 36.4279 6.53731 35.6925 6.53731H34.8721V9.3631H35.6925ZM47.5366 6.53737H49.2106V5.16741H44.1886V6.53737H45.8626V10.7331H47.5366V6.53737ZM52.339 5.1672C53.7847 5.1672 54.5625 5.88653 54.5625 7.02543C54.5625 7.75335 54.1566 8.2584 53.5563 8.54098L54.6726 10.6045L54.5965 10.7329H52.9307L51.8909 8.78063H51.4936V10.7329H49.8192V5.1672H52.339ZM52.2711 7.66748C52.5841 7.66748 52.8546 7.48794 52.8546 7.1195C52.8546 6.74286 52.5841 6.53717 52.2711 6.53717H51.4936V7.66748H52.2711ZM55.577 10.7331H57.251V5.16734H55.577V10.7331ZM63.3888 5.29575L61.4951 7.65904L63.5329 10.6047L63.4567 10.7331H61.7066L60.2859 8.66095L59.9815 9.02041V10.7331H58.3075V5.16734H59.9815V7.1454L61.529 5.16734H63.3127L63.3888 5.29575ZM63.9894 5.1672V10.7333H68.1996V9.36335H65.663V8.5925H67.5739V7.30801H65.663V6.53756H68.1746V5.1672H63.9894ZM12.6386 15.9147C12.2331 14.9866 11.4186 13.7957 8.22744 12.0952C8.09145 12.0196 7.94655 11.9402 7.79377 11.8565L7.79358 11.8564C6.29328 11.0345 4.033 9.79629 1.98103 7.62388C2.18594 8.48802 3.23585 10.3868 7.75166 12.7579C8.04254 12.9171 8.38019 13.0739 8.74624 13.244L8.74625 13.244C9.9539 13.805 11.4708 14.5097 12.6386 15.9147Z" fill="#FF001F"/>
    <path d="M28 19.9164V15.3621H30.8926V16.0446H28.8495V17.3329H30.5924V18.0153H28.8495V19.9164H28Z" fill="#E8E8E8"/>
    <path d="M32.3765 20C32.0592 20 31.8029 19.9095 31.6076 19.7284C31.4123 19.5427 31.3147 19.299 31.3147 18.9972C31.3147 18.8162 31.3537 18.656 31.4319 18.5167C31.5149 18.3728 31.6418 18.2498 31.8127 18.1476C31.9884 18.0455 32.2081 17.9596 32.4717 17.89C32.7403 17.8203 33.06 17.7669 33.4311 17.7298C33.4262 17.6416 33.4116 17.558 33.3871 17.4791C33.3676 17.3955 33.331 17.3236 33.2773 17.2632C33.2285 17.1982 33.1626 17.1495 33.0796 17.117C32.9966 17.0799 32.894 17.0613 32.772 17.0613C32.5962 17.0613 32.4229 17.0938 32.2521 17.1588C32.0861 17.2238 31.9225 17.3027 31.7614 17.3955L31.4538 16.8593C31.654 16.7386 31.8786 16.6342 32.1276 16.546C32.3765 16.4578 32.6451 16.4136 32.9331 16.4136C33.3823 16.4136 33.7167 16.5413 33.9364 16.7967C34.161 17.0474 34.2732 17.4118 34.2732 17.89V19.9164H33.5775L33.519 19.5404H33.4897C33.3286 19.6704 33.1552 19.7795 32.9697 19.8677C32.7891 19.9559 32.5914 20 32.3765 20ZM32.6475 19.3733C32.794 19.3733 32.9258 19.3408 33.043 19.2758C33.165 19.2108 33.2944 19.1179 33.4311 18.9972V18.2312C33.187 18.2591 32.9819 18.2962 32.8159 18.3426C32.6499 18.389 32.5157 18.4424 32.4132 18.5028C32.3106 18.5585 32.2374 18.6235 32.1935 18.6978C32.1495 18.7721 32.1276 18.851 32.1276 18.9345C32.1276 19.0877 32.1764 19.1992 32.274 19.2688C32.3717 19.3384 32.4962 19.3733 32.6475 19.3733Z" fill="#E8E8E8"/>
    <path d="M36.2111 20C35.9084 20 35.6961 19.9141 35.574 19.7423C35.452 19.5706 35.3909 19.3361 35.3909 19.039V15H36.2331V19.0808C36.2331 19.1783 36.2526 19.2479 36.2917 19.2897C36.3307 19.3268 36.3722 19.3454 36.4162 19.3454C36.4357 19.3454 36.4528 19.3454 36.4674 19.3454C36.487 19.3454 36.5138 19.3408 36.548 19.3315L36.6578 19.9304C36.5455 19.9768 36.3966 20 36.2111 20Z" fill="#E8E8E8"/>
    <path d="M38.9901 20C38.746 20 38.5166 19.9605 38.3018 19.8816C38.0918 19.8027 37.9088 19.6866 37.7525 19.5334C37.5963 19.3802 37.4743 19.1922 37.3864 18.9694C37.2985 18.7465 37.2546 18.4935 37.2546 18.2103C37.2546 17.9271 37.3034 17.6741 37.401 17.4513C37.4987 17.2284 37.6305 17.0404 37.7965 16.8872C37.9625 16.734 38.1529 16.6179 38.3677 16.539C38.5874 16.4554 38.8168 16.4136 39.056 16.4136C39.2904 16.4136 39.4906 16.4508 39.6565 16.5251C39.8274 16.5994 39.9788 16.6899 40.1106 16.7967L39.7005 17.3189C39.6028 17.24 39.5052 17.1797 39.4076 17.1379C39.3148 17.0915 39.2123 17.0682 39.1 17.0682C38.8071 17.0682 38.5703 17.1727 38.3896 17.3816C38.209 17.5859 38.1187 17.8621 38.1187 18.2103C38.1187 18.5539 38.2066 18.8301 38.3823 19.039C38.563 19.2433 38.7949 19.3454 39.078 19.3454C39.2196 19.3454 39.3514 19.3175 39.4735 19.2618C39.6004 19.2015 39.7151 19.1318 39.8177 19.0529L40.1618 19.5822C39.991 19.7214 39.803 19.8259 39.598 19.8955C39.3978 19.9652 39.1952 20 38.9901 20Z" fill="#E8E8E8"/>
    <path d="M42.2746 20C42.05 20 41.8352 19.9605 41.6301 19.8816C41.4251 19.8027 41.242 19.6866 41.0809 19.5334C40.9247 19.3802 40.8002 19.1922 40.7074 18.9694C40.6147 18.7465 40.5683 18.4935 40.5683 18.2103C40.5683 17.9271 40.6147 17.6741 40.7074 17.4513C40.8002 17.2284 40.9247 17.0404 41.0809 16.8872C41.242 16.734 41.4251 16.6179 41.6301 16.539C41.8352 16.4554 42.05 16.4136 42.2746 16.4136C42.4991 16.4136 42.714 16.4554 42.919 16.539C43.1289 16.6179 43.312 16.734 43.4682 16.8872C43.6245 17.0404 43.749 17.2284 43.8417 17.4513C43.9394 17.6741 43.9882 17.9271 43.9882 18.2103C43.9882 18.4935 43.9394 18.7465 43.8417 18.9694C43.749 19.1922 43.6245 19.3802 43.4682 19.5334C43.312 19.6866 43.1289 19.8027 42.919 19.8816C42.714 19.9605 42.4991 20 42.2746 20ZM42.2746 19.3454C42.5382 19.3454 42.7457 19.2433 42.897 19.039C43.0484 18.8301 43.124 18.5539 43.124 18.2103C43.124 17.8621 43.0484 17.5859 42.897 17.3816C42.7457 17.1727 42.5382 17.0682 42.2746 17.0682C42.0109 17.0682 41.8034 17.1727 41.6521 17.3816C41.5056 17.5859 41.4324 17.8621 41.4324 18.2103C41.4324 18.5539 41.5056 18.8301 41.6521 19.039C41.8034 19.2433 42.0109 19.3454 42.2746 19.3454Z" fill="#E8E8E8"/>
    <path d="M44.9316 19.9164V16.4972H45.6273L45.6859 16.9568H45.7152C45.8763 16.8083 46.0496 16.6806 46.2351 16.5738C46.4255 16.467 46.6452 16.4136 46.8942 16.4136C47.2799 16.4136 47.5606 16.532 47.7364 16.7688C47.9121 17.0009 48 17.3352 48 17.7716V19.9164H47.1578V17.876C47.1578 17.5929 47.1139 17.3932 47.026 17.2772C46.9381 17.1611 46.7941 17.1031 46.594 17.1031C46.4377 17.1031 46.2986 17.1402 46.1765 17.2145C46.0594 17.2841 45.9251 17.3886 45.7738 17.5279V19.9164H44.9316Z" fill="#E8E8E8"/>
</svg>
