<svg width="72" height="24" viewBox="0 0 72 24" fill="none" xmlns="http://www.w3.org/2000/svg">
    <g clip-path="url(#clip0_2665_1326)">
        <path d="M70.2302 9.14251L68.6278 13.8225C68.3364 14.6625 68.1908 15.1425 67.9213 15.9525H67.8921C67.6809 15.255 67.4915 14.6925 67.2148 13.8675L65.6561 9.13501H63.7915L67.0181 17.82C66.9453 18.0075 66.8724 18.2025 66.7923 18.405C66.5228 19.08 65.8819 19.5225 65.1754 19.5225H64.3742V21H65.1972C66.5301 21 67.7319 20.1675 68.2272 18.885C69.2542 16.2375 71.0022 11.73 72.0001 9.14251H70.2302Z" fill="#06AC38"/>
        <path d="M25.4872 16.1551C25.4872 19.2976 24.0888 21.0001 21.2627 21.0001C19.1578 21.0001 17.8905 19.8601 17.4389 18.1426H19.1432C19.4346 18.9376 20.0391 19.6501 21.2919 19.6501C23.222 19.6501 23.9067 18.4126 23.9067 16.0576C23.8921 16.0576 23.8921 16.0426 23.8775 16.0426C23.4624 16.7851 22.5301 17.4451 21.0515 17.4451C18.6771 17.4451 17.1621 15.6751 17.1621 13.1926C17.1621 10.6126 18.8009 8.87256 21.0661 8.87256C22.5301 8.87256 23.4114 9.51756 23.8921 10.2301C23.8775 10.0501 23.8775 9.86256 23.8775 9.68256V9.13506H25.4872V16.1551ZM18.932 13.1776C18.932 14.8651 19.8497 16.0726 21.423 16.0726C22.836 16.0726 23.9285 15.0451 23.9285 13.1251C23.9285 11.4226 22.9671 10.2826 21.423 10.2826C19.8789 10.2826 18.932 11.4226 18.932 13.1776Z" fill="#06AC38"/>
        <path d="M28.1456 13.92C28.2112 15.4425 29.158 16.65 30.7968 16.65C31.9549 16.65 32.5158 16.0875 32.9455 15.345H34.5697C34.089 16.9125 32.7561 18.0375 30.7313 18.0375C28.1311 18.0375 26.5068 16.2375 26.5068 13.5225C26.5068 10.8075 28.1966 8.89502 30.7313 8.89502C33.4772 8.89502 34.7445 11.0475 34.7445 13.38V13.9275H28.1456V13.92ZM33.0547 12.6C32.9091 11.2275 32.0715 10.2525 30.6949 10.2525C29.3766 10.2525 28.3641 11.145 28.2039 12.6H33.0547Z" fill="#06AC38"/>
        <path d="M37.3448 9.1425V10.2525C37.6143 9.4425 38.4373 8.9325 39.3842 8.9325C39.5954 8.9325 39.6901 8.9475 39.7994 8.9625V10.485C39.6537 10.455 39.4133 10.4325 39.2385 10.4325C37.7163 10.4325 37.4249 11.5875 37.4249 13.3275V17.8275H35.8007V10.7025C35.8007 10.155 35.8007 9.675 35.7861 9.15H37.3448V9.1425Z" fill="#06AC38"/>
        <path d="M56.479 16.5825C56.042 17.325 55.2262 18.0375 53.7986 18.0375C51.8394 18.0375 50.8779 16.8 50.8779 14.55V9.14246H52.4949V13.92C52.4949 15.6225 53.0411 16.65 54.3595 16.65C56.0929 16.65 56.3989 15.03 56.3989 13.125V9.14246H58.0231V16.515C58.0231 16.965 58.0231 17.3925 58.0377 17.82H56.479V16.5825Z" fill="#06AC38"/>
        <path d="M61.6718 9.14254H63.245V10.4325H61.6718V15.645C61.6718 16.47 62.0724 16.7175 62.6987 16.7175C62.808 16.7175 63.0046 16.7025 63.0993 16.6875V17.925C62.859 17.955 62.6842 17.9925 62.473 17.9925C60.9798 17.9925 60.033 17.4825 60.033 15.7425V10.4325H58.7656V9.14254H60.033V6.79504H61.6718V9.14254Z" fill="#06AC38"/>
        <path d="M2.6825 14.67H1V17.82H2.6825V14.67Z" fill="#06AC38"/>
        <path d="M7.33668 6.5775C6.43352 6.0825 5.80714 6 4.32858 6H1V13.17H2.6825H2.90101H4.31401C5.63233 13.17 6.61561 13.0875 7.48236 12.495C8.42922 11.85 8.91721 10.7775 8.91721 9.54C8.91721 8.1975 8.31268 7.125 7.33668 6.5775ZM4.70004 11.67H2.6825V7.5375L4.5835 7.5225C6.31699 7.5 7.18373 8.13 7.18373 9.555C7.18373 11.085 6.11305 11.67 4.70004 11.67Z" fill="#06AC38"/>
        <path d="M40.79 6H43.6015C47.8114 6.03 49.8362 8.145 49.8508 11.94C49.8653 15.1725 48.2411 17.7825 43.8783 17.8275H40.7973V6H40.79ZM42.4944 16.35H43.4777C46.5295 16.35 48.1246 15.15 48.1246 11.9325C48.1173 9.105 46.5368 7.485 43.6379 7.485C43.0771 7.485 42.4944 7.5 42.4944 7.5V16.35Z" fill="#06AC38"/>
        <path d="M14.8167 17.8275C14.7658 17.4825 14.7658 17.265 14.7366 16.635C14.0957 17.58 13.2435 17.9925 11.896 17.9925C10.1261 17.9925 8.84424 17.1 8.84424 15.48C8.84424 13.6125 10.5777 12.9975 12.8283 12.6825C13.3892 12.6 14.0156 12.5325 14.5618 12.4875C14.5618 10.77 13.6368 10.2525 12.6681 10.2525C11.6994 10.2525 10.9929 10.95 10.9929 11.865H9.41964C9.41964 10.1025 10.7671 8.91748 12.7045 8.91748C14.6419 8.91748 16.1351 9.74248 16.1351 12.9225V14.61C16.1351 16.0125 16.2006 17.04 16.3463 17.835H14.8167V17.8275ZM10.5923 15.4575C10.5923 16.2675 11.2332 16.7775 12.2602 16.7775C13.7679 16.7775 14.5764 15.8325 14.5764 14.145C14.5764 13.9275 14.5764 13.7775 14.591 13.68C11.8451 13.9725 10.5923 14.25 10.5923 15.4575Z" fill="#06AC38"/>
    </g>
    <defs>
        <clipPath id="clip0_2665_1326">
            <rect width="71" height="15" fill="white" transform="translate(1 6)"/>
        </clipPath>
    </defs>
</svg>
