<svg width="72" height="24" viewBox="0 0 72 24" fill="none" xmlns="http://www.w3.org/2000/svg">
    <g clip-path="url(#clip0_2626_88)">
        <path d="M15.2183 8.69724H23.4017V10.4862H20.3868V15.9248H18.2332V10.4862H15.2183V8.69724Z" fill="white"/>
        <path fill-rule="evenodd" clip-rule="evenodd" d="M26.3451 8.69724H29.1447L32.9972 15.9248H30.6043L29.9343 14.6367H25.5794L24.9573 15.9248H22.5645L26.3451 8.69724ZM26.393 13.0862H29.1447L27.7569 10.367L26.393 13.0862Z" fill="white"/>
        <path d="M36.8973 8.69724H33.5713V15.9248H35.7248V10.6771H35.7488L39.7926 15.9248H43.1186V8.69724H40.9651V13.9449H40.9412L36.8973 8.69724Z" fill="white"/>
        <path d="M44.5063 8.69724H46.6599V15.9248H44.5063V8.69724Z" fill="white"/>
        <path d="M50.1775 8.69724H48.0239V13.3486C48.0239 15.1376 48.9093 15.9963 50.8953 15.9963H53.9821C55.9442 15.9963 56.8534 15.1376 56.8534 13.3486V8.69724H54.6999V12.8715C54.6999 13.8018 54.3888 14.1596 53.5035 14.1596H51.3739C50.4885 14.1596 50.1775 13.8018 50.1775 12.8715V8.69724Z" fill="white"/>
        <path d="M58.1216 8.69724H61.4237L63.8644 13.3486L66.2811 8.69724H69.5832V15.9248H67.5014V10.7248H67.4775L64.654 15.9248H63.0508L60.2273 10.7248H60.2033V15.9248H58.1216V8.69724Z" fill="white"/>
        <path d="M70.5884 15.3284H70.7559V15.8294H70.8755V15.3284H71.0669V15.233H70.5884V15.3284Z" fill="white"/>
        <path d="M71.5934 15.8294L71.7609 15.3523V15.8294H71.8805V15.233H71.6891L71.5455 15.6385L71.4019 15.233H71.2105V15.8294H71.3302V15.3523L71.4976 15.8294H71.5934Z" fill="white"/>
        <path d="M12.8257 10.5339H4.044V12.5376H7.39395V17.8092C7.10682 17.8569 6.81968 17.8807 6.50861 17.8807C2.96724 17.8807 0.0958492 15.0183 0.119777 11.4881C0.119777 7.98165 2.96724 5.11926 6.50861 5.11926C9.71499 5.11926 12.371 7.45688 12.8257 10.5339Z" fill="#E23430"/>
        <path d="M12.8255 12.5376C12.5144 14.422 11.3659 16.0202 9.78662 16.9743V12.5376H12.8255Z" fill="#E23430"/>
    </g>
    <defs>
        <clipPath id="clip0_2626_88">
            <rect width="72" height="13" fill="white" transform="translate(0 5)"/>
        </clipPath>
    </defs>
</svg>
