<svg width="72" height="24" viewBox="0 0 72 24" fill="none" xmlns="http://www.w3.org/2000/svg">
    <g clip-path="url(#clip0_2698_2576)">
        <path d="M15.7367 8.6617V15.4166H14.0995V14.7008C13.7279 15.2824 13.0428 15.6179 12.0442 15.6179C10.3837 15.6179 9.55927 14.7903 9.55927 13.4706V8.6617H11.3475V13.0121C11.3475 13.7167 11.7423 14.1305 12.5087 14.1305C13.4028 14.1305 13.9485 13.6384 13.9485 12.7325V8.6617H15.7367ZM27.3485 10.6971V15.4166H25.5603V11.2116C25.5603 10.4063 25.2236 9.91426 24.4456 9.91426C23.6676 9.91426 23.2147 10.4734 23.2147 11.2563V15.4166H21.4265V11.2116C21.4265 10.3504 21.0549 9.91426 20.3118 9.91426C19.5222 9.91426 19.0809 10.4734 19.0809 11.2563V15.4166H17.2927V8.6617H18.9532V9.411C19.3596 8.76235 20.0331 8.43802 20.9504 8.43802C21.8445 8.43802 22.518 8.7959 22.9012 9.43336C23.3773 8.77353 24.0856 8.43802 25.0029 8.43802C26.5009 8.43802 27.3485 9.29916 27.3485 10.6971ZM41.7007 15.4166H39.9125V6.02237H41.7007V15.4166ZM61.0924 15.4166H59.3042V8.6617H61.0924V15.4166ZM59.2693 7.64399H61.1156V6H59.2693V7.64399ZM67.7924 13.1128C67.0608 13.8621 66.5615 14.1528 65.888 14.1528C65.0868 14.1528 64.5179 13.7055 64.2624 13.0121V11.0438C64.5295 10.3392 65.0984 9.89189 65.9113 9.89189C66.5035 9.89189 66.9795 10.0932 67.7343 10.7754L68.849 9.71295C67.9549 8.77353 67.0841 8.42684 65.9113 8.42684C64.274 8.42684 63.0083 9.25443 62.509 10.6412V13.4147C62.9967 14.8015 64.2392 15.6179 65.8648 15.6179C67.1305 15.6179 68.0014 15.2153 68.9768 14.0522L67.7924 13.1128ZM5.68094 11.2563C5.19324 11.1556 4.84489 11.0662 4.64749 11.0214C4.40364 10.9543 4.21785 10.8649 4.12496 10.7418V10.2274C4.28752 9.98136 4.68232 9.82479 5.22808 9.82479C5.98284 9.82479 6.50537 9.99254 7.32981 10.6188L8.29359 9.50047C7.3182 8.71761 6.48215 8.43802 5.27452 8.43802C3.88111 8.43802 2.91733 8.98602 2.53414 9.76887V11.4688C2.83605 12.0391 3.53276 12.3635 4.92617 12.6542C5.42548 12.7661 5.76222 12.8444 5.95962 12.8779C6.21508 12.9562 6.44731 13.0568 6.57504 13.2358V13.8285C6.40087 14.0969 5.98284 14.2423 5.43709 14.2423C5.04229 14.2535 4.6591 14.1752 4.29913 14.0298C3.95078 13.8956 3.54437 13.6384 3.03345 13.2358L2 14.343C3.11473 15.2936 4.05529 15.6179 5.39064 15.6179C6.81889 15.6179 7.82912 15.0923 8.21231 14.2535V12.5424C7.88718 11.9049 7.10919 11.5694 5.68094 11.2563ZM32.0397 8.42684C30.4257 8.42684 29.16 9.26561 28.6374 10.6076V13.4483C29.1484 14.7903 30.4257 15.6291 32.0397 15.6291C33.6537 15.6291 34.9078 14.7903 35.4187 13.4595V10.5965C34.8962 9.26561 33.6305 8.42684 32.0397 8.42684ZM33.6886 13.0233C33.4099 13.739 32.8177 14.164 32.0281 14.164C31.2501 14.164 30.6347 13.739 30.356 13.0233V11.0326C30.6347 10.3169 31.2269 9.88071 32.0281 9.88071C32.8177 9.88071 33.3983 10.3169 33.6769 11.0326L33.6886 13.0233ZM46.4847 8.42684C44.8707 8.42684 43.605 9.26561 43.0825 10.6076V13.4483C43.605 14.7903 44.8707 15.6291 46.4847 15.6291C48.0988 15.6291 49.3529 14.7903 49.8638 13.4595V10.5965C49.3529 9.26561 48.0872 8.42684 46.4847 8.42684ZM48.1336 13.0233C47.8549 13.739 47.2627 14.164 46.4847 14.164C45.7068 14.164 45.0913 13.739 44.8127 13.0233V11.0326C45.0913 10.3169 45.6835 9.88071 46.4847 9.88071C47.286 9.88071 47.8549 10.3169 48.1336 11.0326V13.0233ZM56.0877 8.6617V9.411C55.6348 8.76235 54.9265 8.43802 53.9511 8.43802C52.6274 8.43802 51.5591 9.22088 51.0946 10.4623V13.247C51.5475 14.4883 52.6158 15.26 53.9511 15.26C54.8452 15.26 55.5187 14.9692 55.9948 14.3989V14.9357C55.9948 16.0541 55.3213 16.5797 54.2763 16.5797C53.4983 16.5797 52.8596 16.356 51.8378 15.7745L50.9669 17.0158C51.9539 17.6533 53.1151 18 54.2995 18.0112C56.2735 18.0112 57.725 16.9935 57.725 15.0923V8.6617H56.0877ZM55.8671 12.7661C55.6 13.4035 55.0426 13.8062 54.3459 13.8062C53.6492 13.8062 53.0919 13.4147 52.8248 12.7661V10.9208C53.0919 10.2833 53.6376 9.89189 54.3459 9.89189C55.0542 9.89189 55.6 10.2833 55.8671 10.9208V12.7661Z" fill="white"/>
    </g>
    <defs>
        <clipPath id="clip0_2698_2576">
            <rect width="67" height="12" fill="white" transform="translate(2 6)"/>
        </clipPath>
    </defs>
</svg>
