<svg width="72" height="24" viewBox="0 0 72 24" fill="none" xmlns="http://www.w3.org/2000/svg">
    <g clip-path="url(#clip0_2626_1366)">
        <path d="M11.7244 4.29401L3.19824 5.86145V16.9317L11.7244 18.7931V4.29401ZM8.97976 8.02519V9.23274L6.99904 9.40606V10.4558H8.86168V11.6634H6.99904V13.0134L9.04628 13.2212V14.4289L5.83319 14.0395V8.39425L8.97976 8.02519Z" fill="#046DB2"/>
        <path d="M12.4639 7.22125V8.37652C12.5618 8.37861 12.657 8.38049 12.7644 8.38353C13.0689 8.39214 13.4693 8.80603 13.6581 9.12833C13.734 9.25795 13.4478 9.52668 13.4478 9.52668L12.9046 9.19765C12.7671 9.17518 12.617 9.15847 12.4639 9.15541V11.0752L13.2726 11.8647C13.5924 12.3521 13.174 12.2123 12.4639 11.7067V13.9453C12.6364 13.927 12.8024 13.8698 12.9241 13.7481L14.3614 12.3106C15.1294 11.8185 14.3633 13.0911 13.0468 14.4754C12.9177 14.6112 12.7236 14.6786 12.4639 14.7094V15.9495H17.4413C17.9461 15.9495 18.3525 15.5918 18.3525 15.1471V8.02382C18.3525 7.57917 17.9461 7.22125 17.4413 7.22125H12.4639ZM16.1123 8.36724C16.4267 8.36852 16.8009 8.38746 17.2371 8.39887C17.2371 8.39887 17.2747 8.98824 17.2371 10.2866C17.2284 10.5875 16.8095 10.9832 16.4834 11.1697C16.3522 11.2447 16.0803 10.9619 16.0803 10.9619L16.4132 10.4251C16.4731 10.0672 16.4926 9.62262 16.3256 9.26471C16.0695 9.14839 15.4642 9.03856 15.1515 9.35127L13.7143 10.7888C12.9462 11.2808 13.7124 10.0082 15.0289 8.6239C15.2306 8.41182 15.5883 8.36509 16.1123 8.36724ZM14.7695 10.9325C15.0385 10.9447 15.987 11.5987 16.9939 12.5337C17.3373 12.8526 17.2524 13.5665 17.2216 14.7158C17.2216 14.7158 16.6253 14.753 15.3114 14.7158C15.0069 14.7072 14.6063 14.2933 14.4176 13.971C14.3416 13.8414 14.6278 13.5729 14.6278 13.5729L15.1711 13.9019C15.5333 13.9611 15.9832 13.9801 16.3454 13.8151C16.4631 13.562 16.5742 12.9639 16.2578 12.6549L14.803 11.2349C14.663 11.0214 14.6642 10.9278 14.7695 10.9325Z" fill="#046DB2"/>
        <path d="M26.7315 15.6897H22.1226V7.25555H26.5374V8.14955H23.1414V10.955H26.2827V11.8431H23.1414V14.7957H26.7315V15.6897Z" fill="#046DB2"/>
        <path d="M32.403 9.64215L30.3487 12.7013L32.3672 15.6896H31.2266L30.0262 13.7289C29.9506 13.6069 29.861 13.4533 29.7575 13.2683H29.7336C29.7137 13.3037 29.6202 13.4573 29.453 13.7289L28.2288 15.6896H27.1001L29.1842 12.7249L27.1897 9.64215H28.3303L29.5127 11.7092C29.6003 11.8627 29.6859 12.0202 29.7695 12.1816H29.7933L31.3221 9.64215H32.403Z" fill="#046DB2"/>
        <path d="M37.3248 15.42C36.8767 15.6916 36.3452 15.8273 35.73 15.8273C34.8985 15.8273 34.2265 15.5558 33.7139 15.0127C33.2051 14.4658 32.9507 13.7583 32.9507 12.8902C32.9507 11.9226 33.226 11.1462 33.7765 10.5611C34.3271 9.97215 35.0618 9.67767 35.9806 9.67767C36.4932 9.67767 36.9451 9.77328 37.3362 9.9645V10.9283C36.9033 10.6223 36.4401 10.4693 35.9465 10.4693C35.3504 10.4693 34.8605 10.6854 34.4771 11.1176C34.0974 11.5459 33.9075 12.11 33.9075 12.8099C33.9075 13.4983 34.086 14.0413 34.4429 14.4391C34.8036 14.8368 35.2858 15.0357 35.8895 15.0357C36.3983 15.0357 36.8767 14.8655 37.3248 14.5251V15.42Z" fill="#046DB2"/>
        <path d="M43.6769 15.6897H42.7023V12.2242C42.7023 10.9711 42.2308 10.3446 41.2879 10.3446C40.8125 10.3446 40.4123 10.5267 40.0874 10.8909C39.7626 11.2511 39.6001 11.7151 39.6001 12.2829V15.6897H38.6255V6.78516H39.6001V10.6735H39.6239C40.0914 9.91388 40.757 9.53404 41.6207 9.53404C42.9915 9.53404 43.6769 10.3505 43.6769 11.9834L43.6769 15.6897Z" fill="#046DB2"/>
        <path d="M49.7094 15.6896H48.7256V14.7718H48.7016C48.2737 15.4755 47.6438 15.8273 46.812 15.8273C46.2002 15.8273 45.7203 15.6724 45.3723 15.3627C45.0284 15.0529 44.8564 14.6418 44.8564 14.1293C44.8564 13.0317 45.5323 12.393 46.884 12.2133L48.7256 11.9666C48.7256 10.9684 48.3037 10.4693 47.4599 10.4693C46.72 10.4693 46.0522 10.7103 45.4563 11.1921V10.2284C46.0602 9.86124 46.756 9.67767 47.5439 9.67767C48.9876 9.67767 49.7094 10.4081 49.7094 11.8691L49.7094 15.6896ZM48.7256 12.7181L47.2439 12.9131C46.788 12.9743 46.4441 13.0833 46.2122 13.2401C45.9802 13.3931 45.8642 13.6665 45.8642 14.0604C45.8642 14.3473 45.9702 14.5825 46.1822 14.766C46.3981 14.9458 46.6841 15.0357 47.04 15.0357C47.5279 15.0357 47.9298 14.8731 48.2457 14.5481C48.5657 14.2192 48.7256 13.8042 48.7256 13.3032V12.7181Z" fill="#046DB2"/>
        <path d="M56.2122 15.6896H55.2443V12.3395C55.2443 11.0927 54.7761 10.4693 53.8397 10.4693C53.3558 10.4693 52.9545 10.6472 52.6358 11.0028C52.321 11.3547 52.1637 11.8002 52.1637 12.3395V15.6896H51.1958V9.81535H52.1637V10.7906H52.1873C52.6436 10.0486 53.3046 9.67767 54.1702 9.67767C54.8312 9.67767 55.3368 9.8861 55.6869 10.303C56.0371 10.716 56.2122 11.3145 56.2122 12.0985L56.2122 15.6896Z" fill="#046DB2"/>
        <path d="M62.9502 15.2192C62.9502 17.3762 61.925 18.4547 59.8747 18.4547C59.1533 18.4547 58.523 18.317 57.9838 18.0416V17.1008C58.6407 17.468 59.2672 17.6516 59.8633 17.6516C61.2985 17.6516 62.0162 16.8829 62.0162 15.3454V14.7029H61.9934C61.5491 15.4525 60.8809 15.8273 59.9886 15.8273C59.2634 15.8273 58.6786 15.5673 58.2344 15.0471C57.794 14.5232 57.5737 13.8214 57.5737 12.9418C57.5737 11.9436 57.811 11.1501 58.2857 10.5611C58.7641 9.97215 59.4171 9.67767 60.2449 9.67767C61.0308 9.67767 61.6137 9.9951 61.9934 10.6299H62.0162V9.81535H62.9502V15.2192ZM62.0162 13.0336V12.1674C62.0162 11.7008 61.8586 11.3011 61.5434 10.9684C61.2321 10.6357 60.8429 10.4693 60.3759 10.4693C59.7987 10.4693 59.3469 10.6816 59.0204 11.1061C58.6938 11.5268 58.5306 12.1176 58.5306 12.8787C58.5306 13.5327 58.6862 14.0566 58.9976 14.4505C59.3127 14.8406 59.7285 15.0357 60.2449 15.0357C60.7689 15.0357 61.1941 14.8483 61.5207 14.4735C61.851 14.0987 62.0162 13.6187 62.0162 13.0336Z" fill="#046DB2"/>
        <path d="M69.5284 12.9877H65.4106C65.4258 13.6417 65.6004 14.1465 65.9346 14.5022C66.2687 14.8578 66.7281 15.0357 67.3129 15.0357C67.9697 15.0357 68.5735 14.8177 69.124 14.3817V15.2651C68.6114 15.6399 67.9337 15.8273 67.0908 15.8273C66.2668 15.8273 65.6194 15.5615 65.1486 15.0299C64.6778 14.4945 64.4424 13.743 64.4424 12.7754C64.4424 11.8614 64.6987 11.1176 65.2113 10.5439C65.7277 9.96642 66.3674 9.67767 67.1306 9.67767C67.8938 9.67767 68.4842 9.92626 68.9019 10.4234C69.3196 10.9206 69.5284 11.6109 69.5284 12.4943V12.9877ZM68.5716 12.1903C68.5678 11.6472 68.4368 11.2246 68.1786 10.9225C67.9242 10.6204 67.5692 10.4693 67.1135 10.4693C66.6731 10.4693 66.2991 10.628 65.9915 10.9455C65.684 11.2629 65.4941 11.6778 65.422 12.1903H68.5716Z" fill="#046DB2"/>
    </g>
    <defs>
        <clipPath id="clip0_2626_1366">
            <rect width="67" height="15" fill="white" transform="translate(3 4)"/>
        </clipPath>
    </defs>
</svg>
