<svg width="72" height="24" viewBox="0 0 72 24" fill="none" xmlns="http://www.w3.org/2000/svg">
<path fill-rule="evenodd" clip-rule="evenodd" d="M4.45161 6.25806C4.20219 6.25806 4 6.46025 4 6.70967V18.4426V18.4516C4 18.4592 4.00019 18.4667 4.00056 18.4742C4.04827 19.8314 7.16375 20.9265 11 20.9265C14.8362 20.9265 17.9516 19.8315 17.9994 18.4743C17.9998 18.4668 18 18.4592 18 18.4516L18 18.4426L18 6.70967C18 6.46025 17.7978 6.25806 17.5484 6.25806H4.45161Z" fill="#00CC66"/>
<path d="M4.00056 18.4742L4.38325 18.4607L4.38298 18.4554L4.00056 18.4742ZM17.9994 18.4743L17.617 18.4554L17.6168 18.4608L17.9994 18.4743ZM18 18.4516H18.3829V18.4516L18 18.4516ZM18 18.4426H17.6171V18.4426L18 18.4426ZM18 6.70967L18.3829 6.70967V6.70967H18ZM4.38289 6.70967C4.38289 6.67171 4.41366 6.64095 4.45161 6.64095V5.87517C3.99073 5.87517 3.61711 6.24879 3.61711 6.70967H4.38289ZM4.38289 18.4426V6.70967H3.61711V18.4426H4.38289ZM4.38289 18.4516V18.4426H3.61711V18.4516H4.38289ZM4.38298 18.4554C4.38292 18.4541 4.38289 18.4529 4.38289 18.4516H3.61711C3.61711 18.4655 3.61745 18.4793 3.61813 18.493L4.38298 18.4554ZM3.6179 18.4877C3.63524 18.9808 3.9295 19.3966 4.33241 19.7263C4.7381 20.0582 5.29708 20.3406 5.95287 20.5706C7.26754 21.0317 9.05022 21.3093 11 21.3093V20.5436C9.11353 20.5436 7.42035 20.2737 6.20629 19.848C5.59771 19.6345 5.12911 19.3887 4.81734 19.1336C4.5028 18.8762 4.38973 18.6462 4.38321 18.4607L3.6179 18.4877ZM11 21.3093C12.9498 21.3093 14.7324 21.0317 16.0471 20.5706C16.7028 20.3407 17.2618 20.0583 17.6675 19.7263C18.0704 19.3967 18.3647 18.9809 18.3821 18.4878L17.6168 18.4608C17.6103 18.6463 17.4972 18.8763 17.1826 19.1337C16.8708 19.3887 16.4022 19.6346 15.7936 19.848C14.5796 20.2738 12.8864 20.5436 11 20.5436V21.3093ZM17.6171 18.4516C17.6171 18.4529 17.6171 18.4541 17.617 18.4554L18.3819 18.4932C18.3825 18.4794 18.3829 18.4655 18.3829 18.4516H17.6171ZM17.6171 18.4426L17.6171 18.4516L18.3829 18.4516L18.3829 18.4425L17.6171 18.4426ZM17.6171 6.70967L17.6171 18.4426H18.3829L18.3829 6.70967L17.6171 6.70967ZM17.5484 6.64095C17.5863 6.64095 17.6171 6.67171 17.6171 6.70967H18.3829C18.3829 6.24879 18.0093 5.87517 17.5484 5.87517V6.64095ZM4.45161 6.64095H17.5484V5.87517H4.45161V6.64095Z" fill="black"/>
<path fill-rule="evenodd" clip-rule="evenodd" d="M11 8.96774C14.866 8.96774 18 7.85567 18 6.48387C18 5.11207 14.866 4 11 4C7.13401 4 4 5.11207 4 6.48387C4 7.85567 7.13401 8.96774 11 8.96774Z" fill="#FCFCFC" stroke="black" stroke-width="0.765778"/>
<path d="M18 14.6039C18 15.9757 14.866 17.0877 11 17.0877C7.13401 17.0877 4 15.9757 4 14.6039" stroke="black" stroke-width="0.765778"/>
<path d="M18 10.5393C18 11.9111 14.866 13.0232 11 13.0232C7.13401 13.0232 4 11.9111 4 10.5393" stroke="black" stroke-width="0.765778"/>
<path d="M27.3119 17.144C26.7999 17.144 26.2879 17.048 25.7759 16.856C25.2719 16.664 24.8199 16.384 24.4199 16.016L25.4279 14.804C25.7079 15.044 26.0199 15.24 26.3639 15.392C26.7079 15.544 27.0399 15.62 27.3599 15.62C27.7279 15.62 27.9999 15.552 28.1759 15.416C28.3599 15.28 28.4519 15.096 28.4519 14.864C28.4519 14.616 28.3479 14.436 28.1399 14.324C27.9399 14.204 27.6679 14.072 27.3239 13.928L26.3039 13.496C26.0399 13.384 25.7879 13.236 25.5479 13.052C25.3079 12.86 25.1119 12.624 24.9599 12.344C24.8079 12.064 24.7319 11.736 24.7319 11.36C24.7319 10.928 24.8479 10.536 25.0799 10.184C25.3199 9.83201 25.6479 9.55201 26.0639 9.34401C26.4879 9.13601 26.9719 9.03201 27.5159 9.03201C27.9639 9.03201 28.4119 9.12001 28.8599 9.29601C29.3079 9.47201 29.6999 9.72801 30.0359 10.064L29.1359 11.18C28.8799 10.98 28.6239 10.828 28.3679 10.724C28.1119 10.612 27.8279 10.556 27.5159 10.556C27.2119 10.556 26.9679 10.62 26.7839 10.748C26.6079 10.868 26.5199 11.04 26.5199 11.264C26.5199 11.504 26.6319 11.684 26.8559 11.804C27.0879 11.924 27.3719 12.052 27.7079 12.188L28.7159 12.596C29.1879 12.788 29.5639 13.052 29.8439 13.388C30.1239 13.724 30.2639 14.168 30.2639 14.72C30.2639 15.152 30.1479 15.552 29.9159 15.92C29.6839 16.288 29.3479 16.584 28.9079 16.808C28.4679 17.032 27.9359 17.144 27.3119 17.144Z" fill="white"/>
<path d="M34.7719 15.704C35.3079 15.704 35.7319 15.472 36.0439 15.008C36.3559 14.536 36.5119 13.884 36.5119 13.052C36.5119 12.268 36.3559 11.656 36.0439 11.216C35.7319 10.776 35.3079 10.556 34.7719 10.556C34.2359 10.556 33.8119 10.776 33.4999 11.216C33.1879 11.656 33.0319 12.268 33.0319 13.052C33.0319 13.884 33.1879 14.536 33.4999 15.008C33.8119 15.472 34.2359 15.704 34.7719 15.704ZM37.3519 19.184C36.5279 19.184 35.8279 18.98 35.2519 18.572C34.6759 18.172 34.2479 17.668 33.9679 17.06C33.1359 16.884 32.4679 16.448 31.9639 15.752C31.4679 15.056 31.2199 14.156 31.2199 13.052C31.2199 12.196 31.3679 11.472 31.6639 10.88C31.9679 10.28 32.3839 9.82401 32.9119 9.51201C33.4479 9.19201 34.0679 9.03201 34.7719 9.03201C35.4759 9.03201 36.0919 9.19201 36.6199 9.51201C37.1559 9.82401 37.5719 10.28 37.8679 10.88C38.1719 11.48 38.3239 12.204 38.3239 13.052C38.3239 14.1 38.0999 14.968 37.6519 15.656C37.2039 16.336 36.5999 16.784 35.8399 17C36.0239 17.272 36.2719 17.468 36.5839 17.588C36.9039 17.708 37.2279 17.768 37.5559 17.768C37.7239 17.768 37.8799 17.752 38.0239 17.72C38.1759 17.696 38.3079 17.668 38.4199 17.636L38.7319 18.92C38.5879 18.992 38.3959 19.052 38.1559 19.1C37.9239 19.156 37.6559 19.184 37.3519 19.184Z" fill="white"/>
<path d="M39.795 17V9.17601H41.559V15.512H44.655V17H39.795Z" fill="white"/>
</svg>
