<svg width="120" height="50" viewBox="0 0 120 50" fill="none" xmlns="http://www.w3.org/2000/svg">
<path d="M97.5578 14.9147L99.3923 11.2853L96.4763 12.7801L97.5578 14.9147Z" fill="#DC0F6F"/>
<path d="M100.332 20.3841L105.377 10.6793L100.213 13.0631L98.4127 16.5962L100.332 20.3841Z" fill="#C41361"/>
<path d="M106.306 12.6725L101.221 22.1395L103.282 26.2048L112.472 10L106.306 12.6725Z" fill="#951B59"/>
<path d="M18.2095 35.9776C18.1019 36.4758 17.6772 36.8325 17.1393 36.8325H14.3593C13.8214 36.8325 13.3967 36.5098 13.2551 35.9776L9.44458 22.9718H12.6153L15.1803 32.988C15.2878 33.4863 15.4294 34.0242 15.537 34.5224H16.0352C16.1088 34.0242 16.2504 33.4863 16.358 32.988L18.8153 22.9718H21.9861L18.2095 35.9776Z" fill="white"/>
<path d="M33.4633 34.3751L33.6048 36.6229C31.7137 36.8381 29.33 36.8381 27.1557 36.8381C25.3042 36.8381 24.1265 35.768 24.0926 34.058L24.0586 25.6499C24.0586 23.9399 25.2703 22.8358 27.1218 22.8358C29.262 22.8358 31.6854 22.8358 33.5709 23.017L33.4293 25.2988L28.0843 25.3328C27.4049 25.3328 27.1218 25.6555 27.1557 26.3689V28.4696L32.6819 28.4356V30.6438L27.1557 30.6778V33.3503C27.1557 34.0977 27.4388 34.3864 28.1183 34.3864H33.4633V34.3751Z" fill="white"/>
<path d="M43.7626 26.9635C43.7626 25.4291 43.2643 25.0044 41.6619 25.0044C40.8409 25.0044 40.1275 25.0044 39.4537 25.0384V28.9565H41.6619C43.3039 28.9565 43.8022 28.4923 43.7626 26.9635ZM47.4372 36.7306H44.1929L43.1227 32.4897C42.8736 31.6007 42.4433 31.312 41.628 31.312H39.4877L39.5217 36.7306H36.4925L36.4585 22.8698C38.1345 22.6886 39.2386 22.6886 41.7355 22.6547C45.3706 22.6547 46.8654 23.5436 46.8654 26.754C46.8654 28.7131 46.1859 29.9587 44.2268 30.2079V30.3154C44.9403 30.457 45.8688 30.9552 46.2199 32.3821L47.4316 36.7306H47.4372Z" fill="white"/>
<path d="M59.5483 23.0058L59.2992 25.2876C57.9799 25.214 57.1589 25.18 55.381 25.214C53.388 25.214 52.7765 26.2502 52.7765 29.738C52.7765 33.2258 53.3823 34.262 55.415 34.262C57.2665 34.262 58.3706 34.228 59.5823 34.0468L59.8654 36.3286C58.5801 36.7193 57.408 36.9005 55.4093 36.9005C51.1345 36.9005 49.5661 35.049 49.5661 29.738C49.5321 24.4666 51.1005 22.5415 55.3754 22.5415C57.3344 22.5755 58.297 22.6831 59.5426 23.0058" fill="white"/>
<path d="M69.389 30.6325L68.2113 26.3916C68.1037 25.967 67.9961 25.5027 67.9282 25.0724H67.3903L67.1072 26.3916L65.9691 30.6325H69.389ZM70.0628 33.0219H65.2897L64.2932 36.657H61.1564L65.1142 23.5776C65.2217 23.0793 65.686 22.7566 66.1843 22.7566H69.0719C69.6042 22.7566 70.0345 23.0397 70.1421 23.538L74.2018 36.6173H71.065L70.0685 33.0163L70.0628 33.0219Z" fill="white"/>
<path d="M83.5725 26.8559C83.5725 25.3215 83.0743 24.8968 81.4719 24.8968C80.6509 24.8968 79.9375 24.8968 79.2637 24.9308V28.849H81.4719C83.1083 28.815 83.6122 28.3847 83.5725 26.8559ZM87.2416 36.5833H83.9972L82.9271 32.3425C82.6779 31.4535 82.2476 31.1647 81.4323 31.1647H79.292L79.326 36.5833H76.2968L76.2628 22.7226C77.9388 22.5414 79.0429 22.5414 81.5399 22.5074C85.1749 22.5074 86.6697 23.3964 86.6697 26.6068C86.6697 28.5659 85.9902 29.8115 84.0312 30.0663V30.1739C84.7446 30.3154 85.6732 30.8137 86.0242 32.2405L87.2359 36.589L87.2416 36.5833Z" fill="white"/>
<path d="M97.0312 30.6325L95.8535 26.3916C95.7459 25.967 95.6383 25.5027 95.5704 25.0724H95.0325L94.7494 26.3916L93.6113 30.6325H97.0312ZM97.7106 33.0219H92.9375L91.941 36.657H88.8042L92.762 23.5776C92.8696 23.0793 93.3339 22.7566 93.8321 22.7566H96.7198C97.252 22.7566 97.6823 23.0397 97.7899 23.538L101.85 36.6173H98.7128L97.7163 33.0163L97.7106 33.0219Z" fill="white"/>
</svg>
