<svg width="72" height="24" viewBox="0 0 72 24" fill="none" xmlns="http://www.w3.org/2000/svg">
    <g clip-path="url(#clip0_2529_871)">
        <path d="M26.8774 11.9683C26.8774 9.80948 26.8808 7.64896 26.8724 5.49178C26.8724 5.19171 27.073 5.005 27.3766 5.005C27.9381 5.00167 28.503 5 29.0646 5.005C29.3833 5.00834 29.5688 5.20005 29.5654 5.49512C29.557 7.40557 29.5604 9.31936 29.5604 11.2298V11.3348C29.5638 11.5466 29.6582 11.7016 29.8555 11.7849C30.046 11.865 30.2248 11.8233 30.3799 11.6599C30.9466 11.0598 31.5115 10.458 32.0747 9.85616C32.4204 9.48607 32.7712 9.12098 33.1135 8.74923C33.2433 8.60919 33.3934 8.54251 33.5874 8.54584C34.2939 8.55085 35.0039 8.55085 35.7105 8.54584C35.9196 8.54584 36.0848 8.60919 36.1725 8.8009C36.2619 8.99929 36.2197 9.17599 36.0697 9.3377C35.0089 10.498 33.9516 11.6599 32.8926 12.8202C32.8083 12.9136 32.7256 13.0102 32.6599 13.1169C32.5418 13.3053 32.5418 13.4904 32.6514 13.6821C32.7695 13.8888 32.9364 14.0555 33.1017 14.2239C34.385 15.5275 35.6717 16.8312 36.9584 18.1315C37.1135 18.2898 37.159 18.4632 37.0815 18.6666C37.0073 18.8566 36.8605 18.9433 36.6194 18.9433C35.8336 18.9433 35.046 18.94 34.2602 18.9433C34.0831 18.9433 33.9466 18.8883 33.8201 18.7549C32.6784 17.5697 31.5283 16.391 30.3816 15.2108C30.2181 15.0407 30.0359 14.9974 29.8471 15.0757C29.6565 15.1508 29.557 15.3108 29.557 15.5425V18.4482C29.557 18.7616 29.3968 18.9233 29.0831 18.925H27.3563C27.0106 18.925 26.8757 18.7899 26.8757 18.4532L26.8774 11.9683ZM37.5924 9.79614C37.5924 8.36747 37.5975 6.93713 37.5874 5.50845C37.584 5.18504 37.7745 5 38.1068 5C38.6531 5.00333 39.1961 5 39.7408 5C40.0595 5 40.2417 5.17671 40.2417 5.49012C40.245 6.32365 40.245 7.15885 40.2467 7.99238C40.2467 8.35246 40.4339 8.53918 40.7948 8.53918H43.0629C43.3024 8.53918 43.4592 8.66754 43.5064 8.89926C43.53 9.01095 43.5216 9.12265 43.525 9.23768V10.6197C43.525 10.9814 43.3614 11.1431 42.9955 11.1431C42.2703 11.1431 41.5452 11.1398 40.8201 11.1398C40.4491 11.1398 40.2585 11.3248 40.2552 11.6866C40.2518 12.4218 40.24 13.1536 40.2501 13.8888C40.2653 15.009 41.1337 16.041 42.2619 16.3044C42.5941 16.3827 42.9314 16.396 43.2686 16.3494C43.5435 16.311 43.7425 16.4561 43.7745 16.7295C43.8437 17.3113 43.9061 17.8947 43.9668 18.4765C43.9904 18.6983 43.8268 18.9016 43.5958 18.9383C42.9735 19.0433 42.3513 19.0067 41.7391 18.87C39.5536 18.3865 37.9482 16.6594 37.6346 14.4706C37.6025 14.2539 37.5924 14.0372 37.5924 13.8221V9.79614ZM56.9971 16.6228C56.9971 16.4244 56.8437 16.286 56.643 16.276C56.5064 16.271 56.3715 16.266 56.2349 16.2543C55.5368 16.2027 55.1776 15.8793 55.0511 15.1991C54.9533 14.6806 54.9567 14.1538 54.9533 13.6271C54.9482 12.115 54.9499 10.603 54.9499 9.09097C54.9499 9.04596 54.9499 9.00429 54.9466 8.96094C54.928 8.71588 54.7493 8.54084 54.498 8.54084C53.9095 8.53751 53.3192 8.53751 52.7307 8.54084C52.4643 8.54084 52.2754 8.72922 52.2636 8.98928C52.2602 9.05263 52.2636 9.11765 52.2636 9.19266C52.213 9.16599 52.1742 9.14765 52.1371 9.12932C51.0747 8.57752 49.9482 8.39914 48.7644 8.59419C45.7509 9.09431 43.7864 12.0784 44.5351 15.0057C45.4862 18.7199 49.9904 20.1986 53.0039 17.7814C53.0747 17.7247 53.1034 17.7264 53.159 17.803C53.4693 18.2415 53.8791 18.5582 54.3884 18.7499C54.9499 18.9617 55.5351 18.99 56.1287 18.9483C56.3395 18.9333 56.5486 18.9033 56.7408 18.8083C56.8774 18.7399 56.9887 18.6382 56.9921 18.4832C57.0039 17.8631 57.0005 17.2429 56.9971 16.6228ZM49.6649 16.3544C48.1995 16.3494 47.0342 15.1708 47.0393 13.6937C47.0444 12.2967 48.2417 11.1365 49.6784 11.1398C51.1523 11.1431 52.3159 12.3134 52.3125 13.7938C52.3074 15.1891 51.1017 16.356 49.6649 16.3544ZM20.2956 8.51917C17.4963 8.52417 15.0646 10.6613 15.0022 13.6304C14.9381 16.7011 17.3985 18.8983 20.1455 18.9667C23.0831 19.04 25.5165 16.7478 25.5671 13.8521C25.616 10.9047 23.2804 8.55251 20.2956 8.51917ZM20.2771 16.3544C18.8319 16.3544 17.6464 15.1808 17.643 13.7471C17.6396 12.3117 18.8234 11.1398 20.2821 11.1348C21.7374 11.1315 22.9162 12.3001 22.9162 13.7437C22.9162 15.1874 21.7374 16.3544 20.2771 16.3544Z" fill="#007DC1"/>
    </g>
    <defs>
        <clipPath id="clip0_2529_871">
            <rect width="42" height="14" fill="white" transform="translate(15 5)"/>
        </clipPath>
    </defs>
</svg>
