<svg width="72" height="24" viewBox="0 0 72 24" fill="none" xmlns="http://www.w3.org/2000/svg">
<g clip-path="url(#clip0_4070_6228)">
<path fill-rule="evenodd" clip-rule="evenodd" d="M17.4664 9.51515C16.7473 9.51346 16.0503 9.76652 15.4974 10.2301V9.58775H13.7012V16.6426H15.5694V12.1326C15.7701 11.8694 16.0265 11.6545 16.3198 11.5034C16.613 11.3523 16.936 11.2689 17.2652 11.2592C17.52 11.246 17.7748 11.2845 18.0146 11.3725V9.56355C17.8336 9.53153 17.6502 9.51533 17.4664 9.51515Z" fill="white"/>
<path fill-rule="evenodd" clip-rule="evenodd" d="M1.1784 14.4897C1.71184 14.9445 2.38894 15.1921 3.08749 15.1877C3.5904 15.1877 3.97822 14.9402 3.97822 14.5915C3.97822 13.5294 0.601313 13.9078 0.601313 11.6385C0.601313 10.2861 1.89459 9.44238 3.27404 9.44238C4.11172 9.4447 4.93057 9.69317 5.6304 10.1574L4.75659 11.5219C4.3709 11.2268 3.90409 11.0593 3.42022 11.0423C2.90313 11.0423 2.47168 11.2458 2.47168 11.6094C2.47168 12.5257 5.84913 12.1621 5.84913 14.6058C5.84913 15.9588 4.54004 16.7876 3.07549 16.7876C2.06635 16.7778 1.08587 16.4479 0.272949 15.8449L1.1784 14.4897Z" fill="white"/>
<path fill-rule="evenodd" clip-rule="evenodd" d="M12.9038 13.0493C12.9038 11.0858 11.5402 9.44238 9.61254 9.44238C7.54309 9.44238 6.22091 11.1584 6.22091 13.1224C6.20038 13.6107 6.28092 14.098 6.4574 14.5532C6.63389 15.0084 6.90244 15.4215 7.24597 15.7663C7.5895 16.1111 8.00047 16.38 8.45272 16.5558C8.90496 16.7316 9.38856 16.8106 9.87273 16.7876C10.4113 16.7948 10.9452 16.6856 11.4385 16.4674C11.9318 16.2492 12.373 15.9271 12.7325 15.5226L11.6689 14.4463C11.4462 14.6941 11.1761 14.894 10.8748 15.034C10.5736 15.1739 10.2474 15.2511 9.91582 15.2608C9.44994 15.2761 8.99579 15.1118 8.64579 14.8014C8.29579 14.491 8.07624 14.0578 8.03182 13.5899H12.8607C12.8905 13.4113 12.9049 13.2304 12.9038 13.0493ZM8.118 12.2061C8.18503 11.8567 8.3711 11.5418 8.64402 11.316C8.91694 11.0902 9.25953 10.9677 9.61254 10.9697C9.95265 10.9702 10.2808 11.0963 10.535 11.3241C10.7893 11.5519 10.952 11.8656 10.9925 12.2061H8.118Z" fill="white"/>
<path fill-rule="evenodd" clip-rule="evenodd" d="M22.4672 13.8933L24.3784 9.58789H26.3192L23.1141 16.6427H21.8208L18.6157 9.58789H20.5559L22.4672 13.8933Z" fill="white"/>
<path fill-rule="evenodd" clip-rule="evenodd" d="M27.8878 6.2751C28.1242 6.27944 28.354 6.35407 28.5485 6.48963C28.7429 6.6252 28.8933 6.81565 28.9808 7.0371C29.0683 7.25854 29.089 7.50111 29.0402 7.73436C28.9915 7.96761 28.8755 8.18115 28.7069 8.34817C28.5382 8.5152 28.3244 8.62828 28.0922 8.67321C27.8601 8.71814 27.6199 8.69293 27.4019 8.60074C27.1839 8.50855 26.9978 8.35348 26.8668 8.155C26.7359 7.95652 26.6661 7.72347 26.666 7.4851C26.666 7.32433 26.6977 7.16517 26.7594 7.01692C26.8211 6.86866 26.9114 6.73428 27.0252 6.62163C27.1389 6.50898 27.2738 6.42031 27.4219 6.36082C27.57 6.30132 27.7284 6.27218 27.8878 6.2751Z" fill="white"/>
<path d="M28.8218 9.58789H26.9536V16.6427H28.8218V9.58789Z" fill="white"/>
<path fill-rule="evenodd" clip-rule="evenodd" d="M36.5456 15.2021C36.1918 15.7121 35.7169 16.1244 35.1642 16.4014C34.6115 16.6784 33.9987 16.8113 33.382 16.7877C32.8953 16.8002 32.411 16.7141 31.9579 16.5347C31.5047 16.3553 31.0918 16.0861 30.7435 15.743C30.3952 15.4 30.1187 14.9901 29.9302 14.5374C29.7417 14.0848 29.6451 13.5987 29.646 13.1078C29.647 12.6169 29.7455 12.1311 29.9357 11.6792C30.126 11.2273 30.4041 10.8185 30.7537 10.4768C31.1033 10.1351 31.5172 9.86758 31.9711 9.68993C32.4249 9.51227 32.9095 9.42814 33.3961 9.44249C33.9589 9.43826 34.5153 9.56305 35.0232 9.80745C35.5311 10.0518 35.9772 10.4095 36.328 10.8532L35.0058 12.0313C34.8214 11.7738 34.5798 11.5633 34.3003 11.4168C34.0208 11.2703 33.7111 11.1918 33.3961 11.1876C33.1457 11.1866 32.8976 11.2362 32.6665 11.3336C32.4354 11.431 32.226 11.5741 32.0508 11.7545C31.8755 11.9349 31.7379 12.149 31.6462 12.3839C31.5544 12.6189 31.5103 12.8701 31.5165 13.1225C31.5082 13.3788 31.5525 13.634 31.6467 13.8722C31.7408 14.1103 31.8828 14.3263 32.0636 14.5066C32.2445 14.6868 32.4603 14.8274 32.6976 14.9195C32.9349 15.0117 33.1885 15.0534 33.4425 15.042C33.7745 15.0354 34.0998 14.9471 34.3903 14.785C34.6808 14.6228 34.9276 14.3916 35.1094 14.1114L36.5456 15.2021Z" fill="white"/>
<path fill-rule="evenodd" clip-rule="evenodd" d="M43.332 15.5221C42.9725 15.9266 42.5312 16.2488 42.0379 16.467C41.5447 16.6851 41.0108 16.7943 40.4722 16.7871C39.9881 16.8099 39.5047 16.7307 39.0527 16.5548C38.6006 16.3789 38.1898 16.1099 37.8465 15.7652C37.5031 15.4204 37.2347 15.0074 37.0583 14.5523C36.882 14.0972 36.8015 13.6101 36.822 13.1219C36.822 11.1579 38.1442 9.44189 40.2136 9.44189C42.1391 9.44189 43.5043 11.0853 43.5043 13.0488C43.5055 13.2292 43.4911 13.4094 43.4612 13.5872H38.6323C38.6764 14.0552 38.8956 14.4887 39.2454 14.7994C39.5952 15.1101 40.0493 15.2748 40.5152 15.2598C40.8469 15.25 41.1731 15.1728 41.4744 15.0328C41.7758 14.8928 42.046 14.693 42.2689 14.4452L43.332 15.5221ZM41.5931 12.2062C41.5527 11.8657 41.39 11.552 41.1359 11.3242C40.8817 11.0964 40.5537 10.9703 40.2136 10.9698C39.8606 10.9677 39.5179 11.0902 39.245 11.3159C38.972 11.5417 38.786 11.8567 38.7191 12.2062H41.5931Z" fill="white"/>
<path fill-rule="evenodd" clip-rule="evenodd" d="M44.2471 16.6424V9.5876H46.0433V10.1546C46.5965 9.69209 47.2931 9.44002 48.0118 9.4424C48.4722 9.4411 48.9273 9.5421 49.3446 9.7382C49.762 9.93431 50.1314 10.2207 50.4265 10.577C50.9639 11.2828 51.2201 12.1656 51.1449 13.052V16.6424H49.2767V12.9024C49.3029 12.6647 49.2794 12.424 49.2076 12.196C49.1358 11.9679 49.0174 11.7576 48.86 11.5786C48.5755 11.3131 48.1984 11.172 47.8111 11.1859C47.4819 11.1957 47.1591 11.2791 46.8658 11.43C46.5725 11.581 46.3162 11.7957 46.1152 12.0587V16.6424H44.2471Z" fill="white"/>
<path fill-rule="evenodd" clip-rule="evenodd" d="M55.9559 9.44251C55.1362 9.44078 54.3349 9.68738 53.6559 10.1503C52.9769 10.6133 52.4514 11.2713 52.1477 12.0389C51.8439 12.8066 51.7759 13.6486 51.9524 14.4557C52.1289 15.2628 52.5418 15.9979 53.1375 16.5656C53.2773 16.6997 53.46 16.779 53.6527 16.7891C53.8454 16.7992 54.0353 16.7394 54.1881 16.6206C54.6921 16.2423 55.3036 16.0381 55.9319 16.0381C56.5602 16.0381 57.1717 16.2423 57.6757 16.6206C57.8299 16.7397 58.0215 16.7989 58.2154 16.7875C58.4094 16.7761 58.5928 16.6948 58.7323 16.5584C59.3233 15.9928 59.7334 15.2621 59.91 14.46C60.0866 13.6579 60.0215 12.8209 59.7233 12.0562C59.425 11.2916 58.907 10.6342 58.2358 10.1684C57.5646 9.7025 56.7707 9.44936 55.9559 9.44141M55.9319 15.6251C55.6625 15.6324 55.3944 15.5843 55.1441 15.4837C54.8937 15.3832 54.6663 15.2322 54.4757 15.0401C54.2851 14.848 54.1353 14.6187 54.0355 14.3663C53.9357 14.1138 53.888 13.8436 53.8952 13.5719C53.8952 13.0272 54.1097 12.5049 54.4917 12.1197C54.8737 11.7346 55.3917 11.5182 55.9319 11.5182C56.4721 11.5182 56.9901 11.7346 57.3721 12.1197C57.754 12.5049 57.9686 13.0272 57.9686 13.5719C57.9758 13.8436 57.9281 14.1138 57.8283 14.3663C57.7285 14.6187 57.5787 14.848 57.3881 15.0401C57.1975 15.2322 56.9701 15.3832 56.7197 15.4837C56.4694 15.5843 56.2013 15.6324 55.9319 15.6251Z" fill="#62D84E"/>
<path fill-rule="evenodd" clip-rule="evenodd" d="M63.7023 16.6427H62.3109L59.5361 9.58789H61.4016L62.9229 13.6194L64.4147 9.58789H65.9736L67.4518 13.6194L68.9861 9.58789H70.8521L68.0774 16.6427H66.686L65.1941 12.6255L63.7023 16.6427Z" fill="white"/>
<path d="M70.8739 15.8448H70.7162V16.1435H70.582V15.3262H70.9093C70.9436 15.326 70.9776 15.3327 71.0093 15.3459C71.041 15.3591 71.0698 15.3784 71.094 15.4029C71.1182 15.4273 71.1374 15.4563 71.1505 15.4883C71.1635 15.5203 71.1702 15.5545 71.17 15.5891C71.1696 15.6403 71.1541 15.6903 71.1255 15.7326C71.0968 15.7749 71.0563 15.8077 71.0091 15.8267L71.1935 16.1451H71.0473L70.8739 15.8448ZM70.7162 15.7244H70.9093C70.9455 15.7244 70.9802 15.7099 71.0057 15.6841C71.0313 15.6583 71.0457 15.6233 71.0457 15.5869C71.0457 15.5504 71.0313 15.5154 71.0057 15.4896C70.9802 15.4639 70.9455 15.4494 70.9093 15.4494H70.7179L70.7162 15.7244Z" fill="white"/>
<path d="M70.8547 14.9915C71.0034 14.9914 71.1489 15.0358 71.2727 15.119C71.3965 15.2023 71.493 15.3207 71.55 15.4593C71.607 15.5979 71.622 15.7504 71.593 15.8976C71.564 16.0447 71.4924 16.1799 71.3873 16.286C71.2821 16.3922 71.1481 16.4645 71.0021 16.4938C70.8562 16.5231 70.705 16.5081 70.5675 16.4507C70.43 16.3933 70.3125 16.2961 70.2298 16.1714C70.1471 16.0466 70.103 15.9 70.103 15.7499C70.1033 15.549 70.1826 15.3563 70.3235 15.2141C70.4643 15.072 70.6553 14.9919 70.8547 14.9915ZM70.8547 14.8716C70.682 14.8716 70.5133 14.9232 70.3698 15.0199C70.2263 15.1166 70.1144 15.254 70.0484 15.4148C69.9823 15.5756 69.965 15.7526 69.9987 15.9233C70.0324 16.094 70.1155 16.2508 70.2375 16.3738C70.3596 16.4969 70.5151 16.5807 70.6844 16.6147C70.8537 16.6486 71.0292 16.6312 71.1886 16.5646C71.3481 16.498 71.4844 16.3852 71.5803 16.2405C71.6762 16.0958 71.7274 15.9256 71.7274 15.7516C71.7274 15.5182 71.6354 15.2944 71.4718 15.1293C71.3081 14.9643 71.0861 14.8716 70.8547 14.8716Z" fill="white"/>
</g>
<defs>
<clipPath id="clip0_4070_6228">
<rect width="72" height="11" fill="white" transform="translate(0 6)"/>
</clipPath>
</defs>
</svg>
