<svg width="72" height="24" viewBox="0 0 72 24" fill="none" xmlns="http://www.w3.org/2000/svg">
<path fill-rule="evenodd" clip-rule="evenodd" d="M32.5719 4.8023L32.9224 4.04855C32.3112 3.728 31.6471 3.56181 30.8697 3.5625C29.6591 3.5625 28.8518 4.10209 28.8518 4.79674C28.8518 5.56231 29.4992 5.84116 30.7807 6.01917C31.7062 6.14432 31.926 6.23886 31.926 6.4586C31.926 6.702 31.5998 6.85009 30.9469 6.85009C30.253 6.85009 29.5291 6.6422 28.9888 6.36333L28.6384 7.14075C29.2732 7.46128 30.0145 7.66923 30.8871 7.66923C32.0678 7.66923 32.9815 7.1943 32.9815 6.40509C32.9815 5.6395 32.3765 5.36623 31.0707 5.1764C30.109 5.03942 29.9074 4.93859 29.9074 4.73694C29.9074 4.53529 30.1744 4.3691 30.8155 4.3691C31.4204 4.3691 32.0498 4.54155 32.5719 4.8023ZM15.1898 3.63904C16.2877 3.63904 16.9045 4.16124 16.9045 4.98036C16.9045 5.84675 16.2224 6.35089 15.1362 6.35089H13.9437V7.59139H12.9111V3.63904H15.1898ZM13.9436 5.55628H14.988C15.6583 5.55628 15.878 5.34281 15.878 4.99861C15.878 4.66624 15.6347 4.44095 15.0353 4.44095H13.9436V5.55628ZM20.0265 7.59139H18.9939V3.63904H21.5813C22.6674 3.63904 23.2432 4.11952 23.2432 4.93238C23.2432 5.57349 22.8218 5.99485 22.205 6.16103L23.4392 7.59139H22.2585L21.1126 6.23825H20.0265V7.59139ZM20.0266 5.47272H21.3324C21.9082 5.47272 22.1988 5.30028 22.1988 4.95052C22.1988 4.61814 21.9617 4.43457 21.3797 4.43457H20.0266V5.47272ZM26.6444 3.63905V7.59141H25.6056V3.63905H26.6444ZM36.4602 3.63904L37.8426 6.32726H37.8606L39.2312 3.63904H40.7387V7.59139H39.7179V4.64173H39.7061L38.1812 7.59693H37.4455L35.9207 4.64173H35.9088V7.59139H34.9534V3.63904H36.4602ZM46.145 6.88488H43.8782L43.5284 7.59133H42.4542L44.4658 3.61537H45.5929L47.6108 7.59133H46.4955L46.145 6.88488ZM44.2339 6.16102H45.7887L45.0176 4.58817H45.0058L44.2339 6.16102ZM48.0005 3.63898V4.06593H47.9045V3.82116C47.9045 3.81919 47.9047 3.81721 47.9048 3.81516L47.9048 3.81507V3.81505C47.905 3.81281 47.9052 3.81047 47.9052 3.80795L47.8065 3.99987C47.803 4.00682 47.7974 4.01308 47.7905 4.01725C47.7842 4.02142 47.7765 4.02281 47.7682 4.02281H47.755C47.7467 4.02281 47.739 4.02073 47.7328 4.01725C47.7265 4.01308 47.7209 4.00752 47.7168 3.99987L47.618 3.80795C47.618 3.81059 47.6182 3.81323 47.6184 3.81565L47.6187 3.82116V4.06593H47.5235V3.63898H47.602C47.6069 3.63898 47.6104 3.63898 47.6139 3.63968C47.6173 3.63968 47.6201 3.64037 47.6236 3.64176C47.6271 3.64316 47.6298 3.64455 47.6326 3.64733C47.6347 3.64941 47.6375 3.65289 47.6396 3.65706L47.746 3.86845C47.7501 3.8754 47.7536 3.88305 47.7571 3.8914L47.7599 3.89731L47.7626 3.90322C47.7637 3.90107 47.7646 3.89892 47.7655 3.89677L47.7682 3.8907C47.7717 3.88305 47.7759 3.87471 47.7801 3.86706L47.8864 3.65706C47.8884 3.65305 47.8905 3.65032 47.8925 3.64764L47.8927 3.64733C47.8955 3.64455 47.8983 3.64246 47.9017 3.64176C47.9045 3.64037 47.9073 3.63968 47.9115 3.63968C47.9149 3.63898 47.9184 3.63898 47.9233 3.63898H48.0005ZM47.4838 3.63898H47.1424V3.7259H47.2599V4.06593H47.3663V3.7259H47.4838V3.63898Z" fill="#F1F1F1"/>
<path fill-rule="evenodd" clip-rule="evenodd" d="M6.10341 7.70043L8.27428 3.63823V2L6.53314 3.74184L6.18617 4.08812L4 6.27498L8.27428 10.55V7.70043H6.10341ZM8.27438 3.63818V7.70037H10.446L8.27438 3.63818Z" fill="#54BEE4"/>
<path d="M12.9375 19.875H13.7158C13.9715 19.875 14.1327 19.9995 14.1327 20.2419C14.1327 20.4057 14.0771 20.517 13.9215 20.576C14.0827 20.6481 14.1549 20.7463 14.1549 20.9232C14.1549 21.2246 13.9604 21.3359 13.688 21.3359H12.9375V19.875ZM13.6213 20.4581C13.7213 20.4581 13.7658 20.4188 13.7658 20.327C13.7658 20.2419 13.7213 20.2026 13.6213 20.2026H13.3044V20.4581H13.6213ZM13.6379 21.0018C13.7491 21.0018 13.788 20.9625 13.788 20.8642C13.788 20.7725 13.7436 20.7267 13.6379 20.7267H13.3044V21.0018H13.6379Z" fill="#A3A3A3"/>
<path d="M15.0335 20.8642L14.3984 19.875H14.891L15.2474 20.4581H15.2669L15.6298 19.875H16.1029L15.4678 20.8642V21.3359H15.0335V20.8642Z" fill="#A3A3A3"/>
<path d="M17.3203 19.875H18.2131C18.5851 19.875 18.7812 20.0846 18.7812 20.4188C18.7812 20.7987 18.531 20.9756 18.1793 20.9756H17.7735V21.3359H17.3203V19.875ZM18.1319 20.6284C18.274 20.6284 18.3349 20.5432 18.3349 20.4253C18.3349 20.2943 18.2672 20.2222 18.1319 20.2222H17.7802V20.6284H18.1319Z" fill="#A3A3A3"/>
<path d="M19.2867 19.875H19.9867L20.4857 21.3359H20.032L19.9283 21.0346H19.3321L19.2284 21.3359H18.7812L19.2867 19.875ZM19.4358 20.7005H19.8246L19.6691 20.2419H19.5913L19.4358 20.7005Z" fill="#A3A3A3"/>
<path d="M20.9727 19.875H21.407V20.956H22.1901L22.1704 21.3359H20.9727V19.875Z" fill="#A3A3A3"/>
<path d="M22.4336 20.6055C22.4336 20.1598 22.7201 19.875 23.1669 19.875C23.6138 19.875 23.8945 20.1598 23.8945 20.6055C23.8945 21.0512 23.6138 21.3359 23.1669 21.3359C22.7201 21.3359 22.4336 21.0574 22.4336 20.6055ZM23.5164 20.6055C23.5164 20.364 23.3904 20.2279 23.1669 20.2279C22.9435 20.2279 22.8174 20.3702 22.8174 20.6055C22.8174 20.8469 22.9435 20.9831 23.1669 20.9831C23.3846 20.9893 23.5164 20.8469 23.5164 20.6055Z" fill="#A3A3A3"/>
<path d="M25.6194 19.875H26.3155L26.8164 21.3359H26.361L26.2569 21.0346H25.6649L25.5609 21.3359H25.112L25.6194 19.875ZM25.769 20.7005H26.1594L26.0032 20.2419H25.9252L25.769 20.7005Z" fill="#A3A3A3"/>
<path d="M27.0599 19.875H27.5008V20.956H28.2773L28.2642 21.3359H27.0599V19.875Z" fill="#A3A3A3"/>
<path d="M28.9467 20.2484H28.5208L28.5318 19.875H29.7274L29.7383 20.2484H29.3124V21.3359H28.9467V20.2484Z" fill="#A3A3A3"/>
<path d="M30.2253 20.6055C30.2253 20.1536 30.5071 19.875 30.9557 19.875C31.4044 19.875 31.6862 20.1598 31.6862 20.6055C31.6862 21.0512 31.4044 21.3359 30.9557 21.3359C30.5071 21.3359 30.2253 21.0574 30.2253 20.6055ZM31.3066 20.6055C31.3066 20.364 31.18 20.2279 30.9557 20.2279C30.7314 20.2279 30.6049 20.3702 30.6049 20.6055C30.6049 20.8469 30.7314 20.9831 30.9557 20.9831C31.1743 20.9893 31.3066 20.8469 31.3066 20.6055Z" fill="#A3A3A3"/>
<path d="M32.9036 19.875H33.3438L33.9563 20.7005H33.9627V19.875H34.3646V21.3359H33.9371L33.3119 20.4843H33.3056V21.3359H32.9036V19.875Z" fill="#A3A3A3"/>
<path d="M34.8516 19.875H36.2689L36.2834 20.2288H35.3313V20.4253H36.0799V20.7529H35.3313V20.9756H36.3125L36.298 21.3359H34.8516V19.875Z" fill="#A3A3A3"/>
<path d="M37.0647 20.2484H36.556L36.5756 19.875H37.9974L38.0169 20.2484H37.5082V21.3359H37.0647V20.2484Z" fill="#A3A3A3"/>
<path d="M38.2604 19.875H38.7254L38.9579 20.8839H38.9773L39.2809 19.875H39.7071L40.0042 20.8839H40.0236L40.2561 19.875H40.6953L40.3207 21.3359H39.7524L39.4876 20.4515H39.4746L39.2098 21.3359H38.6415L38.2604 19.875Z" fill="#A3A3A3"/>
<path d="M40.9388 20.6055C40.9388 20.1598 41.2676 19.875 41.791 19.875C42.3144 19.875 42.6432 20.1598 42.6432 20.6055C42.6432 21.0512 42.3144 21.3359 41.791 21.3359C41.2676 21.3359 40.9388 21.0574 40.9388 20.6055ZM42.2003 20.6055C42.2003 20.364 42.0527 20.2279 41.791 20.2279C41.5293 20.2279 41.3817 20.3702 41.3817 20.6055C41.3817 20.8469 41.5293 20.9831 41.791 20.9831C42.0527 20.9893 42.2003 20.8469 42.2003 20.6055Z" fill="#A3A3A3"/>
<path d="M43.1302 19.875H43.9632C44.3412 19.875 44.5271 20.0584 44.5271 20.3991C44.5271 20.6349 44.431 20.7922 44.2515 20.8642L44.5911 21.3359H44.1042L43.8415 20.9494H43.5595V21.3359H43.1302V19.875ZM43.9055 20.6087C44.0465 20.6087 44.0978 20.5301 44.0978 20.4188C44.0978 20.3074 44.0465 20.2288 43.9055 20.2288H43.5595V20.6087H43.9055Z" fill="#A3A3A3"/>
<path d="M44.8346 19.875H45.2425V20.4122H45.4068L45.8025 19.875H46.2651L45.7416 20.576L46.2956 21.3294L46.2895 21.3359H45.8147L45.4068 20.7725H45.2425V21.3359H44.8346V19.875Z" fill="#A3A3A3"/>
<path d="M46.7942 21.2111V20.832C47.0097 20.9501 47.2253 21.006 47.4058 21.006C47.5456 21.006 47.6155 20.9688 47.6155 20.9004C47.6155 20.832 47.5689 20.8134 47.2893 20.7637C46.9864 20.714 46.7826 20.6145 46.7826 20.3349C46.7826 20.0739 46.9981 19.875 47.4117 19.875C47.5806 19.875 47.7553 19.9123 47.9126 19.9869V20.3659C47.7612 20.2727 47.5515 20.2106 47.3825 20.2106C47.2369 20.2106 47.1728 20.2479 47.1728 20.31C47.1728 20.3908 47.266 20.397 47.4932 20.4405C47.7961 20.4965 48 20.5897 48 20.8818C48 21.1117 47.8427 21.3354 47.3825 21.3354C47.1612 21.3416 46.9806 21.2919 46.7942 21.2111Z" fill="#A3A3A3"/>
<path d="M13.2158 17.0001L15.5378 10.7001H18.1388L20.4518 17.0001H18.7328L18.2288 15.6051H15.4208L14.9168 17.0001H13.2158ZM16.6628 12.1581L15.8978 14.2821H17.7608L16.9958 12.1581H16.6628Z" fill="#A3A3A3"/>
<path d="M25.2585 17.1531C22.8735 17.1531 21.7665 15.6951 21.7665 13.8771C21.7665 12.0411 23.0445 10.5471 25.3665 10.5471C26.4105 10.5471 27.2205 10.8981 27.7245 11.2581V12.8511H27.7155C27.0225 12.3921 26.3565 11.9961 25.4205 11.9961C24.1785 11.9961 23.4405 12.7701 23.4405 13.8681C23.4405 14.9391 24.1425 15.7041 25.4115 15.7041C26.3475 15.7041 27.0405 15.3711 27.7155 14.8671H27.7245V16.4781C27.2655 16.7931 26.3925 17.1531 25.2585 17.1531Z" fill="#A3A3A3"/>
<path d="M33.047 17.1531C30.662 17.1531 29.555 15.6951 29.555 13.8771C29.555 12.0411 30.833 10.5471 33.155 10.5471C34.199 10.5471 35.009 10.8981 35.513 11.2581V12.8511H35.504C34.811 12.3921 34.145 11.9961 33.209 11.9961C31.967 11.9961 31.229 12.7701 31.229 13.8681C31.229 14.9391 31.931 15.7041 33.2 15.7041C34.136 15.7041 34.829 15.3711 35.504 14.8671H35.513V16.4781C35.054 16.7931 34.181 17.1531 33.047 17.1531Z" fill="#A3A3A3"/>
<path d="M37.7385 17.0001V10.7001H43.1205L43.1835 12.0951H39.3765V13.1031H42.4005V14.4261H39.3765V15.6051H43.3005L43.2465 17.0001H37.7385Z" fill="#A3A3A3"/>
<path d="M48.1121 17.1531C46.9691 17.1531 46.0781 16.9101 45.2501 16.5501V14.9661H45.2591C46.2401 15.4791 47.2841 15.7581 48.1661 15.7581C48.9221 15.7581 49.3091 15.5511 49.3091 15.1911C49.3091 14.8221 49.0211 14.7141 47.6261 14.4801C46.3391 14.2731 45.2321 13.8771 45.2321 12.6171C45.2321 11.5011 46.1861 10.5471 48.1841 10.5471C48.9851 10.5471 49.8581 10.7361 50.5781 11.0871V12.6621H50.5691C49.8311 12.2211 48.8681 11.9421 48.0581 11.9421C47.2571 11.9421 46.9241 12.1581 46.9241 12.5001C46.9241 12.9411 47.5271 12.9861 48.5801 13.1751C49.8671 13.4001 50.9921 13.7601 50.9921 15.1101C50.9921 16.0101 50.3891 17.1531 48.1121 17.1531Z" fill="#A3A3A3"/>
<path d="M55.637 17.1531C54.494 17.1531 53.603 16.9101 52.775 16.5501V14.9661H52.784C53.765 15.4791 54.809 15.7581 55.691 15.7581C56.447 15.7581 56.834 15.5511 56.834 15.1911C56.834 14.8221 56.546 14.7141 55.151 14.4801C53.864 14.2731 52.757 13.8771 52.757 12.6171C52.757 11.5011 53.711 10.5471 55.709 10.5471C56.51 10.5471 57.383 10.7361 58.103 11.0871V12.6621H58.094C57.356 12.2211 56.393 11.9421 55.583 11.9421C54.782 11.9421 54.449 12.1581 54.449 12.5001C54.449 12.9411 55.052 12.9861 56.105 13.1751C57.392 13.4001 58.517 13.7601 58.517 15.1101C58.517 16.0101 57.914 17.1531 55.637 17.1531Z" fill="#A3A3A3"/>
</svg>
