<svg width="72" height="24" viewBox="0 0 72 24" fill="none" xmlns="http://www.w3.org/2000/svg">
<g clip-path="url(#clip0_2816_1346)">
<mask id="mask0_2816_1346" style="mask-type:luminance" maskUnits="userSpaceOnUse" x="15" y="-1" width="42" height="26">
<path d="M56.6 -1H15V25H56.6V-1Z" fill="white"/>
</mask>
<g mask="url(#mask0_2816_1346)">
<path d="M17.2166 16.7826L17.878 17.9247C18.0145 18.1597 18.2098 18.355 18.4448 18.4915L20.8066 14.4043H16.083C16.083 14.6753 16.1542 14.9418 16.2891 15.1771L17.2166 16.7826Z" fill="#0066DA"/>
</g>
<mask id="mask1_2816_1346" style="mask-type:luminance" maskUnits="userSpaceOnUse" x="15" y="-1" width="42" height="26">
<path d="M56.6 -1H15V25H56.6V-1Z" fill="white"/>
</mask>
<g mask="url(#mask1_2816_1346)">
<path d="M23.5791 9.59599L21.2177 5.50879C20.9827 5.64529 20.7874 5.84061 20.6512 6.07559L16.2891 13.6315C16.1542 13.8668 16.083 14.133 16.083 14.404H20.8062L23.5791 9.59599Z" fill="#00AC47"/>
</g>
<mask id="mask2_2816_1346" style="mask-type:luminance" maskUnits="userSpaceOnUse" x="15" y="-1" width="42" height="26">
<path d="M56.6 -1H15V25H56.6V-1Z" fill="white"/>
</mask>
<g mask="url(#mask2_2816_1346)">
<path d="M23.5792 9.59619L25.9407 5.50899C25.7063 5.37216 25.4392 5.30131 25.1678 5.30326H21.9906C21.7196 5.30554 21.4537 5.37639 21.2178 5.50931L23.5792 9.59619Z" fill="#00832D"/>
</g>
<mask id="mask3_2816_1346" style="mask-type:luminance" maskUnits="userSpaceOnUse" x="15" y="-1" width="42" height="26">
<path d="M56.6 -1H15V25H56.6V-1Z" fill="white"/>
</mask>
<g mask="url(#mask3_2816_1346)">
<path d="M26.3524 14.4038H20.8066L18.4448 18.491C18.6791 18.6278 18.9463 18.6987 19.2173 18.6967H27.9413C28.212 18.6945 28.4782 18.6236 28.7138 18.4907L26.3524 14.4038Z" fill="#2684FC"/>
</g>
<mask id="mask4_2816_1346" style="mask-type:luminance" maskUnits="userSpaceOnUse" x="15" y="-1" width="42" height="26">
<path d="M56.6 -1H15V25H56.6V-1Z" fill="white"/>
</mask>
<g mask="url(#mask4_2816_1346)">
<path d="M28.714 18.4915C28.949 18.355 29.1443 18.1597 29.2808 17.9247L29.5554 17.4518L30.8691 15.1765C31.004 14.9415 31.0748 14.6753 31.0751 14.4043H26.3613L28.714 18.4915Z" fill="#EA4335"/>
</g>
<mask id="mask5_2816_1346" style="mask-type:luminance" maskUnits="userSpaceOnUse" x="15" y="-1" width="42" height="26">
<path d="M56.6 -1H15V25H56.6V-1Z" fill="white"/>
</mask>
<g mask="url(#mask5_2816_1346)">
<path d="M28.6886 9.85323L26.5075 6.0751C26.3713 5.84013 26.176 5.6448 25.941 5.5083L23.5796 9.5955L26.3525 14.4036H31.0673C31.0669 14.1325 30.9961 13.8663 30.8612 13.631L28.6886 9.85323Z" fill="#FFBA00"/>
</g>
<mask id="mask6_2816_1346" style="mask-type:luminance" maskUnits="userSpaceOnUse" x="15" y="-1" width="42" height="26">
<path d="M56.6 -1H15V25H56.6V-1Z" fill="white"/>
</mask>
<g mask="url(#mask6_2816_1346)">
<path d="M45.388 8.94715C45.5388 8.9218 45.7032 8.91758 45.8466 8.979C45.9476 9.05018 46.049 9.13208 46.1088 9.24258C46.1709 9.42328 46.1709 9.62998 46.1056 9.81035C46.0282 9.9488 45.9002 10.0749 45.7361 10.096C45.5742 10.1217 45.3958 10.1227 45.2479 10.0431C45.1316 9.95335 45.0129 9.83895 44.9908 9.68685C44.9596 9.5289 44.9694 9.35568 45.0432 9.21138C45.1309 9.096 45.2388 8.97575 45.388 8.94715Z" fill="white"/>
</g>
<mask id="mask7_2816_1346" style="mask-type:luminance" maskUnits="userSpaceOnUse" x="15" y="-1" width="42" height="26">
<path d="M56.6 -1H15V25H56.6V-1Z" fill="white"/>
</mask>
<g mask="url(#mask7_2816_1346)">
<path d="M35.8716 8.99214C36.6061 8.97719 37.3409 8.99117 38.0761 8.98499C38.1762 8.98109 38.2759 8.99572 38.3705 9.02887C38.5925 9.07632 38.831 9.06234 39.039 9.16374C39.9539 9.43219 40.7196 10.1859 40.9858 11.103C41.0924 11.3081 41.0716 11.5476 41.1262 11.7673C41.1866 11.9756 41.16 12.194 41.1655 12.4079C41.1704 12.5138 41.1476 12.6172 41.1155 12.7176C41.0885 12.9198 41.0836 13.1281 41.018 13.3224C40.9533 13.4476 40.938 13.5919 40.8659 13.7141C40.548 14.444 39.9123 15.0254 39.1606 15.2851C39.0088 15.3677 38.833 15.3686 38.6692 15.4086C38.5015 15.4759 38.3166 15.4739 38.1388 15.4863C37.3825 15.4876 36.6266 15.4918 35.8706 15.4843C35.8758 13.3208 35.8739 11.1563 35.8716 8.99214ZM36.7403 9.81569C36.7335 11.4306 36.7358 13.0455 36.7393 14.6605C37.1235 14.6608 37.5073 14.666 37.8915 14.6582C38.1719 14.6299 38.4674 14.6572 38.7322 14.5428C38.9763 14.4707 39.209 14.3576 39.4131 14.2055C39.6894 14.0072 39.8899 13.7245 40.0462 13.4261C40.0807 13.341 40.0992 13.25 40.1362 13.1658C40.2159 12.987 40.2159 12.7875 40.2441 12.5974C40.3195 12.3458 40.301 12.0741 40.2367 11.8229C40.1944 11.1534 39.8145 10.5138 39.2389 10.1657C39.1323 10.0913 39.0065 10.0542 38.8921 9.99476C38.7709 9.93431 38.6315 9.93172 38.5057 9.88427C38.3591 9.82772 38.1996 9.83616 38.0452 9.83129C37.611 9.80106 37.1752 9.81797 36.7403 9.81569Z" fill="white"/>
</g>
<mask id="mask8_2816_1346" style="mask-type:luminance" maskUnits="userSpaceOnUse" x="15" y="-1" width="42" height="26">
<path d="M56.6 -1H15V25H56.6V-1Z" fill="white"/>
</mask>
<g mask="url(#mask8_2816_1346)">
<path d="M52.6089 11.0159C52.7805 10.9288 52.9764 10.9142 53.1656 10.907C53.4379 10.9051 53.7139 10.8934 53.9817 10.9528C54.2712 11.0445 54.5582 11.1673 54.7851 11.3747C55.0389 11.5957 55.2352 11.8814 55.3483 12.1976C55.3769 12.3341 55.4516 12.4566 55.4666 12.5964C55.5059 12.8694 55.5222 13.1466 55.514 13.4222C54.358 13.4352 53.202 13.4277 52.046 13.4258C52.0248 13.6273 52.1119 13.8099 52.1639 13.9987C52.3024 14.3088 52.5552 14.5642 52.8591 14.7147C53.1607 14.8337 53.5094 14.9217 53.8224 14.7891C54.1971 14.689 54.5186 14.3985 54.6694 14.0436C54.9466 14.144 55.1955 14.3055 55.4698 14.4118C55.2518 14.8372 54.9014 15.2025 54.463 15.4014C54.3362 15.4804 54.1884 15.509 54.0525 15.5675C53.8042 15.6322 53.5452 15.6263 53.2907 15.625C53.0824 15.6244 52.8685 15.6085 52.6758 15.523C52.1545 15.3706 51.7314 14.9754 51.4613 14.5132C51.3628 14.3377 51.2874 14.1502 51.2504 13.9519C51.1493 13.7176 51.1724 13.4573 51.1685 13.2083C51.1714 12.9994 51.1594 12.78 51.2458 12.5843C51.3605 12.0413 51.6998 11.5531 52.1548 11.2382C52.2949 11.1426 52.446 11.063 52.6089 11.0159ZM53.0596 11.7127C52.9641 11.7543 52.8627 11.7809 52.7678 11.8235C52.4434 12.0055 52.1977 12.3286 52.1253 12.6945C52.9517 12.6994 53.7785 12.6965 54.6053 12.6961C54.5839 12.3643 54.3736 12.0575 54.0983 11.8775C53.9768 11.7845 53.8185 11.7722 53.6817 11.7111C53.4776 11.6708 53.2621 11.6607 53.0596 11.7127Z" fill="white"/>
</g>
<mask id="mask9_2816_1346" style="mask-type:luminance" maskUnits="userSpaceOnUse" x="15" y="-1" width="42" height="26">
<path d="M56.6 -1H15V25H56.6V-1Z" fill="white"/>
</mask>
<g mask="url(#mask9_2816_1346)">
<path d="M43.4311 11.0136C43.6677 10.8875 43.9482 10.9034 44.2065 10.9304C44.3196 10.945 44.4509 10.945 44.5335 11.0364C44.5332 11.166 44.4899 11.2918 44.436 11.4085C44.3863 11.5248 44.3781 11.6529 44.3382 11.7725C44.3089 11.8118 44.2628 11.8404 44.2124 11.8228C43.9862 11.7851 43.7551 11.7757 43.5296 11.8225C43.1688 11.9373 42.874 12.2281 42.7405 12.5804C42.6511 12.7439 42.6628 12.9363 42.6501 13.1164C42.6508 13.9058 42.6462 14.6955 42.6527 15.4846C42.3667 15.4908 42.0801 15.4869 41.7941 15.4872C41.7911 14.0062 41.7915 12.5249 41.7941 11.0442C42.0706 11.049 42.3488 11.026 42.6241 11.0588C42.6215 11.2678 42.616 11.4771 42.6283 11.686C42.7203 11.5655 42.7983 11.4322 42.9117 11.3295C43.0638 11.1933 43.238 11.0806 43.4311 11.0136Z" fill="white"/>
</g>
<mask id="mask10_2816_1346" style="mask-type:luminance" maskUnits="userSpaceOnUse" x="15" y="-1" width="42" height="26">
<path d="M56.6 -1H15V25H56.6V-1Z" fill="white"/>
</mask>
<g mask="url(#mask10_2816_1346)">
<path d="M45.1346 11.0451C45.4219 11.0409 45.7092 11.0428 45.9965 11.0438C45.9975 12.5248 45.9985 14.0058 45.9959 15.4865C45.7089 15.4888 45.4216 15.4891 45.1343 15.4862C45.1362 14.0062 45.1362 12.5258 45.1346 11.0451Z" fill="white"/>
</g>
<mask id="mask11_2816_1346" style="mask-type:luminance" maskUnits="userSpaceOnUse" x="15" y="-1" width="42" height="26">
<path d="M56.6 -1H15V25H56.6V-1Z" fill="white"/>
</mask>
<g mask="url(#mask11_2816_1346)">
<path d="M46.5889 11.0447C46.8814 11.044 47.1742 11.0382 47.4667 11.0466C47.5808 11.0492 47.5678 11.1854 47.6019 11.2631C47.9002 12.0515 48.2031 12.8377 48.4953 13.6284C48.5636 13.7548 48.5886 13.8985 48.6533 14.0262C48.7085 14.1572 48.7192 14.308 48.8174 14.4182C49.0306 13.9131 49.2061 13.3928 49.4183 12.8868C49.4502 12.7415 49.5262 12.6134 49.5704 12.4724C49.7111 12.1116 49.8506 11.7502 49.9874 11.3875C50.0413 11.2842 50.0735 11.1714 50.0969 11.0577C50.4112 11.0265 50.7284 11.0463 51.0436 11.046C50.938 11.3099 50.8402 11.577 50.7183 11.8344C50.6725 11.9524 50.6419 12.0765 50.5812 12.1887C50.2841 12.9118 49.9913 13.6372 49.6923 14.3593C49.5568 14.7207 49.3894 15.0698 49.2652 15.4354C49.223 15.503 49.1391 15.4855 49.0722 15.489C48.8359 15.4877 48.5993 15.4881 48.3627 15.4871C48.3273 15.3363 48.2379 15.2073 48.1983 15.0581C47.8944 14.3067 47.5853 13.5569 47.2853 12.8039C47.1755 12.5689 47.102 12.3187 46.9902 12.085C46.9064 11.8828 46.8401 11.6742 46.7445 11.4772C46.702 11.33 46.6162 11.1977 46.5889 11.0447Z" fill="white"/>
</g>
</g>
<defs>
<clipPath id="clip0_2816_1346">
<rect width="72" height="24" fill="white"/>
</clipPath>
</defs>
</svg>
