<svg width="72" height="24" viewBox="0 0 72 24" fill="none" xmlns="http://www.w3.org/2000/svg">
    <path d="M4 6.38989H13.4376V8.00318H9.62494V15.9339H7.81303V8.00318H4V6.38989Z" fill="black"/>
    <path d="M15.9927 15.9339H14.2769V9.13192H15.9927V10.2747C16.1682 9.88519 16.6957 9.09204 18.2098 9.09204H19.8054V10.7988H17.9817C16.5231 10.7988 15.9964 11.2822 15.9964 12.3581L15.9927 15.9339Z" fill="black"/>
    <path d="M21.2139 6H23.0124V8.0431H21.2139V6ZM21.2544 9.13192H22.9849V15.9339H21.2548L21.2544 9.13192Z" fill="black"/>
    <path d="M26.8258 18.7834H25.1221V9.13184H26.8392V10.2074C27.0896 9.8168 27.4386 9.49831 27.8514 9.28366C28.2643 9.06901 28.7265 8.96569 29.192 8.98401C30.9747 8.98401 32.437 10.3133 32.437 12.5332C32.437 14.7645 30.9784 16.0817 29.192 16.0817C28.7284 16.1049 28.2666 16.0081 27.8519 15.8008C27.4372 15.5935 27.0836 15.2828 26.8258 14.899V18.7834ZM28.7455 14.5763C29.0118 14.581 29.2761 14.5306 29.5217 14.4281C29.7673 14.3257 29.9887 14.1735 30.1719 13.9813C30.355 13.7891 30.496 13.5611 30.5856 13.3118C30.6753 13.0625 30.7118 12.7973 30.6927 12.5332C30.6927 11.3651 29.9355 10.4897 28.7455 10.4897C27.5705 10.4897 26.8124 11.3635 26.8124 12.5332C26.8108 13.6889 27.5693 14.5763 28.7455 14.5763Z" fill="black"/>
    <path d="M38.9819 11.256L37.2511 15.9899H35.7369L33.1812 9.13194H35.0607L36.6409 13.7023L38.3329 9.07837H39.8607L41.5373 13.662L43.1061 9.13194H44.7823L42.2808 15.9899H40.7262L38.9819 11.256Z" fill="black"/>
    <path d="M46.0156 6H47.8142V8.0431H46.0156V6ZM46.0561 9.13192H47.7866V15.9339H46.0561V9.13192Z" fill="black"/>
    <path d="M51.6395 15.9339H49.9224V9.13192H51.6395V10.2747C51.8153 9.88519 52.3424 9.09204 53.8569 9.09204H55.4525V10.7988H53.6268C52.1682 10.7988 51.6415 11.2822 51.6415 12.3581L51.6395 15.9339Z" fill="black"/>
    <path d="M63.5256 12.6272V12.8153H58.0899C58.107 13.3242 58.3253 13.806 58.6975 14.1558C59.0696 14.5057 59.5656 14.6955 60.0777 14.684C61.1716 14.684 61.6173 14.1325 61.7389 13.9448H63.4406C63.3324 14.6437 62.3997 16.1087 60.074 16.1087C57.8428 16.1087 56.3558 14.578 56.3558 12.5333C56.3335 12.059 56.4108 11.5853 56.5827 11.1423C56.7547 10.6993 57.0176 10.2968 57.3547 9.96043C57.6917 9.62403 58.0956 9.36112 58.5405 9.18845C58.9854 9.01577 59.4616 8.93712 59.9387 8.9575C62.0517 8.9575 63.5256 10.3956 63.5256 12.6272ZM58.1442 11.6322H61.7133C61.6037 11.2455 61.3701 10.9051 61.048 10.6626C60.7258 10.4201 60.3328 10.2888 59.9288 10.2888C59.5247 10.2888 59.1317 10.4201 58.8096 10.6626C58.4874 10.9051 58.2538 11.2455 58.1442 11.6322Z" fill="black"/>
    <path d="M64.3357 7.72897C64.3326 7.55126 64.3651 7.37472 64.4313 7.20964C64.4976 7.04456 64.5963 6.89425 64.7216 6.76749C64.8469 6.64073 64.9963 6.54004 65.1612 6.47131C65.3261 6.40258 65.503 6.36719 65.6818 6.36719C65.8606 6.36719 66.0376 6.40258 66.2024 6.47131C66.3673 6.54004 66.5168 6.64073 66.6421 6.76749C66.7674 6.89425 66.866 7.04456 66.9323 7.20964C66.9986 7.37472 67.0311 7.55126 67.028 7.72897C67.0219 8.07991 66.8773 8.41442 66.6256 8.66044C66.3738 8.90646 66.0349 9.04432 65.6818 9.04432C65.3288 9.04432 64.9899 8.90646 64.7381 8.66044C64.4863 8.41442 64.3418 8.07991 64.3357 7.72897ZM66.8299 7.72897C66.8327 7.57728 66.8052 7.42654 66.7487 7.28557C66.6923 7.14459 66.6082 7.01621 66.5013 6.90792C66.3944 6.79964 66.2669 6.71362 66.1262 6.6549C65.9855 6.59619 65.8344 6.56594 65.6818 6.56594C65.5292 6.56594 65.3781 6.59619 65.2374 6.6549C65.0967 6.71362 64.9692 6.79964 64.8623 6.90792C64.7554 7.01621 64.6713 7.14459 64.6149 7.28557C64.5585 7.42654 64.5309 7.57728 64.5338 7.72897C64.5309 7.88067 64.5585 8.03141 64.6149 8.17238C64.6713 8.31336 64.7554 8.44174 64.8623 8.55003C64.9692 8.65831 65.0967 8.74433 65.2374 8.80305C65.3781 8.86176 65.5292 8.89201 65.6818 8.89201C65.8344 8.89201 65.9855 8.86176 66.1262 8.80305C66.2669 8.74433 66.3944 8.65831 66.5013 8.55003C66.6082 8.44174 66.6923 8.31336 66.7487 8.17238C66.8052 8.03141 66.8327 7.88067 66.8299 7.72897ZM65.1727 7.05949H65.8178C66.1346 7.05949 66.2869 7.21135 66.2869 7.45909C66.2943 7.54796 66.2674 7.6363 66.2118 7.70622C66.1561 7.77615 66.0758 7.82244 65.9871 7.83572L66.2983 8.38114H66.0892L65.7724 7.85304H65.3652V8.38114H65.1727V7.05949ZM65.3652 7.24519V7.67258H65.8178C66.0045 7.67258 66.0892 7.59967 66.0892 7.45909C66.0892 7.3185 66.0045 7.24519 65.8178 7.24519H65.3652Z" fill="black"/>
</svg>
