<svg width="72" height="24" viewBox="0 0 72 24" fill="none" xmlns="http://www.w3.org/2000/svg">
<g clip-path="url(#clip0_2895_1913)">
<path fill-rule="evenodd" clip-rule="evenodd" d="M12.093 11.858H10.0136V10.3022H14.4258V14.5129C13.1211 14.9021 11.7652 15.0922 10.4038 15.0767C6.88755 15.0767 5.11914 13.6588 5.11914 10.8548C5.11914 8.08716 6.91212 6.53027 10.1638 6.53027C12.8974 6.53027 14.3103 7.44297 14.4259 9.28623H11.897C11.863 8.52594 11.1976 8.05257 10.094 8.05257C8.46227 8.05257 7.55404 9.0116 7.55404 10.7292C7.55404 12.5513 8.48627 13.474 10.334 13.474C10.9281 13.4684 11.519 13.3868 12.0924 13.2312L12.093 11.858Z" fill="#FF6C00"/>
<path fill-rule="evenodd" clip-rule="evenodd" d="M15.7756 14.8342H17.8773V9.20007H15.7756V14.8342ZM15.6885 8.33652H17.9537V6.75337H15.6885L15.6885 8.33652ZM22.7126 13.389C22.9265 13.4157 23.1438 13.3933 23.3477 13.3235C23.5517 13.2537 23.7371 13.1383 23.8898 12.9862C24.0426 12.834 24.1586 12.649 24.2291 12.4453C24.2996 12.2415 24.3228 12.0244 24.2968 11.8103C24.3171 11.6009 24.2905 11.3895 24.2189 11.1916C24.1474 10.9937 24.0327 10.8142 23.8832 10.6661C23.7336 10.518 23.553 10.405 23.3544 10.3354C23.1558 10.2658 22.9442 10.2412 22.7349 10.2635C22.5198 10.2456 22.3034 10.2759 22.1015 10.3522C21.8995 10.4285 21.7171 10.5488 21.5676 10.7045C21.418 10.8601 21.3051 11.0472 21.2369 11.252C21.1687 11.4568 21.1471 11.6743 21.1736 11.8885C21.1623 12.0918 21.1946 12.2952 21.2685 12.485C21.3424 12.6748 21.456 12.8466 21.6019 12.9888C21.7477 13.1309 21.9223 13.2402 22.1139 13.3093C22.3055 13.3783 22.5096 13.4055 22.7126 13.389ZM24.3996 9.16101H26.5096C26.4567 9.59102 26.4308 10.0239 26.4321 10.4572V13.3678C26.5393 14.2466 26.3578 15.1365 25.9151 15.9032C25.2843 16.7316 24.1618 17.1068 22.4653 17.1068C20.3524 17.1068 19.2845 16.4464 19.2633 15.0966H21.398C21.4209 15.6085 21.8016 15.8681 22.5323 15.8681C23.7241 15.8681 24.274 15.3221 24.274 14.1638V13.6865C23.9698 14.0151 23.5965 14.272 23.181 14.4387C22.7656 14.6054 22.3182 14.6778 21.8714 14.6506C21.4933 14.6796 21.1134 14.6289 20.7563 14.5016C20.3992 14.3744 20.0728 14.1734 19.7983 13.9119C19.5238 13.6503 19.3075 13.334 19.1632 12.9834C19.0189 12.6328 18.9499 12.2557 18.9608 11.8768C18.9608 10.115 20.0845 9.02533 21.9713 9.02533C22.4105 9.02471 22.8453 9.11169 23.2505 9.28115C23.6557 9.45062 24.023 9.69919 24.3309 10.0123C24.3268 9.7268 24.35 9.44156 24.4001 9.16045M31.9272 12.3663C30.2787 12.3663 29.5224 12.5382 29.5224 13.1847C29.5224 13.6117 29.8841 13.8305 30.6087 13.8305C31.5666 13.8305 32.098 13.3588 32.098 12.4925V12.3663H31.9272ZM29.5106 15.0865C28.0537 15.0865 27.2649 14.4306 27.2649 13.3359C27.2531 13.0109 27.3285 12.6886 27.4833 12.4026C27.6381 12.1165 27.8667 11.8771 28.1452 11.7093C28.709 11.352 29.6692 11.3068 31.0463 11.3068H32.098C32.098 11.2487 32.1087 11.1907 32.1087 11.1466C32.1087 10.5124 31.7363 10.1769 31.0464 10.1769C30.2894 10.1769 29.9071 10.3612 29.8267 10.8803H27.625C27.7712 9.59081 28.8893 9.02585 31.0809 9.02585C33.1938 9.02585 34.1975 9.70465 34.1975 11.2364V14.1878C34.1882 14.446 34.2269 14.7038 34.3114 14.9481H32.29C32.1933 14.7108 32.147 14.4561 32.1538 14.2001V14.0951C31.8217 14.4558 31.4094 14.7335 30.9503 14.9057C30.4912 15.0779 29.9981 15.1398 29.5106 15.0865ZM35.1331 10.494C35.1389 10.0483 35.1165 9.60272 35.0661 9.15985H37.2298C37.2744 9.46577 37.3102 9.77055 37.3325 10.0754C37.6301 9.7386 37.9973 9.47038 38.4086 9.28921C38.8199 9.10803 39.2656 9.01819 39.715 9.02589C40.1392 8.97166 40.5695 9.05685 40.9411 9.26861C41.3127 9.48037 41.6053 9.80722 41.7748 10.1999C42.0358 9.82241 42.3878 9.51693 42.7982 9.31172C43.2086 9.10651 43.6642 9.0082 44.1227 9.02591C45.736 9.02591 46.6426 9.86046 46.6426 11.4319V14.8342H44.4554V11.3755C44.4683 11.2279 44.448 11.0793 44.3962 10.9406C44.3443 10.8018 44.2621 10.6764 44.1557 10.5734C44.0492 10.4705 43.9211 10.3926 43.7806 10.3454C43.6402 10.2983 43.491 10.2831 43.344 10.3009C42.3939 10.3009 41.9579 10.844 41.9579 11.9504V14.8342H39.7943V11.3755C39.8068 11.23 39.7872 11.0835 39.7367 10.9465C39.6862 10.8094 39.6062 10.6852 39.5022 10.5826C39.3983 10.48 39.2731 10.4016 39.1354 10.3529C38.9977 10.3042 38.851 10.2865 38.7057 10.3009C37.7322 10.3009 37.2984 10.844 37.2984 11.9504V14.8342H35.1325L35.1331 10.494ZM52.8935 12.0046C52.8935 10.8769 52.2767 10.187 51.3048 10.187C50.295 10.187 49.7122 10.8318 49.7122 11.994C49.7122 13.1651 50.2727 13.797 51.3143 13.797C52.2873 13.797 52.8935 13.1182 52.8935 12.0046ZM47.3978 12.0509C47.3978 10.1195 48.737 9.02535 51.2931 9.02535C53.8453 9.02535 55.199 10.1195 55.199 12.0738C55.199 14.0622 53.857 15.0865 51.2005 15.0865C48.7035 15.0865 47.3978 13.9941 47.3978 12.0509ZM55.7723 10.494C55.7786 10.0483 55.7553 9.60255 55.7025 9.15985H57.8556C57.8922 9.45992 57.9108 9.7619 57.9114 10.0642C58.2115 9.72477 58.5827 9.45574 58.9987 9.27627C59.4147 9.0968 59.8651 9.01131 60.3179 9.02589C60.6382 8.98898 60.9626 9.02332 61.268 9.12646C61.5735 9.2296 61.8523 9.39898 62.0846 9.62248C62.3169 9.84599 62.497 10.1181 62.6118 10.4193C62.7267 10.7205 62.7735 11.0434 62.749 11.3648V14.8342H60.5976V11.4664C60.6171 11.3074 60.5998 11.146 60.5472 10.9946C60.4945 10.8433 60.4078 10.706 60.2938 10.5934C60.1797 10.4809 60.0414 10.3959 59.8894 10.3452C59.7374 10.2945 59.5757 10.2793 59.4169 10.3009C58.3892 10.3009 57.9114 10.844 57.9114 11.9504V14.8342H55.7723L55.7723 10.494ZM64.4555 8.05569H64.801C64.9181 8.067 65.0359 8.04123 65.1376 7.98201C65.1668 7.95854 65.1901 7.92853 65.2057 7.8944C65.2212 7.86027 65.2285 7.82297 65.2269 7.78551C65.2272 7.73586 65.2127 7.68725 65.1851 7.64596C65.1545 7.60356 65.1119 7.57129 65.0628 7.55329C64.9703 7.5274 64.8741 7.51702 64.7781 7.52259H64.4555V8.05569ZM64.1708 9.04933V7.28424H64.7759C64.9271 7.2772 65.0785 7.29358 65.2247 7.33281C65.3155 7.3633 65.3933 7.42347 65.4457 7.50362C65.4995 7.5794 65.5289 7.66974 65.53 7.76263C65.5303 7.82526 65.5182 7.88732 65.4944 7.94527C65.4707 8.00322 65.4357 8.05592 65.3916 8.10036C65.2943 8.19833 65.1634 8.25561 65.0254 8.26057C65.0807 8.28294 65.1316 8.31467 65.1761 8.35435C65.2745 8.46173 65.3615 8.57903 65.4357 8.70435L65.6501 9.05045H65.304L65.1476 8.77133C65.0736 8.61802 64.9728 8.47909 64.8501 8.36103C64.7833 8.31592 64.7033 8.2945 64.6229 8.30021H64.4554V9.05047H64.1708L64.1708 9.04933ZM64.8892 6.77178C64.654 6.77309 64.4231 6.83438 64.2182 6.94985C64.0028 7.06539 63.8258 7.24138 63.7091 7.45617C63.5885 7.66351 63.5246 7.89896 63.5238 8.13884C63.523 8.37871 63.5854 8.61457 63.7046 8.8227C63.8213 9.0367 63.9971 9.21264 64.2109 9.32956C64.4171 9.44878 64.6511 9.51156 64.8892 9.51156C65.1274 9.51156 65.3613 9.44878 65.5675 9.32956C65.7808 9.21214 65.9562 9.03631 66.0732 8.8227C66.1916 8.61432 66.2535 8.37865 66.2529 8.13899C66.2524 7.89933 66.1893 7.66397 66.0699 7.45617C65.9527 7.2415 65.7756 7.06557 65.5602 6.94985C65.3551 6.83504 65.1243 6.77379 64.8892 6.77178ZM64.8892 6.50049C65.1711 6.50197 65.4481 6.57496 65.6941 6.71263C65.9525 6.8512 66.1649 7.06206 66.3054 7.31941C66.4479 7.56891 66.5231 7.85114 66.5237 8.13845C66.5242 8.42575 66.4502 8.70829 66.3087 8.95836C66.1692 9.21477 65.9593 9.4259 65.7036 9.56683C65.4558 9.70875 65.1751 9.78341 64.8895 9.78341C64.6038 9.78341 64.3232 9.70875 64.0753 9.56683C63.8194 9.42601 63.6093 9.21486 63.4696 8.95836C63.3265 8.70887 63.2514 8.42615 63.2519 8.13852C63.2524 7.85088 63.3284 7.56842 63.4724 7.31941C63.6135 7.0618 63.8264 6.85079 64.0853 6.71208C64.3311 6.57467 64.6077 6.50184 64.8892 6.50049Z" fill="#FF6C00"/>
</g>
<defs>
<clipPath id="clip0_2895_1913">
<rect width="62" height="11.3333" fill="white" transform="translate(5 6)"/>
</clipPath>
</defs>
</svg>
