<svg width="72" height="25" viewBox="0 0 72 25" fill="none" xmlns="http://www.w3.org/2000/svg">
<g clip-path="url(#clip0_2895_1931)">
<path fill-rule="evenodd" clip-rule="evenodd" d="M12.093 12.858H10.0136V11.3022H14.4258V15.5129C13.1211 15.9021 11.7652 16.0922 10.4038 16.0767C6.88755 16.0767 5.11914 14.6588 5.11914 11.8548C5.11914 9.08716 6.91212 7.53027 10.1638 7.53027C12.8974 7.53027 14.3103 8.44297 14.4259 10.2862H11.897C11.863 9.52594 11.1976 9.05257 10.094 9.05257C8.46227 9.05257 7.55404 10.0116 7.55404 11.7292C7.55404 13.5513 8.48627 14.474 10.334 14.474C10.9281 14.4684 11.519 14.3868 12.0924 14.2312L12.093 12.858Z" fill="#FEFEFE"/>
<path fill-rule="evenodd" clip-rule="evenodd" d="M15.7756 15.8342H17.8773V10.2001H15.7756V15.8342ZM15.6885 9.33652H17.9537V7.75337H15.6885L15.6885 9.33652ZM22.7126 14.389C22.9265 14.4157 23.1438 14.3933 23.3477 14.3235C23.5517 14.2537 23.7371 14.1383 23.8898 13.9862C24.0426 13.834 24.1586 13.649 24.2291 13.4453C24.2996 13.2415 24.3228 13.0244 24.2968 12.8103C24.3171 12.6009 24.2905 12.3895 24.2189 12.1916C24.1474 11.9937 24.0327 11.8142 23.8832 11.6661C23.7336 11.518 23.553 11.405 23.3544 11.3354C23.1558 11.2658 22.9442 11.2412 22.7349 11.2635C22.5198 11.2456 22.3034 11.2759 22.1015 11.3522C21.8995 11.4285 21.7171 11.5488 21.5676 11.7045C21.418 11.8601 21.3051 12.0472 21.2369 12.252C21.1687 12.4568 21.1471 12.6743 21.1736 12.8885C21.1623 13.0918 21.1946 13.2952 21.2685 13.485C21.3424 13.6748 21.456 13.8466 21.6019 13.9888C21.7477 14.1309 21.9223 14.2402 22.1139 14.3093C22.3055 14.3783 22.5096 14.4055 22.7126 14.389ZM24.3996 10.161H26.5096C26.4567 10.591 26.4308 11.0239 26.4321 11.4572V14.3678C26.5393 15.2466 26.3578 16.1365 25.9151 16.9032C25.2843 17.7316 24.1618 18.1068 22.4653 18.1068C20.3524 18.1068 19.2845 17.4464 19.2633 16.0966H21.398C21.4209 16.6085 21.8016 16.8681 22.5323 16.8681C23.7241 16.8681 24.274 16.3221 24.274 15.1638V14.6865C23.9698 15.0151 23.5965 15.272 23.181 15.4387C22.7656 15.6054 22.3182 15.6778 21.8714 15.6506C21.4933 15.6796 21.1134 15.6289 20.7563 15.5016C20.3992 15.3744 20.0728 15.1735 19.7983 14.9119C19.5238 14.6503 19.3075 14.334 19.1632 13.9834C19.0189 13.6328 18.9499 13.2557 18.9608 12.8768C18.9608 11.115 20.0845 10.0253 21.9713 10.0253C22.4105 10.0247 22.8453 10.1117 23.2505 10.2812C23.6557 10.4506 24.023 10.6992 24.3309 11.0123C24.3268 10.7268 24.35 10.4416 24.4001 10.1605M31.9272 13.3663C30.2787 13.3663 29.5224 13.5382 29.5224 14.1847C29.5224 14.6117 29.8841 14.8305 30.6087 14.8305C31.5666 14.8305 32.098 14.3588 32.098 13.4925V13.3663H31.9272ZM29.5106 16.0865C28.0537 16.0865 27.2649 15.4306 27.2649 14.3359C27.2531 14.0109 27.3285 13.6886 27.4833 13.4026C27.6381 13.1165 27.8667 12.8771 28.1452 12.7093C28.709 12.352 29.6692 12.3068 31.0463 12.3068H32.098C32.098 12.2487 32.1087 12.1907 32.1087 12.1466C32.1087 11.5124 31.7363 11.1769 31.0464 11.1769C30.2894 11.1769 29.907 11.3612 29.8267 11.8803H27.625C27.7712 10.5908 28.8894 10.0259 31.0809 10.0259C33.1938 10.0259 34.1975 10.7047 34.1975 12.2364V15.1878C34.1882 15.446 34.2269 15.7038 34.3114 15.9481H32.29C32.1933 15.7108 32.147 15.4561 32.1538 15.2001V15.0951C31.8217 15.4558 31.4094 15.7335 30.9503 15.9057C30.4912 16.0779 29.9981 16.1398 29.5106 16.0865ZM35.1331 11.494C35.1389 11.0483 35.1165 10.6027 35.0661 10.1599H37.2298C37.2744 10.4658 37.3102 10.7706 37.3325 11.0754C37.6301 10.7386 37.9973 10.4704 38.4086 10.2892C38.8199 10.108 39.2656 10.0182 39.715 10.0259C40.1392 9.97166 40.5695 10.0569 40.9411 10.2686C41.3127 10.4804 41.6053 10.8072 41.7748 11.1999C42.0358 10.8224 42.3878 10.5169 42.7982 10.3117C43.2086 10.1065 43.6642 10.0082 44.1228 10.0259C45.736 10.0259 46.6426 10.8605 46.6426 12.4319V15.8342H44.4554V12.3755C44.4683 12.2279 44.448 12.0793 44.3962 11.9406C44.3443 11.8018 44.2621 11.6764 44.1557 11.5734C44.0492 11.4705 43.9211 11.3926 43.7806 11.3454C43.6402 11.2983 43.491 11.2831 43.344 11.3009C42.3939 11.3009 41.9579 11.844 41.9579 12.9504V15.8342H39.7943V12.3755C39.8068 12.23 39.7872 12.0835 39.7367 11.9465C39.6862 11.8094 39.6062 11.6852 39.5022 11.5826C39.3983 11.48 39.2731 11.4016 39.1354 11.3529C38.9977 11.3042 38.851 11.2865 38.7057 11.3009C37.7322 11.3009 37.2984 11.844 37.2984 12.9504V15.8342H35.1325L35.1331 11.494ZM52.8935 13.0046C52.8935 11.8769 52.2767 11.187 51.3048 11.187C50.295 11.187 49.7122 11.8318 49.7122 12.994C49.7122 14.1651 50.2727 14.797 51.3143 14.797C52.2873 14.797 52.8935 14.1182 52.8935 13.0046ZM47.3978 13.0509C47.3978 11.1195 48.737 10.0253 51.2931 10.0253C53.8453 10.0253 55.199 11.1195 55.199 13.0738C55.199 15.0622 53.857 16.0865 51.2005 16.0865C48.7035 16.0865 47.3978 14.9941 47.3978 13.0509ZM55.7723 11.494C55.7786 11.0483 55.7553 10.6025 55.7025 10.1599H57.8556C57.8921 10.4599 57.9108 10.7619 57.9114 11.0642C58.2115 10.7248 58.5827 10.4557 58.9987 10.2763C59.4147 10.0968 59.8651 10.0113 60.3179 10.0259C60.6382 9.98898 60.9626 10.0233 61.268 10.1265C61.5735 10.2296 61.8523 10.399 62.0846 10.6225C62.3169 10.846 62.497 11.1181 62.6118 11.4193C62.7267 11.7205 62.7735 12.0434 62.749 12.3648V15.8342H60.5976V12.4664C60.6171 12.3074 60.5998 12.146 60.5472 11.9946C60.4945 11.8433 60.4078 11.706 60.2938 11.5934C60.1797 11.4809 60.0414 11.3959 59.8894 11.3452C59.7374 11.2945 59.5757 11.2793 59.4169 11.3009C58.3892 11.3009 57.9114 11.844 57.9114 12.9504V15.8342H55.7723L55.7723 11.494ZM64.4555 9.05569H64.801C64.9181 9.067 65.0359 9.04123 65.1376 8.98201C65.1668 8.95854 65.1901 8.92853 65.2057 8.8944C65.2212 8.86027 65.2285 8.82297 65.2269 8.78551C65.2273 8.73586 65.2127 8.68725 65.1851 8.64596C65.1545 8.60356 65.1119 8.57129 65.0628 8.55329C64.9703 8.5274 64.8741 8.51702 64.7781 8.52259H64.4555V9.05569ZM64.1708 10.0493V8.28424H64.7759C64.9271 8.2772 65.0785 8.29358 65.2247 8.33281C65.3155 8.3633 65.3933 8.42347 65.4457 8.50362C65.4995 8.5794 65.5289 8.66974 65.53 8.76263C65.5303 8.82526 65.5182 8.88732 65.4944 8.94527C65.4707 9.00322 65.4357 9.05592 65.3916 9.10036C65.2943 9.19833 65.1634 9.25561 65.0254 9.26057C65.0807 9.28294 65.1316 9.31467 65.1761 9.35435C65.2745 9.46173 65.3615 9.57903 65.4357 9.70435L65.6501 10.0504H65.304L65.1476 9.77133C65.0736 9.61802 64.9728 9.47909 64.8501 9.36103C64.7833 9.31592 64.7033 9.2945 64.6229 9.30021H64.4554V10.0505H64.1708L64.1708 10.0493ZM64.8892 7.77178C64.654 7.77309 64.4231 7.83438 64.2182 7.94985C64.0028 8.06539 63.8258 8.24138 63.7091 8.45617C63.5885 8.66351 63.5246 8.89896 63.5238 9.13884C63.523 9.37871 63.5854 9.61457 63.7046 9.8227C63.8213 10.0367 63.9971 10.2126 64.2109 10.3296C64.4171 10.4488 64.6511 10.5116 64.8892 10.5116C65.1274 10.5116 65.3613 10.4488 65.5675 10.3296C65.7808 10.2121 65.9562 10.0363 66.0732 9.8227C66.1916 9.61432 66.2535 9.37865 66.2529 9.13899C66.2524 8.89933 66.1893 8.66397 66.0699 8.45617C65.9527 8.2415 65.7756 8.06557 65.5602 7.94985C65.3551 7.83504 65.1243 7.77379 64.8892 7.77178ZM64.8892 7.50049C65.1711 7.50197 65.4481 7.57496 65.6941 7.71263C65.9525 7.8512 66.1649 8.06206 66.3054 8.31941C66.4479 8.56891 66.5231 8.85114 66.5237 9.13845C66.5242 9.42575 66.4502 9.70829 66.3087 9.95836C66.1692 10.2148 65.9593 10.4259 65.7036 10.5668C65.4558 10.7088 65.1751 10.7834 64.8895 10.7834C64.6038 10.7834 64.3232 10.7088 64.0753 10.5668C63.8194 10.426 63.6093 10.2149 63.4696 9.95836C63.3265 9.70887 63.2514 9.42615 63.2519 9.13852C63.2524 8.85088 63.3284 8.56842 63.4724 8.31941C63.6135 8.0618 63.8264 7.85079 64.0853 7.71208C64.3311 7.57467 64.6077 7.50184 64.8892 7.50049Z" fill="#FEFEFE"/>
</g>
<defs>
<clipPath id="clip0_2895_1931">
<rect width="62" height="11.3333" fill="white" transform="translate(5 7)"/>
</clipPath>
</defs>
</svg>
