<svg width="72" height="24" viewBox="0 0 72 24" fill="none" xmlns="http://www.w3.org/2000/svg">
    <path fill-rule="evenodd" clip-rule="evenodd" d="M14.6176 10.3662L15.1345 9.87004L15.1359 9.86737C15.1359 9.86737 17.4287 12.0638 15.1222 14.5782L14.6285 14.1232C14.4283 16.6176 12.3357 16.9715 11.7283 17.0207L12.1273 17.4278C11.2551 18.1794 10.4228 18.4269 9.69874 18.4242V15.391C9.64939 15.3937 9.60139 15.395 9.55201 15.395H9.5438C7.77071 15.391 6.33496 13.9955 6.33496 12.2753C6.33496 10.5552 7.77071 9.15962 9.5438 9.15562H9.55201C9.60139 9.15562 9.65073 9.15695 9.69874 9.15962V6.00002C10.4228 5.99736 11.2565 6.24481 12.1273 6.99513L11.6556 7.47672C12.1643 7.50732 14.4036 7.78935 14.6176 10.3662ZM12.765 12.1396L14.5051 10.4727H14.5037L12.2164 10.5286C12.5401 10.9915 12.7389 11.5436 12.765 12.1396ZM11.539 9.82213L11.5527 7.58315L9.98258 9.1849C10.5654 9.25939 11.0988 9.48689 11.539 9.82213ZM9.55338 10.9264C8.78409 10.9264 8.16152 11.5303 8.16152 12.2767C8.16152 13.023 8.78409 13.627 9.55338 13.627C10.3227 13.627 10.9452 13.023 10.9452 12.2767C10.9452 11.5303 10.3227 10.9264 9.55338 10.9264ZM11.5486 14.7245C11.1331 15.0425 10.6353 15.2646 10.0909 15.3538V15.3551L11.5623 16.8557L11.5486 14.7245ZM12.7663 12.4084C12.7416 12.9857 12.5551 13.5219 12.2494 13.9769H12.2507L14.5271 14.0327L12.7663 12.4084Z" fill="#E20AB7"/>
    <path d="M5.35451 12.2127C5.35451 14.1736 6.84647 15.802 8.78823 16.088V18.4002C5.54101 18.0982 3 15.4441 3 12.214C3 8.9839 5.54101 6.32982 8.78823 6.02783V8.33734C6.84647 8.62336 5.35451 10.2517 5.35451 12.2127Z" fill="#E20AB7"/>
    <path d="M22.0062 9.96194V9.9646C20.761 9.9726 19.7545 10.9544 19.7545 12.1637C19.7545 13.373 20.761 14.3548 22.0062 14.3628V14.3654H24.5568V15.3885H22.0062V15.3845C20.1659 15.3765 18.6753 13.9264 18.6753 12.1384C18.6753 10.3504 20.1645 8.90032 22.0062 8.89233H24.5568V9.96194H22.0062Z" fill="white"/>
    <path fill-rule="evenodd" clip-rule="evenodd" d="M52.1813 8.90308C50.3328 8.90308 48.834 10.3572 48.834 12.1505C48.834 13.9438 50.3328 15.3979 52.1813 15.3979C54.0298 15.3979 55.5286 13.9438 55.5286 12.1505C55.5286 10.3572 54.0298 8.90308 52.1813 8.90308ZM52.1813 14.3057C50.9542 14.3057 49.9599 13.3412 49.9599 12.1505C49.9599 10.9598 50.9542 9.99528 52.1813 9.99528C53.4087 9.99528 54.403 10.9598 54.403 12.1505C54.403 13.3412 53.4087 14.3057 52.1813 14.3057Z" fill="white"/>
    <path d="M26.6782 8.91089H27.9014V14.2962H31.3447V15.3006H26.6782V8.91089Z" fill="white"/>
    <path d="M67.4223 13.0456V15.3006H66.1989V13.0643L63.6113 8.91089H64.9195L66.8491 12.0239L68.7961 8.91089H70.0001L67.4223 13.0456Z" fill="white"/>
    <path d="M56.6436 9.91529H58.8254V15.3006H60.0485V9.91529H62.2317V8.91089H56.6436V9.91529Z" fill="white"/>
    <path d="M35.334 8.91089H36.538L39.5108 15.3006H38.2315L35.9264 10.0976L33.6308 15.3006H32.3706L35.334 8.91089Z" fill="white"/>
    <path d="M45.4001 13.2014C46.2942 12.8635 46.8017 12.1518 46.8017 11.1846C46.8017 9.77045 45.7294 8.91235 43.9974 8.91235H41.2876V9.9181H43.9411C45.0135 9.91676 45.5689 10.3824 45.5689 11.1859C45.5689 11.9895 45.0135 12.4644 43.9411 12.4644H41.2876V15.3034H42.511V13.4409H43.9974C44.0825 13.4409 44.1676 13.4409 44.251 13.4316L45.5964 15.3034H46.9129L45.3974 13.2041L45.4001 13.2014Z" fill="white"/>
</svg>
