<svg width="72" height="24" viewBox="0 0 72 24" fill="none" xmlns="http://www.w3.org/2000/svg">
<path fill-rule="evenodd" clip-rule="evenodd" d="M39.9535 6.65426L34.6582 12.965C33.9154 13.8502 33.2066 14.4871 31.7306 13.2397C30.2545 11.9923 30.75 11.1941 31.4928 10.3089L36.7881 3.99817" fill="white"/>
<path d="M39.9535 6.65426L34.6582 12.965C33.9154 13.8502 33.2066 14.4871 31.7306 13.2397C30.2545 11.9923 30.75 11.1941 31.4928 10.3089L36.7881 3.99817" stroke="white" stroke-width="0.762422" stroke-linecap="round" stroke-linejoin="round"/>
<path fill-rule="evenodd" clip-rule="evenodd" d="M33.7015 8.66017C35.4116 8.66017 36.361 10.6397 35.2904 11.9732L34.548 12.898C33.7844 13.808 32.4569 13.9511 31.5828 13.2176C30.7086 12.4842 30.619 11.1519 31.3826 10.2419L32.1769 9.346C32.5636 8.90983 33.1186 8.66017 33.7015 8.66017Z" fill="#00CC66"/>
<path d="M36.3904 3.24256L40.8747 7.00535" stroke="white" stroke-width="0.762422" stroke-linecap="round"/>
<path d="M39.9535 6.65426L34.6582 12.965C33.9154 13.8502 33.2066 14.4871 31.7306 13.2397C30.2545 11.9923 30.75 11.1941 31.4928 10.3089L36.7881 3.99817" stroke="white" stroke-width="0.762422" stroke-linecap="round" stroke-linejoin="round"/>
<path d="M34 4.5L36.1692 6.17453" stroke="black" stroke-width="0.381211" stroke-linecap="round"/>
<path d="M33 5.5L35.2837 7.22963" stroke="black" stroke-width="0.381211" stroke-linecap="round"/>
<path d="M32 6.5L34.3987 8.28479" stroke="black" stroke-width="0.381211" stroke-linecap="round"/>
<path d="M31 7.5L33.5129 9.33994" stroke="black" stroke-width="0.381211" stroke-linecap="round"/>
<path d="M30.5 9L32.6279 10.3951" stroke="black" stroke-width="0.381211" stroke-linecap="round"/>
<path d="M9.46191 21V17.088H10.3439V21H9.46191Z" fill="white"/>
<path d="M11.1946 21V18.024H11.9146L11.9746 18.402H11.9986C12.1266 18.282 12.2666 18.178 12.4186 18.09C12.5746 17.998 12.7526 17.952 12.9526 17.952C13.2766 17.952 13.5106 18.06 13.6546 18.276C13.8026 18.488 13.8766 18.78 13.8766 19.152V21H12.9946V19.266C12.9946 19.05 12.9646 18.902 12.9046 18.822C12.8486 18.742 12.7566 18.702 12.6286 18.702C12.5166 18.702 12.4206 18.728 12.3406 18.78C12.2606 18.828 12.1726 18.898 12.0766 18.99V21H11.1946Z" fill="white"/>
<path d="M15.9242 21.072C15.6482 21.072 15.3982 21.012 15.1742 20.892C14.9542 20.768 14.7782 20.59 14.6462 20.358C14.5182 20.122 14.4542 19.84 14.4542 19.512C14.4542 19.18 14.5262 18.898 14.6702 18.666C14.8142 18.434 15.0042 18.258 15.2402 18.138C15.4762 18.014 15.7302 17.952 16.0022 17.952C16.1862 17.952 16.3482 17.982 16.4882 18.042C16.6322 18.102 16.7602 18.178 16.8722 18.27L16.4582 18.84C16.3182 18.724 16.1842 18.666 16.0562 18.666C15.8442 18.666 15.6742 18.742 15.5462 18.894C15.4222 19.046 15.3602 19.252 15.3602 19.512C15.3602 19.768 15.4222 19.974 15.5462 20.13C15.6742 20.282 15.8342 20.358 16.0262 20.358C16.1222 20.358 16.2162 20.338 16.3082 20.298C16.4002 20.254 16.4842 20.202 16.5602 20.142L16.9082 20.718C16.7602 20.846 16.6002 20.938 16.4282 20.994C16.2562 21.046 16.0882 21.072 15.9242 21.072Z" fill="white"/>
<path d="M17.429 21V18.024H18.311V21H17.429ZM17.867 17.586C17.719 17.586 17.599 17.544 17.507 17.46C17.415 17.376 17.369 17.264 17.369 17.124C17.369 16.984 17.415 16.872 17.507 16.788C17.599 16.704 17.719 16.662 17.867 16.662C18.015 16.662 18.135 16.704 18.227 16.788C18.319 16.872 18.365 16.984 18.365 17.124C18.365 17.264 18.319 17.376 18.227 17.46C18.135 17.544 18.015 17.586 17.867 17.586Z" fill="white"/>
<path d="M20.1492 21.072C19.7812 21.072 19.4852 20.934 19.2612 20.658C19.0412 20.378 18.9312 19.996 18.9312 19.512C18.9312 19.188 18.9892 18.91 19.1052 18.678C19.2252 18.442 19.3792 18.262 19.5672 18.138C19.7592 18.014 19.9592 17.952 20.1672 17.952C20.3312 17.952 20.4692 17.98 20.5812 18.036C20.6932 18.092 20.7992 18.168 20.8992 18.264L20.8632 17.808V16.794H21.7452V21H21.0252L20.9652 20.706H20.9412C20.8372 20.81 20.7152 20.898 20.5752 20.97C20.4352 21.038 20.2932 21.072 20.1492 21.072ZM20.3772 20.352C20.4732 20.352 20.5592 20.332 20.6352 20.292C20.7152 20.252 20.7912 20.182 20.8632 20.082V18.864C20.7872 18.792 20.7052 18.742 20.6172 18.714C20.5332 18.686 20.4512 18.672 20.3712 18.672C20.2312 18.672 20.1072 18.74 19.9992 18.876C19.8912 19.008 19.8372 19.216 19.8372 19.5C19.8372 19.792 19.8832 20.008 19.9752 20.148C20.0712 20.284 20.2052 20.352 20.3772 20.352Z" fill="white"/>
<path d="M23.8586 21.072C23.5746 21.072 23.3186 21.01 23.0906 20.886C22.8626 20.762 22.6826 20.584 22.5506 20.352C22.4186 20.12 22.3526 19.84 22.3526 19.512C22.3526 19.188 22.4186 18.91 22.5506 18.678C22.6866 18.446 22.8626 18.268 23.0786 18.144C23.2946 18.016 23.5206 17.952 23.7566 17.952C24.0406 17.952 24.2746 18.016 24.4586 18.144C24.6466 18.268 24.7866 18.438 24.8786 18.654C24.9746 18.866 25.0226 19.108 25.0226 19.38C25.0226 19.456 25.0186 19.532 25.0106 19.608C25.0026 19.68 24.9946 19.734 24.9866 19.77H23.2046C23.2446 19.986 23.3346 20.146 23.4746 20.25C23.6146 20.35 23.7826 20.4 23.9786 20.4C24.1906 20.4 24.4046 20.334 24.6206 20.202L24.9146 20.736C24.7626 20.84 24.5926 20.922 24.4046 20.982C24.2166 21.042 24.0346 21.072 23.8586 21.072ZM23.1986 19.188H24.2726C24.2726 19.024 24.2326 18.89 24.1526 18.786C24.0766 18.678 23.9506 18.624 23.7746 18.624C23.6386 18.624 23.5166 18.672 23.4086 18.768C23.3006 18.86 23.2306 19 23.1986 19.188Z" fill="white"/>
<path d="M25.6321 21V18.024H26.3521L26.4121 18.402H26.4361C26.5641 18.282 26.7041 18.178 26.8561 18.09C27.0121 17.998 27.1901 17.952 27.3901 17.952C27.7141 17.952 27.9481 18.06 28.0921 18.276C28.2401 18.488 28.3141 18.78 28.3141 19.152V21H27.4321V19.266C27.4321 19.05 27.4021 18.902 27.3421 18.822C27.2861 18.742 27.1941 18.702 27.0661 18.702C26.9541 18.702 26.8581 18.728 26.7781 18.78C26.6981 18.828 26.6101 18.898 26.5141 18.99V21H25.6321Z" fill="white"/>
<path d="M30.2117 21.072C29.8437 21.072 29.5797 20.966 29.4197 20.754C29.2637 20.542 29.1857 20.264 29.1857 19.92V18.714H28.7777V18.06L29.2337 18.024L29.3357 17.232H30.0677V18.024H30.7817V18.714H30.0677V19.908C30.0677 20.076 30.1017 20.198 30.1697 20.274C30.2417 20.346 30.3357 20.382 30.4517 20.382C30.4997 20.382 30.5477 20.376 30.5957 20.364C30.6477 20.352 30.6937 20.338 30.7337 20.322L30.8717 20.964C30.7957 20.988 30.7017 21.012 30.5897 21.036C30.4817 21.06 30.3557 21.072 30.2117 21.072Z" fill="white"/>
<path d="M34.3637 21.072C34.0077 21.072 33.6837 20.996 33.3917 20.844C33.1037 20.692 32.8737 20.468 32.7017 20.172C32.5337 19.872 32.4497 19.504 32.4497 19.068C32.4497 18.636 32.5357 18.268 32.7077 17.964C32.8837 17.656 33.1157 17.422 33.4037 17.262C33.6917 17.098 34.0097 17.016 34.3577 17.016C34.6417 17.016 34.8857 17.068 35.0897 17.172C35.2937 17.276 35.4597 17.394 35.5877 17.526L35.1257 18.09C35.0257 18.002 34.9197 17.928 34.8077 17.868C34.6957 17.808 34.5557 17.778 34.3877 17.778C34.0837 17.778 33.8357 17.89 33.6437 18.114C33.4517 18.338 33.3557 18.646 33.3557 19.038C33.3557 19.438 33.4477 19.75 33.6317 19.974C33.8157 20.198 34.0897 20.31 34.4537 20.31C34.5337 20.31 34.6117 20.3 34.6877 20.28C34.7637 20.26 34.8257 20.23 34.8737 20.19V19.518H34.2257V18.798H35.6537V20.598C35.5177 20.73 35.3357 20.842 35.1077 20.934C34.8837 21.026 34.6357 21.072 34.3637 21.072Z" fill="white"/>
<path d="M37.7219 21.072C37.4379 21.072 37.1819 21.01 36.9539 20.886C36.7259 20.762 36.5459 20.584 36.4139 20.352C36.2819 20.12 36.2159 19.84 36.2159 19.512C36.2159 19.188 36.2819 18.91 36.4139 18.678C36.5499 18.446 36.7259 18.268 36.9419 18.144C37.1579 18.016 37.3839 17.952 37.6199 17.952C37.9039 17.952 38.1379 18.016 38.3219 18.144C38.5099 18.268 38.6499 18.438 38.7419 18.654C38.8379 18.866 38.8859 19.108 38.8859 19.38C38.8859 19.456 38.8819 19.532 38.8739 19.608C38.8659 19.68 38.8579 19.734 38.8499 19.77H37.0679C37.1079 19.986 37.1979 20.146 37.3379 20.25C37.4779 20.35 37.6459 20.4 37.8419 20.4C38.0539 20.4 38.2679 20.334 38.4839 20.202L38.7779 20.736C38.6259 20.84 38.4559 20.922 38.2679 20.982C38.0799 21.042 37.8979 21.072 37.7219 21.072ZM37.0619 19.188H38.1359C38.1359 19.024 38.0959 18.89 38.0159 18.786C37.9399 18.678 37.8139 18.624 37.6379 18.624C37.5019 18.624 37.3799 18.672 37.2719 18.768C37.1639 18.86 37.0939 19 37.0619 19.188Z" fill="white"/>
<path d="M39.4954 21V18.024H40.2154L40.2754 18.402H40.2994C40.4274 18.282 40.5674 18.178 40.7194 18.09C40.8754 17.998 41.0534 17.952 41.2534 17.952C41.5774 17.952 41.8114 18.06 41.9554 18.276C42.1034 18.488 42.1774 18.78 42.1774 19.152V21H41.2954V19.266C41.2954 19.05 41.2654 18.902 41.2054 18.822C41.1494 18.742 41.0574 18.702 40.9294 18.702C40.8174 18.702 40.7214 18.728 40.6414 18.78C40.5614 18.828 40.4734 18.898 40.3774 18.99V21H39.4954Z" fill="white"/>
<path d="M44.261 21.072C43.977 21.072 43.721 21.01 43.493 20.886C43.265 20.762 43.085 20.584 42.953 20.352C42.821 20.12 42.755 19.84 42.755 19.512C42.755 19.188 42.821 18.91 42.953 18.678C43.089 18.446 43.265 18.268 43.481 18.144C43.697 18.016 43.923 17.952 44.159 17.952C44.443 17.952 44.677 18.016 44.861 18.144C45.049 18.268 45.189 18.438 45.281 18.654C45.377 18.866 45.425 19.108 45.425 19.38C45.425 19.456 45.421 19.532 45.413 19.608C45.405 19.68 45.397 19.734 45.389 19.77H43.607C43.647 19.986 43.737 20.146 43.877 20.25C44.017 20.35 44.185 20.4 44.381 20.4C44.593 20.4 44.807 20.334 45.023 20.202L45.317 20.736C45.165 20.84 44.995 20.922 44.807 20.982C44.619 21.042 44.437 21.072 44.261 21.072ZM43.601 19.188H44.675C44.675 19.024 44.635 18.89 44.555 18.786C44.479 18.678 44.353 18.624 44.177 18.624C44.041 18.624 43.919 18.672 43.811 18.768C43.703 18.86 43.633 19 43.601 19.188Z" fill="white"/>
<path d="M46.0344 21V18.024H46.7544L46.8144 18.546H46.8384C46.9464 18.346 47.0764 18.198 47.2284 18.102C47.3804 18.002 47.5324 17.952 47.6844 17.952C47.7684 17.952 47.8384 17.958 47.8944 17.97C47.9504 17.978 47.9984 17.992 48.0384 18.012L47.8944 18.774C47.8424 18.758 47.7904 18.746 47.7384 18.738C47.6904 18.73 47.6344 18.726 47.5704 18.726C47.4584 18.726 47.3404 18.768 47.2164 18.852C47.0964 18.932 46.9964 19.072 46.9164 19.272V21H46.0344Z" fill="white"/>
<path d="M49.0051 21.072C48.7331 21.072 48.5171 20.986 48.3571 20.814C48.1971 20.638 48.1171 20.424 48.1171 20.172C48.1171 19.86 48.2491 19.616 48.5131 19.44C48.7771 19.264 49.2031 19.146 49.7911 19.086C49.7831 18.954 49.7431 18.85 49.6711 18.774C49.6031 18.694 49.4871 18.654 49.3231 18.654C49.1991 18.654 49.0731 18.678 48.9451 18.726C48.8172 18.774 48.6811 18.84 48.5371 18.924L48.2191 18.342C48.4071 18.226 48.6071 18.132 48.8191 18.06C49.0351 17.988 49.2591 17.952 49.4911 17.952C49.8711 17.952 50.1631 18.062 50.3671 18.282C50.5711 18.502 50.6731 18.84 50.6731 19.296V21H49.9531L49.8931 20.694H49.8691C49.7451 20.806 49.6111 20.898 49.4671 20.97C49.3271 21.038 49.1731 21.072 49.0051 21.072ZM49.3051 20.388C49.4051 20.388 49.4911 20.366 49.5631 20.322C49.6391 20.274 49.7151 20.212 49.7911 20.136V19.614C49.4791 19.654 49.2631 19.718 49.1431 19.806C49.0231 19.89 48.9631 19.99 48.9631 20.106C48.9631 20.202 48.9931 20.274 49.0531 20.322C49.1171 20.366 49.2011 20.388 49.3051 20.388Z" fill="white"/>
<path d="M52.4597 21.072C52.0917 21.072 51.8277 20.966 51.6677 20.754C51.5117 20.542 51.4337 20.264 51.4337 19.92V18.714H51.0257V18.06L51.4817 18.024L51.5837 17.232H52.3157V18.024H53.0297V18.714H52.3157V19.908C52.3157 20.076 52.3497 20.198 52.4177 20.274C52.4897 20.346 52.5837 20.382 52.6997 20.382C52.7477 20.382 52.7957 20.376 52.8437 20.364C52.8957 20.352 52.9417 20.338 52.9817 20.322L53.1197 20.964C53.0437 20.988 52.9497 21.012 52.8377 21.036C52.7297 21.06 52.6037 21.072 52.4597 21.072Z" fill="white"/>
<path d="M54.7831 21.072C54.5311 21.072 54.2931 21.012 54.0691 20.892C53.8491 20.768 53.6711 20.59 53.5351 20.358C53.3991 20.122 53.3311 19.84 53.3311 19.512C53.3311 19.18 53.3991 18.898 53.5351 18.666C53.6711 18.434 53.8491 18.258 54.0691 18.138C54.2931 18.014 54.5311 17.952 54.7831 17.952C55.0351 17.952 55.2711 18.014 55.4911 18.138C55.7111 18.258 55.8891 18.434 56.0251 18.666C56.1611 18.898 56.2291 19.18 56.2291 19.512C56.2291 19.84 56.1611 20.122 56.0251 20.358C55.8891 20.59 55.7111 20.768 55.4911 20.892C55.2711 21.012 55.0351 21.072 54.7831 21.072ZM54.7831 20.358C54.9631 20.358 55.0991 20.282 55.1911 20.13C55.2831 19.974 55.3291 19.768 55.3291 19.512C55.3291 19.252 55.2831 19.046 55.1911 18.894C55.0991 18.742 54.9631 18.666 54.7831 18.666C54.5991 18.666 54.4611 18.742 54.3691 18.894C54.2811 19.046 54.2371 19.252 54.2371 19.512C54.2371 19.768 54.2811 19.974 54.3691 20.13C54.4611 20.282 54.5991 20.358 54.7831 20.358Z" fill="white"/>
<path d="M56.8333 21V18.024H57.5533L57.6133 18.546H57.6373C57.7453 18.346 57.8753 18.198 58.0273 18.102C58.1793 18.002 58.3313 17.952 58.4833 17.952C58.5673 17.952 58.6373 17.958 58.6933 17.97C58.7493 17.978 58.7973 17.992 58.8373 18.012L58.6933 18.774C58.6413 18.758 58.5893 18.746 58.5373 18.738C58.4893 18.73 58.4333 18.726 58.3693 18.726C58.2573 18.726 58.1393 18.768 58.0153 18.852C57.8953 18.932 57.7953 19.072 57.7153 19.272V21H56.8333Z" fill="white"/>
</svg>
