<svg width="72" height="24" viewBox="0 0 72 24" fill="none" xmlns="http://www.w3.org/2000/svg">
    <path d="M23.7913 19.9566C23.3923 19.9635 22.9959 19.8896 22.6261 19.7394C22.2563 19.5892 21.9206 19.3657 21.6393 19.0824C21.3579 18.7991 21.1366 18.4618 20.9887 18.0908C20.8408 17.7198 20.7694 17.3227 20.7786 16.9234C20.7694 16.5241 20.8408 16.127 20.9887 15.7559C21.1366 15.3849 21.3579 15.0477 21.6393 14.7644C21.9206 14.4811 22.2563 14.2576 22.6261 14.1074C22.9959 13.9572 23.3923 13.8833 23.7913 13.8902C24.1952 13.8776 24.5967 13.9564 24.9659 14.1209C25.335 14.2854 25.6623 14.5312 25.9232 14.8401L25.4055 15.3438C25.214 15.1027 24.9683 14.9102 24.6884 14.7821C24.4085 14.6539 24.1024 14.5937 23.7949 14.6062C23.4989 14.5995 23.2046 14.6528 22.9296 14.7629C22.6547 14.873 22.4049 15.0375 22.1951 15.2467C21.977 15.4662 21.8066 15.7284 21.6946 16.017C21.5827 16.3055 21.5315 16.6141 21.5444 16.9234C21.5315 17.2327 21.5827 17.5413 21.6946 17.8298C21.8066 18.1184 21.977 18.3806 22.1951 18.6001C22.4049 18.8093 22.6547 18.9738 22.9296 19.0839C23.2046 19.1939 23.4989 19.2472 23.7949 19.2406C24.1385 19.2444 24.4785 19.1707 24.7897 19.025C25.1009 18.8792 25.3753 18.6651 25.5924 18.3986L26.1101 18.9167C25.8391 19.2411 25.4988 19.5006 25.1143 19.6759C24.6998 19.8674 24.2477 19.9633 23.7913 19.9566ZM27.5014 19.827H26.7572V14.0161H27.5014V19.827ZM28.7165 16.3297C29.1065 15.9421 29.6338 15.7246 30.1833 15.7246C30.7329 15.7246 31.2602 15.9421 31.6501 16.3297C31.8408 16.5312 31.9898 16.7685 32.0885 17.0278C32.1872 17.2872 32.2337 17.5635 32.2253 17.8409C32.2337 18.1183 32.1872 18.3946 32.0885 18.654C31.9898 18.9133 31.8408 19.1506 31.6501 19.3521C31.2602 19.7397 30.7329 19.9572 30.1833 19.9572C29.6338 19.9572 29.1065 19.7397 28.7165 19.3521C28.5259 19.1506 28.3769 18.9133 28.2782 18.654C28.1794 18.3946 28.1329 18.1183 28.1413 17.8409C28.1329 17.5635 28.1794 17.2872 28.2782 17.0278C28.3769 16.7685 28.5259 16.5312 28.7165 16.3297ZM29.2702 18.8843C29.3874 19.0084 29.5287 19.1072 29.6854 19.1747C29.8421 19.2422 30.0109 19.277 30.1815 19.277C30.3521 19.277 30.5209 19.2422 30.6776 19.1747C30.8343 19.1072 30.9756 19.0084 31.0929 18.8843C31.223 18.7447 31.324 18.5805 31.39 18.4013C31.456 18.2222 31.4858 18.0317 31.4776 17.8409C31.4858 17.6501 31.456 17.4596 31.39 17.2805C31.324 17.1013 31.223 16.9371 31.0929 16.7975C30.9756 16.6734 30.8343 16.5746 30.6776 16.5071C30.5209 16.4396 30.3521 16.4048 30.1815 16.4048C30.0109 16.4048 29.8421 16.4396 29.6854 16.5071C29.5287 16.5746 29.3874 16.6734 29.2702 16.7975C29.1401 16.9371 29.0391 17.1013 28.9731 17.2805C28.907 17.4596 28.8773 17.6501 28.8855 17.8409C28.8782 18.0313 28.9088 18.2213 28.9754 18.3998C29.0421 18.5783 29.1435 18.7418 29.2738 18.8808L29.2702 18.8843ZM36.3489 19.827H35.6299V19.2765H35.6083C35.4803 19.4856 35.2992 19.657 35.0834 19.7731C34.8595 19.903 34.6052 19.9712 34.3464 19.971C34.1363 19.9854 33.9256 19.9521 33.7302 19.8736C33.5347 19.7951 33.3595 19.6734 33.2176 19.5176C32.9452 19.1729 32.8084 18.7403 32.8329 18.3015V15.8548H33.5771V18.1647C33.5771 18.9059 33.9042 19.2765 34.5585 19.2765C34.7039 19.2811 34.8483 19.2508 34.9796 19.1882C35.1109 19.1256 35.2254 19.0325 35.3135 18.9167C35.5064 18.6721 35.6092 18.3684 35.6047 18.0568V15.8548H36.3489V19.827ZM38.8762 19.9566C38.6238 19.9574 38.3741 19.9035 38.1445 19.7985C37.9149 19.6935 37.7107 19.54 37.546 19.3485C37.1733 18.9365 36.9737 18.3965 36.9888 17.8409C36.9737 17.2853 37.1733 16.7453 37.546 16.3333C37.7107 16.1418 37.9149 15.9883 38.1445 15.8833C38.3741 15.7783 38.6238 15.7244 38.8762 15.7252C39.159 15.7208 39.4385 15.7876 39.6887 15.9195C39.9086 16.0303 40.0948 16.198 40.228 16.4053H40.2603L40.228 15.8548V14.0161H40.9721V19.827H40.2531V19.2765H40.2208C40.0876 19.4838 39.9014 19.6515 39.6815 19.7623C39.4334 19.8931 39.1566 19.9598 38.8762 19.9566ZM38.9984 19.2765C39.1667 19.279 39.3335 19.2456 39.4878 19.1786C39.6421 19.1116 39.7805 19.0125 39.8936 18.8879C40.1464 18.5999 40.2756 18.2237 40.2531 17.8409C40.2756 17.4581 40.1464 17.0819 39.8936 16.7939C39.7797 16.6686 39.641 16.5685 39.4862 16.5C39.3314 16.4315 39.1641 16.3962 38.9949 16.3962C38.8256 16.3962 38.6583 16.4315 38.5035 16.5C38.3487 16.5685 38.21 16.6686 38.0961 16.7939C37.9705 16.9356 37.8741 17.1007 37.8124 17.2797C37.7507 17.4588 37.725 17.6483 37.7366 17.8373C37.725 18.0264 37.7507 18.2158 37.8124 18.3949C37.8741 18.5739 37.9705 18.7391 38.0961 18.8808C38.2094 19.0076 38.3486 19.1085 38.5043 19.1768C38.66 19.2451 38.8285 19.2791 38.9984 19.2765Z" fill="white"/>
    <path d="M43.8477 17.4745V19.8258H43.1112V14.0204H45.0645C45.5608 14.0204 45.9824 14.188 46.3293 14.5231C46.6815 14.8583 46.8577 15.2664 46.8577 15.7474C46.8577 16.2393 46.6815 16.6501 46.3293 16.9799C45.9877 17.3096 45.5661 17.4745 45.0645 17.4745H43.8477ZM43.8477 14.7339V16.761H45.0805C45.374 16.761 45.6168 16.661 45.809 16.461C46.0064 16.261 46.1052 16.0231 46.1052 15.7474C46.1052 15.4772 46.0064 15.242 45.809 15.042C45.6168 14.8366 45.374 14.7339 45.0805 14.7339H43.8477Z" fill="white"/>
    <path d="M48.2773 14.0204V19.8258H47.5408V14.0204H48.2773Z" fill="white"/>
    <path d="M49.672 18.6096C49.672 18.8042 49.752 18.9664 49.9121 19.0961C50.0776 19.2258 50.2697 19.2907 50.4885 19.2907C50.798 19.2907 51.0729 19.1745 51.313 18.942C51.5585 18.7096 51.6813 18.4366 51.6813 18.1231C51.4518 17.9393 51.1316 17.8474 50.7207 17.8474C50.4218 17.8474 50.171 17.9204 49.9682 18.0664C49.7707 18.2123 49.672 18.3934 49.672 18.6096ZM50.6246 15.7231C51.169 15.7231 51.5986 15.8718 51.9134 16.1691C52.2283 16.461 52.3858 16.8637 52.3858 17.3772V19.8258H51.6813V19.2745H51.6493C51.3451 19.7285 50.9395 19.9556 50.4325 19.9556C50.0002 19.9556 49.6373 19.8258 49.3437 19.5664C49.0555 19.3069 48.9115 18.9826 48.9115 18.5934C48.9115 18.1826 49.0636 17.8556 49.3678 17.6123C49.6773 17.3691 50.0882 17.2474 50.6006 17.2474C51.0382 17.2474 51.3984 17.3285 51.6813 17.4907V17.3204C51.6813 17.061 51.5799 16.842 51.3771 16.6637C51.1743 16.4799 50.9368 16.388 50.6646 16.388C50.2537 16.388 49.9281 16.5637 49.688 16.915L49.0395 16.5015C49.3971 15.9826 49.9255 15.7231 50.6246 15.7231Z" fill="white"/>
    <path d="M54.6913 19.8907C54.3764 19.8907 54.1122 19.7907 53.8988 19.5907C53.6853 19.3907 53.5759 19.1123 53.5705 18.7556V16.5339H52.8821V15.8528H53.5705V14.6366H54.307V15.8528H56.0682V15.2772C56.0682 14.8826 56.191 14.5637 56.4364 14.3204C56.6873 14.0772 57.0075 13.9556 57.3971 13.9556C57.6639 13.9556 57.8827 14.0015 58.0535 14.0934L57.8534 14.7501C57.7253 14.6853 57.5812 14.6528 57.4211 14.6528C57.2396 14.6528 57.0902 14.7177 56.9728 14.8474C56.8607 14.9718 56.8047 15.1393 56.8047 15.3501V15.8528H57.8294V16.5339H56.8047V19.8258H56.0682V16.5339H54.307V18.5366C54.307 18.7691 54.3524 18.9366 54.4431 19.0393C54.5392 19.142 54.6513 19.1934 54.7793 19.1934C54.9021 19.1934 55.0195 19.1691 55.1316 19.1204L55.3637 19.7853C55.1663 19.8556 54.9421 19.8907 54.6913 19.8907Z" fill="white"/>
    <path d="M58.066 17.8393C58.066 17.2285 58.2554 16.7231 58.6343 16.3231C59.0186 15.9231 59.5016 15.7231 60.0833 15.7231C60.665 15.7231 61.1453 15.9231 61.5243 16.3231C61.9085 16.7231 62.1006 17.2285 62.1006 17.8393C62.1006 18.4556 61.9085 18.961 61.5243 19.3556C61.1453 19.7556 60.665 19.9556 60.0833 19.9556C59.5016 19.9556 59.0186 19.7556 58.6343 19.3556C58.2554 18.9556 58.066 18.4501 58.066 17.8393ZM58.8025 17.8393C58.8025 18.2664 58.9252 18.6123 59.1707 18.8772C59.4162 19.142 59.7204 19.2745 60.0833 19.2745C60.4462 19.2745 60.7504 19.142 60.9959 18.8772C61.2414 18.6123 61.3642 18.2664 61.3642 17.8393C61.3642 17.4177 61.2414 17.0745 60.9959 16.8096C60.7451 16.5393 60.4409 16.4042 60.0833 16.4042C59.7257 16.4042 59.4215 16.5393 59.1707 16.8096C58.9252 17.0745 58.8025 17.4177 58.8025 17.8393Z" fill="white"/>
    <path d="M63.428 19.8258H62.6915V15.8528H63.3959V16.5015H63.428C63.5027 16.2907 63.6548 16.1123 63.8843 15.9664C64.1191 15.815 64.3486 15.7393 64.5727 15.7393C64.7862 15.7393 64.9677 15.7718 65.1171 15.8366L64.8929 16.5583C64.8022 16.5204 64.6581 16.5015 64.4606 16.5015C64.1831 16.5015 63.9403 16.615 63.7322 16.842C63.5294 17.0691 63.428 17.3339 63.428 17.6366V19.8258Z" fill="white"/>
    <path d="M66.3361 19.8258H65.5997V15.8528H66.3041V16.4042H66.3361C66.4482 16.2096 66.619 16.0474 66.8485 15.9177C67.0833 15.788 67.3155 15.7231 67.5449 15.7231C67.8331 15.7231 68.0866 15.7907 68.3055 15.9258C68.5243 16.061 68.6844 16.2474 68.7858 16.4853C69.1113 15.9772 69.5623 15.7231 70.1387 15.7231C70.5923 15.7231 70.9419 15.8637 71.1874 16.1447C71.4329 16.4258 71.5556 16.8258 71.5556 17.3447V19.8258H70.8191V17.4583C70.8191 17.0853 70.7524 16.8177 70.619 16.6556C70.4856 16.488 70.2614 16.4042 69.9465 16.4042C69.6637 16.4042 69.4262 16.5258 69.2341 16.7691C69.0419 17.0123 68.9459 17.2988 68.9459 17.6285V19.8258H68.2094V17.4583C68.2094 17.0853 68.1427 16.8177 68.0093 16.6556C67.8758 16.488 67.6517 16.4042 67.3368 16.4042C67.054 16.4042 66.8165 16.5258 66.6243 16.7691C66.4322 17.0123 66.3361 17.2988 66.3361 17.6285V19.8258Z" fill="white"/>
    <g clip-path="url(#clip0_2530_1262)">
        <path fill-rule="evenodd" clip-rule="evenodd" d="M2.57471 11.9391L5.73455 17.4248H12.0539L15.2137 11.9391L12.054 6.4534H5.73455L2.57471 11.9391ZM6.53691 11.9744C6.53691 13.3357 7.64173 14.4432 8.99982 14.4432C10.3578 14.4432 11.4627 13.3357 11.4627 11.9744C11.4627 10.6132 10.3578 9.50575 8.99982 9.50575C7.64173 9.50575 6.53691 10.6132 6.53691 11.9744Z" fill="#CAC9C2"/>
        <path d="M13.9543 4.6143C13.7606 4.27812 13.2853 4.00311 12.8981 4.00311H5.11148C4.7242 4.00311 4.24888 4.27819 4.05531 4.6143L1.78007 8.56446C1.76221 8.81966 1.8089 9.08621 1.92119 9.28101L3.46131 11.9204L6.2106 7.15955H14.9005C15.1061 7.15955 15.3362 7.23757 15.5361 7.36048L13.9543 4.6143Z" fill="#5072AA"/>
        <path d="M1.87914 8.39157L1.77958 8.56445C1.76172 8.81966 1.80841 9.0862 1.92063 9.281L3.46075 11.9204L4.28018 10.5016L1.87914 8.39157Z" fill="#4D6796"/>
        <path d="M5.31257 6.03239C5.1866 6.03224 5.06582 5.98201 4.97674 5.89272C4.88766 5.80343 4.83755 5.68237 4.8374 5.55609C4.83755 5.42982 4.88766 5.30876 4.97674 5.21947C5.06582 5.13018 5.1866 5.07995 5.31257 5.0798C5.43857 5.07992 5.55937 5.13013 5.64847 5.21943C5.73757 5.30872 5.78769 5.4298 5.78782 5.55609C5.78767 5.68238 5.73755 5.80345 5.64845 5.89274C5.55936 5.98204 5.43856 6.03226 5.31257 6.03239ZM13.0991 5.55609C13.0999 5.61448 13.089 5.67243 13.0672 5.72658C13.0455 5.78074 13.0132 5.83002 12.9722 5.87156C12.9313 5.91311 12.8826 5.9461 12.8288 5.96861C12.7751 5.99113 12.7174 6.00272 12.6591 6.00272C12.6009 6.00272 12.5432 5.99113 12.4895 5.96861C12.4357 5.9461 12.387 5.91311 12.346 5.87156C12.3051 5.83002 12.2728 5.78074 12.251 5.72658C12.2293 5.67243 12.2184 5.61448 12.2192 5.55609C12.2206 5.4401 12.2676 5.32934 12.35 5.24783C12.4323 5.16632 12.5434 5.12062 12.6591 5.12062C12.7749 5.12062 12.886 5.16632 12.9683 5.24783C13.0507 5.32934 13.0977 5.4401 13.0991 5.55609Z" fill="white"/>
        <path d="M17.8479 11.3737L15.5364 7.36041C15.3364 7.23749 15.1064 7.15955 14.9008 7.15955H11.7671L14.4767 11.9467L10.1868 19.5438C10.0924 19.7076 9.93095 19.8567 9.74561 19.9667H12.8983C13.2856 19.9667 13.7609 19.6916 13.9546 19.3555L17.8479 12.5962C18.0416 12.26 18.0416 11.7099 17.8479 11.3737Z" fill="#CC4232"/>
        <path d="M15.6409 7.54048L15.5372 7.36041C15.3374 7.23749 15.1073 7.15955 14.9018 7.15955H11.7681L12.5837 8.60061L15.6409 7.54048Z" fill="#B23F33"/>
        <path d="M12.6588 18.7991C12.5328 18.799 12.412 18.7488 12.3229 18.6595C12.2338 18.5702 12.1837 18.4491 12.1836 18.3228C12.1837 18.1965 12.2339 18.0755 12.3229 17.9862C12.412 17.8969 12.5328 17.8466 12.6588 17.8465C12.7848 17.8466 12.9055 17.8968 12.9946 17.9861C13.0837 18.0754 13.1339 18.1965 13.134 18.3228C13.1339 18.4491 13.0838 18.5702 12.9947 18.6595C12.9056 18.7488 12.7848 18.799 12.6588 18.7991ZM16.3569 12.4508C16.2309 12.4506 16.1101 12.4004 16.021 12.3111C15.9319 12.2218 15.8818 12.1007 15.8817 11.9744C15.8818 11.8481 15.9319 11.727 16.021 11.6378C16.1101 11.5485 16.2309 11.4982 16.3569 11.4981C16.4829 11.4983 16.6037 11.5485 16.6928 11.6378C16.7818 11.7271 16.8319 11.8481 16.8321 11.9744C16.832 12.1007 16.7819 12.2218 16.6928 12.3111C16.6037 12.4004 16.4829 12.4506 16.3569 12.4508Z" fill="white"/>
        <path d="M6.27086 16.7347L1.92154 9.28094C1.80932 9.08614 1.76263 8.81959 1.78042 8.56439L0.16232 11.3736C-0.0313203 11.7098 -0.0313203 12.2599 0.16232 12.5961L4.05566 19.3554C4.24923 19.6915 4.72455 19.9666 5.11183 19.9666H9.7457C9.93105 19.8566 10.0925 19.7075 10.1869 19.5437L11.7731 16.7346H6.27086" fill="#ECB02A"/>
        <path d="M9.48242 19.9666H9.75193C9.93734 19.8567 10.0987 19.7076 10.1931 19.5438L11.7793 16.7347H10.0901L9.48242 19.9666Z" fill="#C79732"/>
        <path d="M5.31226 18.7991C5.18627 18.799 5.06549 18.7488 4.9764 18.6595C4.88732 18.5702 4.83722 18.4491 4.83709 18.3228C4.83724 18.1965 4.88735 18.0755 4.97643 17.9862C5.06551 17.8969 5.18628 17.8466 5.31226 17.8465C5.43826 17.8466 5.55906 17.8968 5.64816 17.9861C5.73726 18.0754 5.78737 18.1965 5.7875 18.3228C5.78739 18.4491 5.73729 18.5702 5.64819 18.6595C5.55908 18.7488 5.43827 18.799 5.31226 18.7991ZM1.60757 12.4508C1.48156 12.4506 1.36076 12.4004 1.27166 12.3111C1.18257 12.2218 1.13245 12.1007 1.13232 11.9744C1.13247 11.8481 1.18259 11.727 1.27169 11.6378C1.36078 11.5485 1.48158 11.4982 1.60757 11.4981C1.73354 11.4983 1.85432 11.5485 1.9434 11.6378C2.03248 11.7271 2.08259 11.8481 2.08274 11.9744C2.08261 12.1007 2.03251 12.2218 1.94342 12.3111C1.85434 12.4004 1.73356 12.4506 1.60757 12.4508Z" fill="white"/>
    </g>
    <path d="M23.904 11.0412C23.4633 11.0468 23.026 10.9634 22.6183 10.7958C22.2106 10.6283 21.8408 10.3801 21.5312 10.0661C21.2119 9.7655 20.9585 9.40172 20.787 8.99787C20.6156 8.59402 20.5299 8.15892 20.5354 7.72017C20.5301 7.28145 20.6159 6.84642 20.7873 6.4426C20.9588 6.03879 21.2121 5.67498 21.5312 5.37422C21.8393 5.05701 22.2084 4.80549 22.6161 4.63482C23.0239 4.46415 23.462 4.37786 23.904 4.38114C24.3251 4.37552 24.7432 4.45374 25.1339 4.61126C25.5245 4.76877 25.88 5.00243 26.1797 5.29866L25.5397 5.94991C25.1015 5.52604 24.5134 5.29317 23.904 5.30225C23.5879 5.29837 23.2744 5.36034 22.9835 5.48422C22.6926 5.60811 22.4307 5.79121 22.2143 6.02187C21.9894 6.24516 21.812 6.51169 21.6928 6.80541C21.5735 7.09914 21.5149 7.41397 21.5205 7.73097C21.5178 8.04434 21.5778 8.35508 21.697 8.64489C21.8162 8.9347 21.992 9.19772 22.2143 9.41847C22.6595 9.86251 23.2603 10.1151 23.8888 10.1225C24.5172 10.1299 25.1238 9.8915 25.5793 9.45805C25.8613 9.14897 26.0343 8.75591 26.0718 8.33904H23.9148V7.41793H26.967C26.997 7.60344 27.009 7.79141 27.0029 7.97923C27.0219 8.36798 26.9619 8.75653 26.8266 9.12141C26.6913 9.48629 26.4834 9.81991 26.2156 10.1021C25.9178 10.4124 25.5581 10.6564 25.1598 10.8182C24.7615 10.98 24.3336 11.056 23.904 11.0412ZM31.0007 10.4295C30.591 10.8225 30.0456 11.0419 29.4781 11.0419C28.9107 11.0419 28.3653 10.8225 27.9556 10.4295C27.7518 10.2317 27.5912 9.99359 27.4841 9.73034C27.3771 9.4671 27.3258 9.18446 27.3337 8.90035C27.326 8.61626 27.3774 8.33369 27.4844 8.07047C27.5915 7.80726 27.7519 7.56914 27.9556 7.37116C28.3657 6.979 28.911 6.76016 29.4781 6.76016C30.0453 6.76016 30.5906 6.979 31.0007 7.37116C31.2044 7.56914 31.3648 7.80726 31.4719 8.07047C31.5789 8.33369 31.6302 8.61626 31.6226 8.90035C31.63 9.18472 31.5782 9.46752 31.4705 9.73078C31.3628 9.99404 31.2016 10.232 30.9971 10.4295H31.0007ZM28.6279 9.82865C28.7369 9.94511 28.8685 10.0379 29.0148 10.1014C29.161 10.1649 29.3187 10.1976 29.4781 10.1976C29.6375 10.1976 29.7953 10.1649 29.9415 10.1014C30.0878 10.0379 30.2194 9.94511 30.3284 9.82865C30.4472 9.70577 30.5402 9.56032 30.6019 9.40089C30.6637 9.24146 30.6929 9.07126 30.6879 8.90035C30.6932 8.72886 30.6641 8.55804 30.6024 8.39798C30.5406 8.23793 30.4475 8.09187 30.3284 7.96844C30.218 7.85318 30.0854 7.76146 29.9387 7.69881C29.792 7.63615 29.6341 7.60385 29.4746 7.60385C29.315 7.60385 29.1571 7.63615 29.0104 7.69881C28.8637 7.76146 28.7311 7.85318 28.6207 7.96844C28.5016 8.09187 28.4085 8.23793 28.3467 8.39798C28.285 8.55804 28.2559 8.72886 28.2612 8.90035C28.2567 9.07151 28.2865 9.24186 28.3488 9.4013C28.4112 9.56075 28.5049 9.70606 28.6243 9.82865H28.6279ZM35.6814 10.4295C35.2718 10.8225 34.7263 11.0419 34.1589 11.0419C33.5915 11.0419 33.046 10.8225 32.6364 10.4295C32.4325 10.2317 32.272 9.99359 32.1649 9.73034C32.0578 9.4671 32.0066 9.18446 32.0145 8.90035C32.0068 8.61626 32.0582 8.33369 32.1652 8.07047C32.2723 7.80726 32.4327 7.56914 32.6364 7.37116C33.046 6.97818 33.5915 6.75878 34.1589 6.75878C34.7263 6.75878 35.2718 6.97818 35.6814 7.37116C35.8851 7.56914 36.0456 7.80726 36.1526 8.07047C36.2597 8.33369 36.311 8.61626 36.3034 8.90035C36.3112 9.18446 36.26 9.4671 36.153 9.73034C36.0459 9.99359 35.8853 10.2317 35.6814 10.4295ZM33.3087 9.82865C33.4176 9.94511 33.5493 10.0379 33.6956 10.1014C33.8418 10.1649 33.9995 10.1976 34.1589 10.1976C34.3183 10.1976 34.476 10.1649 34.6223 10.1014C34.7685 10.0379 34.9002 9.94511 35.0092 9.82865C35.128 9.70577 35.221 9.56032 35.2827 9.40089C35.3445 9.24146 35.3737 9.07126 35.3687 8.90035C35.374 8.72886 35.3449 8.55804 35.2831 8.39798C35.2214 8.23793 35.1282 8.09187 35.0092 7.96844C34.8988 7.85318 34.7662 7.76146 34.6195 7.69881C34.4727 7.63615 34.3149 7.60385 34.1553 7.60385C33.9958 7.60385 33.8379 7.63615 33.6912 7.69881C33.5445 7.76146 33.4119 7.85318 33.3015 7.96844C33.1824 8.09187 33.0893 8.23793 33.0275 8.39798C32.9658 8.55804 32.9367 8.72886 32.942 8.90035C32.9375 9.07151 32.9672 9.24186 33.0296 9.4013C33.092 9.56075 33.1857 9.70606 33.3051 9.82865H33.3087ZM38.7588 12.9626C38.3279 12.9763 37.9054 12.8417 37.5617 12.5812C37.2565 12.3516 37.0162 12.0466 36.8642 11.6961L37.6839 11.3542C37.7731 11.5637 37.9127 11.7479 38.0901 11.8904C38.2801 12.0436 38.5185 12.124 38.7624 12.117C38.9171 12.1265 39.072 12.1024 39.2165 12.0465C39.3611 11.9906 39.4919 11.9042 39.6001 11.7932C39.8167 11.5317 39.9236 11.1964 39.8985 10.8577V10.5483H39.8661C39.7291 10.7111 39.5561 10.8398 39.3608 10.9241C39.1655 11.0084 38.9532 11.0461 38.7408 11.034C38.4709 11.0348 38.2038 10.9796 37.9563 10.8719C37.7087 10.7641 37.4862 10.6061 37.3028 10.4079C37.1038 10.2113 36.9467 9.97636 36.841 9.71722C36.7353 9.45809 36.6833 9.18019 36.6881 8.90035C36.6831 8.61887 36.735 8.33928 36.8406 8.07836C36.9463 7.81745 37.1035 7.58057 37.3028 7.38195C37.4858 7.18294 37.7081 7.02419 37.9557 6.91579C38.2032 6.80739 38.4706 6.75171 38.7408 6.75229C38.9695 6.75188 39.1955 6.80227 39.4023 6.89981C39.5813 6.97803 39.7409 7.09473 39.8697 7.24163H39.9021V6.89981H40.7936V10.7318C40.8171 11.0349 40.7785 11.3396 40.6802 11.6273C40.5819 11.915 40.426 12.1796 40.222 12.4049C40.0277 12.5909 39.7981 12.7361 39.5468 12.8319C39.2955 12.9277 39.0276 12.9721 38.7588 12.9626ZM38.8235 10.1993C38.977 10.2026 39.1294 10.1721 39.2698 10.11C39.4103 10.0478 39.5353 9.95542 39.636 9.83945C39.8578 9.58504 39.9748 9.25579 39.9632 8.91834C39.9765 8.57519 39.8596 8.23971 39.636 7.97923C39.5354 7.86307 39.4104 7.77057 39.27 7.70837C39.1295 7.64617 38.9771 7.6158 38.8235 7.61943C38.6658 7.61618 38.5092 7.6466 38.3642 7.70863C38.2191 7.77067 38.0889 7.86292 37.9823 7.97923C37.7445 8.23035 37.6153 8.56524 37.6228 8.91114C37.6191 9.08081 37.649 9.24953 37.7107 9.4076C37.7724 9.56567 37.8647 9.70999 37.9823 9.83225C38.0884 9.94969 38.2184 10.0432 38.3634 10.1064C38.5085 10.1697 38.6653 10.2014 38.8235 10.1993ZM42.3791 4.62221V10.9117H41.4407V4.62221H42.3791ZM44.9531 11.0412C44.6721 11.0484 44.3927 10.9975 44.1322 10.8917C43.8718 10.7858 43.636 10.6272 43.4396 10.4259C43.2403 10.2261 43.0837 9.98784 42.9793 9.72559C42.8748 9.46334 42.8247 9.18257 42.832 8.90035C42.8214 8.61743 42.8678 8.33527 42.9685 8.07069C43.0692 7.80611 43.2221 7.56453 43.418 7.36036C43.6027 7.16551 43.826 7.01142 44.0737 6.90794C44.3213 6.80447 44.5878 6.7539 44.8561 6.75948C45.1028 6.75687 45.3474 6.80462 45.5751 6.89981C45.7801 6.98264 45.967 7.10488 46.1251 7.25962C46.2609 7.39079 46.3815 7.53683 46.4846 7.69499C46.5681 7.82852 46.6391 7.96943 46.6967 8.11596L46.7938 8.36063L43.9177 9.5444C44.0047 9.74442 44.1502 9.91337 44.3351 10.029C44.5199 10.1446 44.7354 10.2015 44.9531 10.1921C45.165 10.1926 45.3734 10.1383 45.558 10.0342C45.7426 9.93015 45.8971 9.78 46.0065 9.59838L46.7255 10.0841C46.542 10.3469 46.3072 10.5696 46.0352 10.739C45.7118 10.9435 45.3356 11.0486 44.9531 11.0412ZM43.7524 8.83558L45.665 8.0404C45.606 7.90019 45.5007 7.78457 45.3666 7.71298C45.2164 7.62812 45.0465 7.58466 44.874 7.58704C44.5815 7.59463 44.3037 7.71746 44.1011 7.92886C43.9799 8.04498 43.8857 8.18646 43.8255 8.3432C43.7652 8.49994 43.7402 8.66807 43.7524 8.83558Z" fill="white"/>
    <defs>
        <clipPath id="clip0_2530_1262">
            <rect width="18" height="16" fill="white" transform="translate(0 4)"/>
        </clipPath>
    </defs>
</svg>
