<svg width="72" height="24" viewBox="0 0 72 24" fill="none" xmlns="http://www.w3.org/2000/svg">
    <path fill-rule="evenodd" clip-rule="evenodd" d="M15.3801 3C20.1866 3 22.6035 5.5608 22.6035 5.5608C22.6035 5.5608 22.8798 7.45632 22.7034 11.273C22.437 17.0385 15.3817 20.501 15.3811 20.5013C15.3805 20.5016 8.32534 17.0385 8.05886 11.273C7.88244 7.45632 8.15882 5.5608 8.15882 5.5608C8.15882 5.5608 10.5734 3 15.3801 3Z" fill="#ED2E26"/>
    <path fill-rule="evenodd" clip-rule="evenodd" d="M31.6366 14.7349C29.9764 14.7349 28.6259 13.3901 28.6259 11.7371C28.6259 10.0841 29.9764 8.73919 31.6366 8.73919C33.2967 8.73919 34.6473 10.0841 34.6473 11.7371C34.6473 13.3901 33.2967 14.7349 31.6366 14.7349ZM31.6366 7.52728C29.3053 7.52728 27.4087 9.41582 27.4087 11.7371C27.4087 13.1422 28.0017 14.3942 29.1237 15.3579C30.1744 16.2602 31.6811 16.8824 33.4207 17.1706C33.6695 17.0346 34.14 16.5754 34.2898 16.2609C33.008 16.0407 32.4202 15.8222 32.4202 15.8222C32.4202 15.8222 32.5843 15.8156 32.9137 15.7236C34.626 15.2454 35.8813 13.5613 35.8645 11.7371C35.843 9.41588 33.9679 7.52728 31.6366 7.52728Z" fill="#262626"/>
    <mask id="mask0_2626_119" style="mask-type:luminance" maskUnits="userSpaceOnUse" x="62" y="14" width="2" height="2">
        <path d="M64 15.4462V14.1539H62.7158V15.4462H64Z" fill="#262626"/>
    </mask>
    <g mask="url(#mask0_2626_119)">
        <path fill-rule="evenodd" clip-rule="evenodd" d="M63.2619 14.5336V14.7413H63.3881C63.4247 14.7413 63.4534 14.7317 63.4745 14.7126C63.4955 14.6935 63.506 14.6685 63.506 14.6375C63.506 14.5683 63.4668 14.5336 63.3881 14.5336H63.2619ZM63.6323 14.6321C63.6323 14.6849 63.618 14.7301 63.5897 14.7672C63.5614 14.8046 63.5226 14.8307 63.4732 14.8452L63.6571 15.1321H63.5143L63.3469 14.8534H63.2619V15.1321H63.1411V14.4215H63.4045C63.4723 14.4215 63.5271 14.4408 63.5692 14.479C63.6113 14.5173 63.6323 14.5683 63.6323 14.6321ZM62.9902 15.1759C63.0853 15.2723 63.2079 15.3206 63.358 15.3206C63.508 15.3206 63.6304 15.2723 63.7256 15.1759C63.8207 15.0792 63.8683 14.9536 63.8683 14.7988C63.8683 14.6439 63.8207 14.5186 63.7256 14.423C63.6304 14.3273 63.508 14.2795 63.358 14.2795C63.2079 14.2795 63.0853 14.3273 62.9902 14.423C62.8951 14.5186 62.8476 14.6439 62.8476 14.7988C62.8476 14.9536 62.8951 15.0792 62.9902 15.1759ZM62.8969 14.3343C63.0176 14.214 63.1713 14.1539 63.358 14.1539C63.5445 14.1539 63.6982 14.214 63.819 14.3343C63.9397 14.4544 64.0001 14.6094 64.0001 14.7988C64.0001 14.99 63.9397 15.1457 63.819 15.266C63.6982 15.3863 63.5445 15.4462 63.358 15.4462C63.1713 15.4462 63.0176 15.3863 62.8969 15.266C62.7761 15.1457 62.7158 14.99 62.7158 14.7988C62.7158 14.6094 62.7761 14.4544 62.8969 14.3343Z" fill="#262626"/>
    </g>
    <path fill-rule="evenodd" clip-rule="evenodd" d="M55.0172 13.6713L53.5893 9.89844H52.3169L54.4004 15.1648C54.4004 15.1648 53.4787 17.3465 53.4791 17.3463C54.0854 17.3463 54.7488 17.3037 55.0084 16.6674C55.6171 15.1751 57.737 9.89844 57.737 9.89844H56.4643L55.0172 13.6713Z" fill="#262626"/>
    <path fill-rule="evenodd" clip-rule="evenodd" d="M50.2446 15.5534C50.2446 15.5534 51.4256 15.5316 51.4256 14.7337V7.56665H50.2446V15.5534Z" fill="#262626"/>
    <path fill-rule="evenodd" clip-rule="evenodd" d="M46.026 14.45C45.312 14.45 44.2439 13.9755 44.2274 12.6683V12.6589C44.2274 11.6268 44.9922 10.8483 46.0064 10.8483C46.7639 10.8483 47.3794 11.2421 47.6545 11.9058C47.7628 12.1302 47.8148 12.3931 47.8051 12.6661C47.7951 12.9433 47.7328 13.2081 47.6238 13.4344C47.3457 14.0703 46.7484 14.45 46.026 14.45ZM47.7951 10.6412C47.4663 10.1845 46.8239 9.74121 45.878 9.74121C44.2637 9.74121 43.0464 10.9913 43.0464 12.6491C43.0464 13.4239 43.3124 14.144 43.7956 14.6766C44.3182 15.2526 45.0383 15.5572 45.878 15.5572C46.6915 15.5572 47.3881 15.2267 47.7951 14.6607V15.5534C47.7951 15.5534 48.9761 15.5348 48.9761 14.7343V9.89842H47.7951V10.6412Z" fill="#262626"/>
    <path fill-rule="evenodd" clip-rule="evenodd" d="M40.895 12.9637C40.895 13.9133 40.3997 14.4412 39.5012 14.45C38.5898 14.45 38.1468 13.9349 38.1468 12.8753V9.89844H36.9658V13.1112C36.9658 13.5749 37.0443 14.2362 37.4184 14.7535C37.8006 15.2822 38.405 15.5525 39.2141 15.5572C39.2251 15.5573 39.2362 15.5573 39.2472 15.5573C40.2149 15.5573 40.7133 15.1205 40.9542 14.7811V15.5534C40.9542 15.5534 42.076 15.5344 42.076 14.7736V9.89844H40.895V12.9637Z" fill="#262626"/>
    <path fill-rule="evenodd" clip-rule="evenodd" d="M60.5686 12.1332C59.9549 11.8691 59.5086 11.6406 59.5165 11.2863C59.5217 11.0518 59.8318 10.8273 60.1543 10.8384C60.4995 10.8502 60.7553 11.0872 60.8982 11.2768C60.8982 11.2768 61.5434 10.7277 61.6215 10.6689C61.2872 10.1179 60.7195 9.80762 60.0827 9.79365C59.1745 9.77377 58.4196 10.4831 58.3999 11.3749C58.3828 12.1473 58.8372 12.4662 59.4331 12.8027L60.4139 13.3518C60.6402 13.5093 60.747 13.627 60.7416 13.8694C60.7332 14.2492 60.4142 14.4955 60.0009 14.5199C59.6969 14.5377 59.4473 14.3627 59.2107 14.1162C58.7504 13.6365 58.0438 13.8671 57.8276 13.9364C58.2772 14.9658 59.1277 15.5652 59.9774 15.5839C61.0473 15.6074 61.9033 14.821 61.926 13.7937C61.9369 13.2992 61.7192 12.6849 60.5686 12.1332Z" fill="#262626"/>
    <path fill-rule="evenodd" clip-rule="evenodd" d="M11.7731 10.5787C11.7731 8.54011 13.3916 6.88164 15.381 6.88164C17.3721 6.88164 18.9919 8.49456 18.9919 10.4771C18.9919 12.0598 17.6255 13.362 16.5724 14.0311C16.981 14.2632 17.8826 14.5069 18.7458 14.5857C20.0064 13.6143 20.7752 12.1127 20.7752 10.4771C20.7752 7.51539 18.3554 5.1059 15.381 5.1059C12.4066 5.1059 9.98682 7.51539 9.98682 10.4771C9.98682 12.2658 10.7348 13.8549 12.1499 15.0726C13.4729 16.2109 15.4081 16.9708 17.6115 17.3305C18.0889 17.0679 18.9053 16.2924 19.2115 15.8384C17.3712 15.6027 15.6296 15.1559 14.4621 14.546C12.6778 13.6141 11.7731 12.2792 11.7731 10.5787Z" fill="white"/>
</svg>
