<svg width="72" height="24" viewBox="0 0 72 24" fill="none" xmlns="http://www.w3.org/2000/svg">
<g clip-path="url(#clip0_2895_1705)">
<mask id="mask0_2895_1705" style="mask-type:luminance" maskUnits="userSpaceOnUse" x="6" y="3" width="60" height="19">
<path d="M65.9323 3H6V21.0451H65.9323V3Z" fill="white"/>
</mask>
<g mask="url(#mask0_2895_1705)">
<path d="M27.4984 13.989C27.2836 14.014 27.0674 14.0264 26.8511 14.0275C26.4336 14.0569 26.0161 13.967 25.648 13.7682C25.3853 13.5899 25.2055 13.3137 25.149 13.0011C25.0626 12.5072 25.0257 12.0062 25.0387 11.5053C25.0247 11.0044 25.0681 10.5039 25.168 10.013C25.2324 9.69731 25.4167 9.41914 25.682 9.23634C26.0331 9.04407 26.4321 8.95565 26.8317 8.98213C27.0464 8.98263 27.2607 8.99562 27.4739 9.02061C27.6612 9.03956 27.847 9.07155 28.0298 9.11648V9.85466C27.7102 9.79723 27.386 9.76827 27.0614 9.76876C26.8157 9.75225 26.57 9.79822 26.3472 9.90311C26.1829 10.014 26.0745 10.1907 26.05 10.387C25.9921 10.7566 25.9681 11.1302 25.9781 11.5043C25.9676 11.8828 25.9931 12.2619 26.0545 12.6355C26.0795 12.8323 26.1899 13.0076 26.3567 13.115C26.5849 13.2134 26.8331 13.2563 27.0809 13.2398C27.412 13.2408 27.7426 13.2124 28.0682 13.1534V13.8936C27.8805 13.9375 27.6902 13.9695 27.4979 13.9885L27.4984 13.989Z" fill="#141351"/>
<path d="M29.1046 15.8099V15.0713L29.4112 15.0808C29.7818 15.0998 30.0984 15.1092 30.3606 15.1092C30.6603 15.1272 30.9609 15.0832 31.2431 14.9799C31.4189 14.8975 31.5463 14.7381 31.5882 14.5483C31.6497 14.2312 31.6757 13.9081 31.6652 13.585V13.3262H31.6077C31.5168 13.538 31.356 13.7123 31.1522 13.8197C30.8775 13.9455 30.5764 14.003 30.2747 13.9875C29.9601 14.0085 29.646 13.9386 29.3698 13.7862C29.162 13.6429 29.0177 13.4246 28.9672 13.1774C28.8903 12.8069 28.8568 12.4288 28.8663 12.0507V9.06055H29.7958V11.755C29.7858 12.0762 29.8067 12.3968 29.8582 12.7139C29.8767 12.8648 29.9631 12.9991 30.0929 13.078C30.2827 13.148 30.4855 13.1774 30.6872 13.1644C30.917 13.1824 31.1462 13.123 31.339 12.9966C31.4869 12.8728 31.5827 12.6984 31.6082 12.5072C31.6532 12.1975 31.6721 11.8849 31.6657 11.5722V9.06006H32.5951V13.3367C32.6101 13.8501 32.5652 14.3636 32.4608 14.866C32.3873 15.1921 32.1826 15.4733 31.8949 15.6426C31.4794 15.8389 31.0209 15.9263 30.5624 15.8969C30.075 15.8988 29.588 15.8699 29.1046 15.8099Z" fill="#141351"/>
<path d="M35.1311 13.8792C34.8919 13.7668 34.7096 13.56 34.6277 13.3088H34.5607L34.5223 13.9516H33.6777V6.82666H34.6072V9.62652H34.6646C34.7635 9.40623 34.9388 9.22894 35.1581 9.12757C35.4183 9.02318 35.6975 8.97423 35.9776 8.98371C36.3018 8.96327 36.6244 9.04217 36.9031 9.20945C37.1428 9.40023 37.3062 9.67095 37.3631 9.97163C37.4705 10.4755 37.5169 10.9905 37.5024 11.5059C37.5174 12.0228 37.4695 12.5397 37.3586 13.0446C37.2997 13.3483 37.1308 13.62 36.8841 13.8068C36.6005 13.9696 36.2758 14.046 35.9492 14.027C35.669 14.0345 35.3908 13.9841 35.1311 13.8792ZM36.2433 13.0881C36.3942 12.9872 36.4911 12.8234 36.507 12.6426C36.562 12.2665 36.5839 11.8864 36.574 11.5064C36.5844 11.1278 36.562 10.7497 36.507 10.3752C36.4891 10.1948 36.3927 10.0315 36.2433 9.92913C36.0361 9.84125 35.8108 9.80381 35.5866 9.81928C35.4038 9.8108 35.2215 9.84577 35.0547 9.92016C34.9219 9.98859 34.8175 10.1025 34.761 10.2413C34.6921 10.3961 34.6496 10.5614 34.6367 10.7307C34.6177 10.9225 34.6082 11.1817 34.6082 11.5074C34.6082 11.833 34.6177 12.0733 34.6367 12.2655C34.6501 12.4333 34.6886 12.5986 34.7515 12.755C34.8065 12.8983 34.9103 13.0171 35.0452 13.0906C35.2145 13.169 35.4008 13.2054 35.5871 13.196C35.8113 13.2105 36.0356 13.174 36.2438 13.0891L36.2433 13.0881Z" fill="#141351"/>
<path d="M42.0106 11.8123H39.1917C39.1803 12.1305 39.2047 12.4486 39.2637 12.7612C39.3036 12.9375 39.4295 13.0819 39.5993 13.1448C39.887 13.2302 40.1871 13.2662 40.4868 13.2502C40.9423 13.2427 41.3968 13.2107 41.8483 13.1543V13.883C41.615 13.9359 41.3778 13.9714 41.139 13.9883C40.8454 14.0138 40.5612 14.0268 40.286 14.0268C39.828 14.0558 39.3695 13.9753 38.9485 13.7921C38.6638 13.6357 38.4601 13.3656 38.3877 13.0489C38.2818 12.5445 38.2368 12.0296 38.2533 11.5147C38.2388 11.0052 38.2803 10.4953 38.3777 9.99486C38.4436 9.67723 38.6389 9.40104 38.9161 9.23273C39.3186 9.03892 39.7646 8.95303 40.2106 8.98298C40.6361 8.95154 41.0621 9.03595 41.4432 9.22772C41.6989 9.39554 41.8712 9.66374 41.9177 9.9659C41.9941 10.4753 42.026 10.9902 42.0136 11.5047L42.0121 11.8118L42.0106 11.8123ZM39.5319 9.86602C39.3916 9.94889 39.2951 10.0892 39.2682 10.2496C39.2127 10.5498 39.1868 10.8549 39.1913 11.1605H41.1091V11.1116C41.1201 10.8124 41.0941 10.5128 41.0322 10.2196C41.0032 10.0638 40.9063 9.92846 40.7685 9.85055C40.5837 9.77959 40.3859 9.74814 40.1887 9.75965C39.9644 9.74516 39.7401 9.78112 39.5319 9.86602Z" fill="#141351"/>
<path d="M42.9307 9.06069H43.7742L43.8122 9.94269H43.8796C43.9425 9.63556 44.1233 9.36484 44.3835 9.19007C44.6682 9.0407 44.9879 8.96929 45.309 8.98377V9.91323C45.0028 9.89676 44.6982 9.96317 44.427 10.105C44.2112 10.2393 44.0544 10.4501 43.9865 10.6949C43.8921 11.0494 43.8501 11.416 43.8616 11.7831V13.9502H42.9322L42.9302 9.06019L42.9307 9.06069Z" fill="#141351"/>
<path d="M46.5938 13.989C46.2936 13.9635 46.0344 13.935 45.8171 13.9031V13.1549C46.3041 13.2138 46.7946 13.2428 47.285 13.2413C47.4823 13.2498 47.6796 13.2268 47.8699 13.1744C47.9777 13.1459 48.0686 13.0725 48.1191 12.9726C48.1635 12.8462 48.183 12.7129 48.1765 12.5795C48.1825 12.4427 48.1695 12.3053 48.1386 12.172C48.1201 12.1006 48.0706 12.0412 48.0042 12.0092C47.8958 11.9702 47.7829 11.9462 47.6686 11.9373L46.6137 11.7934C46.3221 11.7884 46.0494 11.6486 45.8751 11.4144C45.7263 11.1092 45.6598 10.7706 45.6833 10.4315C45.6638 10.1139 45.7367 9.79721 45.8941 9.52049C46.0299 9.31324 46.2357 9.16193 46.4744 9.09399C46.7856 9.01256 47.1067 8.97512 47.4283 8.9836C47.671 8.9836 47.9253 8.99659 48.191 9.02208C48.4092 9.03954 48.6255 9.075 48.8383 9.12746V9.86609C48.3938 9.80118 47.9452 9.76924 47.4957 9.77023C47.253 9.75173 47.0093 9.7927 46.7866 9.89009C46.6522 9.96999 46.5853 10.1443 46.5848 10.4125C46.5798 10.5379 46.5913 10.6637 46.6183 10.7866C46.6358 10.857 46.6832 10.9164 46.7481 10.9494C46.846 10.9904 46.9494 11.0163 47.0553 11.0263L48.1386 11.1607C48.3278 11.1801 48.5116 11.2351 48.6804 11.3235C48.8238 11.4163 48.9292 11.5577 48.9776 11.7215C49.0555 11.9907 49.0895 12.2709 49.0785 12.5511C49.0959 12.8672 49.0315 13.1829 48.8912 13.4665C48.7708 13.6768 48.5761 13.8341 48.3448 13.9071C48.0412 13.9954 47.7255 14.0359 47.4098 14.0269C47.1666 14.0269 46.8954 14.0144 46.5948 13.989H46.5938Z" fill="#141351"/>
<path d="M49.8916 7.77608V6.82666H50.86V7.77608H49.8916ZM49.9111 13.9511V9.06062H50.8405V13.9511H49.9111Z" fill="#141351"/>
<path d="M54.686 13.951L53.5925 12.177H53.5352L52.452 13.951H51.4546L53.0078 11.4678L51.5119 9.06104H52.5477L53.583 10.7581H53.6322L54.6675 9.06104H55.6555L54.1595 11.4583L55.7223 13.9515H54.6865L54.686 13.951Z" fill="#141351"/>
<path d="M56.3446 15.8024V15.0737C56.8815 15.0992 57.31 15.1117 57.6299 15.1117C57.9349 15.1282 58.2407 15.0877 58.5308 14.9918C58.7135 14.9149 58.8479 14.7541 58.8903 14.5603C58.9558 14.2272 58.9833 13.8881 58.972 13.549V13.3377H58.9143C58.8249 13.5604 58.6531 13.7407 58.4347 13.8411C58.1767 13.948 57.8992 13.9984 57.62 13.9894C57.2906 14.0089 56.9631 13.934 56.6753 13.7737C56.4303 13.5924 56.2625 13.3252 56.2061 13.0261C56.0189 12.0152 56.0207 10.9783 56.2102 9.96849C56.2697 9.66335 56.4407 9.39164 56.6897 9.20586C56.9758 9.04355 57.3015 8.96713 57.6294 8.98562C57.9055 8.97962 58.1798 9.03204 58.4343 9.13891C58.6765 9.25431 58.8628 9.46107 58.9521 9.71428H59.0099L59.0478 9.06254H59.9009V13.3072C59.9162 13.8286 59.8711 14.3495 59.7664 14.8605C59.6929 15.1901 59.484 15.4738 59.1912 15.6416C58.7654 15.8383 58.2976 15.9258 57.8297 15.8958C57.3326 15.9033 56.8359 15.8718 56.3433 15.8019L56.3446 15.8024ZM58.5461 13.0555C58.6815 12.9766 58.7848 12.8527 58.8385 12.7054C58.8949 12.5546 58.9305 12.3962 58.944 12.236C58.9634 12.0506 58.9729 11.8044 58.9724 11.4973C58.9724 11.2096 58.9643 10.9749 58.9476 10.7926C58.9368 10.6337 58.903 10.4769 58.8475 10.3276C58.7974 10.1673 58.6923 10.0294 58.5502 9.93953C58.3788 9.85111 58.1866 9.80965 57.9944 9.81967C57.767 9.80419 57.5392 9.84015 57.3281 9.92505C57.1788 10.0239 57.0831 10.1867 57.0691 10.3655C57.0177 10.7406 56.997 11.1187 57.0064 11.4968C56.9961 11.8704 57.0186 12.2444 57.0736 12.614C57.0926 12.7923 57.1887 12.9536 57.3371 13.0545C57.5442 13.1424 57.7693 13.1803 57.994 13.1644C58.1839 13.1744 58.3733 13.1369 58.5452 13.055L58.5461 13.0555Z" fill="#141351"/>
<path d="M60.957 7.77608V6.82666H61.9256V7.77608H60.957ZM60.976 13.9511V9.06062H61.9058V13.9511H60.976Z" fill="#141351"/>
<path d="M62.9893 13.9511V6.82666H63.9186V13.9511H62.9893Z" fill="#141351"/>
<path d="M65.0029 13.9511V6.82666H65.9323V13.9511H65.0029Z" fill="#141351"/>
<path d="M7.73052 17.3338C7.18164 17.3338 6.64774 17.0486 6.35407 16.5382C5.91756 15.7791 6.17827 14.8097 6.93791 14.3722L19.8289 6.95455C20.587 6.51804 21.5574 6.77925 21.9939 7.53841C22.4309 8.29752 22.1702 9.26695 21.4106 9.70396L8.52012 17.1221C8.2709 17.2654 7.99871 17.3338 7.73052 17.3338Z" fill="#A2E1DA"/>
<g opacity="0.8">
<path d="M20.4756 17.4083C20.2069 17.4083 19.9347 17.3398 19.6855 17.1965L6.79508 9.77887C6.03593 9.34186 5.77473 8.37149 6.21173 7.61283C6.64874 6.85369 7.61814 6.59198 8.37779 7.02899L21.2687 14.4471C22.0279 14.8841 22.2885 15.8535 21.8521 16.6131C21.5584 17.1231 21.024 17.4083 20.4756 17.4083Z" fill="#4FD7F7"/>
</g>
<g style="mix-blend-mode:multiply">
<path d="M14.1336 21.0451C13.2576 21.0451 12.5474 20.3349 12.5474 19.4589V4.58621C12.5474 3.7102 13.2576 3 14.1336 3C15.0096 3 15.7198 3.7102 15.7198 4.58621V19.4589C15.7198 20.3349 15.0096 21.0451 14.1336 21.0451Z" fill="#93B1F9"/>
</g>
<path d="M15.7201 4.5922C15.7201 5.47171 15.0074 6.1844 14.1279 6.1844C13.2483 6.1844 12.5356 5.47121 12.5356 4.5922C12.5356 3.71319 13.2488 3 14.1279 3C15.0068 3 15.7201 3.7127 15.7201 4.5922Z" fill="#4165F3"/>
<path d="M22.0584 15.8168C22.0584 16.6953 21.3457 17.4085 20.4662 17.4085C19.5867 17.4085 18.874 16.6958 18.874 15.8168C18.874 14.9378 19.5867 14.2241 20.4662 14.2241C21.3457 14.2241 22.0584 14.9373 22.0584 15.8168Z" fill="#00A5F7"/>
<path d="M9.19123 8.41152C9.19123 9.29104 8.47853 10.0037 7.59902 10.0037C6.71952 10.0037 6.00732 9.29104 6.00732 8.41152C6.00732 7.53205 6.72002 6.81934 7.59953 6.81934C8.47903 6.81934 9.19173 7.53155 9.19173 8.41152H9.19123Z" fill="#00A5F7"/>
<path d="M15.7201 19.4457C15.7201 20.3247 15.0074 21.0379 14.1279 21.0379C13.2483 21.0379 12.5356 20.3252 12.5356 19.4457C12.5356 18.5662 13.2488 17.8535 14.1279 17.8535C15.0068 17.8535 15.7201 18.5667 15.7201 19.4457Z" fill="#4165F3"/>
<path d="M22.2054 8.33193C22.2054 9.21095 21.4932 9.92364 20.6137 9.92364C19.7342 9.92364 19.0215 9.21095 19.0215 8.33193C19.0215 7.45293 19.7342 6.74023 20.6137 6.74023C21.4932 6.74023 22.2054 7.45243 22.2054 8.33193Z" fill="#1FC9CA"/>
<path d="M9.32356 15.7455C9.32356 16.625 8.61137 17.3377 7.73136 17.3377C6.85136 17.3377 6.13916 16.625 6.13916 15.7455C6.13916 14.866 6.85186 14.1538 7.73136 14.1538C8.61087 14.1538 9.32356 14.867 9.32356 15.7455Z" fill="#1FC9CA"/>
</g>
</g>
<defs>
<clipPath id="clip0_2895_1705">
<rect width="60" height="18.0451" fill="white" transform="translate(6 3)"/>
</clipPath>
</defs>
</svg>
