<svg width="72" height="24" viewBox="0 0 72 24" fill="none" xmlns="http://www.w3.org/2000/svg">
<g clip-path="url(#clip0_2895_1716)">
<path d="M27.4984 14.1281C27.2836 14.1534 27.0674 14.166 26.8511 14.167C26.4336 14.1969 26.0161 14.1059 25.648 13.9046C25.3853 13.724 25.2055 13.4443 25.149 13.1277C25.0626 12.6275 25.0257 12.1202 25.0387 11.613C25.0247 11.1057 25.0681 10.5989 25.168 10.1017C25.2324 9.78211 25.4167 9.50038 25.682 9.31528C26.033 9.12058 26.4321 9.03107 26.8317 9.05787C27.0464 9.05837 27.2606 9.07149 27.4739 9.0968C27.6612 9.11602 27.847 9.14841 28.0298 9.19393V9.9414C27.7101 9.88325 27.386 9.85393 27.0614 9.85443C26.8156 9.83774 26.5699 9.88429 26.3472 9.99049C26.1829 10.1028 26.0745 10.2818 26.05 10.4805C25.9921 10.8548 25.9681 11.2331 25.9781 11.6119C25.9676 11.9953 25.9931 12.3792 26.0545 12.7575C26.0795 12.9567 26.1899 13.1343 26.3567 13.243C26.5849 13.3426 26.8331 13.3861 27.0809 13.3694C27.412 13.3705 27.7426 13.3416 28.0682 13.282V14.0315C27.8804 14.076 27.6901 14.1084 27.4979 14.1276L27.4984 14.1281Z" fill="white"/>
<path d="M29.1041 15.972V15.224L29.4107 15.2336C29.7813 15.2528 30.0979 15.2624 30.3601 15.2624C30.6598 15.2807 30.9605 15.2361 31.2426 15.1314C31.4184 15.048 31.5458 14.8867 31.5877 14.6945C31.6492 14.3733 31.6751 14.0461 31.6647 13.7189V13.4569H31.6072C31.5163 13.6713 31.3555 13.8478 31.1517 13.9566C30.877 14.0841 30.5759 14.1422 30.2742 14.1265C29.9596 14.1478 29.6455 14.077 29.3693 13.9227C29.1615 13.7776 29.0172 13.5565 28.9667 13.3062C28.8898 12.9309 28.8564 12.5481 28.8658 12.1652V9.13721H29.7953V11.8658C29.7853 12.191 29.8063 12.5157 29.8577 12.8368C29.8762 12.9896 29.9626 13.1256 30.0924 13.2055C30.2822 13.2764 30.485 13.3062 30.6868 13.293C30.9165 13.3112 31.1457 13.251 31.3385 13.1231C31.4864 12.9977 31.5822 12.8212 31.6077 12.6275C31.6527 12.3139 31.6717 11.9973 31.6652 11.6807V9.13672H32.5946V13.4675C32.6096 13.9874 32.5646 14.5073 32.4603 15.0161C32.3868 15.3464 32.1821 15.6312 31.8944 15.8026C31.4789 16.0013 31.0204 16.0899 30.5619 16.06C30.0745 16.0621 29.5875 16.0327 29.1041 15.972Z" fill="white"/>
<path d="M35.1311 14.0168C34.8919 13.903 34.7096 13.6936 34.6277 13.4392H34.5607L34.5223 14.0901H33.6777V6.875H34.6072V9.71027H34.6646C34.7635 9.48723 34.9388 9.30768 35.1581 9.20505C35.4183 9.0993 35.6974 9.04977 35.9776 9.05938C36.3018 9.03863 36.6244 9.11852 36.9031 9.28796C37.1428 9.48118 37.3061 9.75529 37.363 10.0598C37.4704 10.5701 37.5169 11.0915 37.5024 11.6134C37.5174 12.1369 37.4694 12.6604 37.3585 13.1717C37.2996 13.4792 37.1308 13.7543 36.8841 13.9435C36.6004 14.1084 36.2758 14.1857 35.9492 14.1665C35.669 14.1741 35.3908 14.123 35.1311 14.0168ZM36.2433 13.2157C36.3942 13.1135 36.4911 12.9476 36.507 12.7645C36.562 12.3837 36.5839 11.9988 36.5739 11.6139C36.5844 11.2306 36.562 10.8477 36.507 10.4684C36.489 10.2858 36.3927 10.1204 36.2433 10.0168C36.0361 9.92775 35.8108 9.88981 35.5865 9.90551C35.4038 9.8969 35.2215 9.93231 35.0547 10.0076C34.9218 10.0769 34.8174 10.1923 34.761 10.3329C34.6921 10.4896 34.6496 10.657 34.6367 10.8285C34.6177 11.0227 34.6082 11.2852 34.6082 11.615C34.6082 11.9447 34.6177 12.188 34.6367 12.3827C34.6501 12.5526 34.6886 12.7201 34.7515 12.8784C34.8065 13.0235 34.9104 13.1439 35.0452 13.2182C35.2145 13.2976 35.4008 13.3345 35.587 13.3249C35.8113 13.3396 36.0356 13.3027 36.2438 13.2167L36.2433 13.2157Z" fill="white"/>
<path d="M42.0101 11.9239H39.1913C39.1798 12.2461 39.2043 12.5682 39.2632 12.8849C39.3031 13.0634 39.429 13.2095 39.5988 13.2733C39.8865 13.3598 40.1866 13.3962 40.4863 13.38C40.9418 13.3724 41.3963 13.34 41.8478 13.2829V14.0208C41.6145 14.0744 41.3773 14.1103 41.1386 14.1275C40.8449 14.1533 40.5607 14.1664 40.2855 14.1664C39.8275 14.1957 39.3691 14.1143 38.9481 13.9287C38.6634 13.7704 38.4596 13.4968 38.3872 13.1761C38.2813 12.6653 38.2364 12.1439 38.2528 11.6225C38.2383 11.1066 38.2798 10.5902 38.3772 10.0834C38.4431 9.76179 38.6384 9.48209 38.9156 9.31165C39.3181 9.11541 39.7641 9.02844 40.2101 9.05875C40.6356 9.0269 41.0616 9.11239 41.4427 9.3066C41.6984 9.47654 41.8707 9.74812 41.9172 10.0541C41.9936 10.57 42.0256 11.0914 42.0131 11.6124L42.0116 11.9234L42.0101 11.9239ZM39.5314 9.95293C39.3911 10.0369 39.2947 10.179 39.2677 10.3414C39.2122 10.6453 39.1863 10.9543 39.1908 11.2639H41.1086V11.2143C41.1196 10.9114 41.0936 10.6079 41.0317 10.311C41.0027 10.1532 40.9058 10.0162 40.768 9.93728C40.5832 9.86546 40.3854 9.83361 40.1881 9.84525C39.9639 9.83054 39.7397 9.86699 39.5314 9.95293Z" fill="white"/>
<path d="M42.9307 9.13734H43.7742L43.8122 10.0305H43.8796C43.9425 9.71948 44.1233 9.44537 44.3835 9.26835C44.6682 9.11713 44.9878 9.04481 45.309 9.05948V10.0007C45.0028 9.98402 44.6981 10.0513 44.427 10.1949C44.2112 10.3309 44.0544 10.5444 43.9864 10.7922C43.8921 11.1513 43.8501 11.5225 43.8616 11.8943V14.0887H42.9322L42.9302 9.13684L42.9307 9.13734Z" fill="white"/>
<path d="M46.5933 14.128C46.2932 14.1022 46.0339 14.0734 45.8167 14.041V13.2834C46.3036 13.3431 46.7941 13.3724 47.2845 13.3709C47.4818 13.3795 47.6791 13.3562 47.8694 13.3031C47.9772 13.2743 48.0681 13.1999 48.1186 13.0988C48.163 12.9709 48.1825 12.8358 48.176 12.7008C48.182 12.5622 48.169 12.4231 48.138 12.2881C48.1196 12.2158 48.0702 12.1556 48.0037 12.1232C47.8953 12.0838 47.7825 12.0595 47.6681 12.0504L46.6133 11.9047C46.3216 11.8996 46.0489 11.758 45.8747 11.5208C45.7258 11.2118 45.6594 10.8689 45.6828 10.5255C45.6634 10.2038 45.7363 9.8832 45.8936 9.603C46.0295 9.39309 46.2352 9.23984 46.474 9.17109C46.7851 9.08863 47.1062 9.05069 47.4279 9.0593C47.6706 9.0593 47.9248 9.07243 48.1905 9.09824C48.4088 9.11597 48.625 9.15187 48.8377 9.20497V9.95299C48.3933 9.88721 47.9448 9.85487 47.4953 9.85586C47.2526 9.83714 47.0088 9.87864 46.7861 9.97726C46.6518 10.0582 46.5848 10.2347 46.5843 10.5063C46.5793 10.6332 46.5908 10.7607 46.6178 10.8851C46.6353 10.9564 46.6827 11.0166 46.7476 11.0499C46.8455 11.0915 46.9489 11.1178 47.0548 11.1279L48.138 11.2639C48.3273 11.2836 48.5111 11.3393 48.6799 11.4288C48.8233 11.5229 48.9286 11.666 48.9771 11.8319C49.055 12.1045 49.089 12.3882 49.078 12.6719C49.0955 12.9921 49.0311 13.3117 48.8907 13.599C48.7703 13.8119 48.5756 13.9712 48.3443 14.0451C48.0407 14.1346 47.725 14.1755 47.4094 14.1664C47.1662 14.1664 46.895 14.1538 46.5943 14.128H46.5933Z" fill="white"/>
<path d="M49.8911 7.83646V6.875H50.8595V7.83646H49.8911ZM49.9106 14.0896V9.13724H50.84V14.0896H49.9106Z" fill="white"/>
<path d="M54.6855 14.0895L53.592 12.2931H53.5347L52.4515 14.0895H51.4541L53.0073 11.5749L51.5114 9.1377H52.5472L53.5825 10.8563H53.6317L54.667 9.1377H55.655L54.1591 11.5653L55.7218 14.0901H54.686L54.6855 14.0895Z" fill="white"/>
<path d="M56.3444 15.9644V15.2265C56.8812 15.2523 57.3098 15.2649 57.6292 15.2649C57.9346 15.2816 58.24 15.2407 58.5301 15.1436C58.7132 15.0657 58.8472 14.9028 58.8901 14.7066C58.9555 14.3693 58.9826 14.0259 58.9713 13.6824V13.4685H58.914C58.8247 13.6941 58.6528 13.8766 58.4344 13.9783C58.1764 14.0865 57.8985 14.1376 57.6193 14.1285C57.2904 14.1483 56.9624 14.0724 56.675 13.91C56.4296 13.7265 56.2618 13.4559 56.2054 13.1529C56.0187 12.1292 56.02 11.0793 56.2099 10.0567C56.2695 9.74764 56.44 9.4725 56.6895 9.28438C56.975 9.11998 57.3012 9.04262 57.6287 9.06134C57.9048 9.05525 58.1791 9.10835 58.434 9.21657C58.6762 9.33341 58.8626 9.54278 58.9519 9.7992H59.0092L59.0471 9.1392H59.9002V13.4376C59.9155 13.9656 59.8708 14.4931 59.7657 15.0105C59.6926 15.3444 59.4838 15.6316 59.1905 15.8015C58.7651 16.0008 58.2968 16.0893 57.829 16.059C57.3323 16.0666 56.8352 16.0347 56.3426 15.9639L56.3444 15.9644ZM58.5459 13.1828C58.6812 13.1028 58.7845 12.9774 58.8377 12.8282C58.8946 12.6755 58.9298 12.5151 58.9433 12.3528C58.9627 12.1651 58.9722 11.9158 58.9717 11.6048C58.9717 11.3135 58.9636 11.0758 58.9474 10.8912C58.9365 10.7303 58.9023 10.5715 58.8468 10.4203C58.7971 10.258 58.6916 10.1183 58.5499 10.0273C58.3785 9.93779 58.1863 9.89583 57.9937 9.90594C57.7668 9.89024 57.539 9.92669 57.3278 10.0126C57.1785 10.1128 57.0824 10.2777 57.0684 10.4587C57.017 10.8386 56.9967 11.2214 57.0062 11.6043C56.9953 11.9826 57.0179 12.3614 57.0729 12.7356C57.0919 12.9162 57.1884 13.0796 57.3368 13.1817C57.5439 13.2708 57.7686 13.3092 57.9932 13.293C58.1832 13.3031 58.3731 13.2652 58.545 13.1823L58.5459 13.1828Z" fill="white"/>
<path d="M60.957 7.83646V6.875H61.9252V7.83646H60.957ZM60.976 14.0896V9.13724H61.9053V14.0896H60.976Z" fill="white"/>
<path d="M62.9888 14.0896V6.875H63.9181V14.0896H62.9888Z" fill="white"/>
<path d="M65.0024 14.0896V6.875H65.9318V14.0896H65.0024Z" fill="white"/>
<path opacity="0.5" d="M15.5793 19.391C15.5793 20.3044 14.8476 21.0449 13.9457 21.0449C13.0437 21.0449 12.3125 20.3044 12.3125 19.391V4.67096C12.3125 3.75755 13.0432 3.01662 13.9457 3.01611C14.8481 3.01611 15.5793 3.75705 15.5793 4.67096V19.391Z" fill="#345EFF"/>
<path opacity="0.7" d="M8.44489 17.118C7.66128 17.5712 6.66341 17.2956 6.21542 16.5021C5.76793 15.709 6.04012 14.699 6.82324 14.2458L6.82423 14.2454L19.4439 6.94423C20.2275 6.49107 21.2254 6.7667 21.6734 7.55973C22.1209 8.35227 21.8492 9.36176 21.0665 9.81442C21.0655 9.81442 21.0651 9.81541 21.0641 9.81591L8.44489 17.118Z" fill="#04B5AC"/>
<path opacity="0.7" d="M6.8357 9.77804C6.05459 9.32131 5.78739 8.31029 6.23788 7.51983C6.23788 7.51879 6.23888 7.51829 6.23938 7.5173C6.69037 6.72678 7.68923 6.4562 8.46985 6.9129C8.46985 6.9129 8.47085 6.91341 8.47184 6.91391L21.0535 14.2828C21.8347 14.7405 22.1019 15.7525 21.6499 16.5436C21.1984 17.3346 20.1995 17.6051 19.4184 17.1479H19.4179L6.8357 9.77804Z" fill="#0594CC"/>
<path d="M15.6118 4.67052C15.6118 5.59353 14.8736 6.34205 13.9621 6.34256C13.0507 6.34256 12.3115 5.59505 12.311 4.67204C12.3105 3.74903 13.0492 3 13.9606 3C14.8716 3 15.6108 3.74751 15.6113 4.67052H15.6118Z" fill="#3679FF"/>
<path d="M21.8622 8.38442C21.8622 9.30743 21.1231 10.0554 20.2117 10.0554C19.3002 10.0554 18.5615 9.30693 18.5615 8.38392C18.5615 7.46091 19.3007 6.71289 20.2122 6.71289C21.1236 6.71289 21.8622 7.46141 21.8622 8.38442Z" fill="#05D3D3"/>
<path d="M21.8622 15.6945C21.8622 16.6175 21.1231 17.3655 20.2116 17.365C19.3001 17.3645 18.5615 16.6165 18.562 15.6935C18.562 14.7705 19.3011 14.0229 20.2126 14.0229C21.1236 14.0229 21.8622 14.7699 21.8627 15.6924V15.6945H21.8622Z" fill="#00A5F7"/>
<path d="M15.5942 19.3566C15.5942 20.2796 14.856 21.0281 13.9446 21.0286C13.0331 21.0286 12.294 20.2811 12.2935 19.3581C12.2935 18.435 13.0316 17.6865 13.9431 17.686C14.8541 17.686 15.5927 18.4336 15.5937 19.3566H15.5942Z" fill="#3679FF"/>
<path d="M9.31151 15.6603C9.31151 16.5833 8.57285 17.3318 7.66089 17.3323C6.74943 17.3323 6.01027 16.5843 6.00977 15.6608C6.00977 14.7378 6.74842 13.9893 7.66039 13.9888C8.57186 13.9888 9.31102 14.7368 9.31102 15.6603H9.31151Z" fill="#05D3D3"/>
<path d="M9.32663 8.36783C9.32663 9.29084 8.58697 10.0389 7.6755 10.0384C6.76404 10.0384 6.02538 9.28935 6.02588 8.36634C6.02588 7.44382 6.76504 6.6958 7.67651 6.6958C8.58797 6.6958 9.32663 7.44433 9.32663 8.36733V8.36783Z" fill="#00A5F7"/>
</g>
<defs>
<clipPath id="clip0_2895_1716">
<rect width="60" height="18.0451" fill="white" transform="translate(6 3)"/>
</clipPath>
</defs>
</svg>
