<svg width="73" height="25" viewBox="0 0 73 25" fill="none" xmlns="http://www.w3.org/2000/svg">
<g clip-path="url(#clip0_4163_668)">
<path d="M44.1713 7.6846C43.018 7.6846 42.4575 8.37497 42.4575 9.39188V9.98906H41.5849V10.8593H42.461V15.4602H43.3655V10.8593H44.7549V9.98906H43.3655L43.3571 9.41926C43.3571 8.92695 43.6435 8.58736 44.2138 8.58736C44.4091 8.58657 44.6037 8.60525 44.7953 8.64229V7.77171C44.5923 7.71289 44.3822 7.68342 44.1713 7.6846ZM17.1156 7.88759C16.9637 7.89321 16.8185 7.95684 16.7103 8.06721C16.5861 8.19287 16.5222 8.36759 16.5344 8.54512C16.5344 8.7799 16.6574 8.99703 16.8576 9.11416C17.0575 9.23179 17.3042 9.23179 17.5041 9.11416C17.704 8.99703 17.8275 8.7799 17.8271 8.54512C17.8396 8.36759 17.7756 8.19287 17.6515 8.06721C17.5277 7.94107 17.3557 7.87606 17.1809 7.88883C17.159 7.88725 17.1373 7.8868 17.1156 7.88759ZM32.5648 8.16236C30.9158 8.16236 30.0761 8.99045 30.0761 10.1094C30.0761 11.291 30.7898 11.8491 32.3813 12.2432C33.7275 12.5716 34.1155 12.9097 34.1155 13.5452C34.1155 14.1806 33.7126 14.6073 32.6466 14.6073C31.7103 14.6073 30.6979 14.3559 30.0408 14.0054V15.0115C30.5902 15.2962 31.2256 15.5696 32.594 15.5696C34.3504 15.5696 35.0827 14.7264 35.0899 13.4794C35.0899 12.1837 34.2492 11.6962 32.7521 11.313C31.5036 10.9962 31.0505 10.7001 31.0505 10.1094C31.0505 9.45305 31.6002 9.12468 32.5266 9.12468C33.2957 9.10567 34.0561 9.29436 34.73 9.6719V8.68684C34.2453 8.41108 33.5882 8.16236 32.5648 8.16236ZM14.4452 8.27283L14.4476 13.3374C14.4476 14.055 14.1646 14.5523 13.3461 14.5523C13.0034 14.555 12.6637 14.4917 12.3447 14.3659V15.3231C12.7189 15.4527 13.1123 15.5158 13.5075 15.51C14.8443 15.51 15.4147 14.596 15.4147 13.2716V8.27283H14.4452ZM46.1298 8.82872V9.99371H45.2567V10.8644H46.1332V13.7517C46.1332 14.7701 46.6941 15.459 47.847 15.459C48.0583 15.4602 48.2683 15.4307 48.4712 15.3719V14.4642C48.2805 14.5094 48.0856 14.5354 47.8899 14.5412C47.3192 14.5412 47.039 14.2131 47.034 13.7316V10.8593H48.4664V9.98906H47.034V8.82872H46.1298ZM70.1869 9.87581C68.5493 9.87581 67.6447 11.0569 67.6447 12.7097C67.6447 14.3883 68.5273 15.5696 70.5422 15.5696C71.0915 15.5696 71.7711 15.4849 72.2127 15.2428V14.3721C71.688 14.5674 71.1338 14.6677 70.5752 14.6681C69.3043 14.6681 68.7119 14.0662 68.5824 13.1359H72.5127V12.7097C72.5127 11.0469 71.8458 9.87581 70.1869 9.87581ZM24.4724 9.87969C22.9644 9.87969 22.2105 11.1815 22.2105 12.7244C22.2105 14.3334 22.9327 15.5696 24.3647 15.5696C25.1936 15.5696 25.8398 15.198 26.1851 14.4755L26.1862 15.4602H27.1129V9.98908H26.1862V10.9514C25.8618 10.2401 25.2583 9.87969 24.4724 9.87969ZM38.4648 9.87969C36.8489 9.87969 35.9015 11.0722 35.9015 12.7133C35.9015 14.3548 36.8599 15.5735 38.4648 15.5735C40.0696 15.5735 41.0069 14.3548 41.0069 12.7133C41.0069 11.0722 40.0802 9.87969 38.4648 9.87969ZM60.4277 9.87969C58.9196 9.87969 58.1658 11.1815 58.1658 12.7244C58.1658 14.3334 58.888 15.5696 60.32 15.5696C61.1488 15.5696 61.7949 15.198 62.1403 14.4755L62.1414 15.4602H63.0682V9.98908H62.1414V10.9514C61.817 10.2401 61.2135 9.87969 60.4277 9.87969ZM21.6535 9.90553C20.7271 9.90427 20.2302 10.3462 19.9375 10.9514V9.98908H19.0328V15.4639H19.9375V12.2309C19.9375 11.0721 20.6597 10.7066 21.8445 10.8307V9.91172C21.7789 9.9076 21.7153 9.90561 21.6535 9.90553ZM67.0876 9.90553C66.1611 9.90427 65.6644 10.3462 65.3717 10.9514V9.98908H64.4669V15.4639H65.3717V12.2309C65.3717 11.0721 66.0939 10.7066 67.2788 10.8307V9.91172C67.2131 9.9076 67.1494 9.90561 67.0876 9.90553ZM48.7306 9.98908L50.7123 15.4602H51.8971L52.8361 12.8131L53.3258 11.1278L53.8153 12.8131L54.7422 15.4602H55.9269L57.9087 9.98908H56.8853L55.3329 14.6282L53.7602 9.98908H52.8764L51.3047 14.6282L49.754 9.98908H48.7306ZM16.7073 9.99035V15.4613H17.6335V9.99035H16.7073ZM70.1415 10.7387C71.067 10.7387 71.5198 11.3192 71.5738 12.3364H68.5715V12.3304C68.6681 11.3816 69.1638 10.7337 70.1415 10.7387ZM24.7161 10.75C25.5069 10.75 26.1851 11.286 26.1851 12.5009V12.9434C26.1851 14.1577 25.4426 14.6939 24.6134 14.6944C23.6535 14.6944 23.1372 14.0375 23.1322 12.7193C23.1322 11.4499 23.6706 10.75 24.7161 10.75ZM60.6714 10.75C61.4622 10.75 62.1403 11.286 62.1403 12.5009V12.9434C62.1403 14.1576 61.3979 14.6938 60.5686 14.6944C59.6088 14.6944 59.0887 14.0376 59.0887 12.7244C59.0887 11.4551 59.6308 10.76 60.6714 10.75ZM38.4648 10.7599C39.6066 10.7599 40.1023 11.674 40.1023 12.7133C40.1023 13.753 39.6165 14.6944 38.4648 14.6944C37.3131 14.6944 36.8061 13.753 36.8061 12.7133H36.8107C36.8107 11.674 37.3225 10.7599 38.4648 10.7599Z" fill="#F0F0F0"/>
<path d="M9.92912 11.5999L5.93852 7.54593L5.55176 7.15332L1.1747 11.5999C1.03161 11.7456 1.03161 11.9816 1.1747 12.127L3.91914 14.9149L5.55176 16.5739L9.92912 12.127C10.0723 11.9816 10.0723 11.7456 9.92912 11.5999ZM5.55176 13.256L4.18105 11.8636L5.55176 10.4708L6.92277 11.8636L5.55176 13.256Z" fill="#2684FF"/>
<path d="M5.55371 10.4716C4.65631 9.55956 4.65172 8.08243 5.54415 7.16504L2.54395 10.2117L4.17695 11.8706L5.55371 10.4716Z" fill="url(#paint0_linear_4163_668)"/>
<path d="M6.92657 11.8604L5.55176 13.2567C5.98501 13.6964 6.22869 14.2933 6.22869 14.9156C6.22869 15.5379 5.98501 16.1344 5.55176 16.5745L8.55919 13.5193L6.92657 11.8604Z" fill="url(#paint1_linear_4163_668)"/>
</g>
<defs>
<linearGradient id="paint0_linear_4163_668" x1="4.9645" y1="9.4129" x2="3.36991" y2="10.9822" gradientUnits="userSpaceOnUse">
<stop stop-color="#0052CC"/>
<stop offset="1" stop-color="#2684FF"/>
</linearGradient>
<linearGradient id="paint1_linear_4163_668" x1="6.15792" y1="14.3003" x2="7.74933" y2="12.7337" gradientUnits="userSpaceOnUse">
<stop stop-color="#0052CC"/>
<stop offset="1" stop-color="#2684FF"/>
</linearGradient>
<clipPath id="clip0_4163_668">
<rect width="72" height="24" fill="white" transform="translate(0.986328 0.65332)"/>
</clipPath>
</defs>
</svg>
