<svg width="72" height="24" viewBox="0 0 72 24" fill="none" xmlns="http://www.w3.org/2000/svg">
    <g clip-path="url(#clip0_2530_1502)">
        <path d="M8.87838 9.62055H9.28283L10.4355 8.52402L10.4921 8.05848C9.8318 7.50404 9.0338 7.1189 8.1735 6.93942C7.3132 6.75994 6.419 6.79206 5.57538 7.03275C4.73176 7.27343 3.96656 7.71473 3.35207 8.31496C2.73758 8.91519 2.29408 9.65453 2.06348 10.4631C2.19189 10.4131 2.33414 10.405 2.46792 10.4401L4.77326 10.0784C4.77326 10.0784 4.89055 9.89372 4.95122 9.90526C5.44518 9.38919 6.12782 9.07225 6.8594 9.01932C7.59097 8.96639 8.31615 9.18148 8.88647 9.62055H8.87838Z" fill="#EA4335"/>
        <path d="M12.0774 10.4631C11.8124 9.53499 11.2685 8.70059 10.5122 8.06232L8.89441 9.6013C9.23157 9.86338 9.50177 10.1949 9.68463 10.5708C9.86749 10.9467 9.95823 11.3572 9.95001 11.7713V12.0444C10.1391 12.0444 10.3263 12.0799 10.501 12.1487C10.6757 12.2175 10.8344 12.3184 10.9681 12.4456C11.1018 12.5728 11.2079 12.7238 11.2802 12.89C11.3526 13.0562 11.3898 13.2343 11.3898 13.4141C11.3898 13.594 11.3526 13.7721 11.2802 13.9383C11.2079 14.1045 11.1018 14.2555 10.9681 14.3827C10.8344 14.5099 10.6757 14.6107 10.501 14.6796C10.3263 14.7484 10.1391 14.7838 9.95001 14.7838H7.07036L6.7832 15.0609V16.7037L7.07036 16.9769H9.95001C10.7541 16.9828 11.5389 16.7424 12.1883 16.2912C12.8377 15.8399 13.3171 15.2019 13.5557 14.4713C13.7943 13.7408 13.7794 12.9566 13.5131 12.2347C13.2469 11.5129 12.7435 10.8917 12.0774 10.4631Z" fill="#4285F4"/>
        <path d="M4.18663 16.9615H7.06628V14.7684H4.18663C3.98147 14.7684 3.77871 14.7264 3.5921 14.6453L3.18765 14.7646L2.02689 15.8611L1.92578 16.2459C2.57671 16.7135 3.37098 16.9649 4.18663 16.9615Z" fill="#34A853"/>
        <path d="M4.18666 9.84756C3.40641 9.85199 2.6471 10.0881 2.01479 10.523C1.38247 10.9579 0.908719 11.5698 0.659708 12.2732C0.410697 12.9767 0.39886 13.7365 0.625848 14.4467C0.852837 15.1569 1.30732 15.7818 1.92581 16.2343L3.59617 14.6453C3.3839 14.5541 3.19807 14.4153 3.05462 14.2407C2.91117 14.0661 2.81438 13.861 2.77256 13.6431C2.73074 13.4251 2.74513 13.2007 2.81451 12.9892C2.88388 12.7776 3.00617 12.5853 3.17087 12.4286C3.33558 12.2719 3.53778 12.1556 3.76014 12.0896C3.98249 12.0236 4.21836 12.0099 4.4475 12.0497C4.67664 12.0895 4.89222 12.1815 5.07573 12.318C5.25924 12.4545 5.40521 12.6313 5.50111 12.8332L7.17147 11.2442C6.82088 10.8082 6.36901 10.4552 5.85121 10.2129C5.33341 9.97065 4.76371 9.8456 4.18666 9.84756Z" fill="#FBBC05"/>
        <path d="M21.3915 15.4302C20.8957 15.4362 20.4037 15.3469 19.9451 15.1678C19.4864 14.9886 19.0704 14.7232 18.7222 14.3875C18.3629 14.0661 18.0778 13.6771 17.8849 13.2452C17.6921 12.8134 17.5957 12.3481 17.6018 11.879C17.5959 11.4099 17.6924 10.9447 17.8853 10.5129C18.0781 10.0811 18.3631 9.69204 18.7222 9.37043C19.0687 9.03124 19.4839 8.76229 19.9427 8.57979C20.4014 8.3973 20.8943 8.30502 21.3915 8.30853C21.8653 8.30252 22.3356 8.38616 22.7751 8.55459C23.2146 8.72302 23.6145 8.97288 23.9516 9.28963L23.2317 9.98602C22.7387 9.53277 22.077 9.28376 21.3915 9.29348C21.0359 9.28933 20.6832 9.35559 20.356 9.48806C20.0287 9.62054 19.734 9.81632 19.4906 10.063C19.2376 10.3017 19.038 10.5867 18.9039 10.9008C18.7697 11.2149 18.7038 11.5516 18.71 11.8905C18.7071 12.2256 18.7746 12.5579 18.9086 12.8678C19.0427 13.1777 19.2406 13.4589 19.4906 13.695C19.9915 14.1698 20.6673 14.4399 21.3744 14.4478C22.0814 14.4557 22.7638 14.2008 23.2762 13.7373C23.5935 13.4068 23.7881 12.9865 23.8303 12.5407H21.4036V11.5558H24.8374C24.8711 11.7542 24.8847 11.9552 24.8778 12.156C24.8992 12.5717 24.8317 12.9872 24.6795 13.3773C24.5272 13.7675 24.2934 14.1242 23.9921 14.426C23.6571 14.7578 23.2524 15.0187 22.8043 15.1917C22.3562 15.3647 21.8748 15.446 21.3915 15.4302ZM29.3753 14.7761C28.9144 15.1963 28.3008 15.4309 27.6624 15.4309C27.0241 15.4309 26.4104 15.1963 25.9496 14.7761C25.7202 14.5646 25.5396 14.31 25.4191 14.0285C25.2987 13.747 25.2411 13.4447 25.2499 13.1409C25.2413 12.8372 25.2991 12.535 25.4195 12.2536C25.5399 11.9721 25.7204 11.7175 25.9496 11.5058C26.4109 11.0864 27.0244 10.8524 27.6624 10.8524C28.3005 10.8524 28.914 11.0864 29.3753 11.5058C29.6044 11.7175 29.7849 11.9721 29.9054 12.2536C30.0258 12.535 30.0835 12.8372 30.0749 13.1409C30.0833 13.445 30.025 13.7474 29.9038 14.0289C29.7827 14.3104 29.6013 14.5649 29.3712 14.7761H29.3753ZM26.7059 14.1336C26.8285 14.2581 26.9766 14.3574 27.1411 14.4252C27.3057 14.4931 27.4831 14.5281 27.6624 14.5281C27.8418 14.5281 28.0192 14.4931 28.1837 14.4252C28.3482 14.3574 28.4964 14.2581 28.6189 14.1336C28.7526 14.0022 28.8572 13.8467 28.9267 13.6762C28.9962 13.5057 29.029 13.3237 29.0234 13.1409C29.0293 12.9576 28.9966 12.7749 28.9272 12.6038C28.8577 12.4326 28.7529 12.2764 28.6189 12.1445C28.4947 12.0212 28.3456 11.9231 28.1805 11.8561C28.0155 11.7891 27.8379 11.7546 27.6584 11.7546C27.4789 11.7546 27.3013 11.7891 27.1362 11.8561C26.9711 11.9231 26.822 12.0212 26.6978 12.1445C26.5639 12.2764 26.4591 12.4326 26.3896 12.6038C26.3201 12.7749 26.2874 12.9576 26.2934 13.1409C26.2883 13.324 26.3218 13.5061 26.3919 13.6766C26.4621 13.8471 26.5675 14.0025 26.7019 14.1336H26.7059ZM34.6411 14.7761C34.1803 15.1963 33.5667 15.4309 32.9283 15.4309C32.29 15.4309 31.6763 15.1963 31.2155 14.7761C30.9861 14.5646 30.8055 14.31 30.685 14.0285C30.5646 13.747 30.5069 13.4447 30.5158 13.1409C30.5072 12.8372 30.5649 12.535 30.6854 12.2536C30.8058 11.9721 30.9863 11.7175 31.2155 11.5058C31.6763 11.0856 32.29 10.851 32.9283 10.851C33.5667 10.851 34.1803 11.0856 34.6411 11.5058C34.8703 11.7175 35.0508 11.9721 35.1712 12.2536C35.2917 12.535 35.3494 12.8372 35.3408 13.1409C35.3497 13.4447 35.292 13.747 35.1716 14.0285C35.0511 14.31 34.8705 14.5646 34.6411 14.7761ZM31.9718 14.1336C32.0944 14.2581 32.2425 14.3574 32.407 14.4252C32.5716 14.4931 32.749 14.5281 32.9283 14.5281C33.1076 14.5281 33.2851 14.4931 33.4496 14.4252C33.6141 14.3574 33.7622 14.2581 33.8848 14.1336C34.0185 14.0022 34.1231 13.8467 34.1926 13.6762C34.262 13.5057 34.2949 13.3237 34.2893 13.1409C34.2952 12.9576 34.2625 12.7749 34.193 12.6038C34.1236 12.4326 34.0188 12.2764 33.8848 12.1445C33.7606 12.0212 33.6115 11.9231 33.4464 11.8561C33.2814 11.7891 33.1037 11.7546 32.9243 11.7546C32.7448 11.7546 32.5672 11.7891 32.4021 11.8561C32.237 11.9231 32.0879 12.0212 31.9637 12.1445C31.8297 12.2764 31.7249 12.4326 31.6555 12.6038C31.586 12.7749 31.5533 12.9576 31.5593 13.1409C31.5541 13.324 31.5877 13.5061 31.6578 13.6766C31.728 13.8471 31.8334 14.0025 31.9677 14.1336H31.9718ZM38.1032 17.4847C37.6184 17.4994 37.143 17.3554 36.7564 17.0769C36.4131 16.8314 36.1427 16.5052 35.9718 16.1304L36.8939 15.7649C36.9943 15.9889 37.1512 16.1858 37.3509 16.3382C37.5646 16.5021 37.8328 16.588 38.1072 16.5806C38.2812 16.5907 38.4555 16.5649 38.6181 16.5052C38.7807 16.4454 38.9279 16.353 39.0496 16.2343C39.2933 15.9547 39.4136 15.5962 39.3853 15.234V14.9031H39.3489C39.1948 15.0772 39.0001 15.2148 38.7804 15.305C38.5607 15.3951 38.3219 15.4354 38.083 15.4225C37.7793 15.4234 37.4788 15.3643 37.2003 15.2491C36.9218 15.1339 36.6715 14.965 36.4652 14.753C36.2413 14.5428 36.0645 14.2915 35.9457 14.0144C35.8268 13.7373 35.7682 13.4402 35.7736 13.1409C35.768 12.84 35.8264 12.541 35.9452 12.262C36.0641 11.983 36.2409 11.7297 36.4652 11.5173C36.671 11.3045 36.9211 11.1348 37.1997 11.0188C37.4782 10.9029 37.779 10.8434 38.083 10.844C38.3402 10.8436 38.5944 10.8975 38.8271 11.0018C39.0285 11.0854 39.208 11.2102 39.3529 11.3673H39.3893V11.0018H40.3923V15.0993C40.4188 15.4234 40.3753 15.7493 40.2648 16.0569C40.1542 16.3646 39.9788 16.6475 39.7493 16.8884C39.5307 17.0873 39.2724 17.2426 38.9897 17.345C38.707 17.4474 38.4055 17.495 38.1032 17.4847ZM38.176 14.5299C38.3487 14.5335 38.5201 14.5009 38.6781 14.4344C38.8361 14.3679 38.9767 14.2691 39.09 14.1451C39.3396 13.8731 39.4711 13.521 39.4581 13.1602C39.4731 12.7933 39.3416 12.4345 39.09 12.156C38.9769 12.0318 38.8363 11.9329 38.6782 11.8664C38.5202 11.7998 38.3487 11.7674 38.176 11.7712C37.9986 11.7678 37.8224 11.8003 37.6592 11.8666C37.496 11.933 37.3496 12.0316 37.2296 12.156C36.962 12.4245 36.8167 12.7826 36.8251 13.1525C36.821 13.3339 36.8546 13.5143 36.924 13.6834C36.9935 13.8524 37.0973 14.0067 37.2296 14.1374C37.349 14.263 37.4952 14.363 37.6584 14.4306C37.8215 14.4983 37.998 14.5321 38.176 14.5299ZM42.176 8.56631V15.2917H41.1204V8.56631H42.176ZM45.0718 15.4302C44.7556 15.4379 44.4412 15.3835 44.1483 15.2703C43.8553 15.1571 43.59 14.9875 43.3691 14.7723C43.1449 14.5586 42.9687 14.3038 42.8512 14.0234C42.7337 13.743 42.6773 13.4427 42.6856 13.1409C42.6736 12.8384 42.7258 12.5367 42.8391 12.2538C42.9523 11.9709 43.1243 11.7125 43.3448 11.4942C43.5526 11.2859 43.8038 11.1211 44.0824 11.0105C44.361 10.8998 44.6608 10.8457 44.9626 10.8517C45.2401 10.8489 45.5154 10.9 45.7715 11.0018C46.0022 11.0903 46.2124 11.221 46.3903 11.3865C46.543 11.5268 46.6787 11.6829 46.7947 11.852C46.8886 11.9948 46.9685 12.1455 47.0333 12.3022L47.1425 12.5638L43.907 13.8296C44.0048 14.0435 44.1685 14.2242 44.3764 14.3478C44.5844 14.4714 44.8268 14.5322 45.0718 14.5222C45.3101 14.5228 45.5446 14.4646 45.7523 14.3534C45.96 14.2421 46.1338 14.0816 46.2568 13.8874L47.0657 14.4068C46.8593 14.6877 46.5951 14.9259 46.2892 15.107C45.9253 15.3257 45.5021 15.438 45.0718 15.4302ZM43.7209 13.0717L45.8726 12.2214C45.8063 12.0715 45.6877 11.9478 45.5369 11.8713C45.368 11.7805 45.1768 11.7341 44.9828 11.7366C44.6537 11.7447 44.3412 11.8761 44.1132 12.1021C43.9769 12.2263 43.871 12.3776 43.8031 12.5452C43.7353 12.7128 43.7073 12.8926 43.7209 13.0717ZM52.6713 15.4302C52.2224 15.4376 51.7765 15.3586 51.3605 15.1979C50.9444 15.0373 50.5668 14.7983 50.2503 14.4954C49.9337 14.1925 49.6848 13.8318 49.5184 13.4351C49.352 13.0384 49.2716 12.6138 49.2821 12.1868C49.2716 11.7598 49.352 11.3351 49.5184 10.9384C49.6848 10.5417 49.9337 10.1811 50.2503 9.87813C50.5668 9.57521 50.9444 9.33626 51.3605 9.17562C51.7765 9.01499 52.2224 8.93599 52.6713 8.94336C53.1257 8.92985 53.5774 9.01418 53.9927 9.19007C54.408 9.36595 54.7762 9.62884 55.0697 9.95909L54.4873 10.4977C54.2718 10.2399 53.9954 10.0341 53.6806 9.89706C53.3657 9.76001 53.0213 9.69558 52.6754 9.70901C52.3423 9.70187 52.0112 9.75886 51.7019 9.87655C51.3926 9.99424 51.1116 10.1702 50.8756 10.3939C50.6302 10.6286 50.4385 10.909 50.3126 11.2175C50.1866 11.5261 50.129 11.8561 50.1435 12.1868C50.129 12.5175 50.1866 12.8475 50.3126 13.156C50.4385 13.4646 50.6302 13.745 50.8756 13.9797C51.1116 14.2034 51.3926 14.3793 51.7019 14.497C52.0112 14.6147 52.3423 14.6717 52.6754 14.6645C53.0619 14.6687 53.4444 14.5899 53.7945 14.434C54.1446 14.2781 54.4533 14.0492 54.6976 13.7642L55.28 14.3183C54.9751 14.6652 54.5922 14.9426 54.1597 15.1301C53.6934 15.3349 53.1848 15.4374 52.6713 15.4302ZM56.8452 15.2917H56.008V9.07802H56.8452V15.2917ZM58.2122 11.5519C58.6509 11.1375 59.2441 10.9049 59.8624 10.9049C60.4806 10.9049 61.0738 11.1375 61.5125 11.5519C61.727 11.7674 61.8946 12.0211 62.0057 12.2984C62.1168 12.5758 62.1691 12.8712 62.1596 13.1679C62.1691 13.4645 62.1168 13.76 62.0057 14.0373C61.8946 14.3147 61.727 14.5683 61.5125 14.7838C61.0738 15.1983 60.4806 15.4309 59.8624 15.4309C59.2441 15.4309 58.6509 15.1983 58.2122 14.7838C57.9977 14.5683 57.8301 14.3147 57.719 14.0373C57.608 13.76 57.5557 13.4645 57.5651 13.1679C57.5557 12.8712 57.608 12.5758 57.719 12.2984C57.8301 12.0211 57.9977 11.7674 58.2122 11.5519ZM58.8351 14.2836C58.967 14.4163 59.1259 14.5219 59.3022 14.5941C59.4785 14.6663 59.6684 14.7035 59.8603 14.7035C60.0523 14.7035 60.2422 14.6663 60.4185 14.5941C60.5947 14.5219 60.7537 14.4163 60.8856 14.2836C61.0319 14.1343 61.1456 13.9587 61.2199 13.7671C61.2942 13.5756 61.3276 13.3719 61.3184 13.1679C61.3276 12.9639 61.2942 12.7602 61.2199 12.5686C61.1456 12.3771 61.0319 12.2015 60.8856 12.0521C60.7537 11.9195 60.5947 11.8139 60.4185 11.7417C60.2422 11.6695 60.0523 11.6322 59.8603 11.6322C59.6684 11.6322 59.4785 11.6695 59.3022 11.7417C59.1259 11.8139 58.967 11.9195 58.8351 12.0521C58.6887 12.2015 58.5751 12.3771 58.5008 12.5686C58.4265 12.7602 58.393 12.9639 58.4023 13.1679C58.3941 13.3715 58.4285 13.5746 58.5035 13.7655C58.5785 13.9564 58.6926 14.1312 58.8391 14.2798L58.8351 14.2836ZM66.7986 15.2917H65.9897V14.703H65.9654C65.8215 14.9266 65.6177 15.1098 65.375 15.234C65.123 15.3729 64.837 15.4459 64.5458 15.4456C64.3095 15.461 64.0725 15.4254 63.8526 15.3414C63.6327 15.2575 63.4355 15.1274 63.2759 14.9608C62.9695 14.5922 62.8156 14.1296 62.8431 13.6604V11.0441H63.6803V13.5142C63.6803 14.3067 64.0484 14.703 64.7845 14.703C64.948 14.7079 65.1104 14.6755 65.2581 14.6086C65.4059 14.5416 65.5347 14.4421 65.6338 14.3183C65.8508 14.0567 65.9665 13.7319 65.9614 13.3987V11.0441H66.7986V15.2917ZM69.6419 15.4302C69.3578 15.4311 69.077 15.3734 68.8187 15.2612C68.5603 15.1489 68.3307 14.9848 68.1454 14.78C67.7261 14.3394 67.5015 13.762 67.5185 13.1679C67.5015 12.5738 67.7261 11.9964 68.1454 11.5558C68.3307 11.351 68.5603 11.1868 68.8187 11.0746C69.077 10.9623 69.3578 10.9047 69.6419 10.9056C69.96 10.9008 70.2744 10.9722 70.5559 11.1133C70.8033 11.2318 71.0128 11.4111 71.1626 11.6327H71.199L71.1626 11.0441V9.07802H71.9998V15.2917H71.1909V14.703H71.1545C71.0047 14.9246 70.7952 15.104 70.5478 15.2224C70.2687 15.3623 69.9573 15.4337 69.6419 15.4302ZM69.7794 14.703C69.9686 14.7056 70.1563 14.6699 70.3299 14.5983C70.5035 14.5267 70.6591 14.4207 70.7864 14.2875C71.0708 13.9794 71.2162 13.5772 71.1909 13.1679C71.2162 12.7586 71.0708 12.3563 70.7864 12.0483C70.6583 11.9143 70.5022 11.8073 70.3281 11.7341C70.154 11.6608 69.9657 11.623 69.7753 11.623C69.5849 11.623 69.3967 11.6608 69.2226 11.7341C69.0484 11.8073 68.8923 11.9143 68.7642 12.0483C68.6229 12.1998 68.5145 12.3763 68.4451 12.5678C68.3757 12.7593 68.3467 12.9619 68.3598 13.164C68.3467 13.3662 68.3757 13.5688 68.4451 13.7603C68.5145 13.9517 68.6229 14.1283 68.7642 14.2798C68.8917 14.4154 69.0483 14.5234 69.2234 14.5964C69.3986 14.6694 69.5882 14.7058 69.7794 14.703Z" fill="#E4E4E4" fill-opacity="0.933333"/>
    </g>
    <defs>
        <clipPath id="clip0_2530_1502">
            <rect width="72" height="12" fill="white" transform="translate(0 6)"/>
        </clipPath>
    </defs>
</svg>
