<svg width="72" height="24" viewBox="0 0 72 24" fill="none" xmlns="http://www.w3.org/2000/svg">
<g clip-path="url(#clip0_2827_1792)">
<path d="M15.1582 8.34119C15.0249 8.4731 14.7601 8.4731 14.6272 8.34119L12.2382 5.96691C12.1049 5.83548 12.1049 5.57167 12.2382 5.43976L14.6272 3.13262C14.7606 3.00072 15.0253 3.00072 15.1582 3.13262L17.5472 5.50643C17.6791 5.63786 17.6791 5.90167 17.5472 6.03357L15.1577 8.34071L15.1582 8.34119Z" fill="white"/>
<path d="M15.1582 20.0119C15.0249 20.1438 14.7601 20.1438 14.6272 20.0119L12.2382 17.6381C12.1049 17.5066 12.1049 17.2428 12.2382 17.1109L14.6272 14.7376C14.7606 14.6057 15.0253 14.6057 15.1582 14.7376L17.5472 17.1114C17.6791 17.2438 17.6791 17.5076 17.5472 17.639L15.1577 20.0128L15.1582 20.0119Z" fill="white"/>
<path d="M21.0644 14.1432C20.9311 14.2756 20.6663 14.2756 20.5335 14.1432L18.1444 11.7699C18.0111 11.638 18.0111 11.3747 18.1444 11.2428L20.5335 8.86895C20.6668 8.73704 20.9316 8.73704 21.0644 8.86895L23.4535 11.2428C23.5868 11.3747 23.5868 11.638 23.4535 11.7699L21.0644 14.1432Z" fill="white"/>
<path d="M11.9061 17.8358C11.9061 17.6377 11.7728 17.572 11.6409 17.7039L10.6457 18.7587C10.5123 18.8906 10.5123 19.0887 10.7123 19.2206L11.6409 19.6158C11.8399 19.6825 11.9723 19.6158 11.9723 19.4182V17.8358H11.9057H11.9061Z" fill="white"/>
<path d="M19.0735 19.2207C19.2725 19.1541 19.2725 18.9569 19.1401 18.7588L18.0782 17.7041C17.9449 17.5721 17.8125 17.6374 17.8125 17.836V19.4183C17.8125 19.616 17.9458 19.7479 18.1444 19.616L19.0735 19.2207Z" fill="white"/>
<path d="M20.7325 14.8689C20.7325 14.6713 20.5335 14.4736 20.3344 14.4736H18.2106C18.0115 14.4736 17.8125 14.6713 17.8125 14.8689V16.9784C17.8125 17.1765 18.0115 17.3746 18.2106 17.3746H20.3344C20.5335 17.3746 20.7325 17.1765 20.7325 16.9793V14.8689Z" fill="white"/>
<path d="M22.5907 7.41857C22.524 7.22095 22.3254 7.22095 22.1264 7.3519L21.0645 8.40761C20.9312 8.53952 20.9978 8.67142 21.1978 8.67142H22.7897C22.9888 8.67142 23.1216 8.53952 22.9888 8.34142L22.5907 7.41857Z" fill="white"/>
<path d="M19.1396 4.3856C19.273 4.1875 19.273 3.99036 19.073 3.92369L18.1444 3.52846C17.9454 3.46179 17.8125 3.52846 17.8125 3.72607V5.30845C17.8125 5.50655 17.9458 5.57226 18.0782 5.44036L19.1396 4.3856Z" fill="white"/>
<path d="M7.65929 7.35225C7.46024 7.22083 7.26119 7.22082 7.19453 7.41892L6.73024 8.27606C6.66357 8.47321 6.79691 8.60463 6.99548 8.60463H8.58834C8.78738 8.60463 8.85405 8.47321 8.72167 8.3413L7.65929 7.35225Z" fill="white"/>
<path d="M11.9061 6.16526C11.9061 5.96764 11.707 5.77002 11.508 5.77002H9.45083C9.25178 5.77002 9.05273 5.96764 9.05273 6.16526V8.27478C9.05273 8.47288 9.25273 8.67097 9.45131 8.67097H11.5751C11.7737 8.67097 11.9727 8.47288 11.9727 8.27573V6.16478L11.9061 6.16526Z" fill="white"/>
<path d="M11.9061 3.72582C11.9061 3.5282 11.7728 3.39629 11.5742 3.5282L10.7123 3.92344C10.5123 3.9901 10.4457 4.18725 10.6457 4.38534L11.7076 5.4401C11.8399 5.57201 11.9723 5.50677 11.9723 5.3082V3.72582H11.9057H11.9061Z" fill="white"/>
<path d="M22.9886 14.8686C23.0553 14.671 22.9886 14.5391 22.7895 14.5391H21.1972C20.9981 14.5391 20.9315 14.6714 21.0638 14.8033L22.1262 15.8576C22.2595 15.9895 22.4581 15.9895 22.591 15.7919L22.9891 14.8681L22.9886 14.8686Z" fill="white"/>
<path d="M11.9061 14.8689C11.9061 14.6713 11.707 14.4736 11.508 14.4736H9.45083C9.25178 14.4736 9.05273 14.6713 9.05273 14.8689V16.9784C9.05273 17.1765 9.25273 17.3746 9.45131 17.3746H11.5751C11.7737 17.3746 11.9727 17.1765 11.9727 16.9793V14.8689H11.9061Z" fill="white"/>
<path d="M8.65454 14.737C8.78787 14.605 8.7212 14.4731 8.52216 14.4731H6.99549C6.79644 14.4731 6.66406 14.605 6.79644 14.8031L7.19454 15.726C7.2612 15.9236 7.46025 15.9236 7.6593 15.7927L8.65454 14.737Z" fill="white"/>
<path d="M20.7325 8.27525C20.7325 8.47286 20.5335 8.67048 20.3344 8.67048H18.2106C18.0115 8.67048 17.8125 8.47286 17.8125 8.27525V6.16572C17.8125 5.96763 18.0115 5.76953 18.2106 5.76953H20.3344C20.5335 5.76953 20.7325 5.96763 20.7325 6.16477V8.27525Z" fill="white"/>
<path d="M9.25241 14.143C9.11908 14.2754 8.85384 14.2754 8.72098 14.143L6.33193 11.7701C6.1986 11.6382 6.1986 11.3749 6.33193 11.243L8.72098 8.93535C8.85431 8.80345 9.11908 8.80345 9.25193 8.93535L11.6405 11.3087C11.7729 11.4406 11.7729 11.7039 11.6405 11.8363L9.25241 14.143Z" fill="white"/>
<path d="M53.9133 8.53845C53.25 8.53845 52.9181 8.73654 52.2543 9.46225V9.13225C52.2543 8.73702 52.1876 8.67035 51.79 8.67035H51.4576C51.0595 8.67035 50.9933 8.73702 50.9933 9.13225V15.3956C50.9933 15.7918 51.06 15.8575 51.4576 15.8575H51.7895C52.1872 15.8575 52.2533 15.7918 52.2533 15.3956V12.0337C52.2533 11.1765 52.32 10.6489 52.5191 10.3194C52.7843 9.85749 53.381 9.59368 53.9124 9.65987C54.0457 9.65987 54.1781 9.72559 54.2443 9.72559H54.3776C54.4433 9.72559 54.4433 9.65987 54.51 9.65987C54.5767 9.59321 54.6424 9.46178 54.7091 9.32987C54.7757 9.26416 54.7757 9.19797 54.8424 9.13225L54.9748 8.86845C54.9081 8.73654 54.4438 8.53892 53.9129 8.53892L53.9133 8.53845ZM31.881 8.53845C31.2176 8.53845 30.8857 8.73654 30.2224 9.46225V9.13225C30.2224 8.73702 30.1557 8.67035 29.7576 8.67035H29.4262C29.0281 8.67035 28.9619 8.73702 28.9619 9.13225V15.3956C28.9619 15.7918 29.0276 15.8575 29.4257 15.8575H29.7576C30.1562 15.8575 30.2229 15.7918 30.2229 15.3956V12.0337C30.2229 11.1765 30.2895 10.6489 30.4881 10.3194C30.7538 9.85749 31.351 9.59368 31.8819 9.65987C32.0152 9.65987 32.1476 9.72559 32.2138 9.72559H32.3472C32.4138 9.72559 32.4138 9.65987 32.4795 9.65987C32.5462 9.59321 32.6129 9.46178 32.6786 9.32987C32.7452 9.26416 32.7452 9.19797 32.8119 9.13225L32.9438 8.86845C32.8772 8.73654 32.4133 8.53892 31.8819 8.53892L31.881 8.53845ZM35.4648 12.8908C35.4648 13.5499 35.5314 13.9456 35.6638 14.2089C35.9295 14.6708 36.4605 14.9346 37.0576 14.9346C37.6552 14.9346 38.1862 14.6708 38.4514 14.2089C38.5848 13.8794 38.6505 13.5499 38.6505 12.8899V9.13273C38.6505 8.73654 38.7172 8.67083 39.1152 8.67083H39.4476C39.8457 8.67083 39.9119 8.73654 39.9119 9.13273V13.0223C39.9119 14.0775 39.7129 14.6708 39.2486 15.1984C38.7176 15.7918 37.921 16.1213 37.0581 16.1213C36.1295 16.1213 35.3995 15.7918 34.8686 15.1975C34.4038 14.6708 34.2048 14.0775 34.2048 13.0223V9.13178C34.2048 8.73654 34.2714 8.67083 34.6695 8.67083H35.0014C35.4 8.67083 35.4662 8.73654 35.4662 9.13273V12.8899L35.4648 12.8908ZM43.2286 9.72559C43.9591 8.93511 44.6891 8.53892 45.751 8.53892C47.7414 8.53892 49.2019 10.1218 49.2019 12.2975C49.2019 14.4737 47.7419 16.1213 45.6848 16.1213C44.6895 16.1213 43.8929 15.7261 43.1629 14.9356V15.4623C43.1629 15.8575 43.0962 15.9232 42.6981 15.9232H42.3667C41.9681 15.9232 41.9019 15.8575 41.9019 15.4613V3.72606C41.9019 3.33083 41.9686 3.26416 42.3667 3.26416H42.6981C43.0967 3.26416 43.1629 3.33083 43.1629 3.72606V9.72606H43.2295L43.2286 9.72559ZM43.0967 12.297C43.0967 13.8794 44.0919 15.0003 45.4857 15.0003C46.8791 15.0003 47.8748 13.8794 47.8748 12.297C47.8748 10.8465 46.8795 9.72559 45.4857 9.72559C44.0919 9.65987 43.0967 10.7146 43.0967 12.297ZM58.0286 5.96702C58.0286 6.42892 57.63 6.82416 57.1652 6.82416C56.701 6.82416 56.3024 6.42892 56.3024 5.9013C56.3024 5.4394 56.701 5.04416 57.1652 5.04416C57.63 5.11083 58.0281 5.50606 58.0281 5.96797L58.0286 5.96702ZM57.6962 15.4623C57.6962 15.8575 57.6295 15.9232 57.2314 15.9232H56.9C56.5014 15.9232 56.4352 15.8575 56.4352 15.4613V9.19845C56.4352 8.80321 56.5019 8.73654 56.9 8.73654H57.2314C57.63 8.73654 57.6962 8.80321 57.6962 9.19845V15.4623ZM63.6686 8.93464C63.8676 8.73654 63.8676 8.73654 64.1995 8.73654H64.73C65.0619 8.73654 65.1948 8.80321 65.1948 9.00035C65.1948 9.06606 65.1281 9.19797 64.9957 9.32987L62.4738 11.8356L65.6595 15.3961C65.7919 15.5284 65.8581 15.6603 65.8581 15.7261C65.8581 15.9237 65.7257 15.9899 65.3938 15.9899H64.8629C64.531 15.9899 64.531 15.9899 64.3319 15.7923L61.611 12.7589L61.2791 12.8908V15.3956C61.2791 15.7918 61.2124 15.8575 60.8148 15.8575H60.4829C60.0848 15.8575 60.0186 15.7918 60.0186 15.3956V3.72606C60.0186 3.33083 60.0852 3.26416 60.4829 3.26416H60.8148C61.2129 3.26416 61.2791 3.33083 61.2791 3.72606V11.3746L63.6681 8.93511L63.6686 8.93464Z" fill="white"/>
</g>
<defs>
<clipPath id="clip0_2827_1792">
<rect width="60" height="17.1429" fill="white" transform="translate(6 3)"/>
</clipPath>
</defs>
</svg>
