<svg width="72" height="24" viewBox="0 0 72 24" fill="none" xmlns="http://www.w3.org/2000/svg">
<g clip-path="url(#clip0_2882_1243)">
<path d="M57.9834 12.3664C57.9834 12.8831 57.5667 13.2998 57.05 13.2998C56.5334 13.2998 56.1167 12.8831 56.1167 12.3664C56.1167 11.8498 56.5334 11.4331 57.05 11.4331C57.5667 11.4331 57.9834 11.8498 57.9834 12.3664Z" fill="white"/>
<path d="M27.5668 17.5995L27.6835 18.8495H29.6502L28.9835 11.6162H26.0502L22.3335 18.8329H24.3335L24.9502 17.5829H27.5668V17.5995ZM27.4835 16.1829H25.6835L27.2335 13.0495H27.2502L27.4835 16.1829Z" fill="white"/>
<path d="M32.3836 15.6663H32.6836L34.0836 13.7663H35.917L33.967 16.1996L35.167 18.8329H33.217L32.4503 16.7829H32.1503L31.717 18.8329H30.0503L31.6003 11.5996H33.2503L32.3836 15.6663Z" fill="white"/>
<path d="M38.5001 18.833H40.1668L40.8334 15.6664C41.2001 13.9164 40.5334 13.6997 38.8334 13.6997C37.6501 13.6997 36.5001 13.683 36.1668 15.2664H37.8334C37.9334 14.8164 38.2168 14.7164 38.6168 14.7164C39.3334 14.7164 39.3001 15.0164 39.2001 15.483L39.0334 16.283H38.9501C38.8834 15.6997 38.1668 15.7164 37.6834 15.7164C36.4834 15.7164 35.7668 16.0997 35.5168 17.3164C35.2501 18.5997 35.8501 18.883 37.0168 18.883C37.6001 18.883 38.3668 18.7664 38.6501 18.0664H38.7001L38.5001 18.833ZM38.0334 16.7497C38.5668 16.7497 38.9334 16.783 38.8334 17.2164C38.7168 17.7497 38.4834 17.833 37.8001 17.833C37.5501 17.833 37.0834 17.833 37.2001 17.283C37.3001 16.8164 37.6334 16.7497 38.0334 16.7497Z" fill="white"/>
<path d="M43.5002 13.7663L43.3502 14.483H43.4169C43.7502 13.883 44.4002 13.7163 44.9669 13.7163C45.6836 13.7163 46.3836 13.833 46.2836 14.7163H46.3669C46.6169 13.9996 47.3502 13.7163 47.9836 13.7163C49.1502 13.7163 49.6502 14.1996 49.4002 15.383L48.6669 18.833H47.0169L47.6336 15.8996C47.7169 15.3663 47.8169 14.983 47.1669 14.983C46.5169 14.983 46.3002 15.4163 46.1836 15.9496L45.5836 18.833H43.9169L44.5669 15.7663C44.6502 15.2996 44.6836 14.983 44.1002 14.983C43.4169 14.983 43.2169 15.3496 43.0836 15.9496L42.4836 18.833H40.8169L41.9002 13.7663H43.5002Z" fill="white"/>
<path d="M52.4834 18.833H54.1501L54.8168 15.6664C55.1834 13.9164 54.5168 13.6997 52.8168 13.6997C51.6334 13.6997 50.4834 13.683 50.1501 15.2664H51.8168C51.9168 14.8164 52.2001 14.7164 52.6001 14.7164C53.3334 14.7164 53.2834 15.0164 53.2001 15.483L53.0334 16.283H52.9501C52.8834 15.6997 52.1668 15.7164 51.6834 15.7164C50.4834 15.7164 49.7668 16.0997 49.5168 17.3164C49.2501 18.5997 49.8501 18.883 51.0168 18.883C51.6001 18.883 52.3668 18.7664 52.6501 18.0664H52.7001L52.4834 18.833ZM52.0168 16.7497C52.5501 16.7497 52.9168 16.783 52.8168 17.2164C52.7001 17.7497 52.4668 17.833 51.7834 17.833C51.5334 17.833 51.0668 17.833 51.1834 17.283C51.2834 16.8164 51.6168 16.7497 52.0168 16.7497Z" fill="white"/>
<path d="M56.5333 18.8333H54.8833L55.95 13.7666H57.6166L56.5333 18.8333Z" fill="white"/>
<path d="M23.1834 20.5834C23.6001 20.7167 23.5834 20.9834 23.1168 20.9834C18.1501 20.9834 14.1001 16.9834 14.1001 12.05C14.1001 7.1167 18.1334 3.1167 23.1168 3.1167C23.5834 3.1167 23.6834 3.3667 23.3001 3.48337C19.5668 4.55003 16.8334 7.98337 16.8334 12.05C16.8334 16.0667 19.5001 19.4667 23.1834 20.5834ZM18.5334 14.1334C18.5168 13.9 18.5001 13.65 18.5001 13.4C18.5001 9.48337 21.6834 6.30003 25.6001 6.30003C29.3001 6.30003 30.4168 7.95003 30.5501 7.85003C30.7001 7.73337 29.2001 4.45003 24.8501 4.45003C20.9334 4.45003 17.7501 7.63337 17.7501 11.55C17.7501 12.45 17.9168 13.3167 18.2334 14.1167C18.3668 14.45 18.5668 14.4667 18.5334 14.1334ZM21.5168 9.0167C23.3668 8.2167 25.6834 8.18337 27.9501 8.98337C29.4834 9.5167 30.3668 10.2834 30.4334 10.25C30.5501 10.2 29.5501 8.60003 27.7168 7.90003C25.5001 7.0667 23.1334 7.50003 21.4001 8.8667C21.2168 9.0167 21.2834 9.1167 21.5168 9.0167Z" fill="white"/>
</g>
<defs>
<clipPath id="clip0_2882_1243">
<rect width="44" height="18" fill="white" transform="translate(14 3)"/>
</clipPath>
</defs>
</svg>
