<svg width="72" height="24" viewBox="0 0 72 24" fill="none" xmlns="http://www.w3.org/2000/svg">
    <g clip-path="url(#clip0_2665_1267)">
        <path d="M10.8628 8.42322H13.0963C14.477 8.42322 15.208 9.21857 15.208 10.3907C15.208 11.2279 14.7816 11.7302 14.0709 12.0232L15.4313 14.5767H14.213L12.8729 12.0232H11.9389V14.5767H10.8628V8.42322ZM12.9339 11.0814C13.7257 11.0814 14.0912 10.8511 14.0912 10.2232C14.0912 9.67903 13.7257 9.36508 12.9136 9.36508H11.9186V11.1023L12.9339 11.0814Z" fill="#FDFDFD"/>
        <path d="M19.939 12.1907C19.939 10.7884 20.7715 9.80469 22.0709 9.80469C23.1674 9.80469 23.9187 10.4535 23.9999 11.4582H22.9847C22.9237 10.9977 22.538 10.6628 22.0913 10.6838C21.4415 10.6838 21.0151 11.2489 21.0151 12.1698C21.0151 13.0907 21.4415 13.6768 22.0913 13.6768C22.538 13.6977 22.9237 13.3628 22.9847 12.9024H23.9999C23.9187 13.8861 23.208 14.5768 22.0913 14.5768C20.7308 14.5768 19.939 13.5931 19.939 12.1907Z" fill="#FDFDFD"/>
        <path d="M24.2642 12.1907C24.2642 10.7675 25.0966 9.80469 26.4164 9.80469C27.7362 9.80469 28.5687 10.7675 28.5687 12.1907C28.5687 13.614 27.7362 14.5768 26.4164 14.5768C25.0966 14.5768 24.2642 13.614 24.2642 12.1907ZM27.4723 12.1907C27.4723 11.3535 27.1068 10.6628 26.3961 10.6628C25.6855 10.6628 25.32 11.3326 25.32 12.1907C25.32 13.0489 25.6652 13.6977 26.3961 13.6977C27.1271 13.6977 27.4723 13.0489 27.4723 12.1907Z" fill="#FDFDFD"/>
        <path d="M28.8528 9.95112H29.8681V10.7255H29.9087C30.0508 10.2232 30.4975 9.8674 31.0051 9.88833C31.1269 9.88833 31.2488 9.90926 31.3909 9.90926V10.9139C31.2285 10.872 31.066 10.8511 30.9036 10.8511C30.3757 10.8093 29.929 11.2279 29.8884 11.772V11.8558V14.5767H28.8325L28.8528 9.95112Z" fill="#FDFDFD"/>
        <path d="M31.4922 12.2744C31.4922 10.7255 32.3044 9.90926 33.3399 9.90926C33.8881 9.88833 34.3957 10.2023 34.6191 10.7255H34.6597V8.42322H35.7155V14.5767H34.68V13.8441H34.6191C34.4567 14.179 34.1115 14.5767 33.3399 14.5767C32.3044 14.5767 31.4922 13.8023 31.4922 12.2744ZM34.7003 12.2744C34.7003 11.3744 34.3348 10.8093 33.6445 10.8093C32.9541 10.8093 32.5886 11.4162 32.5886 12.2744C32.5886 13.1325 32.9541 13.7814 33.6445 13.7814C34.3348 13.7814 34.7003 13.1744 34.7003 12.2744Z" fill="#FDFDFD"/>
        <path d="M40.7104 12.2744C40.7104 10.7255 41.5226 9.90926 42.5582 9.90926C43.1064 9.88833 43.614 10.2023 43.8374 10.7255H43.878V8.42322H44.9338V14.5767H43.8983V13.8441H43.8374C43.6749 14.179 43.3297 14.5767 42.5582 14.5767C41.5023 14.5767 40.7104 13.8023 40.7104 12.2744ZM43.8983 12.2744C43.8983 11.3744 43.5328 10.8093 42.8424 10.8093C42.1521 10.8093 41.7866 11.4162 41.7866 12.2744C41.7866 13.1325 42.1521 13.7814 42.8424 13.7814C43.5328 13.7814 43.8983 13.1744 43.8983 12.2744Z" fill="#FDFDFD"/>
        <path d="M47.3301 8.42322H51.1676V9.36508H48.4265V11.0814H50.9037V12.0232H48.4062V14.5767H47.3301V8.42322Z" fill="#FDFDFD"/>
        <path d="M54.2538 9.95117H55.3096V14.5558H54.2944V13.7395H54.2538C54.0507 14.2628 53.5837 14.5558 52.9137 14.5558C52.0406 14.5558 51.4111 13.9907 51.4111 12.8814V9.95117H52.467V12.714C52.467 13.3 52.8121 13.6768 53.3198 13.6768C53.8477 13.6768 54.2741 13.2372 54.2741 12.693C54.2741 12.6721 54.2741 12.6512 54.2741 12.6302L54.2538 9.95117Z" fill="#FDFDFD"/>
        <path d="M58.213 10.8093H57.3196V13.1954C57.3196 13.6349 57.5226 13.7395 57.8069 13.7395C57.9084 13.7395 58.0099 13.7186 58.1114 13.6977L58.2942 14.5558C58.0911 14.6186 57.8881 14.6605 57.6647 14.6605C56.8729 14.6814 56.2637 14.2628 56.2637 13.3837V10.8093H55.6343V9.9721H56.2637V8.86279H57.3196V9.9721H58.213V10.8093Z" fill="#FDFDFD"/>
        <path d="M61.5433 9.95117H62.5992V14.5558H61.5839V13.7395H61.523C61.32 14.2628 60.853 14.5558 60.1829 14.5558C59.3098 14.5558 58.7007 13.9907 58.7007 12.8814V9.95117H59.7565V12.714C59.7565 13.3 60.1017 13.6768 60.6093 13.6768C61.1372 13.6768 61.5636 13.2372 61.5636 12.693C61.5636 12.6721 61.5636 12.6512 61.5636 12.6302L61.5433 9.95117Z" fill="#FDFDFD"/>
        <path d="M63.2688 9.95112H64.2841V10.7255H64.3247C64.4668 10.2232 64.9135 9.8674 65.4211 9.88833C65.543 9.88833 65.6851 9.90926 65.8069 9.90926V10.9139C65.6445 10.872 65.482 10.8511 65.3196 10.8511C64.7917 10.8093 64.345 11.2279 64.3044 11.772V11.8558V14.5767H63.2485L63.2688 9.95112Z" fill="#FDFDFD"/>
        <path d="M70.0303 9.36506C70.0303 8.79994 70.477 8.33948 71.0252 8.33948C71.5734 8.33948 72.0201 8.79994 72.0201 9.36506C72.0201 9.93018 71.5734 10.3906 71.0252 10.3906C70.4567 10.3906 70.0303 9.93018 70.0303 9.36506ZM71.8171 9.36506C71.8171 8.90459 71.4516 8.52785 71.0049 8.52785C70.5582 8.52785 70.1927 8.90459 70.1927 9.36506C70.1927 9.82552 70.5582 10.2023 71.0049 10.2023C71.4516 10.2023 71.8171 9.82552 71.8171 9.36506ZM70.68 8.88366H71.1267C71.2892 8.88366 71.411 9.00924 71.411 9.17669C71.411 9.28134 71.3501 9.40692 71.2485 9.44878L71.4516 9.82552H71.2689L71.1064 9.49064H70.8628V9.82552H70.7003L70.68 8.88366ZM71.0658 9.34413C71.147 9.34413 71.2282 9.26041 71.2282 9.17669C71.2282 9.17669 71.2282 9.17669 71.2282 9.15576C71.2282 9.07204 71.1673 8.98831 71.0861 8.98831H71.0658H70.8425V9.3232H71.0658V9.34413Z" fill="#FDFDFD"/>
        <path d="M65.8276 12.2953C65.8276 10.8721 66.6601 9.9093 67.9393 9.9093C69.0358 9.9093 69.9901 10.6209 69.9901 12.2326V12.5674H66.8632C66.8632 13.3628 67.3302 13.7395 68.0002 13.7395C68.4469 13.7395 68.8124 13.6349 68.9545 13.2372H69.9901C69.8073 14.0326 69.117 14.5977 68.0002 14.5977C66.6601 14.5767 65.8276 13.7395 65.8276 12.2953ZM68.9748 11.8349C68.9951 11.2698 68.5891 10.7884 68.0408 10.7465C68.0205 10.7465 68.0002 10.7465 67.9596 10.7465C67.3708 10.7465 66.8835 11.2279 66.8835 11.8349H68.9748Z" fill="#FDFDFD"/>
        <path d="M36.1826 12.2953C36.1826 10.8721 37.0151 9.9093 38.2943 9.9093C39.3907 9.9093 40.3451 10.6209 40.3451 12.2326V12.5674H37.2182C37.2182 13.3628 37.6852 13.7395 38.3552 13.7395C38.8019 13.7395 39.1674 13.6349 39.3095 13.2372H40.3451C40.1623 14.0326 39.472 14.5977 38.3552 14.5977C37.0151 14.5767 36.1826 13.7395 36.1826 12.2953ZM39.3298 11.8349C39.3501 11.2698 38.944 10.7884 38.3958 10.7465C38.3755 10.7465 38.3552 10.7465 38.3146 10.7465C37.7258 10.7465 37.2385 11.2279 37.2385 11.8349H39.3298Z" fill="#FDFDFD"/>
        <path d="M15.4722 12.2953C15.4722 10.8721 16.3047 9.9093 17.5838 9.9093C18.6803 9.9093 19.6346 10.6209 19.6346 12.2326V12.5674H16.528C16.528 13.3628 16.995 13.7395 17.6651 13.7395C18.1118 13.7395 18.4772 13.6349 18.6194 13.2372H19.6549C19.4722 14.0326 18.7818 14.5977 17.6651 14.5977C16.3047 14.5767 15.4722 13.7395 15.4722 12.2953ZM18.6397 11.8349C18.66 11.2698 18.2539 10.7884 17.7057 10.7465C17.6854 10.7465 17.6651 10.7465 17.6245 10.7465C17.0356 10.7465 16.5483 11.2279 16.5483 11.8349H18.6397Z" fill="#FDFDFD"/>
        <path fill-rule="evenodd" clip-rule="evenodd" d="M4.67005 10.8512C4.30457 10.8512 4 11.1652 4 11.5419C4 11.9186 4.30457 12.2326 4.67005 12.2326C5.03553 12.2326 5.3401 11.9186 5.3401 11.5419C5.3401 11.1652 5.03553 10.8512 4.67005 10.8512Z" fill="#FDFDFD"/>
        <path fill-rule="evenodd" clip-rule="evenodd" d="M8.62952 10.8512C8.26404 10.8512 7.95947 11.1652 7.95947 11.5419C7.95947 11.9186 8.26404 12.2326 8.62952 12.2326C8.99501 12.2326 9.29957 11.9186 9.29957 11.5419C9.29957 11.1652 8.99501 10.8512 8.62952 10.8512Z" fill="#FDFDFD"/>
        <path fill-rule="evenodd" clip-rule="evenodd" d="M0.670051 10.8512C0.304569 10.8512 0 11.1652 0 11.5419C0 11.9186 0.304569 12.2326 0.670051 12.2326C1.03553 12.2326 1.3401 11.9186 1.3401 11.5419C1.3401 11.1652 1.03553 10.8512 0.670051 10.8512Z" fill="#FDFDFD"/>
        <path fill-rule="evenodd" clip-rule="evenodd" d="M4.10156 15.414V13.3837C4.10156 13.0698 4.34522 12.8186 4.64979 12.8186C4.95435 12.8186 5.19801 13.0698 5.19801 13.3837V15.414C5.19801 15.7279 4.95435 15.9791 4.64979 15.9791C4.34522 16 4.10156 15.7488 4.10156 15.414Z" fill="#FDFDFD"/>
        <path fill-rule="evenodd" clip-rule="evenodd" d="M6.09152 14.3884V8.69535C6.07121 8.3814 6.31487 8.10931 6.61943 8.08838C6.924 8.06745 7.18796 8.31861 7.20827 8.63256V8.69535V14.3674V14.3884C7.18796 14.7023 6.924 14.9326 6.61943 14.9326C6.33517 14.9116 6.11182 14.6814 6.09152 14.3884Z" fill="#FDFDFD"/>
        <path fill-rule="evenodd" clip-rule="evenodd" d="M2.11182 14.3884V8.69537C2.11182 8.38141 2.35547 8.13025 2.66004 8.13025C2.96461 8.13025 3.20826 8.38141 3.20826 8.69537V14.3675V14.3884C3.20826 14.7023 2.96461 14.9535 2.66004 14.9535C2.35547 14.9535 2.11182 14.7023 2.11182 14.3884Z" fill="#FDFDFD"/>
        <path fill-rule="evenodd" clip-rule="evenodd" d="M4.10156 9.59535V7.56512C4.10156 7.25116 4.34522 7 4.64979 7C4.95435 7 5.19801 7.25116 5.19801 7.56512V9.59535V9.61628C5.19801 9.93023 4.95435 10.1814 4.64979 10.1814C4.34522 10.1814 4.10156 9.93023 4.10156 9.59535Z" fill="#FDFDFD"/>
    </g>
    <defs>
        <clipPath id="clip0_2665_1267">
            <rect width="72" height="9" fill="white" transform="translate(0 7)"/>
        </clipPath>
    </defs>
</svg>
