<svg width="72" height="24" viewBox="0 0 72 24" fill="none" xmlns="http://www.w3.org/2000/svg">
    <path d="M8.17507 11.2245H5.33806L5.9527 8.44333H8.57636C9.43991 8.44333 9.94788 8.90812 9.94788 9.58626C9.94788 10.4803 9.2926 11.2245 8.17507 11.2245ZM12.856 9.31196C12.856 7.40199 11.3829 6 8.80749 6H3.56524L1 17.6833H3.92082L4.80469 13.6703H6.51401L8.21316 17.6833H11.1264L9.31546 13.4773C11.487 13.137 12.856 11.3946 12.856 9.31196Z" fill="black"/>
    <path d="M17.8954 13.3097L20.3997 9.0021L21.3471 13.3097H17.898H17.8954ZM19.2162 6L12.4297 17.6833H15.3429L16.4782 15.7454H21.883L22.3097 17.6833H25.2229L22.6653 6H19.2162ZM33.5866 11.2245H30.996L31.6055 8.44333H33.8609C34.7499 8.44333 35.2959 8.86749 35.2959 9.58626C35.2959 10.4803 34.6229 11.2245 33.5891 11.2245M34.1581 6H29.2181L26.6528 17.6833H29.5686L30.4575 13.6653H33.7136C36.4973 13.6653 38.1837 11.5673 38.1837 9.35514C38.1837 7.38422 36.6471 6.00254 34.1555 6.00254" fill="black"/>
    <path d="M43.8271 6H40.9063L38.3359 17.6833H41.2568L43.8271 6Z" fill="black"/>
    <path d="M64.7451 6H55.5356C55.6753 6.14223 55.815 6.28954 55.942 6.44447C56.9732 7.69408 57.5167 9.2637 57.5167 10.9908C57.5167 13.6576 56.3941 16.0629 54.5908 17.6833H60.2293L62.9088 11.0238H59.5562L60.115 8.44079H66.7745L63.2771 17.6833H64.6486C67.8412 17.7036 70.0001 15.052 70.0001 11.8315C70.0001 8.61096 67.9428 6 64.7426 6" fill="#E85E26"/>
    <path d="M48.4851 15.245H46.8723L48.3708 8.44333H49.8947C51.5659 8.44333 52.5031 9.69548 52.5031 11.2626C52.5031 13.3706 50.9995 15.245 48.4901 15.245M54.3369 7.90488C53.3362 6.68576 51.6827 6 49.7321 6H45.9884L43.4155 17.6833H48.1269C49.9556 17.6833 51.3627 17.2769 52.4371 16.6293C54.6213 15.3035 55.396 12.9719 55.396 10.9908C55.396 9.75643 55.0099 8.71002 54.3394 7.90488" fill="black"/>
</svg>
