<svg width="72" height="24" viewBox="0 0 72 24" fill="none" xmlns="http://www.w3.org/2000/svg">
    <g clip-path="url(#clip0_2695_2264)">
        <path d="M68.2516 14.6052C69.9589 14.6052 70.9995 13.4003 70.9995 12.1388C70.9995 10.6077 69.7671 10.1233 68.6353 9.74048C67.686 9.42495 66.8144 9.16808 66.8144 8.37746C66.8144 7.73351 67.3577 7.24053 68.1941 7.24053C68.9306 7.24053 69.4875 7.54461 69.8569 8.11844L70.8629 7.37504C70.2299 6.6438 69.4487 6.15869 68.1927 6.15869C66.6671 6.15869 65.5461 7.14966 65.5461 8.39964C65.5461 9.90862 66.7569 10.3587 67.8765 10.7193C68.8264 11.0227 69.7312 11.2917 69.7312 12.1381C69.7312 12.8701 69.1563 13.4561 68.2379 13.4561C67.4015 13.4561 66.7461 13.0397 66.2589 12.2619L65.1753 13.1091C65.8766 14.0106 66.8381 14.6073 68.2516 14.6073" fill="#FBFBFB"/>
        <path d="M61.2962 14.4928H62.5171V7.42011H64.8583V6.27173H58.9551V7.42011H61.2962V14.4928Z" fill="#FBFBFB"/>
        <path d="M56.8051 14.4928H58.0267V6.27173H56.8051V9.7741H53.0734V6.27173H51.8403V14.4928H53.0734V10.9447H56.8051V14.4928Z" fill="#FBFBFB"/>
        <path d="M46.8296 14.6051C49.3971 14.6051 50.9256 12.6568 50.9256 10.4265V9.98794H46.6708V11.1478H49.6343C49.3734 12.4764 48.3904 13.4223 46.8318 13.4223C45.0561 13.4223 43.7792 12.0629 43.7792 10.3822C43.7792 8.71507 45.0346 7.32986 46.821 7.32986C48.0081 7.32986 48.9243 7.9273 49.4553 8.91827L50.5332 8.27432C49.8161 7.01575 48.4673 6.1593 46.8188 6.1593C44.3411 6.1593 42.5439 8.03963 42.5439 10.3807C42.5439 12.6782 44.3404 14.6022 46.8296 14.6022" fill="#FBFBFB"/>
        <path d="M41.5485 6.27173H40.3154V14.4935H41.5485V6.27173Z" fill="#FBFBFB"/>
        <path d="M36.5714 14.6052C38.2795 14.6052 39.3193 13.4003 39.3193 12.1388C39.3193 10.6077 38.0862 10.1233 36.9566 9.74048C36.0059 9.42495 35.1349 9.16808 35.1349 8.37746C35.1349 7.73351 35.6782 7.24053 36.5146 7.24053C37.2498 7.24053 37.8038 7.54461 38.1767 8.11844L39.1828 7.37504C38.549 6.6438 37.7693 6.15869 36.5132 6.15869C34.9869 6.15869 33.8666 7.14966 33.8666 8.39964C33.8666 9.90862 35.0767 10.3587 36.1963 10.7193C37.1463 11.0227 38.0517 11.2917 38.0517 12.1381C38.0517 12.8701 37.4768 13.4561 36.5577 13.4561C35.722 13.4561 35.066 13.0397 34.5795 12.2619L33.4951 13.1091C34.1965 14.0106 35.1572 14.6073 36.5714 14.6073" fill="#FBFBFB"/>
        <path d="M29.6166 14.4928H30.8382V7.42082H33.1786V6.27173H27.2754V7.42082H29.6166V14.4928Z" fill="#FBFBFB"/>
        <path d="M19.5488 14.4928H20.7826V8.17496L25.0468 14.4928H26.3467V6.27173H25.1258V12.4887L20.9415 6.27173H19.5488V14.4928Z" fill="#FBFBFB"/>
        <path d="M18.3164 6.27173H17.084V14.4935H18.3164V6.27173Z" fill="#FBFBFB"/>
        <path d="M4.52197 10.2535C5.24775 11.1958 6.23725 11.7747 7.32447 11.7704C8.4117 11.7661 9.39761 11.1815 10.1169 10.2349C9.39114 9.29259 8.40236 8.71375 7.31441 8.71804C6.22647 8.72233 5.242 9.30761 4.52197 10.2535Z" fill="#FBFBFB"/>
        <path d="M6.8407 12.7306C4.49666 12.7306 2.80725 11.1679 2.80725 9.12305C2.80725 7.07815 5.38699 5.31015 7.73103 5.31015C10.5127 5.31015 12.4148 7.26847 13.183 8.21937C11.8478 5.28582 9.68416 4.00293 7.26395 4.00293C3.86646 4.00007 1 6.40343 1 9.36632C1 12.3292 3.41518 14.6116 6.81339 14.6116C9.81566 14.6116 11.2083 12.3936 10.9747 10.6206C10.3862 12.0516 8.68173 12.7284 6.8407 12.7284" fill="#FBFBFB"/>
        <path d="M7.6511 7.89868C9.99442 7.89868 11.6838 9.46133 11.6838 11.5062C11.6838 13.5511 9.10481 15.3213 6.76005 15.3213C3.97839 15.3213 2.07556 13.363 1.30811 12.4135C2.64325 15.347 4.8062 16.6285 7.22641 16.6285C10.6246 16.6285 13.4925 14.2258 13.4925 11.2622C13.4925 8.29865 11.0759 6.01477 7.67912 6.01477C4.67614 6.01477 3.28279 8.23282 3.51561 10.0065C4.10414 8.57554 5.81007 7.89868 7.6511 7.89868Z" fill="#FBFBFB"/>
        <path d="M37.307 18.046C37.307 17.6217 36.9757 17.3112 36.3987 17.3112H35.2238L34.6489 19.9013H35.3043L35.5019 19.0112H35.8863L36.265 19.9063H36.919L36.5122 18.9761C36.7368 18.9465 36.9424 18.835 37.0892 18.6632C37.236 18.4914 37.3136 18.2715 37.307 18.046ZM36.2571 18.4696H35.6212L35.7584 17.8528H36.347C36.541 17.8528 36.6545 17.9565 36.6545 18.1068C36.6545 18.305 36.5108 18.4696 36.2571 18.4696Z" fill="#FBFBFB"/>
        <path d="M38.7524 17.3126L37.2305 19.9063H37.8844L38.1388 19.477H39.351L39.4466 19.9063H40.0998L39.5249 17.3162L38.7524 17.3126ZM38.4571 18.9325L39.0183 17.978L39.2339 18.9325H38.4571Z" fill="#FBFBFB"/>
        <path d="M42.0941 17.3126H40.9875L40.4126 19.9027H41.0658L41.2656 19.0119H41.9957C42.6201 19.0119 43.0017 18.5454 43.0017 18.056C43.0017 17.6181 42.656 17.3119 42.0977 17.3119M41.9705 18.4703H41.3892L41.5257 17.8535H42.0287C42.2278 17.8535 42.3506 17.9473 42.3506 18.1075C42.351 18.2031 42.3135 18.2949 42.2462 18.3629C42.1789 18.431 42.0873 18.4699 41.9913 18.471H41.9705" fill="#FBFBFB"/>
        <path d="M44.2295 17.3126H43.5734L42.9971 19.9027H43.6531L44.2295 17.3126Z" fill="#FBFBFB"/>
        <path d="M48.952 17.3126H46.8861C46.917 17.3441 46.9479 17.3763 46.9766 17.4106C47.2107 17.6947 47.3362 18.0521 47.3309 18.4195C47.333 18.6994 47.2756 18.9765 47.1626 19.2328C47.0495 19.489 46.8833 19.7185 46.6748 19.9063H47.9395L48.5388 18.4267H47.7872L47.9137 17.8543H49.4069L48.6229 19.9063H48.9297C49.6483 19.9106 50.1312 19.3232 50.1312 18.6091C50.1312 17.895 49.6692 17.3162 48.952 17.3162" fill="#FBFBFB"/>
        <path d="M46.6169 17.7348C46.3913 17.4643 46.0205 17.3126 45.5822 17.3126H44.7428L44.168 19.9027H45.2243C45.6339 19.9027 45.9508 19.8126 46.1908 19.6688C46.6809 19.3754 46.8548 18.8581 46.8548 18.4195C46.8603 18.1705 46.7765 17.9277 46.6184 17.7348M45.3055 19.3618H44.9462L45.2818 17.8543H45.6231C45.9982 17.8543 46.2088 18.1319 46.2088 18.4789C46.2144 18.7074 46.1287 18.9288 45.9705 19.0944C45.8123 19.2601 45.5946 19.3565 45.3651 19.3625H45.3055" fill="#FBFBFB"/>
        <path d="M53.8058 17.8678C53.7437 17.7711 53.6556 17.6937 53.5514 17.6446C53.4452 17.5927 53.3284 17.566 53.2101 17.5666C53.0668 17.5652 52.9248 17.5937 52.7933 17.6503C52.666 17.7056 52.5497 17.7832 52.4498 17.8792C52.3477 17.9775 52.2635 18.0928 52.2012 18.2198C52.1358 18.3517 52.0917 18.4929 52.0704 18.6384C52.0501 18.7694 52.054 18.903 52.0819 19.0326C52.1063 19.1514 52.1574 19.2632 52.2314 19.3596C52.3054 19.4554 52.4015 19.532 52.5116 19.5828C52.6381 19.64 52.7759 19.6681 52.9147 19.6651C53.0579 19.6671 53.1995 19.6352 53.3279 19.5721C53.4535 19.5083 53.5648 19.4197 53.6549 19.3117L53.9236 19.5385C53.8866 19.5802 53.8468 19.6195 53.8044 19.6558C53.7362 19.7139 53.6623 19.765 53.5838 19.8082C53.4834 19.8633 53.3777 19.9082 53.2683 19.942C53.1355 19.9819 52.9974 20.0015 52.8587 20C52.6687 20.0043 52.4805 19.9633 52.3097 19.8805C52.1594 19.8066 52.0277 19.7 51.9245 19.5685C51.8247 19.4391 51.7534 19.2901 51.7154 19.1314C51.6756 18.9701 51.6668 18.8029 51.6896 18.6384C51.7171 18.4415 51.7784 18.2508 51.8706 18.0746C51.9584 17.9065 52.0754 17.7553 52.2163 17.6281C52.3562 17.5023 52.5182 17.4034 52.6941 17.3362C52.8776 17.2661 53.0725 17.2307 53.269 17.2317C53.4402 17.231 53.6098 17.2646 53.7677 17.3305C53.9208 17.3919 54.0501 17.5008 54.1363 17.641L53.8058 17.8678Z" fill="#FBFBFB"/>
        <path d="M55.5092 20.0001C55.3238 20.0031 55.1399 19.967 54.9695 19.8942C54.8172 19.828 54.6822 19.7279 54.575 19.6015C54.4684 19.4738 54.3918 19.3239 54.3508 19.1629C54.3053 18.9841 54.2965 18.7979 54.3249 18.6156C54.3508 18.4241 54.4114 18.2388 54.5039 18.0689C54.5934 17.9036 54.7111 17.7549 54.8517 17.6296C54.9925 17.5051 55.1543 17.4063 55.3295 17.3377C55.5126 17.2663 55.7078 17.2303 55.9044 17.2318C56.0898 17.2284 56.2738 17.2645 56.4441 17.3377C56.5962 17.4038 56.7311 17.5036 56.8386 17.6296C56.9449 17.7575 57.0209 17.9077 57.0606 18.0689C57.105 18.2477 57.1133 18.4335 57.085 18.6156C57.0591 18.8071 56.999 18.9925 56.9076 19.1629C56.7298 19.497 56.4376 19.7564 56.084 19.8942C55.9008 19.9652 55.7058 20.0012 55.5092 20.0001ZM55.558 19.6652C55.7029 19.6666 55.8466 19.6381 55.9799 19.5815C56.2383 19.4717 56.4489 19.2738 56.5741 19.0234C56.6389 18.8954 56.6819 18.7576 56.7013 18.6156C56.7215 18.4802 56.7171 18.3423 56.6884 18.2084C56.6626 18.0875 56.61 17.9739 56.5346 17.8757C56.4596 17.7798 56.3631 17.7026 56.2529 17.6504C56.1277 17.5924 55.9908 17.5638 55.8527 17.5666C55.7071 17.5654 55.5628 17.5938 55.4287 17.6504C55.3008 17.7041 55.1837 17.7804 55.0831 17.8757C54.9819 17.9718 54.8978 18.0843 54.8344 18.2084C54.7689 18.336 54.7254 18.4736 54.7058 18.6156C54.6856 18.7512 54.69 18.8893 54.7187 19.0234C54.7447 19.1445 54.7978 19.2582 54.8739 19.3561C54.9501 19.4517 55.0472 19.5288 55.1578 19.5815C55.283 19.6394 55.42 19.6681 55.558 19.6652Z" fill="#FBFBFB"/>
        <path d="M57.7549 17.299H58.2895L58.85 19.293H58.8651L59.9782 17.299H60.5128L60.1428 19.9327H59.7835L60.086 17.7676H60.0788L58.8867 19.9327H58.6474L58.0567 17.7676H58.0495L57.747 19.9327H57.3877L57.7549 17.299Z" fill="#FBFBFB"/>
        <path d="M61.1668 17.299H62.0952C62.2355 17.2943 62.3752 17.3187 62.5055 17.3706C62.5977 17.4079 62.6788 17.468 62.7412 17.5452C62.7946 17.6146 62.8288 17.6967 62.8404 17.7834C62.8533 17.8678 62.8533 17.9537 62.8404 18.0381C62.827 18.1257 62.8029 18.2112 62.7686 18.2929C62.7307 18.3832 62.6739 18.4645 62.6018 18.5311C62.518 18.6071 62.4205 18.6666 62.3144 18.7064C62.1764 18.7569 62.0302 18.7812 61.8832 18.778H61.3084L61.1488 19.9385H60.7896L61.1668 17.299ZM61.3587 18.4596H61.8329C61.9032 18.4595 61.9734 18.454 62.0428 18.4431C62.1097 18.4324 62.1747 18.4117 62.2354 18.3816C62.2945 18.3513 62.3453 18.3071 62.3834 18.2528C62.4263 18.1885 62.4532 18.1149 62.4617 18.0381C62.4755 17.9662 62.4691 17.8919 62.443 17.8235C62.4204 17.7704 62.3817 17.7257 62.3324 17.6954C62.2788 17.6637 62.2194 17.6428 62.1577 17.6339C62.0898 17.6224 62.0211 17.6167 61.9522 17.6167H61.4794L61.3587 18.4596Z" fill="#FBFBFB"/>
        <path d="M63.9355 17.299H64.2603L65.0228 19.9327H64.6045L64.4285 19.2816H63.1695L62.8181 19.9327H62.3999L63.9355 17.299ZM64.343 18.9689L64.0218 17.7597H64.0139L63.342 18.9689H64.343Z" fill="#FBFBFB"/>
        <path d="M65.7365 17.299H66.2079L67.3577 19.4641H67.3663L67.6724 17.299H68.0317L67.6616 19.9327H67.2061L66.0362 17.7676H66.029L65.7265 19.9327H65.3672L65.7365 17.299Z" fill="#FBFBFB"/>
        <path d="M69.1215 18.8094L68.3311 17.299H68.791L69.3479 18.4559L70.2554 17.299H70.6931L69.4786 18.8094L69.3213 19.9327H68.962L69.1215 18.8094Z" fill="#FBFBFB"/>
        <path d="M31.9438 17.299H32.2686L33.0311 19.9334H32.6128L32.4368 19.2823H31.1778L30.8264 19.9334H30.4082L31.9438 17.299ZM32.3513 18.9696L32.0293 17.7597H32.0222L31.3496 18.9689L32.3513 18.9696Z" fill="#FBFBFB"/>
    </g>
    <defs>
        <clipPath id="clip0_2695_2264">
            <rect width="70" height="16" fill="white" transform="translate(1 4)"/>
        </clipPath>
    </defs>
</svg>
