<svg width="72" height="24" viewBox="0 0 72 24" fill="none" xmlns="http://www.w3.org/2000/svg">
    <g clip-path="url(#clip0_2626_176)">
        <path d="M45.7935 8.75665H52.1499V7.92609H45.7935V8.75665Z" fill="white"/>
        <path d="M61.3843 8.75665H67.7407V7.92609H61.3843V8.75665Z" fill="white"/>
        <mask id="mask0_2626_176" style="mask-type:luminance" maskUnits="userSpaceOnUse" x="2" y="4" width="69" height="15">
            <path d="M2 18.2669H71V4.69672H2V18.2669Z" fill="white"/>
        </mask>
        <g mask="url(#mask0_2626_176)">
            <path d="M45.7939 10.9516V13.2837L45.7965 13.2854C45.7792 13.8134 45.964 14.313 46.3185 14.6924C46.6734 15.0721 47.1503 15.2814 47.6609 15.2814H52.1503V14.4508H47.6609C47.0756 14.4508 46.5992 13.9586 46.5992 13.3539C46.5992 13.3303 46.5979 13.3072 46.5992 13.2837V11.783H52.1503V10.9516H45.7939Z" fill="white"/>
            <path d="M61.3843 10.9516V13.2837L61.3868 13.2854C61.3695 13.8134 61.5548 14.313 61.9088 14.6924C62.2638 15.0721 62.7406 15.2814 63.2513 15.2814H67.7407V14.4508H63.2513C62.6659 14.4508 62.1895 13.9586 62.1895 13.3539C62.1895 13.3303 62.1882 13.3072 62.1895 13.2837V11.783H67.7407V10.9516H61.3843Z" fill="white"/>
            <path d="M59.7043 7.92599L56.7544 11.2338L53.805 7.92599H52.7681L56.3527 11.9449V15.2811H57.1566V11.9449L60.7412 7.92599H59.7043Z" fill="white"/>
            <path d="M27.0146 15.2812H27.8186V7.92606H27.0146V15.2812Z" fill="white"/>
            <path d="M37.8545 8.75662H44.0218V7.92605H37.8545V8.75662Z" fill="white"/>
            <path d="M34.6642 11.7778C35.6335 11.7225 36.432 10.912 36.4662 9.92356C36.4843 9.39514 36.2991 8.89507 35.9441 8.51488C35.5896 8.13514 35.1128 7.92586 34.6017 7.9263H30.1123V8.75642H34.6017C35.1875 8.75642 35.6635 9.24865 35.6635 9.85337C35.6635 10.479 35.2381 10.9503 34.6739 10.9503H30.1123V15.2814H30.9162V11.7809H33.2158C33.6032 11.7809 33.9602 11.9984 34.148 12.3485L35.7209 15.2814H36.543L34.6642 11.7778Z" fill="white"/>
            <path d="M19.0335 8.51512C19.3884 8.13537 19.8649 7.9261 20.3759 7.9261H24.8653V8.75665H20.3759C19.7906 8.75665 19.3141 9.24845 19.3141 9.8536C19.3141 9.87715 19.3158 9.90025 19.3171 9.9238H18.5115C18.4933 9.39494 18.6786 8.89486 19.0335 8.51512Z" fill="white"/>
            <path d="M20.3763 10.9504C19.8652 10.9504 19.3888 11.1597 19.0338 11.5395C18.6793 11.9188 18.4941 12.4184 18.5118 12.9464L18.5093 12.9482V15.2811H19.3128L19.3174 12.9482C19.3162 12.9246 19.3145 12.9015 19.3145 12.878C19.3145 12.2728 19.7909 11.781 20.3763 11.781H24.8657V10.9504H20.3763Z" fill="white"/>
            <path d="M37.8545 10.9516V13.2837L37.857 13.2854C37.8397 13.8134 38.0246 14.313 38.3791 14.6924C38.734 15.0721 39.2109 15.2814 39.7215 15.2814H44.0218V14.4508H39.7215C39.1362 14.4508 38.6597 13.9586 38.6597 13.3539C38.6597 13.3303 38.6584 13.3072 38.6597 13.2837V11.783H44.0218V10.9516H37.8545Z" fill="white"/>
            <path d="M11.3552 7.67992C11.4721 7.70347 11.5827 7.61627 11.5886 7.49332C11.6165 6.91651 11.5848 5.50041 10.6695 5.15075C9.48276 4.69689 7.56934 5.33256 6.10073 6.19669C4.61397 7.07172 2.74528 9.12 2 11.2049C2 11.2049 4.76336 8.73589 7.60141 8.01607C9.73935 7.4737 10.9088 7.58967 11.3552 7.67992Z" fill="white"/>
            <path d="M4.39522 11.2835C4.35682 11.1671 4.2281 11.1121 4.12218 11.168C3.62462 11.4313 2.45353 12.1681 2.61769 13.1617C2.83081 14.4505 4.32052 15.8444 5.77943 16.7264C7.25607 17.6193 9.90759 18.2672 12.0274 17.8909C12.0274 17.8909 8.57655 16.6531 6.55383 14.4741C5.02993 12.8321 4.54293 11.7282 4.39522 11.2835Z" fill="white"/>
            <path d="M10.925 15.7636C10.8469 15.8564 10.8651 15.999 10.9647 16.0657C11.4344 16.3792 12.6371 17.0585 13.3879 16.4145C14.3619 15.58 14.7856 13.5496 14.7953 11.8039C14.8054 10.0364 14.023 7.34027 12.6477 5.63119C12.6477 5.63119 13.3356 9.33797 12.5202 12.2369C11.9058 14.4212 11.2238 15.4091 10.925 15.7636Z" fill="white"/>
            <path d="M69.1391 8.11432H68.7842V7.92597H69.6924V8.11432H69.3374V9.08221H69.1391V8.11432Z" fill="white"/>
            <path d="M69.9009 7.92607H70.1102L70.4508 8.4728L70.7913 7.92607H71.0007V9.08188H70.804V8.25306L70.4508 8.79805H70.4444L70.0942 8.25655V9.08188H69.9009V7.92607Z" fill="white"/>
        </g>
    </g>
    <defs>
        <clipPath id="clip0_2626_176">
            <rect width="69" height="13" fill="white" transform="translate(2 5)"/>
        </clipPath>
    </defs>
</svg>
