<svg width="72" height="24" viewBox="0 0 72 24" fill="none" xmlns="http://www.w3.org/2000/svg">
<g clip-path="url(#clip0_2827_1619)">
<path d="M46.3445 10.5186H45.7386C43.8506 10.5186 42.6304 11.726 42.6304 13.5948C42.6304 15.4636 43.8506 16.6711 45.7386 16.6711H46.3445C48.2325 16.6711 49.4528 15.4636 49.4528 13.5948C49.4528 11.726 48.2325 10.5186 46.3445 10.5186ZM48.1621 13.5948C48.1621 14.7596 47.456 15.453 46.272 15.453H45.8112C44.6314 15.453 43.9296 14.7575 43.9296 13.5948C43.9296 12.4322 44.6314 11.7367 45.8112 11.7367H46.272C47.456 11.7367 48.1621 12.4322 48.1621 13.5948Z" fill="white"/>
<path d="M59.6056 10.5186C59.2045 10.5186 58.957 10.7639 58.957 11.1586V16.0311C58.957 16.4258 59.2045 16.6711 59.6056 16.6711C60.0066 16.6711 60.2477 16.4194 60.2477 16.0311V11.1586C60.2477 10.7703 59.996 10.5186 59.6056 10.5186Z" fill="white"/>
<path d="M27.0996 11.5403C27.3193 11.2181 27.2532 10.8683 26.931 10.6485C26.6004 10.4224 26.2569 10.4864 26.0329 10.8128L23.2681 14.864L20.5012 10.8128C20.2814 10.4907 19.9316 10.4245 19.6116 10.6443C19.2809 10.8704 19.2126 11.2139 19.4366 11.5403C19.4366 11.5403 22.7262 16.3765 22.7774 16.4299C22.9118 16.5984 23.0846 16.6795 23.2681 16.6688C23.4537 16.6773 23.6308 16.5941 23.7652 16.4235C23.81 16.3765 27.0996 11.5424 27.0996 11.5424V11.5403Z" fill="white"/>
<path d="M66.1418 12.9866H63.8677C63.3173 12.9866 63.2341 12.5941 63.2341 12.3616C63.2341 12.0778 63.345 11.7365 63.8677 11.7365H67.1999C67.5647 11.7365 67.8101 11.4912 67.8101 11.1285C67.8101 10.7658 67.5647 10.5205 67.1999 10.5205H63.7973C62.6687 10.5205 61.9391 11.2437 61.9391 12.3637C61.9391 13.4837 62.6687 14.2069 63.7973 14.2069H66.0714C66.6218 14.2069 66.7029 14.5994 66.7029 14.832C66.7029 15.1157 66.5941 15.457 66.0714 15.457H62.5535C62.1866 15.457 61.937 15.7002 61.937 16.065C61.937 16.4298 62.1781 16.6752 62.5535 16.6752H66.1418C67.2703 16.6752 67.9999 15.952 67.9999 14.832C67.9999 13.712 67.2703 12.9909 66.1418 12.9909V12.9866Z" fill="white"/>
<path d="M35.1595 11.1586V16.0311C35.1595 16.4258 35.4091 16.6711 35.8081 16.6711C36.207 16.6711 36.4502 16.4194 36.4502 16.0311V14.5612H38.9569L40.2198 16.413C40.3307 16.5772 40.495 16.6732 40.6678 16.6732C40.6891 16.6732 40.7105 16.6711 40.7297 16.669C41.0667 16.6263 41.2651 16.3554 41.2267 15.9991C41.2182 15.9095 41.1819 15.8178 41.1179 15.7367L40.2049 14.4034C40.8406 14.1303 41.2225 13.4924 41.2225 12.6498C41.2225 12.622 41.2225 12.5922 41.2182 12.5644C41.2182 12.5538 41.2182 12.541 41.2182 12.541C41.2182 12.5282 41.2182 12.5154 41.2182 12.5026C41.2182 12.4748 41.2225 12.4471 41.2225 12.4172C41.2225 11.2631 40.527 10.5186 39.4518 10.5186H35.8038C35.4027 10.5186 35.1553 10.7639 35.1553 11.1586H35.1595ZM36.4502 11.7346H39.279C39.9275 11.7346 40.0001 12.2935 40.0001 12.5303C40.0001 12.7522 39.9339 13.262 39.3835 13.3196H36.4481V11.7324L36.4502 11.7346Z" fill="white"/>
<path d="M33.9113 15.6448C33.9113 15.6448 30.6217 10.8085 30.5726 10.7552C30.4382 10.5888 30.2654 10.5077 30.082 10.5162C29.8964 10.5077 29.7193 10.5909 29.5849 10.7616C29.5401 10.8085 26.2505 15.6426 26.2505 15.6426C26.0308 15.9648 26.0969 16.3146 26.419 16.5344C26.7497 16.7605 27.0932 16.6965 27.3172 16.3701L27.9956 15.376H32.1662L32.8446 16.3722C33.0644 16.6944 33.4142 16.7605 33.7364 16.5408C34.067 16.3146 34.1332 15.9712 33.9113 15.6448ZM28.7358 14.2922L30.082 12.321L31.4281 14.2922H28.738H28.7358Z" fill="white"/>
<path d="M56.7103 16.6711C56.3114 16.6711 56.0725 16.4322 56.0725 16.0332V13.5372C56.0725 12.1996 55.1253 11.7218 54.2378 11.7218H53.7727C52.8853 11.7218 51.9381 12.1996 51.9381 13.5372V16.0332C51.9381 16.4322 51.6991 16.6711 51.3002 16.6711C50.9013 16.6711 50.6538 16.4279 50.6538 16.0332V13.5372C50.6538 11.7026 51.8506 10.5186 53.7023 10.5186H54.3061C56.1578 10.5186 57.3546 11.7047 57.3546 13.5372V16.0332C57.3546 16.4279 57.1071 16.6711 56.7082 16.6711H56.7103Z" fill="white"/>
<path d="M10.9162 6H8.54395L12.8042 12.2507L13.9925 10.5099L10.9162 6Z" fill="#D21A27"/>
<path d="M17.1265 15.1092L13.9905 10.5098L12.8022 12.2484L15.5052 16.2143C15.8422 16.7092 16.3649 16.8074 16.8684 16.4639C17.359 16.1311 17.4593 15.5999 17.1265 15.1092Z" fill="#4A90E2"/>
<path d="M10.963 16.2144C11.3001 16.7094 11.8228 16.8075 12.3262 16.464C12.8148 16.1312 12.9172 15.6 12.5822 15.1094L11.7161 13.8379L10.5278 15.5766L10.9609 16.2123L10.963 16.2144Z" fill="#4A90E2"/>
<path d="M4 6L10.5301 15.5787L11.7184 13.84L6.3744 6H4Z" fill="#D21A27"/>
</g>
<defs>
<clipPath id="clip0_2827_1619">
<rect width="64" height="10.6709" fill="white" transform="translate(4 6)"/>
</clipPath>
</defs>
</svg>
