<svg width="72" height="24" viewBox="0 0 72 24" fill="none" xmlns="http://www.w3.org/2000/svg">
<g clip-path="url(#clip0_2827_1612)">
<path d="M45.3445 10.5186H44.7386C42.8506 10.5186 41.6304 11.726 41.6304 13.5948C41.6304 15.4636 42.8506 16.6711 44.7386 16.6711H45.3445C47.2325 16.6711 48.4528 15.4636 48.4528 13.5948C48.4528 11.726 47.2325 10.5186 45.3445 10.5186ZM47.1621 13.5948C47.1621 14.7596 46.456 15.453 45.272 15.453H44.8112C43.6314 15.453 42.9296 14.7575 42.9296 13.5948C42.9296 12.4322 43.6314 11.7367 44.8112 11.7367H45.272C46.456 11.7367 47.1621 12.4322 47.1621 13.5948Z" fill="#D21A27"/>
<path d="M58.6056 10.5186C58.2045 10.5186 57.957 10.7639 57.957 11.1586V16.0311C57.957 16.4258 58.2045 16.6711 58.6056 16.6711C59.0066 16.6711 59.2477 16.4194 59.2477 16.0311V11.1586C59.2477 10.7703 58.996 10.5186 58.6056 10.5186Z" fill="#D21A27"/>
<path d="M26.0996 11.5403C26.3193 11.2181 26.2532 10.8683 25.931 10.6485C25.6004 10.4224 25.2569 10.4864 25.0329 10.8128L22.2681 14.864L19.5012 10.8128C19.2814 10.4907 18.9316 10.4245 18.6116 10.6443C18.2809 10.8704 18.2126 11.2139 18.4366 11.5403C18.4366 11.5403 21.7262 16.3765 21.7774 16.4299C21.9118 16.5984 22.0846 16.6795 22.2681 16.6688C22.4537 16.6773 22.6308 16.5941 22.7652 16.4235C22.81 16.3765 26.0996 11.5424 26.0996 11.5424V11.5403Z" fill="#D21A27"/>
<path d="M65.1418 12.9866H62.8677C62.3173 12.9866 62.2341 12.5941 62.2341 12.3616C62.2341 12.0778 62.345 11.7365 62.8677 11.7365H66.1999C66.5647 11.7365 66.8101 11.4912 66.8101 11.1285C66.8101 10.7658 66.5647 10.5205 66.1999 10.5205H62.7973C61.6687 10.5205 60.9391 11.2437 60.9391 12.3637C60.9391 13.4837 61.6687 14.2069 62.7973 14.2069H65.0714C65.6218 14.2069 65.7029 14.5994 65.7029 14.832C65.7029 15.1157 65.5941 15.457 65.0714 15.457H61.5535C61.1866 15.457 60.937 15.7002 60.937 16.065C60.937 16.4298 61.1781 16.6752 61.5535 16.6752H65.1418C66.2703 16.6752 66.9999 15.952 66.9999 14.832C66.9999 13.712 66.2703 12.9909 65.1418 12.9909V12.9866Z" fill="#D21A27"/>
<path d="M34.1595 11.1586V16.0311C34.1595 16.4258 34.4091 16.6711 34.8081 16.6711C35.207 16.6711 35.4502 16.4194 35.4502 16.0311V14.5612H37.9569L39.2198 16.413C39.3307 16.5772 39.495 16.6732 39.6678 16.6732C39.6891 16.6732 39.7105 16.6711 39.7297 16.669C40.0667 16.6263 40.2651 16.3554 40.2267 15.9991C40.2182 15.9095 40.1819 15.8178 40.1179 15.7367L39.2049 14.4034C39.8406 14.1303 40.2225 13.4924 40.2225 12.6498C40.2225 12.622 40.2225 12.5922 40.2182 12.5644C40.2182 12.5538 40.2182 12.541 40.2182 12.541C40.2182 12.5282 40.2182 12.5154 40.2182 12.5026C40.2182 12.4748 40.2225 12.4471 40.2225 12.4172C40.2225 11.2631 39.527 10.5186 38.4518 10.5186H34.8038C34.4027 10.5186 34.1553 10.7639 34.1553 11.1586H34.1595ZM35.4502 11.7346H38.279C38.9275 11.7346 39.0001 12.2935 39.0001 12.5303C39.0001 12.7522 38.9339 13.262 38.3835 13.3196H35.4481V11.7324L35.4502 11.7346Z" fill="#D21A27"/>
<path d="M32.9113 15.6448C32.9113 15.6448 29.6217 10.8085 29.5726 10.7552C29.4382 10.5888 29.2654 10.5077 29.082 10.5162C28.8964 10.5077 28.7193 10.5909 28.5849 10.7616C28.5401 10.8085 25.2505 15.6426 25.2505 15.6426C25.0308 15.9648 25.0969 16.3146 25.419 16.5344C25.7497 16.7605 26.0932 16.6965 26.3172 16.3701L26.9956 15.376H31.1662L31.8446 16.3722C32.0644 16.6944 32.4142 16.7605 32.7364 16.5408C33.067 16.3146 33.1332 15.9712 32.9113 15.6448ZM27.7358 14.2922L29.082 12.321L30.4281 14.2922H27.738H27.7358Z" fill="#D21A27"/>
<path d="M55.7103 16.6711C55.3114 16.6711 55.0725 16.4322 55.0725 16.0332V13.5372C55.0725 12.1996 54.1253 11.7218 53.2378 11.7218H52.7727C51.8853 11.7218 50.9381 12.1996 50.9381 13.5372V16.0332C50.9381 16.4322 50.6991 16.6711 50.3002 16.6711C49.9013 16.6711 49.6538 16.4279 49.6538 16.0332V13.5372C49.6538 11.7026 50.8506 10.5186 52.7023 10.5186H53.3061C55.1578 10.5186 56.3546 11.7047 56.3546 13.5372V16.0332C56.3546 16.4279 56.1071 16.6711 55.7082 16.6711H55.7103Z" fill="#D21A27"/>
<path d="M9.91621 6H7.54395L11.8042 12.2507L12.9925 10.5099L9.91621 6Z" fill="#D21A27"/>
<path d="M16.1265 15.1092L12.9905 10.5098L11.8022 12.2484L14.5052 16.2143C14.8422 16.7092 15.3649 16.8074 15.8684 16.4639C16.359 16.1311 16.4593 15.5999 16.1265 15.1092Z" fill="#4A90E2"/>
<path d="M9.96303 16.2144C10.3001 16.7094 10.8228 16.8075 11.3262 16.464C11.8148 16.1312 11.9172 15.6 11.5822 15.1094L10.7161 13.8379L9.52783 15.5766L9.9609 16.2123L9.96303 16.2144Z" fill="#4A90E2"/>
<path d="M3 6L9.53013 15.5787L10.7184 13.84L5.3744 6H3Z" fill="#D21A27"/>
</g>
<defs>
<clipPath id="clip0_2827_1612">
<rect width="64" height="10.6709" fill="white" transform="translate(3 6)"/>
</clipPath>
</defs>
</svg>
