<svg width="72" height="24" viewBox="0 0 72 24" fill="none" xmlns="http://www.w3.org/2000/svg">
    <mask id="mask0_2695_1982" style="mask-type:luminance" maskUnits="userSpaceOnUse" x="4" y="6" width="63" height="11">
        <path d="M67 6H4V17H67V6Z" fill="white"/>
    </mask>
    <g mask="url(#mask0_2695_1982)">
        <path d="M11.8752 6.14246C12.3856 6.14246 12.8086 6.55567 12.8086 7.05437C12.8086 7.55308 12.3856 7.9663 11.8752 7.9663C11.3648 7.9663 10.9419 7.55308 10.9419 7.05437C10.9419 6.55567 11.3502 6.14246 11.8752 6.14246Z" fill="#020202"/>
        <path d="M26.3706 6.44171C26.3706 6.28498 26.5019 6.15674 26.6477 6.15674H30.352C33.3707 6.15674 35.8352 8.55052 35.8352 11.4857C35.8352 14.4495 33.3707 16.8433 30.352 16.8433H26.6477C26.4873 16.8433 26.3706 16.7008 26.3706 16.5583V6.44171ZM30.177 14.9909C32.2041 14.9909 33.6915 13.4948 33.6915 11.4857C33.6915 9.50518 32.2041 8.00907 30.177 8.00907H28.3977V14.9909H30.177Z" fill="#020202"/>
        <path d="M45.3582 6.5557C45.2706 6.35622 45.3873 6.15674 45.6206 6.15674H47.2103C47.356 6.15674 47.4436 6.24223 47.4727 6.32772L50.4769 12.8964H50.5936L53.5977 6.32772C53.6269 6.25648 53.729 6.15674 53.8603 6.15674H55.4498C55.6831 6.15674 55.8144 6.35622 55.7124 6.5557L50.8707 16.829C50.827 16.9145 50.7394 17 50.6081 17H50.4477C50.3019 17 50.229 16.9288 50.1853 16.829L45.3582 6.5557Z" fill="#020202"/>
        <path d="M61.3709 6C64.4918 6 67.0001 8.46502 67.0001 11.5143C67.0001 14.5635 64.4918 17 61.3709 17C58.2502 17 55.7563 14.5777 55.7563 11.5143C55.7563 8.46502 58.2502 6 61.3709 6ZM61.3709 15.0194C63.3397 15.0194 64.973 13.4521 64.973 11.5143C64.973 9.57643 63.3397 7.98057 61.3709 7.98057C59.4022 7.98057 57.7834 9.59067 57.7834 11.5143C57.7834 13.4378 59.4022 15.0194 61.3709 15.0194Z" fill="#020202"/>
        <path d="M43.9145 15.0194H39.6271C39.4375 15.0194 39.2771 14.8627 39.2771 14.6774V12.6826C39.2771 12.4974 39.4375 12.3406 39.6271 12.3406H43.1416C43.302 12.3406 43.4333 12.2124 43.4333 12.0557V10.7875C43.4333 10.6308 43.2875 10.5026 43.1416 10.5026H37.5854C37.3957 10.5026 37.2354 10.6593 37.2354 10.8445V16.5868C37.2354 16.7435 37.3667 16.8717 37.527 16.8717H43.8854C44.0604 16.8717 44.1771 16.7293 44.1771 16.5868V15.3329C44.2208 15.1476 44.0895 15.0194 43.9145 15.0194Z" fill="#020202"/>
        <path d="M43.9145 6.15674H37.5562C37.3813 6.15674 37.2646 6.29923 37.2646 6.44171V7.6956C37.2646 7.85234 37.3958 7.98057 37.5562 7.98057H43.9145C44.0895 7.98057 44.2062 7.83809 44.2062 7.6956V6.44171C44.2208 6.28498 44.0895 6.15674 43.9145 6.15674Z" fill="#020202"/>
        <path d="M14.9665 6.14246H19.677C20.1873 6.14246 20.6103 6.55567 20.6103 7.05437C20.6103 7.55308 20.1873 7.9663 19.677 7.9663H14.9665C14.4561 7.9663 14.0332 7.55308 14.0332 7.05437C14.0332 6.55567 14.4561 6.14246 14.9665 6.14246Z" fill="#D6E80F"/>
        <path d="M10.3 13.9081H22.1272C22.6376 13.9081 23.0604 13.4949 23.0604 12.9961C23.0604 12.4975 22.6376 12.0842 22.1272 12.0842H10.3C9.78962 12.0842 9.3667 12.4975 9.3667 12.9961C9.3667 13.4949 9.77503 13.9081 10.3 13.9081Z" fill="#D6E80F"/>
        <path d="M19.6188 10.9443H22.1271C22.6376 10.9443 23.0604 10.5311 23.0604 10.0324C23.0604 9.53371 22.6376 9.12048 22.1271 9.12048H19.6188C19.1083 9.12048 18.6854 9.53371 18.6854 10.0324C18.6708 10.5311 19.0938 10.9443 19.6188 10.9443Z" fill="#D6E80F"/>
        <path d="M19.6188 16.8717C20.1291 16.8717 20.5521 16.4585 20.5521 15.9598C20.5521 15.4611 20.1291 15.0479 19.6188 15.0479C19.1083 15.0479 18.6854 15.4611 18.6854 15.9598C18.6708 16.4585 19.0938 16.8717 19.6188 16.8717Z" fill="#D6E80F"/>
        <path d="M4.93333 10.9443H16.5854C17.0958 10.9443 17.5187 10.5311 17.5187 10.0324C17.5187 9.53371 17.0958 9.12048 16.5854 9.12048H4.93333C4.42292 9.12048 4 9.53371 4 10.0324C4 10.5311 4.42292 10.9443 4.93333 10.9443Z" fill="#020202"/>
        <path d="M13.9752 16.8717H16.6002C17.1106 16.8717 17.5335 16.4585 17.5335 15.9598C17.5335 15.4611 17.1106 15.0479 16.6002 15.0479H13.9752C13.4648 15.0479 13.0419 15.4611 13.0419 15.9598C13.0273 16.4585 13.4502 16.8717 13.9752 16.8717Z" fill="#020202"/>
        <path d="M7.50023 12.0842C8.01064 12.0842 8.43356 12.4975 8.43356 12.9961C8.43356 13.4949 8.01064 13.9081 7.50023 13.9081C6.9898 13.9081 6.56689 13.4949 6.56689 12.9961C6.56689 12.4832 6.97522 12.0842 7.50023 12.0842Z" fill="#020202"/>
    </g>
</svg>
