<svg width="72" height="24" viewBox="0 0 72 24" fill="none" xmlns="http://www.w3.org/2000/svg">
    <g clip-path="url(#clip0_2530_1368)">
        <path d="M36.6039 1.01141C38.4635 0.94683 40.3353 1.22902 42.0893 1.85692C44.7279 2.7914 47.0862 4.50392 48.8117 6.72222C49.5708 7.69542 50.2066 8.76515 50.7049 9.89693C50.7932 10.0853 50.8613 10.2969 50.814 10.5068C50.756 10.8591 50.45 11.1503 50.0979 11.1855C49.7323 11.2394 49.3545 11.0093 49.2241 10.6617C48.2332 8.30937 46.5422 6.26608 44.4328 4.85169C43.1287 3.97255 41.6662 3.33237 40.1383 2.97396C38.168 2.509 36.0935 2.509 34.1227 2.97255C31.3089 3.62626 28.7324 5.25458 26.9153 7.51716C26.1448 8.47047 25.5086 9.53317 25.029 10.6638C24.9252 10.9265 24.6868 11.1324 24.4085 11.1785C24.1402 11.2308 23.8481 11.1373 23.661 10.9357C23.4404 10.7127 23.3683 10.3564 23.482 10.0638C24.8019 6.91549 27.2459 4.27074 30.2508 2.6965C32.2079 1.66308 34.3972 1.08664 36.6039 1.01141Z" fill="#F49813"/>
        <path d="M34.1467 10.705C34.1356 10.5414 34.2889 10.4191 34.4409 10.4152C34.6383 10.4099 34.8363 10.4115 35.0342 10.4144C35.1717 10.4191 35.3321 10.5115 35.3316 10.6673C35.3386 12.4967 35.3273 14.3266 35.3377 16.157C36.0724 15.3328 36.8134 14.5131 37.5507 13.6913C37.6959 13.5469 37.8107 13.328 38.0366 13.3092C38.3409 13.2965 38.646 13.304 38.9506 13.3044C39.068 13.2938 39.1991 13.4024 39.1578 13.5288C39.1097 13.6264 39.0213 13.6934 38.9492 13.7709C38.152 14.5746 37.3516 15.3754 36.5584 16.1826C37.3246 17.065 38.0802 17.9564 38.843 18.8421C38.9411 18.9681 39.064 19.0751 39.1462 19.2141C39.2066 19.3227 39.1066 19.4548 38.9912 19.46C38.7379 19.4743 38.4841 19.46 38.2302 19.4661C38.0981 19.463 37.9553 19.4825 37.8355 19.4139C37.7091 19.3407 37.6324 19.21 37.5419 19.0999C36.8062 18.1653 36.0754 17.2269 35.337 16.2939C35.3295 17.214 35.3348 18.1337 35.3342 19.0532C35.3314 19.1593 35.3529 19.2872 35.2613 19.3647C35.1154 19.5067 34.8983 19.4569 34.7163 19.4661C34.5548 19.4606 34.3659 19.4962 34.2347 19.3759C34.1616 19.3186 34.1424 19.2206 34.1453 19.1335C34.1473 16.3236 34.1445 13.5141 34.1467 10.705Z" fill="#5F90D1"/>
        <path d="M30.7954 13.289C31.1643 13.1693 31.5801 13.1465 31.9414 13.3043C32.0682 13.3644 32.2155 13.4925 32.1582 13.6503C32.1003 13.8484 32.0509 14.0488 31.9819 14.2435C31.9309 14.3832 31.7702 14.4351 31.6349 14.4078C31.3306 14.3552 31.0318 14.2538 30.7198 14.264C30.5021 14.2589 30.3012 14.3767 30.1523 14.5294C29.912 14.7665 29.7877 15.098 29.7318 15.4269C29.6875 15.6646 29.7002 15.9075 29.6982 16.1476C29.6982 17.1569 29.6985 18.1668 29.6979 19.176C29.7121 19.342 29.5419 19.4547 29.3934 19.4605C29.1895 19.4633 28.986 19.466 28.7822 19.4588C28.635 19.451 28.4692 19.3426 28.4883 19.1754C28.4875 17.3065 28.4863 15.4382 28.4887 13.5693C28.4762 13.3834 28.6803 13.2824 28.8404 13.2998C29.0412 13.3131 29.3154 13.2369 29.4461 13.4408C29.5452 13.6773 29.5923 13.9327 29.6854 14.1712C29.9654 13.7835 30.3368 13.4416 30.7954 13.289Z" fill="#5F90D1"/>
        <path d="M10 13.4317C10.0567 13.3661 10.1229 13.2952 10.2173 13.3019C10.494 13.2993 10.7715 13.2931 11.0479 13.306C11.1883 13.3101 11.285 13.4346 11.3055 13.5663C11.5775 14.6821 11.8446 15.7996 12.1153 16.9158C12.1948 17.2605 12.2915 17.6017 12.3432 17.9523C12.3967 18.2673 12.4072 18.5869 12.458 18.9025C12.5279 18.4521 12.5905 17.9988 12.7109 17.5588C13.065 16.2266 13.4188 14.8946 13.7732 13.5628C13.8009 13.4109 13.9425 13.303 14.093 13.303C14.4009 13.2952 14.7095 13.3005 15.0174 13.3005C15.1825 13.2927 15.3593 13.3901 15.3991 13.5608C15.6635 14.5319 15.9248 15.5049 16.1882 16.4768C16.3481 17.1064 16.5575 17.7252 16.6479 18.3712C16.6728 18.549 16.6972 18.7273 16.7336 18.904C16.8329 17.8892 17.0917 16.9018 17.3046 15.9082C17.4803 15.1176 17.6521 14.3262 17.8298 13.5355C17.8561 13.3767 18.0226 13.2968 18.1693 13.3013C18.4183 13.2999 18.6678 13.2927 18.9164 13.3054C19.0641 13.3097 19.1489 13.4745 19.0969 13.6073C18.5973 15.4674 18.0994 17.3287 17.5995 19.1888C17.5727 19.338 17.4439 19.4544 17.293 19.4568C16.9071 19.4696 16.5203 19.4599 16.1344 19.462C15.9961 19.4706 15.8498 19.3958 15.8254 19.2488C15.4799 17.9697 15.1413 16.6883 14.799 15.4082C14.6751 14.9628 14.625 14.5012 14.573 14.0431C14.5094 14.451 14.4779 14.8655 14.3702 15.2662C14.0198 16.5842 13.6674 17.9029 13.3162 19.2212C13.2766 19.4347 13.0347 19.4773 12.8547 19.4634C12.4958 19.4568 12.1369 19.4718 11.7784 19.4568C11.6506 19.4573 11.5521 19.3568 11.5291 19.2351C11.0254 17.3824 10.5232 15.5288 10.0191 13.6766C10.0016 13.5956 10.0039 13.513 10 13.4317Z" fill="#5F90D1"/>
        <path d="M55.2635 13.3054C55.5256 13.3009 55.7886 13.2999 56.0507 13.3054C56.2101 13.3077 56.36 13.4177 56.4102 13.5714C56.8627 14.7645 57.3121 15.9598 57.764 17.1535C57.8584 17.3957 57.9245 17.6484 57.9668 17.905C58.1536 17.1969 58.4024 16.508 58.6208 15.8092C58.8639 15.0536 59.1073 14.2979 59.3514 13.5421C59.3876 13.4106 59.5119 13.3208 59.6439 13.3097C59.8578 13.2937 60.0731 13.3077 60.2874 13.3019C60.4128 13.3034 60.5621 13.2886 60.6575 13.3901C60.7195 13.4429 60.7063 13.5308 60.6805 13.5995C59.9574 15.6805 59.2363 17.7625 58.5142 19.8442C58.3886 20.1909 58.2921 20.5538 58.0901 20.8657C57.8002 21.3407 57.3303 21.6827 56.814 21.8678C56.6336 21.9241 56.4474 22.0491 56.2534 21.9791C56.1157 21.9436 56.0628 21.7991 55.9893 21.693C55.9365 21.5967 55.839 21.5075 55.8593 21.3876C55.8689 21.2688 55.9633 21.1721 56.0746 21.1403C56.2924 21.0645 56.5138 20.9809 56.6901 20.8257C57.1187 20.46 57.3838 19.919 57.4847 19.3683C57.4163 19.1238 57.2897 18.899 57.1979 18.6624C56.5083 17.0455 55.8187 15.4281 55.1275 13.8118C55.0858 13.706 55.0244 13.6052 55.0127 13.4905C55.0143 13.3645 55.1575 13.3091 55.2635 13.3054Z" fill="#5F90D1"/>
        <path d="M23.1105 14.0875C22.7344 14.158 22.3913 14.3942 22.2003 14.7307C21.8812 15.2764 21.8445 15.9349 21.8589 16.5537C21.8816 17.114 21.9708 17.7115 22.3251 18.1644C22.5893 18.505 23.0236 18.6761 23.4457 18.6696C23.8517 18.6827 24.2771 18.5439 24.5523 18.2325C24.9039 17.8445 25.0168 17.3062 25.0652 16.7986C25.0865 16.3 25.0965 15.7924 24.9683 15.3055C24.8664 14.8942 24.651 14.483 24.2785 14.2614C23.9318 14.0469 23.5034 14.0268 23.1105 14.0875ZM23.2694 13.2001C23.9501 13.1579 24.6632 13.3005 25.225 13.7073C25.7276 14.068 26.0689 14.6238 26.2283 15.2197C26.4178 15.9311 26.417 16.6904 26.2451 17.4056C26.0833 18.0648 25.7046 18.6864 25.1335 19.061C24.523 19.4696 23.7563 19.5757 23.0399 19.4886C22.4295 19.4128 21.8347 19.1427 21.4098 18.689C20.9103 18.1611 20.6623 17.4339 20.6107 16.715C20.5479 15.9178 20.669 15.074 21.1085 14.3932C21.4337 13.8809 21.9507 13.5045 22.5273 13.3327C22.7678 13.2569 23.0187 13.2216 23.2694 13.2001Z" fill="#5F90D1"/>
        <path d="M43.3467 14.0551C42.9736 14.0792 42.6134 14.2959 42.4469 14.6395C42.1214 15.275 42.1148 16.0145 42.131 16.7133C42.157 17.1699 42.2061 17.6412 42.417 18.0535C42.5596 18.3312 42.8186 18.5505 43.1249 18.6177C43.5935 18.7314 44.145 18.6351 44.4781 18.2615C44.7991 17.8929 44.9047 17.3916 44.954 16.9172C44.9879 16.3764 44.99 15.8246 44.8569 15.2952C44.7655 14.9413 44.6108 14.5878 44.3329 14.3419C44.0664 14.1053 43.6951 14.014 43.3467 14.0551ZM44.9524 10.6266C44.9439 10.4832 45.0891 10.3916 45.2154 10.3806C45.4176 10.3695 45.6203 10.3748 45.8228 10.377C45.9772 10.3756 46.1498 10.4914 46.1275 10.6644C46.1275 13.487 46.1281 16.3092 46.1271 19.1314C46.1377 19.2771 45.9954 19.3902 45.862 19.3991C45.7009 19.4077 45.5394 19.4077 45.379 19.3964C45.2658 19.3892 45.1562 19.3161 45.1176 19.2068C45.057 19.0234 45.0255 18.8329 44.9794 18.6464C44.756 18.9521 44.4679 19.2226 44.1101 19.3568C43.5996 19.5464 43.0314 19.5495 42.5068 19.4204C41.9797 19.2925 41.5206 18.9271 41.2663 18.4462C40.8672 17.7119 40.8198 16.8482 40.8448 16.0291C40.859 15.3293 40.9915 14.5909 41.4434 14.0356C41.7843 13.5649 42.3429 13.2947 42.907 13.2241C43.432 13.1466 44.0014 13.2357 44.4361 13.5567C44.6416 13.7026 44.8061 13.8983 44.953 14.1028C44.9489 12.9444 44.95 11.7855 44.9524 10.6266Z" fill="#5F90D1"/>
        <path d="M50.6033 14.0903C50.4161 14.1288 50.2346 14.2046 50.0833 14.3228C49.7807 14.5605 49.6304 14.9383 49.5501 15.3051C49.4333 15.8871 49.4349 16.4881 49.4953 17.0766C49.5518 17.509 49.6594 17.9705 49.9737 18.2902C50.2296 18.5613 50.6156 18.6607 50.9767 18.6429C51.3651 18.657 51.7693 18.5111 52.0198 18.2033C52.333 17.8211 52.4213 17.3127 52.467 16.8338C52.4961 16.2707 52.4964 15.694 52.3397 15.1473C52.2406 14.8067 52.0593 14.4679 51.7536 14.2739C51.4169 14.0509 50.9909 14.0304 50.6033 14.0903ZM50.0833 13.3173C50.6223 13.1667 51.1991 13.1578 51.7435 13.2835C52.2493 13.4017 52.723 13.6882 53.0338 14.1124C53.3624 14.5472 53.5283 15.0864 53.5974 15.6237C53.6573 16.038 53.6401 16.4577 53.6407 16.8752C53.6407 17.6285 53.6407 18.382 53.6386 19.1351C53.6468 19.2269 53.5893 19.3082 53.5151 19.356C53.3898 19.4339 53.2344 19.3994 53.0947 19.4083C52.9379 19.407 52.7317 19.421 52.6464 19.2564C52.5631 19.063 52.5458 18.8472 52.4924 18.6437C52.2822 18.9015 52.0644 19.1675 51.7601 19.3164C51.2966 19.5476 50.7547 19.5341 50.2586 19.4363C49.6517 19.3154 49.0927 18.9533 48.7494 18.4316C48.3405 17.824 48.1922 17.074 48.1979 16.3491C48.1929 15.6425 48.3299 14.912 48.7194 14.3142C49.0307 13.8255 49.5304 13.4716 50.0833 13.3173Z" fill="#5F90D1"/>
        <path d="M60.9381 17.9455C60.6299 18.0596 60.436 18.4183 60.5146 18.742C60.5948 19.1222 61.0331 19.3816 61.3988 19.241C61.736 19.1371 61.9487 18.7492 61.844 18.4072C61.7522 18.0224 61.2996 17.7949 60.9381 17.9455ZM60.9808 17.783C61.1636 17.7539 61.3622 17.7518 61.5318 17.8373C61.8207 17.9697 62.0283 18.2826 61.997 18.608C62.021 18.9962 61.6974 19.3431 61.3281 19.4056C60.9123 19.4947 60.4648 19.1908 60.3801 18.7724C60.2708 18.3513 60.5609 17.8773 60.9808 17.783Z" fill="#5F90D1"/>
        <path d="M61.0667 18.256C61.066 18.3441 61.0656 18.4323 61.0667 18.521C61.1433 18.5163 61.222 18.521 61.2976 18.4999C61.3687 18.4702 61.3616 18.379 61.3423 18.3179C61.2688 18.2454 61.1595 18.2642 61.0667 18.256ZM60.8355 18.1126C61.0565 18.1253 61.3043 18.0624 61.5034 18.1868C61.6638 18.3083 61.586 18.5726 61.4049 18.629C61.4571 18.7683 61.5298 18.8978 61.5962 19.0306C61.5125 19.0323 61.4302 19.0337 61.348 19.0351C61.2885 18.9122 61.2302 18.7878 61.1733 18.6638C61.1371 18.6628 61.1016 18.6624 61.0667 18.6618C61.066 18.7858 61.066 18.9097 61.066 19.0337C60.9878 19.0327 60.9113 19.0317 60.8345 19.031C60.8351 18.7247 60.8341 18.4183 60.8355 18.1126Z" fill="#5F90D1"/>
    </g>
    <defs>
        <clipPath id="clip0_2530_1368">
            <rect width="52" height="21" fill="white" transform="translate(10 1)"/>
        </clipPath>
    </defs>
</svg>
