<svg width="72" height="24" viewBox="0 0 72 24" fill="none" xmlns="http://www.w3.org/2000/svg">
    <g clip-path="url(#clip0_2529_856)">
        <path d="M33.6519 4.18212C34.555 3.22201 35.8122 2.62653 37.2026 2.62653C39.0509 2.62653 40.6635 3.67821 41.5223 5.23946C42.2685 4.89923 43.0946 4.70996 43.9637 4.70996C47.2973 4.70996 50 7.49183 50 10.9232C50 14.355 47.2973 17.1369 43.9637 17.1369C43.5644 17.1371 43.1661 17.0966 42.7747 17.016C42.0184 18.3925 40.5773 19.3225 38.9233 19.3225C38.2308 19.3225 37.5759 19.1593 36.9928 18.8691C36.2262 20.7091 34.4401 21.9993 32.3584 21.9993C30.1906 21.9993 28.3431 20.5996 27.6339 18.6367C27.324 18.7038 27.0029 18.7388 26.6734 18.7388C24.0924 18.7389 22 16.5818 22 13.9204C22 12.1369 22.9401 10.5797 24.3369 9.7466C24.0494 9.07141 23.8894 8.32617 23.8894 7.54268C23.8894 4.48204 26.3244 2.00099 29.3279 2.00099C31.0912 2.00099 32.6584 2.8565 33.6519 4.18212Z" fill="#00A1E0"/>
        <path d="M26.0556 12.3715C26.0381 12.4183 26.062 12.4281 26.0676 12.4362C26.1202 12.4753 26.1737 12.5034 26.2276 12.5347C26.5131 12.6893 26.7828 12.7345 27.0648 12.7345C27.6391 12.7345 27.9957 12.4228 27.9957 11.9209V11.9112C27.9957 11.4472 27.5933 11.2787 27.2156 11.157L27.1665 11.1407C26.8817 11.0463 26.636 10.9649 26.636 10.7736V10.7634C26.636 10.5998 26.7796 10.4793 27.0022 10.4793C27.2495 10.4793 27.543 10.5632 27.7321 10.6698C27.7321 10.6698 27.7875 10.7064 27.8079 10.6515C27.819 10.6222 27.9148 10.3593 27.9247 10.3308C27.9355 10.2998 27.9164 10.277 27.8968 10.2648C27.681 10.1309 27.3827 10.0394 27.074 10.0394L27.0166 10.0398C26.4909 10.0398 26.1239 10.3637 26.1239 10.8281V10.8379C26.1239 11.3275 26.5288 11.4862 26.9081 11.5969L26.9691 11.6161C27.2455 11.7028 27.4836 11.7772 27.4836 11.9759V11.9856C27.4836 12.1672 27.3289 12.3023 27.0792 12.3023C26.9823 12.3023 26.6732 12.3002 26.3393 12.0849C26.299 12.0609 26.2755 12.0434 26.2444 12.0243C26.228 12.0137 26.187 11.9954 26.169 12.0507L26.0556 12.3715ZM34.464 12.3715C34.4464 12.4183 34.4704 12.4281 34.476 12.4362C34.5286 12.4753 34.5821 12.5034 34.6359 12.5347C34.9215 12.6893 35.1912 12.7345 35.4731 12.7345C36.0475 12.7345 36.4041 12.4228 36.4041 11.9209V11.9112C36.4041 11.4472 36.0016 11.2787 35.6239 11.157L35.5748 11.1407C35.29 11.0463 35.0443 10.9649 35.0443 10.7736V10.7634C35.0443 10.5998 35.1879 10.4793 35.4105 10.4793C35.6578 10.4793 35.9513 10.5632 36.1404 10.6698C36.1404 10.6698 36.1958 10.7064 36.2162 10.6515C36.2273 10.6222 36.3231 10.3593 36.333 10.3308C36.3438 10.2998 36.3247 10.277 36.3051 10.2648C36.0893 10.1309 35.791 10.0394 35.4823 10.0394L35.4248 10.0398C34.8991 10.0398 34.5322 10.3637 34.5322 10.8281V10.8379C34.5322 11.3275 34.937 11.4862 35.3164 11.5969L35.3774 11.6161C35.6538 11.7028 35.8923 11.7772 35.8923 11.9759V11.9856C35.8923 12.1672 35.7372 12.3023 35.4875 12.3023C35.3906 12.3023 35.0815 12.3002 34.7476 12.0849C34.7073 12.0609 34.6834 12.0442 34.6531 12.0243C34.6427 12.0174 34.594 11.9982 34.5773 12.0507L34.464 12.3715ZM40.2042 11.3885C40.2042 11.6722 40.1523 11.8956 40.0502 12.0535C39.9493 12.2098 39.7965 12.2859 39.5836 12.2859C39.3702 12.2859 39.2182 12.2102 39.1189 12.0535C39.0184 11.896 38.9673 11.6722 38.9673 11.3885C38.9673 11.1052 39.0184 10.8822 39.1189 10.7259C39.2182 10.5713 39.3702 10.496 39.5836 10.496C39.7966 10.496 39.9493 10.5713 40.0506 10.7259C40.1523 10.8822 40.2042 11.1052 40.2042 11.3885ZM40.6836 10.8627C40.6365 10.7002 40.5631 10.557 40.4654 10.4378C40.3677 10.3181 40.2441 10.222 40.0973 10.152C39.9509 10.0825 39.7778 10.047 39.5836 10.047C39.3889 10.047 39.2158 10.0825 39.0694 10.152C38.9226 10.222 38.799 10.3181 38.7009 10.4378C38.6036 10.5574 38.5302 10.7007 38.4827 10.8627C38.436 11.0242 38.4125 11.2009 38.4125 11.3885C38.4125 11.5761 38.436 11.7532 38.4827 11.9143C38.5302 12.0763 38.6032 12.2196 38.7013 12.3393C38.799 12.4589 38.9231 12.5546 39.0694 12.6225C39.2162 12.6905 39.3889 12.7251 39.5836 12.7251C39.7778 12.7251 39.9505 12.6905 40.0973 12.6225C40.2437 12.5546 40.3677 12.4589 40.4655 12.3393C40.5632 12.22 40.6365 12.0767 40.6836 11.9143C40.7307 11.7528 40.7542 11.5757 40.7542 11.3885C40.7542 11.2013 40.7307 11.0242 40.6836 10.8627ZM44.6206 12.2102C44.6047 12.1626 44.5596 12.1805 44.5596 12.1805C44.4898 12.2078 44.4156 12.233 44.3366 12.2456C44.2565 12.2582 44.1683 12.2647 44.0738 12.2647C43.8417 12.2647 43.6574 12.1943 43.5254 12.0551C43.3929 11.9159 43.3187 11.6909 43.3195 11.3864C43.3203 11.1093 43.3857 10.9008 43.5034 10.7421C43.6203 10.5842 43.7982 10.5032 44.0355 10.5032C44.2334 10.5032 44.3841 10.5264 44.542 10.5773C44.542 10.5773 44.5799 10.594 44.5979 10.5435C44.6397 10.4247 44.6708 10.3396 44.7155 10.209C44.7283 10.1719 44.6972 10.156 44.686 10.1516C44.6238 10.1267 44.477 10.0865 44.3661 10.0694C44.2624 10.0531 44.1412 10.0445 44.0064 10.0445C43.8049 10.0445 43.6254 10.0795 43.4719 10.1495C43.3187 10.2191 43.1887 10.3152 43.0858 10.4349C42.9829 10.5545 42.9047 10.6978 42.8525 10.8597C42.8006 11.0213 42.7743 11.1988 42.7743 11.3864C42.7743 11.7922 42.8816 12.1202 43.0934 12.3604C43.3056 12.6013 43.6243 12.7238 44.0399 12.7238C44.2856 12.7238 44.5377 12.673 44.7188 12.6001C44.7188 12.6001 44.7535 12.583 44.7383 12.5419L44.6206 12.2102ZM45.4595 11.1167C45.4822 10.9592 45.5249 10.8282 45.5907 10.726C45.69 10.571 45.8416 10.4859 46.0546 10.4859C46.2676 10.4859 46.4084 10.5714 46.5093 10.726C46.5763 10.8282 46.6054 10.965 46.617 11.1167H45.4595ZM47.0737 10.7704C47.033 10.6137 46.9321 10.4553 46.8659 10.3829C46.7613 10.2681 46.6593 10.188 46.5579 10.1432C46.4255 10.0854 46.2668 10.0471 46.0929 10.0471C45.8903 10.0471 45.7064 10.0817 45.5572 10.1534C45.4076 10.225 45.282 10.3227 45.1835 10.4444C45.0849 10.5657 45.0108 10.7101 44.9637 10.8742C44.9162 11.0374 44.8923 11.2152 44.8923 11.4028C44.8923 11.5937 44.917 11.7716 44.9661 11.9315C45.0156 12.0927 45.0945 12.2347 45.2014 12.3524C45.3079 12.4708 45.4451 12.5636 45.6095 12.6283C45.7726 12.6926 45.9708 12.726 46.1986 12.7256C46.6673 12.7239 46.9141 12.6173 47.0158 12.5599C47.0338 12.5497 47.051 12.5318 47.0294 12.4806L46.9233 12.1773C46.9074 12.1322 46.8623 12.1488 46.8623 12.1488C46.7462 12.1928 46.5811 12.2718 46.1962 12.271C45.9445 12.2706 45.7578 12.1949 45.6409 12.0764C45.5209 11.9551 45.4622 11.7768 45.4519 11.5253L47.0748 11.527C47.0748 11.527 47.1175 11.5262 47.1219 11.4838C47.1235 11.466 47.1778 11.1436 47.0737 10.7704ZM32.4619 11.1167C32.485 10.9592 32.5273 10.8282 32.5931 10.726C32.6924 10.571 32.844 10.4859 33.057 10.4859C33.27 10.4859 33.4108 10.5714 33.5121 10.726C33.5787 10.8282 33.6078 10.965 33.6194 11.1167H32.4619ZM34.0757 10.7704C34.035 10.6137 33.9345 10.4553 33.8683 10.3829C33.7638 10.2681 33.6617 10.188 33.5604 10.1432C33.4279 10.0854 33.2692 10.0471 33.0953 10.0471C32.8931 10.0471 32.7088 10.0817 32.5596 10.1534C32.4101 10.225 32.2844 10.3227 32.1859 10.4444C32.0874 10.5657 32.0132 10.7101 31.9661 10.8742C31.9191 11.0374 31.8947 11.2152 31.8947 11.4028C31.8947 11.5937 31.9195 11.7716 31.9685 11.9315C32.018 12.0927 32.097 12.2347 32.2039 12.3524C32.3104 12.4708 32.4476 12.5636 32.6119 12.6283C32.7751 12.6926 32.9733 12.726 33.201 12.7256C33.6697 12.7239 33.9166 12.6173 34.0183 12.5599C34.0363 12.5497 34.0534 12.5318 34.0319 12.4806L33.9262 12.1773C33.9098 12.1322 33.8648 12.1488 33.8648 12.1488C33.7487 12.1928 33.5839 12.2718 33.1982 12.271C32.947 12.2706 32.7603 12.1949 32.6434 12.0764C32.5234 11.9551 32.4648 11.7768 32.4544 11.5253L34.0773 11.527C34.0773 11.527 34.12 11.5262 34.1244 11.4838C34.1259 11.466 34.1802 11.1436 34.0757 10.7704ZM28.9539 12.2011C28.8905 12.1494 28.8817 12.1364 28.8602 12.103C28.8282 12.0521 28.8119 11.9797 28.8119 11.8877C28.8119 11.742 28.8589 11.6374 28.9567 11.567C28.9555 11.5674 29.0963 11.4429 29.4273 11.4473C29.6598 11.4506 29.8676 11.4856 29.8676 11.4856V12.2386H29.868C29.868 12.2386 29.6618 12.2837 29.4297 12.298C29.0995 12.3183 28.9527 12.2007 28.9539 12.2011ZM29.5996 11.0375C29.5338 11.0326 29.4484 11.0297 29.3463 11.0297C29.2071 11.0297 29.0727 11.0476 28.9467 11.0823C28.8198 11.1168 28.7058 11.171 28.6076 11.2426C28.5097 11.3139 28.4291 11.4074 28.3723 11.5157C28.3149 11.6248 28.2858 11.7534 28.2858 11.8975C28.2858 12.044 28.3105 12.1714 28.36 12.2756C28.4094 12.3802 28.4808 12.4673 28.5717 12.5344C28.6619 12.6016 28.7732 12.6508 28.9024 12.6805C29.0296 12.7103 29.174 12.7253 29.332 12.7253C29.4983 12.7253 29.6642 12.7115 29.825 12.6834C29.9841 12.6557 30.1795 12.6154 30.2338 12.6028C30.2718 12.5935 30.3097 12.5835 30.3475 12.5731C30.3878 12.5629 30.3846 12.5189 30.3846 12.5189L30.3838 11.0045C30.3838 10.6724 30.2968 10.4261 30.1257 10.2735C29.9554 10.1213 29.7045 10.0444 29.3802 10.0444C29.2586 10.0444 29.0627 10.0615 28.9455 10.0855C28.9455 10.0855 28.5909 10.1555 28.4449 10.2719C28.4449 10.2719 28.413 10.2923 28.4305 10.3379L28.5454 10.6529C28.5598 10.6936 28.5985 10.6797 28.5985 10.6797C28.5985 10.6797 28.6108 10.6748 28.6252 10.6663C28.9375 10.4929 29.3324 10.4982 29.3324 10.4982C29.5079 10.4982 29.6427 10.534 29.7336 10.6052C29.8222 10.6744 29.8673 10.779 29.8673 10.9996V11.0696C29.7276 11.0493 29.5996 11.0375 29.5996 11.0375ZM42.6895 10.1842C42.7019 10.1467 42.676 10.1288 42.6652 10.1248C42.6377 10.1138 42.4997 10.0841 42.3932 10.0771C42.1894 10.0645 42.0761 10.0995 41.9747 10.1459C41.8742 10.1923 41.7626 10.2672 41.7003 10.3523V10.1508C41.7003 10.1227 41.6808 10.1003 41.6537 10.1003H41.2376C41.2105 10.1003 41.191 10.1227 41.191 10.1508V12.6209C41.191 12.6486 41.2133 12.6714 41.2404 12.6714H41.6668C41.6799 12.6713 41.6924 12.6659 41.7016 12.6565C41.7108 12.647 41.7159 12.6342 41.7159 12.6209V11.3869C41.7159 11.2212 41.7338 11.056 41.7698 10.9522C41.8048 10.8496 41.8527 10.7674 41.9117 10.7084C41.9712 10.6498 42.0386 10.6087 42.1124 10.5855C42.1877 10.5619 42.2711 10.5542 42.3301 10.5542C42.4151 10.5542 42.5084 10.5765 42.5084 10.5765C42.5395 10.5802 42.5571 10.5606 42.5674 10.5318C42.5954 10.4561 42.6744 10.2293 42.6895 10.1842Z" fill="white"/>
        <path d="M38.6872 9.03939C38.6353 9.02311 38.5883 9.0121 38.5268 9.00032C38.4646 8.98894 38.3904 8.98322 38.3063 8.98322C38.0127 8.98322 37.7813 9.06787 37.619 9.23472C37.4575 9.4008 37.3478 9.65354 37.2927 9.98608L37.2728 10.098H36.9043C36.9043 10.098 36.8596 10.0964 36.85 10.146L36.7898 10.4908C36.7854 10.5233 36.7994 10.5441 36.8424 10.5441H37.201L36.8372 12.6165C36.8089 12.7834 36.7762 12.9206 36.7399 13.0247C36.7044 13.1273 36.6697 13.2042 36.6266 13.2604C36.5852 13.3141 36.5461 13.354 36.4782 13.3772C36.4224 13.3963 36.3578 13.4053 36.2872 13.4053C36.2481 13.4053 36.1959 13.3987 36.1572 13.3906C36.1189 13.3828 36.0985 13.3743 36.0694 13.3617C36.0694 13.3617 36.0275 13.3454 36.0108 13.3882C35.9976 13.4236 35.9019 13.6918 35.8903 13.7248C35.8792 13.7577 35.8951 13.7834 35.9154 13.7911C35.9633 13.8082 35.9988 13.8196 36.0638 13.8354C36.154 13.857 36.2301 13.8582 36.3015 13.8582C36.4507 13.8582 36.5871 13.8367 36.7 13.7952C36.8133 13.7532 36.9122 13.6804 36.9999 13.5819C37.0945 13.4753 37.1539 13.3637 37.2105 13.2111C37.2668 13.0605 37.3151 12.8733 37.3533 12.6552L37.7191 10.5441H38.2536C38.2536 10.5441 38.2986 10.5457 38.3078 10.4956L38.3684 10.1513C38.3724 10.1184 38.3589 10.098 38.3154 10.098H37.7964C37.7992 10.0862 37.8228 9.89979 37.8822 9.72441C37.9077 9.64994 37.9556 9.58928 37.9959 9.54775C38.0358 9.50705 38.0817 9.47817 38.1319 9.46146C38.1834 9.44436 38.242 9.43624 38.3062 9.43624C38.3549 9.43624 38.4031 9.44193 38.4394 9.44965C38.4897 9.46066 38.5092 9.46636 38.5224 9.47044C38.5755 9.48672 38.5826 9.47085 38.593 9.44482L38.7171 9.09724C38.7298 9.05972 38.6983 9.04385 38.6872 9.03939ZM31.4369 12.621C31.4369 12.6487 31.4173 12.6711 31.3902 12.6711H30.9598C30.9327 12.6711 30.9136 12.6487 30.9136 12.621V9.0866C30.9136 9.05895 30.9327 9.03655 30.9598 9.03655H31.3902C31.4173 9.03655 31.4369 9.05895 31.4369 9.0866V12.621Z" fill="white"/>
    </g>
    <defs>
        <clipPath id="clip0_2529_856">
            <rect width="28" height="20" fill="white" transform="translate(22 2)"/>
        </clipPath>
    </defs>
</svg>
