<svg width="72" height="24" viewBox="0 0 72 24" fill="none" xmlns="http://www.w3.org/2000/svg">
<g clip-path="url(#clip0_2882_247)">
<path d="M18.6749 7.8631V16.0975H17.4374V7.8631H14.8213V7H21.2619V7.8631H18.6749Z" fill="white"/>
<path d="M20.4665 16.0977V9.65481H21.5886V10.4992C21.7297 10.2928 22.2452 9.54517 23.1608 9.54517C23.4346 9.53897 23.7025 9.62526 23.9213 9.79011V10.7955C23.613 10.5622 23.2371 10.4357 22.8506 10.4351C21.7297 10.4351 21.5886 11.311 21.5886 11.6586V16.0977H20.4665ZM28.9214 16.0977V15.3524C28.3514 15.9066 27.5901 16.2202 26.7952 16.2284C26.3517 16.2524 25.9139 16.1203 25.5577 15.8551C24.8998 15.3524 24.8485 14.6176 24.8485 13.8828V9.65481H25.9437V13.5866C25.9437 14.4753 26.0347 15.5076 27.2722 15.5076C27.6968 15.5076 28.2648 15.3396 28.5482 15.041C28.8701 14.7051 28.9214 14.4217 28.9214 14.0088V9.65481H30.0178V16.0977H28.9214ZM34.4254 11.4988V11.3157C34.4254 10.8771 34.2062 10.1937 33.2136 10.1937C32.3505 10.1937 31.9761 10.6835 31.9761 11.1606C31.9761 11.7799 32.6339 12.0377 33.2264 12.2103L33.8971 12.4039C34.9794 12.713 35.5988 13.2553 35.5988 14.2864C35.5988 15.2521 34.9923 16.2319 33.1623 16.2319C31.3579 16.2319 30.7782 15.3431 30.7782 14.2724V14.1021H31.8863V14.2689C31.8863 14.8241 32.1312 15.5076 33.2649 15.5076C34.219 15.5076 34.5152 15.0177 34.5152 14.501C34.5152 13.702 33.8842 13.5096 33.2906 13.3288L32.466 13.0839C32.0671 12.9672 30.9579 12.6453 30.9579 11.4335C30.9579 10.5062 31.4991 9.51368 33.2521 9.51368C34.3741 9.51368 35.4681 9.98022 35.4681 11.4207V11.4988H34.4254ZM46.9485 9.65481L45.4929 14.9524L44.0233 9.65481H43.0051L41.3559 14.9524L39.9633 9.65481H37.6306V8.05691L36.5085 8.25052L36.4829 14.1791C36.4829 15.2101 36.5225 15.5974 36.9727 15.9286C37.2685 16.1265 37.619 16.2264 37.9746 16.2144C38.3882 16.2117 38.7982 16.1375 39.1865 15.9951V15.2486C38.9529 15.3443 38.704 15.3969 38.4517 15.4038C37.704 15.4038 37.6131 14.8882 37.6131 14.2047L37.6271 10.3126H38.9812L40.6584 16.0977H41.8318L43.3912 11.1477L44.8223 16.0977H46.0085L47.9154 9.65248L46.9485 9.65481ZM52.6065 16.0977C52.182 16.0977 52.0793 15.9554 52.0793 15.5694V15.3909C51.8396 15.6588 51.5453 15.8722 51.2161 16.0167C50.8869 16.1612 50.5306 16.2333 50.1712 16.2284C48.9337 16.2284 48.1475 15.5974 48.1475 14.3622C48.1475 13.4851 48.6631 13.0221 48.964 12.8541C49.4014 12.6092 50.0067 12.4027 52.0828 12.2091V11.5245C52.0828 10.6602 51.7212 10.2415 50.8581 10.2415C50.4581 10.2415 49.427 10.2928 49.427 11.6201V11.7099H48.3797V11.5105C48.3797 9.97789 49.6813 9.51368 50.9316 9.51368C51.9627 9.51368 52.5645 9.82276 52.8654 10.2485C53.1104 10.5984 53.1617 11.1501 53.1617 11.6399V15.1647C53.1617 15.6545 53.2258 15.9123 53.4579 15.9508V16.0977H52.6065ZM52.0793 12.811C50.7508 12.9649 50.184 13.12 49.9006 13.288C49.7157 13.3918 49.5634 13.545 49.4604 13.7303C49.3574 13.9156 49.3079 14.1259 49.3174 14.3377C49.3174 15.0597 49.7419 15.4971 50.4896 15.4971C50.8397 15.5054 51.1847 15.4114 51.4821 15.2265C52.0362 14.8661 52.0758 14.2607 52.0758 13.7837L52.0793 12.811ZM57.0153 16.0977H55.842L53.7157 9.65481H54.9275L56.5383 14.9395L58.3519 9.65481H59.3573L57.0153 16.0977ZM60.6625 12.9159C60.6625 13.7149 60.6882 15.5076 62.3514 15.5076C62.7643 15.5076 63.7568 15.3396 63.8338 14.1278H64.929C64.929 15.223 64.0402 16.2272 62.3 16.2272C60.2764 16.2272 59.4903 14.9127 59.4903 13.0571C59.4903 10.9576 60.3277 9.51252 62.377 9.51252C64.0274 9.51252 64.9547 10.4666 64.9547 12.5287V12.8506H60.6625V12.9159ZM63.8595 12.1811C63.8466 11.7822 63.8081 10.2357 62.3899 10.2357C61.4626 10.2357 60.7791 10.8923 60.701 12.1811H63.8595ZM4 7.44924V14.3482C4 14.3482 5.94431 13.2297 7.49089 11.9584C9.03747 10.687 9.74078 9.62565 9.74078 9.62565C8.1597 8.2193 6.11604 7.44452 4 7.44924Z" fill="white"/>
<path d="M6.88184 7.00586C8.33745 7.46879 9.6608 8.27407 10.7409 9.35414C11.8209 10.4342 12.6262 11.7576 13.0892 13.2132V7.00586H6.88184Z" fill="white"/>
<path d="M12.6461 16.0975H5.74951C5.74951 16.0975 6.86804 14.1543 8.13936 12.6077C9.41069 11.0611 10.4721 10.3578 10.4721 10.3578C11.8774 11.9389 12.6513 13.9821 12.6461 16.0975ZM67.0121 11.5312C66.8176 11.5307 66.6276 11.4727 66.466 11.3645C66.3044 11.2563 66.1785 11.1027 66.104 10.923C66.0295 10.7434 66.0099 10.5457 66.0475 10.3549C66.0852 10.1641 66.1784 9.9887 66.3155 9.85078C66.4526 9.71286 66.6275 9.61858 66.818 9.57983C67.0086 9.54107 67.2064 9.55956 67.3865 9.63298C67.5666 9.70639 67.7209 9.83144 67.8301 9.99239C67.9393 10.1533 67.9984 10.343 68 10.5375C68.0019 10.668 67.9776 10.7976 67.9287 10.9186C67.8798 11.0396 67.8072 11.1496 67.7152 11.2422C67.6231 11.3348 67.5135 11.408 67.3928 11.4577C67.2721 11.5073 67.1426 11.5323 67.0121 11.5312ZM67.0121 9.65453C66.8359 9.65338 66.6632 9.70452 66.5161 9.80147C66.3689 9.89843 66.2538 10.0368 66.1853 10.1992C66.1168 10.3616 66.0979 10.5407 66.1312 10.7137C66.1644 10.8868 66.2483 11.0461 66.3721 11.1716C66.4959 11.297 66.6541 11.3829 66.8267 11.4184C66.9993 11.4539 67.1786 11.4375 67.3419 11.3711C67.5051 11.3047 67.6451 11.1914 67.7439 11.0455C67.8428 10.8996 67.8962 10.7277 67.8974 10.5515C67.8987 10.4346 67.877 10.3185 67.8334 10.2101C67.7897 10.1016 67.7251 10.0029 67.6431 9.91951C67.5611 9.83615 67.4635 9.76982 67.3558 9.72434C67.2481 9.67886 67.1325 9.65514 67.0156 9.65453H67.0121ZM67.0949 9.95895C67.3282 9.95895 67.4518 10.0453 67.4518 10.261C67.4577 10.3303 67.4382 10.3993 67.397 10.4553C67.3558 10.5113 67.2957 10.5504 67.2279 10.5655C67.2759 10.5773 67.3192 10.6035 67.3519 10.6406C67.3847 10.6777 67.4053 10.7239 67.411 10.7731L67.4681 10.997C67.4815 11.0466 67.504 11.0933 67.5346 11.1346H67.3212C67.2976 11.1105 67.2814 11.0802 67.2745 11.0472L67.222 10.8419C67.1777 10.6646 67.1392 10.6319 66.9095 10.6319H66.8208V11.1346H66.6214V9.95895H67.0949ZM66.8243 10.499H66.9491C67.1567 10.499 67.2535 10.4663 67.2535 10.289C67.2535 10.1502 67.1929 10.0919 66.9993 10.0919H66.8243V10.499Z" fill="white"/>
</g>
<defs>
<clipPath id="clip0_2882_247">
<rect width="64" height="9.22817" fill="white" transform="translate(4 7)"/>
</clipPath>
</defs>
</svg>
