<svg width="72" height="24" viewBox="0 0 72 24" fill="none" xmlns="http://www.w3.org/2000/svg">
    <path fill-rule="evenodd" clip-rule="evenodd" d="M65.9659 4.28451C65.9659 4.99243 65.3864 5.56902 64.6753 5.56902C63.9633 5.56902 63.3843 4.99243 63.3843 4.28451C63.3843 3.57659 63.9633 3 64.6753 3C65.3864 3 65.9659 3.57659 65.9659 4.28451ZM63.6989 4.28451C63.6989 4.88581 64.1349 5.32008 64.6753 5.32008C65.2149 5.32008 65.6518 4.88581 65.6518 4.28451C65.6518 3.68321 65.2149 3.2494 64.6753 3.2494C64.1349 3.2494 63.6989 3.68321 63.6989 4.28451ZM64.45 5.00708H64.1781V3.55188H64.7218C65.0718 3.55188 65.2618 3.67269 65.2618 3.97883C65.2618 4.22777 65.1187 4.34858 64.8791 4.37008L65.2724 5.00708H64.9936L64.6151 4.38107H64.45V5.00708ZM64.6928 3.7578H64.45V4.17469H64.6896C64.8501 4.17469 64.9899 4.15272 64.9899 3.95732C64.9899 3.78663 64.8326 3.7578 64.6928 3.7578ZM8 5.94067H19.368V8.67078H10.7436V17.251H8V5.94067ZM19.3681 8.67065H22.1121V19.9809H10.7441V17.2513H19.3681V8.67065ZM31.9944 5.9458V11.9982H30.8013V8.02976L29.0788 10.542H28.3613L26.6296 8.02976V11.9982H25.4365V5.9458H26.6296L28.7288 8.95825L30.8284 5.9458H31.9944ZM36.2502 5.9458H35.0566V11.9982H36.2502V5.9458ZM45.2794 10.0412V11.3976C45.2794 11.7339 45.0191 11.9979 44.6783 11.9979H39.9054C39.5738 11.9979 39.3135 11.7339 39.3135 11.3976V6.55558C39.3135 6.20963 39.5738 5.94604 39.9054 5.94604H44.6783C45.0191 5.94604 45.2794 6.20963 45.2794 6.55558V7.90279L44.0863 7.76596V7.12897H40.5066V10.815H44.0863V10.1867L45.2794 10.0412ZM54.3087 11.9979L52.514 9.57715H53.7075C54.0479 9.57715 54.3087 9.31311 54.3087 8.97677V6.55555C54.3087 6.2096 54.0479 5.94556 53.7075 5.94556H48.3423V11.9979H49.5358V9.57715H51.0164L52.801 11.9979H54.3087ZM53.1151 8.39377H49.5363V7.12848H53.1151V8.39377ZM63.3375 6.5558V11.3973C63.3375 11.7346 63.0776 11.9982 62.7368 11.9982H57.964C57.6319 11.9982 57.3716 11.7346 57.3716 11.3973V6.5558C57.3716 6.20984 57.6319 5.9458 57.964 5.9458H62.7368C63.0776 5.9458 63.3375 6.20984 63.3375 6.5558ZM58.5651 10.8148H62.1444V7.12918H58.5651V10.8148ZM31.402 15.1058V13.9229H25.436V19.9747H26.6291V17.5444H30.2084V16.3523H26.6291V15.1058H31.402ZM39.0294 14.5321V19.3741C39.0294 19.7109 38.7691 19.9745 38.4278 19.9745H33.6555C33.3238 19.9745 33.064 19.7109 33.064 19.3741V14.5321C33.064 14.1862 33.3238 13.9226 33.6555 13.9226H38.4278C38.7691 13.9226 39.0294 14.1862 39.0294 14.5321ZM34.2571 18.7916H37.8363V15.106H34.2571V18.7916ZM47.1315 19.3741V18.0177L45.9384 18.1633V18.7915H42.3591V15.106H45.9384V15.7429L47.1315 15.8789V14.5321C47.1315 14.1862 46.8716 13.9221 46.5303 13.9221H41.758C41.4259 13.9221 41.166 14.1862 41.166 14.5321V19.3741C41.166 19.7109 41.4259 19.9745 41.758 19.9745H46.5303C46.8716 19.9745 47.1315 19.7109 47.1315 19.3741ZM55.234 13.9221V19.3741C55.234 19.7109 54.9742 19.9745 54.6329 19.9745H49.86C49.5284 19.9745 49.2686 19.7109 49.2686 19.3741V13.9221H50.4612V18.7915H54.0414V13.9221H55.234ZM63.3361 19.3741V16.962C63.3361 16.6257 63.0762 16.3525 62.735 16.3525H58.5633V15.106H62.1435V15.7429L63.3361 15.8789V14.5321C63.3361 14.1862 63.0762 13.9221 62.735 13.9221H57.9621C57.6305 13.9221 57.3711 14.1862 57.3711 14.5321V16.935C57.3711 17.2718 57.6305 17.5446 57.9621 17.5446H62.1435V18.7915H58.5633V18.1633L57.3711 18.0177V19.3741C57.3711 19.7109 57.6305 19.9745 57.9621 19.9745H62.735C63.0762 19.9745 63.3361 19.7109 63.3361 19.3741Z" fill="#0075F3"/>
</svg>
