<svg width="72" height="24" viewBox="0 0 72 24" fill="none" xmlns="http://www.w3.org/2000/svg">
    <g clip-path="url(#clip0_2603_1266)">
        <path d="M10.1447 18.9992H12.8133V12.3044L9 9.35274V17.8178C9 18.1312 9.12061 18.4317 9.33528 18.6532C9.54996 18.8748 9.84113 18.9992 10.1447 18.9992Z" fill="#4285F4"/>
        <path d="M21.9751 18.9992H24.6466C24.7971 18.9995 24.9462 18.9692 25.0854 18.91C25.2245 18.8507 25.351 18.7638 25.4575 18.654C25.564 18.5443 25.6486 18.414 25.7062 18.2705C25.7639 18.127 25.7936 17.9732 25.7936 17.8178V9.35047L21.9802 12.3021L21.9751 18.9992Z" fill="#34A853"/>
        <path d="M21.9751 7.18443V12.3044L25.7884 9.35274V7.77551C25.7884 6.31484 24.1751 5.48082 23.0406 6.35722L21.9751 7.18443Z" fill="#FBBC04"/>
        <path d="M12.8135 12.3044V7.18443L17.3924 10.7287L21.9721 7.18443V12.3044L17.3924 15.8486L12.8135 12.3044Z" fill="#EA4335"/>
        <path d="M9 7.77517V9.35013L12.8133 12.3017V7.18409L11.7478 6.35688C10.6133 5.48047 9 6.31449 9 7.77517Z" fill="#C5221F"/>
        <path fill-rule="evenodd" clip-rule="evenodd" d="M64 17.3433C63.6751 17.3433 63.3502 17.3365 63.0261 17.3478C62.8897 17.3524 62.8655 17.3024 62.8662 17.1745C62.8692 15.0226 62.8692 12.8707 62.8662 10.7188C62.8662 9.94685 62.8662 9.17488 62.8662 8.40292C62.8662 8.27502 62.8904 8.22507 63.0268 8.22961C63.351 8.24096 63.6758 8.23415 64.0007 8.23415L64 17.3433Z" fill="#EFEFEF"/>
        <path fill-rule="evenodd" clip-rule="evenodd" d="M40.02 12.4716C40.68 12.4716 41.34 12.4716 42 12.4716C42.0894 12.4716 42.1598 12.4716 42.1723 12.5927C42.2962 13.7991 42.1202 14.9336 41.3656 15.9061C40.611 16.8786 39.6225 17.4084 38.4191 17.5242C37.5061 17.612 36.6202 17.5166 35.8033 17.0701C34.3887 16.2966 33.5124 15.1069 33.3166 13.4434C33.145 11.9827 33.4772 10.6658 34.4613 9.56541C35.5188 8.38401 36.8373 7.90796 38.3773 8.06311C39.3629 8.16226 40.248 8.50964 40.9726 9.23165C41.131 9.38907 41.1288 9.39058 40.9726 9.55027C40.7782 9.75083 40.581 9.94988 40.3896 10.1557C40.3302 10.2193 40.2972 10.2178 40.2341 10.1557C39.2639 9.14689 38.0796 8.92741 36.8102 9.32096C35.5408 9.7145 34.7671 10.6507 34.5156 11.9963C34.3088 13.1013 34.4635 14.1548 35.1499 15.066C35.9566 16.1362 37.0412 16.5373 38.3296 16.4033C38.9994 16.3461 39.6327 16.065 40.1336 15.6026C40.6792 15.0971 40.9557 14.4507 41.0613 13.7105C41.0826 13.5637 41.0166 13.5592 40.9058 13.5592C39.9474 13.5592 38.9889 13.5592 38.0304 13.5637C37.905 13.5637 37.8559 13.5365 37.8618 13.3965C37.8728 13.1407 37.8706 12.8848 37.8618 12.629C37.8581 12.5042 37.8926 12.4633 38.0187 12.4648C38.686 12.4746 39.3526 12.4716 40.02 12.4716Z" fill="#EFEFEF"/>
        <path fill-rule="evenodd" clip-rule="evenodd" d="M44.5241 11.9623C45.0103 11.2887 45.652 10.8959 46.4733 10.9103C47.2947 10.9247 47.9326 11.2955 48.314 12.0902C48.4625 11.8691 48.6347 11.666 48.8273 11.4847C49.5269 10.855 50.7069 10.7105 51.5238 11.1684C52.1295 11.5082 52.4104 12.0766 52.5292 12.7479C52.5698 12.9946 52.589 13.2446 52.5864 13.4948C52.5864 14.7224 52.5864 15.95 52.5908 17.1783C52.5908 17.3108 52.5607 17.3554 52.4273 17.3494C52.1633 17.3388 51.8985 17.3388 51.6345 17.3494C51.4879 17.3562 51.4395 17.3206 51.4409 17.1579C51.4482 16.0037 51.4409 14.8496 51.4453 13.6954C51.451 13.4282 51.4264 13.1613 51.372 12.9C51.2415 12.3278 50.8975 12.0266 50.327 11.9918C49.4367 11.9335 48.7437 12.5269 48.5941 13.4729C48.568 13.6482 48.5562 13.8254 48.5589 14.0027C48.5589 15.0622 48.5589 16.1286 48.5589 17.1919C48.5589 17.3145 48.5354 17.3607 48.4064 17.3562C48.1258 17.3446 47.8449 17.3446 47.5638 17.3562C47.4325 17.3615 47.4113 17.31 47.412 17.1897C47.4154 16.0358 47.4154 14.8819 47.412 13.7279C47.4217 13.4439 47.3971 13.1596 47.3386 12.8818C47.2015 12.3255 46.8642 12.0327 46.3083 11.9956C45.3858 11.9328 44.6693 12.57 44.5549 13.5516C44.5354 13.7275 44.5258 13.9044 44.5263 14.0814C44.5263 15.0986 44.5263 16.1162 44.5263 17.1344C44.5263 17.391 44.5615 17.3524 44.3063 17.3554C44.0511 17.3584 43.7989 17.3501 43.5459 17.3554C43.4351 17.3592 43.3948 17.3327 43.3955 17.2078C43.3989 15.2244 43.3989 13.2406 43.3955 11.2562C43.3955 11.1426 43.4278 11.1093 43.5356 11.1124C43.8055 11.1194 44.0743 11.1194 44.3423 11.1124C44.4486 11.1124 44.4889 11.1381 44.4845 11.2539C44.4765 11.4355 44.4809 11.6172 44.4845 11.7996C44.4933 11.8457 44.4691 11.9055 44.5241 11.9623Z" fill="#EFEFEF"/>
        <path fill-rule="evenodd" clip-rule="evenodd" d="M57.782 16.4926C57.7553 16.496 57.73 16.5063 57.7083 16.5226C57.6866 16.5389 57.6693 16.5606 57.658 16.5857C57.1088 17.3524 56.3725 17.6453 55.4632 17.5242C54.7702 17.4303 54.204 17.111 53.8168 16.5085C53.6579 16.2643 53.5541 15.9864 53.5131 15.6953C53.472 15.4042 53.4947 15.1073 53.5795 14.8265C53.6642 14.5456 53.8089 14.2879 54.003 14.0724C54.197 13.8569 54.4353 13.689 54.7005 13.5811C55.6736 13.1656 56.6644 13.1944 57.639 13.6114C57.749 13.6583 57.7798 13.6689 57.7856 13.5236C57.823 12.5594 57.0127 11.9948 56.3343 11.9562C55.6956 11.9207 55.1698 12.15 54.7804 12.6813C54.7181 12.7668 54.6763 12.7645 54.5964 12.7108C54.3441 12.539 54.0896 12.3687 53.8271 12.2135C53.7054 12.1379 53.7296 12.0872 53.7985 11.9971C54.1613 11.5028 54.6801 11.1548 55.2652 11.0132C56.0161 10.8316 56.7648 10.8444 57.482 11.1646C58.307 11.5354 58.758 12.2067 58.8394 13.1248C58.9128 13.9459 58.8578 14.7716 58.8673 15.595C58.8732 16.1248 58.8673 16.6546 58.8709 17.1806C58.8709 17.3017 58.8504 17.3524 58.7191 17.3471C58.45 17.3357 58.1794 17.3388 57.9125 17.3471C57.8127 17.3471 57.7783 17.3214 57.782 17.2139C57.7871 16.98 57.782 16.7431 57.782 16.4926ZM56.3784 14.2403C55.879 14.2403 55.4485 14.3319 55.0833 14.6346C54.754 14.9071 54.6 15.2583 54.7166 15.6881C54.8332 16.118 55.1566 16.3451 55.5541 16.4533C56.5221 16.7174 57.6074 15.95 57.7621 14.9245C57.7915 14.727 57.7431 14.6255 57.5773 14.5332C57.1872 14.316 56.7685 14.2562 56.3784 14.2403Z" fill="#EFEFEF"/>
        <path fill-rule="evenodd" clip-rule="evenodd" d="M61.3855 14.2275C61.3855 15.1992 61.3803 16.171 61.3906 17.1427C61.3906 17.3236 61.3385 17.3592 61.1794 17.3509C60.9103 17.338 60.6397 17.3426 60.3727 17.3509C60.2686 17.3509 60.2429 17.3161 60.2437 17.2139C60.2437 15.226 60.2437 13.2373 60.2437 11.2478C60.2437 11.132 60.2825 11.1048 60.3903 11.1071C60.6763 11.1139 60.9631 11.1154 61.2491 11.1071C61.3693 11.1033 61.3957 11.1479 61.3957 11.263C61.384 12.2499 61.3855 13.239 61.3855 14.2275Z" fill="#EFEFEF"/>
        <path fill-rule="evenodd" clip-rule="evenodd" d="M60.8226 8.11003C60.9866 8.11212 61.1464 8.16419 61.2819 8.25971C61.4173 8.35522 61.5224 8.48992 61.5839 8.64688C61.6454 8.80384 61.6606 8.97606 61.6276 9.1419C61.5946 9.30775 61.5148 9.45982 61.3983 9.57901C61.2818 9.69821 61.1337 9.77921 60.9728 9.81185C60.8118 9.84448 60.6451 9.8273 60.4935 9.76244C60.342 9.69759 60.2124 9.58797 60.121 9.44734C60.0296 9.30672 59.9806 9.14136 59.98 8.97205C59.9793 8.85801 60.0007 8.74497 60.0429 8.63957C60.0851 8.53416 60.1472 8.43851 60.2257 8.35822C60.3042 8.27793 60.3974 8.21462 60.4999 8.172C60.6024 8.12938 60.7121 8.10831 60.8226 8.11003Z" fill="#EFEFEF"/>
    </g>
    <defs>
        <clipPath id="clip0_2603_1266">
            <rect width="55" height="13" fill="white" transform="translate(9 6)"/>
        </clipPath>
    </defs>
</svg>
