<svg width="72" height="24" viewBox="0 0 72 24" fill="none" xmlns="http://www.w3.org/2000/svg">
<path d="M18.5704 8.16113L18.5474 8.20721L17.1189 10.6955L15.6674 8.16113H13.5708L16.2204 12.6078V15.9486H18.0405V12.6078L20.667 8.16113H18.5704Z" fill="white"/>
<path d="M32.8089 12.6083C32.8089 12.9309 32.7629 13.2304 32.6937 13.4608C32.6246 13.6912 32.5094 13.8525 32.4173 13.9677C32.279 14.1059 32.1638 14.1981 32.0026 14.2442C31.8413 14.3133 31.657 14.3363 31.4496 14.3363C31.2422 14.3363 31.0579 14.2903 30.8966 14.2442C30.7354 14.1751 30.6202 14.0829 30.4819 13.9677C30.3667 13.8525 30.2746 13.6912 30.2055 13.4608C30.1363 13.2304 30.0903 12.9539 30.0903 12.6314V11.6176C30.0903 11.272 30.1363 10.9956 30.2055 10.7652C30.2746 10.5348 30.3667 10.3735 30.4819 10.2122C30.6202 10.074 30.7584 9.95878 30.8966 9.88966C31.0579 9.82054 31.2192 9.77446 31.4496 9.77446C31.68 9.77446 31.8413 9.82054 32.0026 9.88966C32.1638 9.95878 32.3021 10.0509 32.4173 10.2122C32.5325 10.3505 32.6246 10.5348 32.7168 10.7652C32.7859 10.9956 32.832 11.272 32.832 11.5946L32.8089 12.6083ZM33.7766 9.03719C33.4771 8.69159 33.1085 8.43815 32.7168 8.27687C32.3251 8.1156 31.8874 8.02344 31.4266 8.02344C30.9658 8.02344 30.528 8.09256 30.1363 8.27687C29.7447 8.43815 29.3991 8.69159 29.0995 9.01415C28.8 9.3367 28.5927 9.72838 28.4544 10.1661C28.3162 10.6039 28.2471 11.0877 28.2471 11.5946V12.6083C28.2471 13.1152 28.3162 13.5991 28.4544 14.0368C28.5927 14.4746 28.8 14.8432 29.0995 15.1658C29.376 15.4883 29.7447 15.7187 30.1363 15.88C30.528 16.0413 30.9658 16.1104 31.4266 16.1104C31.8874 16.1104 32.3251 16.0413 32.7168 15.88C33.0624 15.7418 33.3619 15.5574 33.6384 15.304L33.7766 15.1658C34.0761 14.8432 34.2835 14.4746 34.4448 14.0368C34.583 13.5991 34.6521 13.1383 34.6521 12.6083V11.5946C34.6521 11.0647 34.583 10.6039 34.4448 10.1661C34.2835 9.72838 34.0531 9.3367 33.7766 9.03719Z" fill="white"/>
<path d="M47.4851 8.16113V12.3774L44.7894 8.16113H43.1997V15.9486H45.0198V11.7553L47.7155 15.9486H49.3052V8.16113H47.4851Z" fill="white"/>
<path d="M50.7339 8.16113V15.9486H50.803H51.2408H52.554V8.16113H50.7339Z" fill="white"/>
<path d="M53.8442 8.16113V9.91215H53.9134H54.3511H55.8948V15.9486H57.7149V9.91215H59.7885V8.16113H53.8442Z" fill="white"/>
<path d="M65.0418 13.4374C64.9727 13.6678 64.8575 13.8291 64.7653 13.9443C64.6271 14.0825 64.5119 14.1747 64.3506 14.2207C64.1893 14.2899 64.005 14.3129 63.7977 14.3129C63.5903 14.3129 63.406 14.2668 63.2447 14.2207C63.0834 14.1516 62.9682 14.0595 62.83 13.9443C62.7148 13.8291 62.6226 13.6678 62.5535 13.4374C62.4844 13.207 62.4383 12.9305 62.4383 12.5849V11.5712C62.4383 11.2256 62.4844 10.9491 62.5535 10.7187C62.6226 10.4883 62.7148 10.327 62.83 10.1888C62.9682 10.0505 63.1065 9.93534 63.2447 9.86622C63.406 9.7971 63.5673 9.75102 63.7977 9.75102C64.005 9.75102 64.1893 9.7971 64.3506 9.86622C64.5119 9.93534 64.6501 10.0275 64.7653 10.1888C64.8805 10.327 64.9957 10.5113 65.0648 10.7417C65.134 10.9721 65.18 11.2486 65.18 11.5712V12.5849C65.157 12.9305 65.1109 13.207 65.0418 13.4374ZM66.7698 10.1427C66.6315 9.72798 66.4242 9.33631 66.1477 9.01375L66.1247 8.99071C65.8251 8.66815 65.4796 8.41472 65.0879 8.25344C64.6962 8.09216 64.2584 8 63.7977 8C63.3369 8 62.8991 8.06912 62.5074 8.25344C62.1158 8.41472 61.7702 8.66815 61.4706 8.99071L61.4476 9.03679C61.1711 9.35935 60.9638 9.75102 60.8255 10.1657C60.6873 10.6035 60.6182 11.0873 60.6182 11.5942V12.608C60.6182 13.1148 60.6873 13.5987 60.8255 14.0364C60.9638 14.4742 61.1711 14.8428 61.4706 15.1654C61.7471 15.4879 62.1158 15.7183 62.5074 15.8796C62.8991 16.0409 63.3369 16.11 63.7977 16.11C64.2584 16.11 64.6962 16.0409 65.0879 15.8796C65.4796 15.7183 65.8251 15.4879 66.1247 15.1654C66.4242 14.8428 66.6315 14.4742 66.7928 14.0364C66.9311 13.5987 67.0002 13.1379 67.0002 12.608V11.5942C66.9771 11.0643 66.908 10.5805 66.7698 10.1427Z" fill="white"/>
<path d="M25.413 13.0461H25.367V13.1152C25.3439 13.2304 25.3209 13.3456 25.2978 13.4378C25.2287 13.6682 25.1135 13.8295 25.0214 13.9447C24.8831 14.0829 24.7679 14.1751 24.6066 14.2211C24.4454 14.2903 24.261 14.3133 24.0537 14.3133C23.8463 14.3133 23.662 14.2672 23.5007 14.2211C23.3395 14.152 23.2243 14.0599 23.086 13.9447C22.9708 13.8295 22.8787 13.6682 22.8095 13.4378C22.7404 13.2074 22.6943 12.9309 22.6943 12.6083V11.5946C22.6943 11.249 22.7404 10.9725 22.8095 10.7421C22.8787 10.5117 22.9708 10.3505 23.086 10.1892C23.2243 10.0509 23.3625 9.93574 23.5007 9.86662C23.662 9.7975 23.8233 9.75142 24.0537 9.75142C24.261 9.75142 24.4454 9.7975 24.6066 9.86662C24.7679 9.93574 24.9062 10.0279 25.0214 10.1892C25.1366 10.3274 25.2518 10.5117 25.3209 10.7421C25.3439 10.7882 25.3439 10.8573 25.367 10.9034L25.39 10.9725H27.2332V10.8804C27.2101 10.6269 27.141 10.3735 27.0719 10.1431C26.9337 9.70534 26.7263 9.31366 26.4268 8.99111L26.4037 8.96807C26.1273 8.64551 25.7817 8.41511 25.39 8.25384C24.9062 8.09256 24.4684 8.02344 24.0076 8.02344C23.5468 8.02344 23.1091 8.09256 22.7174 8.27687C22.3257 8.43815 21.9801 8.69159 21.7036 8.99111L21.6806 9.01415C21.3811 9.3367 21.1737 9.72838 21.0355 10.1661C20.8972 10.6039 20.8281 11.0877 20.8281 11.5946V12.6083C20.8281 13.1152 20.8972 13.5991 21.0355 14.0368C21.1737 14.4746 21.3811 14.8432 21.6806 15.1658C21.9571 15.4883 22.3257 15.7187 22.7174 15.88C23.1091 16.0413 23.5468 16.1104 24.0076 16.1104C24.4684 16.1104 24.9062 16.0413 25.2978 15.88C25.6434 15.7418 25.943 15.5574 26.2194 15.304L26.3577 15.1658C26.6572 14.8432 26.8645 14.4746 27.0258 14.0368C27.118 13.7603 27.1641 13.4608 27.2101 13.1613V13.0691H25.413V13.0461Z" fill="white"/>
<path d="M11.6819 13.0459H11.6128V13.115C11.5897 13.2302 11.5667 13.3454 11.5437 13.4376C11.4745 13.668 11.3593 13.8293 11.2672 13.9444C11.1289 14.0827 11.0137 14.1748 10.8525 14.2209C10.6912 14.29 10.5069 14.3131 10.2995 14.3131C10.0922 14.3131 9.90784 14.267 9.74656 14.2209C9.58528 14.1518 9.47008 14.0596 9.33184 13.9444C9.21664 13.8293 9.12449 13.668 9.05537 13.4376C9.03233 13.3685 9.00929 13.2763 8.98625 13.1841L8.96321 13.115H7.14307V13.2763C7.18915 13.5297 7.23523 13.7832 7.30434 14.0136C7.44258 14.4513 7.64994 14.82 7.94946 15.1425C8.22594 15.4651 8.59457 15.6955 8.98625 15.8567C9.37792 16.018 9.81568 16.0871 10.2765 16.0871C10.7373 16.0871 11.175 16.018 11.5667 15.8567C11.9123 15.7185 12.2118 15.5342 12.4883 15.2808L12.6265 15.1425C12.926 14.82 13.1334 14.4513 13.2947 14.0136C13.3868 13.7371 13.4329 13.4376 13.479 13.1381V13.0459H11.6819Z" fill="white"/>
<path d="M13.4323 10.9034C13.4093 10.65 13.3402 10.3965 13.2711 10.1661C13.1328 9.72838 12.9255 9.3367 12.626 9.01415C12.3264 8.69159 11.9808 8.43815 11.5892 8.27687C11.1975 8.09256 10.7597 8.02344 10.2989 8.02344C9.83814 8.02344 9.40038 8.09256 9.00871 8.27687C8.61703 8.43815 8.27144 8.69159 7.97192 9.01415C7.6724 9.3367 7.46504 9.72838 7.32681 10.1661C7.25769 10.3735 7.21161 10.6039 7.16553 10.8343V10.9725H8.98567L9.00871 10.9034C9.03175 10.8343 9.03175 10.7882 9.05479 10.7191C9.12391 10.4887 9.21607 10.3274 9.33126 10.1661C9.4695 10.0279 9.60774 9.9127 9.74598 9.84358C9.90726 9.77446 10.0685 9.72838 10.2989 9.72838C10.5063 9.72838 10.6906 9.77446 10.8519 9.84358C11.0132 9.9127 11.1514 10.0049 11.2666 10.1661C11.3818 10.3044 11.497 10.4887 11.5661 10.7191C11.5892 10.7652 11.6122 10.8804 11.6352 10.9495H13.4784L13.4323 10.9034Z" fill="white"/>
<path d="M39.0758 13.1613H40.1357V13.3226C40.1357 13.4839 40.1126 13.5991 40.0666 13.7143C40.0205 13.8295 39.9514 13.9216 39.8362 14.0138C39.721 14.1059 39.5827 14.1751 39.4445 14.2442C39.3062 14.2903 39.1219 14.3133 38.9146 14.3133C38.6842 14.3133 38.4768 14.2672 38.3386 14.1981C38.1773 14.129 38.0621 14.0368 37.9469 13.8986C37.8317 13.7603 37.7395 13.576 37.6704 13.3456C37.6013 13.1152 37.5783 12.8387 37.5783 12.4932V11.5485C37.5783 11.2029 37.6243 10.9034 37.6935 10.673C37.7626 10.4426 37.8547 10.2813 37.9699 10.1431C38.1082 10.0049 38.2464 9.9127 38.3847 9.84358C38.5459 9.77446 38.7072 9.75142 38.9376 9.75142C39.0989 9.75142 39.2602 9.77446 39.3984 9.82054C39.5366 9.86662 39.6518 9.93574 39.767 10.0049C39.8592 10.074 39.9283 10.1661 39.9974 10.2813C40.0435 10.3965 40.0896 10.5348 40.1357 10.7191H41.9558V10.673C41.9328 10.3044 41.8406 9.95878 41.7024 9.63622C41.5641 9.31366 41.3568 9.01415 41.0803 8.78375C40.8038 8.53031 40.5043 8.34599 40.1357 8.20776C39.767 8.06952 39.3984 8.02344 38.9837 8.02344C38.5229 8.02344 38.0851 8.09256 37.6935 8.25384C37.3018 8.41511 36.9562 8.66855 36.6567 8.99111C36.3572 9.31366 36.1498 9.70534 36.0116 10.1431C35.8733 10.5809 35.8042 11.0647 35.8042 11.5716V12.5162C35.8042 13.0461 35.8733 13.5069 35.9885 13.9447C36.1268 14.3824 36.3111 14.7741 36.5876 15.0966C36.864 15.4192 37.2096 15.6957 37.6243 15.857C38.016 16.0182 38.4768 16.0874 38.9606 16.0874C39.3754 16.0874 39.767 16.0413 40.1126 15.903C40.4582 15.7878 40.7577 15.6266 40.9881 15.4192C41.2185 15.2349 41.4029 15.0045 41.5641 14.751C41.7024 14.5207 41.8176 14.2672 41.8867 14.0138C41.9558 13.7834 41.9789 13.553 41.9789 13.3226V11.5716H39.1219L39.0758 13.1613Z" fill="white"/>
<path d="M7.1427 10.9722H5V13.1149H7.1427V10.9722Z" fill="#FF6735"/>
</svg>
