<svg width="72" height="24" viewBox="0 0 72 24" fill="none" xmlns="http://www.w3.org/2000/svg">
    <g clip-path="url(#clip0_2665_1400)">
        <path d="M20.5723 14.4C19.8992 14.4 19.3606 14.2 18.9736 13.8167C18.5865 13.4333 18.4014 12.8833 18.4014 12.2C18.4014 11.5 18.5865 10.9333 18.9399 10.5333C19.2933 10.1333 19.7814 9.93335 20.4041 9.93335C20.9762 9.93335 21.4306 10.1 21.7672 10.45C22.1038 10.8 22.2721 11.2667 22.2721 11.8834V12.3834H19.3606C19.3775 12.8 19.4953 13.1167 19.6972 13.35C19.8992 13.5834 20.2189 13.6834 20.606 13.6834C20.8584 13.6834 21.1109 13.6667 21.3297 13.6167C21.5484 13.5667 21.7841 13.4834 22.0533 13.3834V14.1334C21.8345 14.2334 21.5989 14.3167 21.3633 14.3667C21.1277 14.4167 20.8584 14.4 20.5723 14.4ZM20.3872 10.6334C20.0843 10.6334 19.8487 10.7333 19.6804 10.9167C19.5121 11.1 19.3943 11.3667 19.3606 11.7334H21.3465C21.3465 11.3834 21.2623 11.1 21.094 10.9167C20.9258 10.7333 20.6901 10.6334 20.3872 10.6334Z" fill="white"/>
        <path d="M24.241 14.3333H23.3154V8.25H24.241V14.3333Z" fill="white"/>
        <path d="M28.2971 14.3333L28.112 13.7333H28.0783C27.8763 14 27.6576 14.1833 27.4388 14.2667C27.22 14.35 26.9507 14.4167 26.6141 14.4167C26.1934 14.4167 25.8568 14.3 25.6044 14.0667C25.352 13.8333 25.251 13.5167 25.251 13.1C25.251 12.65 25.4193 12.3167 25.7559 12.1C26.0924 11.8833 26.5973 11.75 27.2873 11.7333L28.0446 11.7167V11.4833C28.0446 11.2 27.9773 11 27.8427 10.8667C27.708 10.7333 27.5061 10.6667 27.2368 10.6667C27.018 10.6667 26.7993 10.7 26.5973 10.7667C26.3954 10.8333 26.1934 10.9167 26.0083 11L25.7054 10.35C25.941 10.2333 26.1934 10.1333 26.4795 10.0667C26.7656 10 27.018 9.96667 27.2705 9.96667C27.8259 9.96667 28.2466 10.0833 28.5327 10.3333C28.8188 10.5833 28.9534 10.95 28.9534 11.4667V14.3333H28.2971ZM26.9171 13.7C27.2537 13.7 27.5229 13.6 27.7249 13.4167C27.9268 13.2333 28.0278 12.9667 28.0278 12.6333V12.2667L27.4724 12.2833C27.0349 12.3 26.7151 12.3667 26.5132 12.5C26.3112 12.6333 26.2102 12.8333 26.2102 13.1C26.2102 13.3 26.2607 13.45 26.3785 13.55C26.4963 13.65 26.6815 13.7 26.9171 13.7Z" fill="white"/>
        <path d="M33.1775 13.1C33.1775 13.5167 33.026 13.85 32.7063 14.0667C32.3865 14.2834 31.949 14.4 31.3768 14.4C30.7878 14.4 30.3334 14.3167 29.9799 14.1334V13.3334C30.4848 13.5667 30.9729 13.6834 31.4104 13.6834C31.9826 13.6834 32.2687 13.5167 32.2687 13.1667C32.2687 13.05 32.2351 12.9667 32.1678 12.9C32.1004 12.8334 31.9995 12.75 31.848 12.6667C31.6965 12.5834 31.4946 12.5 31.2421 12.4C30.7373 12.2 30.4007 12.0167 30.2156 11.8167C30.0304 11.6167 29.9463 11.3667 29.9463 11.0667C29.9463 10.7 30.0978 10.4167 30.4007 10.2C30.7036 9.98336 31.1075 9.90002 31.6292 9.90002C32.1341 9.90002 32.6221 10 33.0765 10.2167L32.7736 10.9C32.3024 10.7 31.9153 10.6167 31.5787 10.6167C31.0907 10.6167 30.8382 10.75 30.8382 11.0334C30.8382 11.1667 30.9056 11.2834 31.0234 11.3834C31.1412 11.4834 31.4273 11.6 31.8648 11.7667C32.2182 11.9 32.4875 12.0334 32.6558 12.15C32.8241 12.2667 32.9419 12.4 33.026 12.55C33.1438 12.7167 33.1775 12.8834 33.1775 13.1Z" fill="white"/>
        <path d="M35.8028 13.6667C36.0216 13.6667 36.2572 13.6333 36.476 13.5666V14.25C36.375 14.3 36.2404 14.3333 36.0721 14.3666C35.9038 14.4 35.7355 14.4167 35.5672 14.4167C34.6921 14.4167 34.2546 13.95 34.2546 13.05V10.7167H33.6655V10.3167L34.305 9.98332L34.6248 9.06665H35.197V10.0333H36.4424V10.7333H35.197V13.05C35.197 13.2667 35.2475 13.4333 35.3653 13.5333C35.4831 13.6333 35.6345 13.6667 35.8028 13.6667Z" fill="white"/>
        <path d="M37.3008 8.86664C37.3008 8.69998 37.3513 8.58331 37.4354 8.48331C37.5196 8.38331 37.6542 8.34998 37.8225 8.34998C37.9908 8.34998 38.1086 8.39998 38.2096 8.48331C38.3105 8.56664 38.3442 8.69998 38.3442 8.86664C38.3442 9.01664 38.2937 9.14998 38.2096 9.23331C38.1254 9.31664 37.9908 9.36664 37.8225 9.36664C37.6542 9.36664 37.5196 9.31664 37.4354 9.23331C37.3513 9.14998 37.3008 9.01664 37.3008 8.86664ZM38.2937 14.3333H37.3681V10.0166H38.2937V14.3333Z" fill="white"/>
        <path d="M41.3735 14.4C40.7172 14.4 40.2123 14.2166 39.8757 13.8333C39.5391 13.45 39.354 12.9 39.354 12.1833C39.354 11.45 39.5391 10.9 39.8925 10.5C40.246 10.1 40.7677 9.91663 41.4408 9.91663C41.8952 9.91663 42.316 9.99996 42.6862 10.1666L42.4001 10.9C42.013 10.75 41.6933 10.6666 41.424 10.6666C40.6667 10.6666 40.2964 11.1666 40.2964 12.15C40.2964 12.6333 40.3974 13 40.5825 13.25C40.7677 13.5 41.0538 13.6166 41.4072 13.6166C41.8279 13.6166 42.215 13.5166 42.5852 13.3166V14.1166C42.4169 14.2166 42.2486 14.2833 42.0467 14.3166C41.8447 14.35 41.6428 14.4 41.3735 14.4Z" fill="white"/>
        <path d="M46.5398 13.1C46.5398 13.5167 46.3883 13.85 46.0686 14.0667C45.7488 14.2834 45.3113 14.4 44.7391 14.4C44.1501 14.4 43.6957 14.3167 43.3423 14.1334V13.3334C43.8471 13.5667 44.3352 13.6834 44.7727 13.6834C45.3449 13.6834 45.631 13.5167 45.631 13.1667C45.631 13.05 45.5974 12.9667 45.5301 12.9C45.4627 12.8334 45.3618 12.75 45.2103 12.6667C45.0588 12.5834 44.8569 12.5 44.6044 12.4C44.0996 12.2 43.763 12.0167 43.5779 11.8167C43.3927 11.6167 43.3086 11.3667 43.3086 11.0667C43.3086 10.7 43.4601 10.4167 43.763 10.2C44.0659 9.98336 44.4698 9.90002 44.9915 9.90002C45.4964 9.90002 45.9844 10 46.4388 10.2167L46.1359 10.9C45.6647 10.7 45.2776 10.6167 44.941 10.6167C44.453 10.6167 44.2005 10.75 44.2005 11.0334C44.2005 11.1667 44.2679 11.2834 44.3857 11.3834C44.5035 11.4834 44.7896 11.6 45.2271 11.7667C45.5805 11.9 45.8498 12.0334 46.0181 12.15C46.1864 12.2667 46.3042 12.4 46.3884 12.55C46.5062 12.7167 46.5398 12.8834 46.5398 13.1Z" fill="white"/>
        <path d="M49.4512 14.4C48.7781 14.4 48.2395 14.2 47.8525 13.8167C47.4654 13.4333 47.2803 12.8833 47.2803 12.2C47.2803 11.5 47.4654 10.9333 47.8188 10.5333C48.1722 10.1333 48.6603 9.93335 49.283 9.93335C49.8552 9.93335 50.3095 10.1 50.6461 10.45C50.9827 10.8 51.151 11.2667 51.151 11.8834V12.3834H48.2395C48.2564 12.8 48.3742 13.1167 48.5761 13.35C48.7781 13.5834 49.0978 13.6834 49.4849 13.6834C49.7373 13.6834 49.9898 13.6667 50.2086 13.6167C50.4273 13.5667 50.663 13.4834 50.9322 13.3834V14.1334C50.7134 14.2334 50.4778 14.3167 50.2422 14.3667C50.0066 14.4167 49.7542 14.4 49.4512 14.4ZM49.283 10.6334C48.98 10.6334 48.7444 10.7333 48.5761 10.9167C48.4078 11.1 48.29 11.3667 48.2564 11.7334H50.2422C50.2422 11.3834 50.1581 11.1 49.9898 10.9167C49.8215 10.7333 49.5691 10.6334 49.283 10.6334Z" fill="white"/>
        <path d="M54.9211 14.3333L54.736 13.7333H54.7023C54.5004 14 54.2816 14.1833 54.0628 14.2667C53.844 14.35 53.5748 14.4167 53.2382 14.4167C52.8174 14.4167 52.4809 14.3 52.2284 14.0667C51.976 13.8333 51.875 13.5167 51.875 13.1C51.875 12.65 52.0433 12.3167 52.3799 12.1C52.7165 11.8833 53.2213 11.75 53.9113 11.7333L54.6687 11.7167V11.4833C54.6687 11.2 54.6013 11 54.4667 10.8667C54.3321 10.7333 54.1301 10.6667 53.8609 10.6667C53.6421 10.6667 53.4233 10.7 53.2213 10.7667C53.0194 10.8333 52.8174 10.9167 52.6323 11L52.3294 10.35C52.565 10.2333 52.8174 10.1333 53.1035 10.0667C53.3896 10 53.6421 9.96667 53.8945 9.96667C54.4499 9.96667 54.8706 10.0833 55.1567 10.3333C55.4428 10.5833 55.5774 10.95 55.5774 11.4667V14.3333H54.9211ZM53.5411 13.7C53.8777 13.7 54.147 13.6 54.3489 13.4167C54.5509 13.2333 54.6518 12.9667 54.6518 12.6333V12.2667L54.0965 12.2833C53.6589 12.3 53.3391 12.3667 53.1372 12.5C52.9352 12.6333 52.8343 12.8333 52.8343 13.1C52.8343 13.3 52.8848 13.45 53.0026 13.55C53.1204 13.65 53.3223 13.7 53.5411 13.7Z" fill="white"/>
        <path d="M59.0945 9.93335C59.2796 9.93335 59.4311 9.95002 59.5489 9.96668L59.4648 10.8167C59.3301 10.7834 59.1955 10.7667 59.0609 10.7667C58.6906 10.7667 58.3877 10.8834 58.1521 11.1334C57.9165 11.3834 57.7987 11.6833 57.7987 12.0667V14.3333H56.873V10.0167H57.5967L57.7145 10.7833H57.765C57.9165 10.5333 58.1016 10.3167 58.3372 10.1667C58.5728 10.0167 58.8252 9.93335 59.0945 9.93335Z" fill="white"/>
        <path d="M62.124 14.4C61.4677 14.4 60.9628 14.2166 60.6262 13.8333C60.2896 13.45 60.1045 12.9 60.1045 12.1833C60.1045 11.45 60.2896 10.9 60.643 10.5C60.9964 10.1 61.5181 9.91663 62.1913 9.91663C62.6457 9.91663 63.0664 9.99996 63.4367 10.1666L63.1506 10.9C62.7635 10.75 62.4438 10.6666 62.1745 10.6666C61.4172 10.6666 61.0469 11.1666 61.0469 12.15C61.0469 12.6333 61.1479 13 61.333 13.25C61.5181 13.5 61.8042 13.6166 62.1577 13.6166C62.5784 13.6166 62.9655 13.5166 63.3357 13.3166V14.1166C63.1674 14.2166 62.9991 14.2833 62.7972 14.3166C62.5952 14.35 62.3933 14.4 62.124 14.4Z" fill="white"/>
        <path d="M68.1991 14.3333H67.2735V11.6667C67.2735 11.3333 67.2062 11.0833 67.0716 10.9167C66.937 10.75 66.7182 10.6667 66.4321 10.6667C66.045 10.6667 65.7589 10.7833 65.5738 11.0167C65.3887 11.25 65.3045 11.6333 65.3045 12.1667V14.3333H64.3789V8.25H65.3045V9.8C65.3045 10.05 65.2877 10.3167 65.254 10.6H65.3213C65.456 10.4 65.6243 10.2333 65.843 10.1167C66.0618 10 66.3311 9.95 66.634 9.95C67.6943 9.95 68.216 10.4833 68.216 11.5333V14.3333H68.1991Z" fill="white"/>
        <path d="M11.9055 10.4166H8.38818C8.40501 10.5 8.43867 10.5833 8.4555 10.65C8.57331 11.05 8.64062 11.4666 8.67428 11.9C8.69111 12.0666 8.69111 12.25 8.69111 12.4166C8.69111 12.5833 8.69111 12.7666 8.67428 12.9333C8.64062 13.3666 8.57331 13.7833 8.4555 14.1833C8.43867 14.2666 8.40501 14.35 8.38818 14.4166H11.9055C13.0162 14.4166 13.9082 13.5166 13.9082 12.4166C13.9082 11.3166 13.0162 10.4166 11.9055 10.4166Z" fill="#00A9E5"/>
        <path d="M8.67429 12.9333C8.69112 12.7666 8.69112 12.5833 8.69112 12.4166C8.69112 12.25 8.69112 12.0666 8.67429 11.9C8.64063 11.4666 8.57332 11.05 8.45551 10.65C8.43868 10.5666 8.40502 10.4833 8.38819 10.4166H2.95234C2.75039 11.05 2.64941 11.7166 2.64941 12.4166C2.64941 13.1166 2.75039 13.7833 2.95234 14.4166H8.38819C8.40502 14.3333 8.43868 14.25 8.45551 14.1833C8.57332 13.7833 8.64063 13.3666 8.67429 12.9333Z" fill="#353535"/>
        <path d="M12.5111 15.0834H8.13552C8.00089 15.3834 7.84943 15.6667 7.68113 15.9334C7.42869 16.35 7.12577 16.7167 6.78918 17.0667C6.67138 17.1834 6.55357 17.2834 6.43577 17.4C6.20016 17.6167 5.93089 17.8 5.66162 17.9834C6.72187 18.6834 8.00089 19.0834 9.36406 19.0834C11.7033 19.0834 13.7565 17.9 14.9682 16.1167C14.3455 15.4834 13.4704 15.0834 12.5111 15.0834Z" fill="#00BFB3"/>
        <path d="M7.68118 15.9334C7.84947 15.6667 8.00093 15.3834 8.13557 15.0834H3.20459C3.7263 16.2667 4.58459 17.2834 5.67849 17.9834C5.94776 17.8 6.2002 17.6167 6.45264 17.4C6.57044 17.3 6.68825 17.1834 6.80605 17.0667C7.12581 16.7334 7.42874 16.35 7.68118 15.9334Z" fill="#019B8F"/>
        <path d="M6.78945 7.76664C6.67165 7.64998 6.55384 7.54998 6.43604 7.43331C6.20043 7.21664 5.93116 7.03331 5.66189 6.84998C4.58482 7.54998 3.72652 8.56664 3.18799 9.74998H8.11896C7.98433 9.44998 7.83287 9.16664 7.66457 8.89998C7.42896 8.48331 7.12604 8.09998 6.78945 7.76664Z" fill="#F9B110"/>
        <path d="M9.36406 5.75C8.00089 5.75 6.72187 6.15 5.66162 6.85C5.93089 7.03333 6.18333 7.21667 6.43577 7.43333C6.55357 7.53333 6.67138 7.65 6.78918 7.76667C7.12577 8.11667 7.42869 8.48333 7.68113 8.9C7.84943 9.16667 8.00089 9.45 8.13552 9.75H12.5111C13.4704 9.75 14.3455 9.35 14.9682 8.71667C13.7565 6.93333 11.7033 5.75 9.36406 5.75Z" fill="#FED10A"/>
    </g>
    <defs>
        <clipPath id="clip0_2665_1400">
            <rect width="69" height="15" fill="white" transform="translate(1 5)"/>
        </clipPath>
    </defs>
</svg>
