<svg width="73" height="24" viewBox="0 0 73 24" fill="none" xmlns="http://www.w3.org/2000/svg">
<g clip-path="url(#clip0_4092_1852)">
<path fill-rule="evenodd" clip-rule="evenodd" d="M8.54906 14.9345L4.52066 14.9473L3.83919 16.8447C3.8153 16.9112 3.75224 16.9556 3.6816 16.9556H2.52147C2.46696 16.9556 2.41587 16.929 2.3845 16.8845C2.35314 16.8399 2.34544 16.7828 2.36385 16.7315L5.75015 7.29838C5.77404 7.23187 5.83709 7.1875 5.90774 7.1875H7.15149C7.22219 7.1875 7.28523 7.23187 7.30908 7.29838L10.6954 16.7315C10.7138 16.7828 10.7061 16.8399 10.6748 16.8845C10.6434 16.929 10.5923 16.9556 10.5378 16.9556H9.38813C9.31734 16.9556 9.25421 16.9111 9.2304 16.8444C9.2304 16.8444 8.67753 15.2947 8.56697 14.9847L8.54906 14.9345ZM8.54753 14.9295C8.54753 14.9301 8.54766 14.9306 8.54784 14.9312L8.55261 14.9345C8.55261 14.9345 8.55297 14.9334 8.55347 14.9319C8.55288 14.9303 8.55261 14.9295 8.55261 14.9295H8.54753ZM7.95906 13.2796L6.53508 9.30722L5.1111 13.2911C5.25281 13.2905 7.43747 13.2817 7.88607 13.2799L7.95906 13.2796Z" fill="#E6E6E6"/>
<path fill-rule="evenodd" clip-rule="evenodd" d="M12.7161 16.9503H11.6292C11.5395 16.9503 11.4668 16.8776 11.4668 16.7879V7.35479C11.4668 7.2651 11.5395 7.19238 11.6292 7.19238H12.7161C12.7708 7.19238 12.8217 7.21988 12.8518 7.26551L17.4242 14.211V7.35479C17.4242 7.2651 17.4968 7.19238 17.5866 7.19238H18.6735C18.7632 7.19238 18.8359 7.2651 18.8359 7.35479V16.7879C18.8359 16.8776 18.7632 16.9503 18.6735 16.9503H17.5866C17.5319 16.9503 17.481 16.9229 17.4509 16.8772L12.8785 9.93167V16.7879C12.8785 16.8776 12.8058 16.9503 12.7161 16.9503Z" fill="#E6E6E6"/>
<path fill-rule="evenodd" clip-rule="evenodd" d="M22.9196 13.0855L19.6285 7.43651C19.5993 7.38629 19.5991 7.32423 19.6281 7.27383C19.657 7.22348 19.7107 7.19238 19.7688 7.19238H21.0648C21.1223 7.19238 21.1755 7.22276 21.2047 7.27226L23.6251 11.374L26.0356 7.27248C26.0648 7.22285 26.118 7.19238 26.1756 7.19238H27.4716C27.5297 7.19238 27.5834 7.22343 27.6124 7.27383C27.6414 7.32423 27.6412 7.38624 27.612 7.43646L24.3313 13.0719V16.7879C24.3313 16.8776 24.2586 16.9503 24.1689 16.9503H23.082C22.9923 16.9503 22.9196 16.8776 22.9196 16.7879V13.0855Z" fill="#E6E6E6"/>
<path fill-rule="evenodd" clip-rule="evenodd" d="M47.256 16.9503H46.1688C46.0792 16.9503 46.0063 16.8776 46.0063 16.7879V7.35479C46.0063 7.2651 46.0792 7.19238 46.1688 7.19238H49.9731C50.9077 7.19238 51.5827 7.43264 52.0053 7.89159C52.4238 8.34618 52.6438 9.07707 52.6438 10.0904C52.6438 11.2494 52.3455 12.0516 51.7749 12.5082C52.3045 12.8924 52.5813 13.5695 52.5813 14.5509V16.7879C52.5813 16.8776 52.5088 16.9503 52.4188 16.9503H51.3312C51.2416 16.9503 51.1687 16.8776 51.1687 16.7879V14.6145C51.1687 14.1753 51.081 13.8545 50.883 13.6588C50.6845 13.4631 50.3686 13.3754 49.9411 13.3754H47.4184V16.7879C47.4184 16.8776 47.3455 16.9503 47.256 16.9503ZM47.4184 11.7203H49.9105C50.3767 11.7203 50.7192 11.6168 50.9307 11.3884C51.1458 11.1558 51.2425 10.7796 51.2425 10.2656C51.2425 9.76112 51.1462 9.39189 50.9316 9.1641C50.7201 8.93942 50.3772 8.83781 49.9105 8.83781H47.4184V11.7203Z" fill="#E6E6E6"/>
<path fill-rule="evenodd" clip-rule="evenodd" d="M53.9085 7.19238H54.9957C55.0853 7.19238 55.1577 7.2651 55.1577 7.35479V12.8316C55.1577 13.8259 55.1406 15.56 57.3785 15.56C59.6163 15.56 59.5992 13.8262 59.5992 12.8316V7.35479C59.5992 7.2651 59.6717 7.19238 59.7612 7.19238H60.8484C60.938 7.19238 61.0109 7.2651 61.0109 7.35479V13.3055C61.0109 14.8187 60.519 17.0685 57.3785 17.0685C54.2379 17.0685 53.7461 14.8188 53.7461 13.3055V7.35479C53.7461 7.2651 53.819 7.19238 53.9085 7.19238Z" fill="#E6E6E6"/>
<path fill-rule="evenodd" clip-rule="evenodd" d="M63.4377 16.9503H62.3505C62.2609 16.9503 62.1885 16.8776 62.1885 16.7879V7.35479C62.1885 7.2651 62.2609 7.19238 62.3505 7.19238H63.4377C63.4921 7.19238 63.5434 7.21988 63.5731 7.26551L68.1456 14.211V7.35479C68.1456 7.2651 68.2185 7.19238 68.308 7.19238H69.3948C69.4848 7.19238 69.5572 7.2651 69.5572 7.35479V16.7879C69.5572 16.8776 69.4848 16.9503 69.3948 16.9503H68.308C68.2536 16.9503 68.2023 16.9229 68.1726 16.8772L63.6001 9.93167V16.7879C63.6001 16.8776 63.5272 16.9503 63.4377 16.9503Z" fill="#E6E6E6"/>
<path d="M43.9061 9.63459L33.0894 2.86527C32.7616 2.6738 32.4279 2.59187 32.094 2.77243C31.8139 2.92802 31.6763 3.30088 31.6763 3.63851V16.6424L33.0919 15.7542V4.52209L42.5888 10.4634L41.901 10.8937L43.2432 11.7385L43.9245 11.3102C44.1969 11.1416 44.3965 10.801 44.3965 10.4634C44.3965 10.1258 44.1797 9.80604 43.9061 9.63459Z" fill="#00BAF5"/>
<path d="M43.9269 12.8302L33.6693 6.41113V8.09476L42.5835 13.6726L33.0876 19.6157V18.7555L31.6772 19.6384V20.4971C31.6772 20.8341 31.8411 21.1854 32.1218 21.3399C32.4987 21.5472 32.9537 21.3546 33.0876 21.2719L43.9104 14.5032C44.1782 14.3318 44.3964 13.984 44.3964 13.6469C44.3964 13.3099 44.1982 12.9987 43.9269 12.8302Z" fill="#00BAF5"/>
<path d="M39.4971 12.3945L30.3811 18.1049V6.03827L31.1004 6.49272V4.80174L30.3811 4.34006C30.104 4.18153 29.6742 4.16744 29.4059 4.34006C29.1375 4.51268 28.9673 4.84095 28.9673 5.17738V18.9859C28.9673 19.3235 28.9713 19.7005 29.4059 19.9113C29.7928 20.0992 30.2505 19.8538 30.3832 19.7716L40.8467 13.2378L39.4971 12.3945Z" fill="#00BAF5"/>
</g>
<defs>
<clipPath id="clip0_4092_1852">
<rect width="72" height="24" fill="white" transform="translate(0.0151367)"/>
</clipPath>
</defs>
</svg>
