<svg xmlns="http://www.w3.org/2000/svg" xmlns:xlink="http://www.w3.org/1999/xlink" width="316.4053" height="70.8407" viewBox="0 0 316.4053 70.8407"><defs><style>.a{fill:none;}.b{clip-path:url(#a);}.c{fill:url(#b);}.d{fill:#173159;}</style><clipPath id="a" transform="translate(0 0)"><path class="a" d="M2.6905,52.7609,16.3339,44.86l13.7009,7.8885.02,15.763Zm15.4033-8.92,12.7935-7.3932,12.8088,7.3932L30.9206,51.2224Zm13.7036,8.91,28.2287-16.307V52.2169L31.8191,68.5124ZM17.2132,27.5376l12.7909-7.41V34.9218L17.2132,42.315Zm14.556,7.3829V20.1252l12.8114,7.3983V42.3188ZM1.7664,19.67l13.6843,7.8719V43.3351l-13.6434,7.9Zm.8793-1.527L30.0041,2.327V18.09L16.33,26.0118Zm29.1235-.0538V2.327L59.1058,18.1105,45.4625,25.9978ZM30.511,0,.4416,17.3822.375,17.418,0,18.067.0461,52.766V52.84l.3776.65,30.08,17.3118.0653.0384.7475-.0013,30.0322-17.35.0653-.0371.3751-.6489V34.7516l-1.18-.68L46.3444,42.3111v-14.79l15.1076-8.73V17.4283L31.3276.0384,31.2623,0Z"/></clipPath><linearGradient id="b" x1="198.0001" y1="-136.2453" x2="199.2801" y2="-136.2453" gradientTransform="matrix(0, 51.3303, 51.3303, 0, 7024.4053, -10161.3781)" gradientUnits="userSpaceOnUse"><stop offset="0" stop-color="#4ac7f4"/><stop offset="0.05" stop-color="#4ac7f4"/><stop offset="0.8" stop-color="#2b3383"/><stop offset="1" stop-color="#2b3383"/></linearGradient></defs><title>Asset 1</title><g class="b"><rect class="c" width="61.7886" height="70.8407"/></g><path class="d" d="M89.0542,50.0048H85.978V60.3524h-2.52V50.0048H80.4321V47.911h8.6221Z" transform="translate(0 0)"/><path class="d" d="M93.1743,51.9189a2.3885,2.3885,0,0,1,1.9316-.9825,2.2426,2.2426,0,0,1,1.9224.8887,4.47,4.47,0,0,1,.6665,2.6484v5.8789H95.268V54.4989a2.1117,2.1117,0,0,0-.2519-1.1748.9262.9262,0,0,0-.8164-.3633,1.1438,1.1438,0,0,0-1.0254.6075v6.7841h-2.418V47.2274h2.418Z" transform="translate(0 0)"/><path class="d" d="M103.2509,60.5233a3.79,3.79,0,0,1-2.9052-1.11,4.4694,4.4694,0,0,1-1.0425-3.1787v-.7354a5.2563,5.2563,0,0,1,.957-3.375,3.317,3.317,0,0,1,2.7427-1.1875,3.1416,3.1416,0,0,1,2.6235,1.1133,5.3139,5.3139,0,0,1,.897,3.2979v1.1855h-4.81a2.5126,2.5126,0,0,0,.4531,1.5059,1.53,1.53,0,0,0,1.2387.4765,2.7184,2.7184,0,0,0,2.025-.8291l.9487,1.461a3.1276,3.1276,0,0,1-1.29.9961A4.4362,4.4362,0,0,1,103.2509,60.5233ZM101.73,54.85h2.4185v-.2217a2.5914,2.5914,0,0,0-.2734-1.2568.9522.9522,0,0,0-.8887-.4268,1.0063,1.0063,0,0,0-.919.4532A3.1163,3.1163,0,0,0,101.73,54.85Z" transform="translate(0 0)"/><path class="d" d="M115.542,60.3524H113.03V47.911h2.5123Z" transform="translate(0 0)"/><path class="d" d="M117.3838,55.4481a6.0361,6.0361,0,0,1,.7685-3.3925,2.5469,2.5469,0,0,1,2.2393-1.1192,2.1592,2.1592,0,0,1,1.7773.9229V47.2274h2.4351v13.125h-2.1958l-.1114-.9394a2.2277,2.2277,0,0,1-1.914,1.11,2.5246,2.5246,0,0,1-2.2173-1.11,5.8375,5.8375,0,0,1-.7817-3.2647Zm2.4267.6065a4.4248,4.4248,0,0,0,.29,1.91,1.0248,1.0248,0,0,0,.983.5419,1.18,1.18,0,0,0,1.0854-.6406V53.6444a1.1543,1.1543,0,0,0-1.0771-.6836,1.04,1.04,0,0,0-.9737.5391,4.1888,4.1888,0,0,0-.3076,1.9141Z" transform="translate(0 0)"/><path class="d" d="M130.2026,60.5233a3.7906,3.7906,0,0,1-2.9053-1.11,4.4694,4.4694,0,0,1-1.0425-3.1787v-.7354a5.2563,5.2563,0,0,1,.9571-3.375,3.3169,3.3169,0,0,1,2.7427-1.1875,3.1416,3.1416,0,0,1,2.6235,1.1133,5.3152,5.3152,0,0,1,.897,3.2979v1.1855h-4.8106a2.514,2.514,0,0,0,.4531,1.5059,1.53,1.53,0,0,0,1.2388.4765,2.718,2.718,0,0,0,2.0249-.8291l.9487,1.461a3.1263,3.1263,0,0,1-1.2905.9961A4.4361,4.4361,0,0,1,130.2026,60.5233Zm-1.521-5.6738H131.1v-.2217a2.5925,2.5925,0,0,0-.2735-1.2568.9522.9522,0,0,0-.8886-.4268,1.0062,1.0062,0,0,0-.919.4532A3.1163,3.1163,0,0,0,128.6816,54.85Z" transform="translate(0 0)"/><path class="d" d="M137.4931,51.1073l.0684.9141a2.5644,2.5644,0,0,1,2.145-1.085q2.3834,0,2.4522,3.3409v6.0751h-2.4268V54.4569a2.1263,2.1263,0,0,0-.2349-1.1406.9158.9158,0,0,0-.8247-.3555,1.1294,1.1294,0,0,0-1.0254.6758v6.7158H135.22V51.1073Z" transform="translate(0 0)"/><path class="d" d="M147.1421,48.8339v2.2734h1.2392v1.8116h-1.2392v4.5957a1.3549,1.3549,0,0,0,.1494.7529.6761.6761,0,0,0,.5771.2051,2.2562,2.2562,0,0,0,.5723-.06l-.0171,1.88a3.7779,3.7779,0,0,1-1.333.23q-2.3417,0-2.3667-2.6855V52.9189h-1.0684V51.1073h1.0684V48.8339Z" transform="translate(0 0)"/><path class="d" d="M150.143,48.7148a1.25,1.25,0,0,1,.3594-.9229,1.454,1.454,0,0,1,1.9141,0,1.2492,1.2492,0,0,1,.3584.9229,1.3162,1.3162,0,1,1-2.6319,0Zm2.5381,11.6376h-2.4267V51.1073h2.4267Z" transform="translate(0 0)"/><path class="d" d="M157.8012,48.8339v2.2734h1.2393v1.8116h-1.2393v4.5957a1.3549,1.3549,0,0,0,.1494.7529.6763.6763,0,0,0,.5772.2051,2.2562,2.2562,0,0,0,.5723-.06l-.0171,1.88a3.7779,3.7779,0,0,1-1.333.23q-2.3417,0-2.3667-2.6855V52.9189h-1.0684V51.1073h1.0684V48.8339Z" transform="translate(0 0)"/><path class="d" d="M163.7671,56.328l1.23-5.2207h2.5806l-3.042,10.63q-.6841,2.35-2.5723,2.35a3.6149,3.6149,0,0,1-.9912-.1621V62.036l.2822.0088a1.3959,1.3959,0,0,0,.85-.2177,1.3672,1.3672,0,0,0,.4317-.7569l.188-.624-2.666-9.3389h2.5976Z" transform="translate(0 0)"/><path class="d" d="M178.5454,57.0888a1.56,1.56,0,0,0-.3887-1.1494,4.4878,4.4878,0,0,0-1.4141-.8077,6.5793,6.5793,0,0,1-2.6919-1.6621,3.34,3.34,0,0,1-.82-2.2519,3.1542,3.1542,0,0,1,1.1153-2.5244,4.6313,4.6313,0,0,1,4.8745-.47,3.35,3.35,0,0,1,1.38,1.3623,4.0926,4.0926,0,0,1,.483,2H178.58a2.066,2.066,0,0,0-.3716-1.3291,1.3035,1.3035,0,0,0-1.0728-.457,1.3446,1.3446,0,0,0-1.0254.3887,1.4646,1.4646,0,0,0-.3672,1.0469,1.2868,1.2868,0,0,0,.41.9267,4.7021,4.7021,0,0,0,1.4526.8594,6.2264,6.2264,0,0,1,2.6446,1.6142,3.6,3.6,0,0,1,.8247,2.4356,3.2107,3.2107,0,0,1-1.0342,2.5381,4.0929,4.0929,0,0,1-2.811.914,4.8429,4.8429,0,0,1-2.1958-.4951,3.7145,3.7145,0,0,1-1.5513-1.4189,4.1212,4.1212,0,0,1-.56-2.1787h2.521a2.3746,2.3746,0,0,0,.4185,1.5634,1.7118,1.7118,0,0,0,1.3672.4874Q178.5449,58.4814,178.5454,57.0888Z" transform="translate(0 0)"/><path class="d" d="M186.4428,60.5233a3.79,3.79,0,0,1-2.9052-1.11,4.4689,4.4689,0,0,1-1.0425-3.1787v-.7354a5.2563,5.2563,0,0,1,.957-3.375,3.317,3.317,0,0,1,2.7427-1.1875,3.1416,3.1416,0,0,1,2.6235,1.1133,5.3145,5.3145,0,0,1,.897,3.2979v1.1855h-4.8106a2.5133,2.5133,0,0,0,.4532,1.5059,1.53,1.53,0,0,0,1.2387.4765,2.718,2.718,0,0,0,2.0249-.8291l.9488,1.461a3.1273,3.1273,0,0,1-1.2906.9961A4.4354,4.4354,0,0,1,186.4428,60.5233Zm-1.521-5.6738H187.34v-.2217a2.5914,2.5914,0,0,0-.2734-1.2568.9522.9522,0,0,0-.8887-.4268,1.0063,1.0063,0,0,0-.919.4532A3.1163,3.1163,0,0,0,184.9218,54.85Z" transform="translate(0 0)"/><path class="d" d="M194.686,58.5155q1.051,0,1.0679-1.3672h2.2734a3.3974,3.3974,0,0,1-.9316,2.4434,3.161,3.161,0,0,1-2.3584.9316,3.3707,3.3707,0,0,1-2.7256-1.11,5.0128,5.0128,0,0,1-.957-3.2734v-.7344a5.1753,5.1753,0,0,1,.9267-3.3242,3.3176,3.3176,0,0,1,2.7388-1.1446,3.1323,3.1323,0,0,1,2.41.9444,3.8423,3.8423,0,0,1,.8975,2.6787h-2.2734a2.4234,2.4234,0,0,0-.2559-1.1963.8784.8784,0,0,0-.82-.419.9787.9787,0,0,0-.9063.4483,3.83,3.83,0,0,0-.29,1.7392v.9395a7.5449,7.5449,0,0,0,.1108,1.5771,1.1875,1.1875,0,0,0,.3677.6582A1.1183,1.1183,0,0,0,194.686,58.5155Z" transform="translate(0 0)"/><path class="d" d="M204.3779,59.5067a2.3821,2.3821,0,0,1-2.0171,1.0166,2.2639,2.2639,0,0,1-1.9307-.8759,4.194,4.194,0,0,1-.6582-2.5508V51.1073h2.418v6.05q.0176,1.3506.898,1.35a1.2483,1.2483,0,0,0,1.1962-.7177V51.1073H206.72v9.2451h-2.2734Z" transform="translate(0 0)"/><path class="d" d="M213.4463,53.4394l-.8038-.0684a1.3186,1.3186,0,0,0-1.3408.8721v6.1093H208.874V51.1073h2.2822l.0684.9991a1.75,1.75,0,0,1,1.581-1.17,1.7054,1.7054,0,0,1,.666.11Z" transform="translate(0 0)"/><path class="d" d="M215.122,48.7148a1.25,1.25,0,0,1,.3594-.9229,1.454,1.454,0,0,1,1.9141,0,1.2492,1.2492,0,0,1,.3584.9229,1.3162,1.3162,0,1,1-2.6319,0ZM217.66,60.3524h-2.4267V51.1073H217.66Z" transform="translate(0 0)"/><path class="d" d="M222.6933,48.8339v2.2734h1.2393v1.8116h-1.2393v4.5957a1.3549,1.3549,0,0,0,.1494.7529.6762.6762,0,0,0,.5772.2051,2.2562,2.2562,0,0,0,.5723-.06l-.0176,1.88a3.7725,3.7725,0,0,1-1.3321.23q-2.3423,0-2.3671-2.6855V52.9189H219.207V51.1073h1.0684V48.8339Z" transform="translate(0 0)"/><path class="d" d="M228.747,56.328l1.23-5.2207h2.58l-3.042,10.63q-.6841,2.35-2.5723,2.35a3.612,3.612,0,0,1-.9912-.1621V62.036l.2822.0088a1.3986,1.3986,0,0,0,.8506-.2177,1.3731,1.3731,0,0,0,.4317-.7569l.1875-.624-2.6661-9.3389h2.5977Z" transform="translate(0 0)"/><path class="d" d="M246.7031,56.2079a4.6482,4.6482,0,0,1-1.1963,3.2217,4.2246,4.2246,0,0,1-3.11,1.0937,3.9187,3.9187,0,0,1-3.2343-1.3886,6.1494,6.1494,0,0,1-1.1231-3.96V53.081a5.992,5.992,0,0,1,1.1621-3.9522,4.5954,4.5954,0,0,1,6.3184-.2519,5.1755,5.1755,0,0,1,1.2012,3.2636h-2.5215a3.3543,3.3543,0,0,0-.4053-1.8154,1.6028,1.6028,0,0,0-1.3633-.5,1.5238,1.5238,0,0,0-1.4267.7051,4.9206,4.9206,0,0,0-.4444,2.32V55.2a5.4178,5.4178,0,0,0,.4141,2.5459,1.5224,1.5224,0,0,0,1.4228.6924,1.6437,1.6437,0,0,0,1.3672-.4824,3.1871,3.1871,0,0,0,.4278-1.7481Z" transform="translate(0 0)"/><path class="d" d="M248.11,55.4306a5.0179,5.0179,0,0,1,.9922-3.2979,3.7612,3.7612,0,0,1,5.502,0,5.0474,5.0474,0,0,1,.9921,3.3154v.5889a5.0292,5.0292,0,0,1-.9834,3.2988,3.7918,3.7918,0,0,1-5.5156-.0039A5.0455,5.0455,0,0,1,248.11,56.02Zm2.4277.6064q0,2.4786,1.3243,2.4785,1.2216,0,1.3154-2.0683l.0088-1.0166a3.89,3.89,0,0,0-.3506-1.875,1.0909,1.0909,0,0,0-.9912-.6114,1.0632,1.0632,0,0,0-.9609.6114,3.9324,3.9324,0,0,0-.3458,1.875Z" transform="translate(0 0)"/><path class="d" d="M259.5488,51.1073l.0684.8545a2.6,2.6,0,0,1,2.1445-1.0254,1.9961,1.9961,0,0,1,1.957,1.2471,2.5334,2.5334,0,0,1,2.2647-1.2471q2.4256,0,2.4863,3.3575v6.0585h-2.418V54.4481a2.1959,2.1959,0,0,0-.2226-1.1455.8291.8291,0,0,0-.752-.3418c-.45,0-.7861.2774-1.0078.8291l.0166.2911v6.2714h-2.418V54.4648a2.32,2.32,0,0,0-.2138-1.1485.8158.8158,0,0,0-.7608-.3555,1.1081,1.1081,0,0,0-.9912.6758v6.7158h-2.418V51.1073Z" transform="translate(0 0)"/><path class="d" d="M277.8964,56.02a6.1936,6.1936,0,0,1-.748,3.3408,2.4735,2.4735,0,0,1-2.2266,1.1621,2.15,2.15,0,0,1-1.81-.914v4.2978h-2.419v-12.8h2.2393l.085.8457a2.17,2.17,0,0,1,1.8886-1.0166,2.5311,2.5311,0,0,1,2.2256,1.0762,5.9154,5.9154,0,0,1,.7656,3.2988Zm-2.41-.6064a4.3731,4.3731,0,0,0-.2949-1.8975,1.036,1.036,0,0,0-.9951-.5557,1.15,1.15,0,0,0-1.085.6241v4.332a1.1485,1.1485,0,0,0,1.1016.5986,1.0035,1.0035,0,0,0,.996-.6064,4.8135,4.8135,0,0,0,.2774-1.8887Z" transform="translate(0 0)"/><path class="d" d="M284.1865,60.3524a3.3484,3.3484,0,0,1-.2051-.7177,2.0682,2.0682,0,0,1-1.7607.8886,2.6046,2.6046,0,0,1-1.9268-.7685,2.7031,2.7031,0,0,1-.7646-1.9912,2.797,2.797,0,0,1,.9267-2.2471,4.0557,4.0557,0,0,1,2.6709-.8125h.7344v-.7432a1.399,1.399,0,0,0-.2129-.88.7668.7668,0,0,0-.624-.2569q-.9068,0-.9063,1.06H279.7a2.6761,2.6761,0,0,1,.9609-2.1143,3.58,3.58,0,0,1,2.4316-.833,3.2865,3.2865,0,0,1,2.3536.79,2.9662,2.9662,0,0,1,.833,2.26v4.35a4.56,4.56,0,0,0,.3418,1.8711v.1455ZM282.76,58.6269a1.3492,1.3492,0,0,0,.6836-.1631,1.1371,1.1371,0,0,0,.418-.3838V56.1571H283.28a1.2408,1.2408,0,0,0-.97.3926,1.5136,1.5136,0,0,0-.3545,1.0518Q281.956,58.6269,282.76,58.6269Z" transform="translate(0 0)"/><path class="d" d="M290.6826,51.1073l.0683.9141a2.5631,2.5631,0,0,1,2.1446-1.085q2.3832,0,2.4521,3.3409v6.0751h-2.4267V54.4569a2.1173,2.1173,0,0,0-.2354-1.1406.9138.9138,0,0,0-.8242-.3555,1.13,1.13,0,0,0-1.0254.6758v6.7158h-2.4268V51.1073Z" transform="translate(0 0)"/><path class="d" d="M300.4853,56.328l1.2305-5.2207h2.58l-3.042,10.63q-.6841,2.35-2.5723,2.35a3.612,3.612,0,0,1-.9912-.1621V62.036l.2822.0088a1.3986,1.3986,0,0,0,.8506-.2177,1.3731,1.3731,0,0,0,.4316-.7569l.1875-.624-2.666-9.3389h2.5977Z" transform="translate(0 0)"/><path class="d" d="M313.3155,13.6076c0,.37-.2579.6291-.7407.6291H311.62v-1.27h.9323c.4714,0,.7633.2135.7633.64m.9663-.0567c0-.8983-.6622-1.4264-1.6965-1.4264h-1.9205V16.449h.9551V15.0566h.7519l.9219,1.3924h1.1118l-1.056-1.55a1.3462,1.3462,0,0,0,.9323-1.348m1.6512.8426a3.5948,3.5948,0,1,1-3.583-3.6065,3.5791,3.5791,0,0,1,3.583,3.6065m.4723,0a4.0666,4.0666,0,1,0-4.0779,4.0779,4.039,4.039,0,0,0,4.0779-4.0779" transform="translate(0 0)"/><path class="d" d="M267.9392,19.6259c0,2.2742-1.6564,3.8157-4.5476,3.8157H257.38V15.6953h5.8964c2.89,0,4.6626,1.3105,4.6626,3.854Zm6.8218,17.6892-6.59-9.6344a8.3785,8.3785,0,0,0,5.7805-8.3632v-.0767c0-5.55-3.8157-8.9025-10.1739-8.9025h-12.333V37.3151H257.38V28.6827h4.6626l5.7813,8.6324ZM236.3416,26.0234h-7.1677l3.5838-8.7484Zm10.7907,11.2917-11.561-27.1694h-5.4729L218.5365,37.3151h6.0506l2.4668-6.0506h11.4077l2.4667,6.0506Zm-51.98-13.2183V13.1518h8.3239c4.355,0,6.8985,2.0041,6.8985,5.3179v.0775c0,3.468-2.89,5.55-6.9368,5.55Zm-3.0445,13.2183h3.0445V26.8328h7.707l7.8239,10.4823h3.738l-8.2856-11.0216c4.2391-.7712,7.3219-3.3913,7.3219-7.8622v-.0767a7.4508,7.4508,0,0,0-2.0808-5.3187,10.6366,10.6366,0,0,0-7.6695-2.6976H192.1077Zm-25.61,0h19.6933V34.5408h-16.648V25.0989h14.7214V22.3236H169.5433v-9.211h16.4554V10.3383H166.498Zm-25.3457-2.736V25.06h8.5165c4.7018,0,7.1686,1.6957,7.1686,4.6252v.0766c0,3.0062-2.5435,4.8177-6.6292,4.8177Zm0-12.2171V13.0743h8.208c3.854,0,5.974,1.734,5.974,4.3933v.0776c0,3.16-2.5435,4.8168-6.2049,4.8168Zm-3.0062,14.9531h11.9854c5.8964,0,9.7887-2.736,9.7887-7.36v-.0776c0-3.7-2.5818-5.55-5.78-6.5133a6.5113,6.5113,0,0,0,4.2774-6.2432v-.0767a5.99,5.99,0,0,0-1.734-4.3166,9.9084,9.9084,0,0,0-7.0526-2.3892H138.1461Zm-19.404,0h3.0829V26.6019L133.04,10.3383h-3.5455l-9.1726,13.4884-9.0951-13.4884h-3.7L118.7421,26.64Zm-24.7993.4627a14.0473,14.0473,0,0,0,10.7907-4.74l-2.0041-1.9658c-2.5818,2.4668-5.01,3.8923-8.71,3.8923-5.9347,0-10.4439-4.8943-10.4439-11.1375V23.75c0-6.2048,4.4709-11.0608,10.4439-11.0608a11.7262,11.7262,0,0,1,8.4791,3.7l2.0808-2.235A14.0369,14.0369,0,0,0,94.0586,9.8756c-7.94,0-13.6426,6.3207-13.6426,13.9511v.0775c0,7.7463,5.7422,13.8736,13.5268,13.8736" transform="translate(0 0)"/><polygon class="d" points="304.439 37.315 292.955 21.784 303.938 10.338 296.77 10.338 285.825 22.131 285.825 10.338 279.89 10.338 279.89 37.315 285.825 37.315 285.825 29.068 288.946 25.831 297.31 37.315 304.439 37.315"/></svg>