<svg width="72" height="24" viewBox="0 0 72 24" fill="none" xmlns="http://www.w3.org/2000/svg">
<g clip-path="url(#clip0_2791_383)">
<path d="M15.1316 4.27202C14.9445 4.51576 14.7834 4.77692 14.6398 5.05113C15.445 5.65613 15.9543 6.63111 15.9543 7.74971C15.9543 8.85526 15.4494 9.81283 14.6572 10.4222C14.8052 10.692 14.9706 10.9532 15.1578 11.1969C16.2851 10.4788 17.0207 9.21653 17.0207 7.74971C17.0207 6.26549 16.2764 4.99455 15.1316 4.27202ZM15.5147 7.74536C15.5234 6.86615 15.1316 6.02175 14.4526 5.46027C13.8433 6.91838 13.852 8.55494 14.4657 10.0087C15.136 9.45156 15.5234 8.62023 15.5147 7.74536ZM17.3558 2.50488C17.0424 2.63981 16.7464 2.80956 16.4635 3.00107C17.3689 3.60173 18.0783 4.45918 18.5049 5.46027C18.8139 5.29487 19.1534 5.19476 19.5016 5.16865C19.0489 4.09792 18.3047 3.17518 17.3558 2.50488ZM17.3863 8.58976C17.173 9.79977 16.4722 10.8661 15.445 11.5408C15.6496 11.7715 15.8759 11.9848 16.1197 12.1806C17.0381 11.6017 17.7519 10.7443 18.148 9.73448C17.7824 9.43851 17.5168 9.03807 17.3863 8.58976ZM18.5266 9.97822C18.1088 10.988 17.4037 11.8498 16.4983 12.4592C16.7813 12.6507 17.0859 12.8161 17.3993 12.951C18.3482 12.272 19.0881 11.3362 19.5364 10.2611C19.1839 10.2394 18.84 10.1436 18.5266 9.97822ZM16.0805 3.28399C15.8411 3.47986 15.6148 3.69313 15.4102 3.92817C16.4374 4.59411 17.1469 5.65613 17.3689 6.86179C17.4994 6.41348 17.7606 6.01304 18.1175 5.71272C17.7171 4.70728 17.0032 3.85853 16.0805 3.28399Z" fill="#0080FF"/>
<path d="M27.9937 17.6126C27.9937 17.3297 28.2592 17.1948 28.5639 17.1948C28.886 17.1948 29.1602 17.334 29.2994 17.6387L30.0133 17.2426C29.7391 16.7247 29.208 16.4287 28.5639 16.4287C27.7717 16.4287 27.1362 16.8901 27.1362 17.6257C27.1362 19.0228 29.2385 18.6311 29.2385 19.3319C29.2385 19.6409 28.9469 19.7671 28.5769 19.7671C28.146 19.7671 27.837 19.5538 27.7108 19.2056L26.9839 19.6278C27.232 20.1893 27.7978 20.5419 28.5769 20.5419C29.4213 20.5419 30.096 20.1197 30.096 19.3362C30.096 17.8912 27.9937 18.3221 27.9937 17.6126Z" fill="white"/>
<path d="M34.8968 18.4918C34.8968 17.3689 34.0959 16.4287 32.9381 16.4287C31.715 16.4287 30.875 17.3297 30.875 18.4831C30.875 19.654 31.7107 20.5419 32.999 20.5419C33.7651 20.5419 34.3483 20.2241 34.7096 19.6888L34.0132 19.2796C33.8304 19.5495 33.4778 19.7628 33.0078 19.7628C32.381 19.7628 31.8935 19.4537 31.7586 18.8444H34.8663C34.8881 18.7269 34.8968 18.6093 34.8968 18.4918ZM31.7499 18.1567C31.8674 17.5691 32.2983 17.1948 32.9251 17.1948C33.4343 17.1948 33.9261 17.4864 34.0437 18.1567H31.7499Z" fill="white"/>
<path d="M38.8442 19.1099C38.6614 19.4668 38.274 19.7105 37.8083 19.7105C37.1206 19.7105 36.5983 19.1882 36.5983 18.4788C36.5983 17.7693 37.1206 17.2557 37.8083 17.2557C38.274 17.2557 38.6614 17.4951 38.8312 17.8563L39.558 17.4342C39.249 16.8248 38.5787 16.4287 37.817 16.4287C36.6418 16.4287 35.7539 17.321 35.7539 18.4831C35.7539 19.6453 36.6375 20.5419 37.8127 20.5419C38.5787 20.5419 39.2447 20.1414 39.5711 19.5234L38.8442 19.1099Z" fill="white"/>
<path d="M43.1926 16.5332V18.6268C43.1926 19.4277 42.7573 19.7541 42.2002 19.7541C41.6692 19.7541 41.3254 19.4407 41.3254 18.8488V16.5332H40.481V18.9315C40.481 19.95 41.1034 20.5419 41.9826 20.5419C42.5136 20.5419 42.9358 20.3417 43.1926 19.9413V20.4418H44.0326V16.5376H43.1926V16.5332Z" fill="white"/>
<path d="M46.2174 17.1904V16.5331H45.373V20.4417H46.2174V18.47C46.2174 17.5995 46.866 17.3384 47.4187 17.3775V16.4678C46.9313 16.4635 46.4525 16.655 46.2174 17.1904Z" fill="white"/>
<path d="M48.4028 16.5332V20.4418H49.2472V16.5332H48.4028Z" fill="white"/>
<path d="M52.7554 17.3427V16.5288H51.7891V15.4363L50.9447 15.6887V16.5331H50.2222V17.3471H50.9447V19.2187C50.9447 20.2371 51.4583 20.5941 52.7554 20.4374V19.68C52.1155 19.7148 51.7891 19.7192 51.7891 19.2187V17.3471L52.7554 17.3427Z" fill="white"/>
<path d="M56.5855 16.5332L55.5888 19.3667L54.4223 16.5288H53.5039L55.1579 20.3678L55.1187 20.4461C54.9228 20.9641 54.6269 21.247 54.0784 21.2122V22C54.9794 22.0566 55.6192 21.556 55.9849 20.568L57.4865 16.5332H56.5855Z" fill="white"/>
<path d="M33.4735 2.08276V5.76503C32.1329 5.5474 30.2221 6.09147 30.2221 8.23728V13.1296H26.9751V2.30039H28.8119C29.443 2.30039 29.9958 2.71824 30.1699 3.3276C30.9925 2.53108 32.1633 2.12194 33.3081 2.08712C33.3124 2.08712 33.3168 2.08712 33.3168 2.08712C33.369 2.08276 33.4212 2.08276 33.4735 2.08276Z" fill="white"/>
<path d="M19.7366 2C19.0924 2 18.4526 2.10446 17.8389 2.31338C18.8008 3.05332 19.5407 4.04135 19.9847 5.16866C21.273 5.28183 22.2306 6.26551 22.2306 7.71491C22.2306 9.1469 21.2861 10.1306 20.0108 10.2568C19.5712 11.3885 18.8356 12.3852 17.8824 13.1338C18.4787 13.3341 19.1055 13.4342 19.7366 13.4342C22.9227 13.4342 25.4776 10.9402 25.4776 7.71491C25.4776 4.48966 22.9227 2 19.7366 2Z" fill="white"/>
<path d="M42.2613 9.07299C41.8391 9.83033 41.0469 10.283 40.1067 10.283C38.6965 10.283 37.6127 9.2645 37.6127 7.72805C37.6127 6.1916 38.6965 5.1731 40.1067 5.1731C41.0338 5.1731 41.826 5.61706 42.2526 6.3657L45.0338 4.75525C44.0328 3.09258 42.2047 2.00879 40.1067 2.00879C36.9207 2.00879 34.3657 4.5028 34.3657 7.72805C34.3657 10.9533 36.9207 13.4473 40.1067 13.4473C42.2177 13.4473 44.0545 12.3548 45.0513 10.666L42.2613 9.07299Z" fill="white"/>
<path d="M55.689 2.30033C55.0579 2.30033 54.5051 2.71817 54.3266 3.32318C53.5998 2.49619 52.5203 2 51.0492 2C48.2113 2 45.8696 4.48966 45.8696 7.71491C45.8696 10.9402 48.2113 13.4298 51.0492 13.4298C52.5203 13.4298 53.5998 12.938 54.331 12.1066C54.5095 12.7116 55.0622 13.1295 55.6934 13.1295H57.5301V2.30033H55.689ZM51.6281 10.2699C50.2178 10.2699 49.1384 9.25136 49.1384 7.71491C49.1384 6.17846 50.2178 5.16431 51.6281 5.16431C53.0383 5.16431 54.1221 6.18281 54.1221 7.71491C54.1221 9.24701 53.0383 10.2699 51.6281 10.2699Z" fill="white"/>
</g>
<defs>
<clipPath id="clip0_2791_383">
<rect width="43.5256" height="20" fill="white" transform="translate(14 2)"/>
</clipPath>
</defs>
</svg>
