<svg width="73" height="25" viewBox="0 0 73 25" fill="none" xmlns="http://www.w3.org/2000/svg">
<g clip-path="url(#clip0_4092_1714)">
<g clip-path="url(#clip1_4092_1714)">
<path d="M10.8779 8.92334H13.1114C14.4921 8.92334 15.2231 9.71869 15.2231 10.8908C15.2231 11.728 14.7967 12.2303 14.0861 12.5233L15.4465 15.0768H14.2282L12.8881 12.5233H11.9541V15.0768H10.8779V8.92334ZM12.949 11.5815C13.7409 11.5815 14.1064 11.3512 14.1064 10.7233C14.1064 10.1792 13.7409 9.8652 12.9287 9.8652H11.9338V11.6024L12.949 11.5815Z" fill="#FDFDFD"/>
<path d="M19.9541 12.6907C19.9541 11.2884 20.7866 10.3047 22.0861 10.3047C23.1825 10.3047 23.9338 10.9535 24.015 11.9582H22.9998C22.9389 11.4977 22.5531 11.1628 22.1064 11.1838C21.4566 11.1838 21.0302 11.7489 21.0302 12.6698C21.0302 13.5907 21.4566 14.1768 22.1064 14.1768C22.5531 14.1977 22.9389 13.8628 22.9998 13.4024H24.015C23.9338 14.3861 23.2231 15.0768 22.1064 15.0768C20.746 15.0768 19.9541 14.0931 19.9541 12.6907Z" fill="#FDFDFD"/>
<path d="M24.2793 12.6907C24.2793 11.2675 25.1118 10.3047 26.4316 10.3047C27.7514 10.3047 28.5839 11.2675 28.5839 12.6907C28.5839 14.114 27.7514 15.0768 26.4316 15.0768C25.1118 15.0768 24.2793 14.114 24.2793 12.6907ZM27.4874 12.6907C27.4874 11.8535 27.1219 11.1628 26.4113 11.1628C25.7006 11.1628 25.3351 11.8326 25.3351 12.6907C25.3351 13.5489 25.6803 14.1977 26.4113 14.1977C27.1422 14.1977 27.4874 13.5489 27.4874 12.6907Z" fill="#FDFDFD"/>
<path d="M28.868 10.4514H29.8832V11.2258H29.9238C30.0659 10.7235 30.5126 10.3676 31.0202 10.3886C31.1421 10.3886 31.2639 10.4095 31.406 10.4095V11.4142C31.2436 11.3723 31.0812 11.3514 30.9187 11.3514C30.3908 11.3095 29.9441 11.7281 29.9035 12.2723V12.356V15.0769H28.8477L28.868 10.4514Z" fill="#FDFDFD"/>
<path d="M31.5073 12.7745C31.5073 11.2257 32.3195 10.4094 33.355 10.4094C33.9033 10.3885 34.4109 10.7024 34.6342 11.2257H34.6748V8.92334H35.7307V15.0768H34.6951V14.3443H34.6342C34.4718 14.6792 34.1266 15.0768 33.355 15.0768C32.3195 15.0768 31.5073 14.3024 31.5073 12.7745ZM34.7154 12.7745C34.7154 11.8745 34.35 11.3094 33.6596 11.3094C32.9693 11.3094 32.6038 11.9164 32.6038 12.7745C32.6038 13.6326 32.9693 14.2815 33.6596 14.2815C34.35 14.2815 34.7154 13.6745 34.7154 12.7745Z" fill="#FDFDFD"/>
<path d="M40.7256 12.7745C40.7256 11.2257 41.5378 10.4094 42.5733 10.4094C43.1215 10.3885 43.6291 10.7024 43.8525 11.2257H43.8931V8.92334H44.9489V15.0768H43.9134V14.3443H43.8525C43.6901 14.6792 43.3449 15.0768 42.5733 15.0768C41.5175 15.0768 40.7256 14.3024 40.7256 12.7745ZM43.9134 12.7745C43.9134 11.8745 43.5479 11.3094 42.8576 11.3094C42.1672 11.3094 41.8017 11.9164 41.8017 12.7745C41.8017 13.6326 42.1672 14.2815 42.8576 14.2815C43.5479 14.2815 43.9134 13.6745 43.9134 12.7745Z" fill="#FDFDFD"/>
<path d="M47.3452 8.92334H51.1828V9.8652H48.4417V11.5815H50.9188V12.5233H48.4214V15.0768H47.3452V8.92334Z" fill="#FDFDFD"/>
<path d="M54.2689 10.4512H55.3247V15.0558H54.3095V14.2395H54.2689C54.0659 14.7628 53.5989 15.0558 52.9288 15.0558C52.0557 15.0558 51.4263 14.4907 51.4263 13.3814V10.4512H52.4821V13.214C52.4821 13.8 52.8273 14.1768 53.3349 14.1768C53.8628 14.1768 54.2892 13.7372 54.2892 13.193C54.2892 13.1721 54.2892 13.1512 54.2892 13.1302L54.2689 10.4512Z" fill="#FDFDFD"/>
<path d="M58.2281 11.3093H57.3347V13.6954C57.3347 14.1349 57.5377 14.2395 57.822 14.2395C57.9235 14.2395 58.0251 14.2186 58.1266 14.1977L58.3093 15.0558C58.1063 15.1186 57.9032 15.1605 57.6799 15.1605C56.888 15.1814 56.2789 14.7628 56.2789 13.8837V11.3093H55.6494V10.4721H56.2789V9.36279H57.3347V10.4721H58.2281V11.3093Z" fill="#FDFDFD"/>
<path d="M61.5585 10.4512H62.6143V15.0558H61.5991V14.2395H61.5382C61.3351 14.7628 60.8681 15.0558 60.1981 15.0558C59.325 15.0558 58.7158 14.4907 58.7158 13.3814V10.4512H59.7717V13.214C59.7717 13.8 60.1168 14.1768 60.6244 14.1768C61.1524 14.1768 61.5788 13.7372 61.5788 13.193C61.5788 13.1721 61.5788 13.1512 61.5788 13.1302L61.5585 10.4512Z" fill="#FDFDFD"/>
<path d="M63.284 10.4514H64.2992V11.2258H64.3398C64.4819 10.7235 64.9286 10.3676 65.4363 10.3886C65.5581 10.3886 65.7002 10.4095 65.822 10.4095V11.4142C65.6596 11.3723 65.4972 11.3514 65.3347 11.3514C64.8068 11.3095 64.3601 11.7281 64.3195 12.2723V12.356V15.0769H63.2637L63.284 10.4514Z" fill="#FDFDFD"/>
<path d="M70.0454 9.86494C70.0454 9.29982 70.4921 8.83936 71.0403 8.83936C71.5886 8.83936 72.0353 9.29982 72.0353 9.86494C72.0353 10.4301 71.5886 10.8905 71.0403 10.8905C70.4718 10.8905 70.0454 10.4301 70.0454 9.86494ZM71.8322 9.86494C71.8322 9.40447 71.4667 9.02773 71.02 9.02773C70.5733 9.02773 70.2079 9.40447 70.2079 9.86494C70.2079 10.3254 70.5733 10.7021 71.02 10.7021C71.4667 10.7021 71.8322 10.3254 71.8322 9.86494ZM70.6952 9.38354H71.1419C71.3043 9.38354 71.4261 9.50912 71.4261 9.67656C71.4261 9.78122 71.3652 9.9068 71.2637 9.94866L71.4667 10.3254H71.284L71.1216 9.99052H70.8779V10.3254H70.7155L70.6952 9.38354ZM71.0809 9.84401C71.1622 9.84401 71.2434 9.76029 71.2434 9.67656C71.2434 9.67656 71.2434 9.67656 71.2434 9.65563C71.2434 9.57191 71.1825 9.48819 71.1013 9.48819H71.0809H70.8576V9.82308H71.0809V9.84401Z" fill="#FDFDFD"/>
<path d="M65.8428 12.7952C65.8428 11.372 66.6753 10.4092 67.9544 10.4092C69.0509 10.4092 70.0052 11.1208 70.0052 12.7324V13.0673H66.8783C66.8783 13.8627 67.3453 14.2394 68.0154 14.2394C68.4621 14.2394 68.8275 14.1348 68.9697 13.7371H70.0052C69.8225 14.5324 69.1321 15.0976 68.0154 15.0976C66.6753 15.0766 65.8428 14.2394 65.8428 12.7952ZM68.99 12.3348C69.0103 11.7696 68.6042 11.2882 68.056 11.2464C68.0357 11.2464 68.0154 11.2464 67.9748 11.2464C67.3859 11.2464 66.8986 11.7278 66.8986 12.3348H68.99Z" fill="#FDFDFD"/>
<path d="M36.1978 12.7952C36.1978 11.372 37.0302 10.4092 38.3094 10.4092C39.4059 10.4092 40.3602 11.1208 40.3602 12.7324V13.0673H37.2333C37.2333 13.8627 37.7003 14.2394 38.3703 14.2394C38.817 14.2394 39.1825 14.1348 39.3247 13.7371H40.3602C40.1774 14.5324 39.4871 15.0976 38.3703 15.0976C37.0302 15.0766 36.1978 14.2394 36.1978 12.7952ZM39.345 12.3348C39.3653 11.7696 38.9592 11.2882 38.411 11.2464C38.3906 11.2464 38.3703 11.2464 38.3297 11.2464C37.7409 11.2464 37.2536 11.7278 37.2536 12.3348H39.345Z" fill="#FDFDFD"/>
<path d="M15.4873 12.7952C15.4873 11.372 16.3198 10.4092 17.599 10.4092C18.6954 10.4092 19.6497 11.1208 19.6497 12.7324V13.0673H16.5431C16.5431 13.8627 17.0101 14.2394 17.6802 14.2394C18.1269 14.2394 18.4924 14.1348 18.6345 13.7371H19.67C19.4873 14.5324 18.7969 15.0976 17.6802 15.0976C16.3198 15.0766 15.4873 14.2394 15.4873 12.7952ZM18.6548 12.3348C18.6751 11.7696 18.269 11.2882 17.7208 11.2464C17.7005 11.2464 17.6802 11.2464 17.6396 11.2464C17.0508 11.2464 16.5634 11.7278 16.5634 12.3348H18.6548Z" fill="#FDFDFD"/>
<path fill-rule="evenodd" clip-rule="evenodd" d="M4.68519 11.3511C4.31971 11.3511 4.01514 11.665 4.01514 12.0418C4.01514 12.4185 4.31971 12.7325 4.68519 12.7325C5.05067 12.7325 5.35524 12.4185 5.35524 12.0418C5.35524 11.665 5.05067 11.3511 4.68519 11.3511Z" fill="#FDFDFD"/>
<path fill-rule="evenodd" clip-rule="evenodd" d="M8.64466 11.3511C8.27918 11.3511 7.97461 11.665 7.97461 12.0418C7.97461 12.4185 8.27918 12.7325 8.64466 12.7325C9.01014 12.7325 9.31471 12.4185 9.31471 12.0418C9.31471 11.665 9.01014 11.3511 8.64466 11.3511Z" fill="#FDFDFD"/>
<path fill-rule="evenodd" clip-rule="evenodd" d="M0.685187 11.3511C0.319705 11.3511 0.0151367 11.665 0.0151367 12.0418C0.0151367 12.4185 0.319705 12.7325 0.685187 12.7325C1.05067 12.7325 1.35524 12.4185 1.35524 12.0418C1.35524 11.665 1.05067 11.3511 0.685187 11.3511Z" fill="#FDFDFD"/>
<path fill-rule="evenodd" clip-rule="evenodd" d="M4.1167 15.9142V13.884C4.1167 13.57 4.36035 13.3188 4.66492 13.3188C4.96949 13.3188 5.21315 13.57 5.21315 13.884V15.9142C5.21315 16.2282 4.96949 16.4793 4.66492 16.4793C4.36035 16.5002 4.1167 16.2491 4.1167 15.9142Z" fill="#FDFDFD"/>
<path fill-rule="evenodd" clip-rule="evenodd" d="M6.10665 14.8881V9.19511C6.08635 8.88116 6.33 8.60906 6.63457 8.58813C6.93914 8.5672 7.2031 8.81837 7.2234 9.13232V9.19511V14.8672V14.8881C7.2031 15.2021 6.93914 15.4323 6.63457 15.4323C6.35031 15.4114 6.12696 15.1812 6.10665 14.8881Z" fill="#FDFDFD"/>
<path fill-rule="evenodd" clip-rule="evenodd" d="M2.12695 14.8885V9.19549C2.12695 8.88153 2.37061 8.63037 2.67518 8.63037C2.97975 8.63037 3.2234 8.88153 3.2234 9.19549V14.8676V14.8885C3.2234 15.2025 2.97975 15.4536 2.67518 15.4536C2.37061 15.4536 2.12695 15.2025 2.12695 14.8885Z" fill="#FDFDFD"/>
<path fill-rule="evenodd" clip-rule="evenodd" d="M4.1167 10.0953V8.06512C4.1167 7.75116 4.36035 7.5 4.66492 7.5C4.96949 7.5 5.21315 7.75116 5.21315 8.06512V10.0953V10.1163C5.21315 10.4302 4.96949 10.6814 4.66492 10.6814C4.36035 10.6814 4.1167 10.4302 4.1167 10.0953Z" fill="#FDFDFD"/>
</g>
</g>
<defs>
<clipPath id="clip0_4092_1714">
<rect width="72" height="24" fill="white" transform="translate(0.0151367 0.5)"/>
</clipPath>
<clipPath id="clip1_4092_1714">
<rect width="72" height="9" fill="white" transform="translate(0.0151367 7.5)"/>
</clipPath>
</defs>
</svg>
