<svg width="72" height="24" viewBox="0 0 72 24" fill="none" xmlns="http://www.w3.org/2000/svg">
    <path d="M24.009 9.01196L20.8706 7.96017V3.40238L24.0128 4.33731L24.009 9.01196Z" fill="#F68D11"/>
    <path d="M24.8276 4.33731L27.9699 3.40238L27.9589 7.95701L24.8276 9.01196V4.33731Z" fill="#F68D11"/>
    <path d="M27.3297 2.90884L24.4011 1.99997L21.5107 2.90884L24.4053 3.68799L27.3297 2.90884Z" fill="#F68D11"/>
    <path d="M31.9226 9.01196L28.7842 7.96017V3.40238L31.9264 4.33731L31.9226 9.01196Z" fill="#F68D11"/>
    <path d="M32.7412 4.33731L35.8835 3.40238L35.8725 7.95701L32.7412 9.01196V4.33731Z" fill="#F68D11"/>
    <path d="M35.2433 2.90884L32.3147 1.99997L29.4243 2.90884L32.3189 3.68799L35.2433 2.90884Z" fill="#F68D11"/>
    <path d="M12.1422 10.9987L9 10.0638V14.6215L12.1384 15.6733L12.1422 10.9987Z" fill="#F68D11"/>
    <path d="M12.957 10.9987L16.0993 10.0638L16.0884 14.6185L12.957 15.6733V10.9987Z" fill="#F68D11"/>
    <path d="M15.4591 9.57022L12.5305 8.66135L9.64014 9.57022L12.5348 10.3494L15.4591 9.57022Z" fill="#F68D11"/>
    <path d="M20.052 15.6733L16.9136 14.6215V10.0638L20.0558 10.9987L20.052 15.6733Z" fill="#F68D11"/>
    <path d="M20.8706 10.9987L24.0128 10.0638L24.0019 14.6185L20.8706 15.6733V10.9987Z" fill="#F68D11"/>
    <path d="M23.3727 9.57022L20.4441 8.66135L17.5537 9.57022L20.4483 10.3494L23.3727 9.57022Z" fill="#F68D11"/>
    <path d="M16.0955 22.3347L12.957 21.2829V16.7251L16.0993 17.6601L16.0955 22.3347Z" fill="#F68D11"/>
    <path d="M16.9136 17.6601L20.0558 16.7251L20.0449 21.2799L16.9136 22.3347V17.6601Z" fill="#F68D11"/>
    <path d="M19.4156 16.2316L16.4871 15.3227L13.5967 16.2316L16.4913 17.0107L19.4156 16.2316Z" fill="#F68D11"/>
    <path d="M29.9937 18.3058L29.7628 18.3066C29.6781 18.3066 29.5701 18.3641 29.5436 18.4572L28.8431 20.9354L28.1503 18.4626C28.1295 18.3851 28.0567 18.3066 27.9578 18.3066H27.6844C27.586 18.3066 27.5142 18.3862 27.4943 18.4642L26.8497 20.9113L26.1838 18.4566C26.1575 18.3669 26.0468 18.3066 25.96 18.3066L25.6278 18.306C25.5568 18.306 25.4908 18.3366 25.4554 18.3859C25.4314 18.4194 25.4248 18.4572 25.4359 18.4902L26.4647 22.1476C26.4873 22.2245 26.5537 22.302 26.6507 22.302H26.9811C27.0704 22.302 27.1486 22.2367 27.1712 22.144L27.8044 19.7077L28.4935 22.1468C28.5142 22.2215 28.5809 22.302 28.6784 22.302H29.0035C29.0939 22.302 29.17 22.2389 29.1923 22.1465L30.1826 18.4917C30.1943 18.4565 30.1875 18.4174 30.1639 18.3844C30.1291 18.3359 30.0639 18.3058 29.9937 18.3058Z" fill="#FAFAFA"/>
    <path d="M32.8509 19.8586H31.1054C31.1455 19.3667 31.4636 18.8567 32.0024 18.8371C32.5758 18.8559 32.8382 19.3542 32.8509 19.8586ZM32.0012 18.2796C30.8221 18.2796 30.2852 19.3264 30.2852 20.2988C30.2852 21.5125 30.9527 22.2966 31.9858 22.2966C32.7252 22.2966 33.2888 21.9215 33.5323 21.2661C33.5453 21.2286 33.5412 21.188 33.5208 21.1515C33.4961 21.1072 33.449 21.0738 33.3934 21.0615L33.0662 20.9986C32.9783 20.9848 32.8776 21.0371 32.8443 21.1129C32.6854 21.4771 32.3956 21.6837 32.0319 21.6944C31.6819 21.6836 31.3606 21.4748 31.2134 21.1629C31.0938 20.9082 31.0761 20.657 31.0741 20.4017L33.4437 20.4008C33.4934 20.4008 33.5448 20.3789 33.5811 20.3419C33.6115 20.3113 33.628 20.2733 33.6277 20.2351C33.6219 19.2897 33.1916 18.2796 32.0012 18.2796Z" fill="#FAFAFA"/>
    <path d="M36.5427 20.3046C36.5427 20.5285 36.5023 21.6466 35.7113 21.6752C35.4461 21.665 35.1782 21.5086 35.0286 21.2772C34.9184 21.1022 34.854 20.8603 34.8375 20.561V19.9032C34.8504 19.3992 35.2036 18.8462 35.7087 18.8248C36.5024 18.8563 36.5427 20.0629 36.5427 20.3046ZM35.8353 18.2456H35.7726C35.3812 18.2456 35.0736 18.4089 34.8375 18.7435L34.8371 17.2017C34.8371 17.1151 34.7481 17.0362 34.6498 17.0362H34.309C34.22 17.0362 34.1203 17.107 34.1201 17.2017V22.0147C34.1205 22.1021 34.2095 22.1816 34.3077 22.1816L34.4078 22.181C34.5023 22.181 34.5696 22.1046 34.5923 22.0335L34.6989 21.6938C34.9465 22.047 35.3195 22.2544 35.7187 22.2544H35.7798C36.8313 22.2544 37.3019 21.2274 37.3019 20.2096C37.3019 19.703 37.1775 19.2186 36.9607 18.8806C36.7101 18.489 36.2788 18.2456 35.8353 18.2456Z" fill="#FAFAFA"/>
    <path d="M41.0333 20.1963C40.8117 20.0364 40.5453 19.983 40.2785 19.9295L39.7667 19.8342C39.3996 19.7736 39.1871 19.6747 39.1871 19.3493C39.1871 19.0054 39.542 18.8739 39.843 18.8658C40.2105 18.8751 40.4869 19.0397 40.6211 19.3294C40.653 19.3976 40.7236 19.4435 40.797 19.4435C40.8096 19.4435 40.8224 19.4421 40.8345 19.4395L41.1539 19.3686C41.206 19.3571 41.2546 19.3212 41.2807 19.2745C41.3015 19.2375 41.3061 19.1971 41.2936 19.1609C41.0982 18.5894 40.6021 18.2873 39.8516 18.2873C39.1734 18.2888 38.4487 18.5916 38.4487 19.4373C38.4487 20.0153 38.8105 20.3824 39.5246 20.5285L40.0974 20.6381C40.4118 20.6986 40.7334 20.8061 40.7334 21.1451C40.7334 21.647 40.1517 21.6982 39.9759 21.7019C39.5813 21.6933 39.1347 21.5166 39.0262 21.1424C39.0045 21.0602 38.9013 21.002 38.8109 21.0209L38.4769 21.0901C38.4266 21.1007 38.3807 21.1335 38.3539 21.1778C38.3314 21.2148 38.325 21.2561 38.3354 21.2939C38.5077 21.9148 39.1047 22.2892 39.9321 22.2955L39.9505 22.2957C40.6895 22.2957 41.4791 21.9779 41.4791 21.0864C41.4791 20.7236 41.3166 20.3991 41.0333 20.1963Z" fill="#FAFAFA"/>
    <path d="M44.4116 19.8622H42.6657C42.7056 19.3698 43.0237 18.8596 43.5625 18.8409C44.1357 18.8591 44.3983 19.3574 44.4116 19.8622ZM43.5616 18.283C42.3823 18.283 41.8452 19.3298 41.8452 20.3022C41.8452 21.5158 42.5129 22.2998 43.5461 22.2998C44.2856 22.2998 44.8492 21.9246 45.0929 21.2694C45.1058 21.2318 45.1017 21.1911 45.0813 21.1545C45.0565 21.1102 45.0093 21.0768 44.9538 21.0647L44.6261 21.0019C44.5494 20.9894 44.4425 21.0292 44.4047 21.1163C44.2457 21.4802 43.9558 21.6868 43.5924 21.698C43.2421 21.6868 42.9209 21.4781 42.7743 21.1663C42.6544 20.9121 42.6366 20.6608 42.6348 20.4048L45.0042 20.4042C45.0536 20.4042 45.1046 20.3824 45.141 20.3457C45.1715 20.3149 45.188 20.2768 45.1876 20.2385C45.1822 19.2931 44.7523 18.283 43.5616 18.283Z" fill="#FAFAFA"/>
    <path d="M47.4248 18.3276C47.3786 18.3225 47.3342 18.32 47.291 18.32C46.8933 18.32 46.5704 18.5371 46.3462 18.9519L46.347 18.5886C46.3467 18.5007 46.2593 18.4234 46.16 18.4234H45.8641C45.767 18.4234 45.6813 18.501 45.6806 18.5901L45.6802 22.1186C45.6802 22.2072 45.7658 22.2849 45.8636 22.2849L46.2089 22.2848C46.2987 22.2848 46.3999 22.214 46.4007 22.1186L46.4009 20.3397C46.4009 20.0463 46.4281 19.8253 46.5677 19.5639C46.767 19.1915 47.0454 19.0088 47.4188 19.0059C47.5123 19.0052 47.5945 18.9231 47.5945 18.8302V18.5002C47.5945 18.4138 47.5199 18.338 47.4248 18.3276Z" fill="#FAFAFA"/>
    <path d="M51.0501 18.2582L50.7774 18.2583C50.692 18.2583 50.5825 18.3199 50.5559 18.4103L49.672 21.1999L48.7694 18.413C48.7427 18.3205 48.633 18.2583 48.5471 18.2583L48.1577 18.258C48.0862 18.258 48.0171 18.29 47.9817 18.3394C47.958 18.3725 47.9515 18.41 47.9632 18.445L49.1986 22.1251C49.2223 22.1979 49.2853 22.283 49.3849 22.283H49.8561C49.9426 22.283 50.0135 22.2238 50.0459 22.1247L51.2442 18.4462C51.2562 18.4113 51.2498 18.3737 51.2262 18.3405C51.1905 18.2906 51.1215 18.2582 51.0501 18.2582Z" fill="#FAFAFA"/>
    <path d="M51.9461 16.8437C51.695 16.8437 51.4907 17.0494 51.4907 17.3024C51.4907 17.5554 51.695 17.761 51.9461 17.761C52.1974 17.761 52.4019 17.5554 52.4019 17.3024C52.4019 17.0494 52.1974 16.8437 51.9461 16.8437Z" fill="#FAFAFA"/>
    <path d="M52.1336 18.2357L51.7597 18.2353C51.658 18.2353 51.5653 18.318 51.5653 18.4085L51.5635 22.1552C51.5635 22.2005 51.5868 22.2455 51.627 22.2789C51.6639 22.3093 51.711 22.3268 51.7584 22.3268L52.135 22.3274H52.1352C52.2385 22.3265 52.3291 22.2461 52.3291 22.1554V18.4085C52.3291 18.3165 52.2377 18.2357 52.1336 18.2357Z" fill="#FAFAFA"/>
    <path d="M55.6282 20.7764L55.316 20.7776C55.2288 20.7776 55.1557 20.8302 55.1232 20.9215C55.0092 21.4156 54.7508 21.6717 54.3591 21.683C53.5961 21.6602 53.5369 20.5923 53.5369 20.2656C53.5369 19.6139 53.7616 18.9107 54.389 18.8922C54.7677 18.9038 55.0432 19.1765 55.1258 19.6208C55.1414 19.7115 55.2108 19.7801 55.3055 19.792L55.6396 19.7953C55.7395 19.7844 55.8178 19.7086 55.8171 19.6145C55.6988 18.8115 55.1448 18.2925 54.4042 18.2925L54.3786 18.2932L54.3497 18.2925C53.2727 18.2925 52.7905 19.3019 52.7905 20.3021C52.7905 21.2192 53.197 22.29 54.3436 22.29H54.3985C55.1206 22.29 55.6656 21.7818 55.8216 20.9578C55.8251 20.9185 55.8116 20.8792 55.7839 20.8473C55.7481 20.806 55.6909 20.7795 55.6282 20.7764Z" fill="#FAFAFA"/>
    <path d="M58.7117 19.8622H56.9655C57.0054 19.3697 57.3236 18.8596 57.8628 18.8409C58.4361 18.8591 58.6986 19.3574 58.7117 19.8622ZM57.8616 18.283C56.6825 18.283 56.1455 19.3298 56.1455 20.3022C56.1455 21.5158 56.8132 22.2998 57.8464 22.2998C58.5855 22.2998 59.1489 21.9249 59.3928 21.2695C59.4055 21.2318 59.4013 21.1909 59.381 21.1545C59.3558 21.1099 59.3101 21.0772 59.2536 21.0647L58.9264 21.0019C58.8494 20.9894 58.7427 21.0292 58.705 21.1163C58.5455 21.4802 58.2555 21.6868 57.8922 21.6982C57.5421 21.6868 57.221 21.4781 57.0743 21.1663C56.9543 20.9117 56.9365 20.6604 56.9347 20.4048L59.3043 20.4044C59.3541 20.4044 59.4055 20.3824 59.442 20.3453C59.4722 20.3144 59.4885 20.2762 59.4879 20.2385C59.4825 19.2931 59.0524 18.283 57.8616 18.283Z" fill="#FAFAFA"/>
    <path d="M62.4567 20.1963C62.2348 20.0363 61.968 19.9829 61.7017 19.9295L61.1899 19.8342C60.8231 19.7736 60.6107 19.6747 60.6107 19.3493C60.6107 18.9057 61.159 18.8686 61.2659 18.8658C61.6338 18.8751 61.9102 19.0397 62.0442 19.3295C62.0763 19.3977 62.1471 19.4435 62.2207 19.4435C62.2334 19.4435 62.2461 19.4421 62.2584 19.4395L62.5775 19.3686C62.6297 19.3571 62.6782 19.321 62.7043 19.2744C62.725 19.2374 62.7295 19.1971 62.7171 19.1609C62.5219 18.5894 62.0256 18.2873 61.2748 18.2873C60.5969 18.2888 59.8724 18.5916 59.8724 19.4373C59.8724 20.0155 60.234 20.3826 60.948 20.5285L61.521 20.6381C61.8355 20.6986 62.157 20.8061 62.157 21.1451C62.157 21.647 61.5754 21.6982 61.3995 21.7019C61.0338 21.694 60.5656 21.5423 60.45 21.1429C60.4288 21.0602 60.3258 21.002 60.2338 21.0209L59.9003 21.0901C59.8498 21.1008 59.8037 21.1339 59.777 21.1783C59.7547 21.2153 59.7483 21.2564 59.7588 21.2939C59.9307 21.9148 60.5275 22.2892 61.3551 22.2955L61.3735 22.2957C62.1126 22.2957 62.9023 21.9779 62.9023 21.0864C62.9023 20.7233 62.7399 20.3988 62.4567 20.1963Z" fill="#FAFAFA"/>
    <path fill-rule="evenodd" clip-rule="evenodd" d="M47.256 11.0225V10.1717C47.2565 10.0427 47.354 9.95606 47.4711 9.95617L51.2668 9.95606C51.3879 9.95606 51.4857 10.0448 51.4857 10.1707V10.9003C51.4845 11.0225 51.3818 11.1821 51.1998 11.4357L49.2338 14.2546C49.9632 14.2372 50.7355 14.3469 51.3984 14.7212C51.5482 14.8055 51.588 14.9307 51.6002 15.0529V15.9607C51.6002 16.0859 51.4638 16.2306 51.3207 16.1552C50.1523 15.5405 48.6018 15.4734 47.3097 16.1623C47.1778 16.233 47.0396 16.0906 47.0396 15.9654V15.1028C47.0396 14.9652 47.0423 14.7288 47.1807 14.5182L49.4588 11.2368L47.4756 11.2363C47.3542 11.2363 47.2572 11.1496 47.256 11.0225Z" fill="#FAFAFA"/>
    <path fill-rule="evenodd" clip-rule="evenodd" d="M33.4097 16.334H32.2547C32.1449 16.3268 32.0571 16.2436 32.0483 16.1376L32.0492 10.1859C32.0492 10.0668 32.149 9.97168 32.2719 9.97168L33.3474 9.9711C33.46 9.97741 33.5501 10.0627 33.5578 10.1709V10.9486H33.5792C33.8592 10.1968 34.3874 9.84663 35.0988 9.84663C35.8209 9.84663 36.2737 10.1968 36.5971 10.9486C36.8776 10.1968 37.5134 9.84663 38.1931 9.84663C38.6781 9.84663 39.2057 10.0467 39.5291 10.4973C39.8956 10.9986 39.82 11.7245 39.82 12.3635L39.8193 16.1196C39.8193 16.2383 39.7196 16.334 39.5968 16.334H38.4435C38.3274 16.3268 38.236 16.2337 38.236 16.1201V12.9646C38.236 12.7143 38.2573 12.0878 38.2035 11.8501C38.1171 11.4489 37.8582 11.3369 37.5246 11.3369C37.244 11.3369 36.9528 11.5247 36.8342 11.8246C36.7157 12.1257 36.7267 12.6266 36.7267 12.9646V16.1196C36.7267 16.2383 36.6269 16.334 36.5039 16.334H35.3504C35.2348 16.3268 35.1432 16.2337 35.1432 16.1201L35.1417 12.9646C35.1417 12.3008 35.2498 11.3243 34.4307 11.3243C33.6007 11.3243 33.6331 12.2759 33.6331 12.9646L33.6324 16.1196C33.6328 16.2383 33.533 16.334 33.4097 16.334Z" fill="#FAFAFA"/>
    <path fill-rule="evenodd" clip-rule="evenodd" d="M54.7635 11.061C53.9115 11.061 53.8579 12.2256 53.8579 12.9523C53.8579 13.6786 53.8472 15.2314 54.7531 15.2314C55.6479 15.2314 55.6909 13.979 55.6909 13.2151C55.6909 12.7143 55.6696 12.1133 55.5186 11.6373C55.3889 11.2238 55.1304 11.061 54.7635 11.061ZM54.7531 9.8466C56.4669 9.8466 57.3941 11.3243 57.3941 13.2022C57.3941 15.0186 56.3696 16.459 54.7531 16.459C53.0713 16.459 52.1548 14.9809 52.1548 13.1399C52.1548 11.2864 53.0816 9.8466 54.7531 9.8466Z" fill="#FAFAFA"/>
    <path fill-rule="evenodd" clip-rule="evenodd" d="M59.6169 16.334H58.4662C58.3503 16.3268 58.259 16.2337 58.259 16.1201L58.2573 10.1657C58.2669 10.0572 58.3628 9.97168 58.4787 9.97168L59.5502 9.9711C59.6512 9.9767 59.7341 10.0457 59.7552 10.1379V11.0486H59.7771C60.1001 10.2344 60.5531 9.84663 61.3505 9.84663C61.868 9.84663 62.3749 10.034 62.6981 10.5476C62.9998 11.0233 62.9998 11.8246 62.9998 12.4008V16.1463C62.9869 16.2519 62.8932 16.334 62.7791 16.334H61.6209C61.5141 16.327 61.4282 16.2477 61.4153 16.1463V12.9145C61.4153 12.2633 61.4909 11.3113 60.6929 11.3113C60.4128 11.3113 60.1544 11.4996 60.0249 11.7873C59.863 12.1504 59.8416 12.5135 59.8416 12.9145V16.1196C59.8396 16.2383 59.7398 16.334 59.6169 16.334Z" fill="#FAFAFA"/>
    <path fill-rule="evenodd" clip-rule="evenodd" d="M45.3939 16.3189C45.3173 16.3875 45.2077 16.3921 45.1213 16.3459C44.7378 16.0258 44.6689 15.8774 44.4593 15.5729C43.8254 16.2213 43.3766 16.4158 42.5557 16.4158C41.5831 16.4158 40.8271 15.8132 40.8271 14.6083C40.8271 13.6672 41.3347 13.0271 42.0584 12.7131C42.685 12.4369 43.5602 12.3866 44.2298 12.311V12.1606C44.2298 11.8846 44.2514 11.5582 44.0891 11.3198C43.9491 11.1064 43.679 11.0188 43.441 11.0188C43.0005 11.0188 42.6091 11.2455 42.5128 11.7153C42.4932 11.8196 42.4169 11.9232 42.3123 11.9282L41.1933 11.8065C41.0985 11.7851 40.9937 11.7093 41.021 11.5644C41.2782 10.2006 42.5044 9.78853 43.6034 9.78853C44.1648 9.78853 44.8997 9.93905 45.3427 10.3657C45.9042 10.8931 45.8501 11.5959 45.8501 12.3616V14.1682C45.8501 14.7116 46.075 14.9502 46.2865 15.243C46.3597 15.3487 46.3762 15.4739 46.2822 15.5513C46.0464 15.7498 45.6273 16.115 45.397 16.3215L45.3939 16.3189ZM44.2298 13.4912C44.2298 13.9431 44.2406 14.32 44.0136 14.7214C43.83 15.048 43.5381 15.2486 43.214 15.2486C42.7715 15.2486 42.5123 14.9098 42.5123 14.4075C42.5123 13.4201 43.3947 13.2403 44.2298 13.2403V13.4912Z" fill="#FAFAFA"/>
    <path fill-rule="evenodd" clip-rule="evenodd" d="M30.256 16.3189C30.1797 16.3875 30.0692 16.3921 29.9829 16.3459C29.5994 16.0258 29.5307 15.8774 29.3209 15.5729C28.6873 16.2213 28.2382 16.4158 27.4169 16.4158C26.4447 16.4158 25.6885 15.8132 25.6885 14.6083C25.6885 13.6672 26.1965 13.0271 26.9202 12.7131C27.5469 12.4369 28.422 12.3866 29.0916 12.311V12.1606C29.0916 11.8846 29.1134 11.5582 28.9512 11.3198C28.8108 11.1064 28.5405 11.0188 28.3032 11.0188C27.8627 11.0188 27.4708 11.2455 27.3748 11.7153C27.3548 11.8196 27.2788 11.9232 27.1743 11.9282L26.0548 11.8065C25.9603 11.7851 25.8554 11.7093 25.8825 11.5644C26.1397 10.2006 27.366 9.78853 28.4648 9.78853C29.0269 9.78853 29.7613 9.93905 30.2043 10.3657C30.7661 10.8931 30.7119 11.5959 30.7119 12.3616V14.1682C30.7119 14.7116 30.937 14.9502 31.1478 15.243C31.2214 15.3487 31.238 15.4739 31.1442 15.5513C30.9082 15.7498 30.4889 16.115 30.2587 16.3215L30.256 16.3189ZM29.0916 13.4912C29.0916 13.9431 29.1022 14.32 28.8758 14.7214C28.6922 15.048 28.4001 15.2486 28.0765 15.2486C27.6331 15.2486 27.374 14.9098 27.374 14.4075C27.374 13.4201 28.2562 13.2403 29.0916 13.2403V13.4912Z" fill="#FAFAFA"/>
</svg>
