<svg width="72" height="24" viewBox="0 0 72 24" fill="none" xmlns="http://www.w3.org/2000/svg">
    <g clip-path="url(#clip0_2665_1379)">
        <path d="M71.2181 8.75143H71.2998C71.397 8.75143 71.4456 8.71391 71.4456 8.64329C71.4468 8.62792 71.444 8.6125 71.4374 8.59856C71.4308 8.58463 71.4207 8.57265 71.408 8.56384C71.3731 8.54425 71.333 8.53578 71.2932 8.53956H71.2181V8.76025V8.75143ZM71.556 8.76687C71.5215 8.80268 71.478 8.82859 71.4301 8.84191L71.6289 9.13763H71.4478L71.2821 8.85515H71.2181V9.12881H71.0635V8.42481H71.2843C71.5052 8.42481 71.6134 8.49763 71.6134 8.64549C71.6142 8.66831 71.6102 8.69105 71.6019 8.7123C71.5935 8.73355 71.5809 8.75287 71.5648 8.76908L71.556 8.76687ZM71.5891 9.25681C71.668 9.21522 71.7337 9.15257 71.7791 9.07584C71.8255 8.99168 71.8498 8.89716 71.8498 8.80108C71.8498 8.705 71.8255 8.61048 71.7791 8.52632C71.7346 8.44477 71.668 8.37744 71.5869 8.33212C71.5018 8.28523 71.4058 8.26164 71.3086 8.2637C71.2129 8.262 71.1184 8.2856 71.0348 8.33212C70.9548 8.37814 70.889 8.44535 70.8448 8.52632C70.7984 8.61048 70.7741 8.705 70.7741 8.80108C70.7741 8.89716 70.7984 8.99168 70.8448 9.07584C70.8892 9.15554 70.955 9.22127 71.0348 9.26563C71.1188 9.31121 71.213 9.33475 71.3086 9.33405C71.4057 9.33501 71.5014 9.31148 71.5869 9.26563L71.5891 9.25681ZM71.6598 8.21736C71.763 8.27347 71.8491 8.35642 71.909 8.45743C71.9689 8.55844 72.0003 8.67375 71.9999 8.79115C72.0005 8.90838 71.9692 9.02357 71.9094 9.12439C71.8499 9.22538 71.7635 9.30789 71.6598 9.36274C71.5534 9.42068 71.4342 9.45105 71.3131 9.45105C71.1919 9.45105 71.0727 9.42068 70.9663 9.36274C70.8635 9.30688 70.7778 9.22423 70.7183 9.12358C70.6588 9.02293 70.6278 8.90805 70.6284 8.79115C70.6286 8.67402 70.6598 8.55903 70.719 8.45791C70.7787 8.3573 70.864 8.2743 70.9663 8.21736C71.0722 8.15801 71.1916 8.12684 71.3131 8.12684C71.4345 8.12684 71.5539 8.15801 71.6598 8.21736ZM23.1305 10.3691C23.1093 10.3901 23.0841 10.4066 23.0564 10.4176C23.0287 10.4286 22.9991 10.4338 22.9693 10.4331H21.0412C21.0288 10.4313 21.0161 10.4324 21.0042 10.4363C20.9923 10.4402 20.9814 10.4467 20.9725 10.4555C20.9635 10.4642 20.9567 10.4749 20.9525 10.4867C20.9483 10.4985 20.9469 10.5111 20.9484 10.5236V14.8998C20.9484 15.3589 21.0522 15.6921 21.2598 15.8974C21.5363 16.1276 21.893 16.2387 22.2515 16.2063H22.8191C22.8485 16.2059 22.8777 16.2113 22.905 16.2223C22.9324 16.2333 22.9572 16.2496 22.9781 16.2703C22.9993 16.29 23.0162 16.314 23.0276 16.3406C23.039 16.3672 23.0447 16.3959 23.0443 16.4248V17.7865C23.0443 17.9189 22.9693 18.0072 22.8235 18.0226L21.8407 18.0403C20.8439 18.0403 20.1003 17.8769 19.61 17.5503C19.1197 17.2237 18.8664 16.6058 18.8502 15.6965V10.5236C18.8502 10.464 18.8193 10.4331 18.7553 10.4331H17.6797C17.6499 10.4338 17.6202 10.4286 17.5925 10.4176C17.5648 10.4066 17.5396 10.3901 17.5185 10.3691C17.497 10.3496 17.48 10.3257 17.4686 10.299C17.4571 10.2724 17.4516 10.2436 17.4522 10.2146V8.94343C17.453 8.88522 17.4768 8.82969 17.5185 8.78894C17.5398 8.76835 17.5651 8.75227 17.5928 8.74165C17.6205 8.73103 17.65 8.7261 17.6797 8.72715H18.7553C18.768 8.7294 18.7812 8.72858 18.7936 8.72475C18.806 8.72093 18.8173 8.71421 18.8265 8.70515C18.8358 8.69609 18.8428 8.68496 18.8469 8.67266C18.8511 8.66037 18.8522 8.64728 18.8502 8.63446V6.51143C18.8496 6.48244 18.8552 6.45366 18.8666 6.42701C18.878 6.40037 18.8951 6.37647 18.9165 6.35694C18.9377 6.33595 18.9628 6.31946 18.9906 6.30846C19.0183 6.29746 19.0479 6.29218 19.0777 6.29294H20.7209C20.7507 6.29218 20.7804 6.29746 20.8081 6.30846C20.8358 6.31946 20.861 6.33595 20.8821 6.35694C20.9036 6.37647 20.9206 6.40037 20.932 6.42701C20.9434 6.45366 20.949 6.48244 20.9484 6.51143V8.63446C20.9465 8.64706 20.9477 8.65992 20.9517 8.67202C20.9557 8.68411 20.9624 8.6951 20.9715 8.70411C20.9805 8.71311 20.9915 8.71989 21.0036 8.72389C21.0157 8.72789 21.0285 8.72901 21.0412 8.72715H22.9693C22.9989 8.7261 23.0285 8.73103 23.0562 8.74165C23.0839 8.75227 23.1091 8.76835 23.1305 8.78894C23.1721 8.82969 23.1959 8.88522 23.1967 8.94343V10.2146C23.1974 10.2436 23.1918 10.2724 23.1804 10.299C23.1689 10.3257 23.1519 10.3496 23.1305 10.3691ZM26.3639 10.7332C26.0454 10.9622 25.8123 11.2907 25.7013 11.6667C25.6157 11.9251 25.5652 12.1938 25.5511 12.4656C25.5246 12.5274 25.5511 12.5561 25.6262 12.5561H29.4625C29.5243 12.5561 29.5553 12.5274 29.5553 12.4656C29.5429 12.2327 29.5051 12.0018 29.4426 11.7771C29.349 11.3704 29.1143 11.0099 28.7801 10.7597C28.4113 10.5084 27.9715 10.3823 27.5256 10.4C27.112 10.3844 26.7045 10.5029 26.3639 10.7376V10.7332ZM31.8036 13.3374L31.7837 13.9001C31.7877 13.93 31.7848 13.9605 31.7751 13.9891C31.7654 14.0177 31.7493 14.0437 31.7279 14.065C31.7065 14.0864 31.6805 14.1025 31.6519 14.1122C31.6233 14.1218 31.5928 14.1248 31.5629 14.1208H25.6372C25.5732 14.1208 25.5423 14.1517 25.5423 14.2113C25.5528 14.4911 25.6103 14.7671 25.7123 15.0278C26.0156 15.8988 26.7518 16.3402 27.9209 16.352C28.3188 16.3644 28.7135 16.2779 29.0696 16.1004C29.4258 15.9228 29.7323 15.6597 29.9616 15.3346C29.9812 15.3017 30.009 15.2744 30.0423 15.2554C30.0756 15.2364 30.1133 15.2265 30.1516 15.2265C30.1759 15.2263 30.2 15.2311 30.2224 15.2406C30.2448 15.2501 30.2651 15.2641 30.2819 15.2816L31.4547 16.2063C31.4798 16.2197 31.5017 16.2385 31.5186 16.2614C31.5355 16.2843 31.547 16.3107 31.5523 16.3387C31.5577 16.3667 31.5566 16.3955 31.5492 16.423C31.5419 16.4505 31.5284 16.476 31.5099 16.4976C31.109 17.0391 30.5718 17.4648 29.9528 17.7313C29.271 18.0308 28.5331 18.1813 27.7884 18.1727C26.9111 18.2003 26.0437 17.98 25.2861 17.5371C24.6058 17.1215 24.0788 16.4965 23.7842 15.7561C23.4897 15.1029 23.3425 14.1951 23.3425 13.0328C23.3237 12.456 23.3982 11.8799 23.5634 11.3269C23.7919 10.5132 24.2962 9.80404 24.9901 9.32081C25.7332 8.8181 26.6153 8.56106 27.5123 8.58591C29.9948 8.58591 31.3935 9.83648 31.7086 12.3376C31.7605 12.6735 31.7857 13.013 31.7837 13.3528L31.8036 13.3374ZM39.7015 9.45322C40.314 10.0344 40.6196 10.8266 40.6181 11.83V17.7887C40.6184 17.8176 40.6127 17.8463 40.6013 17.8729C40.5899 17.8995 40.573 17.9234 40.5518 17.9432C40.5307 17.9641 40.5055 17.9806 40.4778 17.9916C40.4501 18.0026 40.4204 18.0079 40.3906 18.0072H38.6502C38.6208 18.0076 38.5916 18.0022 38.5643 17.9912C38.537 17.9802 38.5121 17.9639 38.4912 17.9432C38.47 17.9234 38.4531 17.8995 38.4417 17.8729C38.4303 17.8463 38.4246 17.8176 38.425 17.7887V12.2714C38.4459 11.7732 38.2689 11.2869 37.9324 10.9186C37.7641 10.7452 37.561 10.6094 37.3364 10.52C37.1119 10.4306 36.8709 10.3897 36.6294 10.4C36.3852 10.3887 36.1414 10.4283 35.9133 10.516C35.6852 10.6038 35.4778 10.7378 35.3042 10.9098C35.1348 11.0887 35.0032 11.2999 34.9174 11.5309C34.8317 11.7618 34.7934 12.0077 34.8051 12.2538V17.7865C34.8054 17.8154 34.7997 17.8441 34.7883 17.8707C34.7769 17.8973 34.76 17.9212 34.7388 17.9409C34.7177 17.9619 34.6925 17.9784 34.6648 17.9894C34.6371 18.0004 34.6074 18.0057 34.5776 18.0049H32.8394C32.8096 18.0057 32.78 18.0004 32.7523 17.9894C32.7246 17.9784 32.6994 17.9619 32.6782 17.9409C32.657 17.9212 32.6401 17.8973 32.6287 17.8707C32.6173 17.8441 32.6116 17.8154 32.612 17.7865V8.94343C32.6128 8.88522 32.6366 8.82969 32.6782 8.78894C32.6996 8.76835 32.7248 8.75227 32.7525 8.74165C32.7802 8.73103 32.8098 8.7261 32.8394 8.72715H34.5776C34.6072 8.7261 34.6368 8.73103 34.6645 8.74165C34.6922 8.75227 34.7175 8.76835 34.7388 8.78894C34.7804 8.82969 34.8043 8.88522 34.8051 8.94343V9.51722C34.8031 9.53144 34.8057 9.54591 34.8125 9.55858C34.8192 9.57126 34.8297 9.58149 34.8426 9.58784C34.8669 9.60108 34.8868 9.58784 34.8978 9.55253C35.4147 8.89929 36.1958 8.57267 37.2412 8.57267C38.2615 8.57267 39.0772 8.86324 39.6883 9.44439L39.7015 9.45322ZM46.769 16.0077C46.9712 15.8796 47.1379 15.7026 47.2537 15.4932C47.3695 15.2838 47.4306 15.0486 47.4316 14.8094V13.9553C47.4316 13.8957 47.4007 13.8648 47.3366 13.8648H45.7508C45.201 13.8363 44.6542 13.9617 44.1717 14.2267C43.9919 14.3307 43.8434 14.4809 43.7416 14.6618C43.6398 14.8427 43.5885 15.0477 43.5931 15.2552C43.5847 15.4303 43.6208 15.6047 43.6981 15.7621C43.7753 15.9195 43.8911 16.0549 44.0348 16.1556C44.372 16.3799 44.7719 16.4912 45.1766 16.4734C45.7426 16.4879 46.2986 16.3225 46.7646 16.0011L46.769 16.0077ZM47.8026 8.98094C48.3624 9.2114 48.8467 9.59359 49.2007 10.0844C49.5283 10.549 49.7007 11.1051 49.6932 11.6734V17.7865C49.6935 17.8154 49.6878 17.8441 49.6764 17.8707C49.665 17.8973 49.6481 17.9212 49.6269 17.9409C49.6058 17.9619 49.5806 17.9784 49.5529 17.9894C49.5252 18.0004 49.4955 18.0057 49.4657 18.0049H47.7275C47.6977 18.0057 47.6681 18.0004 47.6404 17.9894C47.6127 17.9784 47.5875 17.9619 47.5663 17.9409C47.5451 17.9212 47.5282 17.8973 47.5168 17.8707C47.5054 17.8441 47.4997 17.8154 47.5001 17.7865V17.206C47.5001 17.1685 47.5 17.1487 47.4625 17.142C47.4488 17.1395 47.4346 17.1406 47.4214 17.1452C47.4082 17.1499 47.3965 17.1579 47.3874 17.1685C46.7705 17.8218 45.876 18.1491 44.704 18.1506C43.8718 18.1845 43.0518 17.9424 42.3717 17.462C41.7607 17.003 41.4551 16.3189 41.4551 15.4096C41.4349 14.986 41.518 14.5638 41.6973 14.1793C41.8766 13.7949 42.1467 13.4597 42.4843 13.2027C43.1705 12.6746 44.1371 12.4112 45.3842 12.4127H47.4073C47.4197 12.4144 47.4323 12.4134 47.4443 12.4095C47.4562 12.4056 47.467 12.399 47.476 12.3903C47.485 12.3815 47.4918 12.3708 47.496 12.359C47.5001 12.3472 47.5015 12.3346 47.5001 12.3222V11.8808C47.5118 11.6758 47.4784 11.4707 47.4021 11.28C47.3257 11.0893 47.2084 10.9177 47.0583 10.7774C46.7668 10.5169 46.3339 10.3867 45.7531 10.3867C45.3511 10.3694 44.9514 10.4545 44.5913 10.6339C44.4556 10.7012 44.3357 10.7966 44.2397 10.9138C44.1438 11.031 44.0739 11.1673 44.0348 11.3136C44.0301 11.3433 44.0193 11.3717 44.0032 11.397C43.9872 11.4224 43.9661 11.4442 43.9413 11.4612C43.9165 11.4781 43.8885 11.4898 43.859 11.4956C43.8295 11.5013 43.7991 11.501 43.7697 11.4946L41.9366 11.2739C41.8799 11.2632 41.8259 11.2414 41.7776 11.2099C41.7573 11.1984 41.7414 11.1804 41.7326 11.1588C41.7238 11.1371 41.7225 11.1132 41.729 11.0907C41.7903 10.7177 41.9341 10.3631 42.15 10.0527C42.3659 9.74232 42.6484 9.48398 42.9769 9.29653C43.6991 8.82425 44.6112 8.58812 45.7067 8.58812C46.4256 8.57315 47.1397 8.70924 47.8026 8.98756V8.98094ZM56.7607 13.3749C56.7607 12.4303 56.5722 11.6947 56.1953 11.168C56.0321 10.9186 55.8063 10.7165 55.5404 10.5817C55.2745 10.4469 54.9779 10.3843 54.6802 10.4C54.3937 10.3911 54.1102 10.4609 53.8606 10.6018C53.611 10.7426 53.4048 10.9491 53.2645 11.1989C52.9486 11.6954 52.7918 12.4171 52.7918 13.3594C52.7918 14.3018 52.9354 14.9947 53.2335 15.467C53.3685 15.7398 53.5792 15.9681 53.8404 16.1246C54.1015 16.2811 54.4023 16.3593 54.7067 16.3498C55.0354 16.3579 55.3608 16.2819 55.652 16.1291C55.9277 15.979 56.1569 15.7561 56.3145 15.4847C56.612 14.9609 56.7607 14.2576 56.7607 13.3749ZM59.009 13.3374C59.0232 14.1094 58.9021 14.8779 58.6512 15.6083C58.4176 16.3723 57.9361 17.0369 57.2827 17.4972C56.6292 17.9575 55.841 18.1874 55.0424 18.1506C54.6312 18.161 54.2229 18.0799 53.847 17.9131C53.4711 17.7463 53.1371 17.498 52.8691 17.1862C52.8448 17.1509 52.8183 17.1398 52.794 17.1509C52.781 17.1576 52.7703 17.1682 52.7636 17.1813C52.7569 17.1943 52.7544 17.2092 52.7565 17.2237V17.7865C52.7568 17.8154 52.7511 17.8441 52.7397 17.8707C52.7283 17.8973 52.7115 17.9212 52.6902 17.9409C52.6691 17.9619 52.6439 17.9784 52.6162 17.9894C52.5885 18.0004 52.5588 18.0057 52.529 18.0049H50.7975C50.7677 18.0057 50.738 18.0004 50.7103 17.9894C50.6826 17.9784 50.6574 17.9619 50.6362 17.9409C50.615 17.9212 50.5982 17.8973 50.5868 17.8707C50.5753 17.8441 50.5696 17.8154 50.57 17.7865V5.5117C50.5708 5.45349 50.5946 5.39797 50.6362 5.35722C50.6576 5.33663 50.6829 5.32054 50.7106 5.30993C50.7383 5.29931 50.7678 5.29438 50.7975 5.29543H52.5356C52.5653 5.29438 52.5948 5.29931 52.6225 5.30993C52.6502 5.32054 52.6755 5.33663 52.6969 5.35722C52.7385 5.39797 52.7623 5.45349 52.7631 5.5117V9.45322C52.7613 9.46488 52.7624 9.47679 52.7663 9.48794C52.7701 9.49909 52.7766 9.50914 52.7852 9.51722C52.7982 9.52259 52.8125 9.52355 52.8261 9.51996C52.8397 9.51637 52.8517 9.50843 52.8603 9.49736C53.1278 9.19287 53.4599 8.95186 53.8324 8.7919C54.205 8.63193 54.6085 8.55703 55.0137 8.57267C55.8366 8.53724 56.6488 8.76956 57.3283 9.23474C57.958 9.7075 58.4293 10.3601 58.6799 11.1062C58.899 11.8211 59.007 12.5654 59.0002 13.3131L59.009 13.3374ZM59.9123 17.9542C59.8909 17.9347 59.8739 17.9108 59.8624 17.8841C59.851 17.8575 59.8454 17.8287 59.8461 17.7997V5.52715C59.8454 5.49817 59.851 5.46938 59.8624 5.44274C59.8739 5.41609 59.8909 5.3922 59.9123 5.37267C59.9335 5.35168 59.9587 5.33519 59.9864 5.32419C60.0141 5.31319 60.0437 5.30791 60.0735 5.30867H61.8117C61.8415 5.30791 61.8712 5.31319 61.8989 5.32419C61.9266 5.33519 61.9518 5.35168 61.9729 5.37267C61.9944 5.3922 62.0114 5.41609 62.0228 5.44274C62.0342 5.46938 62.0398 5.49817 62.0392 5.52715V17.7997C62.0398 17.8287 62.0342 17.8575 62.0228 17.8841C62.0114 17.9108 61.9944 17.9347 61.9729 17.9542C61.9518 17.9752 61.9266 17.9917 61.8989 18.0027C61.8712 18.0137 61.8415 18.0189 61.8117 18.0182H60.0735C60.0437 18.0189 60.0141 18.0137 59.9864 18.0027C59.9587 17.9917 59.9335 17.9752 59.9123 17.9542Z" fill="#F0F0F0"/>
        <path d="M65.8998 10.7181C65.5858 10.9502 65.3568 11.279 65.2483 11.6539C65.1606 11.9118 65.1093 12.1807 65.0959 12.4528C65.0716 12.5145 65.0959 12.5432 65.171 12.5432H69.0073C69.0691 12.5432 69.1022 12.5145 69.1022 12.4528C69.088 12.2191 69.0495 11.9876 68.9874 11.762C68.895 11.3554 68.6599 10.9953 68.3248 10.7468C67.956 10.4936 67.5153 10.3659 67.0681 10.3827C66.6549 10.3671 66.2476 10.4847 65.9064 10.7181H65.8998ZM71.3373 13.3245L71.3197 13.8872C71.3197 14.0329 71.2446 14.1079 71.0988 14.1079H65.171C65.1585 14.1061 65.1459 14.1072 65.134 14.1111C65.1221 14.115 65.1112 14.1216 65.1023 14.1303C65.0933 14.1391 65.0865 14.1498 65.0823 14.1616C65.0781 14.1734 65.0767 14.186 65.0782 14.1984C65.0879 14.4783 65.1454 14.7544 65.2483 15.015C65.5427 15.8874 66.2789 16.3288 67.4568 16.3391C67.8546 16.3509 68.2491 16.2642 68.6052 16.0867C68.9612 15.9092 69.2678 15.6464 69.4976 15.3217C69.5171 15.2888 69.5449 15.2615 69.5782 15.2425C69.6115 15.2236 69.6492 15.2136 69.6875 15.2136C69.7369 15.2131 69.7846 15.2321 69.82 15.2665L70.9906 16.1934C71.0159 16.2066 71.038 16.2252 71.0551 16.2481C71.0723 16.2709 71.084 16.2973 71.0895 16.3253C71.0951 16.3533 71.0942 16.3821 71.087 16.4097C71.0798 16.4374 71.0665 16.463 71.048 16.4848C70.6457 17.0256 70.1079 17.4511 69.4887 17.7184C68.8078 18.0179 68.0705 18.1684 67.3265 18.1598C66.4487 18.1878 65.5808 17.9683 64.822 17.5264C64.1417 17.1108 63.6147 16.4859 63.3202 15.7454C63.0257 15.0922 62.8784 14.1844 62.8784 13.0221C62.8582 12.4452 62.9328 11.8689 63.0993 11.3162C63.3276 10.4953 63.8373 9.78053 64.5393 9.29689C65.2814 8.7919 66.1641 8.53394 67.0615 8.55979C69.5425 8.55979 70.9413 9.81036 71.2578 12.3115C71.3108 12.648 71.3359 12.9883 71.3329 13.3289L71.3373 13.3245ZM15.6809 13.7923L12.622 17.2174L15.2988 12.1416C15.3784 11.9911 15.4258 11.8258 15.438 11.6561L15.862 12.9162C15.9121 13.0663 15.9217 13.2269 15.8899 13.3818C15.8581 13.5368 15.786 13.6807 15.6809 13.799V13.7923ZM11.0429 18.9719C10.9392 19.088 10.8071 19.1752 10.6597 19.2251C10.5122 19.275 10.3543 19.2858 10.2014 19.2566L5.96311 18.4268L11.4492 18.1465C11.6017 18.1402 11.7516 18.105 11.891 18.0428L11.0605 18.9719H11.0429ZM2.71206 17.3322L1.27427 13.0685L4.32875 17.8817C4.3937 17.9847 4.47416 18.077 4.56728 18.1554L3.39231 17.9347C3.2365 17.9047 3.09143 17.834 2.97193 17.7297C2.85242 17.6254 2.76275 17.4913 2.71206 17.341V17.3322ZM0.708873 9.95896L3.76777 6.53827L1.08875 11.6141C1.01013 11.7656 0.963522 11.9316 0.951818 12.1019L0.527769 10.8417C0.47583 10.6919 0.465238 10.5308 0.497106 10.3755C0.528974 10.2202 0.602125 10.0763 0.708873 9.95896ZM5.33366 4.78158C5.4373 4.66301 5.5708 4.57429 5.72031 4.52462C5.86982 4.47495 6.0299 4.46614 6.18396 4.4991L10.4355 5.32448L4.93832 5.60696C4.78604 5.61471 4.6364 5.64985 4.4966 5.71068L5.32703 4.78158H5.33366ZM13.5827 9.1711L14.8438 11.1573C14.9147 11.2686 14.9549 11.3965 14.9603 11.5283C14.9658 11.6601 14.9363 11.791 14.8748 11.9076L13.6026 14.3264V9.3653C13.6027 9.30006 13.596 9.23498 13.5827 9.1711ZM2.80482 14.5934L1.54593 12.6072C1.47549 12.4954 1.43557 12.3671 1.43015 12.2351C1.42472 12.103 1.45398 11.9719 1.51501 11.8547L2.78716 9.4293V14.3904C2.78756 14.4555 2.79347 14.5205 2.80482 14.5846V14.5934ZM13.1211 14.3992C13.121 14.5019 13.094 14.6027 13.0429 14.6917C12.9918 14.7808 12.9182 14.8549 12.8296 14.9068L8.48752 17.4072C8.39836 17.4592 8.297 17.4866 8.19378 17.4866C8.09056 17.4866 7.9892 17.4592 7.90004 17.4072L3.56016 14.898C3.47127 14.8462 3.39742 14.7721 3.34591 14.6831C3.2944 14.5941 3.267 14.4932 3.26642 14.3904V9.3653C3.26595 9.26197 3.29288 9.16037 3.34448 9.07082C3.39607 8.98127 3.47049 8.90698 3.56016 8.85551L7.90004 6.34627C7.9892 6.29431 8.09056 6.26693 8.19378 6.26693C8.297 6.26693 8.39836 6.29431 8.48752 6.34627L12.8296 8.85551C12.9185 8.90707 12.9923 8.98114 13.0435 9.07024C13.0947 9.15935 13.1215 9.26036 13.1211 9.3631V14.3904V14.3992ZM11.6546 6.12999L13.1587 8.5002C13.13 8.48034 13.1013 8.46048 13.0703 8.44282L8.72826 5.93137L8.66642 5.89827L10.981 5.7813C11.1142 5.77444 11.2468 5.80312 11.3651 5.8644C11.4835 5.92568 11.5834 6.01735 11.6546 6.12999ZM4.96262 6.08586L7.62617 5.95123L3.3128 8.44282L3.29292 8.45386L4.32875 6.48751C4.38981 6.37224 4.47965 6.27469 4.58954 6.20431C4.69944 6.13394 4.82567 6.09314 4.95599 6.08586H4.96262ZM4.74176 17.6257L3.23108 15.2555C3.25979 15.2754 3.2885 15.2952 3.31943 15.3129L7.6593 17.8243L7.72114 17.8552L5.40654 17.9744C5.27533 17.9786 5.14527 17.9487 5.02912 17.8876C4.91297 17.8265 4.8147 17.7362 4.74396 17.6257H4.74176ZM11.4316 17.6676L8.78127 17.8023L13.088 15.3129L13.1057 15.2996L12.0699 17.2682C12.0088 17.3833 11.919 17.4807 11.809 17.5507C11.6991 17.6207 11.5728 17.661 11.4426 17.6676H11.4316ZM13.6777 6.42792L15.1133 10.6916L12.0588 5.87179C11.9934 5.76984 11.9138 5.6777 11.8225 5.59813L12.9975 5.81882C13.1548 5.85079 13.3007 5.92407 13.4203 6.03113C13.5399 6.13819 13.6287 6.27515 13.6777 6.42792ZM16.317 12.7529L14.1349 6.27123C14.0566 6.04054 13.9188 5.83457 13.7354 5.67415C13.552 5.51372 13.3294 5.40452 13.0902 5.35758L6.2701 4.02682C6.03459 3.98217 5.79151 3.99937 5.56465 4.07673C5.33779 4.1541 5.13491 4.28899 4.97587 4.4682L0.33783 9.64779C0.178588 9.83013 0.0702462 10.0512 0.0237181 10.2887C-0.02281 10.5262 -0.00588108 10.7717 0.0727995 11.0006L2.25709 17.4845C2.33475 17.7151 2.47209 17.9211 2.65518 18.0816C2.83826 18.2421 3.06057 18.3513 3.29955 18.3981L10.1197 19.7223C10.2054 19.7398 10.2927 19.7487 10.3803 19.7488C10.5753 19.7487 10.7682 19.7076 10.9462 19.6281C11.1243 19.5486 11.2837 19.4326 11.4139 19.2875L16.0387 14.1123C16.2004 13.9301 16.3112 13.7085 16.36 13.4699C16.4089 13.2312 16.394 12.984 16.317 12.7529Z" fill="#F0F0F0"/>
    </g>
    <defs>
        <clipPath id="clip0_2665_1379">
            <rect width="72" height="16" fill="white" transform="translate(0 4)"/>
        </clipPath>
    </defs>
</svg>
