<svg width="72" height="24" viewBox="0 0 72 24" fill="none" xmlns="http://www.w3.org/2000/svg">
    <g clip-path="url(#clip0_2665_1248)">
        <path d="M43.3803 7.82047C42.227 7.82047 41.6665 8.51084 41.6665 9.52774V10.1249H40.7938V10.9952H41.67V15.5961H42.5745V10.9952H43.9639V10.1249H42.5745L42.5661 9.55512C42.5661 9.06281 42.8525 8.72322 43.4228 8.72322C43.6181 8.72243 43.8127 8.74112 44.0042 8.77815V7.90757C43.8013 7.84876 43.5912 7.81928 43.3803 7.82047ZM16.3246 8.02345C16.1727 8.02908 16.0275 8.0927 15.9193 8.20308C15.7951 8.32873 15.7312 8.50345 15.7434 8.68099C15.7434 8.91576 15.8664 9.13289 16.0666 9.25003C16.2665 9.36766 16.5132 9.36766 16.7131 9.25003C16.913 9.13289 17.0365 8.91576 17.0361 8.68099C17.0486 8.50345 16.9846 8.32873 16.8605 8.20308C16.7367 8.07693 16.5647 8.01192 16.3899 8.0247C16.368 8.02311 16.3463 8.02266 16.3246 8.02345ZM31.7738 8.29823C30.1248 8.29823 29.2851 9.12631 29.2851 10.2453C29.2851 11.4269 29.9988 11.9849 31.5903 12.3791C32.9365 12.7075 33.3245 13.0455 33.3245 13.681C33.3245 14.3165 32.9216 14.7431 31.8556 14.7431C30.9193 14.7431 29.9069 14.4917 29.2498 14.1413V15.1474C29.7992 15.4321 30.4346 15.7055 31.803 15.7055C33.5593 15.7055 34.2917 14.8623 34.2989 13.6153C34.2989 12.3195 33.4582 11.8321 31.9611 11.4488C30.7126 11.1321 30.2595 10.8359 30.2595 10.2453C30.2595 9.58892 30.8092 9.26054 31.7356 9.26054C32.5047 9.24153 33.2651 9.43022 33.939 9.80777V8.82271C33.4543 8.54694 32.7972 8.29823 31.7738 8.29823ZM13.6542 8.40869L13.6566 13.4732C13.6566 14.1908 13.3736 14.6882 12.5551 14.6882C12.2124 14.6909 11.8727 14.6275 11.5537 14.5018V15.459C11.9279 15.5886 12.3212 15.6516 12.7165 15.6459C14.0533 15.6459 14.6237 14.7318 14.6237 13.4075V8.40869H13.6542ZM45.3388 8.96458V10.1296H44.4657V11.0003H45.3422V13.8876C45.3422 14.906 45.9031 15.5948 47.056 15.5948C47.2673 15.596 47.4773 15.5665 47.6802 15.5077V14.6C47.4895 14.6453 47.2946 14.6712 47.0989 14.6771C46.5282 14.6771 46.248 14.349 46.243 13.8675V10.9952H47.6754V10.1249H46.243V8.96458H45.3388ZM69.3958 10.0117C67.7583 10.0117 66.8537 11.1928 66.8537 12.8456C66.8537 14.5242 67.7362 15.7055 69.7511 15.7055C70.3005 15.7055 70.98 15.6208 71.4217 15.3787V14.508C70.897 14.7032 70.3428 14.8035 69.7842 14.8039C68.5133 14.8039 67.9208 14.2021 67.7914 13.2718H71.7217V12.8456C71.7217 11.1828 71.0548 10.0117 69.3958 10.0117ZM23.6814 10.0156C22.1733 10.0156 21.4195 11.3174 21.4195 12.8603C21.4195 14.4693 22.1417 15.7055 23.5737 15.7055C24.4026 15.7055 25.0488 15.3339 25.3941 14.6113L25.3952 15.5961H26.3219V10.1249H25.3952V11.0873C25.0708 10.3759 24.4673 10.0156 23.6814 10.0156ZM37.6738 10.0156C36.0579 10.0156 35.1105 11.208 35.1105 12.8491C35.1105 14.4906 36.0689 15.7093 37.6738 15.7093C39.2786 15.7093 40.2159 14.4906 40.2159 12.8491C40.2159 11.208 39.2892 10.0156 37.6738 10.0156ZM59.6367 10.0156C58.1285 10.0156 57.3748 11.3174 57.3748 12.8603C57.3748 14.4693 58.097 15.7055 59.529 15.7055C60.3578 15.7055 61.0039 15.3339 61.3493 14.6113L61.3504 15.5961H62.2772V10.1249H61.3504V11.0873C61.026 10.3759 60.4225 10.0156 59.6367 10.0156ZM20.8625 10.0414C19.936 10.0401 19.4391 10.482 19.1465 11.0873V10.1249H18.2418V15.5998H19.1465V12.3667C19.1465 11.208 19.8687 10.8424 21.0535 10.9666V10.0476C20.9879 10.0435 20.9243 10.0415 20.8625 10.0414ZM66.2966 10.0414C65.3701 10.0401 64.8734 10.482 64.5807 11.0873V10.1249H63.6759V15.5998H64.5807V12.3667C64.5807 11.208 65.3029 10.8424 66.4877 10.9666V10.0476C66.4221 10.0435 66.3584 10.0415 66.2966 10.0414ZM47.9396 10.1249L49.9213 15.5961H51.1061L52.045 12.9489L52.5348 11.2636L53.0243 12.9489L53.9512 15.5961H55.1359L57.1177 10.1249H56.0943L54.5419 14.764L52.9692 10.1249H52.0854L50.5137 14.764L48.963 10.1249H47.9396ZM15.9163 10.1262V15.5972H16.8425V10.1262H15.9163ZM69.3505 10.8746C70.276 10.8746 70.7288 11.4551 70.7828 12.4723H67.7804V12.4663C67.8771 11.5175 68.3727 10.8696 69.3505 10.8746ZM23.9251 10.8859C24.7159 10.8859 25.3941 11.4219 25.3941 12.6368V13.0792C25.3941 14.2936 24.6516 14.8298 23.8224 14.8303C22.8625 14.8303 22.3461 14.1734 22.3412 12.8552C22.3412 11.5858 22.8796 10.8859 23.9251 10.8859ZM59.8804 10.8859C60.6711 10.8859 61.3493 11.4219 61.3493 12.6368V13.0792C61.3493 14.2934 60.6069 14.8296 59.7776 14.8303C58.8178 14.8303 58.2977 14.1735 58.2977 12.8603C58.2977 11.5909 58.8398 10.8959 59.8804 10.8859ZM37.6738 10.8958C38.8156 10.8958 39.3112 11.8099 39.3112 12.8492C39.3112 13.8888 38.8255 14.8303 37.6738 14.8303C36.5221 14.8303 36.0151 13.8888 36.0151 12.8492H36.0197C36.0197 11.8099 36.5315 10.8958 37.6738 10.8958Z" fill="#F0F0F0"/>
        <path d="M9.14006 11.7362L5.14946 7.68228L4.7627 7.28967L0.385634 11.7362C0.242549 11.882 0.242549 12.1179 0.385634 12.2634L3.13008 15.0513L4.7627 16.7102L9.14006 12.2634C9.28324 12.1179 9.28324 11.882 9.14006 11.7362ZM4.7627 13.3924L3.39199 12L4.7627 10.6071L6.1337 12L4.7627 13.3924Z" fill="#2684FF"/>
        <path d="M4.76269 10.6072C3.86529 9.69518 3.86071 8.21805 4.75314 7.30066L1.75293 10.3473L3.38594 12.0062L4.76269 10.6072Z" fill="url(#paint0_linear_2665_1248)"/>
        <path d="M6.13751 11.9961L4.7627 13.3924C5.19595 13.8322 5.43963 14.429 5.43963 15.0514C5.43963 15.6737 5.19595 16.2701 4.7627 16.7103L7.77012 13.655L6.13751 11.9961Z" fill="url(#paint1_linear_2665_1248)"/>
    </g>
    <defs>
        <linearGradient id="paint0_linear_2665_1248" x1="4.17349" y1="9.54852" x2="2.57889" y2="11.1178" gradientUnits="userSpaceOnUse">
            <stop stop-color="#0052CC"/>
            <stop offset="1" stop-color="#2684FF"/>
        </linearGradient>
        <linearGradient id="paint1_linear_2665_1248" x1="5.36885" y1="14.436" x2="6.96027" y2="12.8695" gradientUnits="userSpaceOnUse">
            <stop stop-color="#0052CC"/>
            <stop offset="1" stop-color="#2684FF"/>
        </linearGradient>
        <clipPath id="clip0_2665_1248">
            <rect width="72" height="10" fill="white" transform="translate(0 7)"/>
        </clipPath>
    </defs>
</svg>
