<svg width="72" height="24" viewBox="0 0 72 24" fill="none" xmlns="http://www.w3.org/2000/svg">
    <path d="M7.24926 11.2068L8.67574 8.78762L10.1221 8.78268V6.8L7.54302 6.8111L5 11.2142L7.57912 15.6L10.1221 15.5901V13.6716H8.69566L7.24926 11.2068Z" fill="#FEC20E"/>
    <path d="M12.9999 11.2068L11.571 13.6716H10.1221V8.78268H11.551L12.9999 11.2068Z" fill="#FEC20E"/>
    <path d="M15.6641 13V7.4H18.0881C18.5894 7.4 19.0214 7.48267 19.3841 7.648C19.7467 7.808 20.0267 8.04 20.2241 8.344C20.4214 8.648 20.5201 9.01067 20.5201 9.432C20.5201 9.848 20.4214 10.208 20.2241 10.512C20.0267 10.816 19.7467 11.0507 19.3841 11.216C19.0214 11.376 18.5894 11.456 18.0881 11.456H16.3841L16.9601 10.872V13H15.6641ZM16.9601 11.016L16.3841 10.4H18.0161C18.4161 10.4 18.7147 10.3147 18.9121 10.144C19.1094 9.97333 19.2081 9.736 19.2081 9.432C19.2081 9.12267 19.1094 8.88267 18.9121 8.712C18.7147 8.54133 18.4161 8.456 18.0161 8.456H16.3841L16.9601 7.84V11.016Z" fill="#231F20"/>
    <path d="M20.4481 13L22.9441 7.4H24.2241L26.7281 13H25.3681L23.3201 8.056H23.8321L21.7761 13H20.4481ZM21.6961 11.8L22.0401 10.816H24.9201L25.2721 11.8H21.6961Z" fill="#231F20"/>
    <path d="M27.3291 13V7.4H28.4011L31.7051 11.432H31.1851V7.4H32.4651V13H31.4011L28.0891 8.968H28.6091V13H27.3291Z" fill="#231F20"/>
    <path d="M36.53 13.096C36.0873 13.096 35.6767 13.024 35.298 12.88C34.9247 12.736 34.5993 12.5333 34.322 12.272C34.05 12.0107 33.8367 11.704 33.682 11.352C33.5327 11 33.458 10.616 33.458 10.2C33.458 9.784 33.5327 9.4 33.682 9.048C33.8367 8.696 34.0527 8.38933 34.33 8.128C34.6073 7.86667 34.9327 7.664 35.306 7.52C35.6793 7.376 36.0847 7.304 36.522 7.304C36.9647 7.304 37.37 7.376 37.738 7.52C38.1113 7.664 38.434 7.86667 38.706 8.128C38.9833 8.38933 39.1993 8.696 39.354 9.048C39.5087 9.39467 39.586 9.77867 39.586 10.2C39.586 10.616 39.5087 11.0027 39.354 11.36C39.1993 11.712 38.9833 12.0187 38.706 12.28C38.434 12.536 38.1113 12.736 37.738 12.88C37.37 13.024 36.9673 13.096 36.53 13.096ZM36.522 11.992C36.7727 11.992 37.002 11.9493 37.21 11.864C37.4233 11.7787 37.61 11.656 37.77 11.496C37.93 11.336 38.0527 11.1467 38.138 10.928C38.2287 10.7093 38.274 10.4667 38.274 10.2C38.274 9.93333 38.2287 9.69067 38.138 9.472C38.0527 9.25333 37.93 9.064 37.77 8.904C37.6153 8.744 37.4313 8.62133 37.218 8.536C37.0047 8.45067 36.7727 8.408 36.522 8.408C36.2713 8.408 36.0393 8.45067 35.826 8.536C35.618 8.62133 35.434 8.744 35.274 8.904C35.114 9.064 34.9887 9.25333 34.898 9.472C34.8127 9.69067 34.77 9.93333 34.77 10.2C34.77 10.4613 34.8127 10.704 34.898 10.928C34.9887 11.1467 35.1113 11.336 35.266 11.496C35.426 11.656 35.6127 11.7787 35.826 11.864C36.0393 11.9493 36.2713 11.992 36.522 11.992Z" fill="#231F20"/>
    <path d="M40.58 13V7.4H43.004C43.5053 7.4 43.9373 7.48267 44.3 7.648C44.6627 7.808 44.9427 8.04 45.14 8.344C45.3373 8.648 45.436 9.01067 45.436 9.432C45.436 9.848 45.3373 10.208 45.14 10.512C44.9427 10.8107 44.6627 11.04 44.3 11.2C43.9373 11.36 43.5053 11.44 43.004 11.44H41.3L41.876 10.872V13H40.58ZM44.14 13L42.74 10.968H44.124L45.54 13H44.14ZM41.876 11.016L41.3 10.408H42.932C43.332 10.408 43.6307 10.3227 43.828 10.152C44.0253 9.976 44.124 9.736 44.124 9.432C44.124 9.12267 44.0253 8.88267 43.828 8.712C43.6307 8.54133 43.332 8.456 42.932 8.456H41.3L41.876 7.84V11.016Z" fill="#231F20"/>
    <path d="M45.7468 13L48.2428 7.4H49.5228L52.0268 13H50.6668L48.6188 8.056H49.1308L47.0748 13H45.7468ZM46.9948 11.8L47.3388 10.816H50.2188L50.5708 11.8H46.9948Z" fill="#231F20"/>
    <path d="M52.6278 13V7.4H53.6998L56.0838 11.352H55.5158L57.8598 7.4H58.9238L58.9398 13H57.7238L57.7158 9.264H57.9398L56.0678 12.408H55.4838L53.5718 9.264H53.8438V13H52.6278Z" fill="#231F20"/>
    <path d="M59.5524 13L62.0484 7.4H63.3284L65.8324 13H64.4724L62.4244 8.056H62.9364L60.8804 13H59.5524ZM60.8004 11.8L61.1444 10.816H64.0244L64.3764 11.8H60.8004Z" fill="#231F20"/>
    <path d="M15.5 16.0586H16.7789C17.2026 16.0586 17.4574 16.2268 17.4574 16.5524C17.4574 16.7716 17.3682 16.9259 17.115 17.0046C17.3762 17.1064 17.5004 17.2376 17.5004 17.4706C17.5004 17.878 17.1787 18.0246 16.7327 18.0246H15.5V16.0586ZM16.6149 16.8456C16.7837 16.8456 16.8522 16.7947 16.8522 16.6682C16.8522 16.5509 16.7773 16.5 16.6149 16.5H16.0988V16.8456H16.6149ZM16.6451 17.5786C16.8251 17.5786 16.8952 17.5231 16.8952 17.3934C16.8952 17.2731 16.8251 17.2114 16.6451 17.2114H16.1004V17.5817L16.6451 17.5786Z" fill="#939598"/>
    <path d="M18.7663 17.395L17.876 16.0571H18.5608L19.0625 16.841H19.0912L19.5992 16.0571H20.2666L19.3794 17.3919V18.0246H18.7679V17.395H18.7663Z" fill="#939598"/>
    <path d="M21.8066 16.0586H23.0043C23.5028 16.0586 23.7672 16.3364 23.7672 16.7916C23.7672 17.3055 23.428 17.5416 22.9581 17.5416H22.4166V18.0246H21.8082V16.0586H21.8066ZM22.896 17.0786C23.084 17.0786 23.1652 16.9614 23.1652 16.8055C23.1652 16.628 23.076 16.5324 22.8896 16.5324H22.4134V17.0771H22.896V17.0786Z" fill="#939598"/>
    <path d="M24.7407 16.0586H25.7202L26.4241 18.0246H25.7855L25.6437 17.6172H24.806L24.6611 18.0246H24.0352L24.7407 16.0586ZM24.9557 17.1759H25.5004L25.2822 16.5586H25.1723L24.9557 17.1759Z" fill="#939598"/>
    <path d="M26.9464 16.0586H27.5548V17.5169H28.6299L28.606 18.0246H26.9448V16.0586H26.9464Z" fill="#939598"/>
    <path d="M29.0151 17.0416C29.0151 16.4012 29.4643 16 30.1746 16C30.8849 16 31.3341 16.4012 31.3341 17.0416C31.3341 17.682 30.8849 18.0832 30.1746 18.0832C29.4643 18.0832 29.0151 17.682 29.0151 17.0416ZM30.7288 17.0416C30.7288 16.7021 30.525 16.5 30.1746 16.5C29.8242 16.5 29.6203 16.7021 29.6203 17.0416C29.6203 17.3811 29.8242 17.5833 30.1714 17.5833C30.5234 17.5833 30.7288 17.3811 30.7288 17.0416Z" fill="#939598"/>
    <path d="M33.5849 16.0586H34.5644L35.2684 18.0246H34.6297L34.488 17.6172H33.6502L33.5053 18.0246H32.8794L33.5849 16.0586ZM33.7984 17.1759H34.343L34.1249 16.5586H34.015L33.7984 17.1759Z" fill="#939598"/>
    <path d="M35.7902 16.0586H36.3986V17.5169H37.4736L37.4497 18.0246H35.7886V16.0586H35.7902Z" fill="#939598"/>
    <path d="M38.3114 16.5648H37.6011L37.625 16.0586H39.611L39.6349 16.5648H38.9246V18.0261H38.313V16.5648H38.3114Z" fill="#939598"/>
    <path d="M40.0767 17.0416C40.0767 16.4012 40.5258 16 41.2361 16C41.9464 16 42.3956 16.4012 42.3956 17.0416C42.3956 17.682 41.9464 18.0832 41.2361 18.0832C40.5274 18.0832 40.0767 17.682 40.0767 17.0416ZM41.7904 17.0416C41.7904 16.7021 41.5865 16.5 41.2361 16.5C40.8857 16.5 40.6819 16.7021 40.6819 17.0416C40.6819 17.3811 40.8857 17.5833 41.2329 17.5833C41.5849 17.5833 41.7904 17.3811 41.7904 17.0416Z" fill="#939598"/>
    <path d="M44.0708 16.0586H44.7031L45.5759 17.1743H45.5838V16.0586H46.1636V18.0246H45.552L44.6585 16.8811H44.6505V18.0246H44.0708V16.0586Z" fill="#939598"/>
    <path d="M46.874 16.0586H48.6482L48.6721 16.5355H47.4808V16.8055H48.4173V17.2407H47.4808V17.5462H48.7072L48.6849 18.023H46.8756V16.0586H46.874Z" fill="#939598"/>
    <path d="M49.8812 16.5648H49.1709L49.1948 16.0586H51.1808L51.2047 16.5648H50.4944V18.0261H49.8828V16.5648H49.8812Z" fill="#939598"/>
    <path d="M51.6313 16.0586H52.2812L52.6124 17.4243H52.6443L53.0743 16.0586H53.6684L54.0888 17.4243H54.1207L54.4456 16.0586H55.0667L54.5332 18.0246H53.7353L53.3642 16.8395H53.3466L52.9692 18.0246H52.1697L51.6313 16.0586Z" fill="#939598"/>
    <path d="M55.5059 17.0416C55.5059 16.4012 55.955 16 56.6653 16C57.3756 16 57.8248 16.4012 57.8248 17.0416C57.8248 17.682 57.3756 18.0832 56.6653 18.0832C55.955 18.0832 55.5059 17.682 55.5059 17.0416ZM57.2196 17.0416C57.2196 16.7021 57.0173 16.5 56.6653 16.5C56.3133 16.5 56.1111 16.7021 56.1111 17.0416C56.1111 17.3811 56.3133 17.5833 56.6621 17.5833C57.0141 17.5833 57.2196 17.3811 57.2196 17.0416Z" fill="#939598"/>
    <path d="M58.4219 16.0586H59.6052C60.1451 16.0586 60.4079 16.3055 60.4079 16.7638C60.4079 17.0786 60.2741 17.2916 60.013 17.3934L60.4939 18.0261H59.8043L59.43 17.5092H59.0303V18.0261H58.4219V16.0586ZM59.5272 17.0478C59.7295 17.0478 59.8027 16.9382 59.8027 16.7901C59.8027 16.6419 59.7295 16.5339 59.5272 16.5339H59.0319V17.0478H59.5272Z" fill="#939598"/>
    <path d="M61.0229 16.0586H61.6313V16.7839H61.8814L62.4755 16.0586H63.1603L63.1635 16.0617L62.3863 17.003L63.2065 18.023L63.2033 18.0261H62.493L61.8782 17.27H61.6313V18.0261H61.0229V16.0586Z" fill="#939598"/>
    <path d="M63.6049 17.8965V17.3564H63.6081C63.9473 17.5215 64.2786 17.6033 64.5653 17.6033C64.7835 17.6033 64.8934 17.5524 64.8934 17.4552C64.8934 17.358 64.8201 17.3317 64.3853 17.2638C63.9091 17.1913 63.5938 17.0524 63.5938 16.6574C63.5938 16.2901 63.9266 16.0062 64.5796 16.0062C64.8408 16.0062 65.1131 16.0602 65.3648 16.1636V16.6975L65.3616 16.7006C65.1211 16.5663 64.7962 16.4815 64.535 16.4815C64.3025 16.4815 64.2101 16.5355 64.2101 16.625C64.2101 16.7407 64.3519 16.7515 64.7086 16.8101C65.1832 16.8888 65.5002 17.0185 65.5002 17.4336C65.5002 17.7561 65.2517 18.0802 64.535 18.0802C64.183 18.0786 63.9011 18.0076 63.6049 17.8965Z" fill="#939598"/>
</svg>
