<svg width="72" height="24" viewBox="0 0 72 24" fill="none" xmlns="http://www.w3.org/2000/svg">
    <path d="M24.6298 8.47571H23.6113V14.8125H27.3336V14.0139H24.6298V8.47571Z" fill="#0055B8"/>
    <path d="M30.0558 9.95142C28.8336 9.95142 28.1299 10.4549 28.1299 11.3056V13.5452C28.1299 14.4132 28.8336 14.8993 30.0558 14.8993C31.278 14.8993 31.9817 14.3959 31.9817 13.5452V11.3056C31.9817 10.4375 31.278 9.95142 30.0558 9.95142ZM29.0928 11.4792C29.0928 10.9931 29.4077 10.7674 30.0558 10.7674C30.704 10.7674 31.0188 10.9931 31.0188 11.4792V13.3542C31.0188 13.8403 30.7225 14.066 30.0558 14.066C29.3891 14.066 29.0928 13.8403 29.0928 13.3542V11.4792Z" fill="#0055B8"/>
    <path d="M35.8338 10.2119C35.4264 10.0209 35.019 9.93408 34.519 9.93408C33.556 9.93408 32.9819 10.4202 32.9819 11.2362V13.4237C32.9819 14.257 33.593 14.7778 34.556 14.7778C34.9264 14.7778 35.3153 14.691 35.7042 14.5348V14.7084C35.7042 15.3334 35.2597 15.6459 34.3708 15.6459C33.9449 15.6459 33.3708 15.5764 33.1486 15.5244L33.056 15.507V16.3056L33.1116 16.323C33.4449 16.3924 33.9819 16.4445 34.4079 16.4445C35.9819 16.4445 36.6856 15.9237 36.6856 14.7431V10.0035H35.8893L35.8338 10.2119ZM33.9634 11.4098C33.9634 10.8716 34.3893 10.7674 34.7412 10.7674C35.093 10.7674 35.3523 10.8369 35.7227 10.9931V13.7362C35.3893 13.8751 35.0745 13.9445 34.7782 13.9445C34.1116 13.9445 33.9819 13.5452 33.9819 13.198V11.4098H33.9634Z" fill="#0055B8"/>
    <path d="M41.8149 10.8021V10.2465C41.8149 9.06596 41.0556 8.49304 39.4815 8.49304H37.7778V14.8125H38.8149V12.434H39.6112L41.2223 14.8125H42.3889L40.6482 12.2951C41.426 12.0868 41.8149 11.5833 41.8149 10.8021ZM38.8149 11.618V9.29165H39.5371C40.4075 9.29165 40.7964 9.60415 40.7964 10.2812V10.6979C40.7964 11.3403 40.4075 11.618 39.5001 11.618H38.8149Z" fill="#0055B8"/>
    <path d="M45.4447 9.9514C45.0187 9.9514 44.5558 10.0556 44.0743 10.2813V8.47571H43.1113V14.8125H44.0743V11.0799C44.3706 10.941 44.7965 10.7847 45.1669 10.7847C45.5928 10.7847 45.7965 10.9931 45.7965 11.4097V14.8125H46.778V11.184C46.778 10.3854 46.315 9.9514 45.4447 9.9514Z" fill="#0055B8"/>
    <path d="M49.667 13.5972L48.4819 10.0382H47.4448L49.1856 14.7431L49.167 14.7778C48.8893 15.5417 48.5559 15.6806 48.1115 15.6806C47.9263 15.6806 47.8152 15.6632 47.7226 15.6458L47.63 15.6111V16.3924L47.6856 16.4097C47.8152 16.4445 47.9633 16.4618 48.2226 16.4618C49.0189 16.4618 49.63 16.2014 50.093 14.9167L51.8337 10.0382H50.7782L49.667 13.5972Z" fill="#0055B8"/>
    <path d="M54.2965 14.0833C53.8151 14.0833 53.6114 13.8923 53.6114 13.4409V10.7847H54.7966V10.0208H53.6114V8.82288H52.8151L52.6299 10.0208V10.7847V13.5625C52.6299 14.4305 53.1114 14.8645 54.0928 14.8645C54.4077 14.8645 54.7595 14.8125 54.9262 14.7777L54.9817 14.7604V13.9791L54.8891 14.0138C54.8151 14.0486 54.5188 14.0833 54.2965 14.0833Z" fill="#0055B8"/>
    <path d="M58.3333 9.9514C57.9074 9.9514 57.4444 10.0556 56.963 10.2813V8.47571H56V14.8125H56.963V11.0799C57.2593 10.941 57.6852 10.7847 58.0556 10.7847C58.4815 10.7847 58.6852 10.9931 58.6852 11.4097V14.8125H59.6667V11.184C59.6667 10.3854 59.1852 9.9514 58.3333 9.9514Z" fill="#0055B8"/>
    <path d="M65.5741 9.95142C65.0371 9.95142 64.5001 10.1077 64.0741 10.4028C63.8519 10.1077 63.463 9.95142 62.9445 9.95142C62.5001 9.95142 62.0001 10.0903 61.6482 10.2986L61.5741 10.0035H60.7778V14.8125H61.7408V11.0452C62.0186 10.8716 62.3889 10.7674 62.7408 10.7674C63.1852 10.7674 63.3704 10.9757 63.3704 11.4445V14.8125H64.3334V11.2361C64.3334 11.1841 64.3334 11.1146 64.3149 11.0625C64.6667 10.8542 65.0001 10.75 65.3334 10.75C65.7593 10.75 65.963 10.9584 65.963 11.4271V14.8125H66.9445V11.2361C66.9445 10.4202 66.4445 9.95142 65.5741 9.95142Z" fill="#0055B8"/>
    <path d="M67.778 10.316V10.8889H67.5928V10.316H67.3706V10.1771H68.0002V10.316H67.778ZM68.7965 10.8889V10.3855L68.5928 10.8889H68.4817L68.278 10.3855V10.8889H68.0928V10.1771H68.3521L68.5373 10.6459L68.7225 10.1771H68.9632V10.8889H68.7965Z" fill="#0055B8"/>
    <path d="M20.6667 7.5729L20.463 8.09374C20.0556 9.11804 19.3889 10.6805 18.4815 12.2778C16.8889 15.125 15.5185 15.7326 14.6481 15.7326C13.7037 15.7326 13.0926 14.7951 12.7222 13.8229C12.463 13.1458 12.3519 12.434 12.1296 11.7569C11.7778 10.6805 11.3148 10.0208 10.8519 10.0208C9.85185 10.0208 9.24074 11.7048 9.09259 12.3472L9.03704 12.625H3L3.11111 12.1562C3.12963 12.0347 3.7963 9.23957 5.66667 9.23957C6.57407 9.23957 7.14815 10.0729 7.53704 11.0278H6.64815C6.35185 10.3854 6 10.0035 5.66667 10.0035C4.77778 10.0035 4.22222 11.3576 4.03704 11.8611H8.37037C8.61111 11.0451 9.35185 9.23957 10.8519 9.23957C11.6852 9.23957 12.2593 9.96874 12.6296 10.8021C12.7037 11.0451 12.7963 11.2882 12.8704 11.5312C13.1296 12.3819 13.3148 13.25 13.7037 14.066C13.8704 14.4132 14.1481 14.9514 14.6296 14.9514C15.1667 14.9514 16.2778 14.5521 17.7593 11.9132C18.5185 10.559 19.1111 9.22221 19.4815 8.33679H15.1667C14.8333 9.15276 14.3333 10.2986 13.6852 11.5312C13.6296 11.3229 13.5741 11.1319 13.5185 10.9236C13.463 10.75 13.4074 10.5764 13.3519 10.4028C13.8519 9.39582 14.2222 8.47568 14.5 7.7986L14.5926 7.55554H20.6667V7.5729ZM11.7407 13.2153C10.6667 14.691 9.85185 14.9514 9.44444 14.9514C9.03704 14.9514 8.59259 14.3785 8.25926 13.441H7.38889C7.74074 14.5347 8.37037 15.7153 9.44444 15.7153C10.0556 15.7153 10.9444 15.4028 12 14.1701C11.9259 13.8576 11.8333 13.5451 11.7407 13.2153Z" fill="url(#paint0_linear_2695_2295)"/>
    <defs>
        <linearGradient id="paint0_linear_2695_2295" x1="4.65104" y1="14.7283" x2="16.0307" y2="9.47543" gradientUnits="userSpaceOnUse">
            <stop offset="0.1512" stop-color="#00ADA3"/>
            <stop offset="0.4968" stop-color="#00B6ED"/>
            <stop offset="1" stop-color="#0055B8"/>
        </linearGradient>
    </defs>
</svg>
