<svg width="72" height="24" viewBox="0 0 72 24" fill="none" xmlns="http://www.w3.org/2000/svg">
<g clip-path="url(#clip0_2882_205)">
<mask id="mask0_2882_205" style="mask-type:luminance" maskUnits="userSpaceOnUse" x="5" y="4" width="62" height="17">
<path d="M66.9361 4H5V20.2732H66.9361V4Z" fill="white"/>
</mask>
<g mask="url(#mask0_2882_205)">
<path d="M7.14311 6.25879C7.23849 6.24661 7.32272 6.31866 7.32272 6.41506V9.18629C7.32272 12.1381 7.47188 17.1306 12.5963 17.1306C15.7531 17.1306 17.8749 14.6019 17.8749 11.6379C17.8749 8.67385 15.3228 6.47188 12.1457 6.47188C11.7561 6.47188 11.4405 6.78746 11.4405 7.17712V9.098C11.4405 9.098 12.2026 9.09597 12.3629 9.09597C14.5263 9.09597 15.2599 10.7216 15.2599 11.6379C15.2599 13.3558 14.1265 14.4832 12.714 14.4832C10.9494 14.4832 9.93057 13.0727 9.93057 11.6166V5.47136C9.93159 4.65856 10.5901 4 11.4019 4C20.4523 4 22.6888 7.45516 22.6888 9.76468C22.6888 15.6339 15.9073 20.2732 11.4973 20.2732C6.12939 20.2732 5 15.2493 5 11.6034C5 7.46835 6.23188 6.38056 7.14311 6.25879Z" fill="#22B94F"/>
<path d="M29.2012 9.04632C28.2849 9.04632 27.7339 9.61762 27.7339 9.61762V7.5567C27.7339 7.36187 27.5766 7.20459 27.3817 7.20459H26.021V15.4645H27.7349V14.8567C27.9957 15.3904 28.5588 15.6248 29.3036 15.6248C30.4767 15.6248 32.1662 14.8607 32.1662 12.3543C32.1662 9.84796 30.4564 9.04734 29.2012 9.04734V9.04632ZM29.0703 13.9718C28.085 13.9718 27.7359 13.0799 27.7359 12.3351C27.7359 11.5903 28.0291 10.6729 29.0703 10.6729C30.1114 10.6729 30.4026 11.6146 30.4026 12.3351C30.4026 13.0555 30.0556 13.9718 29.0703 13.9718Z" fill="#2E3538"/>
<path d="M36.075 9.01904C34.2942 9.01904 32.7305 10.4001 32.7305 12.323C32.7305 14.2459 34.3114 15.631 36.075 15.631C37.7189 15.631 39.2187 14.1323 39.2187 12.3352C39.2187 10.5381 38.0426 9.02006 36.075 9.02006V9.01904ZM36.1115 13.9912C35.3485 13.9912 34.6635 13.4362 34.6635 12.3311C34.6635 11.2261 35.3404 10.6731 36.1115 10.6731C36.9629 10.6731 37.4723 11.4483 37.4723 12.3362C37.4723 13.3631 36.8229 13.9902 36.1115 13.9902V13.9912Z" fill="#2E3538"/>
<path d="M43.1793 9.02295C41.9536 9.02295 41.6887 9.78095 41.6887 9.78095L41.6847 9.44711C41.6826 9.3091 41.57 9.19748 41.432 9.19748H39.9819V15.4543H41.7232V11.7861C41.7232 11.091 42.1575 10.6861 42.7126 10.6861C43.154 10.6861 43.6877 10.8525 43.6877 11.7911V15.4543H45.431V11.641C45.431 9.81545 44.4051 9.02396 43.1793 9.02396V9.02295Z" fill="#2E3538"/>
<path d="M50.1058 12.8626C50.1058 13.5577 49.6715 13.9626 49.1164 13.9626C48.675 13.9626 48.1413 13.7961 48.1413 12.8575V9.19434H46.3979V13.0077C46.3979 14.8332 47.4238 15.6247 48.6496 15.6247C49.8754 15.6247 50.1403 14.8667 50.1403 14.8667L50.1443 15.2005C50.1464 15.3385 50.259 15.4501 50.397 15.4501H51.8471V9.19434H50.1058V12.8626Z" fill="#2E3538"/>
<path d="M65.195 9.19434V12.8626C65.195 13.5577 64.7607 13.9626 64.2057 13.9626C63.7643 13.9626 63.2305 13.7961 63.2305 12.8575V9.19434H61.4872V13.0077C61.4872 14.8332 62.5131 15.6247 63.7389 15.6247C64.9647 15.6247 65.2295 14.8667 65.2295 14.8667L65.2366 15.4501C65.2366 16.6171 65.0175 17.2716 63.95 17.2716C63.4629 17.2716 63.2346 17.0483 63.1615 16.8292C63.127 16.7267 63.0306 16.6597 62.9231 16.6597H61.269C61.269 17.5161 62.1113 18.9104 63.951 18.9104C65.9348 18.9104 66.9373 17.436 66.9373 15.4501V9.19434H65.196H65.195Z" fill="#2E3538"/>
<path d="M55.7576 11.7497C54.7104 11.496 54.4618 11.3428 54.4618 10.9856C54.4618 10.7248 54.6546 10.5077 55.1264 10.5077C55.9027 10.5077 55.9027 11.0343 55.9027 11.0343C55.9027 11.0343 56.6972 11.0505 57.4917 11.0505C57.4917 9.96274 56.5531 9.01904 55.0899 9.01904C53.6266 9.01904 52.8027 10.186 52.8027 11.0779C52.8027 11.9699 53.2207 12.5148 54.5003 12.8547C55.5587 13.1358 55.8398 13.2677 55.8398 13.6594C55.8398 13.7832 55.7302 14.1404 55.1619 14.1404C54.6454 14.1404 54.4394 13.909 54.2345 13.4818H52.6312C52.5936 14.389 53.3679 15.6432 55.1731 15.6432C56.9783 15.6432 57.5161 14.3301 57.5161 13.5671C57.5161 13.012 57.2614 12.115 55.7566 11.7507L55.7576 11.7497Z" fill="#2E3538"/>
<path d="M60.1769 13.2319V7.14551H58.395V13.0959C58.395 15.2197 59.1926 15.4582 60.5331 15.4582H60.6335C60.7725 15.4582 60.8862 15.3455 60.8862 15.2055V13.7341H60.6812C60.4032 13.7341 60.1779 13.5089 60.1779 13.2308L60.1769 13.2319Z" fill="#2E3538"/>
</g>
</g>
<defs>
<clipPath id="clip0_2882_205">
<rect width="62" height="16.3372" fill="white" transform="translate(5 4)"/>
</clipPath>
</defs>
</svg>
