<svg width="72" height="24" viewBox="0 0 72 24" fill="none" xmlns="http://www.w3.org/2000/svg">
<g clip-path="url(#clip0_2895_1666)">
<path d="M12.2527 12.1136C12.6591 11.7872 12.8818 11.2934 12.8818 10.8786C12.8818 9.87909 12.1056 9.12061 10.7949 9.12061H5V10.6199L6.9834 13.0501H10.6482C11.0102 13.0501 11.2518 13.2571 11.2518 13.5671C11.2518 13.8772 11.0102 14.0842 10.6741 14.0842H6.9834V13.0501H5V15.5839H11.0102C12.5452 15.5839 13.2865 14.7909 13.2865 13.7051C13.2865 13.0639 12.9323 12.4176 12.2523 12.1136H12.2527ZM10.2862 11.6539H6.9834V10.6199H10.2603C10.6137 10.6199 10.8466 10.8355 10.8466 11.1369C10.8466 11.4383 10.6137 11.6539 10.2862 11.6539Z" fill="white"/>
<path d="M17.7446 10.8096H20.7027V15.5839H22.7374V10.8096H25.6955V9.12061H17.7446V10.8096Z" fill="white"/>
<path d="M16.4775 9.12061H14.4424V15.5843H16.4775V9.12061Z" fill="white"/>
<path d="M59.0498 9.12061V10.8096H62.0074V15.5839H64.0426V10.8096H67.0002V9.12061H59.0498Z" fill="white"/>
<path d="M31.8093 11.5424L30.0503 11.4648C29.0674 11.4217 28.7309 11.2837 28.7309 11.0082C28.7309 10.7326 29.1015 10.6119 30.1883 10.6119H31.1798C32.2058 10.6119 32.7576 10.7757 32.8957 11.1979H35.0344C34.8791 9.71542 33.4825 9.00049 31.1107 9.00049H30.2828C27.7821 9.00049 26.6266 9.75897 26.6266 11.0776C26.6266 12.3962 27.6785 13.0167 29.731 13.1029L31.6367 13.1805C32.6627 13.2237 33.0079 13.353 33.0079 13.6717C33.0079 13.9649 32.6631 14.0938 31.5245 14.0938H30.4122C29.3086 14.0938 28.7913 13.9127 28.6445 13.4475H26.5059C26.6525 15.0071 27.8943 15.7052 30.4899 15.7052H31.4727C34.0856 15.7052 35.0943 14.9554 35.0943 13.6109C35.0943 12.1025 33.8181 11.6287 31.8089 11.5424H31.8093Z" fill="white"/>
<path d="M55.747 11.3956H51.2974V9.12061H49.2886V15.5839H51.2974V13.0501H55.747V15.5839H57.7563V9.12061H55.747V11.3956Z" fill="white"/>
<path d="M38.3711 9.12061H36.3359V15.5843H38.3711V9.12061Z" fill="white"/>
<path d="M39.5869 12.3525C39.5869 14.007 40.8027 15.5843 43.1395 15.5843H47.6841V12.3611H45.7007V13.8953H43.3898C42.3034 13.8953 41.6394 13.2231 41.6394 12.3525C41.6394 11.4819 42.3034 10.8096 43.3898 10.8096H47.6841V9.12061H43.1395C40.8027 9.12061 39.5869 10.7061 39.5869 12.3525Z" fill="white"/>
</g>
<defs>
<clipPath id="clip0_2895_1666">
<rect width="62" height="6.70474" fill="white" transform="translate(5 9)"/>
</clipPath>
</defs>
</svg>
