<svg width="72" height="24" viewBox="0 0 72 24" fill="none" xmlns="http://www.w3.org/2000/svg">
<g clip-path="url(#clip0_2882_1007)">
<path d="M17.5558 16.3421L14.4639 14.5559C14.0296 14.3058 13.4741 14.4546 13.2227 14.8889C13.1253 15.06 13.0871 15.2483 13.1056 15.4312V18.9219C13.1056 19.4207 13.511 19.8261 14.0111 19.8261C14.51 19.8261 14.9154 19.4207 14.9154 18.9219V16.9146L16.6476 17.915C17.0819 18.1664 17.6387 18.0163 17.8888 17.582C18.1402 17.1476 17.9914 16.5921 17.5558 16.3421Z" fill="white"/>
<path d="M9.86632 12.5144C9.87159 12.1919 9.70179 11.8918 9.42275 11.7299L6.33091 9.94512C6.19665 9.86746 6.04265 9.82666 5.88865 9.82666C5.57144 9.82666 5.2766 9.99645 5.11866 10.2702C4.87384 10.6941 5.01994 11.2377 5.44377 11.4825L7.22595 12.5105L5.44377 13.5398C5.23843 13.6582 5.09102 13.8491 5.03047 14.0781C4.96861 14.3071 5.00019 14.5467 5.11866 14.752C5.2766 15.0258 5.57144 15.1956 5.88734 15.1956C6.04265 15.1956 6.19665 15.1548 6.33091 15.0771L9.42275 13.2923C9.69916 13.1317 9.86895 12.8343 9.86632 12.5144Z" fill="white"/>
<path d="M7.03259 8.68039L10.1244 10.4652C10.4851 10.6745 10.93 10.606 11.2143 10.3283C11.3946 10.1625 11.5065 9.92555 11.5065 9.6623V6.08477C11.5065 5.5846 11.1011 5.1792 10.6022 5.1792C10.1021 5.1792 9.69665 5.5846 9.69665 6.08477V8.12099L7.94079 7.10749C7.50643 6.85608 6.95098 7.00482 6.69958 7.43918C6.44818 7.87354 6.59823 8.42899 7.03259 8.68039Z" fill="white"/>
<path d="M13.9846 12.6594C13.9846 12.7279 13.9451 12.8226 13.8964 12.8727L12.671 14.0981C12.6223 14.1468 12.5262 14.1863 12.4578 14.1863H12.1458C12.0774 14.1863 11.9813 14.1468 11.9326 14.0981L10.7059 12.8727C10.6572 12.8226 10.6177 12.7279 10.6177 12.6594V12.3475C10.6177 12.2777 10.6572 12.183 10.7059 12.1343L11.9326 10.9075C11.9813 10.8588 12.0774 10.8193 12.1458 10.8193H12.4578C12.5262 10.8193 12.6223 10.8588 12.671 10.9075L13.8964 12.1343C13.9451 12.183 13.9846 12.2777 13.9846 12.3475V12.6594ZM12.8908 12.5094V12.4962C12.8908 12.4462 12.8619 12.3764 12.8263 12.3396L12.4644 11.9789C12.4288 11.9421 12.3591 11.9131 12.3077 11.9131H12.2946C12.2445 11.9131 12.1748 11.9421 12.1379 11.9789L11.7773 12.3396C11.7417 12.3751 11.7128 12.4449 11.7128 12.4962V12.5094C11.7128 12.5607 11.7417 12.6305 11.7773 12.666L12.1379 13.028C12.1748 13.0635 12.2445 13.0925 12.2946 13.0925H12.3077C12.3591 13.0925 12.4288 13.0635 12.4644 13.028L12.8263 12.666C12.8619 12.6305 12.8908 12.5607 12.8908 12.5094Z" fill="white"/>
<path d="M14.464 10.4652L17.5559 8.68039C17.9902 8.4303 18.1403 7.87354 17.8889 7.43918C17.6375 7.00482 17.082 6.85608 16.6477 7.10749L14.9155 8.10783V6.08477C14.9155 5.5846 14.5101 5.1792 14.0113 5.1792C13.5111 5.1792 13.1057 5.5846 13.1057 6.08477V9.59122C13.0886 9.77286 13.1241 9.9624 13.2228 10.1335C13.4742 10.5679 14.0297 10.7166 14.464 10.4652Z" fill="white"/>
<path d="M10.7444 14.4506C10.539 14.4111 10.3192 14.444 10.1244 14.5559L7.03259 16.342C6.59823 16.5921 6.44818 17.1476 6.69958 17.5819C6.95098 18.0176 7.50643 18.1663 7.94079 17.9149L9.69665 16.9014V18.9218C9.69665 19.4207 10.1021 19.8261 10.6022 19.8261C11.1011 19.8261 11.5065 19.4207 11.5065 18.9218V15.3443C11.5065 14.8928 11.1761 14.519 10.7444 14.4506Z" fill="white"/>
<path d="M19.488 10.2599C19.2379 9.82425 18.6811 9.67552 18.2467 9.92692L15.1549 11.7117C14.8588 11.8828 14.6955 12.1961 14.7008 12.5146C14.6982 12.8319 14.8614 13.1412 15.1549 13.3096L18.2467 15.0958C18.6811 15.3459 19.2366 15.1971 19.488 14.7628C19.7394 14.3284 19.5893 13.773 19.155 13.5216L17.4044 12.5107L19.155 11.4998C19.5906 11.2497 19.7394 10.6943 19.488 10.2599Z" fill="white"/>
<path d="M66.9986 12.3012V12.3026V12.3355C66.9986 12.5039 66.8578 12.629 66.6841 12.629H62.3405C62.3484 12.7317 62.3615 12.8317 62.3826 12.9304C62.584 13.8715 63.3895 14.5718 64.3464 14.5797C64.3491 14.5797 64.3978 14.5797 64.4728 14.5797C64.4846 14.5797 64.4965 14.5797 64.5083 14.5797H64.5991C64.6189 14.5797 64.6386 14.5797 64.6597 14.5783C64.6781 14.5783 64.6965 14.577 64.715 14.5757C64.7163 14.5757 64.7176 14.5757 64.7189 14.5744C65.0361 14.5494 65.356 14.4217 65.6416 14.2164C65.6416 14.2164 65.6416 14.2164 65.6429 14.2164C65.6574 14.2058 65.6732 14.194 65.6877 14.1822C65.6903 14.1808 65.6929 14.1782 65.6969 14.1756C65.7087 14.1664 65.7219 14.1558 65.7351 14.1453C65.7403 14.1413 65.7443 14.1374 65.7495 14.1334C65.7601 14.1256 65.7706 14.1163 65.7811 14.1071C65.7877 14.1019 65.7956 14.0953 65.8022 14.09C65.8101 14.0821 65.818 14.0742 65.8272 14.0676C65.8351 14.0597 65.8443 14.0518 65.8522 14.0439C65.8588 14.0387 65.8654 14.0321 65.8719 14.0255C65.8825 14.0163 65.8917 14.0071 65.9022 13.9979C65.9075 13.9926 65.9127 13.986 65.918 13.9808C65.9285 13.9702 65.9391 13.9597 65.9496 13.9492C65.9549 13.9439 65.9588 13.94 65.9641 13.9347C65.9746 13.9229 65.9851 13.911 65.9957 13.8992C66.0009 13.8952 66.0049 13.8899 66.0088 13.8847C66.0207 13.8728 66.0312 13.861 66.0417 13.8491C66.0457 13.8439 66.051 13.8386 66.0549 13.8333C66.0654 13.8202 66.0746 13.8083 66.0852 13.7965C66.0904 13.7899 66.0957 13.7833 66.101 13.7767C66.1102 13.7649 66.1194 13.7544 66.1273 13.7438C66.1352 13.7333 66.1418 13.7241 66.1484 13.7149C66.1549 13.7057 66.1615 13.6978 66.1681 13.6886C66.1786 13.6741 66.1892 13.6596 66.1984 13.6451C66.2023 13.6399 66.205 13.6359 66.2076 13.632C66.2339 13.5938 66.2589 13.5543 66.2839 13.5135C66.2839 13.5135 66.2839 13.5122 66.2852 13.5109C66.2905 13.5017 66.2971 13.4938 66.3037 13.4845C66.3063 13.4806 66.3089 13.4766 66.3129 13.474C66.3168 13.4674 66.3221 13.4635 66.326 13.4582C66.33 13.4543 66.3339 13.4503 66.3379 13.4464C66.3432 13.4424 66.3471 13.4385 66.3524 13.4345C66.3563 13.4306 66.3603 13.4266 66.3655 13.424C66.3721 13.4187 66.38 13.4135 66.3879 13.4095C66.3932 13.4056 66.3998 13.4016 66.405 13.399C66.4116 13.3964 66.4169 13.3937 66.4221 13.3911C66.4274 13.3885 66.4327 13.3871 66.4366 13.3845C66.4445 13.3819 66.4511 13.3806 66.459 13.3779C66.4629 13.3766 66.4656 13.3753 66.4695 13.374C66.4945 13.3687 66.5208 13.3648 66.5459 13.3648C66.5735 13.3648 66.6025 13.3687 66.6288 13.3766C66.6301 13.3766 66.6301 13.3766 66.6314 13.3766C66.6419 13.3806 66.6538 13.3832 66.6643 13.3885C66.667 13.3898 66.6696 13.3898 66.6722 13.3911C66.6841 13.3964 66.6946 13.4016 66.7051 13.4082L66.7104 13.4108C66.8552 13.5161 66.8999 13.7004 66.8117 13.8518L66.8104 13.8531C66.7999 13.8702 66.7894 13.8873 66.7788 13.9031C66.7762 13.9071 66.7736 13.911 66.7709 13.915C66.4629 14.3835 66.0444 14.7573 65.5771 14.9811C65.5666 14.9851 65.5574 14.9903 65.5468 14.9956C65.5455 14.9956 65.5429 14.9969 65.5416 14.9969C65.3257 15.0969 65.094 15.1667 64.8466 15.1957C64.8413 15.1957 64.8361 15.197 64.8308 15.197C64.8097 15.1996 64.7887 15.2022 64.7676 15.2035C64.7558 15.2035 64.7439 15.2049 64.7308 15.2062C64.7163 15.2062 64.7005 15.2075 64.686 15.2088C64.6571 15.2088 64.6281 15.2101 64.5991 15.2101C64.5952 15.2101 64.4859 15.2101 64.4122 15.2101C64.3701 15.2101 64.3464 15.2101 64.3438 15.2101C62.8828 15.1996 61.7061 13.9808 61.7061 12.4882C61.7061 10.9705 62.8907 9.74512 64.3635 9.74512C64.407 9.74512 64.4504 9.74643 64.4938 9.74775C65.0072 9.77407 65.481 9.94913 65.8746 10.2361C65.8759 10.2374 65.8772 10.2387 65.8785 10.2387C65.9009 10.2545 65.922 10.2716 65.943 10.2874C65.9535 10.2966 65.9654 10.3058 65.9772 10.315C65.9878 10.3229 65.9983 10.3322 66.0088 10.3401C66.563 10.8021 66.9368 11.4957 66.9986 12.2986V12.3012ZM62.3826 12.009H66.3142C66.1194 11.0614 65.3046 10.3756 64.3635 10.3756C63.4053 10.3756 62.5971 11.0482 62.3826 12.009Z" fill="white"/>
<path d="M55.8938 9.83725C55.9425 9.88595 55.9754 9.95177 55.9833 10.0281C55.9833 10.0386 55.9846 10.0492 55.9846 10.0597V14.8942C55.9846 15.0667 55.8398 15.2101 55.6687 15.2101C55.4976 15.2101 55.3541 15.0667 55.3541 14.8942V14.2519C55.2344 14.3967 55.1027 14.5283 54.9593 14.6428C54.9553 14.6468 54.9514 14.6494 54.9474 14.6534C54.9343 14.6639 54.9198 14.6744 54.9066 14.6836C54.4723 15.018 53.9444 15.2101 53.3929 15.2101C52.5045 15.2101 51.7226 14.7376 51.2567 14.0216C51.2527 14.0163 51.2475 14.0097 51.2435 14.0045C51.2304 13.9821 51.2172 13.9597 51.2027 13.936C51.1935 13.9215 51.1856 13.9071 51.1764 13.8926C51.1672 13.8781 51.1593 13.8623 51.1514 13.8465C51.1382 13.8241 51.1251 13.8004 51.1132 13.7781C51.1093 13.7702 51.1066 13.7623 51.1027 13.7544C50.9303 13.4122 50.8236 13.0265 50.8052 12.6171C50.8026 12.5711 50.8013 12.525 50.8013 12.4776C50.8013 12.4302 50.8026 12.3842 50.8052 12.3381C50.8236 11.9288 50.9303 11.5431 51.1027 11.1996C51.1066 11.193 51.1093 11.1851 51.1132 11.1772C51.1251 11.1548 51.1382 11.1311 51.1514 11.1087C51.1593 11.0929 51.1672 11.0771 51.1764 11.0627C51.1843 11.0482 51.1935 11.0337 51.2027 11.0192C51.2159 10.9969 51.2304 10.9732 51.2435 10.9508C51.2475 10.9455 51.2527 10.9389 51.2567 10.9337C51.7226 10.2176 52.5045 9.74512 53.3929 9.74512C53.9931 9.74512 54.5604 9.96493 55.0119 10.348C55.1356 10.4519 55.2501 10.5664 55.3541 10.6928V10.0597C55.3541 10.0492 55.3541 10.0386 55.3554 10.0281C55.3633 9.95177 55.3963 9.88595 55.445 9.83725C55.445 9.83725 55.445 9.83725 55.445 9.83594C55.4502 9.83067 55.4568 9.82672 55.4621 9.82146C55.4634 9.82014 55.466 9.81751 55.4673 9.81619C55.4713 9.81225 55.4765 9.80961 55.4805 9.80698C55.4844 9.80435 55.4884 9.8004 55.4923 9.79777C55.495 9.79645 55.4976 9.79513 55.5002 9.7925C55.5068 9.78987 55.5121 9.78592 55.5187 9.78197C55.52 9.78197 55.5213 9.78066 55.5226 9.78066C55.5305 9.77671 55.5384 9.77276 55.5463 9.76881C55.5463 9.76881 55.5463 9.76881 55.5476 9.76881C55.566 9.76091 55.5858 9.75565 55.6055 9.7517C55.6068 9.7517 55.6095 9.75038 55.6108 9.75038C55.6187 9.74907 55.6279 9.74775 55.6371 9.74643C55.6477 9.74643 55.6582 9.74512 55.6687 9.74512C55.6806 9.74512 55.6911 9.74643 55.7016 9.74643C55.7108 9.74775 55.7187 9.74907 55.7279 9.75038C55.7293 9.75038 55.7306 9.7517 55.7332 9.7517C55.753 9.75565 55.7727 9.76091 55.7911 9.76881H55.7924C55.8003 9.77276 55.8082 9.77671 55.8148 9.78066C55.8174 9.78066 55.8188 9.78197 55.8201 9.78197C55.8253 9.78592 55.8319 9.78987 55.8372 9.7925C55.8398 9.79513 55.8438 9.79645 55.8464 9.79777C55.8504 9.8004 55.8543 9.80435 55.8583 9.80698C55.8622 9.80961 55.8661 9.81225 55.8701 9.81619C55.8727 9.81751 55.874 9.82014 55.8767 9.82146C55.8819 9.82672 55.8885 9.83067 55.8925 9.83594C55.8938 9.83725 55.8938 9.83725 55.8938 9.83725ZM53.3929 14.5797C54.4736 14.5797 55.3541 13.6372 55.3541 12.4776C55.3541 11.3128 54.4736 10.3651 53.3929 10.3651C52.3202 10.3651 51.4317 11.3114 51.4317 12.4776C51.4317 12.5145 51.4331 12.55 51.4344 12.5856C51.4344 12.6014 51.437 12.6158 51.437 12.6303C51.4383 12.6514 51.4396 12.6724 51.4423 12.6922C51.4436 12.7093 51.4462 12.7251 51.4475 12.7409C51.4502 12.7593 51.4515 12.779 51.4541 12.7975C51.4568 12.8119 51.4594 12.8251 51.4607 12.8383C51.4647 12.8593 51.4673 12.8804 51.4712 12.9015C51.4739 12.912 51.4765 12.9212 51.4778 12.9304C51.4831 12.9554 51.4883 12.9791 51.4936 13.0041C51.4949 13.0094 51.4962 13.0146 51.4989 13.0199C51.7226 13.9202 52.4913 14.5797 53.3929 14.5797Z" fill="white"/>
<path d="M47.9818 7.46533H47.8963C47.8858 7.46533 47.8739 7.46533 47.8634 7.46665C47.8515 7.46533 47.841 7.46533 47.8292 7.46533C47.7989 7.46533 47.7686 7.46533 47.7383 7.46665C47.7331 7.46665 47.7265 7.46796 47.7212 7.46796C47.6975 7.46796 47.6738 7.46928 47.6502 7.47191C47.6462 7.47191 47.6409 7.47191 47.637 7.47191C47.612 7.47455 47.5883 7.47586 47.5646 7.47849C47.562 7.47981 47.5593 7.47981 47.5567 7.47981C47.5304 7.48376 47.5054 7.48639 47.4817 7.49034C47.4804 7.49034 47.479 7.49034 47.479 7.49034C47.3198 7.51535 47.1763 7.5601 47.0486 7.62328C47.0486 7.6246 47.0473 7.6246 47.046 7.6246C47.0276 7.63513 47.0078 7.64566 46.9894 7.65619C46.9855 7.6575 46.9828 7.66014 46.9789 7.66277C46.9631 7.67198 46.9473 7.68119 46.9315 7.69172C46.9249 7.69567 46.9196 7.70094 46.9144 7.70489C46.9012 7.71278 46.8894 7.722 46.8762 7.73121C46.867 7.73911 46.8578 7.74701 46.8486 7.75359C46.8407 7.76017 46.8328 7.76675 46.8249 7.77333C46.8104 7.78649 46.7972 7.79834 46.7841 7.8115C46.7814 7.81413 46.7788 7.81677 46.7762 7.8194C46.7604 7.83651 46.7446 7.85231 46.7288 7.86942C46.7262 7.87337 46.7235 7.87731 46.7209 7.87995C46.7077 7.89443 46.6946 7.9089 46.6827 7.92338C46.6788 7.92996 46.6735 7.93654 46.6696 7.94313C46.659 7.95629 46.6498 7.96813 46.6406 7.9813C46.638 7.98656 46.6353 7.99051 46.6314 7.99446C46.6209 8.01025 46.6103 8.02605 46.6011 8.04184C46.5998 8.04448 46.5985 8.04579 46.5972 8.04842C46.5116 8.18926 46.4511 8.35511 46.4129 8.55518C46.4129 8.55781 46.4129 8.56176 46.4116 8.56439C46.4063 8.5894 46.4024 8.61572 46.3984 8.64205C46.3971 8.64994 46.3958 8.65784 46.3958 8.66574C46.3918 8.68812 46.3892 8.71049 46.3866 8.73418C46.3853 8.74735 46.3839 8.76051 46.3826 8.77499C46.38 8.79341 46.3774 8.81053 46.376 8.83027C46.3747 8.85001 46.3734 8.86976 46.3721 8.89082C46.3708 8.90398 46.3708 8.91714 46.3695 8.93162C46.3681 8.95926 46.3668 8.98822 46.3655 9.01717C46.3655 9.02507 46.3642 9.03034 46.3642 9.03692C46.3629 9.07377 46.3629 9.11194 46.3629 9.1488V9.66871H45.7074C45.6666 9.6674 45.6258 9.67529 45.5889 9.68846C45.4705 9.73189 45.3862 9.84377 45.3862 9.97408C45.3862 10.0965 45.4468 10.2005 45.5415 10.261C45.5889 10.2913 45.6442 10.3097 45.7048 10.3124H45.7074V10.3137H46.3629V14.9047C46.3616 14.9113 46.3629 14.9165 46.3629 14.9231C46.3629 14.9271 46.3629 14.931 46.3629 14.935C46.3668 15.0087 46.3971 15.0758 46.4458 15.1271L46.4471 15.1285C46.4537 15.135 46.4616 15.1416 46.4682 15.1482C46.4695 15.1495 46.4708 15.1495 46.4721 15.1508C46.4774 15.1561 46.484 15.1601 46.4892 15.164C46.4919 15.1666 46.4958 15.1693 46.4985 15.1706C46.5011 15.1732 46.5037 15.1745 46.5077 15.1758C46.559 15.2088 46.6195 15.2272 46.684 15.2272C46.6946 15.2272 46.7051 15.2259 46.7143 15.2245C46.7762 15.2193 46.8328 15.193 46.8788 15.1548L46.8802 15.1535C46.8867 15.1482 46.892 15.1429 46.8973 15.1364C46.8986 15.135 46.9012 15.1337 46.9025 15.1324C46.9078 15.1271 46.9117 15.1219 46.9157 15.1179C46.9657 15.0574 46.9934 14.9824 46.9894 14.9047V10.3137H47.6949V10.3124H47.6975C47.8844 10.3031 48.0213 10.157 48.0161 9.9754C48.0161 9.97408 48.0161 9.97408 48.0161 9.97276C48.0174 9.96618 48.0161 9.9596 48.0161 9.95302C48.0161 9.95039 48.0161 9.94775 48.0161 9.94644C48.0108 9.87668 47.9805 9.8135 47.9331 9.7648C47.9331 9.7648 47.9331 9.7648 47.9331 9.76348C47.9318 9.76348 47.9318 9.76348 47.9318 9.76348C47.9253 9.7569 47.92 9.75163 47.9134 9.74637C47.9108 9.74374 47.9081 9.74242 47.9068 9.73979C47.9016 9.73584 47.8976 9.73321 47.8923 9.72926C47.8884 9.72663 47.8831 9.72268 47.8792 9.72004C47.8765 9.71873 47.8726 9.7161 47.87 9.71478C47.8634 9.71083 47.8568 9.70688 47.8502 9.70425C47.8489 9.70293 47.8463 9.70162 47.845 9.70162C47.8371 9.69767 47.8292 9.69372 47.8213 9.69109C47.82 9.68977 47.8186 9.68977 47.816 9.68846C47.8081 9.68582 47.8002 9.68319 47.7923 9.68056C47.7897 9.68056 47.787 9.67924 47.7844 9.67924C47.7765 9.67793 47.7699 9.67529 47.762 9.67398C47.7581 9.67398 47.7541 9.67398 47.7502 9.67266C47.7449 9.67134 47.7383 9.67134 47.7318 9.67003C47.7265 9.67003 47.7212 9.67003 47.7173 9.67003C47.7133 9.67003 47.7094 9.66871 47.7054 9.66871C47.7015 9.66871 47.6962 9.66871 47.6949 9.66871H46.9894V9.15011C46.9894 9.14617 46.9894 9.14222 46.9894 9.13958C46.9907 9.11326 46.9907 9.08694 46.992 9.06193C46.992 9.05535 46.992 9.04745 46.9934 9.04087C46.9934 9.01849 46.9947 8.99612 46.996 8.97506C46.996 8.97111 46.9973 8.96584 46.9973 8.96189C46.9986 8.93688 47.0013 8.91188 47.0039 8.88818C47.0289 8.63152 47.0842 8.46962 47.1421 8.3709C47.1434 8.36827 47.1434 8.36695 47.1447 8.36432C47.1487 8.35774 47.1539 8.35116 47.1579 8.34458C47.1605 8.33931 47.1645 8.33405 47.1684 8.32878C47.1697 8.32615 47.1724 8.32089 47.175 8.31825C47.1816 8.30904 47.1882 8.30114 47.1961 8.29325C47.279 8.19979 47.408 8.14319 47.5949 8.12082C47.5975 8.12082 47.5988 8.1195 47.6028 8.1195C47.6133 8.11819 47.6251 8.11687 47.6357 8.11687C47.6409 8.11555 47.6475 8.11555 47.6528 8.11424C47.6633 8.11424 47.6725 8.11292 47.6831 8.11292C47.691 8.11292 47.6975 8.1116 47.7068 8.1116C47.716 8.11029 47.7252 8.11029 47.7344 8.11029C47.7436 8.11029 47.7528 8.10897 47.762 8.10897C47.7713 8.10897 47.7805 8.10897 47.7897 8.10897C47.8028 8.10897 47.816 8.10897 47.8292 8.10897H47.8305C47.841 8.10897 47.8502 8.10766 47.8608 8.10634C47.8726 8.10766 47.8844 8.10897 47.8963 8.10897H47.9818C48.1582 8.10897 48.303 7.96419 48.303 7.78649C48.303 7.6088 48.1582 7.46533 47.9818 7.46533Z" fill="white"/>
<path d="M49.6798 7.47457C49.6798 7.47457 49.6784 7.47325 49.6771 7.47325C49.6705 7.47062 49.6653 7.46799 49.6574 7.46667C49.6547 7.46535 49.6508 7.46404 49.6468 7.46272C49.6416 7.4614 49.6363 7.46009 49.6311 7.45877C49.6258 7.45746 49.6205 7.45482 49.6166 7.45482C49.61 7.45351 49.6047 7.45219 49.5981 7.45219C49.5929 7.45087 49.5889 7.45087 49.5837 7.44956C49.5731 7.44824 49.5613 7.44824 49.5508 7.44824C49.3796 7.44824 49.2349 7.59171 49.2349 7.76282V14.8942C49.2349 15.0666 49.3796 15.2101 49.5508 15.2101C49.5613 15.2101 49.5731 15.2101 49.5837 15.2088C49.585 15.2088 49.5876 15.2075 49.5889 15.2075C49.5981 15.2061 49.6074 15.2048 49.6166 15.2035C49.6179 15.2035 49.6205 15.2022 49.6232 15.2022C49.6311 15.1996 49.6389 15.1982 49.6468 15.1956C49.6482 15.1956 49.6495 15.1956 49.6508 15.1943C49.7719 15.1561 49.8614 15.0535 49.8746 14.9271C49.8759 14.9166 49.8772 14.906 49.8772 14.8942V7.76282C49.8772 7.75229 49.8759 7.74176 49.8746 7.73123C49.8627 7.6154 49.7864 7.51932 49.6798 7.47457Z" fill="white"/>
<path d="M25.5124 13.5319C25.5097 13.5135 25.5097 13.4964 25.5071 13.4793C25.5058 13.4661 25.5045 13.4543 25.5032 13.4424C25.5005 13.4279 25.4992 13.4148 25.4966 13.4003C25.4939 13.3871 25.4913 13.374 25.4887 13.3595C25.4874 13.349 25.4847 13.3371 25.4821 13.3266C25.4782 13.3108 25.4755 13.2963 25.4716 13.2805C25.4689 13.2726 25.4663 13.2634 25.4637 13.2555C25.4597 13.2384 25.4545 13.2226 25.4479 13.2068C25.4466 13.2002 25.4439 13.1937 25.4426 13.1884C25.436 13.17 25.4295 13.1529 25.4216 13.1344C25.4202 13.1318 25.4189 13.1278 25.4176 13.1239C25.4084 13.1055 25.4005 13.0857 25.3913 13.0673C25.39 13.066 25.39 13.0647 25.3887 13.0633C25.3136 12.912 25.207 12.7856 25.0767 12.679C25.0767 12.6777 25.0767 12.6777 25.0754 12.6777C25.057 12.6632 25.0385 12.6474 25.0188 12.6329C25.0188 12.6329 25.0175 12.6316 25.0162 12.6303C25.0148 12.6303 25.0135 12.629 25.0122 12.6277C25.0004 12.6198 24.9885 12.6106 24.978 12.6027C24.8161 12.4882 24.6371 12.3973 24.3765 12.2973C24.3725 12.296 24.3686 12.2947 24.3646 12.2934C24.3607 12.2907 24.3554 12.2894 24.3515 12.2868C24.204 12.2315 24.0514 12.1788 23.8947 12.1275C23.8947 12.1275 23.8947 12.1275 23.8934 12.1275C23.8934 12.1275 23.8921 12.1275 23.8921 12.1262C23.8895 12.1262 23.8868 12.1249 23.8829 12.1236C23.8684 12.1183 23.8526 12.113 23.8315 12.1064C23.821 12.1038 23.8131 12.1012 23.8052 12.0985C23.7526 12.0801 23.6986 12.063 23.6446 12.0446C23.6065 12.0314 23.5657 12.0183 23.517 12.0025C23.5038 11.9985 23.4722 11.988 23.4459 11.9801C23.4446 11.9801 23.4446 11.9788 23.4433 11.9788C23.4275 11.9735 23.4117 11.9682 23.3946 11.963C23.2629 11.9209 23.155 11.884 23.0629 11.8498C22.9128 11.7945 22.7759 11.7353 22.664 11.6642C22.6614 11.6629 22.6588 11.6616 22.6575 11.6602C22.5048 11.5628 22.3995 11.4431 22.3745 11.2864L22.3732 11.2851C22.3718 11.2746 22.3705 11.2627 22.3705 11.2522C22.3692 11.2496 22.3692 11.2483 22.3692 11.2469C22.3679 11.2338 22.3679 11.2219 22.3679 11.2088C22.3679 11.1903 22.3692 11.1719 22.3705 11.1548C22.3705 11.1495 22.3705 11.1456 22.3718 11.1416C22.3732 11.1272 22.3745 11.114 22.3758 11.1008C22.3771 11.0969 22.3771 11.0929 22.3784 11.089C22.3811 11.0745 22.3837 11.0614 22.3863 11.0469C22.3876 11.0456 22.3876 11.0429 22.3889 11.0403C22.3929 11.0245 22.3968 11.01 22.4021 10.9955C22.4021 10.9942 22.4021 10.9942 22.4021 10.9942C22.4706 10.7902 22.6325 10.6388 22.8233 10.5322C22.8365 10.5256 22.8496 10.5191 22.8615 10.5125C22.8746 10.5059 22.8865 10.4993 22.8983 10.4941C22.9181 10.4848 22.9378 10.4756 22.9576 10.4677C22.9694 10.4625 22.9799 10.4572 22.9918 10.4533C23.0128 10.4454 23.0339 10.4375 23.055 10.4296C23.0655 10.4256 23.0773 10.4217 23.0892 10.4177C23.1102 10.4111 23.13 10.4046 23.1511 10.3993C23.1642 10.3953 23.1761 10.3914 23.1892 10.3888C23.209 10.3835 23.2287 10.3795 23.2471 10.3743C23.2603 10.3716 23.2735 10.369 23.2866 10.3664C23.3077 10.3624 23.3274 10.3585 23.3459 10.3559C23.3577 10.3545 23.3682 10.3532 23.3801 10.3506C23.4024 10.348 23.4261 10.3453 23.4498 10.344C23.4551 10.3427 23.4604 10.3427 23.4669 10.3414C23.4959 10.3401 23.5249 10.3387 23.5525 10.3387C23.5854 10.3387 23.6183 10.3401 23.6499 10.3414C23.6552 10.3414 23.6604 10.3414 23.6644 10.3414C23.8974 10.3559 24.0856 10.4124 24.2409 10.4875C24.2527 10.4927 24.2646 10.4993 24.2764 10.5046C24.283 10.5085 24.2896 10.5125 24.2962 10.5151C24.3107 10.523 24.3251 10.5309 24.3409 10.5401C24.3436 10.5414 24.3462 10.5428 24.3488 10.5441C24.3646 10.5533 24.3804 10.5638 24.3962 10.573C24.3975 10.5743 24.3988 10.5743 24.3988 10.5743C24.416 10.5849 24.4331 10.5967 24.4502 10.6073C24.4502 10.6086 24.4515 10.6086 24.4515 10.6099C24.4686 10.6204 24.4844 10.6309 24.5002 10.6428C24.5068 10.6481 24.512 10.652 24.5186 10.656C24.5555 10.6836 24.6134 10.7283 24.666 10.7718C24.6726 10.7757 24.6779 10.7797 24.6818 10.7836C24.7213 10.8165 24.7582 10.8455 24.7937 10.8718C24.8003 10.8771 24.8056 10.881 24.8095 10.8837C24.8108 10.885 24.8121 10.8863 24.8135 10.8863C24.8174 10.8889 24.8214 10.8916 24.8253 10.8942C24.8345 10.9008 24.845 10.9074 24.8543 10.9139C24.8582 10.9166 24.8622 10.9179 24.8661 10.9205C24.8753 10.9258 24.8845 10.931 24.8937 10.9363C24.8977 10.9376 24.9003 10.9389 24.9043 10.9403C24.9148 10.9455 24.924 10.9495 24.9345 10.9534C24.9372 10.9547 24.9385 10.9547 24.9411 10.9561C24.953 10.96 24.9648 10.964 24.9767 10.9653C24.9767 10.9653 24.9767 10.9653 24.978 10.9666C25.0043 10.9705 25.0293 10.9718 25.0556 10.9653C25.0583 10.9653 25.0609 10.964 25.0635 10.964C25.0701 10.9626 25.078 10.96 25.0846 10.9587C25.0872 10.9574 25.0885 10.9561 25.0912 10.9547C25.0938 10.9547 25.0964 10.9534 25.0991 10.9521C25.1096 10.9468 25.1201 10.9416 25.1307 10.935C25.1333 10.935 25.1346 10.9337 25.1359 10.9324C25.1478 10.9245 25.1583 10.9166 25.1688 10.9074C25.1702 10.906 25.1702 10.906 25.1702 10.906C25.1794 10.8981 25.1873 10.8889 25.1952 10.8797C25.2004 10.8731 25.2057 10.8652 25.2096 10.8573C25.211 10.856 25.2123 10.8547 25.2123 10.8534C25.2676 10.7613 25.236 10.6402 25.1386 10.5085C25.1372 10.5059 25.1359 10.5033 25.1333 10.5006C25.1294 10.4954 25.1267 10.4914 25.1228 10.4862C24.899 10.1966 24.3896 9.87937 23.9171 9.77802C23.9145 9.77802 23.9118 9.77802 23.9092 9.77671C23.8895 9.77276 23.8684 9.76881 23.8487 9.76486C23.8434 9.76486 23.8368 9.76354 23.8315 9.76223C23.8144 9.7596 23.7973 9.75696 23.7802 9.75565C23.7736 9.75433 23.767 9.75301 23.7605 9.75301C23.7447 9.7517 23.7276 9.75038 23.7118 9.74907C23.7052 9.74775 23.6986 9.74775 23.6933 9.74643C23.671 9.74643 23.6499 9.74512 23.6288 9.74512C23.5946 9.74512 23.5604 9.74512 23.5275 9.74643C23.5091 9.74643 23.4906 9.74775 23.4709 9.74907C23.4577 9.75038 23.4419 9.75038 23.4288 9.75038C23.4024 9.75301 23.3774 9.75433 23.3524 9.75696C23.3459 9.75696 23.338 9.75696 23.3314 9.75828C23.3024 9.76091 23.2735 9.76354 23.2458 9.76749C23.2419 9.76749 23.2392 9.76749 23.2366 9.76749C23.2063 9.77144 23.1774 9.77539 23.1484 9.78066C23.1471 9.78066 23.1445 9.78066 23.1432 9.78066C23.1142 9.7846 23.0852 9.78987 23.0576 9.79513C23.0563 9.79513 23.055 9.79645 23.0523 9.79645C22.9931 9.80698 22.9352 9.82014 22.8799 9.83462C22.8786 9.83462 22.8786 9.83594 22.8786 9.83594C22.8509 9.84252 22.8233 9.85042 22.7957 9.85831C22.7693 9.86621 22.7443 9.87542 22.7206 9.88332C22.718 9.88332 22.7167 9.88464 22.7141 9.88464C22.6904 9.89385 22.6667 9.90175 22.643 9.91096C22.6403 9.91228 22.6377 9.9136 22.6364 9.9136C22.6127 9.92281 22.5916 9.93202 22.5693 9.94255C22.5666 9.94387 22.5627 9.94387 22.5601 9.9465C22.5403 9.9544 22.5193 9.96493 22.5008 9.97414C22.4956 9.97677 22.4916 9.97809 22.4877 9.98072C22.4679 9.98994 22.4495 9.99915 22.4311 10.0097C22.4258 10.0123 22.4219 10.0149 22.4166 10.0176C22.3995 10.0268 22.3824 10.0373 22.3653 10.0479C22.36 10.0505 22.3547 10.0531 22.3495 10.0571C22.3271 10.0702 22.306 10.0847 22.285 10.0979C22.26 10.1163 22.2349 10.1334 22.2126 10.1518C22.2099 10.1518 22.2086 10.1532 22.2086 10.1545C22.0967 10.2374 22.0007 10.3256 21.9217 10.4282C21.9191 10.4322 21.9151 10.4361 21.9125 10.4401C21.9033 10.4546 21.8927 10.4677 21.8835 10.4809C21.8769 10.4914 21.8704 10.502 21.8638 10.5125C21.8585 10.5204 21.8532 10.5283 21.8493 10.5362C21.8388 10.5533 21.8295 10.5704 21.8203 10.5888C21.819 10.5915 21.8177 10.5928 21.8164 10.5954C21.7453 10.7362 21.7045 10.8981 21.6887 11.0943C21.6887 11.0969 21.6887 11.0995 21.6874 11.1022C21.6861 11.1364 21.6834 11.1706 21.6821 11.2075C21.6821 11.2351 21.6821 11.2627 21.6834 11.2904C21.6834 11.2943 21.6834 11.2983 21.6834 11.3022C21.6979 11.6787 21.869 11.9617 22.1784 12.1815C22.181 12.1828 22.1836 12.1854 22.1862 12.1867C22.1994 12.1959 22.2126 12.2052 22.2257 12.2144C22.2349 12.221 22.2455 12.2262 22.2547 12.2328C22.2573 12.2354 22.2613 12.2368 22.2639 12.2381C22.5693 12.4316 22.9431 12.5421 23.255 12.6303C23.4077 12.6751 23.5446 12.7132 23.5854 12.7251C23.5946 12.7277 23.6038 12.7303 23.6117 12.7343C23.7986 12.7962 23.9421 12.8462 24.0606 12.8936C24.0698 12.8962 24.0777 12.9001 24.0869 12.9028C24.0895 12.9041 24.0935 12.9054 24.0974 12.908C24.1646 12.9357 24.2304 12.9646 24.2935 12.9962C24.3462 13.0225 24.3949 13.0502 24.4436 13.0791C24.5686 13.1568 24.6647 13.241 24.7292 13.3332C24.7318 13.3358 24.7332 13.3384 24.7345 13.3411C24.7411 13.349 24.7463 13.3569 24.7503 13.3661C24.7542 13.3713 24.7569 13.3753 24.7595 13.3806C24.7634 13.3871 24.7674 13.3937 24.77 13.4003C24.774 13.4069 24.7766 13.4148 24.7805 13.4214C24.7832 13.4266 24.7858 13.4319 24.7884 13.4372C24.7911 13.4451 24.795 13.453 24.7977 13.4622C24.799 13.4661 24.8016 13.4714 24.8029 13.4766C24.8056 13.4859 24.8082 13.4951 24.8108 13.5043C24.8121 13.5082 24.8135 13.5122 24.8148 13.5175C24.8174 13.5267 24.82 13.5372 24.8214 13.5464C24.8227 13.5504 24.824 13.5556 24.824 13.5596C24.8253 13.5701 24.8266 13.5806 24.8279 13.5912C24.8293 13.5951 24.8293 13.5991 24.8293 13.603C24.8306 13.6188 24.8319 13.6333 24.8319 13.6491C24.8319 13.6728 24.8306 13.6951 24.8293 13.7175C24.8293 13.7241 24.8279 13.7307 24.8279 13.7373C24.8266 13.7544 24.824 13.7715 24.82 13.7886C24.82 13.7939 24.8187 13.7991 24.8174 13.8044C24.8095 13.8505 24.7963 13.8939 24.7792 13.9373C24.7779 13.9386 24.7779 13.94 24.7779 13.9413C24.7687 13.961 24.7595 13.9821 24.749 14.0005C24.7476 14.0031 24.7476 14.0045 24.7463 14.0058C24.724 14.0479 24.6976 14.0887 24.6647 14.1269C24.6489 14.1466 24.6318 14.165 24.6147 14.1835C24.6134 14.1835 24.6134 14.1835 24.6134 14.1848C24.5778 14.2203 24.5384 14.2532 24.4976 14.2835C24.4962 14.2848 24.4949 14.2848 24.4949 14.2861C24.4752 14.2993 24.4554 14.3138 24.4357 14.3256C24.4331 14.3283 24.4304 14.3296 24.4278 14.3309C24.3936 14.3519 24.3567 14.373 24.3199 14.3914C24.3067 14.398 24.2935 14.4046 24.2791 14.4112C24.2646 14.4178 24.2488 14.4257 24.233 14.4322C24.2198 14.4375 24.208 14.4428 24.1948 14.448C24.1593 14.4612 24.1251 14.4744 24.0895 14.4862C24.0843 14.4875 24.079 14.4888 24.0737 14.4915C24.0527 14.498 24.0316 14.5033 24.0106 14.5099C24.0053 14.5112 23.9987 14.5138 23.9934 14.5152C23.9237 14.5336 23.8552 14.5481 23.7907 14.5586C23.7894 14.5586 23.7881 14.5586 23.7868 14.5586C23.7539 14.5639 23.7223 14.5678 23.692 14.5718C23.6802 14.5731 23.6696 14.5744 23.6578 14.5744C23.6473 14.5757 23.6367 14.5757 23.6249 14.577C23.5999 14.5783 23.5736 14.5797 23.5499 14.5797C23.5012 14.5797 23.4538 14.5783 23.4077 14.5757C23.3893 14.5757 23.3709 14.5744 23.3524 14.5731C23.3274 14.5704 23.3011 14.5691 23.2774 14.5665C23.255 14.5652 23.2313 14.5625 23.2103 14.5599C23.1905 14.5573 23.1721 14.5546 23.1537 14.552C23.1129 14.5454 23.0747 14.5402 23.0365 14.5323C23.0194 14.5283 23.001 14.5257 22.9839 14.5217C22.9641 14.5165 22.9444 14.5125 22.9247 14.5073C22.9023 14.502 22.8812 14.4967 22.8602 14.4901C22.8457 14.4862 22.8299 14.4823 22.8167 14.4783C22.7812 14.4678 22.7456 14.4559 22.7114 14.4428C22.7035 14.4401 22.6956 14.4375 22.6877 14.4349C22.6114 14.4059 22.5364 14.3743 22.4627 14.3375C22.46 14.3361 22.4561 14.3335 22.4521 14.3322C22.4047 14.3085 22.3245 14.2638 22.2481 14.2203C22.2415 14.2164 22.2336 14.2124 22.2271 14.2085C22.1731 14.1769 22.127 14.1506 22.0836 14.1295C22.0796 14.1269 22.077 14.1256 22.0744 14.1242C22.0717 14.1229 22.0691 14.1216 22.0678 14.1216C22.0559 14.1163 22.0467 14.1111 22.0362 14.1071C22.0322 14.1058 22.0296 14.1045 22.027 14.1032C21.9993 14.0926 21.9743 14.0847 21.9493 14.0821C21.9414 14.0808 21.9335 14.0808 21.9256 14.0808C21.923 14.0795 21.9204 14.0795 21.9177 14.0795C21.8677 14.0795 21.8243 14.0966 21.7835 14.1348C21.7743 14.1427 21.7664 14.1506 21.7585 14.1598C21.7572 14.1624 21.7545 14.165 21.7519 14.1677C21.7466 14.1743 21.7427 14.1795 21.7387 14.1848C21.7361 14.1887 21.7335 14.1927 21.7321 14.1953C21.7282 14.2006 21.7242 14.2058 21.7216 14.2111C21.719 14.2151 21.7177 14.219 21.7164 14.223C21.7137 14.2282 21.7111 14.2335 21.7085 14.2387C21.7071 14.2427 21.7058 14.2453 21.7045 14.2493C21.7019 14.2559 21.7006 14.2611 21.6992 14.2664C21.6979 14.2703 21.6966 14.273 21.6966 14.2769C21.6953 14.2835 21.694 14.2901 21.6927 14.2967C21.6927 14.2993 21.6913 14.3019 21.6913 14.3046C21.69 14.3138 21.69 14.3217 21.69 14.3296C21.69 14.3309 21.69 14.3322 21.69 14.3335C21.69 14.344 21.6913 14.3533 21.694 14.3638C21.694 14.3651 21.694 14.3677 21.694 14.3691C21.6966 14.377 21.6979 14.3862 21.7006 14.3941C21.7019 14.398 21.7032 14.402 21.7045 14.4059C21.7071 14.4125 21.7085 14.4204 21.7124 14.427C21.7137 14.4309 21.715 14.4336 21.7164 14.4362C21.7335 14.4757 21.7611 14.5165 21.7966 14.556C21.8348 14.5981 21.8835 14.6402 21.9401 14.6836C21.9414 14.6836 21.9414 14.6836 21.9414 14.685C21.9572 14.6955 21.973 14.7073 21.9901 14.7192C21.9941 14.7218 21.9967 14.7244 22.0007 14.7258C22.0467 14.7573 22.0954 14.7876 22.1507 14.8192C22.1639 14.8271 22.177 14.835 22.1902 14.8416C22.2034 14.8495 22.2165 14.8561 22.2297 14.8626C22.2455 14.8719 22.2639 14.8811 22.281 14.8903C22.2929 14.8956 22.3034 14.9021 22.3152 14.9074C22.3416 14.9206 22.3692 14.9337 22.3968 14.9469C22.4008 14.9495 22.4034 14.9508 22.4074 14.9521C22.4376 14.9666 22.4679 14.9798 22.4982 14.9916C22.5114 14.9969 22.5232 15.0022 22.5364 15.0074C22.539 15.0087 22.5416 15.0101 22.5443 15.0101C22.8259 15.1206 23.1734 15.1943 23.4801 15.2075C23.5025 15.2088 23.5262 15.2101 23.5486 15.2101H23.5499C23.5604 15.2101 23.5696 15.2101 23.5801 15.2088C23.6038 15.2088 23.6275 15.2088 23.6512 15.2088C23.6539 15.2088 23.6565 15.2088 23.6591 15.2075C24.158 15.1917 24.5673 15.0627 24.9161 14.8074C24.9161 14.806 24.9161 14.806 24.9161 14.806C25.3031 14.5138 25.5163 14.1019 25.5163 13.6478C25.5163 13.6188 25.515 13.5898 25.5137 13.5622C25.5137 13.5517 25.5124 13.5411 25.5124 13.5319Z" fill="white"/>
<path d="M28.7306 9.75586C28.7293 9.75586 28.728 9.75586 28.7267 9.75586C28.1133 9.75586 27.5342 10.0059 27.1156 10.4482V10.0718C27.1156 9.89801 26.9813 9.75586 26.8115 9.75586C26.7997 9.75586 26.7892 9.75718 26.7786 9.75718C26.7036 9.76507 26.6378 9.79798 26.5891 9.84668C26.5878 9.84668 26.5878 9.84668 26.5865 9.848C26.5825 9.85326 26.5773 9.85853 26.5733 9.86379C26.5707 9.86511 26.568 9.86774 26.5667 9.87037C26.5628 9.87432 26.5601 9.87827 26.5575 9.88222C26.5549 9.88617 26.5522 9.89012 26.5483 9.89406C26.547 9.8967 26.5457 9.89933 26.5443 9.90196C26.5404 9.90854 26.5365 9.91512 26.5325 9.92039C26.5325 9.92171 26.5325 9.92302 26.5312 9.92434C26.5272 9.93224 26.5233 9.94013 26.5193 9.94803C26.5128 9.96777 26.5062 9.98752 26.5022 10.0073C26.5022 10.0086 26.5022 10.0099 26.5009 10.0099C26.4996 10.0204 26.4983 10.0296 26.497 10.0389C26.497 10.0494 26.4956 10.0599 26.4956 10.0718V14.9603L26.4917 14.9813L26.5075 14.9945C26.5075 15.0011 26.5088 15.0103 26.5128 15.0195C26.5128 15.0208 26.5141 15.0234 26.5141 15.0248C26.5167 15.0313 26.5207 15.0392 26.5272 15.0458C26.568 15.1235 26.6431 15.1827 26.7313 15.209L26.7378 15.2103H26.8115C26.8234 15.2103 26.8352 15.2103 26.8471 15.209C26.855 15.2077 26.8629 15.2051 26.8708 15.2038C26.8747 15.2038 26.8774 15.2038 26.8813 15.2024C26.8918 15.1998 26.9024 15.1972 26.9129 15.1932C26.9129 15.1932 26.9129 15.1932 26.9142 15.1932C26.9695 15.1735 27.0169 15.1393 27.0485 15.0932C27.0498 15.0919 27.0511 15.0906 27.0524 15.0892C27.0735 15.0669 27.0853 15.0432 27.0972 15.0103C27.0985 15.0063 27.0998 15.0037 27.0998 15.0011C27.1011 14.9997 27.1011 14.9997 27.1011 14.9984C27.1064 14.9826 27.1103 14.9668 27.1143 14.951L27.1156 14.9458V11.9869C27.1367 11.105 27.858 10.3877 28.724 10.3863C28.7254 10.3863 28.7254 10.3863 28.7267 10.3863C29.6085 10.3863 30.3259 11.1037 30.3259 11.9856V14.8944C30.3259 14.9063 30.3272 14.9168 30.3285 14.9274C30.3351 15.0037 30.368 15.0695 30.4167 15.1182C30.4167 15.1182 30.418 15.1182 30.418 15.1195C30.4233 15.1248 30.4286 15.1287 30.4338 15.134C30.4365 15.1366 30.4378 15.1379 30.4404 15.1393C30.4444 15.1432 30.4483 15.1458 30.4523 15.1485C30.4562 15.1524 30.4602 15.1551 30.4641 15.1577C30.4681 15.159 30.4707 15.1603 30.4733 15.163C30.4786 15.1669 30.4852 15.1695 30.4904 15.1735C30.4917 15.1735 30.4931 15.1748 30.4957 15.1748C30.5023 15.1788 30.5102 15.1827 30.5181 15.1867H30.5194C30.5378 15.1945 30.5576 15.1998 30.5773 15.2038C30.5799 15.2038 30.5812 15.2051 30.5826 15.2051C30.5918 15.2064 30.5997 15.2077 30.6089 15.209C30.6194 15.2103 30.6299 15.2103 30.6418 15.2103C30.6523 15.2103 30.6629 15.2103 30.6734 15.209C30.6826 15.2077 30.6918 15.2064 30.6997 15.2051C30.701 15.2051 30.7037 15.2038 30.705 15.2038C30.726 15.1998 30.7445 15.1945 30.7642 15.1867C30.7721 15.1827 30.78 15.1788 30.7879 15.1748C30.7892 15.1748 30.7905 15.1735 30.7918 15.1735C30.7984 15.1695 30.8037 15.1669 30.8103 15.163C30.8129 15.1603 30.8155 15.159 30.8182 15.1577C30.8221 15.1551 30.8261 15.1524 30.83 15.1485C30.834 15.1458 30.8392 15.1432 30.8432 15.1393C30.8445 15.1379 30.8471 15.1366 30.8484 15.134C30.8537 15.1287 30.8603 15.1248 30.8656 15.1195C30.8656 15.1182 30.8656 15.1182 30.8656 15.1182C30.9156 15.0695 30.9485 15.0037 30.9551 14.9274C30.9564 14.9168 30.9564 14.9063 30.9564 14.8944V11.9856C30.9564 10.7575 29.9587 9.75849 28.7306 9.75586Z" fill="white"/>
<path d="M34.4091 9.74512C35.8385 9.74512 37.0007 10.9705 37.0007 12.4776C37.0007 13.9847 35.8385 15.2101 34.4091 15.2101C34.3643 15.2101 34.3209 15.2088 34.2774 15.2062C34.2708 15.2062 34.2656 15.2062 34.259 15.2049C34.2208 15.2035 34.1827 15.1996 34.1458 15.1957C34.1445 15.1957 34.1432 15.1957 34.1419 15.1957C33.5772 15.1338 33.0494 14.8758 32.6295 14.4533C32.6124 14.4362 32.594 14.4191 32.5782 14.4006C32.5769 14.4006 32.5769 14.3993 32.5755 14.3993C32.5663 14.3901 32.5584 14.3796 32.5492 14.3691C32.5295 14.348 32.5097 14.3256 32.49 14.3032C32.4742 14.2861 32.4597 14.2664 32.4439 14.248C32.4334 14.2335 32.4215 14.219 32.4097 14.2045C32.386 14.1756 32.3636 14.1453 32.3426 14.115C32.3399 14.1111 32.3373 14.1071 32.3347 14.1032C32.078 13.7438 31.9108 13.3292 31.8477 12.8896C31.8411 12.8488 31.8371 12.808 31.8332 12.7672C31.8319 12.7632 31.8319 12.758 31.8305 12.7527C31.8266 12.7145 31.824 12.6777 31.8226 12.6395C31.8213 12.6316 31.8213 12.6237 31.8213 12.6145C31.8187 12.5698 31.8174 12.5237 31.8174 12.4776C31.8174 12.4316 31.8187 12.3855 31.8213 12.3407C31.8213 12.3315 31.8213 12.3236 31.8226 12.3157C31.824 12.2776 31.8266 12.2394 31.8305 12.2025C31.8319 12.1973 31.8319 12.192 31.8332 12.1881C31.8371 12.1472 31.8411 12.1064 31.8477 12.0656C31.9108 11.626 32.078 11.2114 32.3347 10.8521C32.336 10.8481 32.3386 10.8442 32.3412 10.8415C32.3636 10.81 32.386 10.7797 32.4097 10.7494C32.4202 10.7362 32.4321 10.7231 32.4426 10.7086C32.4584 10.6889 32.4742 10.6704 32.49 10.6507C32.5084 10.6296 32.5268 10.6099 32.5466 10.5888C32.5558 10.5783 32.5663 10.5664 32.5755 10.5559C32.5769 10.5559 32.5769 10.5546 32.5782 10.5546C32.5926 10.5375 32.6098 10.5217 32.6256 10.5059C33.0454 10.0821 33.5746 9.82146 34.1419 9.7596C34.1432 9.7596 34.1445 9.7596 34.1458 9.7596C34.1827 9.75565 34.2208 9.75301 34.259 9.75038C34.2656 9.75038 34.2708 9.74907 34.2774 9.74907C34.3209 9.74643 34.3643 9.74512 34.4091 9.74512ZM36.3597 12.2631C36.3597 12.2618 36.3597 12.2618 36.3597 12.2604C36.3136 11.7866 36.1188 11.3588 35.828 11.0284C35.8148 11.014 35.8029 10.9995 35.7898 10.985C35.7819 10.9771 35.774 10.9692 35.7661 10.9613C35.7503 10.9455 35.7358 10.9297 35.72 10.9139C35.7055 10.8995 35.6898 10.8863 35.6753 10.8731C35.6661 10.8652 35.6582 10.856 35.6489 10.8481C35.6253 10.8271 35.6016 10.8073 35.5779 10.7876C35.5779 10.7876 35.5766 10.7876 35.5766 10.7863C35.3015 10.5638 34.9711 10.4177 34.6157 10.3769C34.6118 10.3769 34.6091 10.3756 34.6065 10.3756C34.5788 10.3716 34.5525 10.3703 34.5249 10.369C34.5183 10.3677 34.513 10.3677 34.5078 10.3677C34.4749 10.3651 34.442 10.3651 34.4091 10.3651C34.3761 10.3651 34.3432 10.3651 34.3103 10.3677C34.3051 10.3677 34.2998 10.3677 34.2932 10.369C34.2656 10.3703 34.2393 10.3716 34.2116 10.3756C34.209 10.3756 34.2064 10.3769 34.2024 10.3769C33.847 10.4177 33.5166 10.5638 33.2416 10.7863C33.2416 10.7876 33.2402 10.7876 33.2402 10.7876C33.2165 10.8073 33.1929 10.8271 33.1692 10.8481C33.1599 10.856 33.152 10.8639 33.1428 10.8718C33.1284 10.8863 33.1126 10.8995 33.0981 10.9139C33.0836 10.9284 33.0691 10.9442 33.0533 10.96C33.0454 10.9679 33.0375 10.9758 33.0283 10.985C33.0165 10.9982 33.0046 11.0127 32.9915 11.0271C32.7006 11.3575 32.5045 11.7866 32.4584 12.2604C32.4584 12.2618 32.4584 12.2618 32.4584 12.2631C32.4558 12.2934 32.4531 12.3236 32.4518 12.3552C32.4518 12.3605 32.4505 12.3657 32.4505 12.371C32.4492 12.4065 32.4479 12.4421 32.4479 12.4776C32.4479 13.6346 33.3376 14.5797 34.4091 14.5797C35.4805 14.5797 36.3702 13.6346 36.3702 12.4776C36.3702 12.4421 36.3689 12.4065 36.3676 12.371C36.3676 12.3657 36.3663 12.3605 36.3663 12.3552C36.365 12.3236 36.3623 12.2934 36.3597 12.2631Z" fill="white"/>
<path d="M44.6174 9.881C44.6147 9.87837 44.6134 9.87574 44.6108 9.87311C44.5792 9.83362 44.5371 9.80203 44.4897 9.78229C44.4897 9.78229 44.4897 9.78229 44.4884 9.78229C44.4831 9.77834 44.4765 9.77702 44.4713 9.77439C44.4686 9.77439 44.466 9.77307 44.4621 9.77176C44.4199 9.75728 44.3739 9.75465 44.3291 9.76123H44.3278C44.237 9.77571 44.1501 9.83099 44.1014 9.91259C44.1014 9.91259 44.1014 9.91259 44.1001 9.91259C44.0935 9.92576 44.0856 9.93892 44.0804 9.95208L44.079 9.9534V9.95471L42.5706 14.0837L41.386 11.2644C41.3742 11.238 41.3584 11.2144 41.3399 11.192C41.2755 11.117 41.1767 11.0696 41.0754 11.0696C41.0596 11.0696 41.0451 11.0696 41.0293 11.0735C41.028 11.0735 41.0267 11.0735 41.0241 11.0735C40.9188 11.0919 40.82 11.1657 40.7753 11.2644C40.7753 11.2657 40.7753 11.2657 40.7753 11.2657L39.5907 14.0851L39.0168 12.5253L38.0717 9.95471C38.0665 9.94023 38.0612 9.92839 38.0546 9.91523C38.0533 9.91391 38.0533 9.91391 38.052 9.91259C38.023 9.85863 37.977 9.81651 37.9217 9.79018C37.9217 9.79018 37.9204 9.79018 37.9204 9.78887C37.8927 9.77702 37.8638 9.76781 37.8335 9.76254C37.8309 9.76254 37.8295 9.76254 37.8269 9.76123C37.8124 9.75991 37.7966 9.75859 37.7822 9.75859H37.7808C37.7769 9.75859 37.7743 9.75859 37.7716 9.75859C37.7651 9.75859 37.7585 9.75859 37.7519 9.75991C37.7479 9.75991 37.7427 9.76123 37.7387 9.76123C37.7321 9.76254 37.7269 9.76254 37.7216 9.76386C37.7177 9.76518 37.7137 9.76518 37.7098 9.76649C37.7032 9.76781 37.6966 9.76912 37.69 9.77176C37.6874 9.77307 37.6848 9.77307 37.6821 9.77439C37.6755 9.77702 37.669 9.77834 37.6624 9.78229C37.6624 9.78229 37.6624 9.78229 37.6611 9.78229C37.6071 9.80598 37.5637 9.84678 37.5321 9.89417C37.5308 9.8968 37.5294 9.89811 37.5281 9.90075C37.5268 9.90338 37.5255 9.90601 37.5242 9.90864C37.5005 9.94813 37.486 9.9942 37.4807 10.0403C37.4755 10.089 37.4821 10.1403 37.5018 10.1877L38.5956 13.1268L39.2972 15.0117C39.2972 15.0117 39.2972 15.0117 39.2972 15.013C39.3261 15.0841 39.3682 15.1328 39.4261 15.1591C39.4275 15.1604 39.4301 15.1617 39.4314 15.1631C39.4327 15.1644 39.434 15.1657 39.4367 15.167C39.4367 15.1683 39.438 15.1683 39.4393 15.1696C39.4419 15.171 39.4433 15.1723 39.4459 15.1749C39.4472 15.1749 39.4472 15.1749 39.4485 15.1749C39.459 15.1815 39.4722 15.1868 39.4893 15.1881C39.4906 15.1881 39.492 15.1894 39.4933 15.1894C39.4985 15.1907 39.5038 15.1933 39.5091 15.1947C39.5117 15.1947 39.5143 15.196 39.517 15.196C39.5499 15.2065 39.5709 15.2104 39.5973 15.2104C39.6117 15.2104 39.6249 15.2091 39.6394 15.2065C39.6499 15.2052 39.6617 15.2025 39.6723 15.1986C39.6749 15.1973 39.6775 15.1973 39.6802 15.196C39.6907 15.1933 39.7012 15.1894 39.7118 15.1841C39.7157 15.1828 39.7197 15.1815 39.7236 15.1789C39.7302 15.1749 39.7381 15.171 39.746 15.167C39.7513 15.1631 39.7578 15.1591 39.7644 15.1552C39.7684 15.1525 39.7723 15.1486 39.7763 15.1459C39.7855 15.1394 39.7934 15.1328 39.8026 15.1249C39.8039 15.1236 39.8052 15.1223 39.8065 15.1196C39.8157 15.1104 39.825 15.1012 39.8342 15.0907C39.8342 15.0894 39.8355 15.088 39.8368 15.0867C39.8447 15.0762 39.8526 15.0643 39.8592 15.0525C39.8658 15.0393 39.8723 15.0249 39.8776 15.0104L39.8789 15.0064L39.8829 15.0012L39.8868 14.992L41.0754 12.1541L42.2745 15.0025C42.2837 15.0314 42.2982 15.0578 42.3179 15.0828C42.3205 15.0867 42.3232 15.0894 42.3258 15.0933C42.3324 15.1012 42.339 15.1091 42.3469 15.117C42.3508 15.1196 42.3548 15.1236 42.3587 15.1262C42.3653 15.1328 42.3732 15.1394 42.3811 15.1459C42.385 15.1486 42.3877 15.1512 42.3916 15.1525C42.4008 15.1591 42.4101 15.1657 42.4193 15.171C42.4219 15.1723 42.4245 15.1736 42.4272 15.1749C42.4377 15.1802 42.4469 15.1854 42.4588 15.1894C42.4614 15.1907 42.464 15.192 42.468 15.192C42.4772 15.196 42.4864 15.1999 42.4969 15.2025C42.5101 15.2052 42.5232 15.2078 42.5351 15.2104H42.5746C42.5904 15.2104 42.6049 15.2091 42.6193 15.2065C42.6233 15.2065 42.6259 15.2065 42.6299 15.2052C42.643 15.2025 42.6549 15.1999 42.6667 15.196C42.6707 15.1947 42.6733 15.1933 42.6759 15.192C42.6891 15.1881 42.7023 15.1815 42.7141 15.1749C42.7154 15.1749 42.7167 15.1736 42.718 15.1736C42.7325 15.1644 42.747 15.1552 42.7589 15.1459C42.8115 15.1065 42.8497 15.0551 42.876 14.992V14.9906L43.617 12.9952L44.6595 10.1877C44.7003 10.089 44.6845 9.98104 44.6279 9.8968C44.6253 9.89153 44.6213 9.88627 44.6174 9.881Z" fill="white"/>
<path d="M61.3561 9.96883C61.3561 9.96357 61.3548 9.95699 61.3535 9.95172C61.3535 9.94778 61.3522 9.94383 61.3508 9.93988C61.3495 9.9333 61.3482 9.92672 61.3469 9.92145C61.3456 9.9175 61.3443 9.91355 61.3429 9.91092C61.3416 9.90302 61.339 9.89644 61.335 9.88986C61.335 9.88723 61.3337 9.88591 61.3324 9.88328C61.3285 9.87407 61.3245 9.86617 61.3193 9.85827C61.3193 9.85695 61.3193 9.85695 61.3193 9.85695C61.3035 9.82931 61.2837 9.80562 61.2613 9.78456C61.26 9.78325 61.26 9.78325 61.26 9.78325C61.2587 9.78193 61.2587 9.78193 61.2587 9.78193C61.1468 9.67005 60.9889 9.65557 60.8651 9.74244C60.8612 9.74507 60.8586 9.74771 60.8546 9.74902C60.8494 9.75297 60.8441 9.75692 60.8388 9.76087C60.8309 9.76877 60.823 9.77535 60.8151 9.78325C60.8151 9.78325 60.8138 9.78325 60.8138 9.78456L57.7299 12.7908V7.76282C57.7299 7.75229 57.7299 7.74176 57.7286 7.73123C57.7167 7.6154 57.6391 7.51932 57.5338 7.47457C57.5324 7.47457 57.5324 7.47325 57.5311 7.47325C57.5245 7.47062 57.518 7.46799 57.5114 7.46667C57.5087 7.46535 57.5048 7.46404 57.5008 7.46272C57.4956 7.4614 57.4903 7.46009 57.4837 7.45877C57.4798 7.45746 57.4745 7.45614 57.4693 7.45482C57.464 7.45351 57.4574 7.45219 57.4521 7.45219C57.4469 7.45087 57.4429 7.45087 57.4377 7.44956C57.4258 7.44824 57.4153 7.44824 57.4048 7.44824C57.2323 7.44824 57.0889 7.59171 57.0889 7.76282V14.8942C57.0889 15.0666 57.2323 15.2101 57.4048 15.2101C57.4153 15.2101 57.4271 15.2101 57.4377 15.2088C57.439 15.2088 57.4403 15.2075 57.4429 15.2075C57.4521 15.2061 57.4614 15.2061 57.4693 15.2035C57.4719 15.2035 57.4745 15.2022 57.4772 15.2022C57.4851 15.1996 57.493 15.1982 57.5008 15.1956C57.5022 15.1956 57.5035 15.1943 57.5048 15.1943C57.6259 15.1561 57.7154 15.0521 57.7286 14.9271C57.7299 14.9166 57.7299 14.906 57.7299 14.8942V13.6912L58.7684 12.654L60.7862 15.089C60.7993 15.1101 60.8138 15.1285 60.8322 15.143C60.8362 15.1469 60.8388 15.1495 60.8428 15.1522C60.848 15.1561 60.8533 15.1601 60.8586 15.1627C60.8651 15.168 60.8717 15.1706 60.8783 15.1746C60.8809 15.1759 60.8849 15.1785 60.8875 15.1798C60.8967 15.1838 60.9046 15.1864 60.9139 15.1903C60.9165 15.1917 60.9191 15.1917 60.9204 15.193C60.931 15.1956 60.9402 15.1982 60.9507 15.2009C60.952 15.2009 60.9547 15.2022 60.9573 15.2022C60.9678 15.2048 60.977 15.2061 60.9889 15.2075C60.9915 15.2075 60.9941 15.2075 60.9968 15.2088C61.0099 15.2088 61.0231 15.2101 61.0376 15.2101C61.0586 15.2101 61.0784 15.2088 61.0968 15.2061C61.0981 15.2061 61.0981 15.2061 61.0981 15.2061C61.135 15.2009 61.1692 15.189 61.2008 15.1732C61.2021 15.1732 61.2021 15.1719 61.2021 15.1719C61.2166 15.164 61.2311 15.1548 61.2455 15.1443L61.2495 15.1403C61.3693 15.0206 61.3877 14.8573 61.3008 14.7218C61.2929 14.7099 61.285 14.6981 61.2758 14.6862L59.2264 12.1972L61.2613 10.2308C61.3153 10.1755 61.3482 10.1084 61.3561 10.036C61.3561 10.0346 61.3561 10.0333 61.3574 10.032C61.3574 10.0254 61.3574 10.0175 61.3574 10.011C61.3574 10.007 61.3587 10.0031 61.3587 10.0004C61.3587 9.99779 61.3587 9.99648 61.3587 9.99516C61.3587 9.98989 61.3574 9.98595 61.3574 9.98068C61.3574 9.97673 61.3561 9.97278 61.3561 9.96883Z" fill="white"/>
</g>
<defs>
<clipPath id="clip0_2882_1007">
<rect width="62" height="14.8261" fill="white" transform="translate(5 5)"/>
</clipPath>
</defs>
</svg>
