<svg width="72" height="24" viewBox="0 0 72 24" fill="none" xmlns="http://www.w3.org/2000/svg">
<g clip-path="url(#clip0_2800_983)">
<path d="M2 14.376H3.73082C5.10025 14.376 6.02182 15.1585 6.02182 16.5159C6.02182 17.8485 5.10513 18.6569 3.72967 18.6569H2V14.376ZM2.8081 15.0876V17.9465H3.71875C4.61763 17.9465 5.19677 17.3975 5.19677 16.5173C5.19677 15.6064 4.61763 15.0876 3.71875 15.0876H2.8081Z" fill="#70A59A"/>
<path d="M6.66943 14.1997H7.4715V15.1167H6.66943V14.1997ZM6.68724 15.605H7.45828V18.6565H6.68724V15.605Z" fill="#70A59A"/>
<path d="M9.50438 18.7114C8.70835 18.7114 8.05078 18.1142 8.05078 17.1251C8.05078 16.13 8.70835 15.5385 9.50438 15.5385C9.70946 15.5285 9.9136 15.5722 10.0966 15.6653C10.2796 15.7584 10.4351 15.8977 10.5478 16.0694V15.6052H11.3197V18.5908C11.3197 19.429 10.783 20.0145 9.67904 20.0145C8.50324 20.0145 8.12289 19.2845 8.07462 19.061H8.96144C9.04421 19.1704 9.15365 19.2566 9.2793 19.3116C9.40494 19.3665 9.54258 19.3882 9.67904 19.3747C10.2341 19.3747 10.5538 19.0852 10.5538 18.5787V18.1567C10.4442 18.3344 10.2892 18.4795 10.1046 18.577C9.92013 18.6746 9.71288 18.721 9.50438 18.7114ZM9.70317 16.2147C9.52062 16.2037 9.33896 16.2477 9.18174 16.3412C9.02453 16.4346 8.89901 16.5731 8.82146 16.7388C8.74391 16.9044 8.71791 17.0895 8.74684 17.2701C8.77576 17.4507 8.85827 17.6184 8.98367 17.7515C9.10906 17.8846 9.27156 17.977 9.4501 18.0167C9.62863 18.0564 9.81496 18.0415 9.98493 17.9739C10.1549 17.9064 10.3007 17.7894 10.4033 17.6381C10.506 17.4867 10.5608 17.308 10.5607 17.1251C10.5689 17.0079 10.5528 16.8903 10.5134 16.7796C10.4739 16.6689 10.4119 16.5676 10.3314 16.4821C10.2508 16.3966 10.1534 16.3286 10.0453 16.2826C9.93714 16.2366 9.82067 16.2135 9.70317 16.2147Z" fill="#70A59A"/>
<path d="M12.0928 14.1997H12.8948V15.1167H12.0928V14.1997ZM12.1106 15.605H12.8828V18.6565H12.1106V15.605Z" fill="#70A59A"/>
<path d="M16.0799 18.6563H15.2353C14.5171 18.6563 14.1799 18.3116 14.1799 17.6609V16.2622H13.3413V15.6049H14.1804V14.376H14.9526V15.6064H16.0805V16.2636H14.952V17.428C14.952 17.8077 15.0784 17.9706 15.495 17.9706H16.0799V18.6563Z" fill="#70A59A"/>
<path d="M17.8597 18.7233C17.0757 18.7233 16.4233 18.1327 16.4233 17.131C16.4233 16.1419 17.0749 15.5386 17.8649 15.5386C18.066 15.5283 18.2663 15.5715 18.4453 15.6637C18.6244 15.7559 18.7758 15.894 18.8841 16.0637V15.6041H19.6563V18.6567H18.8916V18.174C18.7865 18.3514 18.6347 18.4965 18.4527 18.5934C18.2707 18.6903 18.0655 18.7352 17.8597 18.7233ZM18.0648 16.2148C17.8798 16.1971 17.6937 16.2358 17.531 16.3258C17.3683 16.4158 17.2367 16.5529 17.1534 16.7192C17.0702 16.8854 17.0392 17.0729 17.0645 17.2571C17.0898 17.4413 17.1703 17.6135 17.2953 17.7511C17.4204 17.8886 17.5841 17.9852 17.765 18.0279C17.946 18.0707 18.1356 18.0577 18.309 17.9907C18.4824 17.9236 18.6315 17.8057 18.7366 17.6524C18.8417 17.499 18.8979 17.3174 18.8979 17.1315C18.9066 17.0159 18.8916 16.8998 18.8538 16.7902C18.8161 16.6806 18.7565 16.5798 18.6785 16.494C18.6005 16.4083 18.5059 16.3393 18.4004 16.2913C18.2949 16.2433 18.1807 16.2173 18.0648 16.2148Z" fill="#70A59A"/>
<path d="M20.4536 14.2178H21.2258V18.6564H20.4536V14.2178Z" fill="#70A59A"/>
<path d="M23.4595 14.376H25.8539C26.789 14.376 27.319 14.8161 27.319 15.6546C27.3331 15.9154 27.2567 16.173 27.1029 16.384C26.949 16.595 26.727 16.7464 26.4744 16.8126L27.4813 18.6563H26.6249L25.6539 16.8951H24.2667V18.6563H23.4595V14.376ZM24.2679 15.0942V16.1915H25.7864C26.2506 16.1915 26.4859 16.0226 26.4859 15.6549C26.4859 15.2631 26.2506 15.0942 25.7864 15.0942H24.2679Z" fill="#70A59A"/>
<path d="M28.0254 14.1997H28.8275V15.1167H28.0254V14.1997ZM28.0432 15.605H28.8154V18.6565H28.0432V15.605Z" fill="#70A59A"/>
<path d="M30.5408 17.4085C29.8714 17.3542 29.4187 17.0525 29.4187 16.4553C29.4187 15.8825 29.9435 15.5205 30.764 15.5205C31.8556 15.5205 32.1874 16.0876 32.2598 16.3823H31.4457C31.3617 16.2843 31.2554 16.208 31.1357 16.1597C31.016 16.1115 30.8864 16.0928 30.7579 16.1051C30.3899 16.1051 30.1969 16.2318 30.1969 16.4125C30.1969 16.5814 30.3239 16.696 30.6313 16.7325L31.1504 16.7865C31.9765 16.8589 32.3141 17.1784 32.3141 17.7759C32.3141 18.3427 31.8318 18.7408 30.9027 18.7408C29.7689 18.7408 29.4009 18.0836 29.3408 17.8H30.167C30.2443 17.9214 30.3545 18.0183 30.4847 18.0794C30.615 18.1404 30.76 18.1631 30.9027 18.1447C31.325 18.1447 31.5301 18.0011 31.5301 17.8069C31.5301 17.6202 31.4215 17.4995 31.078 17.4622C30.8605 17.4444 30.7516 17.4326 30.5408 17.4085Z" fill="#70A59A"/>
<path d="M33.6411 17.2698V18.6564H32.8818V14.2178H33.6417V16.8466L35.041 15.6042H36.0484L34.4259 17.0276L36.1326 18.6561H35.1016L33.6411 17.2698Z" fill="#70A59A"/>
<path d="M37.8584 14.376H40.2229C41.1821 14.376 41.7188 14.8402 41.7188 15.6845C41.7188 16.511 41.1821 17.0177 40.2229 17.0177H38.6668V18.6563H37.8584V14.376ZM38.6668 15.0996V16.2938H40.1804C40.6513 16.2938 40.8863 16.0528 40.8863 15.6969C40.8863 15.311 40.6564 15.0996 40.1804 15.0996H38.6668Z" fill="#70A59A"/>
<path d="M43.0279 18.6562H42.2617V15.6048H43.0279V16.1173C43.1063 15.9426 43.3416 15.5864 44.0172 15.5864H44.7288V16.3526H43.9147C43.2634 16.3526 43.0279 16.5698 43.0279 17.0524V18.6562Z" fill="#70A59A"/>
<path d="M48.2579 17.1306C48.2658 17.4575 48.1761 17.7793 48.0002 18.055C47.8243 18.3306 47.5701 18.5475 47.2703 18.678C46.9705 18.8085 46.6386 18.8466 46.317 18.7875C45.9954 18.7283 45.6987 18.5747 45.4649 18.3461C45.2311 18.1174 45.0708 17.8243 45.0044 17.5041C44.9381 17.1839 44.9687 16.8512 45.0924 16.5486C45.2161 16.2459 45.4273 15.9869 45.6989 15.8049C45.9705 15.6228 46.2902 15.5259 46.6172 15.5265C46.8317 15.5185 47.0456 15.5543 47.2458 15.6317C47.4461 15.709 47.6285 15.8263 47.7819 15.9763C47.9354 16.1264 48.0567 16.3061 48.1386 16.5045C48.2204 16.703 48.261 16.916 48.2579 17.1306ZM47.4796 17.1306C47.4699 16.9614 47.4107 16.7987 47.3095 16.6628C47.2082 16.5268 47.0694 16.4235 46.91 16.3657C46.7507 16.3078 46.5779 16.2979 46.413 16.3372C46.2482 16.3765 46.0984 16.4633 45.9823 16.5868C45.8662 16.7104 45.7889 16.8652 45.7599 17.0322C45.7309 17.1992 45.7515 17.371 45.8191 17.5265C45.8867 17.6819 45.9984 17.8141 46.1404 17.9067C46.2823 17.9993 46.4483 18.0483 46.6178 18.0476C46.7358 18.0478 46.8525 18.0238 46.9609 17.9771C47.0692 17.9304 47.1668 17.8619 47.2476 17.776C47.3284 17.69 47.3907 17.5884 47.4306 17.4774C47.4705 17.3664 47.4872 17.2483 47.4796 17.1306Z" fill="#70A59A"/>
<path d="M51.2199 18.6563H50.3765C49.6583 18.6563 49.3213 18.3116 49.3213 17.6609V16.2622H48.4805V15.6049H49.319V14.376H50.0909V15.6064H51.2188V16.2636H50.0921V17.428C50.0921 17.8077 50.2188 17.9706 50.6347 17.9706H51.2199V18.6563Z" fill="#70A59A"/>
<path d="M54.7555 17.1731V17.2576H52.33C52.3376 17.4859 52.435 17.7021 52.6011 17.859C52.7671 18.016 52.9884 18.1011 53.2168 18.0958C53.3586 18.1089 53.5013 18.0853 53.6313 18.0272C53.7612 17.9692 53.8741 17.8786 53.9589 17.7643H54.7187C54.6704 18.0777 54.2542 18.7353 53.2168 18.7353C53.0003 18.7481 52.7834 18.7157 52.58 18.6403C52.3766 18.5649 52.191 18.4481 52.0351 18.2972C51.8792 18.1464 51.7563 17.9648 51.6742 17.764C51.5921 17.5631 51.5526 17.3475 51.5581 17.1306C51.5569 16.9181 51.5981 16.7074 51.6792 16.511C51.7604 16.3145 51.8799 16.1362 52.0307 15.9865C52.1816 15.8368 52.3608 15.7187 52.5578 15.639C52.7549 15.5593 52.9658 15.5198 53.1783 15.5226C53.3909 15.5254 53.6007 15.5706 53.7955 15.6555C53.9904 15.7403 54.1664 15.8632 54.3132 16.0169C54.46 16.1705 54.5747 16.352 54.6506 16.5505C54.7265 16.749 54.7621 16.9607 54.7552 17.1731H54.7555ZM52.3545 16.7267H53.9468C53.898 16.5531 53.7938 16.4002 53.6501 16.2913C53.5063 16.1824 53.331 16.1235 53.1506 16.1235C52.9703 16.1235 52.7949 16.1824 52.6512 16.2913C52.5075 16.4002 52.4033 16.5531 52.3545 16.7267Z" fill="#70A59A"/>
<path d="M56.6922 16.2084C56.5786 16.2144 56.4673 16.2433 56.3651 16.2934C56.2629 16.3435 56.1719 16.4137 56.0975 16.4999C56.0231 16.586 55.9669 16.6863 55.9323 16.7948C55.8976 16.9032 55.8853 17.0175 55.8959 17.1308C55.8854 17.2445 55.898 17.3591 55.9329 17.4677C55.9679 17.5763 56.0245 17.6768 56.0993 17.763C56.1741 17.8492 56.2656 17.9193 56.3682 17.9692C56.4709 18.0191 56.5825 18.0477 56.6965 18.0532C56.8442 18.0637 56.9917 18.0313 57.1214 17.96C57.2511 17.8886 57.3574 17.7814 57.4276 17.6511H58.1817C58.1455 17.9705 57.7778 18.7367 56.6859 18.7367C56.2656 18.7295 55.8649 18.5578 55.5699 18.2583C55.2749 17.9588 55.1092 17.5556 55.1084 17.1352C55.1076 16.7148 55.2718 16.311 55.5657 16.0104C55.8595 15.7098 56.2596 15.5365 56.6799 15.5278C57.7655 15.5278 58.1335 16.2747 58.1817 16.6137H57.4147C57.3451 16.4846 57.2403 16.3779 57.1123 16.3061C56.9844 16.2344 56.8387 16.2005 56.6922 16.2084Z" fill="#70A59A"/>
<path d="M61.1377 18.6563H60.2934C59.5752 18.6563 59.2377 18.3116 59.2377 17.6609V16.2622H58.3994V15.6049H59.2377V14.376H60.0099V15.6064H61.1377V16.2636H60.0099V17.428C60.0099 17.8077 60.1366 17.9706 60.5528 17.9706H61.1377V18.6563Z" fill="#70A59A"/>
<path d="M61.6992 14.1997H62.5016V15.1167H61.6992V14.1997ZM61.7176 15.605H62.4895V18.6565H61.7176V15.605Z" fill="#70A59A"/>
<path d="M66.3623 17.1306C66.3703 17.4575 66.2806 17.7793 66.1047 18.055C65.9287 18.3306 65.6746 18.5475 65.3748 18.678C65.075 18.8085 64.743 18.8466 64.4214 18.7875C64.0999 18.7283 63.8032 18.5746 63.5694 18.346C63.3356 18.1174 63.1753 17.8243 63.1089 17.5041C63.0426 17.1839 63.0732 16.8512 63.1969 16.5485C63.3206 16.2459 63.5318 15.9869 63.8034 15.8049C64.075 15.6228 64.3947 15.5259 64.7217 15.5265C64.9362 15.5186 65.1501 15.5544 65.3503 15.6317C65.5505 15.7091 65.7329 15.8264 65.8863 15.9764C66.0398 16.1265 66.1611 16.3062 66.243 16.5046C66.3248 16.703 66.3654 16.916 66.3623 17.1306ZM65.5844 17.1306C65.5746 16.9614 65.5155 16.7987 65.4142 16.6628C65.313 16.5268 65.1741 16.4235 65.0148 16.3657C64.8555 16.3078 64.6827 16.2979 64.5178 16.3372C64.3529 16.3765 64.2032 16.4633 64.0871 16.5868C63.971 16.7103 63.8937 16.8652 63.8647 17.0322C63.8357 17.1992 63.8562 17.371 63.9239 17.5265C63.9915 17.6819 64.1032 17.8141 64.2451 17.9067C64.3871 17.9993 64.5531 18.0483 64.7226 18.0476C64.8406 18.0478 64.9573 18.0238 65.0657 17.9771C65.174 17.9304 65.2716 17.8619 65.3524 17.776C65.4331 17.69 65.4954 17.5884 65.5353 17.4774C65.5753 17.3663 65.592 17.2483 65.5844 17.1306Z" fill="#70A59A"/>
<path d="M67.7139 18.6565H66.9478V15.6051H67.7139V16.1176C67.8167 15.9402 67.9646 15.7932 68.1425 15.6915C68.3205 15.5898 68.5222 15.537 68.7271 15.5384C68.9011 15.5344 69.074 15.5668 69.2348 15.6336C69.3955 15.7004 69.5404 15.8 69.6603 15.9262C69.7802 16.0524 69.8724 16.2022 69.9309 16.3661C69.9894 16.5301 70.0129 16.7044 70 16.878V18.6565H69.2218V17.0285C69.2326 16.9256 69.2214 16.8217 69.1888 16.7235C69.1562 16.6253 69.103 16.5353 69.0328 16.4593C68.9625 16.3834 68.8769 16.3233 68.7816 16.2832C68.6863 16.243 68.5835 16.2237 68.4801 16.2264C68.3754 16.2231 68.2713 16.2418 68.1744 16.2814C68.0775 16.321 67.99 16.3806 67.9177 16.4562C67.8454 16.5319 67.7899 16.622 67.7548 16.7206C67.7197 16.8192 67.7057 16.9242 67.7139 17.0285V18.6565Z" fill="#70A59A"/>
<path d="M2 3.27832H5.75781C7.28208 3.27832 8.13528 4.01632 8.13528 5.35846C8.13528 6.67187 7.28208 7.4771 5.75781 7.4771H3.28468V10.0847H2V3.27832ZM3.28468 4.42741V6.32686H5.69088C6.43779 6.32686 6.81124 5.94335 6.81124 5.37886C6.81124 4.76553 6.44669 4.43086 5.69088 4.43086L3.28468 4.42741Z" fill="#006A56"/>
<path d="M10.5709 10.0845H9.354V3.02881H10.5712V6.04862C10.7347 5.76697 10.9698 5.53358 11.2526 5.37213C11.5355 5.21069 11.856 5.12692 12.1816 5.12935C13.3994 5.12935 14.2043 6.01989 14.2043 7.25746V10.0857H12.969V7.49733C12.969 6.73032 12.5094 6.22242 11.7912 6.22242C11.625 6.21711 11.4594 6.24691 11.3055 6.30988C11.1515 6.37286 11.0126 6.46759 10.8977 6.58789C10.7828 6.7082 10.6946 6.85137 10.6388 7.00808C10.5829 7.16478 10.5608 7.33149 10.5738 7.49733L10.5709 10.0845Z" fill="#006A56"/>
<path d="M15.6338 3H16.9096V4.45705H15.6338V3ZM15.6625 5.23354H16.8895V10.0844H15.6625V5.23354Z" fill="#006A56"/>
<path d="M19.8904 8.09988C18.8275 8.0137 18.1073 7.53424 18.1073 6.5851C18.1073 5.67473 18.9404 5.09961 20.2455 5.09961C21.9806 5.09961 22.5078 6.0005 22.6227 6.47019H21.3285C21.2521 6.36476 20.9551 6.02922 20.2369 6.02922C19.652 6.02922 19.3463 6.23031 19.3463 6.51759C19.3463 6.78619 19.5474 6.96803 20.0358 7.02577L20.8603 7.11195C22.1737 7.22686 22.7106 7.73505 22.7106 8.6842C22.7106 9.58537 21.9436 10.2179 20.467 10.2179C18.6649 10.2179 18.0803 9.17313 17.9844 8.72413H19.2978C19.3455 8.83904 19.6425 9.26995 20.467 9.26995C21.1383 9.26995 21.4641 9.04013 21.4641 8.73332C21.4641 8.43599 21.2917 8.24496 20.7459 8.1875C20.3986 8.15734 20.226 8.13838 19.8904 8.09988Z" fill="#006A56"/>
<path d="M25.0868 10.0845H23.8696V3.02881H25.0868V6.04862C25.2504 5.76695 25.4855 5.53355 25.7684 5.3721C26.0513 5.21065 26.3718 5.1269 26.6975 5.12935C27.915 5.12935 28.7205 6.01989 28.7205 7.25746V10.0857H27.4835V7.49733C27.4835 6.73032 27.0239 6.22242 26.3057 6.22242C26.1394 6.21706 25.9739 6.24684 25.8199 6.30979C25.6659 6.37275 25.5269 6.46747 25.412 6.58778C25.297 6.70809 25.2088 6.85128 25.153 7.00801C25.0971 7.16473 25.075 7.33147 25.088 7.49733L25.0868 10.0845Z" fill="#006A56"/>
<path d="M35.8054 10.0847H30.3125V3.27832H31.5969V8.92466H35.8054V10.0847Z" fill="#006A56"/>
<path d="M38.8357 10.1897C37.5895 10.1897 36.5542 9.25028 36.5542 7.65908C36.5542 6.08655 37.5884 5.12792 38.8455 5.12792C39.165 5.11135 39.4832 5.17971 39.7678 5.32604C40.0523 5.47237 40.293 5.69146 40.4654 5.96101V5.23335H41.6926V10.0842H40.4752V9.31721C40.3081 9.59888 40.0668 9.82922 39.7777 9.98308C39.4885 10.1369 39.1627 10.2084 38.8357 10.1897ZM39.1615 6.20174C38.3373 6.20174 37.8004 6.83374 37.8004 7.65908C37.8004 8.48441 38.3373 9.11612 39.1615 9.11612C39.9575 9.11612 40.4847 8.48412 40.4847 7.65908C40.4847 6.83403 39.9575 6.20174 39.1615 6.20174Z" fill="#006A56"/>
<path d="M44.3967 10.0845H43.1982V3.02881H44.4062V6.00064C44.5844 5.72271 44.832 5.49606 45.1245 5.34306C45.4171 5.19006 45.7445 5.116 46.0744 5.1282C47.3493 5.1282 48.3847 6.0762 48.3847 7.65935C48.3847 9.24251 47.3505 10.1899 46.0744 10.1899C45.7462 10.2035 45.4199 10.1331 45.1263 9.98554C44.8328 9.83797 44.5817 9.61804 44.3967 9.34651V10.0845ZM45.7673 9.1164C46.6004 9.1164 47.1385 8.4844 47.1385 7.65935C47.1385 6.82626 46.6016 6.20202 45.7673 6.20202C45.5786 6.19886 45.3914 6.23501 45.2174 6.30818C45.0434 6.38135 44.8866 6.48993 44.7569 6.62701C44.6272 6.76409 44.5275 6.92667 44.464 7.1044C44.4006 7.28213 44.3748 7.47113 44.3884 7.65935C44.3757 7.84737 44.4021 8.03598 44.4658 8.21331C44.5296 8.39064 44.6294 8.55285 44.7589 8.68972C44.8885 8.82659 45.0449 8.93516 45.2185 9.00859C45.392 9.08203 45.5789 9.11873 45.7673 9.1164Z" fill="#006A56"/>
<path d="M51.0693 8.09988C50.0064 8.0137 49.2862 7.53424 49.2862 6.5851C49.2862 5.67473 50.1193 5.09961 51.4241 5.09961C53.1592 5.09961 53.6867 6.0005 53.8016 6.47019H52.5074C52.4307 6.36476 52.134 6.02922 51.4158 6.02922C50.8312 6.02922 50.5252 6.23031 50.5252 6.51759C50.5252 6.78619 50.7263 6.96803 51.2147 7.02577L52.0395 7.11195C53.3529 7.22686 53.8895 7.73505 53.8895 8.6842C53.8895 9.58537 53.1228 10.2179 51.6462 10.2179C49.8441 10.2179 49.2592 9.17313 49.1636 8.72413H50.4767C50.5247 8.83904 50.8214 9.26995 51.6462 9.26995C52.3173 9.26995 52.6433 9.04013 52.6433 8.73332C52.6433 8.43599 52.4709 8.24496 51.9251 8.1875C51.5775 8.15734 51.4049 8.13838 51.0693 8.09988Z" fill="#006A56"/>
<path d="M54.4621 4.23248C54.4664 3.98221 54.5689 3.74366 54.7474 3.5682C54.9259 3.39275 55.1662 3.29443 55.4165 3.29443C55.6668 3.29443 55.9071 3.39275 56.0856 3.5682C56.2642 3.74366 56.3666 3.98221 56.371 4.23248C56.3732 4.35922 56.3501 4.48512 56.3031 4.60285C56.2562 4.72057 56.1862 4.82777 56.0974 4.91817C56.0085 5.00857 55.9026 5.08038 55.7857 5.12939C55.6688 5.1784 55.5433 5.20365 55.4165 5.20365C55.2898 5.20365 55.1643 5.1784 55.0474 5.12939C54.9305 5.08038 54.8245 5.00857 54.7357 4.91817C54.6468 4.82777 54.5769 4.72057 54.5299 4.60285C54.4829 4.48512 54.4599 4.35922 54.4621 4.23248ZM56.2305 4.23248C56.2325 4.1243 56.213 4.0168 56.173 3.91626C56.133 3.81572 56.0734 3.72417 55.9976 3.64694C55.9218 3.56972 55.8314 3.50838 55.7316 3.4665C55.6318 3.42463 55.5247 3.40306 55.4165 3.40306C55.3083 3.40306 55.2012 3.42463 55.1014 3.4665C55.0017 3.50838 54.9113 3.56972 54.8355 3.64694C54.7597 3.72417 54.7 3.81572 54.66 3.91626C54.6201 4.0168 54.6005 4.1243 54.6025 4.23248C54.6005 4.34066 54.6201 4.44816 54.66 4.5487C54.7 4.64924 54.7597 4.74079 54.8355 4.81802C54.9113 4.89524 55.0017 4.95658 55.1014 4.99846C55.2012 5.04034 55.3083 5.0619 55.4165 5.0619C55.5247 5.0619 55.6318 5.04034 55.7316 4.99846C55.8314 4.95658 55.9218 4.89524 55.9976 4.81802C56.0734 4.74079 56.133 4.64924 56.173 4.5487C56.213 4.44816 56.2325 4.34066 56.2305 4.23248ZM55.0556 3.75532H55.5129C55.7375 3.75532 55.8456 3.86362 55.8456 4.04001C55.8509 4.10344 55.8319 4.16651 55.7924 4.21644C55.7529 4.26637 55.6959 4.29942 55.633 4.3089L55.8536 4.69786H55.7054L55.4807 4.32125H55.192V4.69786H55.0556V3.75532ZM55.192 3.88775V4.19255H55.5129C55.6453 4.19255 55.7054 4.14027 55.7054 4.04001C55.7054 3.93975 55.6453 3.88775 55.5129 3.88775H55.192Z" fill="#006A56"/>
</g>
<defs>
<clipPath id="clip0_2800_983">
<rect width="68" height="17.0143" fill="white" transform="translate(2 3)"/>
</clipPath>
</defs>
</svg>
