<svg width="72" height="24" viewBox="0 0 72 24" fill="none" xmlns="http://www.w3.org/2000/svg">
<g clip-path="url(#clip0_2882_277)">
<path fill-rule="evenodd" clip-rule="evenodd" d="M6.64276 6.33989L6.16006 6.6081L6.07983 7.18363C5.92719 8.27547 5.88382 9.38163 5.99229 10.4683H5.05562C4.95183 9.34101 4.99763 8.19321 5.15688 7.05455L5.30139 6.01978L6.18951 5.5254C8.15952 4.42898 10.3302 3.92394 12.4858 4.00925V5.87496C14.0175 5.94686 15.5381 6.3734 16.9412 7.15428L17.0183 7.19734L17.034 7.31281C17.1325 8.01599 17.1831 8.7276 17.1713 9.43556C17.1654 9.78106 17.1448 10.1257 17.1079 10.4684H17.1053C16.8204 10.2778 16.5242 10.1029 16.2178 9.94477C14.9599 9.29501 13.5323 8.92788 12.0188 8.92788C10.8661 8.92788 9.76332 9.14084 8.74734 9.5295C8.73799 9.20533 8.74419 8.88035 8.76389 8.55719C9.78475 8.20865 10.8797 8.01924 12.0188 8.01924C13.5251 8.01924 14.9542 8.35022 16.2374 8.94301C16.228 8.55851 16.1996 8.17412 16.1559 7.79246C14.6982 7.05455 13.1182 6.72672 11.5512 6.80827V4.94225C9.86366 5.01446 8.18705 5.4803 6.64266 6.33999L6.64276 6.33989Z" fill="white"/>
<path fill-rule="evenodd" clip-rule="evenodd" d="M7.31692 12.3362H6.3437C6.5006 12.8887 6.70615 13.4296 6.96675 13.9544C7.79709 15.6297 9.07549 16.9218 10.6173 17.9015V18.991C8.72755 17.9009 7.13605 16.3946 6.13154 14.3686C5.66072 13.4194 5.3525 12.4229 5.17822 11.402H7.0745C6.80162 10.0659 6.81259 8.67346 7.00301 7.31208L7.01915 7.19692L7.09614 7.15385C8.21347 6.53202 9.40525 6.13513 10.6173 5.96289V6.90524C9.68087 7.0524 8.75894 7.34783 7.88158 7.79204C7.70629 9.31967 7.78073 10.89 8.30081 12.3361H7.31702L7.31692 12.3362Z" fill="white"/>
<path fill-rule="evenodd" clip-rule="evenodd" d="M17.6935 12.3365H16.7202C16.5905 12.7466 16.4299 13.1486 16.2357 13.5404C15.5734 14.8753 14.5956 15.938 13.4199 16.7786V15.6018C14.232 14.9249 14.9131 14.1097 15.4007 13.1267C15.6753 12.5727 15.8742 11.9947 16.0087 11.4023H17.9121C18.169 10.0214 18.154 8.59021 17.9575 7.18374L17.8771 6.60821L17.3947 6.34C16.1357 5.63915 14.789 5.20012 13.4199 5.0226V4.0835C14.946 4.26559 16.4477 4.74606 17.8477 5.52541L18.7358 6.01979L18.8807 7.05456C19.129 8.83039 19.1009 10.629 18.6592 12.3365H17.6935Z" fill="white"/>
<path fill-rule="evenodd" clip-rule="evenodd" d="M12.4857 17.3777V18.4413L12.4876 18.4405C14.4451 17.4127 16.0778 15.9571 17.0704 13.9546C17.1825 13.7297 17.284 13.5012 17.3759 13.2706H18.3726C18.2393 13.6427 18.084 14.0091 17.9055 14.3688C16.8137 16.5707 15.0289 18.1594 12.9205 19.2663L12.0187 19.7398L11.5512 19.4941V17.3778C10.0977 16.5362 8.85987 15.4255 8.02426 13.9587H8.02406L8.0203 13.9524L8.01664 13.9459L8.01299 13.9394L8.00923 13.9331L8.00578 13.9266L8.00476 13.9251L8.00212 13.9203L7.99846 13.9138L7.99481 13.9073L7.99125 13.9009L7.9876 13.8944L7.98384 13.8879L7.98039 13.8814L7.97663 13.8749L7.97318 13.8686L7.96942 13.8621L7.96597 13.8556L7.96221 13.8491L7.95876 13.8426L7.9552 13.8361L7.95154 13.8296L7.94799 13.8231L7.94454 13.8166L7.94078 13.8101L7.93733 13.8036L7.93377 13.7971L7.93032 13.7904L7.92676 13.7839L7.92311 13.7774L7.92057 13.7726L7.91966 13.7709L7.9161 13.7644L7.91265 13.7578L7.90239 13.7382L7.89884 13.7317L7.89528 13.725L7.89183 13.7185L7.88827 13.7119L7.88482 13.7054L7.88147 13.6987L7.87964 13.6954L7.87792 13.6922L7.87436 13.6855L7.87111 13.6788L7.86756 13.6723L7.86421 13.6657L7.86075 13.659L7.85385 13.6459L7.8505 13.6392L7.84704 13.6326L7.84369 13.6261L7.83953 13.6178L7.83689 13.6127L7.83353 13.6061L7.83018 13.5994L7.81343 13.5662L7.81018 13.5595L7.80683 13.5527L7.80347 13.546L7.80012 13.5393C7.75574 13.45 7.71319 13.36 7.67236 13.2695H8.70866C10.3677 13.9085 12.1927 14.0549 13.927 13.6891C13.6361 14.0778 13.3025 14.4326 12.9324 14.7558C11.7839 14.8586 10.622 14.765 9.50497 14.4793C10.1927 15.3288 11.0533 16.0153 12.0177 16.5708C12.176 16.4792 12.3317 16.384 12.4847 16.2858V17.3768L12.4857 17.3777Z" fill="white"/>
<path fill-rule="evenodd" clip-rule="evenodd" d="M12.0189 9.71592C12.2277 9.71592 12.4277 9.75431 12.6121 9.82428C12.4147 9.94889 12.2833 10.1694 12.2833 10.4202C12.2833 10.8089 12.5985 11.1242 12.9873 11.1242C13.2381 11.1242 13.4586 10.9928 13.5831 10.7953C13.6531 10.9797 13.6915 11.1797 13.6915 11.3886C13.6915 12.3122 12.9426 13.0612 12.0188 13.0612C11.0952 13.0612 10.3462 12.3123 10.3462 11.3886C10.3462 10.4649 11.0951 9.71582 12.0188 9.71582L12.0189 9.71592Z" fill="white"/>
<path d="M22.2861 11.6518V7.63623H25.4449V8.09811H22.7853V9.27516H24.3945V9.73715H22.7853V11.6518H22.2861Z" fill="white"/>
<path d="M26.8922 9.42425H28.6653C28.9174 9.42425 29.1086 9.36829 29.2378 9.25658C29.3682 9.14609 29.4328 8.98217 29.4328 8.76606C29.4328 8.55624 29.3682 8.39111 29.2378 8.27432C29.1087 8.15631 28.9261 8.09801 28.6902 8.09801H26.8922V9.42415V9.42425ZM26.3931 11.6518V7.63623H28.6976C29.0899 7.63623 29.3967 7.73555 29.6202 7.93298C29.8424 8.13041 29.9542 8.4036 29.9542 8.75255C29.9542 9.04311 29.8672 9.29141 29.6935 9.49879C29.5184 9.70617 29.2887 9.83525 29.0031 9.88613L30.0064 11.6518H29.4551L28.4506 9.89365H26.8923V11.6518H26.3932H26.3931Z" fill="white"/>
<path d="M31.7301 10.1022H33.4982L32.6104 8.32418L31.7301 10.1022ZM30.4351 11.6518L32.4031 7.63623H32.8179L34.8082 11.6518H34.2657L33.7205 10.5715H31.5017L30.9704 11.6518H30.4352H30.4351Z" fill="white"/>
<path d="M36.1227 7.63623V10.2363C36.1227 10.6523 36.2009 10.9317 36.3573 11.0745C36.5138 11.216 36.8205 11.2868 37.2799 11.2868C37.7381 11.2868 38.0448 11.2161 38.1999 11.0745C38.3552 10.9317 38.4322 10.6523 38.4322 10.2363V7.63623H38.9314V10.3704C38.9314 10.8645 38.8035 11.2197 38.5465 11.4345C38.2894 11.6493 37.866 11.756 37.2774 11.756C36.6889 11.756 36.2655 11.6493 36.0084 11.4345C35.7514 11.2197 35.6235 10.8645 35.6235 10.3704V7.63623H36.1227Z" fill="white"/>
<path d="M42.2051 8.09811H40.982V11.1898H42.2051C42.6992 11.1898 43.0892 11.0508 43.3722 10.7738C43.6566 10.4957 43.7982 10.1207 43.7982 9.64768C43.7982 9.18204 43.654 8.80709 43.3647 8.52394C43.0766 8.23958 42.6892 8.09811 42.205 8.09811H42.2051ZM42.2051 7.63623C42.8371 7.63623 43.3462 7.82249 43.7323 8.19622C44.1185 8.56995 44.3122 9.0555 44.3122 9.65519C44.3122 10.2587 44.1222 10.7429 43.7423 11.1068C43.3612 11.4706 42.8496 11.6518 42.2052 11.6518H40.4829V7.63623H42.2052H42.2051Z" fill="white"/>
<path d="M48.3719 11.6521H48.9083L50.1896 7.70361H49.4149L48.6327 10.1769L47.8057 7.70361H47.2247L46.3977 10.1844L45.6154 7.70361H44.8257L46.1145 11.6521H46.651L47.5076 9.08185L48.3719 11.6521Z" fill="white"/>
<path d="M51.9336 9.92366L52.4551 8.86574L52.9841 9.92366H51.9337H51.9336ZM53.3565 10.6761L53.8409 11.6521H54.705L52.7532 7.70361H52.1645L50.2275 11.6521H51.0918L51.5611 10.6761H53.3565Z" fill="white"/>
<path d="M56.8811 11.6521V8.45605H58.4009V7.70361H54.5791V8.45605H56.0988V11.6521H56.8811Z" fill="white"/>
<path d="M62.5215 10.6537L61.8957 10.1844C61.841 10.3135 61.7728 10.4241 61.6908 10.5159C61.6089 10.6078 61.5258 10.686 61.4413 10.7505C61.332 10.83 61.2179 10.8896 61.0987 10.9293C60.9794 10.969 60.8454 10.9888 60.6963 10.9888C60.5076 10.9888 60.3425 10.9602 60.2009 10.9031C60.0594 10.846 59.939 10.7678 59.8396 10.6685C59.7304 10.5592 59.6397 10.4226 59.5677 10.2587C59.4958 10.0948 59.4597 9.90855 59.4597 9.69996C59.4597 9.4616 59.4982 9.26295 59.5751 9.10402C59.6521 8.94508 59.7378 8.81844 59.8322 8.72409C59.9514 8.60486 60.0831 8.51793 60.2271 8.46339C60.3711 8.40875 60.5374 8.38143 60.7262 8.38143C60.8653 8.38143 60.9882 8.39626 61.095 8.42612C61.2017 8.45598 61.295 8.49325 61.3743 8.53794C61.4638 8.59257 61.5469 8.66214 61.6238 8.74653C61.7008 8.83093 61.7667 8.91786 61.8212 9.00723L62.4843 8.53794C62.39 8.3988 62.2831 8.27338 62.1639 8.16166C62.0447 8.04985 61.9231 7.95926 61.7989 7.88969C61.6598 7.8053 61.5009 7.73949 61.3221 7.69227C61.1433 7.64514 60.9471 7.62158 60.7336 7.62158C60.5398 7.62158 60.3648 7.63895 60.2084 7.67368C60.0519 7.70841 59.9129 7.75442 59.7912 7.81149C59.6695 7.86867 59.5627 7.93072 59.4708 7.99775C59.3789 8.06478 59.3007 8.13059 59.2361 8.19508C59.0424 8.39372 58.8984 8.6272 58.8041 8.89542C58.7097 9.16363 58.6626 9.43428 58.6626 9.70757C58.6626 10.0253 58.7172 10.3097 58.8265 10.5606C58.9357 10.8114 59.0698 11.0162 59.2288 11.1752C59.4424 11.3937 59.6771 11.5438 59.9328 11.6258C60.1886 11.7077 60.453 11.7487 60.7262 11.7487C60.9398 11.7487 61.1335 11.7263 61.3074 11.6816C61.4812 11.637 61.6499 11.56 61.8138 11.4506C61.9479 11.3612 62.0771 11.2494 62.2012 11.1154C62.3254 10.9813 62.4322 10.8272 62.5216 10.6535L62.5215 10.6537Z" fill="white"/>
<path d="M66.2101 9.87897V11.6521H66.9999V7.70361H66.2101V9.13395H64.4147V7.70361H63.625V11.6521H64.4147V9.87897H66.2101Z" fill="white"/>
<path d="M22.2861 15.5795H23.0806C23.6866 15.5795 24.0986 15.1971 24.0986 14.6369C24.0986 14.0767 23.6866 13.6943 23.0806 13.6943H22.2861V15.5795ZM22.5555 15.3453V13.9286H23.0645C23.5304 13.9286 23.8294 14.2141 23.8294 14.637C23.8294 15.0598 23.5304 15.3454 23.0645 15.3454H22.5555V15.3453Z" fill="white"/>
<path d="M24.5325 13.8777C24.6349 13.8777 24.7076 13.8023 24.7076 13.7053C24.7076 13.6137 24.6322 13.541 24.5325 13.541C24.4329 13.541 24.3574 13.6164 24.3574 13.7106C24.3574 13.8049 24.4329 13.8776 24.5325 13.8776V13.8777ZM24.4033 15.5799H24.6619V14.1525H24.4033V15.5799Z" fill="white"/>
<path d="M26.2059 14.1526V14.3735C26.0847 14.2172 25.8908 14.1392 25.678 14.1392C25.266 14.1392 24.9536 14.4166 24.9536 14.8286C24.9536 15.2407 25.266 15.5207 25.678 15.5207C25.8828 15.5207 26.0685 15.448 26.1925 15.3V15.4131C26.1925 15.7363 26.039 15.8924 25.7023 15.8924C25.4922 15.8924 25.2848 15.8197 25.1529 15.7066L25.029 15.906C25.1853 16.0459 25.4491 16.1186 25.7104 16.1186C26.1952 16.1186 26.4511 15.8897 26.4511 15.3861V14.1526H26.206H26.2059ZM25.7076 15.2945C25.4194 15.2945 25.2147 15.1033 25.2147 14.8285C25.2147 14.5511 25.4195 14.3653 25.7076 14.3653C25.9931 14.3653 26.1978 14.5512 26.1978 14.8285C26.1978 15.1032 25.9931 15.2945 25.7076 15.2945Z" fill="white"/>
<path d="M27.0037 13.8777C27.1061 13.8777 27.1788 13.8023 27.1788 13.7053C27.1788 13.6137 27.1034 13.541 27.0037 13.541C26.9041 13.541 26.8286 13.6164 26.8286 13.7106C26.8286 13.8049 26.9041 13.8776 27.0037 13.8776V13.8777ZM26.8745 15.5799H27.1331V14.1525H26.8745V15.5799Z" fill="white"/>
<path d="M28.2785 15.3104C28.2246 15.3535 28.1519 15.3776 28.0765 15.3776C27.9338 15.3776 27.853 15.2915 27.853 15.138V14.365H28.2623V14.1522H27.853V13.8398H27.5945V14.1522H27.3521V14.365H27.5945V15.1487C27.5945 15.4369 27.7587 15.5959 28.0469 15.5959C28.1627 15.5959 28.2811 15.5635 28.3593 15.4961L28.2785 15.3103V15.3104Z" fill="white"/>
<path d="M29.1224 14.1392C28.8934 14.1392 28.6807 14.2038 28.5326 14.3223L28.6404 14.5162C28.7508 14.4219 28.9231 14.3627 29.0928 14.3627C29.3486 14.3627 29.4753 14.4892 29.4753 14.7074V14.7586H29.0659C28.6404 14.7586 28.4922 14.947 28.4922 15.1761C28.4922 15.4239 28.6969 15.5962 29.02 15.5962C29.2435 15.5962 29.4024 15.5207 29.4887 15.3915V15.58H29.7337V14.7181C29.7337 14.3277 29.5128 14.1392 29.1224 14.1392ZM29.0631 15.3968C28.8665 15.3968 28.748 15.308 28.748 15.1653C28.748 15.044 28.8207 14.9444 29.0765 14.9444H29.4752V15.1438C29.4105 15.3081 29.257 15.3968 29.0631 15.3968Z" fill="white"/>
<path d="M30.144 15.5799H30.4025V13.5815H30.144V15.5799Z" fill="white"/>
<path d="M32.8564 14.602C33.0045 14.5292 33.1096 14.3864 33.1096 14.1818C33.1096 13.8774 32.8672 13.6943 32.4336 13.6943H31.5879V15.5795H32.4874C32.9641 15.5795 33.2092 15.3937 33.2092 15.0704C33.2092 14.82 33.0692 14.6612 32.8563 14.6019L32.8564 14.602ZM32.4093 13.9125C32.684 13.9125 32.8402 14.0149 32.8402 14.2141C32.8402 14.4135 32.684 14.5158 32.4093 14.5158H31.8572V13.9125H32.4093ZM32.4766 15.3614H31.8572V14.7339H32.4766C32.7756 14.7339 32.9372 14.8308 32.9372 15.0489C32.9372 15.2672 32.7756 15.3614 32.4766 15.3614Z" fill="white"/>
<path d="M33.7678 14.3919V14.1522H33.52V15.5796H33.7786V14.8686C33.7786 14.5561 33.9509 14.3865 34.2284 14.3865C34.2473 14.3865 34.2661 14.3865 34.2877 14.3891V14.1387C34.0372 14.1387 33.8594 14.2248 33.7678 14.3918V14.3919Z" fill="white"/>
<path d="M35.053 14.1392C34.8241 14.1392 34.6113 14.2038 34.4633 14.3223L34.571 14.5162C34.6814 14.4219 34.8538 14.3627 35.0235 14.3627C35.2793 14.3627 35.4058 14.4892 35.4058 14.7074V14.7586H34.9965C34.571 14.7586 34.4229 14.947 34.4229 15.1761C34.4229 15.4239 34.6276 15.5962 34.9506 15.5962C35.1742 15.5962 35.3331 15.5207 35.4192 15.3915V15.58H35.6643V14.7181C35.6643 14.3277 35.4434 14.1392 35.053 14.1392ZM34.9938 15.3968C34.7972 15.3968 34.6787 15.308 34.6787 15.1653C34.6787 15.044 34.7514 14.9444 35.0072 14.9444H35.4057V15.1438C35.3411 15.3081 35.1877 15.3968 34.9938 15.3968Z" fill="white"/>
<path d="M36.8364 14.1392C36.6101 14.1392 36.427 14.2226 36.322 14.3681V14.1526H36.0742V15.58H36.3328V14.8447C36.3328 14.5349 36.5105 14.3707 36.7852 14.3707C37.0303 14.3707 37.1703 14.5081 37.1703 14.7882V15.5801H37.429V14.7587C37.429 14.3385 37.1839 14.1393 36.8364 14.1393V14.1392Z" fill="white"/>
<path d="M38.9354 13.5815V14.3679C38.8169 14.2143 38.6392 14.139 38.4371 14.139C38.0197 14.139 37.7153 14.4299 37.7153 14.8661C37.7153 15.3024 38.0197 15.596 38.4371 15.596C38.6472 15.596 38.8303 15.5152 38.9462 15.3536V15.5799H39.194V13.5815H38.9354ZM38.4586 15.3699C38.184 15.3699 37.9765 15.1705 37.9765 14.8662C37.9765 14.5619 38.184 14.3653 38.4586 14.3653C38.7307 14.3653 38.9381 14.5619 38.9381 14.8662C38.9381 15.1705 38.7307 15.3699 38.4586 15.3699Z" fill="white"/>
<path d="M41.1121 13.6944H40.377V15.5796H40.6463V15.0086H41.1122C41.6024 15.0086 41.8987 14.7608 41.8987 14.3515C41.8987 13.9421 41.6024 13.6943 41.1122 13.6943L41.1121 13.6944ZM41.104 14.7744H40.6462V13.9286H41.104C41.4488 13.9286 41.6292 14.0822 41.6292 14.3515C41.6292 14.6208 41.4488 14.7743 41.104 14.7743V14.7744Z" fill="white"/>
<path d="M42.4109 14.3919V14.1522H42.1631V15.5796H42.4217V14.8686C42.4217 14.5561 42.594 14.3865 42.8714 14.3865C42.8903 14.3865 42.9091 14.3865 42.9308 14.3891V14.1387C42.6802 14.1387 42.5025 14.2248 42.4109 14.3918V14.3919Z" fill="white"/>
<path d="M43.7775 15.5962C44.2057 15.5962 44.5181 15.2918 44.5181 14.8663C44.5181 14.4407 44.2057 14.1392 43.7775 14.1392C43.3493 14.1392 43.0342 14.4408 43.0342 14.8663C43.0342 15.2918 43.3493 15.5962 43.7775 15.5962ZM43.7775 15.3699C43.5029 15.3699 43.2954 15.1706 43.2954 14.8663C43.2954 14.5619 43.5029 14.3653 43.7775 14.3653C44.0522 14.3653 44.2569 14.5619 44.2569 14.8663C44.2569 15.1706 44.0522 15.3699 43.7775 15.3699Z" fill="white"/>
<path d="M45.5285 15.3104C45.4746 15.3535 45.4019 15.3776 45.3265 15.3776C45.1838 15.3776 45.103 15.2915 45.103 15.138V14.365H45.5123V14.1522H45.103V13.8398H44.8445V14.1522H44.6021V14.365H44.8445V15.1487C44.8445 15.4369 45.0087 15.5959 45.2969 15.5959C45.4127 15.5959 45.5311 15.5635 45.6093 15.4961L45.5285 15.3103V15.3104Z" fill="white"/>
<path d="M47.0943 14.8743C47.0943 14.4354 46.8008 14.1392 46.3887 14.1392C45.9767 14.1392 45.6724 14.4434 45.6724 14.8663C45.6724 15.2918 45.9794 15.5962 46.4399 15.5962C46.677 15.5962 46.8735 15.5154 47.0028 15.3646L46.8601 15.1976C46.755 15.3134 46.615 15.3699 46.448 15.3699C46.1652 15.3699 45.9632 15.2029 45.9309 14.9524H47.0891C47.0917 14.9283 47.0945 14.8959 47.0945 14.8743H47.0943ZM46.3887 14.3573C46.6392 14.3573 46.8197 14.527 46.8466 14.7667H45.9308C45.9578 14.5243 46.1409 14.3573 46.3887 14.3573Z" fill="white"/>
<path d="M48.005 15.5961C48.2609 15.5961 48.4737 15.4884 48.5869 15.2891L48.3902 15.1652C48.2986 15.3051 48.1586 15.3699 48.0024 15.3699C47.7223 15.3699 47.5122 15.176 47.5122 14.8663C47.5122 14.5619 47.7223 14.3653 48.0024 14.3653C48.1586 14.3653 48.2986 14.4299 48.3902 14.5701L48.5869 14.4434C48.4737 14.2442 48.261 14.1392 48.005 14.1392C47.5661 14.1392 47.251 14.4408 47.251 14.8663C47.251 15.2918 47.5661 15.5962 48.005 15.5962V15.5961Z" fill="white"/>
<path d="M49.5924 15.3104C49.5386 15.3535 49.4659 15.3776 49.3904 15.3776C49.2477 15.3776 49.167 15.2915 49.167 15.138V14.365H49.5763V14.1522H49.167V13.8398H48.9084V14.1522H48.666V14.365H48.9084V15.1487C48.9084 15.4369 49.0727 15.5959 49.3609 15.5959C49.4766 15.5959 49.5951 15.5635 49.6733 15.4961L49.5924 15.3103V15.3104Z" fill="white"/>
<path d="M50.0452 13.8777C50.1476 13.8777 50.2203 13.8023 50.2203 13.7053C50.2203 13.6137 50.1449 13.541 50.0452 13.541C49.9456 13.541 49.8701 13.6164 49.8701 13.7106C49.8701 13.8049 49.9456 13.8776 50.0452 13.8776V13.8777ZM49.916 15.5799H50.1746V14.1525H49.916V15.5799Z" fill="white"/>
<path d="M51.2096 15.5962C51.6379 15.5962 51.9503 15.2918 51.9503 14.8663C51.9503 14.4407 51.6379 14.1392 51.2096 14.1392C50.7814 14.1392 50.4663 14.4408 50.4663 14.8663C50.4663 15.2918 50.7814 15.5962 51.2096 15.5962ZM51.2096 15.3699C50.935 15.3699 50.7275 15.1706 50.7275 14.8663C50.7275 14.5619 50.935 14.3653 51.2096 14.3653C51.4843 14.3653 51.6891 14.5619 51.6891 14.8663C51.6891 15.1706 51.4843 15.3699 51.2096 15.3699Z" fill="white"/>
<path d="M53.0014 14.1392C52.7752 14.1392 52.5921 14.2226 52.4871 14.3681V14.1526H52.2393V15.58H52.4978V14.8447C52.4978 14.5349 52.6755 14.3707 52.9503 14.3707C53.1953 14.3707 53.3354 14.5081 53.3354 14.7882V15.5801H53.594V14.7587C53.594 14.3385 53.349 14.1393 53.0014 14.1393V14.1392Z" fill="white"/>
</g>
<defs>
<clipPath id="clip0_2882_277">
<rect width="62" height="15.7399" fill="white" transform="translate(5 4)"/>
</clipPath>
</defs>
</svg>
