<svg width="72" height="24" viewBox="0 0 72 24" fill="none" xmlns="http://www.w3.org/2000/svg">
<g clip-path="url(#clip0_2882_668)">
<path fill-rule="evenodd" clip-rule="evenodd" d="M6 5.68354C9.51294 5.68354 12.0948 8.1947 12.0948 10.9824H13.6412H14.7784H16.3247C16.3247 8.1947 18.9066 5.68354 22.4196 5.68354V3C21.1174 3 19.8632 3.26352 18.7302 3.74121C15.6201 5.12204 14.3112 8.30678 14.2098 10.3112C14.1084 8.30664 12.7993 5.12159 9.68872 3.74092C8.5559 3.26342 7.30188 3 6 3V5.68354ZM6.00001 17.4638C9.51295 17.4639 12.0948 14.9527 12.0948 12.165H13.6412H16.3247C16.3247 14.9527 18.9066 17.4638 22.4196 17.4639V20.1474C21.1172 20.1474 19.8628 19.8838 18.7296 19.4059C15.6203 18.0251 14.3115 14.8412 14.2098 12.8369C14.1081 14.8414 12.7989 18.0258 9.68889 19.4064C8.55603 19.8839 7.30195 20.1474 6.00001 20.1474L6.00001 17.4638Z" fill="#5886FB"/>
<path d="M29.5452 7.00879V17.1144H28.0205V7.00879H29.5452Z" fill="white"/>
<path d="M40.9609 12.0616C40.9609 13.1405 40.7635 14.0682 40.3687 14.8446C39.974 15.6176 39.4329 16.213 38.7453 16.6308C38.0611 17.0453 37.2831 17.2526 36.4114 17.2526C35.5364 17.2526 34.7551 17.0453 34.0675 16.6308C33.3833 16.213 32.8438 15.616 32.4491 14.8396C32.0543 14.0633 31.8569 13.1373 31.8569 12.0616C31.8569 10.9826 32.0543 10.0566 32.4491 9.28352C32.8438 8.5072 33.3833 7.91176 34.0675 7.49727C34.7551 7.07949 35.5364 6.87061 36.4114 6.87061C37.2831 6.87061 38.0611 7.07949 38.7453 7.49727C39.4329 7.91176 39.974 8.5072 40.3687 9.28352C40.7635 10.0566 40.9609 10.9826 40.9609 12.0616ZM39.451 12.0616C39.451 11.2392 39.3177 10.5467 39.0513 9.98418C38.7881 9.41839 38.4263 8.99073 37.9657 8.70125C37.5084 8.40851 36.9903 8.26209 36.4114 8.26209C35.8291 8.26209 35.3094 8.40851 34.8521 8.70125C34.3948 8.99073 34.033 9.41839 33.7665 9.98418C33.5034 10.5467 33.3718 11.2392 33.3718 12.0616C33.3718 12.884 33.5034 13.5781 33.7665 14.1439C34.033 14.7064 34.3948 15.1341 34.8521 15.4268C35.3094 15.7163 35.8291 15.861 36.4114 15.861C36.9903 15.861 37.5084 15.7163 37.9657 15.4268C38.4263 15.1341 38.7881 14.7064 39.0513 14.1439C39.3177 13.5781 39.451 12.884 39.451 12.0616Z" fill="white"/>
<path d="M51.4354 7.00879V17.1144H50.034L44.8973 9.70296H44.8035V17.1144H43.2788V7.00879H44.6901L49.8317 14.4301H49.9254V7.00879H51.4354Z" fill="white"/>
<path d="M55.6012 7.00879V17.1144H54.0762V7.00879H55.6012Z" fill="white"/>
<path d="M59.2993 7.00879L61.7172 10.9612H61.796L64.2139 7.00879H65.9803L62.8321 12.0616L66 17.1144H64.2238L61.796 13.2162H61.7172L59.2895 17.1144H57.5132L60.7353 12.0616L57.5329 7.00879H59.2993Z" fill="white"/>
</g>
<defs>
<clipPath id="clip0_2882_668">
<rect width="60" height="17.4627" fill="white" transform="translate(6 3)"/>
</clipPath>
</defs>
</svg>
