<svg width="72" height="24" viewBox="0 0 72 24" fill="none" xmlns="http://www.w3.org/2000/svg">
<path fill-rule="evenodd" clip-rule="evenodd" d="M5 5.78459C5 5.35127 5.35127 5 5.78459 5L21.4763 5C21.9096 5 22.2609 5.35127 22.2609 5.78458V18.394C22.2609 18.8273 21.9096 19.1786 21.4763 19.1786H5.78459C5.35127 19.1786 5 18.8273 5 18.394L5 5.78459Z" fill="#FCFCFC" stroke="black" stroke-width="0.945238"/>
<path fill-rule="evenodd" clip-rule="evenodd" d="M22.2609 5.47263L13.6304 13.0815L5 5.47263" fill="#00CC66"/>
<path d="M22.2609 5.47263L13.6304 13.0815L5 5.47263" stroke="black" stroke-width="0.945238" stroke-linejoin="round"/>
<path d="M27.9238 17V9.17599H29.6878V17H27.9238Z" fill="black"/>
<path d="M31.5332 17V9.17599H33.4652L34.7252 12.656C34.8052 12.88 34.8812 13.116 34.9532 13.364C35.0252 13.612 35.1012 13.856 35.1812 14.096H35.2292C35.3092 13.856 35.3812 13.612 35.4452 13.364C35.5172 13.116 35.5932 12.88 35.6732 12.656L36.9092 9.17599H38.8292V17H37.2212V14.132C37.2212 13.876 37.2332 13.592 37.2572 13.28C37.2892 12.96 37.3212 12.64 37.3532 12.32C37.3932 12 37.4252 11.716 37.4492 11.468H37.4012L36.7652 13.328L35.6492 16.316H34.6772L33.5612 13.328L32.9372 11.468H32.8892C32.9212 11.716 32.9532 12 32.9852 12.32C33.0172 12.64 33.0452 12.96 33.0692 13.28C33.1012 13.592 33.1172 13.876 33.1172 14.132V17H31.5332Z" fill="black"/>
<path d="M42.5098 13.04L42.3178 13.76H43.9858L43.8058 13.04C43.7018 12.648 43.5938 12.232 43.4818 11.792C43.3778 11.352 43.2738 10.928 43.1698 10.52H43.1218C43.0258 10.936 42.9258 11.364 42.8218 11.804C42.7258 12.236 42.6218 12.648 42.5098 13.04ZM39.6778 17L42.1258 9.17599H44.2498L46.6978 17H44.8258L44.3458 15.14H41.9578L41.4778 17H39.6778Z" fill="black"/>
<path d="M47.5527 17V9.17599H50.2407C50.8167 9.17599 51.3367 9.25599 51.8007 9.41599C52.2727 9.56799 52.6487 9.82799 52.9287 10.196C53.2087 10.564 53.3487 11.064 53.3487 11.696C53.3487 12.304 53.2087 12.804 52.9287 13.196C52.6487 13.588 52.2767 13.88 51.8127 14.072C51.3487 14.256 50.8407 14.348 50.2887 14.348H49.3167V17H47.5527ZM49.3167 12.944H50.1807C51.1407 12.944 51.6207 12.528 51.6207 11.696C51.6207 11.288 51.4927 11 51.2367 10.832C50.9807 10.664 50.6127 10.58 50.1327 10.58H49.3167V12.944Z" fill="black"/>
</svg>
