<svg width="73" height="24" viewBox="0 0 73 24" fill="none" xmlns="http://www.w3.org/2000/svg">
<path fill-rule="evenodd" clip-rule="evenodd" d="M18.6919 19.6946C18.8785 19.6946 18.951 19.6326 18.951 19.4983C18.951 19.364 18.8785 19.302 18.6919 19.302H18.1219V19.6946H18.6919ZM18.6608 18.9093C18.837 18.9093 18.9096 18.8576 18.9096 18.7233C18.9096 18.5993 18.8267 18.5476 18.6608 18.5476H18.1219V18.9196H18.6608V18.9093ZM17.5 18.062H18.8267C19.262 18.062 19.5315 18.2377 19.5315 18.589C19.5315 18.8267 19.4382 18.992 19.1791 19.0746C19.4486 19.178 19.5833 19.3226 19.5833 19.5706C19.5833 20.0046 19.2516 20.1596 18.7852 20.1596H17.5V18.062Z" fill="#A4A4A4"/>
<path fill-rule="evenodd" clip-rule="evenodd" d="M20.8477 19.4982L19.9253 18.0723H20.6405L21.1587 18.9092H21.1898L21.7184 18.0723H22.4128L21.4904 19.4982V20.1699H20.8581V19.4982H20.8477Z" fill="#A4A4A4"/>
<path fill-rule="evenodd" clip-rule="evenodd" d="M25.1907 19.1573C25.3876 19.1573 25.4706 19.0333 25.4706 18.8679C25.4706 18.682 25.3773 18.5786 25.1803 18.5786H24.6828V19.1573H25.1907ZM24.061 18.062H25.3048C25.823 18.062 26.1029 18.3617 26.1029 18.8473C26.1029 19.395 25.7505 19.6533 25.2633 19.6533H24.7036V20.1699H24.0714V18.062H24.061Z" fill="#A4A4A4"/>
<path fill-rule="evenodd" clip-rule="evenodd" d="M27.3462 19.2606H27.9163L27.6882 18.5993H27.5742L27.3462 19.2606ZM27.1182 18.062H28.1339L28.8698 20.1699H28.2065L28.0614 19.736H27.1908L27.0353 20.1699H26.3823L27.1182 18.062Z" fill="#A4A4A4"/>
<path fill-rule="evenodd" clip-rule="evenodd" d="M29.4297 18.062H30.0619V19.6223H31.1813L31.1606 20.1699H29.4297V18.062Z" fill="#A4A4A4"/>
<mask id="mask0_4070_6258" style="mask-type:luminance" maskUnits="userSpaceOnUse" x="31" y="18" width="4" height="3">
<path fill-rule="evenodd" clip-rule="evenodd" d="M31.5962 18H34.0007V20.2319H31.5962V18Z" fill="white"/>
</mask>
<g mask="url(#mask0_4070_6258)">
<path fill-rule="evenodd" clip-rule="evenodd" d="M33.3788 19.116C33.3788 18.7543 33.1715 18.5373 32.7984 18.5373C32.4356 18.5373 32.218 18.7543 32.218 19.116C32.218 19.4776 32.4253 19.6946 32.7881 19.6946C33.1611 19.6946 33.3788 19.4776 33.3788 19.116ZM31.5962 19.116C31.5962 18.434 32.0626 18 32.7984 18C33.5343 18 34.0007 18.434 34.0007 19.116C34.0007 19.7979 33.5343 20.2319 32.7984 20.2319C32.0626 20.2319 31.5962 19.8083 31.5962 19.116Z" fill="#A4A4A4"/>
</g>
<path fill-rule="evenodd" clip-rule="evenodd" d="M36.5605 19.2606H37.1305L36.9025 18.5993H36.7885L36.5605 19.2606ZM36.3325 18.062H37.3483L38.0841 20.1699H37.4207L37.2756 19.736H36.405L36.2495 20.1699H35.6069L36.3325 18.062Z" fill="#A4A4A4"/>
<path fill-rule="evenodd" clip-rule="evenodd" d="M38.644 18.062H39.2763V19.6223H40.3956L40.3748 20.1699H38.644V18.062Z" fill="#A4A4A4"/>
<path fill-rule="evenodd" clip-rule="evenodd" d="M41.2764 18.6096H40.5405L40.5614 18.0723H42.6238L42.6445 18.6096H41.9088V20.1699H41.2764V18.6096Z" fill="#A4A4A4"/>
<mask id="mask1_4070_6258" style="mask-type:luminance" maskUnits="userSpaceOnUse" x="43" y="18" width="3" height="3">
<path fill-rule="evenodd" clip-rule="evenodd" d="M43.0698 18H45.4744V20.2319H43.0698V18Z" fill="white"/>
</mask>
<g mask="url(#mask1_4070_6258)">
<path fill-rule="evenodd" clip-rule="evenodd" d="M44.8526 19.116C44.8526 18.7543 44.6453 18.5373 44.2721 18.5373C43.899 18.5373 43.6917 18.7543 43.6917 19.116C43.6917 19.4776 43.899 19.6946 44.2618 19.6946C44.6349 19.6946 44.8526 19.4776 44.8526 19.116ZM43.0698 19.116C43.0698 18.434 43.5362 18 44.2721 18C45.008 18 45.4744 18.434 45.4744 19.116C45.4744 19.7979 45.008 20.2319 44.2721 20.2319C43.5362 20.2319 43.0698 19.8083 43.0698 19.116Z" fill="#A4A4A4"/>
</g>
<path fill-rule="evenodd" clip-rule="evenodd" d="M47.2671 18.062H47.9202L48.8323 19.2606H48.8425V18.062H49.4437V20.1699H48.8114L47.8786 18.9506H47.8683V20.1699H47.2671V18.062Z" fill="#A4A4A4"/>
<path fill-rule="evenodd" clip-rule="evenodd" d="M50.2004 18.062H52.0453L52.066 18.5683H50.8223V18.8576H51.7965V19.3226H50.8223V19.6533H52.0971L52.0764 20.1596H50.1899V18.062H50.2004Z" fill="#A4A4A4"/>
<path fill-rule="evenodd" clip-rule="evenodd" d="M53.341 18.6096H52.605L52.6258 18.0723H54.6884L54.7091 18.6096H53.9732V20.1699H53.341V18.6096Z" fill="#A4A4A4"/>
<path fill-rule="evenodd" clip-rule="evenodd" d="M55.1753 18.062H55.849L56.191 19.519H56.2221L56.6677 18.062H57.2896L57.725 19.519H57.756L58.098 18.062H58.7406L58.1809 20.1699H57.3518L56.9684 18.899H56.9579L56.564 20.1699H55.7349L55.1753 18.062Z" fill="#A4A4A4"/>
<mask id="mask2_4070_6258" style="mask-type:luminance" maskUnits="userSpaceOnUse" x="59" y="18" width="3" height="3">
<path fill-rule="evenodd" clip-rule="evenodd" d="M59.1558 18H61.5604V20.2319H59.1558V18Z" fill="white"/>
</mask>
<g mask="url(#mask2_4070_6258)">
<path fill-rule="evenodd" clip-rule="evenodd" d="M60.9386 19.116C60.9386 18.7543 60.7313 18.5373 60.3582 18.5373C59.9851 18.5373 59.7778 18.7543 59.7778 19.116C59.7778 19.4776 59.9851 19.6946 60.3478 19.6946C60.7313 19.6946 60.9386 19.4776 60.9386 19.116ZM59.1558 19.116C59.1558 18.434 59.6222 18 60.3581 18C61.0939 18 61.5604 18.434 61.5604 19.116C61.5604 19.7979 61.0939 20.2319 60.3581 20.2319C59.6222 20.2319 59.1558 19.8083 59.1558 19.116Z" fill="#A4A4A4"/>
</g>
<path fill-rule="evenodd" clip-rule="evenodd" d="M63.3531 19.1263C63.5604 19.1263 63.6433 19.0126 63.6433 18.8473C63.6433 18.6923 63.5708 18.5786 63.3531 18.5786H62.8348V19.1263H63.3531ZM62.2026 18.062H63.436C63.9957 18.062 64.2756 18.3307 64.2756 18.8163C64.2756 19.1573 64.1409 19.3846 63.861 19.488L64.3585 20.1596H63.6433L63.2495 19.6016H62.8349V20.1596H62.2026V18.062Z" fill="#A4A4A4"/>
<path fill-rule="evenodd" clip-rule="evenodd" d="M64.9287 18.062H65.561V18.837H65.8201L66.4419 18.062H67.1571L66.3487 19.0643L67.1986 20.1596H66.4627L65.8201 19.3536H65.561V20.1596H64.9287V18.062Z" fill="#A4A4A4"/>
<mask id="mask3_4070_6258" style="mask-type:luminance" maskUnits="userSpaceOnUse" x="67" y="18" width="3" height="3">
<path fill-rule="evenodd" clip-rule="evenodd" d="M67.6133 18.0205H69.5929V20.2317H67.6133V18.0205Z" fill="white"/>
</mask>
<g mask="url(#mask3_4070_6258)">
<path fill-rule="evenodd" clip-rule="evenodd" d="M67.6236 20.0354V19.4568C67.976 19.6324 68.3181 19.7254 68.6186 19.7254C68.8467 19.7254 68.9607 19.6738 68.9607 19.5705C68.9607 19.4671 68.8881 19.4361 68.4321 19.3638C67.9346 19.2811 67.6133 19.1365 67.6133 18.7128C67.6133 18.3202 67.9553 18.0205 68.6394 18.0205C68.9089 18.0205 69.1991 18.0825 69.4582 18.1858V18.7541C69.2094 18.6095 68.8674 18.5165 68.5979 18.5165C68.3595 18.5165 68.2559 18.5785 68.2559 18.6715C68.2559 18.7955 68.401 18.8058 68.7741 18.8678C69.2716 18.9505 69.5929 19.0951 69.5929 19.5395C69.5929 19.8804 69.3338 20.2318 68.5876 20.2318C68.2248 20.2318 67.9346 20.1491 67.6236 20.0354Z" fill="#A4A4A4"/>
</g>
<path fill-rule="evenodd" clip-rule="evenodd" d="M43.1428 10.605H41.1706V8.64939H43.2389C44.4073 8.64939 44.8836 8.99596 44.8836 9.62206C44.8836 10.2812 44.2988 10.605 43.1428 10.605ZM46.9809 9.58865C46.9809 8.05694 45.8248 7.15234 43.6439 7.15234H39.0972V14.5933H41.1706V12.0456H42.7017L45.0025 14.5933H47.3745L44.895 11.9012C46.1347 11.5876 46.9809 10.7955 46.9809 9.58865Z" fill="white"/>
<path fill-rule="evenodd" clip-rule="evenodd" d="M23.4673 10.8171L26.8125 7.15234H24.3578L22.2492 9.64539L20.1324 7.15234H17.594L20.9413 10.8388L17.5 14.5933H19.9547L22.1583 12.1281L24.3702 14.5933H26.9086L23.4673 10.8171Z" fill="white"/>
<path d="M37.1106 10.8797C37.1106 11.441 36.9996 11.9597 36.7775 12.4358C36.5595 12.9083 36.2506 13.3187 35.8509 13.6668C35.4512 14.0115 34.9687 14.2815 34.4034 14.4769C33.8422 14.6687 33.2184 14.7647 32.532 14.7647H29.104V7H32.532C33.2184 7 33.8422 7.0977 34.4034 7.29311C34.9687 7.48851 35.4512 7.75852 35.8509 8.10315C36.2506 8.44777 36.5595 8.85812 36.7775 9.3342C36.9996 9.80672 37.1106 10.3219 37.1106 10.8797ZM35.0151 10.8797C35.0151 10.496 34.9586 10.1496 34.8455 9.84047C34.7325 9.53138 34.5689 9.27025 34.355 9.05708C34.145 8.84036 33.8866 8.67515 33.5797 8.56146C33.2729 8.44422 32.9236 8.3856 32.532 8.3856H31.1632V13.3791H32.532C32.9236 13.3791 33.2729 13.3222 33.5797 13.2085C33.8866 13.0913 34.145 12.9261 34.355 12.7129C34.5689 12.4962 34.7325 12.2333 34.8455 11.9242C34.9586 11.6151 35.0151 11.2669 35.0151 10.8797Z" fill="white"/>
<path d="M14.9288 11.4166C14.9287 12.389 14.5286 13.3216 13.8163 14.0092C13.1041 14.6969 12.1381 15.0832 11.1309 15.0832V7.75C12.1381 7.75004 13.1041 8.13635 13.8163 8.82396C14.5286 9.51156 14.9287 10.4441 14.9288 11.4166Z" fill="#00CC66"/>
<path d="M7.33307 11.4164C7.33311 12.3888 7.73325 13.3214 8.44547 14.009C9.15769 14.6966 10.1237 15.083 11.1309 15.083V17.8476C9.37019 17.8417 7.68365 17.1623 6.44077 15.9583C5.19788 14.7542 4.5 13.1237 4.5 11.4238C4.5 9.7239 5.19788 8.09332 6.44077 6.88927C7.68365 5.68521 9.37019 5.00584 11.1309 5V7.7498C10.1237 7.74986 9.15772 8.13618 8.4455 8.82378C7.73328 9.51139 7.33313 10.444 7.33307 11.4164Z" fill="#00CC66"/>
</svg>
