<svg width="72" height="24" viewBox="0 0 72 24" fill="none" xmlns="http://www.w3.org/2000/svg">
    <g clip-path="url(#clip0_2698_2592)">
        <path fill-rule="evenodd" clip-rule="evenodd" d="M3.08444 10.892C2.80786 12.6317 3.19334 14.4124 4.16396 15.8786C3.74297 14.8513 4.02256 13.4334 4.93249 11.9949H4.1188L4.30991 11.5427C5.40581 11.2489 6.41201 10.6856 7.23809 9.90359C7.24357 9.89946 7.83103 9.89946 7.83103 9.89946L7.09625 11.4913H8.2999L8.07185 11.9724L6.88963 11.9664C5.88164 13.9558 6.0171 14.586 6.18951 15.0799C6.65839 16.4033 9.18839 16.0342 11.6833 14.0719C14.1782 12.1096 15.3193 9.38674 14.2338 7.98995C13.2897 6.77402 10.9362 6.9893 8.72089 8.35074C11.1642 6.7754 13.7262 6.33336 15.0698 7.25782C13.8843 5.96146 12.2566 5.1627 10.5117 5.02099C8.7667 4.87927 7.03281 5.40501 5.65607 6.49328C4.27933 7.58155 3.36103 9.1523 3.08444 10.892ZM15.716 15.9228C16.4948 14.7648 16.911 13.3986 16.9112 12.0003H16.9093C16.912 10.6917 16.5485 9.40871 15.8603 8.29834C16.4646 10.0509 15.0197 12.8761 12.3027 15.0119C9.55833 17.1693 6.45044 17.8877 4.92432 16.8319C5.88352 17.8435 7.12179 18.5428 8.47952 18.8396C9.83725 19.1365 11.2522 19.0173 12.542 18.4974C13.8318 17.9775 14.9373 17.0808 15.716 15.9228Z" fill="#D71920"/>
        <path fill-rule="evenodd" clip-rule="evenodd" d="M65.0393 9.7884C64.7619 9.8065 64.4868 9.72735 64.2607 9.5644C64.1689 9.48632 64.0964 9.38782 64.0489 9.27669C64.0014 9.16556 63.9803 9.04484 63.9871 8.92407C63.984 8.7927 64.0098 8.66227 64.0628 8.54217C64.1109 8.43545 64.185 8.34264 64.2781 8.27226C64.3767 8.19621 64.4899 8.14151 64.6106 8.11161C64.7513 8.0757 64.896 8.05827 65.0411 8.05974C65.3194 8.0413 65.5953 8.12099 65.8215 8.28512C65.9134 8.36285 65.986 8.46108 66.0335 8.57201C66.081 8.68293 66.1021 8.80348 66.0952 8.92407C66.0984 9.0562 66.0731 9.18745 66.0209 9.30872C65.9726 9.415 65.8992 9.5077 65.8069 9.57863C65.7074 9.65286 65.5945 9.70695 65.4744 9.7379C65.3332 9.77451 65.1879 9.79241 65.0421 9.79115L65.0393 9.7884ZM65.0393 9.36931C65.134 9.37009 65.2286 9.36148 65.3216 9.34361C65.3993 9.32921 65.474 9.30207 65.5429 9.26328C65.6016 9.2297 65.6514 9.18249 65.6883 9.12558C65.7361 9.03844 65.751 8.93687 65.7303 8.83955C65.7096 8.74223 65.6547 8.6557 65.5757 8.59587C65.412 8.50535 65.2255 8.46499 65.0393 8.47974C64.9475 8.47944 64.856 8.48758 64.7657 8.50407C64.6877 8.51897 64.6123 8.5451 64.5417 8.58164C64.4813 8.61445 64.43 8.66176 64.3921 8.71935C64.3556 8.78187 64.3373 8.85343 64.3392 8.9259C64.3369 8.99094 64.3514 9.05547 64.3811 9.11327C64.4108 9.17107 64.4548 9.22021 64.5089 9.25594C64.6704 9.34523 64.8541 9.38556 65.0379 9.37207L65.0393 9.36931ZM64.0456 11.573L64.0458 11.5743L64.044 11.573H64.0456ZM64.0456 11.573C64.037 11.5275 64.0302 11.482 64.0244 11.4293L64.0239 11.4248L64.0239 11.4246C64.0181 11.3732 64.0129 11.3259 64.0089 11.2755C64.0048 11.2237 64.0016 11.1736 63.9988 11.125C63.9961 11.0764 63.9961 11.0334 63.9961 10.9917V10.9914C63.9957 10.8969 64.0047 10.8027 64.023 10.71C64.0384 10.6232 64.0683 10.5397 64.1115 10.4631C64.1541 10.3904 64.2146 10.33 64.2871 10.2877C64.3728 10.241 64.4693 10.2182 64.5667 10.2216C64.7106 10.2152 64.8528 10.2559 64.9717 10.3378C65.0756 10.4152 65.1517 10.5246 65.1884 10.6494L65.2796 10.5071L66.0513 10.0408V10.4998L65.2549 10.9643L65.218 11.1741H66.0481V11.573H64.0456ZM64.3537 11.0837C64.351 11.0433 64.3509 11.0033 64.3509 10.9629H64.3523C64.3462 10.8772 64.3721 10.7923 64.4248 10.7247C64.4506 10.697 64.4821 10.6753 64.5171 10.6612C64.5521 10.6471 64.5897 10.6409 64.6273 10.643C64.6738 10.6385 64.7206 10.6452 64.7639 10.6624C64.8073 10.6796 64.846 10.707 64.8768 10.7421C64.9293 10.8197 64.9554 10.9123 64.9512 11.0061V11.1755H64.3637C64.3572 11.1453 64.3538 11.1145 64.3537 11.0837ZM65.9705 12.0435L65.972 12.0458L65.6517 12.1256C65.6805 12.175 65.7026 12.2282 65.7173 12.2835C65.736 12.3557 65.7446 12.4302 65.7429 12.5048C65.7452 12.5898 65.7282 12.6743 65.6932 12.7517C65.6594 12.8215 65.6101 12.8825 65.549 12.9298C65.4838 12.9801 65.409 13.0162 65.3292 13.0358C65.236 13.0597 65.1402 13.0713 65.0441 13.0703C64.855 13.086 64.6666 13.0336 64.5123 12.9225C64.4563 12.8753 64.4118 12.8159 64.3821 12.7487C64.3525 12.6816 64.3385 12.6085 64.3413 12.5351C64.3401 12.4606 64.3448 12.3861 64.3554 12.3124C64.3629 12.2574 64.3783 12.2038 64.401 12.1532L64.0658 12.0742C64.0408 12.1388 64.0222 12.2057 64.0101 12.2739C63.9928 12.3714 63.9847 12.4704 63.986 12.5695C63.9867 12.6803 64.005 12.7904 64.0402 12.8954C64.077 13.0058 64.1374 13.1067 64.2172 13.191C64.3091 13.2846 64.4194 13.3579 64.541 13.4063C64.701 13.4645 64.8704 13.4922 65.0405 13.488C65.2061 13.4915 65.371 13.4662 65.528 13.4132C65.6499 13.371 65.7613 13.3029 65.8546 13.2135C65.9364 13.1319 65.9988 13.0327 66.0371 12.9234C66.0746 12.8115 66.0934 12.694 66.0927 12.5759C66.0928 12.4767 66.0833 12.3777 66.0644 12.2803C66.05 12.1966 66.0186 12.1167 65.972 12.0458L65.9741 12.0453L65.9705 12.0435ZM64.0273 13.9417H66.0515V14.3405H64.0273V13.9417ZM64.598 15.3318L65.0003 15.375H66.0535V14.9761H64.0293V15.3369L64.9479 15.8523L65.186 15.94V15.9515L64.9547 16.0479L64.0288 16.5918V16.9563H66.0512V16.579H64.9985L64.5976 16.6363V16.6221L64.92 16.4931L65.6776 16.0369V15.9093L64.9219 15.4741L64.598 15.3493V15.3318ZM67.511 8.17628H67.8348L67.8367 8.06152H67.0649V8.17628H67.3842V9.03923H67.511V8.17628ZM69.0002 9.03923H68.8775V8.2208L68.5951 9.03923H68.4797L68.2029 8.20657L68.2001 9.03923H68.0747V8.06152H68.2672L68.4984 8.75326C68.4984 8.75326 68.5085 8.78218 68.524 8.83497C68.5326 8.85575 68.5389 8.87747 68.5427 8.89969L68.597 8.74179L68.8296 8.06152H69.0006L69.0002 9.03923ZM43.0942 8.0603H36.7544V16.956H43.2283V15.4785H38.6513V13.1086H42.7394V11.6315H38.6513V9.53879H43.0942V8.0603ZM50.1706 16.956L46.9259 11.0407L46.9017 11.0664V16.956H45.1274V8.0603H47.4759L50.7024 13.8724L50.7279 13.848V8.0603H52.5008V16.956H50.1706ZM54.5234 8.0603H57.5337V8.06168C60.2904 8.03414 62.0035 9.4167 62.0035 12.5086C62.0035 15.6006 60.2909 16.9813 57.5337 16.957H54.5234V8.0603ZM56.4231 15.4785H57.4024L57.4047 15.4771C59.6551 15.5046 59.9876 13.9242 59.9876 12.5073C59.9876 11.0903 59.6555 9.58194 57.4047 9.60765H56.4231V15.4785ZM18.9336 8.0603H26.0944V9.53879H23.4627V16.956H21.5653V9.53879H18.9336V8.0603ZM34.6024 12.2327C34.3006 12.6709 33.8724 13.0053 33.3757 13.1907L33.3798 13.1903L35.2398 16.9542H32.9077C32.509 15.7511 32.0418 14.5721 31.5084 13.423H29.5015V16.9574H27.606V8.0603H31.357H31.4527C33.0961 8.0603 33.6521 8.4064 33.7378 8.46102C34.0859 8.65084 34.3848 8.9205 34.61 9.24819C34.8353 9.57587 34.9807 9.95235 35.0345 10.3471C35.0535 10.4774 35.0631 10.6088 35.0633 10.7405C35.065 11.2737 34.9042 11.7945 34.6024 12.2327ZM31.7383 9.56909H29.4988L29.4974 9.57047V11.9082H31.7369C32.5602 11.8977 33.0477 11.4869 33.055 10.7148V10.6308C33.0545 10.623 33.054 10.6145 33.0536 10.6057C33.0528 10.5917 33.052 10.5771 33.0509 10.5647C33.0503 10.558 33.0498 10.5509 33.0492 10.5436C33.048 10.5288 33.0468 10.5131 33.045 10.4986V10.4871C32.9606 9.85322 32.4899 9.58057 31.7383 9.56909Z" fill="white"/>
    </g>
    <defs>
        <clipPath id="clip0_2698_2592">
            <rect width="66" height="14" fill="white" transform="translate(3 5)"/>
        </clipPath>
    </defs>
</svg>
