<svg width="73" height="24" viewBox="0 0 73 24" fill="none" xmlns="http://www.w3.org/2000/svg">
<g clip-path="url(#clip0_4092_1595)">
<g clip-path="url(#clip1_4092_1595)">
<path d="M5.72685 6H4.08691V15.6683H5.72685V6Z" fill="#6B0AEA"/>
<path fill-rule="evenodd" clip-rule="evenodd" d="M6.12402 18.0002L7.76269 16.999V8.62849C7.2769 8.27329 6.71722 8.02878 6.12402 7.9126V18.0002Z" fill="#6B0AEA"/>
<path fill-rule="evenodd" clip-rule="evenodd" d="M2.0459 17.0038L3.68584 18.0051V7.91748C3.09259 8.03191 2.53248 8.27471 2.0459 8.62837V17.0038Z" fill="#6B0AEA"/>
<path fill-rule="evenodd" clip-rule="evenodd" d="M8.16016 6.45947V16.8237L8.92174 16.3581C9.19444 16.1812 9.41752 15.9394 9.57038 15.655C9.72324 15.3707 9.80093 15.0529 9.79629 14.7311V9.83619C9.8001 8.42443 8.16016 6.45947 8.16016 6.45947Z" fill="#6B0AEA"/>
<path fill-rule="evenodd" clip-rule="evenodd" d="M0.0148755 14.7273C0.00987893 15.0492 0.0874226 15.3671 0.240311 15.6515C0.393199 15.936 0.616477 16.1777 0.889426 16.3543L1.65101 16.8199V6.45947C1.65101 6.45947 0.0148755 8.42443 0.0148755 9.83619V14.7273Z" fill="#6B0AEA"/>
<path fill-rule="evenodd" clip-rule="evenodd" d="M49.0965 15.7821V8.15761L50.2795 7.66699V15.7821H49.0965ZM47.2332 12.5881C47.2393 12.3824 47.2006 12.1778 47.1198 11.9881C47.0391 11.7983 46.918 11.6278 46.7648 11.488C46.4611 11.2152 46.0624 11.0681 45.6517 11.0775C45.2451 11.0664 44.8505 11.2139 44.5537 11.488C44.25 11.7786 44.0687 12.1715 44.046 12.5881H47.2332ZM45.6288 15.8735C44.797 15.8735 44.12 15.6098 43.5979 15.0825C43.0758 14.5552 42.8165 13.8556 42.8198 12.9836C42.8198 12.1125 43.0834 11.4146 43.6106 10.8898C44.1378 10.3649 44.8194 10.1034 45.6555 10.105C46.4924 10.105 47.1693 10.3554 47.6863 10.856C48.2034 11.3566 48.4636 12.0141 48.467 12.8284C48.4679 13.0116 48.4539 13.1945 48.4251 13.3754H44.0333C44.04 13.7938 44.2138 14.1927 44.5169 14.4855C44.8169 14.7611 45.2152 14.9086 45.625 14.896C46.2706 14.896 46.7251 14.6357 46.9882 14.1151H48.269C48.1016 14.6279 47.7708 15.0739 47.3259 15.3866C46.828 15.7247 46.2329 15.8954 45.6288 15.8735ZM38.1869 10.1964V11.0725C38.5677 10.4242 39.1782 10.1 40.0185 10.1C40.314 10.0904 40.6083 10.141 40.8831 10.2487C41.1578 10.3564 41.4071 10.5188 41.6153 10.7258C42.0384 11.143 42.2499 11.7271 42.2499 12.478V15.7821H41.0745V12.6595C41.0745 12.1589 40.9476 11.7755 40.6938 11.5093C40.5572 11.3731 40.3929 11.267 40.2118 11.198C40.0306 11.129 39.8367 11.0986 39.6428 11.1088C39.4467 11.0974 39.2503 11.127 39.0666 11.1956C38.8829 11.2642 38.7159 11.3702 38.5765 11.5068C38.3168 11.773 38.1869 12.1564 38.1869 12.657V15.7821H37.0001V10.1964H38.1869ZM34.794 15.7821V10.1964H35.9808V15.7821H34.794ZM33.9347 11.1388H32.5385V14.2302C32.5305 14.3117 32.5398 14.394 32.5658 14.4718C32.5918 14.5495 32.634 14.6211 32.6895 14.682C32.7898 14.7734 32.9612 14.8184 33.2049 14.8184H33.9334V15.7821H32.9967C31.8966 15.7821 31.3466 15.2648 31.3466 14.2302V9.29653L32.5435 8.80717V10.1964H33.9398L33.9347 11.1388ZM26.739 10.1964V11.0725C27.1164 10.4275 27.7282 10.105 28.5744 10.105C28.8701 10.0958 29.1645 10.1465 29.4394 10.2542C29.7143 10.3619 29.9638 10.5241 30.1725 10.7308C30.5956 11.148 30.8071 11.7321 30.8071 12.483V15.7821H29.6305V12.6595C29.6305 12.1589 29.5036 11.7755 29.2497 11.5093C29.1132 11.3731 28.9489 11.267 28.7677 11.198C28.5866 11.129 28.3927 11.0986 28.1987 11.1088C28.0018 11.0967 27.8045 11.126 27.6198 11.1946C27.4351 11.2632 27.2673 11.3696 27.1274 11.5068C26.8676 11.773 26.7373 12.1564 26.7365 12.657V15.7821H25.551V10.1964H26.739ZM23.6927 12.5881C23.6988 12.3824 23.6601 12.1778 23.5793 11.9881C23.4985 11.7983 23.3775 11.6278 23.2243 11.488C22.918 11.2127 22.5153 11.0655 22.101 11.0775C21.6944 11.0664 21.2999 11.2139 21.003 11.488C20.6988 11.7783 20.5174 12.1713 20.4953 12.5881H23.6927ZM22.0832 15.8735C21.2506 15.8735 20.5736 15.6098 20.0523 15.0825C19.5311 14.5552 19.2713 13.8556 19.273 12.9836C19.273 12.1125 19.5366 11.4146 20.0638 10.8898C20.5909 10.3649 21.2726 10.1034 22.1086 10.105C22.9447 10.105 23.6216 10.3554 24.1395 10.856C24.6574 11.3566 24.9176 12.0141 24.9201 12.8284C24.9211 13.0116 24.9071 13.1945 24.8782 13.3754H20.4864C20.4929 13.7941 20.6673 14.1932 20.9713 14.4855C21.271 14.7615 21.6695 14.9091 22.0794 14.896C22.7242 14.896 23.1786 14.6357 23.4426 14.1151H24.7221C24.5547 14.6279 24.224 15.0739 23.779 15.3866C23.2815 15.7245 22.6869 15.8952 22.0832 15.8735ZM16.1695 9.58814C15.8596 9.57443 15.5545 9.66734 15.3064 9.85097C15.1938 9.94397 15.105 10.0617 15.047 10.1948C14.989 10.3278 14.9635 10.4724 14.9726 10.6169C14.9659 10.7678 14.9994 10.9178 15.0698 11.052C15.1401 11.1862 15.2449 11.2998 15.3737 11.3816C15.665 11.5689 15.9898 11.6997 16.3307 11.7671C16.7048 11.8506 17.0792 11.9436 17.4541 12.0462C17.8217 12.1492 18.1522 12.3527 18.4073 12.6332C18.6696 12.9161 18.8012 13.3182 18.8021 13.8397C18.8029 14.3612 18.5774 14.8272 18.1255 15.2377C17.6745 15.6507 17.0712 15.8593 16.3155 15.8635C15.5598 15.8677 14.9459 15.6949 14.4737 15.3453C14.245 15.1834 14.0606 14.9681 13.937 14.7187C13.8133 14.4693 13.7544 14.1935 13.7655 13.9161H15.0348C15.0492 14.1994 15.1764 14.4657 15.3889 14.657C15.5971 14.8389 15.9026 14.9298 16.3053 14.9298C16.65 14.949 16.9895 14.8405 17.2573 14.6257C17.4525 14.4577 17.5752 14.2224 17.6002 13.9681C17.6252 13.7137 17.5507 13.4596 17.3919 13.2577C17.2415 13.0966 17.0519 12.9759 16.841 12.9073C16.5971 12.8248 16.3488 12.7554 16.0972 12.6995C15.8264 12.6395 15.5539 12.5685 15.2797 12.4868C15.0186 12.4111 14.7672 12.3057 14.5309 12.1726C14.2984 12.0378 14.1075 11.8431 13.9787 11.6094C13.8287 11.3309 13.7551 11.0185 13.7655 10.7033C13.7558 10.4207 13.8123 10.1397 13.9305 9.88208C14.0487 9.62446 14.2255 9.39713 14.4471 9.21768C14.9015 8.84221 15.4913 8.65448 16.2165 8.65448C16.9417 8.65448 17.5209 8.81259 17.9542 9.12882C18.3883 9.45339 18.6294 9.92315 18.6777 10.5381H17.3665C17.3423 10.2748 17.2153 10.0311 17.0123 9.85848C16.7757 9.66736 16.4749 9.57087 16.1695 9.58814Z" fill="#F5F5F5"/>
<path fill-rule="evenodd" clip-rule="evenodd" d="M67.6511 10.5143C67.2623 10.5094 66.8778 10.5951 66.529 10.7646C66.185 10.9356 65.8982 11.2006 65.7027 11.528C65.4803 11.9136 65.3672 12.3511 65.3752 12.7946H69.8267C69.8668 12.3548 69.7764 11.9131 69.5665 11.523C69.3814 11.193 69.0984 10.9266 68.7554 10.7596C68.4115 10.5946 68.0335 10.5106 67.6511 10.5143ZM67.6308 15.3591C68.1421 15.3762 68.6454 15.2296 69.0651 14.941C69.2547 14.8077 69.4151 14.638 69.5365 14.4421C69.658 14.2461 69.7382 14.0281 69.7721 13.8009H70.2608C70.1713 14.3596 69.8678 14.8631 69.4129 15.2076C68.9526 15.5631 68.3653 15.7408 67.6511 15.7408C67.1571 15.7501 66.6689 15.6342 66.2333 15.4041C65.8198 15.1805 65.4808 14.8436 65.2572 14.4342C65.0112 13.9715 64.8897 13.4544 64.9043 12.9323C64.8919 12.4163 65.0133 11.9058 65.2572 11.4492C65.4801 11.0405 65.8177 10.7038 66.2295 10.4792C66.6651 10.2492 67.1532 10.1333 67.6473 10.1425C68.1417 10.1301 68.6307 10.2462 69.0651 10.4792C69.4442 10.6852 69.7573 10.9917 69.9688 11.3641C70.1715 11.7217 70.2773 12.1247 70.276 12.5343C70.2747 12.7132 70.2573 12.8916 70.224 13.0675H65.3752C65.3668 13.5158 65.4799 13.9582 65.7027 14.3491C65.8954 14.6768 66.1808 14.9421 66.5239 15.1125C66.8684 15.2786 67.2474 15.363 67.6308 15.3591ZM61.8491 10.1025C62.5142 10.1025 63.0549 10.3036 63.4713 10.7058C63.8876 11.1079 64.0953 11.7007 64.0945 12.4842V15.6707H63.6274V12.508C63.6274 11.8522 63.4573 11.3503 63.1197 11.0061C62.782 10.6619 62.3162 10.488 61.7234 10.488C61.4507 10.4766 61.1787 10.5222 60.9251 10.6218C60.6716 10.7215 60.4423 10.8729 60.2523 11.0662C59.8817 11.4517 59.6964 12.0195 59.6964 12.7696V15.6707H59.2293V10.2126H59.6964V11.6507C59.8075 11.1814 60.091 10.7694 60.4922 10.4942C60.8932 10.2298 61.3668 10.093 61.8491 10.1025ZM54.8108 9.05869C54.2667 9.05104 53.7304 9.18671 53.2572 9.45168C52.7939 9.71438 52.4154 10.101 52.1656 10.5668C51.8893 11.088 51.7517 11.6698 51.7658 12.2577C51.7521 12.8448 51.8897 13.4256 52.1656 13.9461C52.4158 14.4116 52.7941 14.7982 53.2572 15.0612C53.7326 15.3182 54.2661 15.4529 54.8083 15.4529C55.3505 15.4529 55.8839 15.3182 56.3594 15.0612C56.8247 14.7995 57.205 14.4127 57.456 13.9461C57.7319 13.4256 57.8695 12.8448 57.8559 12.2577C57.8695 11.6706 57.7319 11.0897 57.456 10.5693C57.2054 10.1024 56.825 9.71553 56.3594 9.45419C55.8878 9.18954 55.3534 9.05306 54.8108 9.05869ZM54.8108 8.64693C55.4464 8.63734 56.0731 8.79549 56.6259 9.105C57.1583 9.40481 57.594 9.84692 57.8825 10.3803C58.1911 10.9586 58.3465 11.6044 58.3344 12.2577C58.3452 12.9085 58.1898 13.5515 57.8825 14.1275C57.593 14.6622 57.1578 15.1065 56.6259 15.4104C56.071 15.714 55.4468 15.8734 54.8121 15.8734C54.1774 15.8734 53.5532 15.714 52.9982 15.4104C52.4622 15.1066 52.0227 14.6615 51.7289 14.125C51.4201 13.5504 51.2646 12.9079 51.2771 12.2577C51.2645 11.6037 51.4218 10.9574 51.734 10.3803C52.0265 9.84432 52.4665 9.40054 53.0033 9.09999C53.5543 8.79341 54.1782 8.63703 54.8108 8.64693Z" fill="#F5F5F5"/>
<path d="M71.5366 10.9499L71.4097 10.7609H71.3056V10.9499H71.1787V10.3579H71.4529C71.595 10.3579 71.6801 10.4318 71.6801 10.5532C71.6819 10.5931 71.6705 10.6325 71.6476 10.6655C71.6247 10.6984 71.5916 10.7231 71.5531 10.7359L71.7004 10.9474L71.5366 10.9499ZM71.5366 10.5607C71.5366 10.5043 71.4973 10.4756 71.4326 10.4756H71.3056V10.6458H71.4389C71.5037 10.6458 71.5405 10.612 71.5405 10.5619L71.5366 10.5607Z" fill="#F5F5F5"/>
<path d="M71.4006 11.2765C71.2787 11.2768 71.1595 11.2413 71.0581 11.1747C70.9566 11.1081 70.8776 11.0133 70.8308 10.9024C70.784 10.7914 70.7717 10.6693 70.7955 10.5514C70.8192 10.4335 70.8778 10.3253 70.964 10.2403C71.0502 10.1553 71.16 10.0975 71.2795 10.0741C71.3991 10.0507 71.5229 10.0628 71.6355 10.1089C71.748 10.155 71.8442 10.233 71.9117 10.3331C71.9792 10.4331 72.0152 10.5506 72.0149 10.6708C72.0146 10.8313 71.9497 10.9852 71.8346 11.0987C71.7195 11.2123 71.5634 11.2762 71.4006 11.2765ZM71.4006 10.1964C71.3054 10.1964 71.2124 10.2242 71.1333 10.2764C71.0542 10.3285 70.9925 10.4026 70.9561 10.4892C70.9197 10.5759 70.9102 10.6713 70.9287 10.7633C70.9473 10.8553 70.9931 10.9398 71.0604 11.0062C71.1277 11.0725 71.2134 11.1177 71.3067 11.136C71.4 11.1543 71.4968 11.1449 71.5847 11.109C71.6726 11.0731 71.7477 11.0123 71.8006 10.9343C71.8534 10.8563 71.8816 10.7646 71.8816 10.6708C71.8816 10.545 71.831 10.4243 71.7407 10.3353C71.6505 10.2464 71.5282 10.1964 71.4006 10.1964Z" fill="#F5F5F5"/>
</g>
</g>
<defs>
<clipPath id="clip0_4092_1595">
<rect width="72" height="24" fill="white" transform="translate(0.0151367)"/>
</clipPath>
<clipPath id="clip1_4092_1595">
<rect width="72" height="12" fill="white" transform="translate(0.0151367 6)"/>
</clipPath>
</defs>
</svg>
