<svg width="72" height="24" viewBox="0 0 72 24" fill="none" xmlns="http://www.w3.org/2000/svg">
<g clip-path="url(#clip0_2805_1218)">
<path d="M64.4955 12.0674L63.7786 12.9631L60.7246 9.14893H62.16L64.4955 12.0674Z" fill="#49089E"/>
<path d="M64.4959 14.1574L62.1601 17.0759H60.7246L63.7786 13.2617L64.4959 14.1574Z" fill="#49089E"/>
<path d="M69.9998 17.0756H68.5643L66.2285 14.1571L66.9454 13.2598L69.9998 17.0756Z" fill="#49089E"/>
<path d="M66.0788 13.111L65.3619 14.0083L64.645 13.1126L65.3619 12.2183L66.0788 13.111Z" fill="#FF7B09"/>
<path d="M58.8713 6.89416L58.1544 7.79152L57.4375 6.89582L58.1544 6.00146L58.8713 6.89416Z" fill="#FF7B09"/>
<path d="M69.9994 9.14893L66.9454 12.9618L66.2285 12.0674L68.5643 9.14893H69.9994Z" fill="#49089E"/>
<path d="M2 16.4266L2.56605 15.5892C3.3901 16.1081 4.34597 16.3791 5.31974 16.37C6.7392 16.37 7.39183 16.1003 7.39183 14.9932C7.39183 14.1131 6.82577 13.9426 5.31974 13.645C3.50304 13.29 2.36727 12.979 2.36727 11.2889C2.36727 9.94032 3.16207 9.14585 5.31974 9.14585C6.3189 9.11442 7.30842 9.34954 8.18663 9.8271L7.67585 10.7071C6.95512 10.3248 6.14988 10.1295 5.33405 10.1394C3.85765 10.1394 3.43212 10.5793 3.43212 11.2892C3.43212 12.1549 3.99817 12.368 5.37667 12.6377C7.27861 13.021 8.42837 13.2764 8.42837 14.9512C8.42837 16.7396 7.43478 17.3073 5.26313 17.3073C4.11247 17.3411 2.9774 17.0348 2 16.4266Z" fill="#49089E"/>
<path d="M9.63574 13.2334C9.63574 10.9622 10.317 9.14551 13.3544 9.14551C16.5053 9.14551 16.6049 11.3172 16.5766 13.6023H10.672C10.7286 15.2489 11.2114 16.3843 13.397 16.3843C14.3079 16.4364 15.2065 16.1537 15.9236 15.5895L16.5056 16.341C15.6195 17.0278 14.5171 17.3753 13.3973 17.3207C10.2461 17.321 9.63574 15.5183 9.63574 13.2334ZM10.6863 12.6231H15.5557C15.4847 11.2319 15.3852 10.1108 13.3274 10.1108C11.3532 10.1108 10.7995 11.1184 10.6863 12.6231Z" fill="#49089E"/>
<path d="M17.9526 13.2334C17.9526 10.7494 18.7757 9.14551 21.7282 9.14551C23.1334 9.14551 23.9848 9.65629 24.5528 10.2666L23.772 11.0045C23.5074 10.7326 23.1889 10.5189 22.837 10.3772C22.4851 10.2354 22.1074 10.1688 21.7282 10.1814C19.6701 10.1814 19.0311 11.3028 19.0311 13.2614C19.0311 15.1926 19.6415 16.3414 21.7282 16.3414C22.1157 16.352 22.5013 16.2847 22.8622 16.1433C23.2231 16.0019 23.5519 15.7893 23.8289 15.5183L24.5528 16.1995C24.1795 16.571 23.7333 16.8612 23.2423 17.0518C22.7513 17.2423 22.2261 17.3291 21.6999 17.3067C18.7757 17.3067 17.9526 15.717 17.9526 13.2334Z" fill="#49089E"/>
<path d="M26.1846 13.9431V9.33008H27.2501V13.9714C27.2501 15.263 27.2501 16.3275 29.5353 16.3275C31.8061 16.3275 31.7779 15.262 31.7779 13.9144V9.33008H32.8284V13.9005C32.8284 16.0295 32.5587 17.3071 29.5356 17.3071C26.4969 17.3071 26.1846 16.0295 26.1846 13.9431Z" fill="#49089E"/>
<path d="M34.9419 9.38665L35.7936 9.33003L35.9072 10.3802C36.2069 9.77022 37.1705 9.24479 38.6182 9.23047V10.3093C36.702 10.3093 36.0211 11.4021 36.0211 12.9351V17.1639H34.9422L34.9419 9.38665Z" fill="#49089E"/>
<path d="M39.4126 13.2334C39.4126 10.5363 40.4781 9.14551 43.1882 9.14551C45.8982 9.14551 46.9777 10.5363 46.9777 13.2334C46.9777 15.9305 45.8989 17.3213 43.1882 17.3213C40.4775 17.3213 39.4126 15.9302 39.4126 13.2334ZM45.8849 13.2617C45.8849 11.2462 45.161 10.1674 43.1878 10.1674C41.2146 10.1674 40.4908 11.2462 40.4908 13.2617C40.4908 15.2632 41.2146 16.3417 43.1878 16.3417C45.161 16.3417 45.8846 15.2629 45.8846 13.2617H45.8849Z" fill="#49089E"/>
<path d="M48.75 9.38658L49.6017 9.32996L49.7016 10.1531C50.0423 9.61367 50.7945 9.14551 52.6112 9.14551C55.1377 9.14551 55.4358 10.4514 55.4358 12.3817V17.1651H54.3569V12.5661C54.3569 11.1753 54.2291 10.21 52.2988 10.21C50.2124 10.21 49.8292 11.2889 49.8292 12.7649V17.1651H48.75V9.38658Z" fill="#49089E"/>
<path d="M57.6221 9.33008H58.6876V17.1649H57.6221V9.33008Z" fill="#49089E"/>
</g>
<defs>
<clipPath id="clip0_2805_1218">
<rect width="68" height="11.3211" fill="white" transform="translate(2 6)"/>
</clipPath>
</defs>
</svg>
