<svg width="120" height="50" viewBox="0 0 120 50" fill="none" xmlns="http://www.w3.org/2000/svg">
<path d="M34.9618 25.9163V24.5653H39.4073C39.4527 24.8034 39.4792 25.0867 39.4792 25.3936C39.4792 26.4067 39.2066 27.6611 38.3293 28.5537C37.4757 29.4584 36.3851 29.9408 34.9387 29.9408C32.2595 29.9408 30.007 27.7215 30.007 24.9955C30.007 22.2695 32.2595 20.0502 34.9387 20.0502C36.4206 20.0502 37.4757 20.6413 38.27 21.4132L37.3335 22.3661C36.7644 21.8233 35.9938 21.4012 34.9387 21.4012C32.9826 21.4012 31.4532 23.0053 31.4532 24.9955C31.4532 26.9857 32.9826 28.59 34.9387 28.59C36.2073 28.59 36.9304 28.0713 37.3927 27.6009C37.7694 27.2177 38.0176 26.6679 38.1139 25.9163L34.9618 25.9163Z" fill="#5F6368"/>
<path d="M46.2535 26.7566C46.2535 28.5899 44.8428 29.9408 43.112 29.9408C41.3811 29.9408 39.9703 28.5899 39.9703 26.7566C39.9703 24.9111 41.381 23.5722 43.112 23.5722C44.8429 23.5722 46.2535 24.9111 46.2535 26.7566ZM44.8783 26.7566C44.8783 25.6106 44.0603 24.8266 43.112 24.8266C42.1636 24.8266 41.3455 25.6106 41.3455 26.7566C41.3455 27.8903 42.1635 28.6864 43.112 28.6864C44.0604 28.6864 44.8783 27.8903 44.8783 26.7566Z" fill="#5F6368"/>
<path d="M53.107 26.7566C53.107 28.5899 51.6963 29.9408 49.9654 29.9408C48.2346 29.9408 46.8238 28.5899 46.8238 26.7566C46.8238 24.9111 48.2345 23.5722 49.9654 23.5722C51.6964 23.5722 53.107 24.9111 53.107 26.7566ZM51.7318 26.7566C51.7318 25.6106 50.9138 24.8266 49.9654 24.8266C49.0171 24.8266 48.199 25.6106 48.199 26.7566C48.199 27.8903 49.017 28.6864 49.9654 28.6864C50.9139 28.6864 51.7318 27.8903 51.7318 26.7566Z" fill="#5F6368"/>
<path d="M59.676 23.7652V29.4825C59.676 31.8346 58.3127 32.7995 56.7003 32.7995C55.1829 32.7995 54.27 31.7622 53.9262 30.9179L55.1236 30.4112C55.337 30.9299 55.8586 31.5451 56.7003 31.5451C57.7318 31.5451 58.3719 30.8937 58.3719 29.6755V29.2172H58.3245C58.0163 29.6031 57.4235 29.9408 56.6766 29.9408C55.1117 29.9408 53.6772 28.5537 53.6772 26.7686C53.6772 24.9714 55.1117 23.5723 56.6766 23.5723C57.4235 23.5723 58.0163 23.91 58.3245 24.2839H58.3719V23.7652H59.676ZM58.4668 26.7686C58.4668 25.6468 57.7318 24.8267 56.7952 24.8267C55.8467 24.8267 55.0525 25.6468 55.0525 26.7686C55.0525 27.8783 55.8467 28.6864 56.7952 28.6864C57.7318 28.6864 58.4668 27.8783 58.4668 26.7686Z" fill="#5F6368"/>
<path d="M62.0053 20.4193V29.7479H60.6301V20.4193H62.0053Z" fill="#5F6368"/>
<path d="M67.3158 27.8059L68.3828 28.5296C68.0389 29.0482 67.2091 29.9408 65.7746 29.9408C63.9963 29.9408 62.6685 28.5416 62.6685 26.7566C62.6685 24.8628 64.0082 23.5722 65.6205 23.5722C67.2446 23.5722 68.0389 24.887 68.2998 25.5986L68.442 25.9604L64.2571 27.7215C64.5773 28.3607 65.0751 28.6864 65.7746 28.6864C66.474 28.6864 66.9601 28.3366 67.3158 27.8059ZM64.0319 26.66L66.8297 25.478C66.6756 25.08 66.2132 24.8026 65.6679 24.8026C64.9684 24.8026 63.9963 25.4298 64.0319 26.6601L64.0319 26.66Z" fill="#5F6368"/>
<path d="M11.3147 29.0404C9.98504 27.7582 9.31086 26.3964 9.31086 24.9929V18.3333H21.1084L21.6309 17.6816L21.1084 17H8.49158C8.22016 17.0001 8 17.2239 8 17.5V24.9929C8 26.7768 8.81179 28.4641 10.4128 30.008C11.987 31.526 13.9317 32.4824 14.9508 32.928L15.0155 32.9563C15.0768 32.9831 15.1443 32.9997 15.2096 33C15.2764 33.0003 15.3411 32.9837 15.4038 32.9563L15.4685 32.928C15.8327 32.7687 16.3155 32.5438 16.857 32.2517C16.6179 31.9623 16.3999 31.6483 16.3999 31.6483C16.3999 31.6483 15.2111 31.6056 15.2096 31.6049C14.2262 31.1538 12.6193 30.2984 11.3147 29.0404Z" fill="#2B82FB"/>
<path d="M21.9277 17H21.1084V24.9929C21.1084 26.3964 20.4343 27.7582 19.1046 29.0404C17.8 30.2984 16.1931 31.1538 15.2097 31.6049C15.2119 31.6059 15.9496 31.8854 16.8571 32.2517C17.8307 31.7266 18.9949 30.9834 20.0065 30.008C21.6075 28.464 22.4193 26.7767 22.4193 24.9929V17.5C22.4193 17.2238 22.1993 16.9999 21.9277 17Z" fill="#00AB47"/>
<path d="M13.8129 28.5749L14.8834 28.5078L15.2096 27.8309C14.5576 27.5129 13.9437 27.1089 13.4952 26.6623C12.8932 26.0629 12.5879 25.4474 12.5879 24.8328V21.6669L12.9944 20.998L12.5879 20.3335H11.7687C11.4972 20.3336 11.2771 20.5575 11.2771 20.8336V24.8328C11.2771 26.4301 12.449 27.7191 13.8129 28.5749H13.8129Z" fill="#FFBA00"/>
<path d="M17.8313 21.6667V24.8306C17.8313 25.4454 17.526 26.0613 16.9239 26.6613C16.4751 27.1085 15.8613 27.5128 15.2096 27.8307L13.8129 28.5747C14.1846 28.8079 14.5704 29.009 14.9508 29.1753L15.0155 29.2036C15.0777 29.2308 15.1433 29.2501 15.2096 29.25C15.2755 29.2499 15.342 29.2306 15.4038 29.2036L15.4685 29.1753C15.9909 28.9469 16.9939 28.4581 17.8413 27.6137C18.6923 26.7656 19.1422 25.8033 19.1422 24.8306V20.8333C19.1422 20.5571 18.9221 20.3332 18.6506 20.3333H12.5879V21.6666H17.8313L17.8313 21.6667Z" fill="#FD2C25"/>
<path d="M110.616 29.8563C110.168 29.8563 109.77 29.7842 109.424 29.6402C109.086 29.4881 108.803 29.2881 108.574 29.04C108.354 28.7839 108.189 28.5078 108.079 28.2117L108.976 27.8036C109.133 28.1717 109.361 28.4558 109.66 28.6559C109.959 28.8559 110.301 28.956 110.687 28.956C111.057 28.956 111.364 28.8799 111.607 28.7279C111.859 28.5758 111.985 28.3518 111.985 28.0557C111.985 27.8716 111.934 27.7196 111.832 27.5995C111.729 27.4715 111.58 27.3634 111.383 27.2754C111.187 27.1874 110.947 27.1074 110.663 27.0353L109.932 26.8433C109.648 26.7633 109.381 26.6512 109.129 26.5072C108.877 26.3631 108.673 26.1791 108.515 25.955C108.366 25.7229 108.291 25.4428 108.291 25.1147C108.291 24.7466 108.397 24.4305 108.61 24.1664C108.822 23.9023 109.102 23.7022 109.448 23.5662C109.794 23.4222 110.164 23.3501 110.557 23.3501C110.903 23.3501 111.226 23.4021 111.525 23.5062C111.832 23.6022 112.099 23.7503 112.327 23.9503C112.555 24.1424 112.729 24.3825 112.847 24.6706L111.973 25.0787C111.824 24.7746 111.623 24.5625 111.371 24.4425C111.12 24.3224 110.84 24.2624 110.533 24.2624C110.203 24.2624 109.916 24.3385 109.672 24.4905C109.428 24.6346 109.306 24.8346 109.306 25.0907C109.306 25.3468 109.404 25.5388 109.601 25.6669C109.806 25.7949 110.054 25.899 110.345 25.979L111.218 26.2071C111.808 26.3591 112.253 26.5872 112.552 26.8913C112.851 27.1874 113 27.5515 113 27.9837C113 28.3678 112.894 28.6999 112.681 28.98C112.469 29.2601 112.182 29.4761 111.82 29.6282C111.458 29.7802 111.057 29.8563 110.616 29.8563Z" fill="#5F6368"/>
<path d="M101.419 32.2571V23.5422H102.375V24.4545H102.422C102.532 24.2624 102.686 24.0824 102.882 23.9143C103.087 23.7463 103.323 23.6102 103.59 23.5062C103.858 23.4021 104.153 23.3501 104.475 23.3501C105.026 23.3501 105.518 23.4902 105.951 23.7703C106.383 24.0504 106.726 24.4345 106.977 24.9226C107.229 25.4108 107.355 25.971 107.355 26.6032C107.355 27.2354 107.229 27.7956 106.977 28.2838C106.726 28.7719 106.383 29.156 105.951 29.4361C105.518 29.7162 105.026 29.8563 104.475 29.8563C103.996 29.8563 103.575 29.7442 103.213 29.5202C102.851 29.2961 102.587 29.044 102.422 28.7639H102.375L102.422 29.6042V32.2571H101.419ZM104.369 28.932C104.715 28.932 105.038 28.8399 105.337 28.6559C105.644 28.4638 105.888 28.1917 106.069 27.8396C106.257 27.4875 106.352 27.0754 106.352 26.6032C106.352 26.123 106.257 25.7109 106.069 25.3668C105.888 25.0147 105.644 24.7466 105.337 24.5625C105.038 24.3705 104.715 24.2744 104.369 24.2744C104.023 24.2744 103.697 24.3705 103.39 24.5625C103.091 24.7466 102.847 25.0147 102.658 25.3668C102.469 25.7109 102.375 26.123 102.375 26.6032C102.375 27.0834 102.469 27.4995 102.658 27.8516C102.847 28.1957 103.091 28.4638 103.39 28.6559C103.697 28.8399 104.023 28.932 104.369 28.932Z" fill="#5F6368"/>
<path d="M96.1229 29.8563C95.5014 29.8563 94.927 29.7402 94.3999 29.5082C93.8728 29.2761 93.4125 28.956 93.0191 28.5478C92.6336 28.1317 92.3307 27.6556 92.1104 27.1194C91.898 26.5752 91.7918 25.991 91.7918 25.3668C91.7918 24.7426 91.898 24.1624 92.1104 23.6262C92.3307 23.082 92.6336 22.6059 93.0191 22.1978C93.4125 21.7816 93.8728 21.4575 94.3999 21.2254C94.927 20.9934 95.5014 20.8773 96.1229 20.8773C96.7445 20.8773 97.3188 20.9934 97.8459 21.2254C98.3731 21.4575 98.8294 21.7816 99.2149 22.1978C99.6083 22.6059 99.9112 23.082 100.124 23.6262C100.344 24.1624 100.454 24.7426 100.454 25.3668C100.454 25.991 100.344 26.5752 100.124 27.1194C99.9112 27.6556 99.6083 28.1317 99.2149 28.5478C98.8294 28.956 98.3731 29.2761 97.8459 29.5082C97.3188 29.7402 96.7445 29.8563 96.1229 29.8563ZM96.1229 28.884C96.7366 28.884 97.2913 28.7359 97.7869 28.4398C98.2905 28.1437 98.6917 27.7316 98.9907 27.2034C99.2897 26.6672 99.4391 26.055 99.4391 25.3668C99.4391 24.6706 99.2897 24.0584 98.9907 23.5302C98.6917 23.002 98.2905 22.5899 97.7869 22.2938C97.2913 21.9977 96.7366 21.8496 96.1229 21.8496C95.5171 21.8496 94.9624 21.9977 94.4589 22.2938C93.9554 22.5899 93.5541 23.002 93.2552 23.5302C92.9562 24.0584 92.8067 24.6706 92.8067 25.3668C92.8067 26.055 92.9562 26.6672 93.2552 27.2034C93.5541 27.7316 93.9554 28.1437 94.4589 28.4398C94.9624 28.7359 95.5171 28.884 96.1229 28.884Z" fill="#5F6368"/>
<path d="M88.1841 29.8563C87.5941 29.8563 87.0669 29.7162 86.6027 29.4361C86.1464 29.148 85.7884 28.7599 85.5288 28.2717C85.2692 27.7756 85.1394 27.2194 85.1394 26.6032C85.1394 25.979 85.2692 25.4228 85.5288 24.9346C85.7884 24.4465 86.1464 24.0624 86.6027 23.7823C87.0669 23.4942 87.5941 23.3501 88.1841 23.3501C88.8608 23.3501 89.4154 23.5102 89.8481 23.8303C90.2887 24.1424 90.5995 24.5465 90.7805 25.0427L89.8717 25.4268C89.7223 25.0507 89.498 24.7666 89.1991 24.5745C88.908 24.3745 88.5539 24.2744 88.1369 24.2744C87.7829 24.2744 87.4524 24.3705 87.1456 24.5625C86.8466 24.7546 86.6027 25.0267 86.4139 25.3788C86.2251 25.7229 86.1307 26.131 86.1307 26.6032C86.1307 27.0674 86.2251 27.4755 86.4139 27.8276C86.6027 28.1797 86.8466 28.4518 87.1456 28.6439C87.4524 28.8359 87.7829 28.932 88.1369 28.932C88.5618 28.932 88.9276 28.8319 89.2345 28.6319C89.5413 28.4318 89.7695 28.1477 89.9189 27.7796L90.8159 28.1637C90.6192 28.6359 90.3005 29.036 89.8599 29.3641C89.4194 29.6922 88.8608 29.8563 88.1841 29.8563Z" fill="#5F6368"/>
<path d="M81.448 29.8563C80.8658 29.8563 80.3465 29.7162 79.8902 29.4361C79.4418 29.156 79.0877 28.7719 78.8281 28.2838C78.5763 27.7956 78.4504 27.2394 78.4504 26.6152C78.4504 26.031 78.5685 25.4908 78.8045 24.9947C79.0484 24.4985 79.3867 24.1024 79.8194 23.8063C80.26 23.5022 80.7753 23.3501 81.3654 23.3501C81.9633 23.3501 82.4747 23.4862 82.8996 23.7583C83.3323 24.0223 83.6628 24.3905 83.8909 24.8626C84.1269 25.3348 84.245 25.875 84.245 26.4832C84.245 26.5392 84.241 26.5952 84.2332 26.6512C84.2332 26.7072 84.2292 26.7552 84.2214 26.7953H79.4536C79.4772 27.2354 79.5755 27.6075 79.7486 27.9116C79.9453 28.2557 80.1971 28.5118 80.5039 28.6799C80.8186 28.8479 81.1451 28.932 81.4834 28.932C81.924 28.932 82.2859 28.8279 82.5692 28.6199C82.8603 28.4038 83.0924 28.1397 83.2654 27.8276L84.1151 28.2477C83.8791 28.7119 83.5408 29.096 83.1002 29.4001C82.6596 29.7042 82.1089 29.8563 81.448 29.8563ZM79.5126 25.955H83.1828C83.175 25.7869 83.1356 25.6069 83.0648 25.4148C83.0019 25.2147 82.8957 25.0307 82.7462 24.8626C82.6046 24.6866 82.4197 24.5465 82.1915 24.4425C81.9712 24.3305 81.6958 24.2744 81.3654 24.2744C80.972 24.2744 80.6298 24.3785 80.3387 24.5865C80.0554 24.7866 79.8391 25.0627 79.6896 25.4148C79.6109 25.5829 79.5519 25.7629 79.5126 25.955Z" fill="#5F6368"/>
<path d="M74.9421 29.8563C74.533 29.8563 74.1278 29.7682 73.7266 29.5922C73.3253 29.4161 72.9713 29.156 72.6644 28.8119C72.3576 28.4678 72.1334 28.0397 71.9917 27.5275L72.9477 27.1314C73.0814 27.6275 73.3253 28.0437 73.6794 28.3798C74.0334 28.7159 74.4622 28.884 74.9657 28.884C75.2804 28.884 75.5676 28.8279 75.8272 28.7159C76.0947 28.5959 76.3072 28.4238 76.4645 28.1997C76.6297 27.9757 76.7123 27.7036 76.7123 27.3835C76.7123 27.0954 76.6415 26.8513 76.4999 26.6512C76.3662 26.4512 76.1616 26.2751 75.8862 26.123C75.6109 25.963 75.2726 25.8109 74.8713 25.6669L74.3402 25.4748C74.1042 25.3868 73.8642 25.2828 73.6203 25.1627C73.3843 25.0347 73.164 24.8826 72.9595 24.7066C72.7628 24.5225 72.6054 24.3065 72.4874 24.0584C72.3694 23.8023 72.3104 23.5022 72.3104 23.1581C72.3104 22.7419 72.4205 22.3618 72.6408 22.0177C72.8611 21.6736 73.164 21.3975 73.5495 21.1894C73.9351 20.9814 74.3796 20.8773 74.8831 20.8773C75.4102 20.8773 75.8508 20.9774 76.2049 21.1774C76.5668 21.3695 76.85 21.6016 77.0546 21.8737C77.267 22.1377 77.4086 22.3818 77.4794 22.6059L76.5471 23.014C76.4999 22.846 76.4094 22.6739 76.2757 22.4979C76.1419 22.3138 75.961 22.1617 75.7328 22.0417C75.5125 21.9137 75.2332 21.8496 74.8949 21.8496C74.6195 21.8496 74.3599 21.9057 74.116 22.0177C73.88 22.1297 73.6872 22.2858 73.5377 22.4859C73.3961 22.6779 73.3253 22.902 73.3253 23.1581C73.3253 23.5182 73.4669 23.8023 73.7502 24.0104C74.0334 24.2184 74.415 24.4065 74.8949 24.5745L75.4496 24.7666C75.7013 24.8546 75.957 24.9627 76.2167 25.0907C76.4842 25.2188 76.732 25.3828 76.9602 25.5829C77.1883 25.7829 77.3732 26.031 77.5148 26.3271C77.6565 26.6152 77.7273 26.9633 77.7273 27.3715C77.7273 27.8116 77.6407 28.1917 77.4676 28.5118C77.3024 28.8239 77.0821 29.08 76.8067 29.2801C76.5314 29.4802 76.2285 29.6242 75.898 29.7122C75.5755 29.8083 75.2568 29.8563 74.9421 29.8563Z" fill="#5F6368"/>
</svg>
