<?xml version="1.0" encoding="UTF-8"?>
<svg id="standard_product_icon" xmlns="http://www.w3.org/2000/svg" version="1.1" viewBox="0 0 512 512">
  <!-- Generator: Adobe Illustrator 29.1.0, SVG Export Plug-In . SVG Version: 2.1.0 Build 142)  -->
  <defs>
    <style>
      .st0 {
        fill: none;
      }

      .st1 {
        fill: #4285f4;
      }

      .st2 {
        fill: #34a853;
      }

      .st3 {
        fill: #fbbc04;
      }

      .st4 {
        fill: #ea4335;
      }
    </style>
  </defs>
  <g id="bounding_box">
    <rect class="st0" width="512" height="512"/>
  </g>
  <g id="art">
    <path class="st1" d="M256,458c-1.9,0-3.8-.3-5.6-1-1.8-.7-45.2-17.1-89.1-49.6-26.2-19.4-47.1-40.6-62.2-63-19.5-28.8-29.3-59.5-29.3-91.3V86c0-17.6,14.4-32,32-32h308.4c8.5,0,16.6,3.3,22.6,9.4,6,6,9.4,14.1,9.4,22.6v167.1c0,31.8-9.9,62.5-29.4,91.3-15.1,22.4-36.1,43.5-62.2,63-42.6,31.6-86.8,49.1-90.5,50.1-1.4.4-2.8.5-4.1.5h0ZM101.8,86v167.1c0,100.4,125.9,159.6,154.2,171.6,28.3-12,154.2-71.2,154.2-171.7V86s-308.4,0-308.4,0h0Z"/>
    <path class="st3" d="M256.1,362.7c-1.9,0-3.7-.3-5.5-1-3.9-1.4-96.2-35.9-96.2-107.6v-83.7c0-17.6,14.4-32,32-32h139.3c8.5,0,16.6,3.3,22.6,9.4,6,6.1,9.4,14.1,9.4,22.6v83.7c0,30.4-17.1,58.9-49.5,82.3-9.6,7-20.4,13.3-31.8,18.9-15.4,7.4-18.1,7.4-20.4,7.4h0ZM186.4,170.4v83.7c0,19.9,12,38.7,35.6,55.9,13.2,9.6,26.7,16.2,34,19.4,7.3-3.2,20.8-9.7,34.1-19.4,23.6-17.2,35.6-36,35.6-55.9v-83.7h-139.3Z"/>
    <path class="st2" d="M260.2,457.5l-4.1-15.5-5.6-15c1.6-.6,159.8-61.4,159.8-173.9V54h0c17.7,0,32,14.3,32,32v167.1c0,31.8-9.9,62.6-29.4,91.3-15.1,22.4-36.1,43.5-62.2,63-42.6,31.6-86.8,49.1-90.5,50.1h0Z"/>
    <path class="st1" d="M250.4,457c-2.5-1-45.5-17.4-89-49.6-26.2-19.4-47.1-40.6-62.2-63-19.5-28.8-29.3-59.5-29.3-91.3s7.2-16,16-16,16,7.2,16,16c0,112.6,158.3,173.4,159.9,174,0,0,0,0,.1,0l35.5,13.6s-15.8,8.3-29.9,14.1c-2.1.9-4.4,1.8-7.1,2.7-4,1.3-9.8-.5-9.8-.5h0Z"/>
    <path class="st4" d="M215.3,344l35.4-12.4c2.6-1,75.1-28.8,75.1-77.5v-83.7h-139.3v-32h139.3c8.5,0,16.6,3.3,22.6,9.4,6,6.1,9.4,14.1,9.4,22.6v83.7c0,30.5-17.1,58.9-49.5,82.3-9.6,7-20.3,13.3-31.8,18.9-7.6,3.7-12.2,5.6-15.1,6.5,0,0-1.5.5-2.2.6-.4,0-2,.5-4.9.2-3.2-.4-5.9-1.7-8.4-2.7s-6.1-2.7-9.3-4.2c-10.6-4.9-21.3-11.6-21.3-11.6h0Z"/>
  </g>
</svg>