<svg width="72" height="24" viewBox="0 0 72 24" fill="none" xmlns="http://www.w3.org/2000/svg">
<g clip-path="url(#clip0_2892_1483)">
<path d="M51.4513 10.2002H51.2891C51.2546 10.2021 51.222 10.2167 51.1976 10.2411C51.1731 10.2656 51.1586 10.2982 51.1566 10.3327V13.59C51.1589 13.6455 51.1492 13.7008 51.1281 13.7522C51.1071 13.8036 51.0752 13.8498 51.0347 13.8878C50.9941 13.9257 50.9459 13.9545 50.8932 13.9722C50.8406 13.9898 50.7847 13.9959 50.7295 13.99C50.6739 13.9889 50.6191 13.9761 50.5688 13.9523C50.5185 13.9286 50.4738 13.8944 50.4376 13.8522L47.3749 10.4867C47.2975 10.4002 47.2024 10.3313 47.0961 10.2846C46.9898 10.238 46.8747 10.2147 46.7586 10.2164C46.5219 10.2263 46.2988 10.3293 46.1378 10.5029C45.9767 10.6766 45.8909 10.9069 45.899 11.1436V14.2847C45.9016 14.3196 45.9173 14.3523 45.9428 14.3763C45.9683 14.4003 46.0018 14.4139 46.0368 14.4144H46.199C46.2335 14.4125 46.2661 14.3979 46.2905 14.3735C46.3149 14.3491 46.3295 14.3165 46.3315 14.282V11.1328C46.3225 11.0097 46.3622 10.888 46.4421 10.794C46.522 10.6999 46.6356 10.641 46.7586 10.63C46.8142 10.6311 46.869 10.644 46.9193 10.6677C46.9696 10.6915 47.0143 10.7256 47.0505 10.7679L50.1159 14.1333C50.1933 14.2199 50.2884 14.2888 50.3947 14.3354C50.501 14.3821 50.6161 14.4053 50.7322 14.4036C50.8427 14.4103 50.9535 14.3942 51.0575 14.3564C51.1616 14.3187 51.2568 14.26 51.3374 14.184C51.4179 14.108 51.482 14.0164 51.5258 13.9147C51.5696 13.813 51.592 13.7034 51.5918 13.5927V10.3299C51.5886 10.2953 51.5728 10.2629 51.5474 10.2391C51.522 10.2152 51.4888 10.2014 51.454 10.2002" fill="black"/>
<path d="M21.5784 13.9876H17.6048C17.4818 13.9766 17.3682 13.9177 17.2883 13.8237C17.2084 13.7296 17.1687 13.6079 17.1777 13.4848V11.1114C17.1803 10.985 17.2272 10.8636 17.3101 10.7681C17.3462 10.7257 17.3909 10.6915 17.4412 10.6678C17.4916 10.644 17.5464 10.6312 17.6021 10.6303H21.5784C21.6148 10.6303 21.6497 10.6162 21.676 10.591C21.7022 10.5658 21.7176 10.5315 21.719 10.4951V10.3383C21.7157 10.3032 21.6995 10.2705 21.6735 10.2466C21.6476 10.2226 21.6137 10.2091 21.5784 10.2086H17.5994C17.4833 10.2069 17.3682 10.2302 17.2618 10.2768C17.1555 10.3234 17.0604 10.3923 16.983 10.4789C16.8366 10.6464 16.7526 10.8594 16.7451 11.0817V13.4713C16.7371 13.708 16.8229 13.9383 16.984 14.112C17.145 14.2857 17.3681 14.3887 17.6048 14.3985H21.5784C21.6148 14.3985 21.6497 14.3845 21.676 14.3593C21.7022 14.3341 21.7176 14.2997 21.719 14.2633V14.1039C21.7163 14.0685 21.7003 14.0354 21.6742 14.0114C21.6481 13.9873 21.6139 13.974 21.5784 13.9741" fill="black"/>
<path d="M35.9082 13.9873H31.9345C31.8116 13.9763 31.6979 13.9174 31.618 13.8233C31.5381 13.7293 31.4984 13.6076 31.5074 13.4845V10.3434C31.5067 10.3071 31.492 10.2724 31.4663 10.2467C31.4406 10.221 31.4059 10.2063 31.3695 10.2056H31.2209C31.1855 10.2076 31.1522 10.2229 31.1276 10.2485C31.103 10.2741 31.089 10.308 31.0884 10.3434V13.4818C31.0804 13.7185 31.1662 13.9488 31.3272 14.1225C31.4882 14.2962 31.7114 14.3992 31.948 14.409H35.9244C35.9608 14.409 35.9957 14.395 36.0219 14.3698C36.0481 14.3446 36.0636 14.3102 36.065 14.2738V14.1144C36.0616 14.0792 36.0454 14.0465 36.0195 14.0226C35.9936 13.9986 35.9597 13.9851 35.9244 13.9846" fill="black"/>
<path d="M58.5525 13.9876H54.5762C54.4533 13.9766 54.3396 13.9177 54.2597 13.8236C54.1798 13.7296 54.1401 13.6079 54.1491 13.4848V11.1114C54.1517 10.985 54.1986 10.8635 54.2815 10.7681C54.3176 10.7257 54.3623 10.6915 54.4126 10.6677C54.463 10.6439 54.5178 10.6312 54.5735 10.6302H58.5525C58.5889 10.6303 58.6239 10.6162 58.6501 10.591C58.6763 10.5658 58.6917 10.5314 58.6931 10.4951V10.3437C58.6904 10.3083 58.6744 10.2753 58.6483 10.2512C58.6222 10.2272 58.588 10.2138 58.5525 10.214H54.5735C54.4574 10.2123 54.3423 10.2355 54.2359 10.2822C54.1296 10.3288 54.0345 10.3977 53.9572 10.4843C53.8107 10.6518 53.7267 10.8647 53.7193 11.0871V13.4767C53.7112 13.7134 53.7971 13.9437 53.9581 14.1174C54.1191 14.291 54.3422 14.394 54.5789 14.4039H58.5552C58.5916 14.4039 58.6266 14.3898 58.6528 14.3646C58.679 14.3394 58.6944 14.305 58.6958 14.2687V14.1092C58.6931 14.0739 58.6771 14.0408 58.651 14.0168C58.6249 13.9927 58.5907 13.9794 58.5552 13.9795" fill="black"/>
<path d="M64.1754 12.0981H62.0128C61.9779 12.1001 61.9449 12.1151 61.9204 12.1401C61.896 12.1651 61.8817 12.1983 61.8804 12.2333V12.3928C61.8836 12.427 61.899 12.459 61.9238 12.4828C61.9486 12.5066 61.9812 12.5207 62.0155 12.5225H64.1781C64.2135 12.5212 64.2471 12.5065 64.2722 12.4815C64.2972 12.4564 64.3119 12.4228 64.3132 12.3874V12.2279C64.3105 12.193 64.2949 12.1603 64.2694 12.1363C64.2439 12.1123 64.2104 12.0987 64.1754 12.0981Z" fill="black"/>
<path d="M65.7942 14.1174C65.7915 14.082 65.7755 14.049 65.7494 14.0249C65.7233 14.0008 65.6891 13.9875 65.6536 13.9876H61.68C61.557 13.9766 61.4434 13.9177 61.3635 13.8237C61.2836 13.7296 61.2438 13.6079 61.2529 13.4848V11.1114C61.2555 10.985 61.3024 10.8636 61.3853 10.7681C61.4214 10.7257 61.4661 10.6915 61.5164 10.6678C61.5668 10.644 61.6216 10.6312 61.6772 10.6303H65.659C65.6954 10.6303 65.7303 10.6162 65.7566 10.591C65.7828 10.5658 65.7982 10.5315 65.7996 10.4951V10.3383C65.7969 10.303 65.7809 10.2699 65.7548 10.2459C65.7287 10.2218 65.6945 10.2085 65.659 10.2086H61.6745C61.5585 10.2069 61.4433 10.2302 61.337 10.2768C61.2307 10.3234 61.1356 10.3923 61.0582 10.4789C60.9118 10.6464 60.8278 10.8594 60.8203 11.0817V13.4713C60.8123 13.708 60.8981 13.9383 61.0592 14.112C61.2202 14.2857 61.4433 14.3887 61.68 14.3985H65.6563C65.6927 14.3985 65.7276 14.3845 65.7539 14.3593C65.7801 14.3341 65.7955 14.2997 65.7969 14.2633L65.7942 14.1174Z" fill="black"/>
<path d="M26.5335 12.182L24.1925 10.2357C24.161 10.2154 24.1234 10.2064 24.086 10.2104C24.0487 10.2143 24.0138 10.2309 23.9871 10.2573L23.879 10.3817C23.8676 10.3956 23.8592 10.4117 23.8544 10.429C23.8496 10.4463 23.8484 10.4645 23.8509 10.4822C23.8535 10.5 23.8597 10.5171 23.8691 10.5324C23.8786 10.5476 23.8912 10.5608 23.906 10.5709L26.1604 12.4631V14.2878C26.1625 14.3251 26.1788 14.3602 26.206 14.3858C26.2331 14.4114 26.2691 14.4257 26.3064 14.4256H26.4848C26.5217 14.425 26.557 14.4105 26.5836 14.3849C26.6101 14.3593 26.6261 14.3246 26.6281 14.2878V12.3469C26.6278 12.3139 26.6195 12.2814 26.604 12.2522C26.5885 12.223 26.5661 12.198 26.5389 12.1793" fill="black"/>
<path d="M11.3605 8.67041L9.80619 8.29466V11.033C9.7917 11.3012 9.69759 11.5591 9.53587 11.7736L8.99524 12.4224L8.80331 12.1872L9.26826 11.6169C9.39654 11.4465 9.47344 11.2429 9.48992 11.0303V8.21898L8.66004 8.01624C8.6058 8.00508 8.55053 7.99964 8.49515 8.00002C8.43877 8.00036 8.38259 8.00671 8.32755 8.01894L7.5166 8.21627V10.9194C7.53198 11.1151 7.60225 11.3025 7.71934 11.4601L9.74942 13.9173C9.927 14.1437 10.0308 14.4192 10.0468 14.7066V15.7635L11.6362 14.7174C11.7442 14.6495 11.8333 14.5554 11.8952 14.4439C11.9572 14.3324 11.9899 14.207 11.9904 14.0795V9.41648C11.989 9.23899 11.9259 9.0675 11.812 8.93139C11.6981 8.79528 11.5404 8.70301 11.3659 8.67041" fill="#69CF3B"/>
<path d="M9.27102 14.1553L7.24093 11.6981C7.06335 11.4716 6.95956 11.1961 6.94358 10.9088V8.35156L5.62443 8.67054C5.44996 8.70315 5.29225 8.79541 5.17833 8.93152C5.06441 9.06763 5.00137 9.23912 5 9.41661V14.0661C5.00048 14.1936 5.0332 14.319 5.09511 14.4305C5.15702 14.5421 5.24611 14.6361 5.35412 14.704L6.9571 15.761V14.6797C6.97159 14.4114 7.0657 14.1536 7.22742 13.939L7.94105 13.074L8.13298 13.3065L7.49773 14.1093C7.34635 14.2931 7.27607 14.631 7.27607 15.1717V15.9826L8.04377 16.4881C8.17461 16.5794 8.33026 16.6285 8.4898 16.6287C8.64934 16.6285 8.80499 16.5794 8.93582 16.4881L9.47646 16.1367V14.704C9.46108 14.5083 9.39081 14.3209 9.27372 14.1634" fill="#69CF3B"/>
<path d="M28.9368 10.1437C28.913 10.1173 28.8803 10.1006 28.8449 10.0966C28.8096 10.0926 28.774 10.1017 28.7449 10.1221L26.8797 11.6629C26.853 11.686 26.836 11.7182 26.832 11.7533C26.828 11.7883 26.8373 11.8236 26.8581 11.8521L26.9797 11.9819C26.9933 11.9971 27.01 12.0093 27.0286 12.0177C27.0472 12.0261 27.0674 12.0304 27.0879 12.0305C27.1179 12.0302 27.1471 12.0208 27.1716 12.0035L29.0125 10.46C29.04 10.4368 29.0575 10.404 29.0615 10.3683C29.0655 10.3326 29.0557 10.2968 29.0341 10.2681L28.9368 10.1437Z" fill="black"/>
<path d="M38.5814 14.2715C38.582 14.243 38.574 14.2151 38.5586 14.1911C38.5432 14.1672 38.521 14.1484 38.4949 14.1372C38.4688 14.1259 38.4399 14.1227 38.4119 14.1279C38.3839 14.1331 38.3582 14.1466 38.3379 14.1665C38.3175 14.1864 38.3036 14.2119 38.2979 14.2398C38.2921 14.2677 38.2948 14.2966 38.3056 14.3229C38.3163 14.3493 38.3347 14.3718 38.3583 14.3877C38.3819 14.4035 38.4097 14.412 38.4382 14.412C38.4757 14.412 38.5117 14.3973 38.5385 14.371C38.5653 14.3447 38.5807 14.309 38.5814 14.2715Z" fill="black"/>
<path d="M43.7907 14.2711C43.7895 14.2437 43.7801 14.2173 43.7636 14.1954L41.8011 10.6813C41.7177 10.5335 41.5961 10.4108 41.4489 10.3262C41.3018 10.2416 41.1346 10.1981 40.9649 10.2003C40.7951 10.2025 40.6291 10.2503 40.4842 10.3388C40.3394 10.4272 40.2209 10.553 40.1414 10.7029L38.1789 14.2171C38.1624 14.239 38.153 14.2654 38.1519 14.2928C38.1523 14.3269 38.1651 14.3598 38.188 14.3851C38.2109 14.4105 38.2423 14.4267 38.2762 14.4306H38.4249C38.449 14.4312 38.4729 14.4255 38.4942 14.4141C38.5155 14.4027 38.5335 14.3861 38.5465 14.3657C38.5465 14.3657 40.3847 11.1219 40.5171 10.9138C40.5607 10.833 40.6252 10.7656 40.704 10.7185C40.7827 10.6715 40.8728 10.6467 40.9645 10.6467C41.0562 10.6467 41.1463 10.6715 41.225 10.7185C41.3038 10.7656 41.3684 10.833 41.4119 10.9138C41.5443 11.1327 43.3825 14.3657 43.3825 14.3657C43.3923 14.3785 43.4042 14.3894 43.4176 14.3982H43.4339C43.4531 14.4082 43.4743 14.4138 43.496 14.4144H43.6555C43.689 14.4099 43.7197 14.3934 43.742 14.3681C43.7643 14.3428 43.7768 14.3103 43.7772 14.2765" fill="black"/>
<path d="M66.0591 10.1733H66.4213V10.2625H66.2916V10.668H66.1915V10.2625H66.0591V10.1733Z" fill="black"/>
<path d="M66.4863 10.1733H66.6566L66.7431 10.5356L66.8296 10.1733H66.9999V10.668H66.8999V10.2869H66.8891L66.7918 10.6464H66.6918L66.5972 10.2869H66.5863V10.668H66.4863V10.1733Z" fill="black"/>
</g>
<defs>
<clipPath id="clip0_2892_1483">
<rect width="62" height="8.61772" fill="white" transform="translate(5 8)"/>
</clipPath>
</defs>
</svg>
