<svg width="72" height="24" viewBox="0 0 72 24" fill="none" xmlns="http://www.w3.org/2000/svg">
<path d="M11.4921 7.26779L11.0411 7.11379L7.95004 6.02478C7.82904 5.98078 7.77404 6.03578 7.84004 6.15679C7.84004 6.15679 7.87304 6.21178 7.95004 6.35479C8.44504 7.15779 9.76505 8.93981 9.76505 8.93981C9.84205 9.04981 9.80905 9.09381 9.68805 9.03881L8.75305 8.7308C8.61004 8.6868 8.47804 8.5988 8.37904 8.4778L7.98304 7.9388C7.93904 7.8838 7.88404 7.8288 7.81804 7.7958C7.75204 7.7628 7.68604 7.7408 7.60904 7.7298H7.31203C7.23503 7.7408 7.16903 7.7628 7.10303 7.7958C7.03703 7.8288 6.98203 7.8838 6.93803 7.9388L6.54203 8.4888C6.44303 8.6098 6.31103 8.69781 6.16803 8.74181L5.25502 9.03881C5.13402 9.08281 5.10102 9.03881 5.17802 8.93981C5.17802 8.93981 6.49803 7.15779 6.99303 6.35479C7.08103 6.21178 7.11403 6.14578 7.11403 6.14578C7.18003 6.03578 7.12503 5.96978 7.00403 6.01378L3.99001 7.11379C3.86901 7.15779 3.67101 7.23479 3.539 7.27879L3.22 7.38879C3.154 7.41079 3.099 7.45479 3.066 7.50979C3.022 7.56479 3 7.6308 3 7.6968V11.8658C3.011 12.0198 3.055 12.1738 3.132 12.3058L3.506 12.8778C3.583 13.0098 3.627 13.1638 3.63801 13.3178V14.4068C3.64901 14.5609 3.70401 14.7038 3.80301 14.8139L6.26703 17.2559C6.35503 17.3439 6.42103 17.3109 6.41003 17.1899C6.41003 17.1899 6.24503 15.4519 6.09102 14.4068C5.93702 13.3618 5.43102 12.1408 5.43102 12.1408C5.39802 12.0748 5.35402 12.0198 5.29902 11.9758C5.24402 11.9318 5.17802 11.8988 5.11202 11.8878L4.70501 11.8328C4.63901 11.8218 4.57301 11.7888 4.52901 11.7448C4.48501 11.7008 4.45201 11.6348 4.44101 11.5688L4.36401 10.9088C4.35301 10.8868 4.36401 10.8538 4.36401 10.8208C4.37501 10.7988 4.38601 10.7658 4.40801 10.7548C4.43001 10.7328 4.45201 10.7218 4.48501 10.7218C4.50701 10.7108 4.54001 10.7218 4.56201 10.7218L6.26703 11.1178C6.33303 11.1288 6.38803 11.1728 6.42103 11.2278C6.45403 11.2828 6.47603 11.3488 6.46503 11.4148L6.27803 12.7238C6.26703 12.8008 6.27803 12.8668 6.31103 12.9328C6.33303 12.9988 6.37703 13.0648 6.43203 13.1088L7.33403 13.8348C7.38904 13.8788 7.45504 13.9008 7.52104 13.8898C7.58704 13.8898 7.65304 13.8678 7.70804 13.8238L8.55504 13.1088C8.61004 13.0538 8.64304 12.9988 8.67604 12.9328C8.69805 12.8668 8.70905 12.7898 8.70905 12.7238L8.52204 11.4148C8.51104 11.3488 8.53304 11.2828 8.56604 11.2278C8.59904 11.1728 8.65405 11.1398 8.72005 11.1178L10.4911 10.7218C10.5131 10.7108 10.5461 10.7108 10.5791 10.7218C10.6011 10.7328 10.6341 10.7438 10.6561 10.7548C10.6781 10.7768 10.6891 10.7988 10.7001 10.8208C10.7111 10.8428 10.7111 10.8758 10.7001 10.9088L10.6231 11.5688C10.6121 11.6348 10.5791 11.7008 10.5351 11.7448C10.4911 11.7888 10.4251 11.8218 10.3591 11.8328L9.77605 11.8988C9.71005 11.9098 9.64405 11.9428 9.58905 11.9868C9.53405 12.0308 9.50105 12.0858 9.47905 12.1518C9.47905 12.1518 9.18205 13.2298 8.95105 14.3958C8.72005 15.5729 8.57704 17.1899 8.57704 17.1899C8.56604 17.3219 8.63204 17.3549 8.72005 17.2559L11.1841 14.8139C11.2831 14.7038 11.3491 14.5609 11.3491 14.4068V13.3178C11.3601 13.1638 11.4041 13.0098 11.4921 12.8888L11.9101 12.3058C11.9981 12.1738 12.0421 12.0308 12.0531 11.8768V7.7078C12.0531 7.6418 12.0311 7.5758 11.9871 7.5208C11.9431 7.46579 11.8881 7.42179 11.8331 7.39979L11.4921 7.26779Z" fill="#8464EF"/>
<path d="M19.3789 7.5979H20.952L23.922 15.529H22.217L21.656 13.923H18.5649L18.0039 15.529H16.4199L19.3789 7.5979ZM19.0269 12.6469H21.216L20.116 9.51191L19.0269 12.6469ZM35.5931 12.1189C35.5931 11.4699 35.5381 10.7439 34.6471 10.7439C33.6241 10.7439 33.4701 11.5909 33.4701 12.4819V15.551H31.952V12.1189C31.952 11.4699 31.897 10.7439 31.006 10.7439C29.983 10.7439 29.829 11.5909 29.829 12.4819V15.551H28.322V9.65491H29.829V10.4359C29.994 10.1499 30.236 9.91892 30.522 9.75391C30.808 9.58891 31.138 9.51192 31.468 9.52292C32.48 9.52292 32.9201 10.0399 33.1401 10.4909C33.6131 9.83092 34.1961 9.52292 35.0761 9.52292C36.5611 9.52292 37.0671 10.4469 37.0671 11.8329V15.551H35.5601V12.1189H35.5931ZM24.45 9.64391V15.54H25.957V11.0409H27.816V9.64391H24.45ZM37.8371 12.6029C37.8371 10.5349 39.3001 9.51191 40.7961 9.51191C42.2921 9.51191 43.7551 10.5349 43.7551 12.6029C43.7551 14.671 42.2921 15.683 40.7961 15.683C39.3111 15.683 37.8371 14.671 37.8371 12.6029ZM39.3771 12.6029C39.3771 13.8569 39.9711 14.506 40.8071 14.506C41.6431 14.506 42.2261 13.8679 42.2261 12.6029C42.2261 11.3379 41.6321 10.6999 40.8071 10.6999C39.9711 10.6999 39.3661 11.3489 39.3771 12.6029ZM48.4192 15.54V7.6089H49.9372V10.4139C50.2562 9.85292 50.8942 9.52292 51.6312 9.52292C53.0612 9.52292 54.1942 10.7549 54.1942 12.6029C54.1942 14.484 53.0282 15.694 51.6312 15.694C51.0152 15.694 50.3112 15.463 49.9372 14.803V15.54H48.4192ZM52.6102 12.6029C52.6102 11.4589 52.0492 10.6779 51.2572 10.6779C50.4212 10.6779 49.8822 11.4149 49.8822 12.5919C49.8822 13.8239 50.4322 14.517 51.2572 14.517C52.0492 14.528 52.6102 13.7579 52.6102 12.6029ZM56.5262 15.54H55.0192V7.6089H56.5262V15.54ZM57.3072 12.6029C57.3072 10.5349 58.7703 9.51191 60.2663 9.51191C61.7623 9.51191 63.2253 10.5349 63.2253 12.6029C63.2253 14.671 61.7623 15.683 60.2663 15.683C58.7703 15.683 57.3072 14.671 57.3072 12.6029ZM58.8363 12.6029C58.8363 13.8569 59.4303 14.506 60.2663 14.506C61.1023 14.506 61.6963 13.8679 61.6963 12.6029C61.6963 11.3379 61.1023 10.6999 60.2663 10.6999C59.4303 10.6999 58.8363 11.3489 58.8363 12.6029ZM66.8333 12.4599L69.0003 15.54H67.3063L65.9643 13.6369L64.5893 15.54H63.0603L65.2273 12.5699L63.1703 9.64391H64.8533L66.0853 11.3819L67.3503 9.64391H68.9013L66.8333 12.4599ZM44.5361 9.65491V15.551H46.0542V11.0519H47.9132V9.65491H44.5361Z" fill="#140D2D"/>
</svg>
