<svg width="72" height="24" viewBox="0 0 72 24" fill="none" xmlns="http://www.w3.org/2000/svg">
    <g clip-path="url(#clip0_2601_1217)">
        <path d="M71.9999 13.804C71.9999 12.96 71.5175 12.5796 70.5528 12.3928C69.5881 12.206 69.0135 12.1091 69.0135 11.452C69.0135 10.9815 69.3966 10.6979 70.0775 10.6979C70.943 10.6979 71.2338 11.0715 71.2338 11.5419L71.3331 11.6387H71.7162L71.8155 11.5419C71.8155 10.6011 71.0423 10.2275 70.0775 10.2275C69.0135 10.2275 68.4389 10.7879 68.4389 11.452C68.4389 12.206 69.0206 12.5796 69.9782 12.7663C70.943 12.9531 71.4253 13.05 71.4253 13.7971C71.4253 14.2675 71.1345 14.641 70.1698 14.641C69.3043 14.641 68.9142 14.1706 68.9142 13.6103L68.8149 13.5134H68.4318L68.3325 13.6103C68.3325 14.4543 69.0064 15.1115 70.1627 15.1115C71.4182 15.1184 71.9999 14.558 71.9999 13.804ZM67.8572 12.8632L67.9495 12.7663V12.4827C67.9495 11.1683 67.1763 10.2275 65.8285 10.2275C64.4807 10.2275 63.7075 11.1683 63.7075 12.4827V12.6695C63.7075 13.9839 64.3814 15.1115 65.9207 15.1115C67.2685 15.1115 67.7508 14.2675 67.8502 13.7002L67.7508 13.6034H67.3678L67.2685 13.7002C67.0769 14.2675 66.6868 14.641 65.9207 14.641C64.6651 14.641 64.2821 13.5134 64.2821 12.9531L64.3814 12.8563H67.8572V12.8632ZM67.2756 12.3928H64.3814L64.2821 12.2959C64.2821 11.6387 64.6651 10.6979 65.8214 10.6979C66.9776 10.6979 67.3607 11.6387 67.3607 12.2959L67.2756 12.3928ZM63.0407 14.9316V10.4212L62.9414 10.3244H62.5583L62.459 10.4212V14.9316L62.5583 15.0284H62.9414L63.0407 14.9316ZM63.0407 9.4804V8.92006L62.9414 8.82321H62.5583L62.459 8.92006V9.4804L62.5583 9.57725H62.9414L63.0407 9.4804ZM59.3733 14.648C58.4086 14.648 57.834 13.9908 57.834 12.6764C57.834 11.362 58.4157 10.7048 59.3733 10.7048C60.338 10.7048 60.9126 11.362 60.9126 12.6764C60.9197 13.9908 60.338 14.648 59.3733 14.648ZM60.9197 14.3643C60.9197 15.5888 60.6289 16.5227 59.4726 16.5227C58.6072 16.5227 58.3164 16.1491 58.217 15.6787L58.1177 15.5819H57.7347L57.6354 15.6787C57.7347 16.4327 58.3093 16.9931 59.4655 16.9931C60.7211 16.9931 61.4872 16.239 61.4872 14.3643V10.4212L61.3879 10.3244H61.097L60.9977 10.4212L60.8984 10.9885H60.7991C60.6076 10.6149 60.1252 10.2344 59.2598 10.2344C57.912 10.2344 57.2381 11.2721 57.2381 12.6764C57.2381 14.0876 57.912 15.1184 59.2598 15.1184C60.1252 15.1184 60.6076 14.7448 60.7991 14.3643H60.9197ZM54.6561 10.7048C55.6208 10.7048 56.2947 11.4589 56.2947 12.6764C56.2947 13.8939 55.6208 14.648 54.6561 14.648C53.6913 14.648 53.0174 13.8939 53.0174 12.6764C53.0174 11.452 53.6913 10.7048 54.6561 10.7048ZM54.6561 15.1184C55.9116 15.1184 56.8693 14.2744 56.8693 12.6764C56.8693 11.0784 55.9045 10.2344 54.6561 10.2344C53.4005 10.2344 52.4429 11.0784 52.4429 12.6764C52.4358 14.2744 53.4005 15.1184 54.6561 15.1184ZM51.7619 14.9316V8.53958L51.6626 8.44273H51.2795L51.1802 8.53958V14.9316L51.2795 15.0284H51.6626L51.7619 14.9316ZM48.2931 10.7048C49.2578 10.7048 49.9317 11.4589 49.9317 12.6764C49.9317 13.8939 49.2578 14.648 48.2931 14.648C47.3284 14.648 46.6545 13.8939 46.6545 12.6764C46.6545 11.4589 47.3284 10.7048 48.2931 10.7048ZM48.2931 15.1184C49.5487 15.1184 50.5063 14.2744 50.5063 12.6764C50.5063 11.0784 49.5416 10.2344 48.2931 10.2344C47.0446 10.2344 46.0799 11.0784 46.0799 12.6764C46.0728 14.2744 47.0375 15.1184 48.2931 15.1184ZM45.4982 14.9316V12.1091C45.4982 10.8847 44.8243 10.2275 43.7603 10.2275C43.0864 10.2275 42.5047 10.5111 42.221 10.9815H42.1217L42.0295 10.4143L41.9301 10.3174H41.6393L41.54 10.4143V14.9247L41.6393 15.0215H42.0224L42.1146 14.9247V12.3928C42.1146 11.3551 42.5969 10.6979 43.6539 10.6979C44.4271 10.6979 44.9095 11.1683 44.9095 12.1091V14.9316L45.0088 15.0284H45.3918L45.4982 14.9316ZM40.5824 14.9316V12.1091C40.5824 10.8847 39.9085 10.2275 38.8444 10.2275C38.1705 10.2275 37.5889 10.5111 37.3051 10.9815H37.2058V8.53958L37.1065 8.44273H36.7234L36.6241 8.53958V14.9316L36.7234 15.0284H37.1065L37.2058 14.9316V12.3928C37.2058 11.3551 37.6882 10.6979 38.7451 10.6979C39.5183 10.6979 40.0007 11.1683 40.0007 12.1091V14.9316L40.1 15.0284H40.4831L40.5824 14.9316ZM32.297 12.6764C32.297 11.362 32.9709 10.7048 33.9357 10.7048C34.9004 10.7048 35.2834 11.2721 35.3828 11.8324L35.4821 11.9293H35.8651L35.9644 11.8324C35.8651 10.8916 35.099 10.2344 33.9428 10.2344C32.6872 10.2344 31.7296 10.9885 31.7296 12.6764C31.7296 14.3712 32.6943 15.1184 33.9428 15.1184C35.099 15.1184 35.8722 14.4612 35.9644 13.5204L35.8651 13.4235H35.4821L35.3828 13.5204C35.2834 14.0876 34.9004 14.648 33.9357 14.648C32.9709 14.648 32.297 13.9908 32.297 12.6764ZM31.233 12.8632L31.3323 12.7663V12.4827C31.3323 11.1683 30.5591 10.2275 29.2113 10.2275C27.8635 10.2275 27.0903 11.1683 27.0903 12.4827V12.6695C27.0903 13.9839 27.7642 15.1115 29.3035 15.1115C30.6513 15.1115 31.1337 14.2675 31.233 13.7002L31.1337 13.6034H30.7506L30.6513 13.7002C30.4598 14.2675 30.0767 14.641 29.3035 14.641C28.048 14.641 27.6649 13.5134 27.6649 12.9531L27.7642 12.8563H31.233V12.8632ZM30.6584 12.3928H27.7642L27.6649 12.2959C27.6649 11.6387 28.048 10.6979 29.2042 10.6979C30.3605 10.6979 30.7435 11.6387 30.7435 12.2959L30.6584 12.3928ZM28.0622 8.82321V8.53958L27.9629 8.44273H22.9548L22.8555 8.53958V8.82321L22.9548 8.92006H25.0758L25.1751 9.01691V14.9385L25.2744 15.0354H25.6574L25.7567 14.9385V9.00999L25.8561 8.91314H27.977L28.0622 8.82321Z" fill="white"/>
        <path d="M22.8556 13.721V15.0284H18.5001V8.44274H20.0323V13.7141C20.0394 13.7141 22.8556 13.7141 22.8556 13.721ZM2.73103 15.0284C4.29872 15.0284 5.61813 13.9839 5.99409 12.5657L9.81044 15.4712L13.6268 12.5657V15.0284H17.9752V13.721H15.1519V8.44274H13.6197V10.9055L9.95941 13.6933L9.14365 13.0707L10.9029 11.7356L12.811 10.2829L11.7257 9.45273L8.06542 12.2406L7.24966 11.618L10.9029 8.83013L9.81754 8L6.00118 10.9055C5.62522 9.48732 4.30581 8.44274 2.73813 8.44274H0V15.0215C0 15.0215 2.73103 15.0215 2.73103 15.0284ZM1.53222 13.721V9.75711H2.73813C3.75251 9.75711 4.57537 10.6426 4.57537 11.7356C4.57537 12.8286 3.75251 13.721 2.73103 13.721H1.53222Z" fill="white"/>
    </g>
    <defs>
        <clipPath id="clip0_2601_1217">
            <rect width="72" height="9" fill="white" transform="translate(0 8)"/>
        </clipPath>
    </defs>
</svg>
