<svg width="73" height="24" viewBox="0 0 73 24" fill="none" xmlns="http://www.w3.org/2000/svg">
<path d="M60.2568 3.40137L60.17 3.45463C60.0318 3.53936 59.9017 3.6341 59.7803 3.73761L60.0307 3.55895H62.1567L62.5432 6.52649L60.6107 8.48604L58.6783 9.84807V11.4186C58.6783 12.5156 59.2437 13.5328 60.1691 14.1008L62.2035 15.3495L57.9054 17.8919H57.0764L55.5313 16.9436C54.6059 16.3755 54.0405 15.3583 54.0405 14.2614V8.98007C54.0405 7.88277 54.6063 6.8653 55.5322 6.29738L60.17 3.4527C60.1987 3.43508 60.2277 3.41796 60.2568 3.40137Z" fill="url(#paint0_radial_4070_6244)"/>
<path d="M60.2568 3.40137L60.17 3.45463C60.0318 3.53936 59.9017 3.6341 59.7803 3.73761L60.0307 3.55895H62.1567L62.5432 6.52649L60.6107 8.48604L58.6783 9.84807V11.4186C58.6783 12.5156 59.2437 13.5328 60.1691 14.1008L62.2035 15.3495L57.9054 17.8919H57.0764L55.5313 16.9436C54.6059 16.3755 54.0405 15.3583 54.0405 14.2614V8.98007C54.0405 7.88277 54.6063 6.8653 55.5322 6.29738L60.17 3.4527C60.1987 3.43508 60.2277 3.41796 60.2568 3.40137Z" fill="url(#paint1_linear_4070_6244)"/>
<path d="M64.8619 9.66211V11.418C64.8619 12.5149 64.2965 13.5321 63.3711 14.1002L58.7333 16.9468C57.7845 17.5292 56.6041 17.5502 55.6387 17.0099L60.1689 19.7906C61.1532 20.3947 62.3868 20.3947 63.3711 19.7906L68.0089 16.9439C68.9343 16.3759 69.4997 15.3587 69.4997 14.2617V12.9933L69.1132 12.4055L64.8619 9.66211Z" fill="url(#paint2_radial_4070_6244)"/>
<path d="M64.8619 9.66211V11.418C64.8619 12.5149 64.2965 13.5321 63.3711 14.1002L58.7333 16.9468C57.7845 17.5292 56.6041 17.5502 55.6387 17.0099L60.1689 19.7906C61.1532 20.3947 62.3868 20.3947 63.3711 19.7906L68.0089 16.9439C68.9343 16.3759 69.4997 15.3587 69.4997 14.2617V12.9933L69.1132 12.4055L64.8619 9.66211Z" fill="url(#paint3_linear_4070_6244)"/>
<path d="M68.0076 6.29726L63.3698 3.45259C62.4165 2.86783 61.2293 2.84972 60.2615 3.39824L60.1694 3.45475C59.2435 4.02268 58.6777 5.04013 58.6777 6.13744V9.85426L60.1694 8.93931C61.1532 8.33589 62.386 8.33589 63.3698 8.93931L68.0076 11.784C68.9046 12.3342 69.4636 13.3062 69.4976 14.364C69.4987 14.3298 69.4993 14.2956 69.4993 14.2613V8.97995C69.4993 7.88265 68.9335 6.86518 68.0076 6.29726Z" fill="url(#paint4_radial_4070_6244)"/>
<path d="M68.0076 6.29726L63.3698 3.45259C62.4165 2.86783 61.2293 2.84972 60.2615 3.39824L60.1694 3.45475C59.2435 4.02268 58.6777 5.04013 58.6777 6.13744V9.85426L60.1694 8.93931C61.1532 8.33589 62.386 8.33589 63.3698 8.93931L68.0076 11.784C68.9046 12.3342 69.4636 13.3062 69.4976 14.364C69.4987 14.3298 69.4993 14.2956 69.4993 14.2613V8.97995C69.4993 7.88265 68.9335 6.86518 68.0076 6.29726Z" fill="url(#paint5_linear_4070_6244)"/>
<path fill-rule="evenodd" clip-rule="evenodd" d="M32.5736 9.87302C32.4319 9.81728 32.2961 9.78941 32.166 9.78941C31.8129 9.78941 31.6364 9.98102 31.6364 10.3643V10.744H32.4517V11.5558H31.6364V14.3116H30.539V11.5558H29.9397V10.744H30.539V10.3015C30.539 9.89509 30.6714 9.56759 30.9362 9.31907C31.2009 9.07055 31.5609 8.94629 32.0162 8.94629C32.2392 8.94629 32.425 8.96952 32.5736 9.01597V9.87302ZM37.925 14.1478V13.1897C38.2594 13.4336 38.6496 13.5556 39.0956 13.5556C39.3766 13.5556 39.5949 13.4952 39.7506 13.3744C39.9085 13.2536 39.9875 13.0852 39.9875 12.8692C39.9875 12.6463 39.8899 12.4744 39.6948 12.3536C39.502 12.2328 39.2361 12.1724 38.897 12.1724H38.4476V11.3293H38.8622C39.5125 11.3293 39.8377 11.1133 39.8377 10.6813C39.8377 10.2748 39.588 10.0716 39.0886 10.0716C38.7542 10.0716 38.429 10.1796 38.1131 10.3956V9.49675C38.4638 9.32023 38.8726 9.23197 39.3395 9.23197C39.8504 9.23197 40.2476 9.34694 40.531 9.57689C40.8167 9.80683 40.9595 10.1053 40.9595 10.4723C40.9595 11.1249 40.6285 11.5337 39.9666 11.6986V11.716C40.3196 11.7602 40.5983 11.8891 40.8027 12.1028C41.0071 12.3141 41.1093 12.5742 41.1093 12.8832C41.1093 13.35 40.9386 13.7193 40.5972 13.9911C40.2557 14.2628 39.7842 14.3987 39.1827 14.3987C38.667 14.3987 38.2478 14.3151 37.925 14.1478ZM45.0288 10.2876V9.36785C44.8151 9.27726 44.5154 9.23197 44.1299 9.23197C43.4331 9.23197 42.8815 9.49095 42.475 10.0089C42.0686 10.5245 41.8653 11.2143 41.8653 12.0784C41.8653 12.8123 42.0233 13.3825 42.3391 13.789C42.655 14.1954 43.094 14.3987 43.6561 14.3987C44.1578 14.3987 44.5712 14.2326 44.8964 13.9005C45.2215 13.5683 45.3841 13.1514 45.3841 12.6497C45.3841 12.1829 45.261 11.8078 45.0148 11.5244C44.7709 11.2411 44.44 11.0994 44.0219 11.0994C43.562 11.0994 43.2125 11.2759 42.9732 11.6289H42.9523C42.9616 11.1551 43.0789 10.7777 43.3042 10.4966C43.5318 10.2133 43.8303 10.0716 44.1996 10.0716C44.4992 10.0716 44.7756 10.1436 45.0288 10.2876ZM43.1648 12.1271C43.2856 11.9855 43.447 11.9146 43.6491 11.9146C44.0881 11.9146 44.3076 12.1829 44.3076 12.7194C44.3076 12.9679 44.2483 13.17 44.1299 13.3256C44.0114 13.4789 43.8535 13.5556 43.6561 13.5556C43.454 13.5556 43.2914 13.4696 43.1683 13.2977C43.0475 13.1236 42.9872 12.9145 42.9872 12.6706C42.9872 12.45 43.0464 12.2688 43.1648 12.1271ZM46.1924 13.242V14.1827C46.5199 14.3267 46.924 14.3987 47.4048 14.3987C47.9971 14.3987 48.4663 14.2396 48.8123 13.9214C49.1584 13.6009 49.3314 13.1886 49.3314 12.6846C49.3314 12.2293 49.1863 11.867 48.8959 11.5976C48.6056 11.3282 48.2038 11.1934 47.6905 11.1934C47.5604 11.1934 47.4222 11.2004 47.2759 11.2143V10.2144H49.1015V9.31559H46.3352V12.1062C46.6581 12.0644 46.9333 12.0435 47.1609 12.0435C47.8601 12.0435 48.2096 12.2909 48.2096 12.7856C48.2096 13.0225 48.1272 13.2107 47.9622 13.35C47.7997 13.487 47.5732 13.5556 47.2829 13.5556C46.8973 13.5556 46.5338 13.451 46.1924 13.242ZM34.5455 14.3987C34.873 14.3987 35.1181 14.3557 35.2806 14.2698V13.4545C35.1575 13.5219 35.0379 13.5556 34.9218 13.5556C34.6268 13.5556 34.4793 13.3698 34.4793 12.9981V11.5558H35.2806V10.744H34.4793V9.6605L33.3819 9.97406V10.744H32.8036V11.5558H33.3819V13.1897C33.3819 13.9957 33.7698 14.3987 34.5455 14.3987ZM26.292 13.9005C26.6335 14.2326 27.1015 14.3987 27.6961 14.3987C28.3 14.3987 28.7749 14.2268 29.121 13.8831C29.4694 13.5393 29.6436 13.0713 29.6436 12.479C29.6436 11.9309 29.4752 11.4907 29.1384 11.1586C28.8016 10.8241 28.3371 10.6569 27.7448 10.6569C27.1433 10.6569 26.666 10.8241 26.3129 11.1586C25.9599 11.4907 25.7834 11.9518 25.7834 12.5417C25.7834 13.1131 25.9529 13.566 26.292 13.9005ZM27.1177 11.7683C27.2617 11.5895 27.4638 11.5 27.7239 11.5C28.2558 11.5 28.5218 11.8333 28.5218 12.4999C28.5218 13.2037 28.2582 13.5556 27.7309 13.5556C27.1781 13.5556 26.9017 13.213 26.9017 12.5278C26.9017 12.2003 26.9737 11.9471 27.1177 11.7683ZM22.6199 14.2175V13.3256C22.8011 13.4348 22.9811 13.5161 23.16 13.5695C23.3411 13.6229 23.5118 13.6496 23.6721 13.6496C23.8672 13.6496 24.0205 13.6229 24.132 13.5695C24.2458 13.5161 24.3027 13.4348 24.3027 13.3256C24.3027 13.2559 24.2772 13.1979 24.2261 13.1514C24.175 13.105 24.1088 13.0643 24.0275 13.0295C23.9485 12.9946 23.8614 12.9633 23.7662 12.9354C23.6709 12.9075 23.5792 12.8762 23.4909 12.8414C23.3493 12.7879 23.2238 12.731 23.1147 12.6706C23.0078 12.6079 22.9172 12.5359 22.8429 12.4546C22.7709 12.3733 22.7152 12.2793 22.6757 12.1724C22.6385 12.0656 22.6199 11.939 22.6199 11.7927C22.6199 11.5929 22.6629 11.4211 22.7489 11.2771C22.8371 11.1331 22.9532 11.0158 23.0973 10.9252C23.2436 10.8323 23.4096 10.7649 23.5955 10.7231C23.7836 10.679 23.9787 10.6569 24.1808 10.6569C24.3387 10.6569 24.499 10.6697 24.6615 10.6952C24.8241 10.7185 24.9844 10.7533 25.1423 10.7998V11.6498C25.003 11.5685 24.8532 11.5082 24.6929 11.4687C24.535 11.4269 24.3793 11.406 24.2261 11.406C24.1541 11.406 24.0855 11.4129 24.0205 11.4269C23.9578 11.4385 23.902 11.4571 23.8533 11.4826C23.8045 11.5058 23.7662 11.5372 23.7383 11.5767C23.7104 11.6138 23.6965 11.6568 23.6965 11.7056C23.6965 11.7706 23.7174 11.8264 23.7592 11.8728C23.801 11.9193 23.8556 11.9599 23.9229 11.9948C23.9903 12.0273 24.0646 12.0575 24.1459 12.0853C24.2295 12.1109 24.312 12.1376 24.3933 12.1655C24.5396 12.2166 24.672 12.2723 24.7905 12.3327C24.9089 12.3931 25.0099 12.4639 25.0936 12.5452C25.1795 12.6265 25.2445 12.7217 25.2887 12.8309C25.3351 12.9401 25.3583 13.0701 25.3583 13.2211C25.3583 13.4325 25.3119 13.6136 25.219 13.7646C25.1284 13.9132 25.0065 14.0352 24.8532 14.1304C24.7022 14.2233 24.5268 14.2907 24.3271 14.3325C24.1297 14.3766 23.9241 14.3987 23.7104 14.3987C23.3179 14.3987 22.9544 14.3383 22.6199 14.2175ZM18.7876 13.9005C19.129 14.2326 19.597 14.3987 20.1916 14.3987C20.7955 14.3987 21.2705 14.2268 21.6166 13.8831C21.965 13.5393 22.1392 13.0713 22.1392 12.479C22.1392 11.9309 21.9708 11.4907 21.634 11.1586C21.2972 10.8241 20.8327 10.6569 20.2404 10.6569C19.6388 10.6569 19.1615 10.8241 18.8085 11.1586C18.4555 11.4907 18.2789 11.9518 18.2789 12.5417C18.2789 13.1131 18.4485 13.566 18.7876 13.9005ZM19.6133 11.7683C19.7573 11.5895 19.9594 11.5 20.2195 11.5C20.7514 11.5 21.0173 11.8333 21.0173 12.4999C21.0173 13.2037 20.7537 13.5556 20.2265 13.5556C19.6737 13.5556 19.3973 13.213 19.3973 12.5278C19.3973 12.2003 19.4693 11.9471 19.6133 11.7683ZM18.0037 11.7369C17.8713 11.6649 17.7169 11.6289 17.5403 11.6289C17.3011 11.6289 17.1141 11.7172 16.9794 11.8937C16.8447 12.0679 16.7774 12.306 16.7774 12.6079V14.3116H15.6764V10.744H16.7774V11.406H16.7913C16.9655 10.9229 17.279 10.6813 17.732 10.6813C17.8481 10.6813 17.9387 10.6952 18.0037 10.7231V11.7369ZM13.8752 14.3987C14.3444 14.3987 14.7032 14.3267 14.9518 14.1827V13.2977C14.6893 13.4696 14.421 13.5556 14.147 13.5556C13.8381 13.5556 13.5953 13.4661 13.4188 13.2873C13.2423 13.1061 13.154 12.8576 13.154 12.5417C13.154 12.2166 13.2458 11.9622 13.4293 11.7787C13.6151 11.5929 13.8659 11.5 14.1818 11.5C14.4652 11.5 14.7218 11.586 14.9518 11.7578V10.8241C14.7636 10.7127 14.4594 10.6569 14.039 10.6569C13.4304 10.6569 12.9438 10.8323 12.5792 11.183C12.2169 11.5314 12.0357 12.0087 12.0357 12.6149C12.0357 13.1398 12.2052 13.5683 12.5443 13.9005C12.8835 14.2326 13.3271 14.3987 13.8752 14.3987ZM10.778 10.1796C10.5922 10.1796 10.44 10.125 10.3216 10.0159C10.2031 9.90438 10.1439 9.7685 10.1439 9.60824C10.1439 9.44333 10.2031 9.30862 10.3216 9.2041C10.44 9.09958 10.5922 9.04732 10.778 9.04732C10.9661 9.04732 11.1183 9.09958 11.2344 9.2041C11.3528 9.30862 11.4121 9.44333 11.4121 9.60824C11.4121 9.77547 11.3528 9.91251 11.2344 10.0193C11.1183 10.1262 10.9661 10.1796 10.778 10.1796ZM11.3215 14.3116H10.2206V10.744H11.3215V14.3116ZM8.0814 14.3116H9.19278V9.31559H7.58668L6.56588 12.27C6.4962 12.4744 6.43001 12.7148 6.3673 12.9912H6.34639C6.30923 12.7519 6.25 12.5139 6.16871 12.277L5.14791 9.31559H3.5V14.3116H4.51383V11.5488C4.51383 11.1772 4.49873 10.7452 4.46854 10.2528H4.4999C4.5719 10.6267 4.62416 10.859 4.65667 10.9496L5.84819 14.3116H6.76795L7.93856 10.9147C7.98501 10.78 8.03727 10.5594 8.09534 10.2528H8.12321C8.09534 10.643 8.0814 10.9995 8.0814 11.3223V14.3116Z" fill="white"/>
<defs>
<radialGradient id="paint0_radial_4070_6244" cx="0" cy="0" r="1" gradientUnits="userSpaceOnUse" gradientTransform="translate(59.2266 6.38474) rotate(110.267) scale(13.0542 22.5301)">
<stop offset="0.06441" stop-color="#AE7FE2"/>
<stop offset="1" stop-color="#0078D4"/>
</radialGradient>
<linearGradient id="paint1_linear_4070_6244" x1="59.2626" y1="17.0565" x2="57.384" y2="13.8523" gradientUnits="userSpaceOnUse">
<stop stop-color="#114A8B"/>
<stop offset="1" stop-color="#0078D4" stop-opacity="0"/>
</linearGradient>
<radialGradient id="paint2_radial_4070_6244" cx="0" cy="0" r="1" gradientUnits="userSpaceOnUse" gradientTransform="translate(56.5254 16.4622) rotate(-8.48293) scale(12.004 8.03595)">
<stop offset="0.133928" stop-color="#D59DFF"/>
<stop offset="1" stop-color="#5E438F"/>
</radialGradient>
<linearGradient id="paint3_linear_4070_6244" x1="68.0916" y1="12.1612" x2="66.0828" y2="15.0017" gradientUnits="userSpaceOnUse">
<stop stop-color="#493474"/>
<stop offset="1" stop-color="#8C66BA" stop-opacity="0"/>
</linearGradient>
<radialGradient id="paint4_radial_4070_6244" cx="0" cy="0" r="1" gradientUnits="userSpaceOnUse" gradientTransform="translate(68.3611 12.6026) rotate(-165.581) scale(9.64046 16.4286)">
<stop offset="0.0584996" stop-color="#50E6FF"/>
<stop offset="1" stop-color="#436DCD"/>
</radialGradient>
<linearGradient id="paint5_linear_4070_6244" x1="59.0549" y1="3.41331" x2="61.9577" y2="3.41331" gradientUnits="userSpaceOnUse">
<stop stop-color="#2D3F80"/>
<stop offset="1" stop-color="#436DCD" stop-opacity="0"/>
</linearGradient>
</defs>
</svg>
