<svg width="72" height="24" viewBox="0 0 72 24" fill="none" xmlns="http://www.w3.org/2000/svg">
    <path d="M11.8667 21.0667C12.4774 21.0667 12.9503 20.8478 13.2113 20.6444V19.9614H13.2064C12.8468 20.2482 12.4479 20.4619 11.9061 20.4619C11.0885 20.4619 10.6501 19.9093 10.6501 19.1741C10.6501 18.4286 11.118 17.8655 11.916 17.8655C12.4627 17.8655 12.8419 18.1157 13.2064 18.3816H13.2113V17.6986C12.9404 17.4797 12.4922 17.2607 11.9307 17.2607C10.6748 17.2607 10 18.1522 10 19.1794C10 20.2013 10.5812 21.0667 11.8667 21.0667Z" fill="#E4E4E4"/>
    <path d="M14.0785 20.9885H14.6794V17.0574H14.0785V20.9885Z" fill="#E4E4E4"/>
    <path d="M16.8994 21.0667C17.8007 21.0667 18.3425 20.415 18.3425 19.5912C18.3425 18.7675 17.8056 18.1157 16.9043 18.1157C16.003 18.1157 15.4612 18.7675 15.4612 19.5912C15.4612 20.415 15.9981 21.0667 16.8994 21.0667ZM16.9043 20.5297C16.3872 20.5297 16.067 20.1335 16.067 19.5912C16.067 19.049 16.3872 18.6528 16.8994 18.6528C17.4165 18.6528 17.7318 19.049 17.7318 19.5912C17.7318 20.1335 17.4165 20.5297 16.9043 20.5297Z" fill="#E4E4E4"/>
    <path d="M21.5854 18.194H20.9845V20.0813C20.7727 20.3107 20.5215 20.5036 20.2063 20.5036C19.9108 20.5036 19.6842 20.3629 19.6842 19.8989V18.194H19.0833V20.0292C19.0833 20.7383 19.4527 21.0667 19.9994 21.0667C20.4328 21.0667 20.7382 20.8269 20.9943 20.5297V20.9885H21.5854V18.194Z" fill="#E4E4E4"/>
    <path d="M25.081 17.0574H24.4802V18.3087C24.2881 18.1887 24.0763 18.1157 23.7808 18.1157C22.973 18.1157 22.3524 18.7623 22.3524 19.6382C22.3524 20.5506 22.9041 21.0667 23.569 21.0667C23.9876 21.0667 24.293 20.8582 24.49 20.6184L24.4949 20.9885H25.081V17.0574ZM23.83 18.658C24.096 18.658 24.293 18.7518 24.4802 18.9082V20.2117C24.3078 20.3837 24.0418 20.5245 23.766 20.5245C23.3079 20.5245 22.9582 20.2221 22.9582 19.6017C22.9582 19.0438 23.2981 18.658 23.83 18.658Z" fill="#E4E4E4"/>
    <path d="M27.1977 20.9885H27.8479L28.1926 20.0605H29.951L30.2957 20.9885H30.9557L29.5914 17.3389H28.5669L27.1977 20.9885ZM28.9758 17.9645H29.1728L29.7343 19.4765H28.4093L28.9758 17.9645Z" fill="#E4E4E4"/>
    <path d="M31.6495 22H32.2504V20.8738C32.4425 20.9937 32.6543 21.0667 32.9498 21.0667C33.7576 21.0667 34.3782 20.4202 34.3782 19.5443C34.3782 18.6319 33.8265 18.1157 33.1616 18.1157C32.743 18.1157 32.4376 18.3243 32.2406 18.5641L32.2357 18.194H31.6495V22ZM32.9006 20.5245C32.6346 20.5245 32.4376 20.4307 32.2504 20.269V18.9708C32.4228 18.7987 32.6888 18.658 32.9646 18.658C33.4227 18.658 33.7724 18.9604 33.7724 19.5808C33.7724 20.1387 33.4325 20.5245 32.9006 20.5245Z" fill="#E4E4E4"/>
    <path d="M35.1481 22H35.749V20.8738C35.9411 20.9937 36.1528 21.0667 36.4484 21.0667C37.2561 21.0667 37.8767 20.4202 37.8767 19.5443C37.8767 18.6319 37.3251 18.1157 36.6602 18.1157C36.2415 18.1157 35.9361 18.3243 35.7391 18.5641L35.7342 18.194H35.1481V22ZM36.3991 20.5245C36.1331 20.5245 35.9361 20.4307 35.749 20.269V18.9708C35.9214 18.7987 36.1873 18.658 36.4631 18.658C36.9212 18.658 37.2709 18.9604 37.2709 19.5808C37.2709 20.1387 36.931 20.5245 36.3991 20.5245Z" fill="#E4E4E4"/>
    <path d="M41.5695 21.0719C42.7663 21.0719 43.0471 20.3994 43.0471 19.9301C43.0471 19.1898 42.4265 18.9969 41.7369 18.8665C41.1163 18.7414 40.7125 18.6788 40.7125 18.3399C40.7125 18.0584 40.9735 17.8655 41.5054 17.8655C41.9536 17.8655 42.4511 18.0167 42.8501 18.2878H42.855V17.6048C42.4856 17.3806 41.993 17.2555 41.5547 17.2555C40.5351 17.2555 40.0525 17.8029 40.0525 18.4077C40.0525 19.0907 40.6632 19.2941 41.3478 19.4244C42.1704 19.5756 42.3871 19.6747 42.3871 19.9718C42.3871 20.2742 42.1063 20.4619 41.5744 20.4619C41.0769 20.4619 40.5105 20.2899 40.0278 20.0031H40.0229V20.6861C40.4268 20.9051 40.9242 21.0719 41.5695 21.0719Z" fill="#E4E4E4"/>
    <path d="M45.0567 18.1157C44.2046 18.1157 43.6579 18.7779 43.6579 19.6538C43.6579 20.4619 44.1455 21.0667 45.1454 21.0667C45.5788 21.0667 45.9384 20.926 46.1748 20.7748V20.2065H46.1698C45.8645 20.4098 45.5542 20.5297 45.1651 20.5297C44.6282 20.5297 44.313 20.2534 44.2588 19.7685H46.3127C46.3225 19.7007 46.3275 19.6277 46.3275 19.56C46.3275 18.7623 45.9285 18.1157 45.0567 18.1157ZM45.0419 18.6371C45.4852 18.6371 45.7266 18.9291 45.7561 19.3358H44.2785C44.3622 18.903 44.6381 18.6371 45.0419 18.6371Z" fill="#E4E4E4"/>
    <path d="M48.3837 21.0667C48.7432 21.0667 49.0585 20.9572 49.3146 20.7748V20.1648H49.3097C49.0191 20.3942 48.7433 20.5089 48.4182 20.5089C47.8961 20.5089 47.5218 20.1595 47.5218 19.6017C47.5218 19.0647 47.8862 18.6684 48.4231 18.6684C48.7285 18.6684 49.0191 18.7883 49.3097 19.0177H49.3146V18.4077C49.0732 18.2252 48.7777 18.1157 48.3985 18.1157C47.5415 18.1157 46.916 18.7675 46.916 19.6173C46.916 20.5089 47.5267 21.0667 48.3837 21.0667Z" fill="#E4E4E4"/>
    <path d="M52.588 18.194H51.9871V20.0813C51.7753 20.3107 51.5241 20.5036 51.2089 20.5036C50.9134 20.5036 50.6868 20.3629 50.6868 19.8989V18.194H50.0859V20.0292C50.0859 20.7383 50.4553 21.0667 51.0021 21.0667C51.4355 21.0667 51.7409 20.8269 51.997 20.5297V20.9885H52.588V18.194Z" fill="#E4E4E4"/>
    <path d="M53.5274 20.9885H54.1283V19.2315C54.2564 18.9187 54.5371 18.7623 54.8967 18.7623C54.941 18.7623 54.9755 18.7623 55.0247 18.7727V18.1366C54.9755 18.1314 54.9509 18.1314 54.9262 18.1314C54.6159 18.1314 54.3253 18.3452 54.1185 18.7727V18.194H53.5274V20.9885Z" fill="#E4E4E4"/>
    <path d="M55.9752 17.7612C56.2165 17.7612 56.3643 17.5839 56.3643 17.3806V17.3754C56.3643 17.1721 56.2165 17 55.9702 17C55.724 17 55.5762 17.1721 55.5762 17.3754V17.3806C55.5762 17.5839 55.724 17.7612 55.9752 17.7612ZM55.6698 20.9885H56.2707V18.194H55.6698V20.9885Z" fill="#E4E4E4"/>
    <path d="M57.5352 20.9885H58.1312V18.7205H58.7862V18.194H58.1312V17.4745L57.5352 17.5422V18.194H57.0279L56.9294 18.7205H57.5352V20.9885Z" fill="#E4E4E4"/>
    <path d="M59.9708 22H60.5717L62 18.194H61.3843L60.6209 20.3681L59.7935 18.194H59.1532L60.2909 21.0876L59.9708 22Z" fill="#E4E4E4"/>
    <path d="M30.9526 3.59999V11.4H29.6196V5.27916H29.6019L27.2204 11.4H26.3317L23.8969 5.27916H23.8791V11.4H22.6528V3.59999H24.5723L26.776 9.37776H26.8116L29.1398 3.59999H30.9526ZM32.0545 4.19583C32.0545 3.97916 32.1256 3.7986 32.2855 3.65416C32.4455 3.50972 32.6232 3.43749 32.8365 3.43749C33.0675 3.43749 33.263 3.50972 33.4052 3.65416C33.5473 3.7986 33.6362 3.97916 33.6362 4.19583C33.6362 4.41249 33.5651 4.59305 33.4052 4.73749C33.2452 4.88193 33.0675 4.95416 32.8365 4.95416C32.6054 4.95416 32.4277 4.88193 32.2855 4.73749C32.1433 4.57499 32.0545 4.39444 32.0545 4.19583ZM33.494 5.80277V11.4H32.1966V5.80277H33.494ZM37.4217 10.443C37.6172 10.443 37.8305 10.4069 38.0616 10.2986C38.2926 10.2083 38.5059 10.0819 38.7014 9.93748V11.1653C38.4881 11.2916 38.2571 11.3819 37.9905 11.4361C37.7239 11.4903 37.4395 11.5264 37.1196 11.5264C36.3021 11.5264 35.6445 11.2736 35.1469 10.75C34.6315 10.2264 34.3827 9.55831 34.3827 8.76387C34.3827 7.86109 34.6492 7.12082 35.1646 6.54304C35.68 5.96527 36.4087 5.67638 37.3684 5.67638C37.6172 5.67638 37.8661 5.71249 38.0971 5.76665C38.3459 5.82082 38.5414 5.9111 38.6836 5.98332V7.24721C38.4881 7.10276 38.2748 6.97637 38.0793 6.90415C37.8661 6.83193 37.6528 6.77776 37.4395 6.77776C36.9241 6.77776 36.5154 6.94026 36.1954 7.28332C35.8755 7.62637 35.7334 8.07776 35.7334 8.65554C35.7334 9.21526 35.8933 9.66665 36.1954 9.97359C36.4976 10.2805 36.9063 10.443 37.4217 10.443ZM42.3803 5.71249C42.4869 5.71249 42.5758 5.71249 42.6646 5.73054C42.7535 5.7486 42.8246 5.76665 42.8779 5.78471V7.12082C42.8068 7.06665 42.7179 7.01248 42.5758 6.97637C42.4336 6.94026 42.2914 6.90415 42.0959 6.90415C41.776 6.90415 41.5094 7.0486 41.2961 7.31943C41.0829 7.59026 40.9585 8.00554 40.9585 8.58331V11.4H39.6611V5.80277H40.9585V6.68749H40.9762C41.1006 6.38054 41.2784 6.14582 41.5094 5.96527C41.7582 5.80277 42.0426 5.71249 42.3803 5.71249ZM42.949 8.69165C42.949 7.77082 43.2156 7.03054 43.7132 6.48888C44.2286 5.94721 44.9395 5.67638 45.8459 5.67638C46.699 5.67638 47.3743 5.92915 47.8542 6.45276C48.334 6.97637 48.5829 7.68054 48.5829 8.56526C48.5829 9.46804 48.3163 10.1903 47.8186 10.7319C47.3032 11.2736 46.6101 11.5444 45.7215 11.5444C44.8684 11.5444 44.1931 11.2916 43.6954 10.7861C43.1978 10.2625 42.949 9.55831 42.949 8.69165ZM44.2997 8.63748C44.2997 9.21526 44.4241 9.66665 44.6907 9.97359C44.9573 10.2805 45.3305 10.443 45.8103 10.443C46.2724 10.443 46.6457 10.2986 46.8945 9.97359C47.1433 9.66665 47.2677 9.21526 47.2677 8.60137C47.2677 8.00554 47.1433 7.55415 46.8945 7.22915C46.6457 6.92221 46.2724 6.75971 45.8281 6.75971C45.3483 6.75971 44.9928 6.92221 44.7262 7.24721C44.4241 7.59026 44.2997 8.04165 44.2997 8.63748ZM50.5201 7.28332C50.5201 7.46387 50.5734 7.62637 50.6978 7.73471C50.8222 7.84304 51.071 7.96943 51.4798 8.13193C51.9952 8.34859 52.3684 8.58331 52.5639 8.83609C52.7772 9.10693 52.8838 9.41387 52.8838 9.79303C52.8838 10.3166 52.6883 10.7319 52.2795 11.0569C51.8885 11.3819 51.3376 11.5264 50.6622 11.5264C50.4312 11.5264 50.1824 11.4903 49.898 11.4361C49.6137 11.3819 49.3826 11.3097 49.1871 11.2194V9.91942C49.4182 10.0819 49.6847 10.2264 49.9513 10.3166C50.2179 10.4069 50.4667 10.4611 50.6978 10.4611C50.9821 10.4611 51.2132 10.425 51.3376 10.3347C51.4798 10.2444 51.5508 10.118 51.5508 9.91942C51.5508 9.73887 51.4798 9.59442 51.3376 9.44998C51.1954 9.32359 50.911 9.17915 50.5201 9.01665C50.0402 8.81804 49.7025 8.58331 49.507 8.33054C49.3115 8.07776 49.2049 7.75276 49.2049 7.35554C49.2049 6.84999 49.4004 6.43471 49.7914 6.10971C50.1824 5.78471 50.6978 5.62221 51.3198 5.62221C51.5153 5.62221 51.7286 5.64027 51.9596 5.69443C52.1907 5.7486 52.4039 5.80277 52.5639 5.85693V7.13887C52.3862 7.03054 52.1907 6.92221 51.9596 6.83193C51.7286 6.74165 51.4975 6.70554 51.2843 6.70554C51.0355 6.70554 50.84 6.75971 50.7155 6.84999C50.5911 6.97637 50.5201 7.10276 50.5201 7.28332ZM53.4347 8.69165C53.4347 7.77082 53.7013 7.03054 54.199 6.48888C54.7144 5.94721 55.4253 5.67638 56.3316 5.67638C57.1847 5.67638 57.8601 5.92915 58.3399 6.45276C58.8198 6.97637 59.0686 7.68054 59.0686 8.56526C59.0686 9.46804 58.802 10.1903 58.3044 10.7319C57.789 11.2736 57.0959 11.5444 56.2072 11.5444C55.3542 11.5444 54.6788 11.2916 54.1812 10.7861C53.7013 10.2625 53.4347 9.55831 53.4347 8.69165ZM54.7854 8.63748C54.7854 9.21526 54.9099 9.66665 55.1764 9.97359C55.443 10.2805 55.8162 10.443 56.2961 10.443C56.7582 10.443 57.1314 10.2986 57.3802 9.97359C57.629 9.66665 57.7534 9.21526 57.7534 8.60137C57.7534 8.00554 57.629 7.55415 57.3802 7.22915C57.1314 6.92221 56.7582 6.75971 56.3139 6.75971C55.834 6.75971 55.4786 6.92221 55.212 7.24721C54.9276 7.59026 54.7854 8.04165 54.7854 8.63748ZM63.3873 6.8861H61.4501V11.4H60.135V6.8861H59.2108V5.80277H60.135V5.02638C60.135 4.4486 60.3304 3.9611 60.7037 3.58194C61.0769 3.20277 61.5567 3.02222 62.1432 3.02222C62.3032 3.02222 62.4454 3.04027 62.5698 3.04027C62.6942 3.04027 62.8008 3.07638 62.8897 3.11249V4.24999C62.8541 4.23194 62.7653 4.19583 62.6586 4.15971C62.552 4.1236 62.4276 4.10555 62.2854 4.10555C62.0188 4.10555 61.8056 4.19583 61.6634 4.35832C61.5212 4.52082 61.4501 4.79166 61.4501 5.11666V5.78471H63.3873V4.52082L64.6847 4.1236V5.78471H65.9999V6.86804H64.6847V9.48609C64.6847 9.82915 64.7558 10.0639 64.8624 10.2083C64.9868 10.3528 65.1823 10.425 65.4489 10.425C65.52 10.425 65.6089 10.4069 65.7155 10.3708C65.8221 10.3347 65.911 10.2986 65.9821 10.2444V11.3278C65.8932 11.3819 65.7688 11.418 65.5733 11.4541C65.3778 11.4903 65.2001 11.5083 65.0046 11.5083C64.4537 11.5083 64.0449 11.3639 63.7783 11.075C63.5117 10.7861 63.3695 10.3347 63.3695 9.73887L63.3873 6.8861Z" fill="#E4E4E4"/>
    <path d="M12.0782 1H6V7.17499H12.0782V1Z" fill="#F25022"/>
    <path d="M18.796 1H12.7178V7.17499H18.796V1Z" fill="#7FBA00"/>
    <path d="M12.0782 7.82507H6V14.0001H12.0782V7.82507Z" fill="#00A4EF"/>
    <path d="M18.796 7.82507H12.7178V14.0001H18.796V7.82507Z" fill="#FFB900"/>
</svg>
