<svg width="72" height="25" viewBox="0 0 72 25" fill="none" xmlns="http://www.w3.org/2000/svg">
<path d="M12.4836 15.2208V17.6792C12.4836 17.9671 12.395 18.0261 12.1218 17.9818C10.291 17.7087 8.43801 17.4577 6.59242 17.1993C6.26021 17.155 6.14209 17.0369 6.14209 16.6751C6.17162 15.3685 6.15685 14.0544 6.14209 12.7329C6.14209 12.445 6.23068 12.3564 6.51859 12.3564C8.40848 12.3712 10.2688 12.3712 12.1218 12.3712C12.4245 12.3712 12.4983 12.4893 12.4983 12.7625C12.4688 13.5893 12.4836 14.4014 12.4836 15.2208Z" fill="#00AAF2"/>
<path d="M9.3455 11.8983C8.41532 11.8983 7.48514 11.8836 6.55496 11.8983C6.26704 11.8983 6.14893 11.8393 6.14893 11.5071C6.16369 10.1709 6.16369 8.85679 6.14893 7.53534C6.14893 7.27696 6.23751 7.18837 6.48113 7.14408C8.38579 6.87093 10.2904 6.60516 12.1951 6.31725C12.5273 6.27295 12.4683 6.49443 12.4683 6.67899C12.4683 7.86017 12.483 9.0635 12.4683 10.2447C12.4683 10.6802 12.4535 11.1158 12.4683 11.5514C12.483 11.8245 12.3797 11.8983 12.1213 11.8983C11.2059 11.8836 10.2757 11.8983 9.3455 11.8983Z" fill="#00AAF2"/>
<path d="M3.18894 12.3932H5.27078C5.49225 12.3932 5.58822 12.4671 5.58822 12.6959V16.8005C5.58822 17.0368 5.48487 17.0589 5.27078 17.0368C3.89027 16.8301 2.50976 16.6307 1.13664 16.4388C0.863491 16.3945 0.774902 16.3059 0.774902 16.018C0.789667 14.9254 0.789667 13.8328 0.774902 12.7181C0.774902 12.4449 0.848726 12.3711 1.12187 12.3711C1.8232 12.3932 2.495 12.3932 3.18894 12.3932Z" fill="#00AAF2"/>
<path d="M3.18932 11.8987H1.13701C0.878628 11.8987 0.790039 11.8101 0.790039 11.5369C0.804804 10.4591 0.804804 9.38127 0.790039 8.29606C0.790039 8.03767 0.863863 7.94908 1.13701 7.90479C2.51752 7.72761 3.89803 7.52829 5.27115 7.30682C5.58859 7.26252 5.61812 7.36588 5.61812 7.62426V11.5517C5.61812 11.8396 5.50001 11.8839 5.24162 11.8839C4.55506 11.8839 3.86111 11.8987 3.18932 11.8987Z" fill="#00AAF2"/>
<path d="M17.666 8.6128C17.6512 8.39133 17.6364 8.10341 17.6364 7.89671H17.6217C17.5774 8.08865 17.4888 8.3175 17.415 8.53897L17.127 9.33627H16.9646L16.7062 8.55374C16.6324 8.34703 16.5734 8.11818 16.5143 7.91147C16.4995 8.10341 16.4995 8.39133 16.4848 8.64233L16.4405 9.34366H16.2485L16.3667 7.68262H16.6398L16.9277 8.49468C17.0015 8.68662 17.0458 8.88595 17.0901 9.06312H17.1049C17.1492 8.90071 17.2082 8.70139 17.2821 8.49468L17.5847 7.68262H17.8579L17.9612 9.34366H17.725L17.666 8.6128Z" fill="#00AAF2"/>
<path d="M18.5222 7.8155C18.5222 7.88932 18.4632 7.94838 18.3893 7.94838H18.3746C18.3008 7.94838 18.2417 7.88932 18.2417 7.8155C18.2417 7.74168 18.3008 7.68262 18.3746 7.68262C18.4632 7.68262 18.5222 7.74168 18.5222 7.8155ZM18.286 9.35104V8.16986H18.5075V9.35104H18.286Z" fill="#00AAF2"/>
<path d="M19.7034 9.29935C19.6 9.34364 19.4819 9.37317 19.3564 9.37317C18.9947 9.37317 18.7584 9.13693 18.7584 8.76043C18.7437 8.41346 18.9947 8.13293 19.3416 8.11816H19.4007C19.5041 8.11816 19.6074 8.13293 19.7034 8.17722L19.6591 8.33964C19.5853 8.31011 19.4967 8.28058 19.4007 8.29534C19.1276 8.29534 18.9799 8.48728 18.9799 8.74567C18.9799 9.03358 19.1571 9.19599 19.4007 9.19599C19.4893 9.19599 19.5779 9.18123 19.6591 9.13693L19.7034 9.29935Z" fill="#00AAF2"/>
<path d="M19.9474 8.52451C19.9474 8.39163 19.9326 8.26613 19.9326 8.16277H20.1246L20.1393 8.39901H20.1541C20.1984 8.25136 20.3313 8.14062 20.4863 8.14062C20.5011 8.14062 20.5306 8.14063 20.5454 8.15539V8.34733C20.5306 8.33257 20.5011 8.33257 20.4715 8.33257C20.3239 8.33257 20.2131 8.45069 20.1836 8.62048C20.1836 8.65001 20.1689 8.67954 20.1689 8.70907V9.35134H19.9621L19.9474 8.52451Z" fill="#00AAF2"/>
<path d="M21.8221 8.74567C21.8368 9.06311 21.6006 9.34364 21.2831 9.35841H21.2389C20.9214 9.35841 20.6704 9.12217 20.6704 8.74567C20.6704 8.33964 20.9436 8.11816 21.2684 8.11816C21.5637 8.11816 21.8221 8.37655 21.8221 8.74567ZM20.8771 8.74567C20.8771 8.9819 20.9952 9.19599 21.2389 9.19599C21.4751 9.19599 21.6006 8.97452 21.6006 8.74567C21.6006 8.53896 21.512 8.28058 21.2389 8.28058C20.9509 8.29534 20.8771 8.53896 20.8771 8.74567Z" fill="#00AAF2"/>
<path d="M22.0584 9.12217C22.147 9.18123 22.2356 9.21076 22.3463 9.21076C22.494 9.21076 22.5678 9.13693 22.5678 9.03358C22.5678 8.94499 22.5087 8.88593 22.3463 8.81211C22.1396 8.73829 22.0289 8.62017 22.0289 8.46514C22.0289 8.27319 22.1765 8.11816 22.4349 8.11816C22.5383 8.11816 22.6416 8.14769 22.7376 8.19199L22.6933 8.33964C22.6195 8.29534 22.5309 8.26581 22.457 8.26581C22.3537 8.25105 22.2651 8.32487 22.2651 8.42822C22.2651 8.51681 22.3389 8.56111 22.4866 8.62017C22.6785 8.69399 22.804 8.79734 22.804 8.9819C22.804 9.18861 22.6416 9.34364 22.3537 9.34364C22.2356 9.34364 22.1322 9.31411 22.0215 9.25505L22.0584 9.12217Z" fill="#00AAF2"/>
<path d="M24.1404 8.74567C24.1552 9.06311 23.919 9.34364 23.6015 9.35841H23.5572C23.2398 9.35841 22.9888 9.12217 22.9888 8.74567C22.9888 8.33964 23.2619 8.11816 23.5867 8.11816C23.8894 8.11816 24.1404 8.37655 24.1404 8.74567ZM23.2029 8.74567C23.2029 8.9819 23.321 9.19599 23.5646 9.19599C23.8082 9.19599 23.9263 8.97452 23.9263 8.74567C23.9263 8.53896 23.8377 8.28058 23.5646 8.28058C23.2914 8.28058 23.2029 8.53896 23.2029 8.74567Z" fill="#00AAF2"/>
<path d="M24.428 9.35154V8.318H24.2656V8.15559H24.428V8.09653C24.4133 7.94888 24.4576 7.79385 24.5609 7.67574C24.6347 7.60191 24.7381 7.55762 24.8488 7.55762C24.9079 7.55762 24.967 7.57238 25.026 7.58715L24.9965 7.74956C24.9522 7.73479 24.9079 7.72003 24.8636 7.72003C24.6864 7.72003 24.6421 7.88244 24.6421 8.067V8.14083H24.93V8.30324H24.6421V9.32201L24.428 9.35154Z" fill="#00AAF2"/>
<path d="M25.4176 7.80078V8.14775H25.735V8.31017H25.4176V8.95243C25.4176 9.10008 25.4619 9.17391 25.58 9.17391C25.6243 9.17391 25.6686 9.17391 25.6981 9.15914L25.7129 9.32155C25.6538 9.35108 25.5948 9.35108 25.5209 9.35108C25.4323 9.35108 25.3585 9.32155 25.2847 9.26249C25.2256 9.17391 25.1961 9.05579 25.2109 8.94505V8.28802H25.0337V8.12561H25.2109V7.83769L25.4176 7.80078Z" fill="#00AAF2"/>
<path d="M17.5329 13.8622L16.9644 15.6192H16.2114L18.1161 10.0381H18.9724L20.8771 15.6118H20.1093L19.5114 13.8548H17.5329V13.8622ZM19.3637 13.3085L18.8248 11.7065C18.7067 11.3448 18.6181 11.0052 18.5369 10.6877H18.5073C18.4335 11.0199 18.3449 11.3595 18.2342 11.6917L17.6953 13.3085H19.3637Z" fill="#00AAF2"/>
<path d="M24.413 15.4792C24.0512 15.6416 23.66 15.7154 23.2613 15.7154C22.0654 15.7154 21.2681 14.8886 21.2681 13.6779C21.2681 12.4672 22.1244 11.5518 23.409 11.5518C23.7559 11.5518 24.0955 11.6108 24.413 11.7585L24.2506 12.3121C23.9922 12.1793 23.6969 12.1202 23.3942 12.1202C22.4788 12.1202 21.9842 12.8068 21.9842 13.6336C21.9842 14.5638 22.5821 15.1322 23.3794 15.1322C23.6821 15.1322 23.9922 15.0732 24.2653 14.9403L24.413 15.4792Z" fill="#00AAF2"/>
<path d="M26.2592 10.4736V11.6253H27.2927V12.1642H26.2592V14.3199C26.2592 14.8145 26.3921 15.1024 26.7981 15.1024C26.931 15.1024 27.086 15.0876 27.2189 15.0581L27.2484 15.597C27.1155 15.6708 26.8867 15.7004 26.5914 15.7004C26.2887 15.7151 26.0082 15.597 25.8089 15.3977C25.6169 15.1615 25.5357 14.8292 25.5357 14.3494V12.1642H24.9082V11.6253H25.5209V10.6508L26.2592 10.4736Z" fill="#00AAF2"/>
<path d="M28.9238 10.5028C28.9238 10.7391 28.7466 10.9384 28.503 10.9532H28.4735C28.2372 10.9532 28.0379 10.776 28.0379 10.5471V10.5176C28.0231 10.2814 28.2151 10.0673 28.4587 10.0673H28.4882C28.7319 10.0377 28.9238 10.2444 28.9238 10.5028C28.9238 10.4881 28.9238 10.4881 28.9238 10.5028ZM28.1191 15.6262V11.625H28.8352V15.6114H28.1191V15.6262Z" fill="#00AAF2"/>
<path d="M30.3336 11.625L31.1162 13.8766C31.249 14.2384 31.3524 14.578 31.4484 14.9102H31.4779C31.5665 14.578 31.6846 14.2384 31.8101 13.8766L32.5926 11.625H33.3604L31.788 15.6115H31.0866L29.5732 11.625H30.3336Z" fill="#00AAF2"/>
<path d="M34.3498 13.7513C34.3646 14.7405 34.9921 15.1466 35.7156 15.1466C36.2397 15.1466 36.5719 15.058 36.8229 14.9398L36.941 15.464C36.5202 15.6412 36.0699 15.7371 35.6048 15.7224C34.3794 15.7224 33.6411 14.8956 33.6411 13.6996C33.6411 12.4889 34.3424 11.5439 35.531 11.5439C36.8377 11.5439 37.1773 12.6808 37.1773 13.4191C37.1773 13.5372 37.1625 13.6405 37.1477 13.766H34.3498V13.7513ZM36.476 13.2271C36.4907 12.7768 36.284 12.0607 35.4719 12.0607C34.7411 12.0607 34.4089 12.7325 34.3498 13.2271H36.476Z" fill="#00AAF2"/>
<path d="M39.8502 10.1269C40.3596 10.0531 40.869 10.0088 41.3931 10.0088C42.4267 10.0088 43.1649 10.245 43.6448 10.7101C44.1394 11.1604 44.4273 11.8175 44.4273 12.7034C44.4273 13.6188 44.1394 14.3496 43.6152 14.8738C43.0911 15.3979 42.2347 15.6858 41.1569 15.6858C40.7213 15.6858 40.271 15.6711 39.8354 15.612L39.8502 10.1269ZM40.5885 15.0583C40.8247 15.0879 41.0683 15.1026 41.3045 15.1026C42.8475 15.1026 43.6891 14.2463 43.6891 12.7329C43.7038 11.4114 42.9582 10.592 41.4374 10.592C41.1495 10.592 40.869 10.6215 40.5811 10.6658L40.5885 15.0583Z" fill="#00AAF2"/>
<path d="M46.1762 10.5028C46.1762 10.7391 45.9991 10.9384 45.7554 10.9532H45.7259C45.4897 10.9532 45.2903 10.776 45.2903 10.5471V10.5176C45.2756 10.2814 45.4675 10.0673 45.7111 10.0673H45.7407C45.9695 10.0377 46.1762 10.2444 46.1762 10.5028C46.1762 10.4881 46.1762 10.4881 46.1762 10.5028ZM45.3568 15.6262V11.625H46.0729V15.6114H45.3568V15.6262Z" fill="#00AAF2"/>
<path d="M47.2839 12.8733C47.2839 12.4082 47.2692 12.0022 47.2544 11.6257H47.8967L47.9262 12.4082H47.9557C48.1477 11.8693 48.598 11.5371 49.0778 11.5371C49.1517 11.5371 49.2107 11.5371 49.2698 11.5519V12.2384C49.196 12.2237 49.1221 12.2089 49.0336 12.2089C48.5094 12.2089 48.1624 12.6002 48.0591 13.1391C48.0295 13.2424 48.0295 13.3606 48.0295 13.4713V15.6122H47.3135L47.2839 12.8733Z" fill="#00AAF2"/>
<path d="M50.3181 13.7513C50.3328 14.7405 50.9604 15.1466 51.6838 15.1466C52.208 15.1466 52.5402 15.058 52.7912 14.9398L52.9093 15.464C52.4885 15.6412 52.0382 15.7371 51.5731 15.7224C50.3476 15.7224 49.6094 14.8956 49.6094 13.6996C49.6094 12.4889 50.3107 11.5439 51.4993 11.5439C52.8059 11.5439 53.1455 12.6808 53.1455 13.4191C53.1455 13.5372 53.1308 13.6405 53.116 13.766H50.3181V13.7513ZM52.4442 13.2271C52.459 12.7768 52.2523 12.0607 51.4402 12.0607C50.7094 12.0607 50.3771 12.7325 50.3181 13.2271H52.4442Z" fill="#00AAF2"/>
<path d="M56.8959 15.4792C56.5341 15.6416 56.1429 15.7154 55.7442 15.7154C54.5483 15.7154 53.751 14.8886 53.751 13.6779C53.751 12.4672 54.6073 11.5518 55.8919 11.5518C56.2388 11.5518 56.5784 11.6108 56.8959 11.7585L56.7335 12.3121C56.4751 12.1793 56.1798 12.1202 55.8771 12.1202C54.9617 12.1202 54.4671 12.8068 54.4671 13.6336C54.4671 14.5638 55.065 15.1322 55.8623 15.1322C56.165 15.1322 56.4751 15.0732 56.7482 14.9403L56.8959 15.4792Z" fill="#00AAF2"/>
<path d="M58.7415 10.4736V11.6253H59.775V12.1642H58.7415V14.3199C58.7415 14.8145 58.8744 15.1024 59.2804 15.1024C59.4133 15.1024 59.5683 15.0876 59.7012 15.0581L59.7307 15.597C59.5978 15.6708 59.369 15.7004 59.0737 15.7004C58.771 15.7151 58.4905 15.597 58.2912 15.3977C58.0992 15.1615 58.018 14.8292 58.018 14.3494V12.1642H57.4053V11.6253H58.018V10.6508L58.7415 10.4736Z" fill="#00AAF2"/>
<path d="M64.1676 13.6189C64.1676 15.088 63.0897 15.7155 62.1595 15.7155C61.1112 15.7155 60.2549 14.933 60.2549 13.6337C60.2549 12.2975 61.1703 11.5371 62.2481 11.5371C63.3703 11.5371 64.1676 12.3344 64.1676 13.6189ZM61.0005 13.6337C61.0005 14.4458 61.4065 15.1619 62.2112 15.1619C63.0085 15.1619 63.4367 14.4458 63.4367 13.6189C63.4367 12.9176 63.1045 12.0613 62.2112 12.0613C61.3179 12.0613 61.0005 12.9176 61.0005 13.6337Z" fill="#00AAF2"/>
<path d="M65.0827 12.8733C65.0827 12.4082 65.068 12.0022 65.0532 11.6257H65.6955L65.725 12.4082H65.7545C65.9465 11.8693 66.3968 11.5371 66.8767 11.5371C66.9505 11.5371 67.0096 11.5371 67.0686 11.5519V12.2384C66.9948 12.2237 66.921 12.2089 66.8324 12.2089C66.3082 12.2089 65.9613 12.6002 65.8579 13.1391C65.8284 13.2424 65.8284 13.3606 65.8284 13.4713V15.6122H65.1123L65.0827 12.8733Z" fill="#00AAF2"/>
<path d="M68.2571 11.625L69.1283 13.98C69.2169 14.2384 69.3202 14.5484 69.3867 14.8068H69.4014C69.4752 14.5706 69.5491 14.2679 69.6598 13.98L70.4571 11.625H71.2249L70.1323 14.4746C69.6081 15.8403 69.2611 16.5564 68.7665 16.992C68.5081 17.2135 68.2128 17.3685 67.8806 17.4571L67.7035 16.8444C67.9397 16.7705 68.1538 16.6524 68.3457 16.4826C68.6041 16.2611 68.8108 15.988 68.9437 15.6706C68.9732 15.6115 69.0028 15.5524 69.0028 15.4934C69.0028 15.4195 68.9732 15.3605 68.9437 15.3014L67.4746 11.6324H68.2571V11.625Z" fill="#00AAF2"/>
</svg>
