<svg width="72" height="24" viewBox="0 0 72 24" fill="none" xmlns="http://www.w3.org/2000/svg">
    <path d="M67.9851 15.0982V13.6125H67.4744C66.9172 13.6125 66.7895 13.5313 66.7895 13.1366V9.0509H67.9967V7.66966H66.7895V5.66162H64.7235V7.66966H63.6904V9.0509H64.7235V13.0322C64.7235 14.5759 65.0949 15.133 66.8127 15.133C67.0217 15.1447 67.4163 15.1098 67.9851 15.0982Z" fill="#231F20"/>
    <path d="M56.1226 15.0517H58.2118V10.6759C58.2118 9.70085 58.8386 9.12049 59.8136 9.12049C60.7074 9.12049 61.0208 9.59639 61.0208 10.5946V15.0517H63.1101V10.0259C63.1101 8.33121 62.2627 7.48389 60.5449 7.48389C59.5583 7.48389 58.769 7.84371 58.177 8.55175V7.68121H56.1342V15.0517H56.1226Z" fill="#231F20"/>
    <path d="M54.8456 5.06964H52.7563V6.85714H54.8456V5.06964Z" fill="#231F20"/>
    <path d="M54.8456 7.66962H52.7563V15.0402H54.8456V7.66962Z" fill="#231F20"/>
    <path d="M46.1633 11.3491C46.1633 9.87497 46.8365 9.07408 47.9972 9.07408C49.1579 9.07408 49.8195 9.87497 49.8195 11.3491C49.8195 12.8232 49.1579 13.6357 47.9972 13.6357C46.8365 13.6357 46.1633 12.8232 46.1633 11.3491ZM44.0508 11.3491C44.0508 13.8098 45.5481 15.2955 47.9972 15.2955C50.4463 15.2955 51.9436 13.8098 51.9436 11.3491C51.9436 8.88836 50.4463 7.40265 47.9972 7.40265C45.5481 7.40265 44.0508 8.88836 44.0508 11.3491Z" fill="#231F20"/>
    <path d="M41.3117 11.4072C41.3117 12.7768 40.6501 13.5893 39.6287 13.5893C38.526 13.5893 37.8876 12.8116 37.8876 11.4072C37.8876 9.89824 38.4912 9.12056 39.5938 9.12056C40.6733 9.12056 41.3117 9.90985 41.3117 11.4072ZM35.8447 18H37.876V14.1232C38.3867 14.8893 39.1876 15.284 40.1858 15.284C42.0081 15.284 43.3894 13.7402 43.3894 11.3143C43.3894 8.95806 42.0429 7.41431 40.1626 7.41431C39.1528 7.41431 38.4447 7.80895 37.8412 8.66788V7.66967H35.8563V18H35.8447Z" fill="#231F20"/>
    <path d="M31.6079 15.0518H33.6508V9.0625H34.9392V7.68125H33.6276V7.17054C33.6276 6.69464 33.8133 6.61339 34.3936 6.61339H34.9392V5.04643C34.5678 5.02321 34.2544 5 33.941 5C32.3392 5 31.6079 5.61518 31.6079 6.99643V7.68125H30.4937V9.0625H31.6079V15.0518Z" fill="#231F20"/>
    <path d="M24.5857 11.3491C24.5857 9.87497 25.2589 9.07408 26.4196 9.07408C27.5804 9.07408 28.242 9.87497 28.242 11.3491C28.242 12.8232 27.5804 13.6357 26.4196 13.6357C25.2589 13.6473 24.5857 12.8232 24.5857 11.3491ZM22.4732 11.3491C22.4732 13.8098 23.9705 15.2955 26.4196 15.2955C28.8687 15.2955 30.3661 13.8098 30.3661 11.3491C30.3661 8.88836 28.8687 7.40265 26.4196 7.40265C23.9589 7.41426 22.4616 8.89997 22.4732 11.3491Z" fill="#231F20"/>
    <path d="M16.2053 11.3491C16.2053 9.87497 16.8785 9.07408 18.0392 9.07408C19.1999 9.07408 19.8615 9.87497 19.8615 11.3491C19.8615 12.8232 19.1999 13.6357 18.0392 13.6357C16.8785 13.6357 16.2053 12.8232 16.2053 11.3491ZM14.0928 11.3491C14.0928 13.8098 15.5901 15.2955 18.0392 15.2955C20.4883 15.2955 21.9856 13.8098 21.9856 11.3491C21.9856 8.88836 20.4883 7.40265 18.0392 7.40265C15.5901 7.40265 14.0928 8.89997 14.0928 11.3491Z" fill="#231F20"/>
    <path d="M9.36865 15.0518H11.4579V11.1518C11.4579 10.0375 12.0499 9.48033 13.1758 9.48033H13.8606V7.4839C13.7562 7.47229 13.6517 7.47229 13.5472 7.47229C12.549 7.47229 11.841 7.92497 11.2954 8.9464V7.68122H9.36865V15.0518Z" fill="#231F20"/>
    <path d="M6.45536 11.4072C6.45536 12.7768 5.79375 13.5893 4.77232 13.5893C3.66964 13.5893 3.03125 12.8116 3.03125 11.4072C3.03125 9.89824 3.63482 9.12056 4.7375 9.12056C5.84018 9.12056 6.46696 9.90985 6.45536 11.4072ZM1 18H3.01964V14.1232C3.53036 14.8893 4.33125 15.284 5.32946 15.284C7.15179 15.284 8.53304 13.7402 8.53304 11.3143C8.53304 8.95806 7.18661 7.41431 5.30625 7.41431C4.29643 7.41431 3.58839 7.80895 2.98482 8.66788V7.66967H1V18Z" fill="#231F20"/>
    <path d="M70.6429 14.4366C70.6545 14.8893 70.3063 15.2607 69.8536 15.2723C69.4009 15.2839 69.0295 14.9357 69.0179 14.483C69.0063 14.0303 69.3545 13.6589 69.8072 13.6473C69.8188 13.6473 69.8304 13.6473 69.842 13.6473C70.2714 13.6357 70.6313 13.9955 70.6429 14.4366ZM69.2152 14.4366C69.2036 14.7732 69.4705 15.0634 69.8072 15.075C69.8188 15.075 69.8188 15.075 69.8304 15.075C70.167 15.075 70.4339 14.7964 70.4339 14.4714C70.4339 14.4598 70.4339 14.4598 70.4339 14.4482C70.4455 14.1116 70.1902 13.8214 69.8536 13.8098C69.517 13.7982 69.2268 14.0536 69.2152 14.3902C69.2152 14.4018 69.2152 14.425 69.2152 14.4366ZM69.7027 14.8544H69.517V14.0652C69.6214 14.042 69.7143 14.0419 69.8188 14.0419C69.9116 14.0303 70.0045 14.0536 70.0973 14.1C70.1438 14.1464 70.1786 14.2044 70.1786 14.2741C70.167 14.3669 70.1089 14.4366 70.0161 14.4598V14.4714C70.0973 14.5062 70.1554 14.5759 70.1554 14.6571C70.167 14.7268 70.1786 14.7964 70.2134 14.8544H70.0161C69.9813 14.7964 69.9697 14.7268 69.958 14.6571C69.9464 14.5643 69.9 14.5295 69.7955 14.5295H69.7027V14.8544ZM69.7027 14.4018H69.7955C69.9 14.4018 69.9813 14.3669 69.9813 14.2857C69.9813 14.2044 69.9232 14.1696 69.8072 14.1696C69.7723 14.1696 69.7375 14.1696 69.7027 14.1812V14.4018Z" fill="#231F20"/>
</svg>
