<?xml version="1.0" encoding="UTF-8"?>
<svg id="Layer_1" xmlns="http://www.w3.org/2000/svg" version="1.1" viewBox="0 0 935 250">
  <!-- Generator: Adobe Illustrator 30.1.0, SVG Export Plug-In . SVG Version: 2.1.1 Build 136)  -->
  <defs>
    <style>
      .st0 {
        fill: #d71920;
      }
    </style>
  </defs>
  <g>
    <g>
      <path d="M243.1,33.4v24.7h40.1v106.7h26.7V58.1h40.3v-24.7s-107.1,0-107.1,0Z"/>
      <path d="M399.5,65.4c-12.5-.8-25.4,1.6-32.7,13.3l-1.7-11.7h-23.4v97.8h26v-45.8c0-6.6,1.1-11.9,3.4-16.2,6.3-11.6,19-12.6,31.3-12.2v-25.1h-3,.1Z"/>
      <path d="M498,94.9c-3.8-11.6-11.7-21-23-25.9-13-5.8-33.4-4.7-45.3,2.8-15.6,9.4-22.8,25.8-22.7,44.5,0,18.3,6.7,34.7,22.3,43.6,12,7.1,31.6,8,45.6,2.9,12.9-4.6,21.9-14.4,24.9-28.3h-25.6c-4,10.6-22.5,11.5-30.9,6.8-6.4-3.6-9.7-10.4-10.5-17.5h67c.8-3.3.9-6.4.9-9.8.1-6.8-.8-13.1-2.7-19h0ZM433.3,105.6c.8-11.5,9.4-19.4,21.5-19.1,12-.4,20.6,7.6,21,19.1h-42.5Z"/>
      <path d="M598.7,87.9c-2.3-6.9-6.1-12.3-11.3-16.4-13.4-10.1-40.7-7.9-52.1,6.9l-1.3-11.3h-24.3v97.8h26v-48.2c0-5.1.8-9.7,2.4-13.9,1.6-4.2,4.1-7.5,7.4-10,5.2-4.2,16.1-5.1,21.7-1.5,2.3,1.5,4.2,3.5,5.5,5.9,2.7,5,3.4,11.4,3.4,17.1v50.7h26v-54c0-8.4-1.2-16.1-3.4-22.9v-.2Z"/>
      <path d="M683.9,33.4v42.7c-6.6-7.7-17.4-10.6-27.3-10.8-30.1-.6-46.3,22.1-46,50.5-.3,26.9,14.6,50.9,44,50.3,11.2,0,22.6-3.3,29.7-12.2l.4,10.9h25.2V33.4h-26ZM681.3,128.8c-3.9,8.8-11.2,14.1-21.5,13.9-11,.3-19.5-6.1-22-16.4-1.9-7.4-1.5-16.1.9-23.2,3.3-9.1,10.7-14.1,21.1-14,10.3,0,17.8,4.4,21.6,13.3,3.3,7.9,3.4,18.5,0,26.4h0Z"/>
      <path d="M860.3,33.4v131.4h26.5V33.4h-26.5Z"/>
      <path d="M822.4,164.8h28.6l-50.7-131.4h-29.7l-51.2,131.4h28.6l9.6-26.5c17.9,4.3,37.3,4.3,55.2,0l9.6,26.6h0ZM765.8,115.5h0l19.7-53.9,19.3,53.8c-14.3,2.5-22.8,2.8-39.1,0h0Z"/>
      <g>
        <path d="M908.6,35.1h-5.3v-1.6h12.4v1.6h-5.3v14.1h-1.8v-14.1h0Z"/>
        <path d="M918.9,33.4h1.8l5.7,8.6,5.7-8.6h1.8v15.7h-1.8v-12.7l-5.7,8.4h0l-5.7-8.4v12.7h-1.7v-15.7h0Z"/>
      </g>
    </g>
    <g>
      <path class="st0" d="M47.9,78.7c8.7,8.9,17.2,19.9,19.2,31.5,3.6-19.9,30.4-47.1,50.5-50.5-19.9-3.2-47.3-30.6-50.5-50.5-3.6,19.7-30.6,47.1-50.5,50.5,11.6,2,22.4,10.3,31.3,19Z"/>
      <path class="st0" d="M206.9,21.6c-20.6-24.6-58.9-17.1-88.5-5.1,47-14.8,90,4.7,67.6,60.4-11.1,27.4-39.1,55.4-66,71.3-14.2,9.1-29.3,16.8-45.9,19.2-25.4,3.5-40.6-9.6-34.2-35.8,1.6-6.4,4.6-12.8,7.5-19.1-4.9-11.5-15.3-23.2-26.5-26.5-6,9.1-10.4,17.3-14.9,30-10.1,27.3-6.8,67.3,27.7,76,63.2,12.6,148.8-54.5,173.2-110.4,10.4-23.6,11.2-45.4,0-59.8v-.2Z"/>
    </g>
  </g>
  <g>
    <path d="M521.4,196.8h9.1l14.2,36.1,14.1-36.1h8.9l-19.5,47.3h-7.4l-19.5-47.3h.1Z"/>
    <path d="M573.7,195.2h8.7v7.7h-8.7v-7.7ZM573.9,208.4h8.2v35.5h-8.2v-35.5Z"/>
    <path d="M589.8,239.2l3.6-5.5c3.9,2.9,8,4.4,11.6,4.4s5.5-1.5,5.5-3.8h0c0-2.9-3.8-3.8-7.9-5.1-5.2-1.5-11.1-3.6-11.1-10.3h0c0-6.9,5.6-11,12.6-11s9.3,1.5,13,4l-3.2,5.8c-3.4-2.1-7.1-3.4-10-3.4s-5,1.5-5,3.5h0c0,2.8,3.8,3.8,8,5.2,5.2,1.6,11,4,11,10.3h0c0,7.6-5.8,11.3-13.2,11.3s-10.6-1.7-15-5.3h.1Z"/>
    <path d="M626.5,195.2h8.7v7.7h-8.7v-7.7ZM626.8,208.4h8.2v35.5h-8.2v-35.5Z"/>
    <path d="M643.6,226.3h0c0-10.3,8.1-18.7,18.9-18.7s18.9,8.3,18.9,18.4h0c0,10.2-8.1,18.6-19,18.6s-18.8-8.3-18.8-18.3h0ZM673.3,226.3h0c0-6.4-4.5-11.5-10.9-11.5s-10.7,5.1-10.7,11.3h0c0,6.3,4.5,11.5,10.8,11.5s10.7-5.1,10.7-11.2h.1Z"/>
    <path d="M689.6,208.4h8.2v5.4c2.3-3.3,5.6-6.2,11.1-6.2,8,0,12.6,5.4,12.6,13.6v22.6h-8.1v-20.1c0-5.5-2.8-8.7-7.6-8.7s-8,3.3-8,8.8v20h-8.2v-35.5h0Z"/>
    <path d="M750.3,220.5h0c0-13.4,10.2-24.4,24.6-24.4s24.5,10.9,24.5,24.2h0c0,13.4-10.2,24.4-24.6,24.4s-24.5-10.9-24.5-24.2ZM790.8,220.5h0c0-9.3-6.6-16.8-16-16.8s-15.8,7.4-15.8,16.5h0c0,9.3,6.6,16.8,16,16.8s15.8-7.4,15.8-16.5Z"/>
    <path d="M808.5,208.4h8.2v5.4c2.3-3.3,5.6-6.2,11.1-6.2,8,0,12.6,5.4,12.6,13.6v22.6h-8.1v-20.1c0-5.5-2.8-8.7-7.6-8.7s-8,3.3-8,8.8v20h-8.2v-35.5h0Z"/>
    <path d="M866.5,238c-5.2,0-9.3-3.2-10.2-9h26.1c0,0,0,0,0,0h0c0-.6,0-1.4,0-2.3,0-10.2-6.9-19.1-17-19.1s-17.3,8.3-17.3,18.6,7.9,18.4,18.2,18.4,11.1-2.6,14.5-6.6l-4.8-4.2c-2.8,2.7-4.4,4.2-9.6,4.2ZM865.5,214.3c5.4,0,8.5,4.1,9,9.3h-18.2c.7-5.5,3.8-9.3,9.2-9.3Z"/>
  </g>
</svg>