<svg width="72" height="24" viewBox="0 0 72 24" fill="none" xmlns="http://www.w3.org/2000/svg">
<g clip-path="url(#clip0_2892_1549)">
<path d="M14.5225 13.176H15.4591C15.4591 13.6377 15.8152 13.9279 16.4303 13.9279C16.9398 13.9279 17.2432 13.7267 17.2432 13.3887C17.2432 12.9864 16.8095 12.9023 16.3066 12.8264C15.5662 12.7192 14.5637 12.589 14.5637 11.5699C14.5637 10.757 15.2332 10.231 16.3116 10.231C17.39 10.231 18.1023 10.8114 18.1023 11.6936H17.202C17.202 11.2385 16.8722 10.9763 16.3429 10.9763C15.8482 10.9763 15.5547 11.1841 15.5547 11.499C15.5547 11.908 16.0279 11.9789 16.5622 12.0564C17.3026 12.1685 18.2326 12.3284 18.2326 13.3293C18.2326 14.1538 17.5285 14.6749 16.4072 14.6749C15.2859 14.6749 14.5357 14.0763 14.5291 13.176M18.4568 13.021C18.4568 12.0729 19.151 11.4331 20.1288 11.4331C21.1067 11.4331 21.758 12.0795 21.758 13.0342C21.7602 13.1228 21.7563 13.2115 21.7464 13.2997H19.3637C19.3876 13.4705 19.4644 13.6296 19.5834 13.7545C19.7024 13.8794 19.8576 13.9638 20.0271 13.9958C20.1967 14.0279 20.3719 14.0059 20.5283 13.9331C20.6847 13.8603 20.8143 13.7402 20.8989 13.5899L21.6541 13.7795C21.4645 14.3253 20.8775 14.6567 20.142 14.6567C19.1527 14.6567 18.4651 13.9972 18.4651 13.021M20.8626 12.7555C20.8414 12.571 20.7531 12.4006 20.6144 12.277C20.4758 12.1534 20.2965 12.085 20.1107 12.085C19.9249 12.085 19.7456 12.1534 19.607 12.277C19.4683 12.4006 19.38 12.571 19.3588 12.7555H20.8626ZM21.9707 13.0457C21.9707 12.0795 22.6418 11.4331 23.6196 11.4331C24.4441 11.4331 25.0707 11.8964 25.1713 12.6121L24.3468 12.7192C24.3072 12.5595 24.2156 12.4175 24.0863 12.3157C23.957 12.2138 23.7974 12.158 23.6328 12.157C23.1876 12.157 22.8496 12.523 22.8496 13.0457C22.8496 13.5684 23.181 13.9362 23.6328 13.9362C23.7991 13.9378 23.9611 13.8839 24.0932 13.7829C24.2252 13.6819 24.3197 13.5397 24.3617 13.3788L25.1861 13.4794C25.0724 14.1967 24.4392 14.6584 23.6279 14.6584C22.6616 14.6584 21.979 14.0071 21.979 13.0474M28.4147 14.5628H27.5375V14.1357H27.4782C27.3901 14.2912 27.2627 14.4207 27.1087 14.5113C26.9547 14.6019 26.7796 14.6504 26.6009 14.6518C25.9133 14.6518 25.4582 14.1175 25.4582 13.3887V11.5287H26.3354V13.265C26.3354 13.6377 26.5482 13.8982 26.9043 13.8982C26.9899 13.8978 27.0745 13.8803 27.1533 13.8468C27.232 13.8133 27.3033 13.7643 27.3628 13.7029C27.4224 13.6415 27.4691 13.5688 27.5003 13.4891C27.5314 13.4093 27.5463 13.3242 27.5441 13.2387V11.5287H28.4147V14.5628ZM28.8814 11.5287H29.7471V11.9426H29.8114C29.8772 11.7997 29.9824 11.6786 30.1148 11.5935C30.2471 11.5085 30.4011 11.4631 30.5584 11.4628C30.6769 11.4625 30.794 11.4884 30.9013 11.5386V12.3268C30.7449 12.2587 30.5771 12.2207 30.4067 12.2147C30.0225 12.2147 29.7619 12.5346 29.7619 13.0029V14.5628H28.8847L28.8814 11.5287ZM31.0976 10.5921C31.0976 10.4522 31.1532 10.318 31.2521 10.219C31.3511 10.12 31.4853 10.0645 31.6252 10.0645C31.7652 10.0645 31.8994 10.12 31.9983 10.219C32.0973 10.318 32.1529 10.4522 32.1529 10.5921C32.1529 10.7321 32.0973 10.8663 31.9983 10.9652C31.8994 11.0642 31.7652 11.1198 31.6252 11.1198C31.4853 11.1198 31.3511 11.0642 31.2521 10.9652C31.1532 10.8663 31.0976 10.7321 31.0976 10.5921ZM31.1866 11.5287H32.0638V14.5628H31.1866V11.5287ZM32.7795 13.5849V12.1685H32.3541V11.5287H32.8042L32.9691 10.5674H33.6567V11.5287H34.3509V12.1685H33.6567V13.5487C33.6512 13.6041 33.6577 13.6601 33.6758 13.7129C33.6938 13.7656 33.723 13.8139 33.7613 13.8544C33.7996 13.8949 33.8461 13.9267 33.8978 13.9476C33.9495 13.9685 34.005 13.9781 34.0607 13.9757C34.1662 13.9722 34.2712 13.9584 34.374 13.9345V14.5628C34.1823 14.6229 33.9829 14.6545 33.782 14.6567C33.1719 14.6567 32.7795 14.2247 32.7795 13.5849ZM34.8357 15.8242V15.1201C34.9795 15.1756 35.1318 15.2057 35.2859 15.2091C35.6717 15.2091 35.8135 14.8793 35.9322 14.5924L34.5158 11.5287H35.4574L36.2703 13.4662H36.3296L36.9892 11.5287H37.9027L36.7287 14.6617C36.4451 15.4334 36.1252 15.9248 35.4722 15.9248C35.2583 15.9237 35.0461 15.8875 34.844 15.8176M38.277 13.176H39.2136C39.2136 13.6377 39.5682 13.9279 40.1849 13.9279C40.6944 13.9279 40.9961 13.7267 40.9961 13.3887C40.9961 12.9864 40.5641 12.9023 40.0612 12.8264C39.3192 12.7192 38.3183 12.589 38.3183 11.5699C38.3183 10.757 38.9877 10.231 40.0661 10.231C41.1445 10.231 41.8569 10.8114 41.8569 11.6936H40.9467C40.9467 11.2385 40.6169 10.9763 40.0876 10.9763C39.5929 10.9763 39.2994 11.1841 39.2994 11.499C39.2994 11.908 39.7726 11.9789 40.3069 12.0564C41.0472 12.1685 41.9772 12.3284 41.9772 13.3293C41.9772 14.1538 41.2715 14.6749 40.1519 14.6749C39.0322 14.6749 38.2787 14.0763 38.2737 13.176M42.2114 13.0457C42.2114 12.0795 42.8809 11.4331 43.8603 11.4331C44.6848 11.4331 45.313 11.8964 45.4136 12.6121L44.5892 12.7192C44.5486 12.5581 44.4553 12.4152 44.3241 12.3133C44.1929 12.2114 44.0314 12.1564 43.8653 12.157C43.4217 12.157 43.0837 12.523 43.0837 13.0457C43.0837 13.5684 43.4201 13.9362 43.8653 13.9362C44.0315 13.9378 44.1936 13.8839 44.3256 13.7829C44.4577 13.6819 44.5522 13.5397 44.5941 13.3788L45.4186 13.4794C45.3064 14.1967 44.6733 14.6584 43.8603 14.6584C42.8941 14.6584 42.2114 14.0071 42.2114 13.0474M45.6247 13.0457C45.6247 12.0679 46.2942 11.4331 47.3083 11.4331C48.3223 11.4331 48.9902 12.0679 48.9902 13.0457C48.9902 14.0235 48.3158 14.6567 47.3083 14.6567C46.3008 14.6567 45.6247 14.0235 45.6247 13.0457ZM48.108 13.0457C48.108 12.5412 47.7782 12.1866 47.3083 12.1866C46.8383 12.1866 46.5019 12.5412 46.5019 13.0457C46.5019 13.5503 46.8317 13.9098 47.3083 13.9098C47.7848 13.9098 48.108 13.5487 48.108 13.0457ZM49.3101 11.5287H50.1807V11.9426H50.2467C50.3121 11.8004 50.4166 11.6798 50.548 11.5949C50.6794 11.5099 50.8322 11.4641 50.9887 11.4628C51.1072 11.4627 51.2242 11.4886 51.3317 11.5386V12.3268C51.1753 12.2587 51.0074 12.2207 50.837 12.2147C50.4511 12.2147 50.1906 12.5346 50.1906 13.0029V14.5628H49.3134L49.3101 11.5287ZM51.3795 13.021C51.3795 12.0729 52.072 11.4331 53.0499 11.4331C54.0277 11.4331 54.6807 12.0795 54.6807 13.0342C54.6831 13.1229 54.6787 13.2116 54.6675 13.2997H52.2864C52.3107 13.47 52.3876 13.6285 52.5065 13.7529C52.6254 13.8774 52.7802 13.9615 52.9493 13.9935C53.1184 14.0255 53.2933 14.0037 53.4494 13.9314C53.6055 13.859 53.7351 13.7396 53.8199 13.5899L54.5669 13.7795C54.3772 14.3253 53.7902 14.6567 53.0564 14.6567C52.0671 14.6567 51.3795 13.9972 51.3795 13.021ZM53.7853 12.7555C53.7625 12.5719 53.6734 12.403 53.5348 12.2805C53.3962 12.158 53.2175 12.0904 53.0325 12.0904C52.8475 12.0904 52.6689 12.158 52.5303 12.2805C52.3917 12.403 52.3026 12.5719 52.2798 12.7555H53.7853ZM54.8934 13.0457C54.8934 12.0795 55.5628 11.4331 56.5423 11.4331C57.3668 11.4331 57.9934 11.8964 58.0956 12.6121L57.2711 12.7192C57.2306 12.5581 57.1373 12.4152 57.0061 12.3133C56.8749 12.2114 56.7134 12.1564 56.5472 12.157C56.1037 12.157 55.7657 12.523 55.7657 13.0457C55.7657 13.5684 56.0954 13.9345 56.5407 13.9345C56.7071 13.9363 56.8694 13.8824 57.0017 13.7814C57.1341 13.6805 57.2289 13.5382 57.2711 13.3772L58.0956 13.4778C57.9835 14.195 57.3486 14.6567 56.5373 14.6567C55.5711 14.6567 54.8884 14.0054 54.8884 13.0457M58.2292 13.7713C58.2292 13.2024 58.709 12.8528 59.6637 12.7341L60.3101 12.6582V12.5329C60.3101 12.2427 60.1073 12.0465 59.7577 12.0465C59.4378 12.0465 59.2185 12.2246 59.2251 12.5263H58.366C58.366 11.8667 58.9168 11.4364 59.7709 11.4364C60.6251 11.4364 61.1857 11.875 61.1857 12.5626V14.5628H60.3101V14.1769H60.2508C60.0611 14.4787 59.7116 14.6386 59.2779 14.6386C58.6562 14.6386 58.2292 14.3088 58.2292 13.768M60.3101 13.4003V13.1875L59.6868 13.265C59.2548 13.3178 59.0883 13.4893 59.0883 13.6971C59.0883 13.9048 59.2663 14.0648 59.5681 14.0648C60.0067 14.0648 60.3101 13.7795 60.3101 13.4052M61.6012 11.5287H62.4669V11.9426H62.5312C62.597 11.7997 62.7023 11.6786 62.8346 11.5935C62.967 11.5085 63.1209 11.4631 63.2782 11.4628C63.3967 11.4624 63.5139 11.4883 63.6212 11.5386V12.3268C63.4648 12.2587 63.297 12.2207 63.1265 12.2147C62.7407 12.2147 62.4801 12.5346 62.4801 13.0029V14.5628H61.6029L61.6012 11.5287ZM63.669 13.0457C63.669 12.086 64.2742 11.4331 65.097 11.4331C65.2849 11.4253 65.4718 11.4646 65.6405 11.5476C65.8093 11.6305 65.9547 11.7544 66.0633 11.908H66.1226V10.165H66.9999V14.5628H66.1226V14.1769H66.0633C65.9575 14.3321 65.8138 14.4576 65.6458 14.5416C65.4778 14.6256 65.2912 14.6652 65.1036 14.6567C64.2676 14.6567 63.669 14.012 63.669 13.0457ZM66.1523 13.0457C66.1593 12.9359 66.1438 12.8259 66.1066 12.7223C66.0695 12.6188 66.0114 12.524 65.9362 12.4438C65.8609 12.3635 65.77 12.2996 65.6691 12.2558C65.5681 12.2121 65.4593 12.1896 65.3493 12.1896C65.2393 12.1896 65.1304 12.2121 65.0295 12.2558C64.9285 12.2996 64.8376 12.3635 64.7624 12.4438C64.6871 12.524 64.6291 12.6188 64.5919 12.7223C64.5547 12.8259 64.5392 12.9359 64.5462 13.0457C64.5392 13.1555 64.5547 13.2656 64.5919 13.3691C64.6291 13.4727 64.6871 13.5675 64.7624 13.6477C64.8376 13.7279 64.9285 13.7919 65.0295 13.8356C65.1304 13.8793 65.2393 13.9019 65.3493 13.9019C65.4593 13.9019 65.5681 13.8793 65.6691 13.8356C65.77 13.7919 65.8609 13.7279 65.9362 13.6477C66.0114 13.5675 66.0695 13.4727 66.1066 13.3691C66.1438 13.2656 66.1593 13.1555 66.1523 13.0457Z" fill="#001522"/>
<path d="M11.106 9.29936L10.4629 9.67037L9.4983 10.2261L10.4629 10.7834L11.106 11.1544L12.7121 12.0811V10.2261L11.106 9.29936ZM8.85686 8L7.24915 8.92835V10.7834L8.21378 10.2261L8.85686 9.85505L10.4629 8.92835L8.85686 8ZM5 10.2261V12.0811L5.64309 12.4521L6.60606 13.0095V9.29936L5 10.2261ZM7.24915 14.1225L6.60606 13.7515L5 12.8231V14.6798L6.60606 15.6065L7.24915 15.2355L8.21378 14.6798L7.24915 14.1225ZM9.4983 14.6798L8.85686 15.0509L7.24915 15.9776L8.85686 16.9059L10.4629 15.9776V14.1225L9.4983 14.6798ZM12.0706 12.4521L11.106 11.8964V15.6065L12.7121 14.6798V12.8231L12.0706 12.4521ZM9.65989 13.8438L10.4629 13.3805V11.5254L8.85686 10.5971L7.24915 11.5254V13.3805L8.85686 14.3088L9.65989 13.8438Z" fill="#673EF3"/>
</g>
<defs>
<clipPath id="clip0_2892_1549">
<rect width="62" height="8.9059" fill="white" transform="translate(5 8)"/>
</clipPath>
</defs>
</svg>
