<svg width="72" height="24" viewBox="0 0 72 24" fill="none" xmlns="http://www.w3.org/2000/svg">
    <g clip-path="url(#clip0_2530_1390)">
        <path d="M36.1191 7.72214C33.8884 7.72214 31.9515 8.93479 30.9727 10.7149C29.9939 8.93472 28.0571 7.72227 25.8266 7.72227C24.5155 7.72227 23.3057 8.14109 22.3323 8.84795V4.10344H22.3318C22.3182 3.49203 21.8022 3 21.1666 3C20.5308 3 20.015 3.49203 20.0015 4.10344H20.001V13.4482H20.0034C20.0552 16.5157 22.6416 18.9877 25.8265 18.9877C28.057 18.9877 29.9939 17.7748 30.9727 15.9947C31.9515 17.775 33.8884 18.9875 36.1189 18.9875C39.3363 18.9875 41.9445 16.4655 41.9445 13.3549C41.9446 10.2439 39.3362 7.72214 36.1191 7.72214ZM25.8265 16.7334C23.8966 16.7334 22.3323 15.2208 22.3323 13.3549C22.3323 11.4888 23.8967 9.97629 25.8265 9.97629C27.7564 9.97629 29.3208 11.4888 29.3208 13.3549C29.3208 15.2208 27.7564 16.7334 25.8265 16.7334ZM36.1191 16.7334C34.1891 16.7334 32.6248 15.2208 32.6248 13.3548C32.6248 11.4887 34.1892 9.97629 36.1191 9.97629C38.0488 9.97629 39.6134 11.4887 39.6134 13.3548C39.6133 15.2208 38.0488 16.7334 36.1191 16.7334Z" fill="#0075C9"/>
        <path d="M49.7808 17.2149L46.7974 13.359L49.7808 9.50303L49.7803 9.50258C50.1493 9.00578 50.0424 8.31282 49.534 7.94355C49.0258 7.57467 48.3077 7.66835 47.9171 8.14937L47.9168 8.14924L45.3419 11.4773L42.7669 8.14924L42.7665 8.14983C42.3759 7.66835 41.6579 7.57467 41.1495 7.94381C40.6411 8.31308 40.5342 9.00604 40.9034 9.50271L40.9029 9.50303L43.8863 13.359L40.9029 17.2149L40.9034 17.2152C40.5341 17.712 40.6411 18.4048 41.1495 18.774C41.6579 19.1432 42.3759 19.0494 42.7665 18.5683L42.7669 18.5687L45.3419 15.2405L47.9168 18.5687L47.9171 18.5686C48.3078 19.0495 49.0258 19.1432 49.534 18.7742C50.0424 18.4051 50.1493 17.7121 49.7803 17.2154L49.7808 17.2149Z" fill="#0075C9"/>
    </g>
    <defs>
        <clipPath id="clip0_2530_1390">
            <rect width="30" height="16" fill="white" transform="translate(20 3)"/>
        </clipPath>
    </defs>
</svg>
