<svg width="72" height="24" viewBox="0 0 72 24" fill="none" xmlns="http://www.w3.org/2000/svg">
    <path d="M21.2603 12.182C20.5283 11.9808 20.1526 11.6331 20.1526 11.1503C20.1526 10.5523 20.7162 10.1301 21.4898 10.1301C22.29 10.1301 22.7964 10.5428 22.8261 11.2048H24.7784C24.7465 9.53045 23.4411 8.40674 21.5133 8.40674C19.5854 8.40674 18.1853 9.58075 18.1853 11.201C18.1853 12.485 19.0271 13.3856 20.6821 13.8856L21.8784 14.2089C22.7646 14.4552 23.1315 14.791 23.1106 15.3558C23.0973 16.0062 22.5107 16.4305 21.6041 16.4305C20.6178 16.4305 20.1251 15.8622 20.0706 15.2797H18.0923C18.1282 16.9541 19.5589 18.1045 21.6002 18.1045C23.2511 18.1045 25.0513 17.2447 25.0801 15.3661C25.1205 13.9987 24.2285 13.0447 22.4216 12.5422L21.2603 12.182Z" fill="#EBEBEB"/>
    <path d="M28.9257 11.4658C28.0382 11.4899 27.1955 11.8488 26.5765 12.4663C25.9576 13.0838 25.6113 13.9112 25.6113 14.7725C25.6113 15.6338 25.9576 16.4612 26.5765 17.0787C27.1955 17.6962 28.0382 18.0551 28.9257 18.0791C29.4729 18.0791 30.4268 17.8212 30.8141 17.2482L30.9372 17.0663V17.9497H32.7787V11.6034H30.943V12.4631L30.8199 12.2942C30.2372 11.4895 29.0573 11.4658 28.9257 11.4658ZM29.1224 16.3777C28.8987 16.3883 28.6752 16.3548 28.4653 16.2791C28.2554 16.2034 28.0635 16.0871 27.9013 15.9373C27.7391 15.7876 27.61 15.6073 27.5218 15.4076C27.4335 15.2079 27.388 14.993 27.388 14.7757C27.388 14.5584 27.4335 14.3435 27.5218 14.1438C27.61 13.9441 27.7391 13.7639 27.9013 13.6141C28.0635 13.4643 28.2554 13.348 28.4653 13.2723C28.6752 13.1966 28.8987 13.1631 29.1224 13.1737C29.3415 13.1703 29.5592 13.2091 29.7626 13.2881C29.9661 13.367 30.1513 13.4845 30.3075 13.6335C30.4637 13.7827 30.5878 13.9604 30.6725 14.1565C30.7572 14.3526 30.8008 14.5631 30.8008 14.7757C30.8008 14.9883 30.7572 15.1988 30.6725 15.3949C30.5878 15.591 30.4637 15.7688 30.3075 15.9179C30.1513 16.0669 29.9661 16.1844 29.7626 16.2634C29.5592 16.3423 29.3415 16.3811 29.1224 16.3777Z" fill="#EBEBEB"/>
    <path d="M35.7121 11.6047H33.8716V17.9563H35.7121V11.6047Z" fill="#EBEBEB"/>
    <path d="M38.6712 8.53198H36.8223V17.952H38.6712V8.53198Z" fill="#EBEBEB"/>
    <path d="M43.7005 8.52246H39.7212V17.9541H41.6942V14.6534H43.7045C46.0468 14.6534 46.8838 13.0066 46.8838 11.5935C46.8793 9.47293 45.2833 8.52246 43.7005 8.52246ZM43.5995 13.0044H41.6902V10.1809H43.6633C44.5266 10.1809 44.9169 11.005 44.9169 11.5897C44.9271 11.7662 44.9014 11.9431 44.8411 12.11C44.7809 12.2769 44.6869 12.4306 44.5651 12.5621C44.4433 12.6936 44.2957 12.8004 44.1309 12.8764C43.9665 12.9523 43.7878 12.9958 43.6057 13.0044H43.5995Z" fill="#EBEBEB"/>
    <path d="M50.1417 11.4658C49.4687 11.4657 48.8107 11.6594 48.2511 12.0223C47.6915 12.3852 47.255 12.9009 46.998 13.5044C46.7406 14.1079 46.6733 14.7718 46.8049 15.4123C46.9369 16.0528 47.2612 16.6409 47.738 17.1023C48.2143 17.5637 48.8209 17.8776 49.4811 18.0043C50.1417 18.1311 50.8258 18.0649 51.4475 17.8141C52.0691 17.5634 52.5999 17.1394 52.973 16.5958C53.3461 16.0522 53.5446 15.4135 53.5433 14.7604C53.5592 14.3231 53.4821 13.8874 53.3164 13.4803C53.1511 13.0733 52.9012 12.7037 52.5818 12.3946C52.2628 12.0855 51.8813 11.8435 51.4617 11.6836C51.0416 11.5239 50.5923 11.4497 50.1417 11.4658ZM50.1417 16.3088C49.8276 16.3107 49.5196 16.2221 49.2573 16.0543C48.9946 15.8865 48.7894 15.6469 48.6671 15.366C48.5453 15.085 48.5116 14.7752 48.5706 14.4758C48.6299 14.1763 48.7792 13.9005 48.9999 13.6834C49.221 13.4663 49.5028 13.3175 49.8107 13.2558C50.1187 13.1942 50.4381 13.2225 50.7297 13.3371C51.0208 13.4517 51.2707 13.6475 51.447 13.8998C51.6238 14.1521 51.7195 14.4495 51.7218 14.7544C51.7306 14.95 51.6996 15.1454 51.6305 15.3295C51.5614 15.5135 51.4559 15.6825 51.3194 15.8268C51.183 15.9712 51.0186 16.088 50.8356 16.1708C50.6526 16.2535 50.4545 16.3004 50.2529 16.3088H50.1417Z" fill="#EBEBEB"/>
    <path d="M56.0851 11.6047H54.2437V17.9563H56.0851V11.6047Z" fill="#EBEBEB"/>
    <path d="M59.1199 12.513L58.9967 12.7404V11.6029H57.1357V17.9519H58.9847V14.5889C58.9847 13.6861 59.4358 13.2064 60.2803 13.2064C61.0411 13.2064 61.5041 13.7253 61.5041 14.5575V17.9489H63.3584V14.1431C63.3668 12.415 62.5227 11.4585 60.9892 11.4585C60.6095 11.458 60.236 11.5549 59.9072 11.7395C59.5785 11.9241 59.306 12.1898 59.1172 12.5096L59.1199 12.513Z" fill="#EBEBEB"/>
    <path d="M34.7923 10.6959C35.0195 10.6964 35.2418 10.6315 35.431 10.5095C35.6202 10.3875 35.7678 10.2137 35.8553 10.0103C35.9428 9.8068 35.9661 9.58275 35.9223 9.36643C35.8785 9.15011 35.7696 8.95129 35.6093 8.79499C35.4491 8.63872 35.2446 8.53207 35.0219 8.48852C34.7992 8.44498 34.5681 8.46647 34.358 8.5503C34.1479 8.63412 33.9681 8.7765 33.8414 8.95946C33.7146 9.14246 33.6466 9.35775 33.646 9.57819V9.58206C33.6456 9.7283 33.6757 9.87309 33.7346 10.0077C33.8215 10.2111 33.9685 10.3849 34.1571 10.5074C34.3458 10.6298 34.5676 10.6952 34.7945 10.6955L34.7923 10.6959Z" fill="#EBEBEB"/>
    <path d="M55.1599 10.6959C55.3873 10.6964 55.6097 10.6315 55.7989 10.5095C55.9881 10.3875 56.1356 10.2137 56.2229 10.0103C56.3106 9.8068 56.3337 9.58275 56.2898 9.36643C56.2464 9.15011 56.1374 8.95129 55.977 8.79499C55.8166 8.63872 55.6123 8.53207 55.3895 8.48852C55.167 8.44498 54.9357 8.46647 54.7257 8.5503C54.5157 8.63412 54.3358 8.7765 54.2091 8.95946C54.0824 9.14246 54.0146 9.35775 54.0137 9.57819V9.58206C54.0128 9.72813 54.042 9.87292 54.1001 10.0077C54.1869 10.2112 54.334 10.3852 54.5224 10.5077C54.7111 10.6302 54.9331 10.6957 55.1599 10.6959Z" fill="#EBEBEB"/>
    <path d="M68.1625 11.5984H66.874V9.12183H65.0242V11.5984H63.7915V13.1098H65.0242V17.952H66.8731V13.1103H68.1616L68.1625 11.5984Z" fill="#EBEBEB"/>
    <path d="M10.4974 5L12.2724 15.2776H2L10.4974 5Z" fill="#0033A1"/>
    <path d="M10.4761 5L16.7678 15.2776H12.2511L10.4761 5Z" fill="#CC27B0"/>
    <path d="M2 15.2854H12.2729L12.9149 19L2 15.2854Z" fill="#0071CE"/>
    <path d="M12.2495 15.2854H16.7659L12.8915 19L12.2495 15.2854Z" fill="#E17FD2"/>
    <path d="M68.6536 16.7401C68.7604 16.8003 68.8485 16.8879 68.9075 16.9933C68.9699 17.1044 69.0018 17.2292 69.0001 17.3557C69.0018 17.4815 68.9699 17.6057 68.9075 17.7159C68.8481 17.8205 68.7604 17.9075 68.6536 17.9674C68.5419 18.0295 68.4148 18.0612 68.2858 18.0589C68.1564 18.061 68.0288 18.0294 67.9163 17.9674C67.8091 17.9078 67.7204 17.8209 67.6606 17.7159C67.5982 17.6057 67.5663 17.4815 67.5685 17.3557C67.5667 17.2292 67.5982 17.1044 67.6606 16.9933C67.72 16.8876 67.8086 16.8 67.9163 16.7401C68.0288 16.6781 68.1564 16.6465 68.2858 16.6485C68.4148 16.6463 68.5419 16.678 68.6536 16.7401ZM68.7081 17.7774C68.8126 17.6602 68.8702 17.5104 68.8702 17.3555C68.8702 17.2005 68.8126 17.0507 68.7081 16.9336C68.5942 16.8275 68.4422 16.7682 68.284 16.7682C68.1259 16.7682 67.9743 16.8275 67.86 16.9336C67.7563 17.051 67.6992 17.2007 67.6992 17.3555C67.6992 17.5103 67.7563 17.6599 67.86 17.7774C67.9739 17.8831 68.1259 17.9421 68.2832 17.9421C68.4409 17.9421 68.5929 17.8831 68.7067 17.7774H68.7081ZM68.5508 17.3475C68.514 17.3877 68.4639 17.4144 68.4094 17.4232L68.627 17.7241L68.4422 17.7275L68.2411 17.4266H68.1578V17.7275H68.0018V16.9696H68.339C68.4081 16.9661 68.4759 16.9881 68.5291 17.0311C68.5526 17.0523 68.5712 17.0783 68.5836 17.1071C68.596 17.136 68.6013 17.1672 68.6 17.1984C68.6026 17.2511 68.5853 17.3029 68.5512 17.3441L68.5508 17.3475ZM68.1595 17.3045H68.3297C68.3594 17.3057 68.3891 17.297 68.413 17.28C68.4245 17.2712 68.4334 17.2599 68.4387 17.247C68.4444 17.2341 68.4471 17.2201 68.4458 17.2061C68.4471 17.1924 68.4444 17.1786 68.4387 17.166C68.4329 17.1534 68.4241 17.1424 68.413 17.1339C68.3886 17.1179 68.3594 17.1099 68.3297 17.1111H68.1595V17.3045Z" fill="#EBEBEB"/>
</svg>
