<svg width="73" height="24" viewBox="0 0 73 24" fill="none" xmlns="http://www.w3.org/2000/svg">
<g clip-path="url(#clip0_4092_1689)">
<path d="M35.8885 9.35357C35.865 9.34716 35.5035 9.25391 35.1192 9.25391C34.3917 9.25391 33.9537 9.64674 33.9537 10.2317C33.9537 10.7496 34.3201 11.0078 34.7599 11.1467C34.8086 11.1628 34.8805 11.1853 34.9283 11.2012C35.124 11.2627 35.2803 11.3542 35.2803 11.5127C35.2803 11.69 35.0997 11.8047 34.7071 11.8047C34.3621 11.8047 34.0314 11.7061 33.9617 11.6885V12.4082C34.0005 12.4165 34.3936 12.4937 34.8135 12.4937C35.4175 12.4937 36.1085 12.2297 36.1085 11.4441C36.1085 11.063 35.8751 10.7122 35.3629 10.5493L35.1451 10.48C35.0152 10.439 34.7833 10.3726 34.7833 10.1822C34.7833 10.0317 34.9551 9.92582 35.2715 9.92582C35.5445 9.92582 35.8768 10.0176 35.8885 10.0212V9.35357ZM42.5586 10.8738C42.5586 11.3289 42.21 11.6971 41.7423 11.6971C41.274 11.6971 40.9264 11.3289 40.9264 10.8738C40.9264 10.4197 41.274 10.0513 41.7423 10.0513C42.21 10.0513 42.5586 10.4197 42.5586 10.8738ZM41.7423 9.25491C40.7803 9.25491 40.0904 9.98049 40.0904 10.8738C40.0904 11.7686 40.7803 12.4937 41.7423 12.4937C42.7042 12.4937 43.3951 11.7686 43.3951 10.8738C43.3951 9.98049 42.7042 9.25491 41.7423 9.25491ZM32.8953 12.438H32.106V9.31032H32.8953" fill="#049FD9"/>
<path d="M31.021 9.36697C30.9468 9.34497 30.6727 9.25488 30.3013 9.25488C29.3408 9.25488 28.6357 9.93972 28.6357 10.8738C28.6357 11.8815 29.4141 12.4936 30.3013 12.4936C30.6538 12.4936 30.9229 12.4101 31.021 12.3823V11.5427C30.9871 11.5615 30.7291 11.7087 30.3579 11.7087C29.8321 11.7087 29.4929 11.3386 29.4929 10.8738C29.4929 10.3948 29.8467 10.0395 30.3579 10.0395C30.7354 10.0395 30.9892 10.19 31.021 10.2065" fill="#049FD9"/>
<path d="M39.2593 9.36697C39.1851 9.34497 38.9109 9.25488 38.5396 9.25488C37.5791 9.25488 36.874 9.93972 36.874 10.8738C36.874 11.8815 37.6524 12.4936 38.5396 12.4936C38.8921 12.4936 39.1612 12.4101 39.2593 12.3823V11.5427C39.2254 11.5615 38.9674 11.7087 38.5962 11.7087C38.0704 11.7087 37.7312 11.3386 37.7312 10.8738C37.7312 10.3948 38.085 10.0395 38.5962 10.0395C38.9737 10.0395 39.2275 10.19 39.2593 10.2065" fill="#049FD9"/>
<path d="M32.1036 3.39628C32.1036 3.18069 31.9275 3.00586 31.7116 3.00586C31.4959 3.00586 31.3198 3.18069 31.3198 3.39628V7.54961C31.3198 7.76644 31.4959 7.94119 31.7116 7.94119C31.9275 7.94119 32.1036 7.76644 32.1036 7.54961V3.39628ZM29.9511 4.87061C29.9511 4.65511 29.7751 4.48003 29.5593 4.48003C29.3435 4.48003 29.1675 4.65511 29.1675 4.87061V6.76936C29.1675 6.98611 29.3435 7.16094 29.5593 7.16094C29.7751 7.16094 29.9511 6.98611 29.9511 6.76936V4.87061ZM27.7988 5.94828C27.7988 5.73269 27.6228 5.55794 27.407 5.55794C27.1914 5.55794 27.0151 5.73269 27.0151 5.94828V6.76936C27.0151 6.98611 27.1914 7.16094 27.407 7.16094C27.6228 7.16094 27.7988 6.98611 27.7988 6.76936" fill="#049FD9"/>
<path d="M31.3198 3.39628C31.3198 3.18069 31.4959 3.00586 31.7117 3.00586C31.9275 3.00586 32.1035 3.18069 32.1035 3.39628V7.54961C32.1035 7.76644 31.9275 7.94119 31.7117 7.94119C31.4959 7.94119 31.3198 7.76644 31.3198 7.54961V3.39628ZM33.4722 4.87061C33.4722 4.65511 33.6482 4.48003 33.864 4.48003C34.0799 4.48003 34.2559 4.65511 34.2559 4.87061V6.76936C34.2559 6.98611 34.0799 7.16094 33.864 7.16094C33.6482 7.16094 33.4722 6.98611 33.4722 6.76936V4.87061ZM35.6245 5.94828C35.6245 5.73269 35.8005 5.55794 36.0164 5.55794C36.232 5.55794 36.4082 5.73269 36.4082 5.94828V6.76936C36.4082 6.98611 36.232 7.16094 36.0164 7.16094C35.8005 7.16094 35.6245 6.98611 35.6245 6.76936" fill="#049FD9"/>
<path d="M39.9267 3.39628C39.9267 3.18069 40.1028 3.00586 40.3186 3.00586C40.5344 3.00586 40.7105 3.18069 40.7105 3.39628V7.54961C40.7105 7.76644 40.5344 7.94119 40.3186 7.94119C40.1028 7.94119 39.9267 7.76644 39.9267 7.54961V3.39628ZM42.0791 4.87061C42.0791 4.65511 42.2551 4.48003 42.471 4.48003C42.6868 4.48003 42.8628 4.65511 42.8628 4.87061V6.76936C42.8628 6.98611 42.6868 7.16094 42.471 7.16094C42.2551 7.16094 42.0791 6.98611 42.0791 6.76936V4.87061ZM44.2315 5.94828C44.2315 5.73269 44.4075 5.55794 44.6233 5.55794C44.8389 5.55794 45.0151 5.73269 45.0151 5.94828V6.76936C45.0151 6.98611 44.8389 7.16094 44.6233 7.16094C44.4075 7.16094 44.2315 6.98611 44.2315 6.76936" fill="#049FD9"/>
<path d="M40.7105 3.39628C40.7105 3.18069 40.5344 3.00586 40.3186 3.00586C40.1028 3.00586 39.9267 3.18069 39.9267 3.39628V7.54961C39.9267 7.76644 40.1028 7.94119 40.3186 7.94119C40.5344 7.94119 40.7105 7.76644 40.7105 7.54961V3.39628ZM38.5581 4.87061C38.5581 4.65511 38.3821 4.48003 38.1662 4.48003C37.9504 4.48003 37.7744 4.65511 37.7744 4.87061V6.76936C37.7744 6.98611 37.9504 7.16094 38.1662 7.16094C38.3821 7.16094 38.5581 6.98611 38.5581 6.76936V4.87061ZM36.4057 5.94828C36.4057 5.73269 36.2297 5.55794 36.0139 5.55794C35.7983 5.55794 35.6221 5.73269 35.6221 5.94828V6.76936C35.6221 6.98611 35.7983 7.16094 36.0139 7.16094C36.2297 7.16094 36.4057 6.98611 36.4057 6.76936" fill="#049FD9"/>
</g>
<path d="M53.5601 20.0003V16.0003H54.6801L54.7761 16.6883H54.8081C54.9574 16.4163 55.1334 16.219 55.3361 16.0963C55.5441 15.9683 55.7467 15.9043 55.9441 15.9043C56.0667 15.9043 56.1654 15.9123 56.2401 15.9283C56.3201 15.939 56.3867 15.9576 56.4401 15.9843L56.2161 17.1683C56.1467 17.1523 56.0774 17.139 56.0081 17.1283C55.9387 17.1123 55.8587 17.1043 55.7681 17.1043C55.6241 17.1043 55.4721 17.155 55.3121 17.2563C55.1574 17.3523 55.0321 17.5256 54.9361 17.7763V20.0003H53.5601Z" fill="white"/>
<path d="M50.8452 20.0963C50.4559 20.0963 50.1039 20.0136 49.7892 19.8483C49.4799 19.683 49.2346 19.4456 49.0532 19.1363C48.8719 18.8216 48.7812 18.443 48.7812 18.0003C48.7812 17.5683 48.8719 17.1976 49.0532 16.8883C49.2399 16.5736 49.4799 16.331 49.7733 16.1603C50.0666 15.9896 50.3759 15.9043 50.7012 15.9043C51.0959 15.9043 51.4212 15.9923 51.6772 16.1683C51.9386 16.339 52.1306 16.571 52.2533 16.8643C52.3813 17.1576 52.4452 17.483 52.4452 17.8403C52.4452 17.9576 52.4372 18.0723 52.4212 18.1843C52.4106 18.291 52.3999 18.3683 52.3892 18.4163H50.1092C50.1732 18.6563 50.2879 18.8243 50.4533 18.9203C50.6186 19.011 50.8133 19.0563 51.0373 19.0563C51.2933 19.0563 51.5652 18.9763 51.8532 18.8163L52.3013 19.6323C52.0879 19.7816 51.8479 19.8963 51.5812 19.9763C51.3146 20.0563 51.0692 20.0963 50.8452 20.0963ZM50.0933 17.5203H51.2772C51.2772 17.3656 51.2372 17.2323 51.1572 17.1203C51.0826 17.003 50.9412 16.9443 50.7332 16.9443C50.5839 16.9443 50.4506 16.9896 50.3332 17.0803C50.2159 17.171 50.1359 17.3176 50.0933 17.5203Z" fill="white"/>
<path d="M43.0122 20L42.0522 16H43.4122L43.7162 17.68C43.7482 17.8773 43.7749 18.0773 43.7962 18.28C43.8176 18.4827 43.8442 18.688 43.8762 18.896H43.9082C43.9402 18.688 43.9722 18.4827 44.0042 18.28C44.0416 18.072 44.0842 17.872 44.1322 17.68L44.5002 16H45.6682L46.0522 17.68C46.1002 17.8773 46.1429 18.0773 46.1802 18.28C46.2176 18.4827 46.2549 18.688 46.2922 18.896H46.3242C46.3562 18.688 46.3829 18.4827 46.4042 18.28C46.4256 18.0773 46.4522 17.8773 46.4842 17.68L46.7882 16H48.0522L47.1402 20H45.5402L45.2522 18.608C45.2202 18.4213 45.1882 18.2347 45.1562 18.048C45.1242 17.856 45.0922 17.6507 45.0602 17.432H45.0282C44.9962 17.6507 44.9669 17.856 44.9402 18.048C44.9136 18.2347 44.8842 18.4213 44.8522 18.608L44.5802 20H43.0122Z" fill="white"/>
<path d="M39.3419 20.0963C39.0006 20.0963 38.6779 20.0136 38.3739 19.8483C38.0752 19.683 37.8299 19.4456 37.6379 19.1363C37.4512 18.8216 37.3579 18.443 37.3579 18.0003C37.3579 17.5576 37.4512 17.1816 37.6379 16.8723C37.8299 16.5576 38.0752 16.3176 38.3739 16.1523C38.6779 15.987 39.0006 15.9043 39.3419 15.9043C39.6832 15.9043 40.0032 15.987 40.3019 16.1523C40.6059 16.3176 40.8512 16.5576 41.0379 16.8723C41.2299 17.1816 41.3259 17.5576 41.3259 18.0003C41.3259 18.443 41.2299 18.8216 41.0379 19.1363C40.8512 19.4456 40.6059 19.683 40.3019 19.8483C40.0032 20.0136 39.6832 20.0963 39.3419 20.0963ZM39.3419 18.9923C39.5499 18.9923 39.6966 18.9043 39.7819 18.7283C39.8726 18.547 39.9179 18.3043 39.9179 18.0003C39.9179 17.6963 39.8726 17.4563 39.7819 17.2803C39.6966 17.099 39.5499 17.0083 39.3419 17.0083C39.1339 17.0083 38.9846 17.099 38.8939 17.2803C38.8086 17.4563 38.7659 17.6963 38.7659 18.0003C38.7659 18.3043 38.8086 18.547 38.8939 18.7283C38.9846 18.9043 39.1339 18.9923 39.3419 18.9923Z" fill="white"/>
<path d="M32.5654 21.4083V16.0003H33.6854L33.7814 16.3683H33.8134C33.9628 16.2296 34.1308 16.1176 34.3174 16.0323C34.5094 15.947 34.7041 15.9043 34.9014 15.9043C35.2161 15.9043 35.4881 15.9896 35.7174 16.1603C35.9521 16.3256 36.1334 16.5603 36.2614 16.8643C36.3894 17.1683 36.4534 17.5256 36.4534 17.9363C36.4534 18.395 36.3734 18.787 36.2134 19.1123C36.0534 19.4323 35.8454 19.6776 35.5894 19.8483C35.3388 20.0136 35.0721 20.0963 34.7894 20.0963C34.4588 20.0963 34.1601 19.963 33.8934 19.6963L33.9414 20.3043V21.4083H32.5654ZM34.4534 18.9763C34.6134 18.9763 34.7521 18.9016 34.8694 18.7523C34.9868 18.603 35.0454 18.3363 35.0454 17.9523C35.0454 17.6216 34.9974 17.3843 34.9014 17.2403C34.8108 17.0963 34.6721 17.0243 34.4854 17.0243C34.3841 17.0243 34.2908 17.0456 34.2054 17.0883C34.1201 17.131 34.0321 17.2056 33.9414 17.3123V18.7843C34.0214 18.8536 34.1041 18.9043 34.1894 18.9363C34.2801 18.963 34.3681 18.9763 34.4534 18.9763Z" fill="white"/>
<path d="M29.8501 20.0963C29.4608 20.0963 29.1088 20.0136 28.7941 19.8483C28.4848 19.683 28.2395 19.4456 28.0581 19.1363C27.8768 18.8216 27.7861 18.443 27.7861 18.0003C27.7861 17.5683 27.8768 17.1976 28.0581 16.8883C28.2448 16.5736 28.4848 16.331 28.7781 16.1603C29.0715 15.9896 29.3808 15.9043 29.7061 15.9043C30.1008 15.9043 30.4261 15.9923 30.6821 16.1683C30.9435 16.339 31.1355 16.571 31.2581 16.8643C31.3861 17.1576 31.4501 17.483 31.4501 17.8403C31.4501 17.9576 31.4421 18.0723 31.4261 18.1843C31.4155 18.291 31.4048 18.3683 31.3941 18.4163H29.1141C29.1781 18.6563 29.2928 18.8243 29.4581 18.9203C29.6235 19.011 29.8181 19.0563 30.0421 19.0563C30.2981 19.0563 30.5701 18.9763 30.8581 18.8163L31.3061 19.6323C31.0928 19.7816 30.8528 19.8963 30.5861 19.9763C30.3195 20.0563 30.0741 20.0963 29.8501 20.0963ZM29.0981 17.5203H30.2821C30.2821 17.3656 30.2421 17.2323 30.1621 17.1203C30.0875 17.003 29.9461 16.9443 29.7381 16.9443C29.5888 16.9443 29.4555 16.9896 29.3381 17.0803C29.2208 17.171 29.1408 17.3176 29.0981 17.5203Z" fill="white"/>
<path d="M24.3687 20.0003V16.0003H25.4887L25.5847 16.6883H25.6167C25.766 16.4163 25.942 16.219 26.1447 16.0963C26.3527 15.9683 26.5553 15.9043 26.7527 15.9043C26.8753 15.9043 26.974 15.9123 27.0487 15.9283C27.1287 15.939 27.1953 15.9576 27.2487 15.9843L27.0247 17.1683C26.9553 17.1523 26.886 17.139 26.8167 17.1283C26.7473 17.1123 26.6673 17.1043 26.5767 17.1043C26.4327 17.1043 26.2807 17.155 26.1207 17.2563C25.966 17.3523 25.8407 17.5256 25.7447 17.7763V20.0003H24.3687Z" fill="white"/>
<path d="M21.7041 19.9999V15.9999H23.0801V19.9999H21.7041ZM22.3921 15.5039C22.1681 15.5039 21.9868 15.4426 21.8481 15.3199C21.7095 15.1919 21.6401 15.0239 21.6401 14.8159C21.6401 14.6079 21.7095 14.4426 21.8481 14.3199C21.9868 14.1919 22.1681 14.1279 22.3921 14.1279C22.6161 14.1279 22.7975 14.1919 22.9361 14.3199C23.0748 14.4426 23.1441 14.6079 23.1441 14.8159C23.1441 15.0239 23.0748 15.1919 22.9361 15.3199C22.7975 15.4426 22.6161 15.5039 22.3921 15.5039Z" fill="white"/>
<path d="M17.167 19.9998V14.7998H20.559V15.9518H18.543V16.9438H20.271V18.0958H18.543V19.9998H17.167Z" fill="white"/>
<defs>
<clipPath id="clip0_4092_1689">
<rect width="18" height="9.5" fill="white" transform="translate(27.0151 3)"/>
</clipPath>
</defs>
</svg>
