<svg width="72" height="25" viewBox="0 0 72 25" fill="none" xmlns="http://www.w3.org/2000/svg">
<g clip-path="url(#clip0_4165_4614)">
<path d="M23.8184 17.3943L24.6276 15.5801C25.5021 16.21 26.6637 16.5376 27.8123 16.5376C28.6607 16.5376 29.1959 16.2226 29.1959 15.7439C29.1828 14.4085 24.1186 15.4541 24.0794 12.103C24.0664 10.4022 25.6326 9.09194 27.8515 9.09194C29.1698 9.09194 30.488 9.4069 31.4278 10.125L30.6708 11.977C29.8093 11.4478 28.739 11.0699 27.721 11.0699C27.0292 11.0699 26.5724 11.3849 26.5724 11.788C26.5854 13.0982 31.6888 12.3801 31.741 15.5801C31.741 17.3187 30.2139 18.5408 28.0212 18.5408C26.4157 18.5408 24.9408 18.1754 23.8184 17.3943ZM54.8696 14.925C54.4649 15.6053 53.7079 16.0715 52.8334 16.0715C51.5412 16.0715 50.4971 15.0636 50.4971 13.8163C50.4971 12.5691 51.5412 11.5612 52.8334 11.5612C53.7079 11.5612 54.4649 12.0274 54.8696 12.7077L57.1015 11.5108C56.2662 10.0746 54.6607 9.09194 52.8334 9.09194C50.1316 9.09194 47.9388 11.2085 47.9388 13.8163C47.9388 16.4242 50.1316 18.5408 52.8334 18.5408C54.6738 18.5408 56.2662 17.5707 57.1015 16.1219L54.8696 14.925ZM32.8635 5.17383H35.6567V18.3644H32.8635V5.17383ZM58.1979 5.17383V18.3644H60.991V14.4085L64.3063 18.3644H67.8826L63.6668 13.6652L67.5694 9.28091H64.1497L60.991 12.9219V5.17383H58.1979ZM43.9579 14.9502C43.5533 15.5927 42.718 16.0715 41.7782 16.0715C40.486 16.0715 39.4419 15.0636 39.4419 13.8163C39.4419 12.5691 40.486 11.5612 41.7782 11.5612C42.718 11.5612 43.5533 12.0652 43.9579 12.7203V14.9502ZM43.9579 9.28091V10.3518C43.5011 9.60847 42.3655 9.09194 41.1778 9.09194C38.724 9.09194 36.7923 11.1833 36.7923 13.8037C36.7923 16.4242 38.724 18.5408 41.1778 18.5408C42.3655 18.5408 43.5011 18.0242 43.9579 17.2809V18.3518H46.7511V9.28091H43.9579Z" fill="white"/>
<path d="M6.55028 14.9374C6.55028 15.8571 5.7802 16.6004 4.82738 16.6004C3.87457 16.6004 3.10449 15.8571 3.10449 14.9374C3.10449 14.0177 3.87457 13.2744 4.82738 13.2744H6.55028V14.9374ZM7.41172 14.9374C7.41172 14.0177 8.1818 13.2744 9.13461 13.2744C10.0874 13.2744 10.8575 14.0177 10.8575 14.9374V19.0949C10.8575 20.0146 10.0874 20.7579 9.13461 20.7579C8.1818 20.7579 7.41172 20.0146 7.41172 19.0949V14.9374Z" fill="#E01E5A"/>
<path d="M9.13448 8.26055C8.18167 8.26055 7.41159 7.51725 7.41159 6.59756C7.41159 5.67788 8.18167 4.93457 9.13448 4.93457C10.0873 4.93457 10.8574 5.67788 10.8574 6.59756V8.26055H9.13448ZM9.13448 9.10465C10.0873 9.10465 10.8574 9.84796 10.8574 10.7676C10.8574 11.6873 10.0873 12.4306 9.13448 12.4306H4.8142C3.86139 12.4306 3.09131 11.6873 3.09131 10.7676C3.09131 9.84796 3.86139 9.10465 4.8142 9.10465H9.13448Z" fill="#36C5F0"/>
<path d="M16.0392 10.7676C16.0392 9.84796 16.8092 9.10465 17.7621 9.10465C18.7149 9.10465 19.4849 9.84796 19.4849 10.7676C19.4849 11.6873 18.7149 12.4306 17.7621 12.4306H16.0392V10.7676ZM15.1777 10.7676C15.1777 11.6873 14.4076 12.4306 13.4548 12.4306C12.502 12.4306 11.7319 11.6873 11.7319 10.7676V6.59756C11.7319 5.67788 12.502 4.93457 13.4548 4.93457C14.4076 4.93457 15.1777 5.67788 15.1777 6.59756V10.7676Z" fill="#2EB67D"/>
<path d="M13.4548 17.4319C14.4076 17.4319 15.1777 18.1752 15.1777 19.0949C15.1777 20.0146 14.4076 20.7579 13.4548 20.7579C12.502 20.7579 11.7319 20.0146 11.7319 19.0949V17.4319H13.4548ZM13.4548 16.6004C12.502 16.6004 11.7319 15.8571 11.7319 14.9374C11.7319 14.0177 12.502 13.2744 13.4548 13.2744H17.7751C18.7279 13.2744 19.498 14.0177 19.498 14.9374C19.498 15.8571 18.7279 16.6004 17.7751 16.6004H13.4548Z" fill="#ECB22E"/>
</g>
<defs>
<clipPath id="clip0_4165_4614">
<rect width="65" height="16" fill="white" transform="translate(3 4.85938)"/>
</clipPath>
</defs>
</svg>
