<svg width="72" height="25" viewBox="0 0 72 25" fill="none" xmlns="http://www.w3.org/2000/svg">
<mask id="mask0_4085_34620" style="mask-type:luminance" maskUnits="userSpaceOnUse" x="3" y="5" width="18" height="16">
<path d="M15.8678 5.76367H8.38465C8.14436 5.76367 7.90408 5.90098 7.76677 6.10694L4.05952 12.5603C3.92222 12.7663 3.92222 13.0409 4.05952 13.2811L7.8011 19.7002C7.9384 19.9061 8.17869 20.0434 8.41897 20.0434H15.8678C16.1081 20.0434 16.3484 19.9061 16.4857 19.7002L20.1929 13.2468C20.3302 13.0409 20.3302 12.7663 20.1929 12.526L16.4857 6.14126C16.3484 5.90098 16.1081 5.76367 15.8678 5.76367Z" fill="white"/>
</mask>
<g mask="url(#mask0_4085_34620)">
<path d="M7.7666 5.72949L9.24264 8.4756L16.0393 5.72949H7.7666Z" fill="#28A8EA"/>
</g>
<mask id="mask1_4085_34620" style="mask-type:luminance" maskUnits="userSpaceOnUse" x="3" y="5" width="18" height="16">
<path d="M15.8678 5.76367H8.38465C8.14436 5.76367 7.90408 5.90098 7.76677 6.10694L4.05952 12.5603C3.92222 12.7663 3.92222 13.0409 4.05952 13.2811L7.8011 19.7002C7.9384 19.9061 8.17869 20.0434 8.41897 20.0434H15.8678C16.1081 20.0434 16.3484 19.9061 16.4857 19.7002L20.1929 13.2468C20.3302 13.0409 20.3302 12.7663 20.1929 12.526L16.4857 6.14126C16.3484 5.90098 16.1081 5.76367 15.8678 5.76367Z" fill="white"/>
</mask>
<g mask="url(#mask1_4085_34620)">
<path d="M7.76677 5.72949L9.24281 8.4756L3.95654 12.6634V5.72949H7.76677Z" fill="#0078D4"/>
</g>
<mask id="mask2_4085_34620" style="mask-type:luminance" maskUnits="userSpaceOnUse" x="3" y="5" width="18" height="16">
<path d="M15.8678 5.76367H8.38465C8.14436 5.76367 7.90408 5.90098 7.76677 6.10694L4.05952 12.5603C3.92222 12.7663 3.92222 13.0409 4.05952 13.2811L7.8011 19.7002C7.9384 19.9061 8.17869 20.0434 8.41897 20.0434H15.8678C16.1081 20.0434 16.3484 19.9061 16.4857 19.7002L20.1929 13.2468C20.3302 13.0409 20.3302 12.7663 20.1929 12.526L16.4857 6.14126C16.3484 5.90098 16.1081 5.76367 15.8678 5.76367Z" fill="white"/>
</mask>
<g mask="url(#mask2_4085_34620)">
<path d="M3.61328 12.9037L9.24281 8.47559L9.55174 17.4004L3.61328 12.9037Z" fill="#0364B8"/>
</g>
<mask id="mask3_4085_34620" style="mask-type:luminance" maskUnits="userSpaceOnUse" x="3" y="5" width="18" height="16">
<path d="M15.8678 5.76367H8.38465C8.14436 5.76367 7.90408 5.90098 7.76677 6.10694L4.05952 12.5603C3.92222 12.7663 3.92222 13.0409 4.05952 13.2811L7.8011 19.7002C7.9384 19.9061 8.17869 20.0434 8.41897 20.0434H15.8678C16.1081 20.0434 16.3484 19.9061 16.4857 19.7002L20.1929 13.2468C20.3302 13.0409 20.3302 12.7663 20.1929 12.526L16.4857 6.14126C16.3484 5.90098 16.1081 5.76367 15.8678 5.76367Z" fill="white"/>
</mask>
<g mask="url(#mask3_4085_34620)">
<path d="M3.61328 12.9033L9.55174 17.4001L7.83543 20.0432L3.95655 20.1805L3.61328 12.9033Z" fill="#14447D"/>
</g>
<mask id="mask4_4085_34620" style="mask-type:luminance" maskUnits="userSpaceOnUse" x="3" y="5" width="18" height="16">
<path d="M15.8678 5.76367H8.38465C8.14436 5.76367 7.90408 5.90098 7.76677 6.10694L4.05952 12.5603C3.92222 12.7663 3.92222 13.0409 4.05952 13.2811L7.8011 19.7002C7.9384 19.9061 8.17869 20.0434 8.41897 20.0434H15.8678C16.1081 20.0434 16.3484 19.9061 16.4857 19.7002L20.1929 13.2468C20.3302 13.0409 20.3302 12.7663 20.1929 12.526L16.4857 6.14126C16.3484 5.90098 16.1081 5.76367 15.8678 5.76367Z" fill="white"/>
</mask>
<g mask="url(#mask4_4085_34620)">
<path d="M7.83545 20.0435L9.55177 17.4004L16.3141 20.1808L7.83545 20.0435Z" fill="#0F335E"/>
</g>
<mask id="mask5_4085_34620" style="mask-type:luminance" maskUnits="userSpaceOnUse" x="3" y="5" width="18" height="16">
<path d="M15.8678 5.76367H8.38465C8.14436 5.76367 7.90408 5.90098 7.76677 6.10694L4.05952 12.5603C3.92222 12.7663 3.92222 13.0409 4.05952 13.2811L7.8011 19.7002C7.9384 19.9061 8.17869 20.0434 8.41897 20.0434H15.8678C16.1081 20.0434 16.3484 19.9061 16.4857 19.7002L20.1929 13.2468C20.3302 13.0409 20.3302 12.7663 20.1929 12.526L16.4857 6.14126C16.3484 5.90098 16.1081 5.76367 15.8678 5.76367Z" fill="white"/>
</mask>
<g mask="url(#mask5_4085_34620)">
<path d="M9.55176 17.4001L16.4857 12.9033L16.3141 20.1805L9.55176 17.4001Z" fill="#0364B8"/>
</g>
<mask id="mask6_4085_34620" style="mask-type:luminance" maskUnits="userSpaceOnUse" x="3" y="5" width="18" height="16">
<path d="M15.8678 5.76367H8.38465C8.14436 5.76367 7.90408 5.90098 7.76677 6.10694L4.05952 12.5603C3.92222 12.7663 3.92222 13.0409 4.05952 13.2811L7.8011 19.7002C7.9384 19.9061 8.17869 20.0434 8.41897 20.0434H15.8678C16.1081 20.0434 16.3484 19.9061 16.4857 19.7002L20.1929 13.2468C20.3302 13.0409 20.3302 12.7663 20.1929 12.526L16.4857 6.14126C16.3484 5.90098 16.1081 5.76367 15.8678 5.76367Z" fill="white"/>
</mask>
<g mask="url(#mask6_4085_34620)">
<path d="M9.55161 17.4004L9.24268 8.47559L16.4855 12.9037L9.55161 17.4004Z" fill="#28A8EA"/>
</g>
<mask id="mask7_4085_34620" style="mask-type:luminance" maskUnits="userSpaceOnUse" x="3" y="5" width="18" height="16">
<path d="M15.8678 5.76367H8.38465C8.14436 5.76367 7.90408 5.90098 7.76677 6.10694L4.05952 12.5603C3.92222 12.7663 3.92222 13.0409 4.05952 13.2811L7.8011 19.7002C7.9384 19.9061 8.17869 20.0434 8.41897 20.0434H15.8678C16.1081 20.0434 16.3484 19.9061 16.4857 19.7002L20.1929 13.2468C20.3302 13.0409 20.3302 12.7663 20.1929 12.526L16.4857 6.14126C16.3484 5.90098 16.1081 5.76367 15.8678 5.76367Z" fill="white"/>
</mask>
<g mask="url(#mask7_4085_34620)">
<path d="M9.24268 8.47507L16.3139 5.62598L16.4855 12.9032L9.24268 8.47507Z" fill="#50D9FF"/>
</g>
<mask id="mask8_4085_34620" style="mask-type:luminance" maskUnits="userSpaceOnUse" x="3" y="5" width="18" height="16">
<path d="M15.8678 5.76367H8.38465C8.14436 5.76367 7.90408 5.90098 7.76677 6.10694L4.05952 12.5603C3.92222 12.7663 3.92222 13.0409 4.05952 13.2811L7.8011 19.7002C7.9384 19.9061 8.17869 20.0434 8.41897 20.0434H15.8678C16.1081 20.0434 16.3484 19.9061 16.4857 19.7002L20.1929 13.2468C20.3302 13.0409 20.3302 12.7663 20.1929 12.526L16.4857 6.14126C16.3484 5.90098 16.1081 5.76367 15.8678 5.76367Z" fill="white"/>
</mask>
<g mask="url(#mask8_4085_34620)">
<path d="M16.4856 12.9032L16.314 5.62598L20.3988 5.72896V12.9032H16.4856Z" fill="#28A8EA"/>
</g>
<mask id="mask9_4085_34620" style="mask-type:luminance" maskUnits="userSpaceOnUse" x="3" y="5" width="18" height="16">
<path d="M15.8678 5.76367H8.38465C8.14436 5.76367 7.90408 5.90098 7.76677 6.10694L4.05952 12.5603C3.92222 12.7663 3.92222 13.0409 4.05952 13.2811L7.8011 19.7002C7.9384 19.9061 8.17869 20.0434 8.41897 20.0434H15.8678C16.1081 20.0434 16.3484 19.9061 16.4857 19.7002L20.1929 13.2468C20.3302 13.0409 20.3302 12.7663 20.1929 12.526L16.4857 6.14126C16.3484 5.90098 16.1081 5.76367 15.8678 5.76367Z" fill="white"/>
</mask>
<g mask="url(#mask9_4085_34620)">
<path d="M16.4856 12.9033L16.314 20.4208H20.1928L20.3988 12.9033H16.4856Z" fill="#0078D4"/>
</g>
<path d="M32.143 5.34145V13.1414H30.8101V7.02061H30.7923L28.4108 13.1414H27.5222L25.0873 7.02061H25.0696V13.1414H23.8433V5.34145H25.7627L27.9665 11.1192H28.002L30.3302 5.34145H32.143ZM33.2449 5.93728C33.2449 5.72061 33.316 5.54006 33.4759 5.39561C33.6359 5.25117 33.8136 5.17895 34.0269 5.17895C34.2579 5.17895 34.4534 5.25117 34.5956 5.39561C34.7378 5.54006 34.8266 5.72061 34.8266 5.93728C34.8266 6.15395 34.7556 6.3345 34.5956 6.47895C34.4356 6.62339 34.2579 6.69561 34.0269 6.69561C33.7958 6.69561 33.6181 6.62339 33.4759 6.47895C33.3338 6.31645 33.2449 6.13589 33.2449 5.93728ZM34.6845 7.54422V13.1414H33.3871V7.54422H34.6845ZM38.6122 12.1845C38.8077 12.1845 39.0209 12.1484 39.252 12.04C39.483 11.9498 39.6963 11.8234 39.8918 11.6789V12.9067C39.6785 13.0331 39.4475 13.1234 39.1809 13.1775C38.9143 13.2317 38.6299 13.2678 38.31 13.2678C37.4925 13.2678 36.8349 13.015 36.3373 12.4914C35.8219 11.9678 35.5731 11.2998 35.5731 10.5053C35.5731 9.60255 35.8397 8.86227 36.3551 8.2845C36.8705 7.70672 37.5991 7.41783 38.5589 7.41783C38.8077 7.41783 39.0565 7.45394 39.2875 7.50811C39.5363 7.56228 39.7318 7.65255 39.874 7.72478V8.98866C39.6785 8.84422 39.4653 8.71783 39.2698 8.64561C39.0565 8.57339 38.8432 8.51922 38.6299 8.51922C38.1145 8.51922 37.7058 8.68172 37.3859 9.02477C37.066 9.36783 36.9238 9.81922 36.9238 10.397C36.9238 10.9567 37.0837 11.4081 37.3859 11.715C37.688 12.022 38.0968 12.1845 38.6122 12.1845ZM43.5707 7.45394C43.6773 7.45394 43.7662 7.45394 43.8551 7.472C43.9439 7.49005 44.015 7.50811 44.0683 7.52617V8.86227C43.9972 8.80811 43.9084 8.75394 43.7662 8.71783C43.624 8.68172 43.4818 8.64561 43.2863 8.64561C42.9664 8.64561 42.6998 8.79005 42.4866 9.06088C42.2733 9.33172 42.1489 9.74699 42.1489 10.3248V13.1414H40.8515V7.54422H42.1489V8.42894H42.1667C42.2911 8.122 42.4688 7.88728 42.6998 7.70672C42.9487 7.54422 43.233 7.45394 43.5707 7.45394ZM44.1394 10.4331C44.1394 9.51227 44.406 8.772 44.9036 8.23033C45.419 7.68867 46.1299 7.41783 47.0363 7.41783C47.8894 7.41783 48.5648 7.67061 49.0446 8.19422C49.5245 8.71783 49.7733 9.42199 49.7733 10.3067C49.7733 11.2095 49.5067 11.9317 49.0091 12.4734C48.4937 13.015 47.8005 13.2859 46.9119 13.2859C46.0588 13.2859 45.3835 13.0331 44.8859 12.5275C44.3882 12.0039 44.1394 11.2998 44.1394 10.4331ZM45.4901 10.3789C45.4901 10.9567 45.6145 11.4081 45.8811 11.715C46.1477 12.022 46.5209 12.1845 47.0008 12.1845C47.4629 12.1845 47.8361 12.04 48.0849 11.715C48.3337 11.4081 48.4581 10.9567 48.4581 10.3428C48.4581 9.74699 48.3337 9.29561 48.0849 8.97061C47.8361 8.66366 47.4629 8.50116 47.0186 8.50116C46.5387 8.50116 46.1832 8.66366 45.9167 8.98866C45.6145 9.33172 45.4901 9.7831 45.4901 10.3789ZM51.7105 9.02477C51.7105 9.20533 51.7638 9.36783 51.8882 9.47616C52.0126 9.58449 52.2614 9.71088 52.6702 9.87338C53.1856 10.09 53.5588 10.3248 53.7543 10.5775C53.9676 10.8484 54.0742 11.1553 54.0742 11.5345C54.0742 12.0581 53.8787 12.4734 53.47 12.7984C53.079 13.1234 52.528 13.2678 51.8527 13.2678C51.6216 13.2678 51.3728 13.2317 51.0884 13.1775C50.8041 13.1234 50.573 13.0512 50.3775 12.9609V11.6609C50.6086 11.8234 50.8752 11.9678 51.1418 12.0581C51.4083 12.1484 51.6572 12.2025 51.8882 12.2025C52.1726 12.2025 52.4036 12.1664 52.528 12.0762C52.6702 11.9859 52.7413 11.8595 52.7413 11.6609C52.7413 11.4803 52.6702 11.3359 52.528 11.1914C52.3858 11.065 52.1015 10.9206 51.7105 10.7581C51.2306 10.5595 50.8929 10.3248 50.6975 10.072C50.502 9.81922 50.3953 9.49422 50.3953 9.097C50.3953 8.59144 50.5908 8.17616 50.9818 7.85116C51.3728 7.52617 51.8882 7.36367 52.5102 7.36367C52.7057 7.36367 52.919 7.38172 53.15 7.43589C53.3811 7.49005 53.5944 7.54422 53.7543 7.59839V8.88033C53.5766 8.772 53.3811 8.66366 53.15 8.57339C52.919 8.48311 52.688 8.447 52.4747 8.447C52.2259 8.447 52.0304 8.50116 51.906 8.59144C51.7816 8.71783 51.7105 8.84422 51.7105 9.02477ZM54.6252 10.4331C54.6252 9.51227 54.8918 8.772 55.3894 8.23033C55.9048 7.68867 56.6157 7.41783 57.5221 7.41783C58.3752 7.41783 59.0505 7.67061 59.5304 8.19422C60.0102 8.71783 60.259 9.42199 60.259 10.3067C60.259 11.2095 59.9924 11.9317 59.4948 12.4734C58.9794 13.015 58.2863 13.2859 57.3977 13.2859C56.5446 13.2859 55.8692 13.0331 55.3716 12.5275C54.8918 12.0039 54.6252 11.2998 54.6252 10.4331ZM55.9759 10.3789C55.9759 10.9567 56.1003 11.4081 56.3669 11.715C56.6335 12.022 57.0067 12.1845 57.4865 12.1845C57.9486 12.1845 58.3218 12.04 58.5707 11.715C58.8195 11.4081 58.9439 10.9567 58.9439 10.3428C58.9439 9.74699 58.8195 9.29561 58.5707 8.97061C58.3218 8.66366 57.9486 8.50116 57.5043 8.50116C57.0244 8.50116 56.669 8.66366 56.4024 8.98866C56.118 9.33172 55.9759 9.7831 55.9759 10.3789ZM64.5777 8.62755H62.6405V13.1414H61.3254V8.62755H60.4012V7.54422H61.3254V6.76783C61.3254 6.19006 61.5209 5.70256 61.8941 5.32339C62.2673 4.94423 62.7472 4.76367 63.3337 4.76367C63.4936 4.76367 63.6358 4.78173 63.7602 4.78173C63.8846 4.78173 63.9912 4.81784 64.0801 4.85395V5.99145C64.0446 5.97339 63.9557 5.93728 63.8491 5.90117C63.7424 5.86506 63.618 5.847 63.4758 5.847C63.2093 5.847 62.996 5.93728 62.8538 6.09978C62.7116 6.26228 62.6405 6.53311 62.6405 6.85811V7.52617H64.5777V6.26228L65.8751 5.86506V7.52617H67.1903V8.6095H65.8751V11.2275C65.8751 11.5706 65.9462 11.8053 66.0529 11.9498C66.1773 12.0942 66.3728 12.1664 66.6393 12.1664C66.7104 12.1664 66.7993 12.1484 66.9059 12.1123C67.0126 12.0762 67.1014 12.04 67.1725 11.9859V13.0692C67.0837 13.1234 66.9593 13.1595 66.7638 13.1956C66.5683 13.2317 66.3905 13.2498 66.195 13.2498C65.6441 13.2498 65.2353 13.1053 64.9687 12.8164C64.7021 12.5275 64.56 12.0762 64.56 11.4803L64.5777 8.62755Z" fill="#E4E4E4"/>
<path d="M25.9852 19.3012C25.6332 19.3012 25.3172 19.2232 25.0372 19.0672C24.7572 18.9112 24.5372 18.6832 24.3772 18.3832C24.2172 18.0792 24.1372 17.7112 24.1372 17.2792C24.1372 16.8512 24.2192 16.4852 24.3832 16.1812C24.5472 15.8732 24.7692 15.6392 25.0492 15.4792C25.3292 15.3152 25.6432 15.2332 25.9912 15.2332C26.2712 15.2332 26.5072 15.2852 26.6992 15.3892C26.8952 15.4892 27.0552 15.6032 27.1792 15.7312L26.8072 16.1812C26.7072 16.0852 26.5952 16.0052 26.4712 15.9412C26.3512 15.8732 26.1992 15.8392 26.0152 15.8392C25.6672 15.8392 25.3852 15.9672 25.1692 16.2232C24.9572 16.4752 24.8512 16.8212 24.8512 17.2612C24.8512 17.7092 24.9532 18.0612 25.1572 18.3172C25.3612 18.5692 25.6592 18.6952 26.0512 18.6952C26.1632 18.6952 26.2692 18.6812 26.3692 18.6532C26.4692 18.6212 26.5512 18.5772 26.6152 18.5212V17.6752H25.8712V17.1052H27.2392V18.8332C27.1072 18.9652 26.9312 19.0772 26.7112 19.1692C26.4952 19.2572 26.2532 19.3012 25.9852 19.3012Z" fill="#E4E4E4"/>
<path d="M28.0488 19.2292V16.2832H28.6188L28.6668 16.8052H28.6908C28.7948 16.6132 28.9208 16.4672 29.0688 16.3672C29.2168 16.2632 29.3688 16.2112 29.5248 16.2112C29.6648 16.2112 29.7768 16.2312 29.8608 16.2712L29.7408 16.8712C29.6888 16.8552 29.6408 16.8432 29.5968 16.8352C29.5528 16.8272 29.4988 16.8232 29.4348 16.8232C29.3188 16.8232 29.1968 16.8692 29.0688 16.9612C28.9408 17.0492 28.8308 17.2052 28.7388 17.4292V19.2292H28.0488Z" fill="#E4E4E4"/>
<path d="M30.8429 19.3012C30.5869 19.3012 30.3769 19.2212 30.2129 19.0612C30.0529 18.9012 29.9729 18.6932 29.9729 18.4372C29.9729 18.1212 30.1109 17.8772 30.3869 17.7052C30.6629 17.5292 31.1029 17.4092 31.7069 17.3452C31.7029 17.1892 31.6609 17.0552 31.5809 16.9432C31.5049 16.8272 31.3669 16.7692 31.1669 16.7692C31.0229 16.7692 30.8809 16.7972 30.7409 16.8532C30.6049 16.9092 30.4709 16.9772 30.3389 17.0572L30.0869 16.5952C30.2509 16.4912 30.4349 16.4012 30.6389 16.3252C30.8469 16.2492 31.0669 16.2112 31.2989 16.2112C31.6669 16.2112 31.9409 16.3212 32.1209 16.5412C32.3049 16.7572 32.3969 17.0712 32.3969 17.4832V19.2292H31.8269L31.7789 18.9052H31.7549C31.6229 19.0172 31.4809 19.1112 31.3289 19.1872C31.1809 19.2632 31.0189 19.3012 30.8429 19.3012ZM31.0649 18.7612C31.1849 18.7612 31.2929 18.7332 31.3889 18.6772C31.4889 18.6172 31.5949 18.5372 31.7069 18.4372V17.7772C31.3069 17.8292 31.0289 17.9072 30.8729 18.0112C30.7169 18.1112 30.6389 18.2352 30.6389 18.3832C30.6389 18.5152 30.6789 18.6112 30.7589 18.6712C30.8389 18.7312 30.9409 18.7612 31.0649 18.7612Z" fill="#E4E4E4"/>
<path d="M33.2226 20.3932V16.2832H33.7926L33.8406 16.5952H33.8646C33.9886 16.4912 34.1266 16.4012 34.2786 16.3252C34.4346 16.2492 34.5926 16.2112 34.7526 16.2112C35.1206 16.2112 35.4046 16.3472 35.6046 16.6192C35.8086 16.8912 35.9106 17.2552 35.9106 17.7112C35.9106 18.0472 35.8506 18.3352 35.7306 18.5752C35.6106 18.8112 35.4546 18.9912 35.2626 19.1152C35.0746 19.2392 34.8706 19.3012 34.6506 19.3012C34.5226 19.3012 34.3946 19.2732 34.2666 19.2172C34.1386 19.1572 34.0146 19.0772 33.8946 18.9772L33.9126 19.4692V20.3932H33.2226ZM34.5066 18.7312C34.7026 18.7312 34.8666 18.6452 34.9986 18.4732C35.1306 18.3012 35.1966 18.0492 35.1966 17.7172C35.1966 17.4212 35.1466 17.1912 35.0466 17.0272C34.9466 16.8632 34.7846 16.7812 34.5606 16.7812C34.3526 16.7812 34.1366 16.8912 33.9126 17.1112V18.4852C34.0206 18.5732 34.1246 18.6372 34.2246 18.6772C34.3246 18.7132 34.4186 18.7312 34.5066 18.7312Z" fill="#E4E4E4"/>
<path d="M36.6093 19.2292V14.9932H37.2993V16.0852L37.2753 16.6552C37.3993 16.5392 37.5373 16.4372 37.6893 16.3492C37.8413 16.2572 38.0173 16.2112 38.2173 16.2112C38.5333 16.2112 38.7633 16.3132 38.9073 16.5172C39.0513 16.7212 39.1233 17.0092 39.1233 17.3812V19.2292H38.4333V17.4712C38.4333 17.2272 38.3973 17.0552 38.3253 16.9552C38.2533 16.8552 38.1353 16.8052 37.9713 16.8052C37.8433 16.8052 37.7293 16.8372 37.6293 16.9012C37.5333 16.9612 37.4233 17.0512 37.2993 17.1712V19.2292H36.6093Z" fill="#E4E4E4"/>
<path d="M42.0202 17.1412L41.8822 17.6212H42.8842L42.7462 17.1412C42.6822 16.9332 42.6202 16.7192 42.5602 16.4992C42.5042 16.2792 42.4482 16.0612 42.3922 15.8452H42.3682C42.3162 16.0652 42.2602 16.2852 42.2002 16.5052C42.1442 16.7212 42.0842 16.9332 42.0202 17.1412ZM40.7062 19.2292L41.9842 15.3052H42.8002L44.0782 19.2292H43.3462L43.0402 18.1672H41.7202L41.4142 19.2292H40.7062Z" fill="#E4E4E4"/>
<path d="M44.5619 19.2292V15.3052H45.7979C46.0899 15.3052 46.3499 15.3432 46.5779 15.4192C46.8059 15.4952 46.9859 15.6212 47.1179 15.7972C47.2499 15.9732 47.3159 16.2132 47.3159 16.5172C47.3159 16.8052 47.2499 17.0432 47.1179 17.2312C46.9859 17.4192 46.8079 17.5592 46.5839 17.6512C46.3599 17.7432 46.1059 17.7892 45.8219 17.7892H45.2579V19.2292H44.5619ZM45.2579 17.2312H45.7679C46.3439 17.2312 46.6319 16.9932 46.6319 16.5172C46.6319 16.2692 46.5559 16.0992 46.4039 16.0072C46.2559 15.9112 46.0359 15.8632 45.7439 15.8632H45.2579V17.2312Z" fill="#E4E4E4"/>
<path d="M48.0541 19.2292V15.3052H48.7501V19.2292H48.0541Z" fill="#E4E4E4"/>
</svg>
