<svg width="73" height="24" viewBox="0 0 73 24" fill="none" xmlns="http://www.w3.org/2000/svg">
<g clip-path="url(#clip0_4092_1813)">
<path d="M12.4495 2C17.9428 2 20.7048 4.93916 20.7048 4.93916C20.7048 4.93916 21.0206 7.11474 20.8191 11.4953C20.5146 18.1127 12.4515 22.0868 12.4507 22.0872C12.4499 22.0876 4.38693 18.1127 4.08238 11.4953C3.88083 7.11474 4.19662 4.93916 4.19662 4.93916C4.19662 4.93916 6.95622 2 12.4495 2Z" fill="#ED2E26"/>
<path d="M31.0286 7.19629C29.7476 7.19774 28.5194 7.70727 27.6136 8.61311C26.7078 9.51894 26.1982 10.7471 26.1968 12.0281C26.1968 13.6409 26.8745 15.0778 28.1568 16.1839C29.3576 17.2196 31.0795 17.9337 33.0677 18.2645C33.352 18.1083 33.8897 17.5813 34.0608 17.2204C32.596 16.9677 31.9242 16.717 31.9242 16.717C32.1156 16.6988 32.3046 16.6608 32.4882 16.6037C34.4452 16.0549 35.8797 14.122 35.8605 12.0282C35.836 9.36399 33.693 7.19629 31.0286 7.19629ZM31.0286 15.4689C30.3481 15.4689 29.6829 15.2671 29.117 14.889C28.5512 14.5109 28.1102 13.9736 27.8498 13.3448C27.5894 12.7161 27.5212 12.0243 27.654 11.3568C27.7868 10.6894 28.1145 10.0763 28.5957 9.5951C29.0769 9.1139 29.69 8.7862 30.3575 8.65344C31.0249 8.52068 31.7167 8.58883 32.3454 8.84925C32.9742 9.10968 33.5115 9.5507 33.8896 10.1165C34.2677 10.6824 34.4695 11.3476 34.4695 12.0281C34.4685 12.9404 34.1056 13.815 33.4605 14.46C32.8155 15.1051 31.9409 15.4679 31.0286 15.4689ZM66.7545 15.0091C66.8977 14.876 67.0859 14.802 67.2814 14.802C67.4769 14.802 67.6651 14.876 67.8083 15.0091C67.9414 15.1553 68.0152 15.3459 68.0152 15.5436C68.0152 15.7414 67.9414 15.932 67.8083 16.0782C67.6651 16.2112 67.4769 16.2851 67.2814 16.2851C67.086 16.2851 66.8978 16.2112 66.7545 16.0782C66.6214 15.932 66.5477 15.7414 66.5477 15.5436C66.5477 15.3459 66.6214 15.1553 66.7545 15.0091ZM66.8612 15.975C66.9751 16.0818 67.1253 16.1411 67.2814 16.1411C67.4375 16.1411 67.5877 16.0818 67.7016 15.975C67.8067 15.8557 67.8647 15.7021 67.8647 15.543C67.8647 15.3839 67.8067 15.2303 67.7016 15.1109C67.5873 15.0051 67.4372 14.9462 67.2814 14.9462C67.1256 14.9462 66.9755 15.0051 66.8612 15.1109C66.7561 15.2303 66.6981 15.3839 66.6981 15.543C66.6981 15.702 66.7561 15.8556 66.8612 15.975ZM67.595 15.351C67.597 15.4064 67.58 15.4607 67.5469 15.5052C67.5139 15.5496 67.4667 15.5815 67.4131 15.5955L67.6232 15.9249H67.46L67.2688 15.605H67.1716V15.9249H67.0336V15.1094H67.3346C67.4035 15.1064 67.4709 15.13 67.5229 15.1754C67.5469 15.1976 67.5658 15.2249 67.5782 15.2552C67.5907 15.2855 67.5964 15.3182 67.595 15.3509V15.351ZM67.1716 15.2379V15.4763H67.3159C67.3518 15.4783 67.3871 15.4665 67.4146 15.4434C67.4265 15.4325 67.4359 15.4191 67.4421 15.4042C67.4484 15.3894 67.4513 15.3733 67.4507 15.3572C67.4507 15.2778 67.4057 15.238 67.3159 15.238L67.1716 15.2379ZM57.7495 14.2481L56.1175 9.91786H54.6633L57.0445 15.9623C57.0445 15.9623 55.9911 18.4663 55.9915 18.4661C56.6846 18.4661 57.4427 18.4172 57.7391 17.6869C58.4348 15.9742 60.8576 9.91793 60.8576 9.91793H59.4033L57.7495 14.2481ZM52.2948 16.4084C52.2948 16.4084 53.6449 16.3833 53.6449 15.4675V7.24152H52.2948V16.4084ZM49.4955 10.7703C49.1196 10.2461 48.3853 9.73735 47.3045 9.73735C45.4597 9.73735 44.0684 11.1722 44.0684 13.0748C44.0684 13.9641 44.3725 14.7906 44.9247 15.4018C45.5219 16.063 46.3449 16.4125 47.3045 16.4125C48.2343 16.4125 49.0304 16.0332 49.4955 15.3836V16.4082C49.4955 16.4082 50.8456 16.3868 50.8456 15.468V9.91765H49.4955V10.7703ZM47.4739 15.1418C46.6578 15.1418 45.4371 14.5972 45.4179 13.0969V13.0862C45.4179 11.9014 46.292 11.008 47.451 11.008C48.3167 11.008 49.0203 11.4603 49.3347 12.2217C49.4614 12.4945 49.5204 12.7939 49.5066 13.0943C49.4985 13.3994 49.428 13.6995 49.2995 13.9763C48.982 14.7061 48.2993 15.1418 47.4737 15.1418H47.4739ZM41.6091 13.436C41.6091 14.5257 41.0431 15.1318 40.0162 15.1418C38.9745 15.1418 38.4683 14.5506 38.4683 13.3345V9.91786H37.1186V13.6052C37.1186 14.1375 37.2083 14.8965 37.6358 15.4903C38.0727 16.097 38.7633 16.4073 39.688 16.4126H39.7259C40.8318 16.4126 41.4013 15.9113 41.6768 15.5217V16.4081C41.6768 16.4081 42.9588 16.3862 42.9588 15.5129V9.91786H41.6088L41.6091 13.436ZM64.0937 12.4828C63.3923 12.1797 62.8823 11.9175 62.8913 11.5107C62.8973 11.2416 63.2517 10.9839 63.6203 10.9967C64.0147 11.0105 64.3071 11.2824 64.47 11.5C64.47 11.5 65.2074 10.8696 65.2967 10.8022C65.1143 10.498 64.8568 10.2458 64.5488 10.0698C64.2408 9.89393 63.8928 9.80022 63.5381 9.79773C63.0427 9.78413 62.5621 9.96752 62.2017 10.3077C61.8413 10.6479 61.6305 11.1171 61.6155 11.6124C61.596 12.499 62.1152 12.8649 62.7963 13.2512L63.9173 13.8817C64.1759 14.0625 64.2979 14.1976 64.2917 14.4758C64.2821 14.9118 63.9175 15.1944 63.4452 15.2223C63.0978 15.2429 62.8125 15.042 62.5423 14.7591C62.0162 14.2085 61.2086 14.4732 60.9616 14.5528C61.4756 15.7343 62.4473 16.4223 63.4184 16.4437C64.6412 16.4706 65.6194 15.568 65.6456 14.3889C65.6575 13.821 65.4088 13.1157 64.0937 12.4828Z" fill="white"/>
<path d="M8.32715 10.6984C8.32715 8.3586 10.1769 6.45508 12.4505 6.45508C13.5446 6.45632 14.5935 6.89149 15.3671 7.66514C16.1408 8.43878 16.576 9.48771 16.5772 10.5818C16.5772 12.3984 15.0156 13.893 13.8121 14.661C14.279 14.9274 15.3094 15.2071 16.296 15.2976C17.0175 14.7413 17.6018 14.0269 18.0039 13.2094C18.406 12.3918 18.6151 11.4929 18.6153 10.5819C18.618 9.77058 18.4605 8.96672 18.1519 8.21639C17.8433 7.46607 17.3897 6.78404 16.817 6.2094C16.2442 5.63476 15.5637 5.17882 14.8144 4.86772C14.0651 4.55662 13.2618 4.39648 12.4505 4.39648C11.6392 4.39648 10.8358 4.55662 10.0866 4.86772C9.33727 5.17882 8.65675 5.63476 8.08402 6.2094C7.5113 6.78404 7.05763 7.46607 6.74903 8.21639C6.44043 8.96672 6.28297 9.77058 6.28568 10.5819C6.28568 12.6349 7.14053 14.4587 8.75773 15.8563C10.2697 17.1628 12.4814 18.035 14.9996 18.4479C15.5451 18.1463 16.4782 17.2563 16.8281 16.7353C14.725 16.4648 12.7346 15.9519 11.4004 15.2519C9.36114 14.1822 8.32715 12.6502 8.32715 10.6984Z" fill="white"/>
</g>
<defs>
<clipPath id="clip0_4092_1813">
<rect width="64" height="20.0872" fill="white" transform="translate(4.01514 2)"/>
</clipPath>
</defs>
</svg>
