<svg width="72" height="24" viewBox="0 0 72 24" fill="none" xmlns="http://www.w3.org/2000/svg">
    <path d="M4.43538 21.3125C5.22812 21.3125 5.87076 20.6689 5.87076 19.875C5.87076 19.0811 5.22812 18.4375 4.43538 18.4375C3.64264 18.4375 3 19.0811 3 19.875C3 20.6689 3.64264 21.3125 4.43538 21.3125Z" fill="#9CC8F8" stroke="#9CC8F8" stroke-width="0.540541"/>
    <path d="M8.42952 5.875C9.22226 5.875 9.8649 5.23141 9.8649 4.4375C9.8649 3.64359 9.22226 3 8.42952 3C7.63678 3 6.99414 3.64359 6.99414 4.4375C6.99414 5.23141 7.63678 5.875 8.42952 5.875Z" fill="#9CC8F8" stroke="#9CC8F8" stroke-width="0.540541"/>
    <path d="M8.42952 17.3125C9.22226 17.3125 9.8649 16.6689 9.8649 15.875C9.8649 15.0811 9.22226 14.4375 8.42952 14.4375C7.63678 14.4375 6.99414 15.0811 6.99414 15.875C6.99414 16.6689 7.63678 17.3125 8.42952 17.3125Z" fill="#9CC8F8" stroke="#9CC8F8" stroke-width="0.540541"/>
    <path d="M19.8499 17.3125C20.6427 17.3125 21.2853 16.6689 21.2853 15.875C21.2853 15.0811 20.6427 14.4375 19.8499 14.4375C19.0572 14.4375 18.4146 15.0811 18.4146 15.875C18.4146 16.6689 19.0572 17.3125 19.8499 17.3125Z" fill="#9CC8F8" stroke="#9CC8F8" stroke-width="0.540541"/>
    <path d="M8.9287 4.4375H7.93018V15.6875H8.9287V4.4375Z" fill="#9CC8F8" stroke="#9CC8F8" stroke-width="0.540541"/>
    <path d="M19.6631 15.375H8.42969V16.375H19.6631V15.375Z" fill="#9CC8F8" stroke="#9CC8F8" stroke-width="0.540541"/>
    <path d="M9.13575 15.875L8.42969 15.1679L4.45808 19.1454L5.16414 19.8525L9.13575 15.875Z" fill="#9CC8F8" stroke="#9CC8F8" stroke-width="0.540541"/>
    <path d="M19.8499 5.875C20.6427 5.875 21.2853 5.23141 21.2853 4.4375C21.2853 3.64359 20.6427 3 19.8499 3C19.0572 3 18.4146 3.64359 18.4146 4.4375C18.4146 5.23141 19.0572 5.875 19.8499 5.875Z" fill="#1685FC" stroke="#1685FC" stroke-width="0.540541"/>
    <path d="M4.43538 9.87503C5.22812 9.87503 5.87076 9.23144 5.87076 8.43753C5.87076 7.64362 5.22812 7.00003 4.43538 7.00003C3.64264 7.00003 3 7.64362 3 8.43753C3 9.23144 3.64264 9.87503 4.43538 9.87503Z" fill="#1685FC" stroke="#1685FC" stroke-width="0.540541"/>
    <path d="M15.8563 9.87503C16.649 9.87503 17.2917 9.23144 17.2917 8.43753C17.2917 7.64362 16.649 7.00003 15.8563 7.00003C15.0635 7.00003 14.4209 7.64362 14.4209 8.43753C14.4209 9.23144 15.0635 9.87503 15.8563 9.87503Z" fill="#1685FC" stroke="#1685FC" stroke-width="0.540541"/>
    <path d="M15.8563 21.3125C16.649 21.3125 17.2917 20.6689 17.2917 19.875C17.2917 19.0811 16.649 18.4375 15.8563 18.4375C15.0635 18.4375 14.4209 19.0811 14.4209 19.875C14.4209 20.6689 15.0635 21.3125 15.8563 21.3125Z" fill="#1685FC" stroke="#1685FC" stroke-width="0.540541"/>
    <path d="M15.669 7.93753H4.43555V8.93753H15.669V7.93753Z" fill="#1685FC" stroke="#1685FC" stroke-width="0.540541"/>
    <path d="M16.3555 8.43753H15.3569V19.6875H16.3555V8.43753Z" fill="#1685FC" stroke="#1685FC" stroke-width="0.540541"/>
    <path d="M15.1499 8.43749L15.856 9.14459L19.8276 5.16712L19.1215 4.46001L15.1499 8.43749Z" fill="#1685FC" stroke="#1685FC" stroke-width="0.540541"/>
    <path d="M26.6899 15.125V9.12499H28.1128V10.0875H28.1378C28.2793 9.78749 28.4956 9.52707 28.7868 9.30624C29.0781 9.0854 29.4733 8.97499 29.9726 8.97499C30.372 8.97499 30.7111 9.04165 30.9898 9.17499C31.2686 9.30832 31.4953 9.48332 31.6701 9.69999C31.8448 9.91665 31.9696 10.1667 32.0445 10.45C32.1194 10.7333 32.1569 11.0292 32.1569 11.3375V15.125H30.6591V12.0875C30.6591 11.9208 30.6508 11.7354 30.6341 11.5312C30.6175 11.3271 30.5738 11.1354 30.5031 10.9562C30.4323 10.7771 30.3221 10.6271 30.1723 10.5062C30.0225 10.3854 29.8187 10.325 29.5607 10.325C29.3111 10.325 29.101 10.3667 28.9304 10.45C28.7598 10.5333 28.6183 10.6458 28.506 10.7875C28.3937 10.9292 28.3125 11.0917 28.2626 11.275C28.2127 11.4583 28.1877 11.65 28.1877 11.85V15.125H26.6899ZM39.8705 12.65H35.3022C35.3522 13.1 35.5269 13.45 35.8265 13.7C36.126 13.95 36.488 14.075 36.9123 14.075C37.2868 14.075 37.6009 13.9979 37.8547 13.8437C38.1085 13.6896 38.3311 13.4958 38.5225 13.2625L39.5959 14.075C39.2464 14.5083 38.8553 14.8167 38.4226 15C37.9899 15.1833 37.5364 15.275 37.0621 15.275C36.6128 15.275 36.1884 15.2 35.789 15.05C35.3896 14.9 35.0443 14.6875 34.753 14.4125C34.4618 14.1375 34.2309 13.8062 34.0603 13.4187C33.8897 13.0312 33.8044 12.6 33.8044 12.125C33.8044 11.65 33.8897 11.2187 34.0603 10.8312C34.2309 10.4437 34.4618 10.1125 34.753 9.83749C35.0443 9.56249 35.3896 9.34999 35.789 9.19999C36.1884 9.04999 36.6128 8.97499 37.0621 8.97499C37.4782 8.97499 37.8589 9.0479 38.2042 9.19374C38.5495 9.33957 38.8449 9.54999 39.0904 9.82499C39.3359 10.1 39.5272 10.4396 39.6645 10.8437C39.8018 11.2479 39.8705 11.7125 39.8705 12.2375V12.65ZM35.3022 11.525H38.3727C38.3644 11.0833 38.2271 10.7354 37.9608 10.4812C37.6945 10.2271 37.3242 10.1 36.8499 10.1C36.4006 10.1 36.0449 10.2292 35.7828 10.4875C35.5207 10.7458 35.3605 11.0917 35.3022 11.525ZM42.0548 10.4H40.8191V9.12499H42.0548V7.38749H43.5525V9.12499H45.2001V10.4H43.5525V13.025C43.5525 13.325 43.6087 13.5625 43.721 13.7375C43.8334 13.9125 44.056 14 44.3888 14C44.5219 14 44.6676 13.9854 44.8257 13.9562C44.9838 13.9271 45.1086 13.8792 45.2001 13.8125V15.075C45.042 15.15 44.8485 15.2021 44.6197 15.2312C44.3909 15.2604 44.1891 15.275 44.0144 15.275C43.615 15.275 43.2884 15.2312 43.0346 15.1437C42.7808 15.0562 42.5811 14.9229 42.4354 14.7437C42.2898 14.5646 42.19 14.3417 42.1359 14.075C42.0818 13.8083 42.0548 13.5 42.0548 13.15V10.4ZM46.6355 15.125V5.67499H48.1333V9.88749H48.1707C48.2456 9.78749 48.3413 9.6854 48.4578 9.58124C48.5743 9.47707 48.7158 9.37915 48.8822 9.28749C49.0486 9.19582 49.24 9.12082 49.4563 9.06249C49.6727 9.00415 49.9223 8.97499 50.2052 8.97499C50.6296 8.97499 51.0207 9.05624 51.3785 9.21874C51.7363 9.38124 52.0421 9.60415 52.2959 9.88749C52.5497 10.1708 52.7473 10.5042 52.8888 10.8875C53.0302 11.2708 53.1009 11.6833 53.1009 12.125C53.1009 12.5667 53.0344 12.9792 52.9012 13.3625C52.7681 13.7458 52.5726 14.0792 52.3146 14.3625C52.0567 14.6458 51.7446 14.8687 51.3785 15.0312C51.0124 15.1937 50.6005 15.275 50.1428 15.275C49.7184 15.275 49.3232 15.1917 48.9571 15.025C48.5909 14.8583 48.2997 14.5917 48.0834 14.225H48.0584V15.125H46.6355ZM51.6032 12.125C51.6032 11.8917 51.5636 11.6667 51.4846 11.45C51.4055 11.2333 51.289 11.0417 51.1351 10.875C50.9812 10.7083 50.796 10.575 50.5797 10.475C50.3633 10.375 50.1179 10.325 49.8433 10.325C49.5687 10.325 49.3232 10.375 49.1068 10.475C48.8905 10.575 48.7054 10.7083 48.5514 10.875C48.3975 11.0417 48.281 11.2333 48.2019 11.45C48.1229 11.6667 48.0834 11.8917 48.0834 12.125C48.0834 12.3583 48.1229 12.5833 48.2019 12.8C48.281 13.0167 48.3975 13.2083 48.5514 13.375C48.7054 13.5417 48.8905 13.675 49.1068 13.775C49.3232 13.875 49.5687 13.925 49.8433 13.925C50.1179 13.925 50.3633 13.875 50.5797 13.775C50.796 13.675 50.9812 13.5417 51.1351 13.375C51.289 13.2083 51.4055 13.0167 51.4846 12.8C51.5636 12.5833 51.6032 12.3583 51.6032 12.125ZM54.449 12.125C54.449 11.65 54.5342 11.2187 54.7048 10.8312C54.8754 10.4437 55.1063 10.1125 55.3976 9.83749C55.6888 9.56249 56.0341 9.34999 56.4335 9.19999C56.8329 9.04999 57.2573 8.97499 57.7066 8.97499C58.156 8.97499 58.5804 9.04999 58.9798 9.19999C59.3792 9.34999 59.7245 9.56249 60.0157 9.83749C60.307 10.1125 60.5379 10.4437 60.7085 10.8312C60.8791 11.2187 60.9643 11.65 60.9643 12.125C60.9643 12.6 60.8791 13.0312 60.7085 13.4187C60.5379 13.8062 60.307 14.1375 60.0157 14.4125C59.7245 14.6875 59.3792 14.9 58.9798 15.05C58.5804 15.2 58.156 15.275 57.7066 15.275C57.2573 15.275 56.8329 15.2 56.4335 15.05C56.0341 14.9 55.6888 14.6875 55.3976 14.4125C55.1063 14.1375 54.8754 13.8062 54.7048 13.4187C54.5342 13.0312 54.449 12.6 54.449 12.125ZM55.9467 12.125C55.9467 12.3583 55.9863 12.5833 56.0653 12.8C56.1444 13.0167 56.2609 13.2083 56.4148 13.375C56.5687 13.5417 56.7539 13.675 56.9702 13.775C57.1866 13.875 57.4321 13.925 57.7066 13.925C57.9812 13.925 58.2267 13.875 58.4431 13.775C58.6594 13.675 58.8446 13.5417 58.9985 13.375C59.1524 13.2083 59.2689 13.0167 59.348 12.8C59.427 12.5833 59.4666 12.3583 59.4666 12.125C59.4666 11.8917 59.427 11.6667 59.348 11.45C59.2689 11.2333 59.1524 11.0417 58.9985 10.875C58.8446 10.7083 58.6594 10.575 58.4431 10.475C58.2267 10.375 57.9812 10.325 57.7066 10.325C57.4321 10.325 57.1866 10.375 56.9702 10.475C56.7539 10.575 56.5687 10.7083 56.4148 10.875C56.2609 11.0417 56.1444 11.2333 56.0653 11.45C55.9863 11.6667 55.9467 11.8917 55.9467 12.125ZM61.7507 15.125L64.1596 11.9L62.0877 9.12499H63.91L65.1082 10.925L66.4063 9.12499H68.1163L66.0693 11.9L68.4782 15.125H66.6559L65.0957 12.975L63.5231 15.125H61.7507Z" fill="#1685FC" stroke="#1685FC" stroke-width="0.540541"/>
</svg>
