<svg width="72" height="24" viewBox="0 0 72 24" fill="none" xmlns="http://www.w3.org/2000/svg">
    <g clip-path="url(#clip0_2665_1449)">
        <path d="M5.71172 6H4.07178V15.6683H5.71172V6Z" fill="#6B0AEA"/>
        <path fill-rule="evenodd" clip-rule="evenodd" d="M6.10889 18L7.74756 16.9987V8.62825C7.26176 8.27305 6.70209 8.02854 6.10889 7.91235V18Z" fill="#6B0AEA"/>
        <path fill-rule="evenodd" clip-rule="evenodd" d="M2.03076 17.0037L3.6707 18.005V7.91736C3.07745 8.03179 2.51735 8.27459 2.03076 8.62825V17.0037Z" fill="#6B0AEA"/>
        <path fill-rule="evenodd" clip-rule="evenodd" d="M8.14502 6.45935V16.8236L8.9066 16.358C9.1793 16.1811 9.40239 15.9393 9.55524 15.6549C9.7081 15.3705 9.7858 15.0528 9.78115 14.7309V9.83607C9.78496 8.42431 8.14502 6.45935 8.14502 6.45935Z" fill="#6B0AEA"/>
        <path fill-rule="evenodd" clip-rule="evenodd" d="M-0.000261232 14.7272C-0.00525779 15.0491 0.0722859 15.367 0.225174 15.6514C0.378062 15.9358 0.60134 16.1776 0.874289 16.3542L1.63587 16.8198V6.45935C1.63587 6.45935 -0.000261232 8.42431 -0.000261232 9.83607V14.7272Z" fill="#6B0AEA"/>
        <path fill-rule="evenodd" clip-rule="evenodd" d="M49.0814 15.7823V8.15773L50.2644 7.66711V15.7823H49.0814ZM47.2181 12.5883C47.2241 12.3826 47.1855 12.1779 47.1047 11.9882C47.0239 11.7984 46.9029 11.6279 46.7497 11.4881C46.446 11.2153 46.0473 11.0683 45.6365 11.0776C45.23 11.0665 44.8354 11.214 44.5386 11.4881C44.2349 11.7787 44.0536 12.1716 44.0308 12.5883H47.2181ZM45.6137 15.8736C44.7818 15.8736 44.1049 15.61 43.5828 15.0826C43.0607 14.5553 42.8013 13.8557 42.8047 12.9838C42.8047 12.1127 43.0683 11.4147 43.5955 10.8899C44.1227 10.3651 44.8043 10.1035 45.6403 10.1052C46.4772 10.1052 47.1542 10.3555 47.6712 10.8561C48.1882 11.3567 48.4484 12.0142 48.4518 12.8286C48.4528 13.0117 48.4388 13.1946 48.4099 13.3755H44.0182C44.0249 13.7939 44.1986 14.1928 44.5018 14.4856C44.8018 14.7612 45.2 14.9087 45.6099 14.8962C46.2555 14.8962 46.7099 14.6358 46.9731 14.1152H48.2538C48.0864 14.6281 47.7557 15.074 47.3107 15.3868C46.8129 15.7248 46.2177 15.8955 45.6137 15.8736ZM38.1717 10.1965V11.0726C38.5525 10.4243 39.1631 10.1002 40.0033 10.1002C40.2988 10.0905 40.5932 10.1412 40.8679 10.2488C41.1427 10.3565 41.3919 10.5189 41.6001 10.7259C42.0232 11.1431 42.2348 11.7272 42.2348 12.4781V15.7823H41.0594V12.6596C41.0594 12.159 40.9325 11.7756 40.6786 11.5094C40.5421 11.3732 40.3778 11.2671 40.1966 11.1981C40.0155 11.1291 39.8216 11.0987 39.6276 11.1089C39.4315 11.0976 39.2352 11.1271 39.0514 11.1957C38.8677 11.2643 38.7007 11.3703 38.5614 11.5069C38.3016 11.7731 38.1717 12.1565 38.1717 12.6571V15.7823H36.9849V10.1965H38.1717ZM34.7789 15.7823V10.1965H35.9657V15.7823H34.7789ZM33.9196 11.139H32.5233V14.2303C32.5154 14.3118 32.5247 14.3941 32.5507 14.4719C32.5767 14.5497 32.6188 14.6213 32.6744 14.6821C32.7747 14.7735 32.946 14.8186 33.1897 14.8186H33.9183V15.7823H32.9816C31.8815 15.7823 31.3315 15.2649 31.3315 14.2303V9.29665L32.5284 8.80729V10.1965H33.9246L33.9196 11.139ZM26.7239 10.1965V11.0726C27.1013 10.4276 27.7131 10.1052 28.5593 10.1052C28.8549 10.0959 29.1494 10.1467 29.4243 10.2543C29.6992 10.362 29.9487 10.5242 30.1574 10.7309C30.5805 11.1481 30.792 11.7322 30.792 12.4831V15.7823H29.6154V12.6596C29.6154 12.159 29.4884 11.7756 29.2346 11.5094C29.098 11.3732 28.9338 11.2671 28.7526 11.1981C28.5715 11.1291 28.3775 11.0987 28.1836 11.1089C27.9866 11.0968 27.7893 11.1261 27.6047 11.1947C27.42 11.2633 27.2522 11.3697 27.1123 11.5069C26.8525 11.7731 26.7222 12.1565 26.7213 12.6571V15.7823H25.5358V10.1965H26.7239ZM23.6776 12.5883C23.6836 12.3826 23.645 12.1779 23.5642 11.9882C23.4834 11.7984 23.3624 11.6279 23.2092 11.4881C22.9029 11.2129 22.5001 11.0657 22.0859 11.0776C21.6793 11.0665 21.2847 11.214 20.9879 11.4881C20.6837 11.7784 20.5023 12.1715 20.4802 12.5883H23.6776ZM22.0681 15.8736C21.2354 15.8736 20.5585 15.61 20.0372 15.0826C19.5159 14.5553 19.2562 13.8557 19.2578 12.9838C19.2578 12.1127 19.5214 11.4147 20.0486 10.8899C20.5758 10.3651 21.2574 10.1035 22.0935 10.1052C22.9295 10.1052 23.6065 10.3555 24.1244 10.8561C24.6422 11.3567 24.9024 12.0142 24.905 12.8286C24.9059 13.0117 24.8919 13.1946 24.8631 13.3755H20.4713C20.4778 13.7942 20.6521 14.1933 20.9562 14.4856C21.2559 14.7617 21.6544 14.9093 22.0643 14.8962C22.7091 14.8962 23.1635 14.6358 23.4275 14.1152H24.707C24.5396 14.6281 24.2088 15.074 23.7639 15.3868C23.2664 15.7246 22.6717 15.8953 22.0681 15.8736ZM16.1544 9.58827C15.8445 9.57455 15.5394 9.66746 15.2913 9.85109C15.1787 9.94409 15.0898 10.0618 15.0319 10.1949C14.9739 10.3279 14.9484 10.4725 14.9574 10.6171C14.9507 10.768 14.9843 10.918 15.0546 11.0521C15.125 11.1863 15.2298 11.2999 15.3585 11.3818C15.6498 11.569 15.9746 11.6999 16.3156 11.7672C16.6896 11.8507 17.0641 11.9437 17.4389 12.0463C17.8065 12.1493 18.137 12.3528 18.3922 12.6333C18.6545 12.9162 18.7861 13.3183 18.7869 13.8398C18.7878 14.3613 18.5623 14.8273 18.1104 15.2378C17.6594 15.6508 17.056 15.8594 16.3004 15.8636C15.5447 15.8678 14.9308 15.6951 14.4586 15.3455C14.2299 15.1836 14.0454 14.9683 13.9218 14.7188C13.7982 14.4694 13.7393 14.1936 13.7503 13.9162H15.0196C15.034 14.1995 15.1613 14.4658 15.3738 14.6571C15.5819 14.839 15.8874 14.9299 16.2902 14.9299C16.6349 14.9491 16.9744 14.8406 17.2422 14.6258C17.4374 14.4578 17.5601 14.2225 17.5851 13.9682C17.6101 13.7139 17.5356 13.4597 17.3767 13.2579C17.2264 13.0967 17.0368 12.976 16.8259 12.9074C16.5819 12.8249 16.3336 12.7556 16.082 12.6997C15.8113 12.6396 15.5388 12.5687 15.2646 12.4869C15.0034 12.4113 14.7521 12.3058 14.5157 12.1727C14.2833 12.0379 14.0924 11.8432 13.9636 11.6095C13.8135 11.331 13.74 11.0186 13.7503 10.7034C13.7407 10.4208 13.7972 10.1398 13.9154 9.8822C14.0336 9.62458 14.2103 9.39725 14.4319 9.2178C14.8864 8.84233 15.4762 8.6546 16.2014 8.6546C16.9266 8.6546 17.5058 8.81271 17.939 9.12894C18.3731 9.45351 18.6143 9.92327 18.6625 10.5382H17.3513C17.3272 10.2749 17.2002 10.0313 16.9972 9.8586C16.7606 9.66748 16.4598 9.57099 16.1544 9.58827Z" fill="#F5F5F5"/>
        <path fill-rule="evenodd" clip-rule="evenodd" d="M67.636 10.5144C67.2472 10.5095 66.8627 10.5953 66.5139 10.7647C66.1699 10.9357 65.883 11.2008 65.6876 11.5282C65.4652 11.9137 65.3521 12.3512 65.3601 12.7947H69.8115C69.8516 12.355 69.7612 11.9132 69.5513 11.5231C69.3662 11.1931 69.0832 10.9267 68.7403 10.7597C68.3964 10.5947 68.0183 10.5108 67.636 10.5144ZM67.6157 15.3592C68.127 15.3763 68.6302 15.2297 69.05 14.9412C69.2396 14.8078 69.3999 14.6381 69.5214 14.4422C69.6429 14.2463 69.723 14.0282 69.757 13.801H70.2456C70.1562 14.3597 69.8527 14.8632 69.3977 15.2078C68.9374 15.5632 68.3502 15.7409 67.636 15.7409C67.1419 15.7502 66.6537 15.6343 66.2181 15.4042C65.8047 15.1806 65.4657 14.8437 65.242 14.4343C64.9961 13.9717 64.8746 13.4545 64.8892 12.9324C64.8767 12.4165 64.9982 11.906 65.242 11.4493C65.465 11.0406 65.8025 10.7039 66.2143 10.4793C66.6499 10.2493 67.1381 10.1334 67.6322 10.1427C68.1265 10.1302 68.6155 10.2463 69.05 10.4793C69.4291 10.6853 69.7422 10.9918 69.9537 11.3642C70.1563 11.7218 70.2621 12.1248 70.2609 12.5344C70.2596 12.7133 70.2422 12.8917 70.2088 13.0676H65.3601C65.3517 13.5159 65.4648 13.9583 65.6876 14.3492C65.8803 14.6769 66.1657 14.9422 66.5088 15.1126C66.8532 15.2787 67.2323 15.3631 67.6157 15.3592ZM61.834 10.1026C62.4991 10.1026 63.0398 10.3037 63.4561 10.7059C63.8725 11.108 64.0802 11.7009 64.0794 12.4843V15.6708H63.6123V12.5081C63.6123 11.8523 63.4422 11.3504 63.1045 11.0062C62.7669 10.6621 62.3011 10.4881 61.7083 10.4881C61.4356 10.4767 61.1635 10.5223 60.91 10.622C60.6564 10.7216 60.4271 10.8731 60.2372 11.0663C59.8665 11.4518 59.6812 12.0196 59.6812 12.7697V15.6708H59.2141V10.2128H59.6812V11.6508C59.7924 11.1816 60.0759 10.7696 60.4771 10.4944C60.878 10.2299 61.3517 10.0931 61.834 10.1026ZM54.7957 9.05881C54.2516 9.05116 53.7152 9.18683 53.242 9.4518C52.7788 9.7145 52.4003 10.1011 52.1504 10.5669C51.8741 11.0881 51.7366 11.6699 51.7506 12.2578C51.737 12.8449 51.8746 13.4258 52.1504 13.9462C52.4006 14.4118 52.779 14.7983 53.242 15.0613C53.7175 15.3183 54.2509 15.453 54.7931 15.453C55.3353 15.453 55.8688 15.3183 56.3442 15.0613C56.8096 14.7996 57.1899 14.4128 57.4409 13.9462C57.7168 13.4258 57.8544 12.8449 57.8407 12.2578C57.8544 11.6707 57.7168 11.0899 57.4409 10.5695C57.1903 10.1025 56.8099 9.71566 56.3442 9.45431C55.8726 9.18966 55.3383 9.05318 54.7957 9.05881ZM54.7957 8.64705C55.4313 8.63746 56.058 8.79561 56.6108 9.10512C57.1432 9.40493 57.5788 9.84704 57.8674 10.3805C58.1759 10.9587 58.3314 11.6045 58.3193 12.2578C58.3301 12.9086 58.1747 13.5516 57.8674 14.1277C57.5779 14.6623 57.1426 15.1066 56.6108 15.4105C56.0558 15.7142 55.4316 15.8735 54.7969 15.8735C54.1623 15.8735 53.5381 15.7142 52.9831 15.4105C52.4471 15.1067 52.0076 14.6616 51.7138 14.1251C51.405 13.5506 51.2495 12.908 51.2619 12.2578C51.2493 11.6038 51.4066 10.9576 51.7189 10.3805C52.0114 9.84444 52.4514 9.40066 52.9882 9.10012C53.5392 8.79353 54.1631 8.63715 54.7957 8.64705Z" fill="#F5F5F5"/>
        <path d="M71.5215 10.9499L71.3946 10.7609H71.2905V10.9499H71.1636V10.3579H71.4377C71.5799 10.3579 71.6649 10.4318 71.6649 10.5532C71.6668 10.5931 71.6554 10.6325 71.6325 10.6655C71.6096 10.6984 71.5764 10.7231 71.538 10.7359L71.6853 10.9474L71.5215 10.9499ZM71.5215 10.5607C71.5215 10.5043 71.4822 10.4756 71.4174 10.4756H71.2905V10.6458H71.4238C71.4885 10.6458 71.5253 10.612 71.5253 10.5619L71.5215 10.5607Z" fill="#F5F5F5"/>
        <path d="M71.3854 11.2766C71.2636 11.2769 71.1444 11.2415 71.0429 11.1749C70.9415 11.1083 70.8624 11.0135 70.8157 10.9025C70.7689 10.7915 70.7566 10.6694 70.7803 10.5515C70.804 10.4337 70.8627 10.3254 70.9489 10.2404C71.035 10.1554 71.1448 10.0976 71.2644 10.0742C71.3839 10.0508 71.5078 10.063 71.6203 10.1091C71.7329 10.1552 71.829 10.2332 71.8966 10.3332C71.9641 10.4332 72 10.5507 71.9998 10.6709C71.9994 10.8314 71.9346 10.9853 71.8195 11.0989C71.7043 11.2124 71.5483 11.2763 71.3854 11.2766ZM71.3854 10.1965C71.2903 10.1965 71.1973 10.2244 71.1182 10.2765C71.0391 10.3286 70.9774 10.4027 70.941 10.4894C70.9046 10.576 70.895 10.6714 70.9136 10.7634C70.9322 10.8554 70.978 10.94 71.0453 11.0063C71.1126 11.0726 71.1983 11.1178 71.2916 11.1361C71.3849 11.1544 71.4816 11.145 71.5695 11.1091C71.6574 11.0732 71.7326 11.0124 71.7854 10.9344C71.8383 10.8564 71.8665 10.7647 71.8665 10.6709C71.8665 10.5451 71.8158 10.4244 71.7256 10.3355C71.6354 10.2465 71.513 10.1965 71.3854 10.1965Z" fill="#F5F5F5"/>
    </g>
    <defs>
        <clipPath id="clip0_2665_1449">
            <rect width="72" height="12" fill="white" transform="translate(0 6)"/>
        </clipPath>
    </defs>
</svg>
