<svg width="72" height="24" viewBox="0 0 72 24" fill="none" xmlns="http://www.w3.org/2000/svg">
    <path d="M19.2925 21C20.1075 21 20.7345 20.5669 20.7345 19.8484C20.7345 19.2318 20.257 18.9414 19.4999 18.8701L20.638 17.8611V17.3516H18.0723L18.0482 17.9172H19.823L18.6896 18.9618V19.3032H18.8584C19.7072 19.3032 20.1075 19.4713 20.1075 19.8637C20.1075 20.2306 19.7748 20.4446 19.2732 20.4446C18.9694 20.4446 18.4485 20.3274 18.0048 20.1083H18V20.7197C18.3762 20.8828 18.8247 21 19.2925 21Z" fill="#E4E4E4"/>
    <path d="M22.8776 21C23.6541 21 24.2907 20.5057 24.2907 19.6955C24.2907 18.9669 23.765 18.6051 23.0416 18.6051C22.6799 18.6051 22.2892 18.7223 21.9902 18.972C22.0336 18.1414 22.5207 17.8204 23.1091 17.8204C23.466 17.8204 23.7168 17.9172 24.0978 18.0955H24.1026V17.5096C23.765 17.3465 23.4033 17.2701 23.0898 17.2701C22.1687 17.2701 21.3874 17.9121 21.3874 19.2318C21.3874 20.414 22.0047 21 22.8776 21ZM22.9065 19.1248C23.302 19.1248 23.6926 19.2726 23.6926 19.7363C23.6926 20.2204 23.3117 20.4599 22.9114 20.4599C22.4291 20.4599 22.0095 20.1796 21.9854 19.4611C22.2844 19.2369 22.5979 19.1248 22.9065 19.1248Z" fill="#E4E4E4"/>
    <path d="M26.2343 21C27.1457 21 27.6618 20.4548 27.6618 19.8229C27.6618 19.5478 27.5943 19.3236 27.4351 19.1503C27.1602 18.8497 26.7117 18.7427 25.8967 18.7427H25.6266L25.6555 17.9172H27.4544L27.4351 17.3516H25.1106L25.0623 19.2981H25.7038C26.514 19.2981 26.7744 19.3796 26.9143 19.5274C26.9914 19.6089 27.0252 19.7108 27.0252 19.8433C27.0252 20.1185 26.8178 20.4395 26.215 20.4395C25.887 20.4395 25.4289 20.3478 24.9562 20.149H24.9514V20.7605C25.3855 20.9236 25.8725 21 26.2343 21Z" fill="#E4E4E4"/>
    <path d="M29.9369 20.9185H31.5429C32.6135 20.9185 33.2404 20.2408 33.2404 19.1299C33.2404 18.014 32.6135 17.3516 31.5429 17.3516H29.9369V20.9185ZM30.5542 20.3274V17.9427H31.538C32.2229 17.9427 32.6087 18.3401 32.6087 19.1401C32.6087 19.9401 32.2229 20.3274 31.538 20.3274H30.5542Z" fill="#E4E4E4"/>
    <path d="M35.2721 18.1108C34.4377 18.1108 33.9024 18.758 33.9024 19.614C33.9024 20.4038 34.3798 20.9949 35.3589 20.9949C35.7833 20.9949 36.1353 20.8573 36.3668 20.7096V20.1541H36.362C36.063 20.3529 35.7591 20.4701 35.3782 20.4701C34.8525 20.4701 34.5438 20.2 34.4908 19.7261H36.5018C36.5115 19.6599 36.5163 19.5885 36.5163 19.5223C36.5163 18.7427 36.1257 18.1108 35.2721 18.1108ZM35.2576 18.6204C35.6916 18.6204 35.9279 18.9057 35.9569 19.3032H34.5101C34.592 18.8803 34.8621 18.6204 35.2576 18.6204Z" fill="#E4E4E4"/>
    <path d="M37.5261 20.9185H38.1097V18.7019H38.8572V18.1873H38.1097V18.0191C38.1097 17.6981 38.2206 17.5248 38.5003 17.5248C38.6113 17.5248 38.7029 17.5452 38.8138 17.586H38.8186V17.0662C38.6788 17.0153 38.563 17 38.3991 17C37.7769 17 37.5261 17.4229 37.5261 18.0904V18.1873H37.1017L37.0053 18.7019H37.5261V20.9185Z" fill="#E4E4E4"/>
    <path d="M40.588 18.1108C39.7536 18.1108 39.2183 18.758 39.2183 19.614C39.2183 20.4038 39.6958 20.9949 40.6748 20.9949C41.0992 20.9949 41.4512 20.8573 41.6827 20.7096V20.1541H41.6779C41.3789 20.3529 41.0751 20.4701 40.6941 20.4701C40.1684 20.4701 39.8597 20.2 39.8067 19.7261H41.8178C41.8274 19.6599 41.8322 19.5885 41.8322 19.5223C41.8322 18.7427 41.4416 18.1108 40.588 18.1108ZM40.5735 18.6204C41.0075 18.6204 41.2439 18.9057 41.2728 19.3032H39.826C39.908 18.8803 40.178 18.6204 40.5735 18.6204Z" fill="#E4E4E4"/>
    <path d="M42.5773 20.9185H43.1656V19.0739C43.373 18.8497 43.619 18.6611 43.9276 18.6611C44.217 18.6611 44.4388 18.7987 44.4388 19.2522V20.9185H45.0272V19.1248C45.0272 18.4318 44.6655 18.1108 44.1302 18.1108C43.7058 18.1108 43.4068 18.3452 43.156 18.6357V18.1873H42.5773V20.9185Z" fill="#E4E4E4"/>
    <path d="M48.4211 17.0764H47.8327V18.2994C47.6446 18.1822 47.4373 18.1108 47.1479 18.1108C46.357 18.1108 45.7493 18.7427 45.7493 19.5987C45.7493 20.4904 46.2895 20.9949 46.9405 20.9949C47.3505 20.9949 47.6495 20.7911 47.8424 20.5567L47.8472 20.9185H48.4211V17.0764ZM47.1961 18.6408C47.4566 18.6408 47.6495 18.7325 47.8327 18.8854V20.1592C47.6639 20.3274 47.4035 20.465 47.1334 20.465C46.6849 20.465 46.3425 20.1694 46.3425 19.5631C46.3425 19.0178 46.6753 18.6408 47.1961 18.6408Z" fill="#E4E4E4"/>
    <path d="M50.5446 18.1108C49.7103 18.1108 49.1749 18.758 49.1749 19.614C49.1749 20.4038 49.6524 20.9949 50.6314 20.9949C51.0558 20.9949 51.4079 20.8573 51.6394 20.7096V20.1541H51.6345C51.3355 20.3529 51.0317 20.4701 50.6507 20.4701C50.125 20.4701 49.8164 20.2 49.7633 19.7261H51.7744C51.784 19.6599 51.7889 19.5885 51.7889 19.5223C51.7889 18.7427 51.3982 18.1108 50.5446 18.1108ZM50.5301 18.6204C50.9642 18.6204 51.2005 18.9057 51.2294 19.3032H49.7826C49.8646 18.8803 50.1347 18.6204 50.5301 18.6204Z" fill="#E4E4E4"/>
    <path d="M52.5339 20.9185H53.1223V19.2013C53.2477 18.8955 53.5225 18.7427 53.8746 18.7427C53.918 18.7427 53.9518 18.7427 54 18.7529V18.1312C53.9518 18.1261 53.9277 18.1261 53.9035 18.1261C53.5997 18.1261 53.3152 18.335 53.1126 18.7529V18.1873H52.5339V20.9185Z" fill="#E4E4E4"/>
    <path d="M30.9526 3.59999V11.4H29.6196V5.27916H29.6019L27.2204 11.4H26.3317L23.8969 5.27916H23.8791V11.4H22.6528V3.59999H24.5723L26.776 9.37776H26.8116L29.1398 3.59999H30.9526ZM32.0545 4.19583C32.0545 3.97916 32.1256 3.7986 32.2855 3.65416C32.4455 3.50972 32.6232 3.43749 32.8365 3.43749C33.0675 3.43749 33.263 3.50972 33.4052 3.65416C33.5473 3.7986 33.6362 3.97916 33.6362 4.19583C33.6362 4.41249 33.5651 4.59305 33.4052 4.73749C33.2452 4.88193 33.0675 4.95416 32.8365 4.95416C32.6054 4.95416 32.4277 4.88193 32.2855 4.73749C32.1433 4.57499 32.0545 4.39444 32.0545 4.19583ZM33.494 5.80277V11.4H32.1966V5.80277H33.494ZM37.4217 10.443C37.6172 10.443 37.8305 10.4069 38.0616 10.2986C38.2926 10.2083 38.5059 10.0819 38.7014 9.93748V11.1653C38.4881 11.2916 38.2571 11.3819 37.9905 11.4361C37.7239 11.4903 37.4395 11.5264 37.1196 11.5264C36.3021 11.5264 35.6445 11.2736 35.1469 10.75C34.6315 10.2264 34.3827 9.55831 34.3827 8.76387C34.3827 7.86109 34.6492 7.12082 35.1646 6.54304C35.68 5.96527 36.4087 5.67638 37.3684 5.67638C37.6172 5.67638 37.8661 5.71249 38.0971 5.76665C38.3459 5.82082 38.5414 5.9111 38.6836 5.98332V7.24721C38.4881 7.10276 38.2748 6.97637 38.0793 6.90415C37.8661 6.83193 37.6528 6.77776 37.4395 6.77776C36.9241 6.77776 36.5154 6.94026 36.1954 7.28332C35.8755 7.62637 35.7334 8.07776 35.7334 8.65554C35.7334 9.21526 35.8933 9.66665 36.1954 9.97359C36.4976 10.2805 36.9063 10.443 37.4217 10.443ZM42.3803 5.71249C42.4869 5.71249 42.5758 5.71249 42.6646 5.73054C42.7535 5.7486 42.8246 5.76665 42.8779 5.78471V7.12082C42.8068 7.06665 42.7179 7.01248 42.5758 6.97637C42.4336 6.94026 42.2914 6.90415 42.0959 6.90415C41.776 6.90415 41.5094 7.0486 41.2961 7.31943C41.0829 7.59026 40.9585 8.00554 40.9585 8.58331V11.4H39.6611V5.80277H40.9585V6.68749H40.9762C41.1006 6.38054 41.2784 6.14582 41.5094 5.96527C41.7582 5.80277 42.0426 5.71249 42.3803 5.71249ZM42.949 8.69165C42.949 7.77082 43.2156 7.03054 43.7132 6.48888C44.2286 5.94721 44.9395 5.67638 45.8459 5.67638C46.699 5.67638 47.3743 5.92915 47.8542 6.45276C48.334 6.97637 48.5829 7.68054 48.5829 8.56526C48.5829 9.46804 48.3163 10.1903 47.8186 10.7319C47.3032 11.2736 46.6101 11.5444 45.7215 11.5444C44.8684 11.5444 44.1931 11.2916 43.6954 10.7861C43.1978 10.2625 42.949 9.55831 42.949 8.69165ZM44.2997 8.63748C44.2997 9.21526 44.4241 9.66665 44.6907 9.97359C44.9573 10.2805 45.3305 10.443 45.8103 10.443C46.2724 10.443 46.6457 10.2986 46.8945 9.97359C47.1433 9.66665 47.2677 9.21526 47.2677 8.60137C47.2677 8.00554 47.1433 7.55415 46.8945 7.22915C46.6457 6.92221 46.2724 6.75971 45.8281 6.75971C45.3483 6.75971 44.9928 6.92221 44.7262 7.24721C44.4241 7.59026 44.2997 8.04165 44.2997 8.63748ZM50.5201 7.28332C50.5201 7.46387 50.5734 7.62637 50.6978 7.73471C50.8222 7.84304 51.071 7.96943 51.4798 8.13193C51.9952 8.34859 52.3684 8.58331 52.5639 8.83609C52.7772 9.10693 52.8838 9.41387 52.8838 9.79303C52.8838 10.3166 52.6883 10.7319 52.2795 11.0569C51.8885 11.3819 51.3376 11.5264 50.6622 11.5264C50.4312 11.5264 50.1824 11.4903 49.898 11.4361C49.6137 11.3819 49.3826 11.3097 49.1871 11.2194V9.91942C49.4182 10.0819 49.6847 10.2264 49.9513 10.3166C50.2179 10.4069 50.4667 10.4611 50.6978 10.4611C50.9821 10.4611 51.2132 10.425 51.3376 10.3347C51.4798 10.2444 51.5508 10.118 51.5508 9.91942C51.5508 9.73887 51.4798 9.59442 51.3376 9.44998C51.1954 9.32359 50.911 9.17915 50.5201 9.01665C50.0402 8.81804 49.7025 8.58331 49.507 8.33054C49.3115 8.07776 49.2049 7.75276 49.2049 7.35554C49.2049 6.84999 49.4004 6.43471 49.7914 6.10971C50.1824 5.78471 50.6978 5.62221 51.3198 5.62221C51.5153 5.62221 51.7286 5.64027 51.9596 5.69443C52.1907 5.7486 52.4039 5.80277 52.5639 5.85693V7.13887C52.3862 7.03054 52.1907 6.92221 51.9596 6.83193C51.7286 6.74165 51.4975 6.70554 51.2843 6.70554C51.0355 6.70554 50.84 6.75971 50.7155 6.84999C50.5911 6.97637 50.5201 7.10276 50.5201 7.28332ZM53.4347 8.69165C53.4347 7.77082 53.7013 7.03054 54.199 6.48888C54.7144 5.94721 55.4253 5.67638 56.3316 5.67638C57.1847 5.67638 57.8601 5.92915 58.3399 6.45276C58.8198 6.97637 59.0686 7.68054 59.0686 8.56526C59.0686 9.46804 58.802 10.1903 58.3044 10.7319C57.789 11.2736 57.0959 11.5444 56.2072 11.5444C55.3542 11.5444 54.6788 11.2916 54.1812 10.7861C53.7013 10.2625 53.4347 9.55831 53.4347 8.69165ZM54.7854 8.63748C54.7854 9.21526 54.9099 9.66665 55.1764 9.97359C55.443 10.2805 55.8162 10.443 56.2961 10.443C56.7582 10.443 57.1314 10.2986 57.3802 9.97359C57.629 9.66665 57.7534 9.21526 57.7534 8.60137C57.7534 8.00554 57.629 7.55415 57.3802 7.22915C57.1314 6.92221 56.7582 6.75971 56.3139 6.75971C55.834 6.75971 55.4786 6.92221 55.212 7.24721C54.9276 7.59026 54.7854 8.04165 54.7854 8.63748ZM63.3873 6.8861H61.4501V11.4H60.135V6.8861H59.2108V5.80277H60.135V5.02638C60.135 4.4486 60.3304 3.9611 60.7037 3.58194C61.0769 3.20277 61.5567 3.02222 62.1432 3.02222C62.3032 3.02222 62.4454 3.04027 62.5698 3.04027C62.6942 3.04027 62.8008 3.07638 62.8897 3.11249V4.24999C62.8541 4.23194 62.7653 4.19583 62.6586 4.15971C62.552 4.1236 62.4276 4.10555 62.2854 4.10555C62.0188 4.10555 61.8056 4.19583 61.6634 4.35832C61.5212 4.52082 61.4501 4.79166 61.4501 5.11666V5.78471H63.3873V4.52082L64.6847 4.1236V5.78471H65.9999V6.86804H64.6847V9.48609C64.6847 9.82915 64.7558 10.0639 64.8624 10.2083C64.9868 10.3528 65.1823 10.425 65.4489 10.425C65.52 10.425 65.6089 10.4069 65.7155 10.3708C65.8221 10.3347 65.911 10.2986 65.9821 10.2444V11.3278C65.8932 11.3819 65.7688 11.418 65.5733 11.4541C65.3778 11.4903 65.2001 11.5083 65.0046 11.5083C64.4537 11.5083 64.0449 11.3639 63.7783 11.075C63.5117 10.7861 63.3695 10.3347 63.3695 9.73887L63.3873 6.8861Z" fill="#E4E4E4"/>
    <path d="M12.0782 1H6V7.17499H12.0782V1Z" fill="#F25022"/>
    <path d="M18.796 1H12.7178V7.17499H18.796V1Z" fill="#7FBA00"/>
    <path d="M12.0782 7.82507H6V14.0001H12.0782V7.82507Z" fill="#00A4EF"/>
    <path d="M18.796 7.82507H12.7178V14.0001H18.796V7.82507Z" fill="#FFB900"/>
</svg>
