<svg width="72" height="24" viewBox="0 0 72 24" fill="none" xmlns="http://www.w3.org/2000/svg">
<path d="M31.9526 4.59975V12.3997H30.6196V6.27891H30.6019L28.2204 12.3997H27.3317L24.8969 6.27891H24.8791V12.3997H23.6528V4.59975H25.5723L27.776 10.3775H27.8116L30.1398 4.59975H31.9526ZM33.0545 5.19558C33.0545 4.97892 33.1256 4.79836 33.2855 4.65392C33.4455 4.50947 33.6232 4.43725 33.8365 4.43725C34.0675 4.43725 34.263 4.50947 34.4052 4.65392C34.5474 4.79836 34.6362 4.97892 34.6362 5.19558C34.6362 5.41225 34.5651 5.5928 34.4052 5.73725C34.2452 5.88169 34.0675 5.95391 33.8365 5.95391C33.6054 5.95391 33.4277 5.88169 33.2855 5.73725C33.1433 5.57475 33.0545 5.39419 33.0545 5.19558ZM34.494 6.80252V12.3997H33.1966V6.80252H34.494ZM38.4217 11.4428C38.6172 11.4428 38.8305 11.4067 39.0616 11.2983C39.2926 11.2081 39.5059 11.0817 39.7014 10.9372V12.165C39.4881 12.2914 39.2571 12.3817 38.9905 12.4358C38.7239 12.49 38.4395 12.5261 38.1196 12.5261C37.3021 12.5261 36.6445 12.2733 36.1469 11.7497C35.6315 11.2261 35.3827 10.5581 35.3827 9.76363C35.3827 8.86085 35.6492 8.12057 36.1646 7.5428C36.68 6.96502 37.4087 6.67613 38.3684 6.67613C38.6172 6.67613 38.8661 6.71224 39.0971 6.76641C39.3459 6.82058 39.5414 6.91086 39.6836 6.98308V8.24696C39.4881 8.10252 39.2748 7.97613 39.0793 7.90391C38.8661 7.83169 38.6528 7.77752 38.4395 7.77752C37.9241 7.77752 37.5154 7.94002 37.1954 8.28307C36.8755 8.62613 36.7334 9.07752 36.7334 9.65529C36.7334 10.215 36.8933 10.6664 37.1954 10.9733C37.4976 11.2803 37.9063 11.4428 38.4217 11.4428ZM43.3803 6.71224C43.4869 6.71224 43.5758 6.71224 43.6646 6.7303C43.7535 6.74836 43.8246 6.76641 43.8779 6.78447V8.12057C43.8068 8.06641 43.7179 8.01224 43.5758 7.97613C43.4336 7.94002 43.2914 7.90391 43.0959 7.90391C42.776 7.90391 42.5094 8.04835 42.2961 8.31918C42.0829 8.59002 41.9585 9.00529 41.9585 9.58307V12.3997H40.6611V6.80252H41.9585V7.68724H41.9762C42.1006 7.3803 42.2784 7.14558 42.5094 6.96502C42.7582 6.80252 43.0426 6.71224 43.3803 6.71224ZM43.949 9.6914C43.949 8.77057 44.2156 8.0303 44.7132 7.48863C45.2286 6.94697 45.9395 6.67613 46.8459 6.67613C47.699 6.67613 48.3743 6.92891 48.8542 7.45252C49.334 7.97613 49.5829 8.6803 49.5829 9.56502C49.5829 10.4678 49.3163 11.19 48.8186 11.7317C48.3032 12.2733 47.6101 12.5442 46.7215 12.5442C45.8684 12.5442 45.1931 12.2914 44.6954 11.7858C44.1978 11.2622 43.949 10.5581 43.949 9.6914ZM45.2997 9.63724C45.2997 10.215 45.4241 10.6664 45.6907 10.9733C45.9573 11.2803 46.3305 11.4428 46.8103 11.4428C47.2724 11.4428 47.6457 11.2983 47.8945 10.9733C48.1433 10.6664 48.2677 10.215 48.2677 9.60113C48.2677 9.00529 48.1433 8.55391 47.8945 8.22891C47.6457 7.92196 47.2724 7.75946 46.8281 7.75946C46.3483 7.75946 45.9928 7.92196 45.7262 8.24696C45.4241 8.59002 45.2997 9.04141 45.2997 9.63724ZM51.52 8.28307C51.52 8.46363 51.5734 8.62613 51.6978 8.73446C51.8222 8.84279 52.071 8.96918 52.4798 9.13168C52.9952 9.34835 53.3684 9.58307 53.5639 9.83585C53.7772 10.1067 53.8838 10.4136 53.8838 10.7928C53.8838 11.3164 53.6883 11.7317 53.2795 12.0567C52.8885 12.3817 52.3376 12.5261 51.6622 12.5261C51.4312 12.5261 51.1824 12.49 50.898 12.4358C50.6137 12.3817 50.3826 12.3095 50.1871 12.2192V10.9192C50.4182 11.0817 50.6847 11.2261 50.9513 11.3164C51.2179 11.4067 51.4667 11.4608 51.6978 11.4608C51.9821 11.4608 52.2132 11.4247 52.3376 11.3345C52.4798 11.2442 52.5509 11.1178 52.5509 10.9192C52.5509 10.7386 52.4798 10.5942 52.3376 10.4497C52.1954 10.3233 51.911 10.1789 51.52 10.0164C51.0402 9.81779 50.7025 9.58307 50.507 9.33029C50.3115 9.07752 50.2049 8.75252 50.2049 8.3553C50.2049 7.84974 50.4004 7.43446 50.7914 7.10947C51.1824 6.78447 51.6978 6.62197 52.3198 6.62197C52.5153 6.62197 52.7286 6.64002 52.9596 6.69419C53.1907 6.74836 53.4039 6.80252 53.5639 6.85669V8.13863C53.3862 8.0303 53.1907 7.92196 52.9596 7.83169C52.7286 7.74141 52.4975 7.7053 52.2843 7.7053C52.0355 7.7053 51.84 7.75946 51.7155 7.84974C51.5911 7.97613 51.52 8.10252 51.52 8.28307ZM54.4347 9.6914C54.4347 8.77057 54.7013 8.0303 55.199 7.48863C55.7144 6.94697 56.4253 6.67613 57.3316 6.67613C58.1847 6.67613 58.8601 6.92891 59.3399 7.45252C59.8198 7.97613 60.0686 8.6803 60.0686 9.56502C60.0686 10.4678 59.802 11.19 59.3044 11.7317C58.789 12.2733 58.0959 12.5442 57.2072 12.5442C56.3542 12.5442 55.6788 12.2914 55.1812 11.7858C54.7013 11.2622 54.4347 10.5581 54.4347 9.6914ZM55.7854 9.63724C55.7854 10.215 55.9098 10.6664 56.1764 10.9733C56.443 11.2803 56.8162 11.4428 57.2961 11.4428C57.7582 11.4428 58.1314 11.2983 58.3802 10.9733C58.629 10.6664 58.7534 10.215 58.7534 9.60113C58.7534 9.00529 58.629 8.55391 58.3802 8.22891C58.1314 7.92196 57.7582 7.75946 57.3139 7.75946C56.834 7.75946 56.4786 7.92196 56.212 8.24696C55.9276 8.59002 55.7854 9.04141 55.7854 9.63724ZM64.3873 7.88585H62.4501V12.3997H61.135V7.88585H60.2108V6.80252H61.135V6.02613C61.135 5.44836 61.3304 4.96086 61.7037 4.58169C62.0769 4.20253 62.5567 4.02197 63.1432 4.02197C63.3032 4.02197 63.4454 4.04003 63.5698 4.04003C63.6942 4.04003 63.8008 4.07614 63.8897 4.11225V5.24975C63.8541 5.23169 63.7653 5.19558 63.6586 5.15947C63.552 5.12336 63.4276 5.1053 63.2854 5.1053C63.0188 5.1053 62.8056 5.19558 62.6634 5.35808C62.5212 5.52058 62.4501 5.79141 62.4501 6.11641V6.78447H64.3873V5.52058L65.6847 5.12336V6.78447H66.9999V7.8678H65.6847V10.4858C65.6847 10.8289 65.7558 11.0636 65.8624 11.2081C65.9868 11.3525 66.1823 11.4247 66.4489 11.4247C66.52 11.4247 66.6089 11.4067 66.7155 11.3706C66.8221 11.3345 66.911 11.2983 66.9821 11.2442V12.3275C66.8932 12.3817 66.7688 12.4178 66.5733 12.4539C66.3778 12.49 66.2001 12.5081 66.0046 12.5081C65.4537 12.5081 65.0449 12.3636 64.7783 12.0747C64.5117 11.7858 64.3695 11.3345 64.3695 10.7386L64.3873 7.88585Z" fill="#737373"/>
<path d="M58.1455 19.9997V16.0757H59.4715C59.7435 16.0757 59.9875 16.1117 60.2035 16.1837C60.4235 16.2557 60.5955 16.3777 60.7195 16.5497C60.8475 16.7177 60.9115 16.9477 60.9115 17.2397C60.9115 17.5397 60.8395 17.7817 60.6955 17.9657C60.5555 18.1497 60.3675 18.2817 60.1315 18.3617L61.0675 19.9997H60.2875L59.4415 18.4637H58.8415V19.9997H58.1455ZM58.8415 17.9117H59.3995C59.6675 17.9117 59.8715 17.8557 60.0115 17.7437C60.1555 17.6277 60.2275 17.4597 60.2275 17.2397C60.2275 17.0157 60.1555 16.8597 60.0115 16.7717C59.8715 16.6797 59.6675 16.6337 59.3995 16.6337H58.8415V17.9117Z" fill="#727175"/>
<path d="M54.1255 19.9997V16.0757H55.1755C55.7755 16.0757 56.2435 16.2377 56.5795 16.5617C56.9155 16.8857 57.0835 17.3717 57.0835 18.0197C57.0835 18.6717 56.9175 19.1657 56.5855 19.5017C56.2535 19.8337 55.7955 19.9997 55.2115 19.9997H54.1255ZM54.8215 19.4357H55.1275C55.5235 19.4357 55.8295 19.3217 56.0455 19.0937C56.2615 18.8617 56.3695 18.5037 56.3695 18.0197C56.3695 17.5397 56.2615 17.1897 56.0455 16.9697C55.8295 16.7497 55.5235 16.6397 55.1275 16.6397H54.8215V19.4357Z" fill="#727175"/>
<path d="M50.189 19.9997L51.305 17.9777L50.261 16.0757H51.035L51.467 16.9457C51.515 17.0337 51.561 17.1277 51.605 17.2277C51.653 17.3237 51.707 17.4297 51.767 17.5457H51.791C51.839 17.4297 51.883 17.3237 51.923 17.2277C51.967 17.1277 52.011 17.0337 52.055 16.9457L52.469 16.0757H53.207L52.163 18.0077L53.279 19.9997H52.505L52.025 19.0757C51.973 18.9717 51.921 18.8697 51.869 18.7697C51.821 18.6657 51.767 18.5537 51.707 18.4337H51.683C51.631 18.5537 51.581 18.6657 51.533 18.7697C51.489 18.8697 51.443 18.9717 51.395 19.0757L50.927 19.9997H50.189Z" fill="#727175"/>
<path d="M46.5698 19.9999V17.0539H47.1398L47.1878 17.5759H47.2118C47.3158 17.3839 47.4418 17.2379 47.5898 17.1379C47.7378 17.0339 47.8898 16.9819 48.0458 16.9819C48.1858 16.9819 48.2978 17.0019 48.3818 17.0419L48.2618 17.6419C48.2098 17.6259 48.1618 17.6139 48.1178 17.6059C48.0738 17.5979 48.0198 17.5939 47.9558 17.5939C47.8398 17.5939 47.7178 17.6399 47.5898 17.7319C47.4618 17.8199 47.3518 17.9759 47.2598 18.1999V19.9999H46.5698Z" fill="#727175"/>
<path d="M44.5189 20.0719C44.2469 20.0719 44.0009 20.0119 43.7809 19.8919C43.5609 19.7679 43.3869 19.5919 43.2589 19.3639C43.1309 19.1319 43.0669 18.8539 43.0669 18.5299C43.0669 18.2099 43.1309 17.9339 43.2589 17.7019C43.3909 17.4699 43.5609 17.2919 43.7689 17.1679C43.9769 17.0439 44.1949 16.9819 44.4229 16.9819C44.6909 16.9819 44.9149 17.0419 45.0949 17.1619C45.2749 17.2779 45.4109 17.4419 45.5029 17.6539C45.5949 17.8619 45.6409 18.1039 45.6409 18.3799C45.6409 18.5239 45.6309 18.6359 45.6109 18.7159H43.7389C43.7709 18.9759 43.8649 19.1779 44.0209 19.3219C44.1769 19.4659 44.3729 19.5379 44.6089 19.5379C44.7369 19.5379 44.8549 19.5199 44.9629 19.4839C45.0749 19.4439 45.1849 19.3899 45.2929 19.3219L45.5269 19.7539C45.3869 19.8459 45.2309 19.9219 45.0589 19.9819C44.8869 20.0419 44.7069 20.0719 44.5189 20.0719ZM43.7329 18.2479H45.0409C45.0409 18.0199 44.9909 17.8419 44.8909 17.7139C44.7909 17.5819 44.6409 17.5159 44.4409 17.5159C44.2689 17.5159 44.1149 17.5799 43.9789 17.7079C43.8469 17.8319 43.7649 18.0119 43.7329 18.2479Z" fill="#727175"/>
<path d="M40.6339 20.0717C40.2659 20.0717 39.9719 19.9357 39.7519 19.6637C39.5319 19.3917 39.4219 19.0137 39.4219 18.5297C39.4219 18.2097 39.4799 17.9337 39.5959 17.7017C39.7159 17.4697 39.8719 17.2917 40.0639 17.1677C40.2559 17.0437 40.4579 16.9817 40.6699 16.9817C40.8379 16.9817 40.9799 17.0117 41.0959 17.0717C41.2159 17.1277 41.3319 17.2057 41.4439 17.3057L41.4199 16.8317V15.7637H42.1099V19.9997H41.5399L41.4919 19.6817H41.4679C41.3599 19.7897 41.2339 19.8817 41.0899 19.9577C40.9459 20.0337 40.7939 20.0717 40.6339 20.0717ZM40.8019 19.5017C41.0219 19.5017 41.2279 19.3917 41.4199 19.1717V17.7977C41.3199 17.7057 41.2199 17.6417 41.1199 17.6057C41.0199 17.5697 40.9199 17.5517 40.8199 17.5517C40.6319 17.5517 40.4699 17.6377 40.3339 17.8097C40.2019 17.9777 40.1359 18.2157 40.1359 18.5237C40.1359 18.8397 40.1939 19.0817 40.3099 19.2497C40.4259 19.4177 40.5899 19.5017 40.8019 19.5017Z" fill="#727175"/>
<path d="M35.9746 19.9999V17.0539H36.5446L36.5926 17.4499H36.6166C36.7486 17.3219 36.8926 17.2119 37.0486 17.1199C37.2046 17.0279 37.3826 16.9819 37.5826 16.9819C37.8986 16.9819 38.1286 17.0839 38.2726 17.2879C38.4166 17.4919 38.4886 17.7799 38.4886 18.1519V19.9999H37.7986V18.2419C37.7986 17.9979 37.7626 17.8259 37.6906 17.7259C37.6186 17.6259 37.5006 17.5759 37.3366 17.5759C37.2086 17.5759 37.0946 17.6079 36.9946 17.6719C36.8986 17.7319 36.7886 17.8219 36.6646 17.9419V19.9999H35.9746Z" fill="#727175"/>
<path d="M33.9237 20.0719C33.6517 20.0719 33.4057 20.0119 33.1857 19.8919C32.9657 19.7679 32.7917 19.5919 32.6637 19.3639C32.5357 19.1319 32.4717 18.8539 32.4717 18.5299C32.4717 18.2099 32.5357 17.9339 32.6637 17.7019C32.7957 17.4699 32.9657 17.2919 33.1737 17.1679C33.3817 17.0439 33.5997 16.9819 33.8277 16.9819C34.0957 16.9819 34.3197 17.0419 34.4997 17.1619C34.6797 17.2779 34.8157 17.4419 34.9077 17.6539C34.9997 17.8619 35.0457 18.1039 35.0457 18.3799C35.0457 18.5239 35.0357 18.6359 35.0157 18.7159H33.1437C33.1757 18.9759 33.2697 19.1779 33.4257 19.3219C33.5817 19.4659 33.7777 19.5379 34.0137 19.5379C34.1417 19.5379 34.2597 19.5199 34.3677 19.4839C34.4797 19.4439 34.5897 19.3899 34.6977 19.3219L34.9317 19.7539C34.7917 19.8459 34.6357 19.9219 34.4637 19.9819C34.2917 20.0419 34.1117 20.0719 33.9237 20.0719ZM33.1377 18.2479H34.4457C34.4457 18.0199 34.3957 17.8419 34.2957 17.7139C34.1957 17.5819 34.0457 17.5159 33.8457 17.5159C33.6737 17.5159 33.5197 17.5799 33.3837 17.7079C33.2517 17.8319 33.1697 18.0119 33.1377 18.2479Z" fill="#727175"/>
<path d="M30.668 19.9999V17.5999H30.272V17.0839L30.668 17.0539V16.7479C30.668 16.4399 30.744 16.1879 30.896 15.9919C31.048 15.7919 31.298 15.6919 31.646 15.6919C31.75 15.6919 31.85 15.7019 31.946 15.7219C32.042 15.7419 32.122 15.7659 32.186 15.7939L32.054 16.3099C31.946 16.2619 31.838 16.2379 31.73 16.2379C31.482 16.2379 31.358 16.4039 31.358 16.7359V17.0539H31.934V17.5999H31.358V19.9999H30.668Z" fill="#727175"/>
<path d="M28.5204 20.0719C28.2484 20.0719 28.0024 20.0119 27.7824 19.8919C27.5624 19.7679 27.3884 19.5919 27.2604 19.3639C27.1324 19.1319 27.0684 18.8539 27.0684 18.5299C27.0684 18.2099 27.1324 17.9339 27.2604 17.7019C27.3924 17.4699 27.5624 17.2919 27.7704 17.1679C27.9784 17.0439 28.1964 16.9819 28.4244 16.9819C28.6924 16.9819 28.9164 17.0419 29.0964 17.1619C29.2764 17.2779 29.4124 17.4419 29.5044 17.6539C29.5964 17.8619 29.6424 18.1039 29.6424 18.3799C29.6424 18.5239 29.6324 18.6359 29.6124 18.7159H27.7404C27.7724 18.9759 27.8664 19.1779 28.0224 19.3219C28.1784 19.4659 28.3744 19.5379 28.6104 19.5379C28.7384 19.5379 28.8564 19.5199 28.9644 19.4839C29.0764 19.4439 29.1864 19.3899 29.2944 19.3219L29.5284 19.7539C29.3884 19.8459 29.2324 19.9219 29.0604 19.9819C28.8884 20.0419 28.7084 20.0719 28.5204 20.0719ZM27.7344 18.2479H29.0424C29.0424 18.0199 28.9924 17.8419 28.8924 17.7139C28.7924 17.5819 28.6424 17.5159 28.4424 17.5159C28.2704 17.5159 28.1164 17.5799 27.9804 17.7079C27.8484 17.8319 27.7664 18.0119 27.7344 18.2479Z" fill="#727175"/>
<path d="M23.3003 19.9997V16.0757H24.3503C24.9503 16.0757 25.4183 16.2377 25.7543 16.5617C26.0903 16.8857 26.2583 17.3717 26.2583 18.0197C26.2583 18.6717 26.0923 19.1657 25.7603 19.5017C25.4283 19.8337 24.9703 19.9997 24.3863 19.9997H23.3003ZM23.9963 19.4357H24.3023C24.6983 19.4357 25.0043 19.3217 25.2203 19.0937C25.4363 18.8617 25.5443 18.5037 25.5443 18.0197C25.5443 17.5397 25.4363 17.1897 25.2203 16.9697C25.0043 16.7497 24.6983 16.6397 24.3023 16.6397H23.9963V19.4357Z" fill="#727175"/>
<path d="M11.9997 20.3333C11.7697 20.3333 11.583 20.1467 11.583 19.9167C11.583 19.6867 11.7697 19.5 11.9997 19.5V20.3333Z" fill="#0370C8"/>
<path d="M12.4167 19.9167C12.4167 20.1467 12.23 20.3333 12 20.3333V19.5C12.23 19.5 12.4167 19.6867 12.4167 19.9167Z" fill="#0F5094"/>
<path d="M19.4997 7.00033C19.7298 7.00033 19.9163 6.81378 19.9163 6.58366C19.9163 6.35354 19.7298 6.16699 19.4997 6.16699C19.2696 6.16699 19.083 6.35354 19.083 6.58366C19.083 6.81378 19.2696 7.00033 19.4997 7.00033Z" fill="#0883D9"/>
<path d="M4.49967 7.00033C4.72979 7.00033 4.91634 6.81378 4.91634 6.58366C4.91634 6.35354 4.72979 6.16699 4.49967 6.16699C4.26956 6.16699 4.08301 6.35354 4.08301 6.58366C4.08301 6.81378 4.26956 7.00033 4.49967 7.00033Z" fill="#33BFF0"/>
<path d="M12 19.9167L12.1779 20.2946C12.1779 20.2946 18.4879 17.0029 19.7113 12H12V19.9167Z" fill="#0F5094"/>
<path d="M19.9167 6.58366L19.5 6.16699C14.8658 6.16699 14.8008 3.66699 12 3.66699V12.0003H19.7112C19.8425 11.4637 19.9167 10.9078 19.9167 10.3337C19.9167 9.02366 19.9167 6.58366 19.9167 6.58366Z" fill="#0883D9"/>
<path d="M11.9998 19.9167L11.8219 20.2946C11.8219 20.2946 5.51191 17.0029 4.28857 12H11.9998V19.9167Z" fill="#0370C8"/>
<path d="M4.08301 6.58366L4.49967 6.16699C9.13384 6.16699 9.19884 3.66699 11.9997 3.66699V12.0003H4.28842C4.15717 11.4637 4.08301 10.9078 4.08301 10.3337C4.08301 9.02366 4.08301 6.58366 4.08301 6.58366Z" fill="#33BFF0"/>
</svg>
