<svg width="72" height="24" viewBox="0 0 72 24" fill="none" xmlns="http://www.w3.org/2000/svg">
    <path d="M12.9203 2C7.44216 2 3 6.43965 3 11.9165C3 16.2978 5.84245 20.0149 9.78407 21.3262C10.2799 21.418 10.4619 21.1111 10.4619 20.8491C10.4619 20.6127 10.4527 19.8315 10.4484 19.0029C7.68858 19.6028 7.10622 17.8329 7.10622 17.8329C6.65496 16.6867 6.00476 16.3819 6.00476 16.3819C5.10469 15.7664 6.0726 15.7791 6.0726 15.7791C7.06877 15.849 7.5933 16.801 7.5933 16.801C8.47809 18.317 9.91401 17.8787 10.4801 17.6253C10.5691 16.9844 10.8262 16.5469 11.1099 16.2993C8.90652 16.0486 6.59023 15.1983 6.59023 11.3985C6.59023 10.3159 6.97776 9.43128 7.61235 8.73682C7.50935 8.48706 7.1698 7.47846 7.70846 6.11254C7.70846 6.11254 8.5415 5.84602 10.4372 7.12902C11.2285 6.9093 12.0772 6.79911 12.9203 6.79534C13.7633 6.79911 14.6126 6.9093 15.4054 7.12902C17.2988 5.84602 18.1307 6.11254 18.1307 6.11254C18.6707 7.47846 18.331 8.48706 18.228 8.73682C18.8641 9.43128 19.249 10.3159 19.249 11.3985C19.249 15.2073 16.9282 16.0459 14.7192 16.2914C15.075 16.5992 15.3921 17.2026 15.3921 18.1278C15.3921 19.4547 15.3806 20.5225 15.3806 20.8491C15.3806 21.113 15.5592 21.4222 16.062 21.3249C20.0015 20.0122 22.8403 16.2964 22.8403 11.9165C22.8403 6.43965 18.3988 2 12.9203 2ZM6.71546 16.1262C6.69361 16.1755 6.61607 16.1903 6.54543 16.1564C6.47348 16.1241 6.43307 16.0569 6.45639 16.0075C6.47775 15.9568 6.55545 15.9426 6.62724 15.9766C6.69936 16.009 6.74043 16.0768 6.71546 16.1262ZM7.20342 16.5615C7.15611 16.6053 7.06362 16.5849 7.00087 16.5156C6.93598 16.4465 6.92383 16.3541 6.97179 16.3096C7.02058 16.2657 7.11028 16.2862 7.17533 16.3554C7.24022 16.4253 7.25287 16.5171 7.20342 16.5615ZM7.53819 17.1183C7.4774 17.1605 7.37802 17.121 7.31658 17.0328C7.2558 16.9446 7.2558 16.8388 7.31789 16.7965C7.3795 16.7541 7.4774 16.7922 7.53966 16.8797C7.60028 16.9694 7.60028 17.0751 7.53819 17.1183ZM8.10434 17.7633C8.04997 17.8232 7.93415 17.8071 7.84939 17.7253C7.76265 17.6454 7.7385 17.5319 7.79304 17.472C7.84807 17.4119 7.96454 17.4288 8.04997 17.5099C8.13605 17.5897 8.16233 17.704 8.10434 17.7633ZM8.83604 17.981C8.81206 18.0587 8.70052 18.094 8.58815 18.061C8.47595 18.027 8.40252 17.936 8.42519 17.8575C8.44852 17.7793 8.56055 17.7426 8.67374 17.7779C8.78578 17.8117 8.85937 17.902 8.83604 17.981ZM9.66875 18.0734C9.67154 18.1551 9.57626 18.223 9.45832 18.2244C9.33971 18.2271 9.24377 18.1609 9.24246 18.0804C9.24246 17.9978 9.3356 17.9307 9.45421 17.9287C9.57216 17.9264 9.66875 17.9921 9.66875 18.0734ZM10.4868 18.042C10.5009 18.1218 10.4189 18.2038 10.3018 18.2256C10.1867 18.2466 10.08 18.1974 10.0654 18.1182C10.0511 18.0364 10.1346 17.9545 10.2496 17.9333C10.3669 17.9129 10.4718 17.9609 10.4868 18.042Z" fill="#FBFBFB"/>
    <path d="M42.9588 15.4738H42.9411C42.9491 15.4738 42.9544 15.4827 42.9623 15.4835H42.9676L42.9588 15.4747V15.4738ZM42.9623 15.4835C42.8803 15.4844 42.6739 15.5276 42.4561 15.5276C41.7683 15.5276 41.5303 15.2102 41.5303 14.7957V12.0348H42.9323C43.0117 12.0348 43.0734 11.9643 43.0734 11.8673V10.3683C43.0734 10.2889 43.0029 10.2184 42.9323 10.2184H41.5303V8.35777C41.5303 8.28723 41.4862 8.24314 41.4068 8.24314H39.5021C39.4228 8.24314 39.3787 8.28723 39.3787 8.35777V10.2713C39.3787 10.2713 38.4175 10.5093 38.3558 10.5182C38.2853 10.5358 38.2412 10.5975 38.2412 10.6681V11.8673C38.2412 11.9643 38.3117 12.0348 38.3911 12.0348H39.3699V14.9271C39.3699 17.0787 40.8689 17.2991 41.8918 17.2991C42.3591 17.2991 42.9235 17.1492 43.0117 17.1052C43.0646 17.0875 43.091 17.0258 43.091 16.9641V15.6414C43.0922 15.6039 43.0799 15.5672 43.0563 15.538C43.0326 15.5089 42.9992 15.4892 42.9623 15.4827V15.4835ZM63.8573 13.5427C63.8573 11.9467 63.2135 11.735 62.5346 11.8056C62.0055 11.8409 61.5822 12.1054 61.5822 12.1054V15.2093C61.5822 15.2093 62.0143 15.5091 62.658 15.5267C63.5663 15.5532 63.8573 15.2269 63.8573 13.5427ZM66 13.4016C66 16.4262 65.0212 17.2903 63.3105 17.2903C61.8644 17.2903 61.0884 16.5584 61.0884 16.5584C61.0884 16.5584 61.0532 16.9641 61.0091 17.017C60.9826 17.0699 60.9385 17.0875 60.8856 17.0875H59.5806C59.4924 17.0875 59.413 17.017 59.413 16.9376L59.4307 7.1409C59.4307 7.06153 59.5012 6.99099 59.5806 6.99099H61.4588C61.5381 6.99099 61.6087 7.06153 61.6087 7.1409V10.4653C61.6087 10.4653 62.3318 9.9979 63.3899 9.9979L63.3811 9.98027C64.4392 9.98027 66 10.3771 66 13.4016ZM58.3108 10.2184H56.459C56.362 10.2184 56.3091 10.2889 56.3091 10.3859V15.1828C56.3091 15.1828 55.8241 15.5267 55.1628 15.5267C54.5014 15.5267 54.3074 15.2269 54.3074 14.5656V10.3771C54.3074 10.2977 54.2369 10.2272 54.1575 10.2272H52.2705C52.1911 10.2272 52.1206 10.2977 52.1206 10.3771V14.883C52.1206 16.823 53.2052 17.308 54.6954 17.308C55.9211 17.308 56.9175 16.629 56.9175 16.629C56.9175 16.629 56.9616 16.9729 56.9881 17.0258C57.0057 17.0699 57.0674 17.1052 57.1292 17.1052H58.3108C58.4078 17.1052 58.4607 17.0346 58.4607 16.9552L58.4783 10.3683C58.4783 10.2889 58.4078 10.2184 58.3108 10.2184ZM37.4123 10.2095H35.5341C35.4547 10.2095 35.3842 10.2889 35.3842 10.3859V16.8583C35.3842 17.0346 35.4988 17.0963 35.6487 17.0963H37.3417C37.5181 17.0963 37.5622 17.017 37.5622 16.8583V10.3594C37.5622 10.2801 37.4916 10.2095 37.4123 10.2095ZM36.4864 7.22908C35.8074 7.22908 35.2695 7.76697 35.2695 8.44595C35.2695 9.12493 35.8074 9.66282 36.4864 9.66282C37.1477 9.66282 37.6856 9.12493 37.6856 8.44595C37.6856 7.76697 37.1477 7.22908 36.4864 7.22908ZM51.0272 7.00863H49.1666C49.0872 7.00863 49.0167 7.07917 49.0167 7.15853V10.7651H46.0979V7.15853C46.0979 7.07917 46.0274 7.00863 45.948 7.00863H44.0698C43.9905 7.00863 43.9199 7.07917 43.9199 7.15853V16.9552C43.9199 17.0346 43.9993 17.1052 44.0698 17.1052H45.948C46.0274 17.1052 46.0979 17.0346 46.0979 16.9552V12.7667H49.0167L48.999 16.9552C48.999 17.0346 49.0696 17.1052 49.1489 17.1052H51.0272C51.1065 17.1052 51.1771 17.0346 51.1771 16.9552V7.15853C51.1771 7.07917 51.1065 7.00863 51.0272 7.00863ZM34.3877 11.347V16.4085C34.3877 16.4438 34.3789 16.5055 34.3348 16.5232C34.3348 16.5232 33.2326 17.308 31.4161 17.308C29.2204 17.308 26.6191 16.6202 26.6191 12.0878C26.6191 7.55534 28.8942 6.62064 31.1163 6.62946C33.0386 6.62946 33.8146 7.06153 33.938 7.1409C33.9733 7.18499 33.9909 7.22026 33.9909 7.26435L33.6206 8.83394C33.6206 8.9133 33.5412 9.0103 33.4442 8.98384C33.1268 8.88685 32.6506 8.69285 31.5307 8.69285C30.2345 8.69285 28.8413 9.0632 28.8413 11.9819C28.8413 14.9007 30.1639 15.2446 31.1163 15.2446C31.9275 15.2446 32.2185 15.1476 32.2185 15.1476V13.1195H30.9223C30.8253 13.1195 30.7547 13.0489 30.7547 12.9695V11.347C30.7547 11.2677 30.8253 11.1971 30.9223 11.1971H34.2202C34.3172 11.1971 34.3877 11.2677 34.3877 11.347Z" fill="#FBFBFB"/>
</svg>
