<svg width="72" height="24" viewBox="0 0 72 24" fill="none" xmlns="http://www.w3.org/2000/svg">
<g clip-path="url(#clip0_2882_829)">
<path d="M7.3638 6.1446C7.203 6.048 7.0266 6 6.8022 6C6.5616 6 6.369 6.048 6.2244 6.1446C6.0804 6.2406 6 6.369 6 6.5298V17.1018C6 17.2302 6.0804 17.3586 6.2244 17.4708C6.3852 17.583 6.5616 17.6472 6.786 17.6472C6.987 17.6478 7.1832 17.586 7.3476 17.4708C7.5078 17.3586 7.5882 17.2302 7.5882 17.1018V6.5298C7.6044 6.369 7.524 6.2406 7.3638 6.1446ZM8.6952 11.6952C8.5992 11.7918 8.5506 11.9202 8.583 12.1122C8.5992 12.3048 8.679 12.4812 8.8398 12.642C8.9838 12.8022 9.1602 12.9144 9.3528 12.963C9.5454 13.011 9.69 12.9786 9.786 12.8988L10.6362 12.369V17.1018C10.6362 17.2302 10.7166 17.3586 10.8612 17.4708C11.0052 17.583 11.1978 17.6472 11.4222 17.6472C11.6472 17.6472 11.8398 17.583 12 17.4708C12.1602 17.3586 12.2406 17.2302 12.2406 17.1018V10.7166C12.2406 10.5564 12.1602 10.4442 12 10.3476C11.8398 10.2516 11.6472 10.2036 11.4066 10.2036C11.166 10.2036 10.9896 10.2516 10.845 10.3476L8.6952 11.6952ZM15.0318 15.4332C15.0318 15.7542 15.1284 16.011 15.3048 16.1712C15.4812 16.332 15.7218 16.428 16.0104 16.428C16.3956 16.428 16.7646 16.2678 17.1018 15.9468C17.4546 15.6258 17.631 15.273 17.631 14.904V14.3424H17.2458C16.797 14.3424 16.428 14.3586 16.1388 14.4066C15.8502 14.4546 15.5934 14.5512 15.369 14.7276C15.1446 14.8878 15.0318 15.1284 15.0318 15.4332ZM13.428 15.6258C13.428 14.8074 13.7328 14.2464 14.3424 13.9254C14.952 13.6044 15.8184 13.4442 16.9734 13.4442H17.631V13.155C17.631 12.69 17.5026 12.3048 17.262 11.9682C17.0214 11.631 16.6362 11.4708 16.1388 11.4708C15.7056 11.4708 15.321 11.5512 15 11.7276C14.679 11.8878 14.4864 11.9844 14.4546 11.9844C14.2782 11.9844 14.1498 11.904 14.0376 11.7276C13.9254 11.5668 13.8768 11.3742 13.8768 11.166C13.8768 10.9092 14.1174 10.6686 14.6148 10.476C15.096 10.2834 15.6258 10.1874 16.1712 10.1874C17.214 10.1874 17.9838 10.476 18.4812 11.0376C18.9786 11.5992 19.2354 12.3048 19.2354 13.155V16.9734C19.2354 17.118 19.155 17.2464 19.0104 17.3424C18.8664 17.4546 18.6738 17.5026 18.465 17.5026C18.2568 17.5026 18.096 17.4546 17.952 17.3424C17.8074 17.2302 17.7432 17.118 17.7432 16.9734V16.4442C17.0694 17.2302 16.2996 17.631 15.465 17.631C14.8716 17.631 14.3904 17.4546 14.0214 17.118C13.6206 16.7808 13.428 16.2834 13.428 15.6258ZM20.5992 14.6154V13.2354C20.5992 12.3372 20.8554 11.5992 21.3852 11.0376C21.9144 10.476 22.6842 10.2036 23.727 10.2036C24.3852 10.2036 24.9306 10.3158 25.3794 10.5402C25.8288 10.7646 26.0532 11.0214 26.0532 11.3106C26.0532 11.487 25.9896 11.6634 25.8612 11.8236C25.7328 12 25.5882 12.0804 25.4118 12.0804C25.3638 12.0804 25.1874 12 24.8664 11.856C24.5616 11.7114 24.2244 11.631 23.8398 11.631C22.7328 11.631 22.1712 12.1608 22.1712 13.2354V14.5992C22.1712 15.6738 22.7328 16.2036 23.8554 16.2036C24.2406 16.2036 24.5778 16.1232 24.8982 15.963C25.203 15.8022 25.3956 15.7218 25.4436 15.7218C25.6524 15.7218 25.8126 15.8022 25.941 15.963C26.0694 16.1232 26.1336 16.2996 26.1336 16.476C26.1336 16.7646 25.9092 17.0214 25.4436 17.262C24.9786 17.5026 24.417 17.631 23.7432 17.631C22.7004 17.631 21.9144 17.3586 21.3852 16.797C20.8716 16.2678 20.5992 15.5298 20.5992 14.6154ZM27.3048 16.9896V6.5136C27.3048 6.3534 27.369 6.2406 27.5136 6.1446C27.6576 6.048 27.834 6 28.0746 6C28.2996 6 28.5078 6.048 28.6524 6.1446C28.8126 6.2406 28.893 6.369 28.893 6.5136V13.2996L32.0532 10.38C32.1498 10.2834 32.262 10.2354 32.3904 10.2354C32.5668 10.2354 32.727 10.3158 32.904 10.476C33.0804 10.6368 33.1602 10.8132 33.1602 10.9896C33.1602 11.118 33.1122 11.2302 33.0318 11.3262L31.0746 13.0752L33.4494 16.524C33.5136 16.6206 33.5454 16.7004 33.5454 16.797C33.5454 16.9734 33.4494 17.166 33.2406 17.3424C33.0318 17.5188 32.8398 17.6154 32.6472 17.6154C32.4708 17.6154 32.3424 17.535 32.2302 17.3904L30 14.0856L28.893 15.0966V17.0058C28.893 17.1336 28.8126 17.262 28.6524 17.3742C28.4922 17.487 28.2996 17.535 28.0746 17.535C27.8502 17.535 27.6738 17.487 27.5292 17.3742C27.3852 17.2464 27.3048 17.118 27.3048 16.9896ZM35.727 13.3158H38.2458C38.4708 13.3158 38.6148 13.2834 38.6952 13.2192C38.7756 13.155 38.8074 13.0428 38.8074 12.8502C38.8074 12.4494 38.6634 12.1122 38.3742 11.8236C38.0856 11.5512 37.7166 11.4066 37.2834 11.4066C36.8664 11.4066 36.4974 11.535 36.1926 11.8074C35.8878 12.0804 35.7432 12.417 35.7432 12.8184V13.3158H35.727ZM34.1388 14.6154V13.1712C34.1388 12.369 34.4436 11.6796 35.0694 11.0856C35.679 10.5084 36.4332 10.2036 37.2996 10.2036C38.1336 10.2036 38.8398 10.476 39.4332 10.9896C40.0266 11.5188 40.3158 12.1764 40.3158 12.9948C40.3158 13.2996 40.2834 13.5564 40.203 13.749C40.1388 13.9416 40.0266 14.0694 39.8664 14.1498C39.7218 14.2302 39.5778 14.2782 39.4494 14.2944C39.321 14.3106 39.1446 14.3262 38.9358 14.3262H35.7432V14.6796C35.7432 15.1926 35.9196 15.594 36.2886 15.8988C36.6576 16.2036 37.1232 16.3476 37.7166 16.3476C38.1336 16.3476 38.5188 16.2516 38.8878 16.059C39.2568 15.8664 39.4812 15.7704 39.5616 15.7704C39.738 15.7704 39.8826 15.8502 39.9948 16.011C40.1232 16.1712 40.1712 16.332 40.1712 16.4922C40.1712 16.749 39.9306 16.9896 39.4494 17.262C38.9682 17.5188 38.3742 17.6472 37.6686 17.6472C36.642 17.6472 35.7912 17.3742 35.1336 16.8132C34.4598 16.2516 34.1388 15.5136 34.1388 14.6154ZM41.583 16.9896V10.8132C41.583 10.6524 41.6634 10.5402 41.8074 10.4442C41.952 10.3476 42.1446 10.2996 42.369 10.2996C42.5616 10.2996 42.738 10.3476 42.8826 10.4442C43.0266 10.5402 43.0908 10.6686 43.0908 10.8288V11.5026C43.2672 11.1498 43.524 10.845 43.8768 10.5882C44.2302 10.332 44.5992 10.2036 45.0162 10.2036H45.4974C45.6576 10.2036 45.8022 10.2678 45.9144 10.4118C46.0428 10.5564 46.0908 10.7166 46.0908 10.9092C46.0908 11.1018 46.0266 11.2782 45.9144 11.4228C45.786 11.5668 45.6576 11.631 45.4974 11.631H45.0162C44.535 11.631 44.1018 11.8398 43.7328 12.2568C43.3638 12.6738 43.1874 13.2036 43.1874 13.8612V16.9734C43.1874 17.1018 43.107 17.2302 42.9468 17.3424C42.786 17.4546 42.5934 17.5026 42.369 17.5026C42.1446 17.5026 41.9682 17.4546 41.8074 17.3424C41.6472 17.2464 41.583 17.118 41.583 16.9896ZM47.5188 14.7276C47.5188 15.2406 47.6952 15.7062 48.0642 16.107C48.4332 16.5084 48.8826 16.7004 49.3956 16.7004C49.9254 16.7004 50.3742 16.5084 50.7432 16.107C51.1122 15.7062 51.3048 15.2568 51.3048 14.7276V13.0752C51.3048 12.5778 51.1122 12.1284 50.7432 11.7432C50.358 11.3424 49.9254 11.1498 49.4118 11.1498C48.8982 11.1498 48.4494 11.3424 48.0804 11.7432C47.7114 12.1446 47.535 12.5778 47.535 13.0752V14.7276H47.5188ZM46.5402 14.7276V13.0752C46.5402 12.3048 46.8288 11.631 47.3904 11.0694C47.952 10.5084 48.6258 10.2192 49.4118 10.2192C50.1816 10.2192 50.8716 10.4922 51.4332 11.0538C52.0104 11.6154 52.2996 12.2892 52.2996 13.059V14.7114C52.2996 15.4656 52.0104 16.1394 51.4332 16.7328C50.8554 17.3106 50.1816 17.6154 49.4118 17.6154C48.6576 17.6154 47.9838 17.3262 47.4066 16.7328C46.8288 16.1712 46.5402 15.4974 46.5402 14.7276ZM53.4864 17.118V10.6848C53.4864 10.5726 53.535 10.4922 53.6148 10.4118C53.7114 10.3476 53.8236 10.3158 53.9682 10.3158C54.096 10.3158 54.1926 10.3476 54.2886 10.428C54.3852 10.5084 54.417 10.5882 54.417 10.6848V11.3904C54.5934 11.0538 54.8502 10.7808 55.203 10.5564C55.5564 10.332 55.9734 10.2192 56.4384 10.2192C57.1602 10.2192 57.8022 10.4922 58.3314 11.0538C58.8612 11.6154 59.1336 12.2892 59.1336 13.059V17.118C59.1336 17.2464 59.0856 17.3424 58.9896 17.4066C58.893 17.4708 58.7646 17.5188 58.6362 17.5188C58.5078 17.5188 58.4118 17.487 58.2996 17.4066C58.203 17.3424 58.155 17.2464 58.155 17.118V13.0752C58.155 12.5778 57.9624 12.1284 57.5934 11.7432C57.2244 11.3424 56.7756 11.1498 56.262 11.1498C55.7808 11.1498 55.3638 11.3262 55.0104 11.6796C54.642 12.0324 54.465 12.4974 54.465 13.0752V17.118C54.465 17.214 54.417 17.3106 54.3048 17.3904C54.2088 17.4708 54.096 17.5188 53.952 17.5188C53.8074 17.5188 53.6952 17.4708 53.5992 17.3904C53.535 17.3262 53.4864 17.2302 53.4864 17.118ZM61.2672 13.476H64.2996C64.6044 13.476 64.797 13.4442 64.9092 13.38C65.0052 13.3158 65.0532 13.1712 65.0532 12.963C65.0532 12.4656 64.8768 12.0162 64.5078 11.631C64.155 11.2464 63.7056 11.0538 63.1602 11.0538C62.631 11.0538 62.1816 11.2302 61.8126 11.5992C61.4436 11.9682 61.2672 12.4014 61.2672 12.8988V13.476ZM60.2886 14.7276V13.0266C60.2886 12.2568 60.5778 11.5992 61.1388 11.0538C61.7004 10.5084 62.3904 10.2192 63.1764 10.2192C63.9468 10.2192 64.6044 10.4922 65.166 11.0058C65.727 11.535 66 12.1926 66 12.9948C66 13.2834 65.9676 13.5084 65.904 13.6848C65.8398 13.8612 65.727 13.9734 65.583 14.0538C65.4384 14.118 65.31 14.166 65.1816 14.1978C65.0532 14.214 64.893 14.2302 64.6842 14.2302H61.2672V14.7918C61.2672 15.3852 61.476 15.8664 61.9092 16.2354C62.3424 16.5882 62.8878 16.7808 63.5616 16.7808C63.8982 16.7808 64.203 16.7328 64.4598 16.6206C64.6692 16.5426 64.8684 16.44 65.0532 16.3158C65.1978 16.2192 65.2944 16.155 65.3742 16.155C65.4864 16.155 65.583 16.2036 65.6628 16.3158C65.7432 16.428 65.7912 16.524 65.7912 16.6206C65.7912 16.8288 65.5668 17.0538 65.1336 17.2782C64.7004 17.5026 64.155 17.6154 63.5136 17.6154C62.5506 17.6154 61.7808 17.3424 61.1712 16.8132C60.5934 16.2996 60.2886 15.594 60.2886 14.7276Z" fill="black"/>
</g>
<defs>
<clipPath id="clip0_2882_829">
<rect width="60" height="11.6472" fill="white" transform="translate(6 6)"/>
</clipPath>
</defs>
</svg>
