<svg width="72" height="24" viewBox="0 0 72 24" fill="none" xmlns="http://www.w3.org/2000/svg">
<path d="M25.5125 10.8554C25.4776 10.5182 25.4252 10.1278 25.3205 9.70186C25.2158 9.27595 25.0413 8.81455 24.8145 8.31766C24.5702 7.83851 24.2736 7.32387 23.8722 6.84472C23.7152 6.64951 23.5407 6.47205 23.3662 6.27684C23.6454 5.15883 23.0346 4.18279 23.0346 4.18279C21.9702 4.1118 21.3071 4.51996 21.0628 4.69743C21.0279 4.67968 20.9756 4.66193 20.9407 4.64419C20.7662 4.5732 20.5742 4.50222 20.3823 4.43123C20.1904 4.37799 19.9984 4.30701 19.8065 4.27152C19.6145 4.21828 19.4051 4.18279 19.1957 4.14729C19.1608 4.14729 19.1259 4.12955 19.091 4.12955C18.6373 2.63886 17.3112 2 17.3112 2C15.7931 2.99379 15.4964 4.32476 15.4964 4.32476C15.4964 4.32476 15.4964 4.36025 15.479 4.39574C15.3917 4.41349 15.3219 4.44898 15.2347 4.46673C15.13 4.50222 15.0078 4.53771 14.9031 4.59095C14.7984 4.64419 14.6763 4.67968 14.5716 4.73292C14.3447 4.8394 14.1353 4.94587 13.9085 5.0701C13.6991 5.19432 13.4897 5.31854 13.2978 5.46051C13.2629 5.44277 13.2454 5.42502 13.2454 5.42502C11.2038 4.62644 9.38905 5.58474 9.38905 5.58474C9.23201 7.80302 10.2092 9.18722 10.4011 9.43567C10.3488 9.57764 10.3139 9.70186 10.2615 9.84383C10.1045 10.3407 9.99979 10.8554 9.92999 11.3878C9.91254 11.4587 9.91254 11.5475 9.89509 11.6185C8.01054 12.559 7.45215 14.5111 7.45215 14.5111C9.02261 16.3567 10.8723 16.4632 10.8723 16.4632C11.0991 16.8891 11.3783 17.2973 11.675 17.6699C11.7971 17.8296 11.9367 17.9716 12.0763 18.1313C11.5005 19.7995 12.1635 21.2014 12.1635 21.2014C13.926 21.2724 15.0776 20.4206 15.3219 20.2254C15.4964 20.2786 15.6709 20.3319 15.8454 20.3851C16.3863 20.5271 16.9447 20.6158 17.4857 20.6335C17.6253 20.6335 17.7649 20.6335 17.9045 20.6335H17.9743H18.0266H18.1139H18.2011C19.0212 21.8403 20.487 22 20.487 22C21.5165 20.882 21.5863 19.7995 21.5863 19.551C21.5863 19.551 21.5863 19.551 21.5863 19.5333C21.5863 19.5155 21.5863 19.4978 21.5863 19.4978C21.5863 19.48 21.5863 19.4623 21.5863 19.4445C21.7957 19.2848 22.0051 19.1251 22.2145 18.9476C22.6333 18.575 22.9823 18.1313 23.2964 17.6699C23.3313 17.6344 23.3487 17.5812 23.3836 17.5457C24.5528 17.6167 25.3729 16.8004 25.3729 16.8004C25.1809 15.5581 24.483 14.9547 24.3434 14.8483C24.3434 14.8483 24.3434 14.8483 24.3259 14.8305L24.3085 14.8128L24.291 14.795C24.291 14.724 24.3085 14.6531 24.3085 14.5643C24.3259 14.4224 24.3259 14.2981 24.3259 14.1562V14.0497V13.9965V13.9787C24.3259 13.9432 24.3259 13.961 24.3259 13.9432V13.8545V13.748C24.3259 13.7125 24.3259 13.677 24.3259 13.6415C24.3259 13.606 24.3259 13.5705 24.3085 13.535L24.291 13.4286L24.2736 13.3221C24.2561 13.1801 24.2212 13.0559 24.2038 12.9139C24.0816 12.3815 23.8722 11.8669 23.6105 11.4232C23.3313 10.9618 22.9997 10.5714 22.6159 10.2165C22.232 9.87933 21.8132 9.59539 21.3595 9.40018C20.9058 9.18722 20.4521 9.063 19.981 9.00976C19.7541 8.97427 19.5098 8.97427 19.283 8.97427H19.1957H19.1783H19.1434H19.1085H19.0212C18.9863 8.97427 18.9514 8.97427 18.934 8.97427C18.8118 8.99201 18.6897 9.00976 18.585 9.02751C18.1139 9.11624 17.6776 9.2937 17.2937 9.5244C16.9098 9.7551 16.5783 10.0568 16.2991 10.394C16.0199 10.7311 15.8105 11.0861 15.6709 11.4765C15.5313 11.8492 15.4441 12.2573 15.4266 12.63C15.4266 12.7187 15.4266 12.8252 15.4266 12.9139C15.4266 12.9317 15.4266 12.9672 15.4266 12.9849V13.0559C15.4266 13.1091 15.4266 13.1446 15.4441 13.1979C15.4615 13.3931 15.4964 13.5705 15.5488 13.748C15.6535 14.1029 15.8105 14.4224 16.0199 14.7063C16.2293 14.9902 16.4561 15.2032 16.7179 15.3807C16.9796 15.5581 17.2414 15.6823 17.5206 15.7711C17.7998 15.8598 18.0615 15.8953 18.3058 15.8776C18.3407 15.8776 18.3756 15.8776 18.393 15.8776C18.4105 15.8776 18.4279 15.8776 18.4454 15.8776C18.4628 15.8776 18.4803 15.8776 18.4977 15.8776C18.5326 15.8776 18.5501 15.8776 18.585 15.8776H18.6024H18.6199C18.6373 15.8776 18.6548 15.8776 18.6722 15.8776C18.7071 15.8776 18.742 15.8598 18.7595 15.8598C18.7944 15.8598 18.8118 15.8421 18.8467 15.8421C18.8991 15.8243 18.9689 15.8066 19.0212 15.7888C19.1259 15.7533 19.2306 15.7001 19.3353 15.6646C19.44 15.6114 19.5273 15.5581 19.5971 15.5049C19.6145 15.4871 19.6494 15.4694 19.6669 15.4516C19.7541 15.3807 19.7716 15.2564 19.7018 15.1677C19.632 15.0967 19.5273 15.079 19.44 15.1145C19.4226 15.1322 19.4051 15.1322 19.3702 15.15C19.3004 15.1854 19.2132 15.2209 19.1434 15.2387C19.0561 15.2564 18.9689 15.2919 18.8816 15.3097C18.8293 15.3097 18.7944 15.3274 18.742 15.3274C18.7246 15.3274 18.6897 15.3274 18.6722 15.3274C18.6548 15.3274 18.6199 15.3274 18.6024 15.3274C18.585 15.3274 18.5501 15.3274 18.5326 15.3274C18.4977 15.3274 18.4803 15.3274 18.4454 15.3274H18.4279H18.4105C18.393 15.3274 18.393 15.3274 18.3756 15.3274C18.3581 15.3274 18.3232 15.3274 18.3058 15.3097C18.1139 15.2742 17.9045 15.2209 17.7125 15.1322C17.5206 15.0435 17.3286 14.9193 17.1716 14.7595C16.9971 14.5998 16.8575 14.4224 16.7353 14.2094C16.6132 13.9965 16.5434 13.7657 16.5085 13.535C16.491 13.4108 16.4736 13.2866 16.491 13.1624C16.491 13.1269 16.491 13.0914 16.491 13.0559V13.0382V13.0204C16.491 13.0027 16.491 12.9849 16.491 12.9672C16.491 12.8962 16.5085 12.8429 16.5259 12.772C16.6132 12.2396 16.8749 11.7249 17.2763 11.3345C17.381 11.228 17.4857 11.1393 17.6078 11.0683C17.73 10.9796 17.8521 10.9086 17.9743 10.8554C18.0964 10.8021 18.236 10.7489 18.3756 10.7134C18.5152 10.6779 18.6548 10.6424 18.7944 10.6424C18.8642 10.6424 18.934 10.6247 19.0038 10.6247C19.0212 10.6247 19.0387 10.6247 19.0561 10.6247H19.1085H19.1434H19.1608H19.2132C19.3702 10.6424 19.5273 10.6602 19.6669 10.6957C19.9635 10.7666 20.2602 10.8731 20.5394 11.0328C21.0977 11.3523 21.5689 11.8314 21.8481 12.417C21.9877 12.701 22.0924 13.0204 22.1447 13.3576C22.1622 13.4463 22.1622 13.5173 22.1796 13.606V13.6593V13.7125C22.1796 13.7303 22.1796 13.748 22.1796 13.7658C22.1796 13.7835 22.1796 13.8012 22.1796 13.819V13.8722V13.9255C22.1796 13.961 22.1796 14.0319 22.1796 14.0674C22.1796 14.1562 22.1622 14.2449 22.1622 14.3336C22.1447 14.4224 22.1447 14.5111 22.1273 14.5998C22.1098 14.6886 22.0924 14.7773 22.0749 14.866C22.04 15.0435 21.9702 15.2032 21.9179 15.3807C21.7957 15.7178 21.6212 16.0373 21.4118 16.3212C20.993 16.9068 20.4172 17.386 19.7716 17.6877C19.44 17.8296 19.1085 17.9539 18.7595 18.0071C18.585 18.0426 18.4105 18.0603 18.236 18.0603H18.2011H18.1662H18.1139H18.0266H17.9743H17.9568C17.8696 18.0603 17.7649 18.0603 17.6776 18.0426C17.2937 18.0071 16.9273 17.9361 16.5608 17.8296C16.1944 17.7232 15.8454 17.5812 15.5139 17.4037C14.8508 17.0488 14.2575 16.5342 13.7864 15.9485C13.5595 15.6469 13.3501 15.3274 13.1756 14.9902C13.0011 14.6531 12.879 14.2981 12.7743 13.9432C12.6696 13.5883 12.6172 13.2156 12.5998 12.8429V12.772V12.7542V12.7365V12.701V12.6477V12.63V12.6122V12.5768V12.488V12.4703V12.4348C12.5998 12.3815 12.5998 12.3461 12.5998 12.2928C12.5998 12.1154 12.6172 11.9201 12.6521 11.7249C12.6696 11.5297 12.7045 11.3523 12.7394 11.1571C12.7743 10.9618 12.8266 10.7844 12.879 10.5892C12.9837 10.2165 13.1058 9.86158 13.2629 9.5244C13.577 8.85004 13.9783 8.24667 14.4494 7.76752C14.5716 7.6433 14.6937 7.53682 14.8333 7.43035C14.8857 7.37711 15.0078 7.27063 15.1474 7.1819C15.287 7.09317 15.4266 7.00444 15.5837 6.93345C15.6535 6.89796 15.7233 6.86247 15.8105 6.82697C15.8454 6.80923 15.8803 6.79148 15.9327 6.77374C15.9676 6.75599 16.0025 6.73824 16.0548 6.7205C16.2118 6.64951 16.3689 6.59627 16.5259 6.54304C16.5608 6.52529 16.6132 6.52529 16.6481 6.50754C16.683 6.4898 16.7353 6.4898 16.7702 6.47205C16.8575 6.4543 16.9273 6.43656 17.0145 6.40106C17.0494 6.38332 17.1018 6.38332 17.1367 6.36557C17.1716 6.36557 17.2239 6.34783 17.2588 6.34783C17.2937 6.34783 17.3461 6.33008 17.381 6.33008L17.4508 6.31233L17.5206 6.29459C17.5555 6.29459 17.6078 6.27684 17.6427 6.27684C17.6951 6.27684 17.73 6.2591 17.7823 6.2591C17.8172 6.2591 17.887 6.24135 17.9219 6.24135C17.9568 6.24135 17.9743 6.24135 18.0092 6.2236H18.0615H18.0964H18.1313C18.1837 6.2236 18.2186 6.2236 18.2709 6.20586H18.3407H18.3581H18.393C18.4279 6.20586 18.4803 6.20586 18.5152 6.20586C18.6722 6.20586 18.8293 6.20586 18.9863 6.20586C19.3004 6.2236 19.6145 6.25909 19.9112 6.31233C20.5045 6.41881 21.0803 6.61402 21.5863 6.88021C22.0924 7.12866 22.5635 7.44809 22.9474 7.78527C22.9648 7.80302 22.9997 7.82076 23.0172 7.85626C23.0346 7.874 23.0695 7.89175 23.087 7.92724C23.1393 7.96273 23.1742 8.01597 23.2266 8.05146C23.2789 8.08696 23.3138 8.1402 23.3662 8.17569C23.4011 8.22893 23.4534 8.26442 23.4883 8.31766C23.6628 8.49512 23.8199 8.69033 23.9595 8.86779C24.2387 9.24046 24.4655 9.61313 24.64 9.96806C24.6575 9.9858 24.6575 10.0035 24.6749 10.039C24.6924 10.0568 24.6924 10.0745 24.7098 10.11C24.7273 10.1455 24.7447 10.1988 24.7796 10.2343C24.7971 10.2697 24.8145 10.323 24.832 10.3585C24.8494 10.394 24.8669 10.4472 24.8843 10.4827C24.9541 10.6424 25.0064 10.8021 25.0588 10.9618C25.146 11.2103 25.1984 11.4232 25.2507 11.6007C25.2682 11.6717 25.338 11.7249 25.4078 11.7249C25.495 11.7249 25.5474 11.6539 25.5474 11.5652C25.5299 11.3523 25.5299 11.1216 25.5125 10.8554Z" fill="url(#paint0_linear_2882_115)"/>
<path d="M36.5965 12.1476C36.5228 14.0879 34.9754 15.6107 33.0596 15.6107C31.0456 15.6107 29.5474 13.9897 29.5474 12.0002C29.5474 10.0107 31.1684 8.38965 33.1579 8.38965C34.0421 8.38965 34.9263 8.78263 35.6632 9.47035L35.0982 10.1826C34.5333 9.69141 33.8456 9.34755 33.1579 9.34755C31.7088 9.34755 30.5053 10.5265 30.5053 12.0002C30.5053 13.4984 31.6351 14.6528 33.0596 14.6528C34.3368 14.6528 35.3439 13.7195 35.5649 12.4914H32.6421V11.6318H36.5965V12.1476Z" fill="white"/>
<path d="M39.9369 11.6555H39.3965C38.807 11.6555 38.3158 12.1467 38.3158 12.7362V15.5362H37.3579V10.7222H38.1439V11.1152C38.4141 10.845 38.807 10.7222 39.2737 10.7222H40.3053L39.9369 11.6555Z" fill="white"/>
<path d="M45.1938 15.5371H44.3587V14.9231C43.7201 15.5371 42.7376 15.8319 41.7306 15.3898C40.9938 15.0705 40.4289 14.3828 40.2815 13.5722C39.9868 12.0249 41.1903 10.6494 42.7131 10.6494C43.3517 10.6494 43.9411 10.9196 44.3587 11.3371V10.7231H45.1938V15.5371ZM44.2113 13.4985C44.4324 12.5161 43.6955 11.6319 42.7376 11.6319C41.9025 11.6319 41.2394 12.3196 41.2394 13.1301C41.2394 14.0635 42.0499 14.7757 43.0078 14.6284C43.5727 14.5301 44.064 14.0635 44.2113 13.4985Z" fill="white"/>
<path d="M47.1086 10.4772V10.7473H48.6314V11.5824H47.1086V15.5368H46.1753V10.5017C46.1753 9.44558 46.9367 8.83154 47.8946 8.83154H49.049L48.656 9.74032H47.8946C47.4525 9.71575 47.1086 10.0596 47.1086 10.4772Z" fill="white"/>
<path d="M53.7405 15.5371H52.93V14.9231C52.2914 15.5371 51.3089 15.8319 50.3019 15.3898C49.5651 15.0705 49.0002 14.3828 48.8528 13.5722C48.558 12.0249 49.7616 10.6494 51.2844 10.6494C51.923 10.6494 52.5124 10.9196 52.93 11.3371V10.7231H53.7651V15.5371H53.7405ZM52.7581 13.4985C52.9791 12.5161 52.2423 11.6319 51.2844 11.6319C50.4493 11.6319 49.7861 12.3196 49.7861 13.1301C49.7861 14.0635 50.5966 14.7757 51.5545 14.6284C52.144 14.5301 52.6107 14.0635 52.7581 13.4985Z" fill="white"/>
<path d="M58.8741 12.7126V15.5371H57.9162V12.688C57.9162 12.0985 57.4249 11.6073 56.8355 11.6073C56.2214 11.6073 55.7548 12.0985 55.7548 12.688V15.5371H54.7969V10.7231H55.5828V11.1406C55.9267 10.8213 56.3934 10.6494 56.86 10.6494C57.9899 10.674 58.8741 11.5827 58.8741 12.7126Z" fill="white"/>
<path d="M64.5227 15.5371H63.7122V14.9231C63.0736 15.5371 62.0912 15.8319 61.0841 15.3898C60.3473 15.0705 59.7824 14.3828 59.635 13.5722C59.3403 12.0249 60.5438 10.6494 62.0666 10.6494C62.7052 10.6494 63.2947 10.9196 63.7122 11.3371V10.7231H64.5473V15.5371H64.5227ZM63.5403 13.4985C63.7613 12.5161 63.0245 11.6319 62.0666 11.6319C61.2315 11.6319 60.5683 12.3196 60.5683 13.1301C60.5683 14.0635 61.3789 14.7757 62.3368 14.6284C62.9262 14.5301 63.3929 14.0635 63.5403 13.4985Z" fill="white"/>
<defs>
<linearGradient id="paint0_linear_2882_115" x1="16.4998" y1="26.5094" x2="16.4998" y2="8.25705" gradientUnits="userSpaceOnUse">
<stop stop-color="#FCEE1F"/>
<stop offset="1" stop-color="#F15B2A"/>
</linearGradient>
</defs>
</svg>
