<svg width="72" height="24" viewBox="0 0 72 24" fill="none" xmlns="http://www.w3.org/2000/svg">
<g clip-path="url(#clip0_2827_1891)">
<path d="M11.2417 16.3349L20.5527 2.56928C20.6332 2.41421 20.7934 2.31689 20.9681 2.31689C21.1428 2.31689 21.303 2.41421 21.3835 2.56928L24.8318 7.70652L25.9786 9.41113H23.9892C23.5419 9.43311 23.1257 9.64622 22.8463 9.99623L18.7272 16.3349H11.2417Z" fill="#48206E"/>
<path d="M20.4317 20.9807L24.0984 13.6591C24.1357 13.5776 24.2197 13.5278 24.3091 13.5343C24.3979 13.53 24.4808 13.5791 24.5197 13.6591L28.1825 20.9807C28.2299 21.0377 28.2364 21.1183 28.1988 21.1821C28.1612 21.246 28.0875 21.2793 28.0147 21.2655H27.0551C26.9568 21.2623 26.8611 21.2327 26.7782 21.1796C26.6953 21.1307 26.6298 21.0571 26.591 20.969L26.2711 20.3332C26.224 20.2514 26.1569 20.183 26.0761 20.1343C25.9965 20.0803 25.903 20.0505 25.8069 20.0484H22.8073C22.7102 20.0517 22.6157 20.0814 22.5342 20.1343C22.4494 20.1819 22.3823 20.2558 22.3431 20.3449L22.0388 20.969C21.9933 21.055 21.9261 21.1276 21.8438 21.1796C21.7638 21.2326 21.6706 21.2623 21.5747 21.2655H20.6112C20.5388 21.2733 20.4682 21.2402 20.4278 21.1796C20.3958 21.1169 20.3972 21.0422 20.4317 20.9807ZM23.525 18.7729H25.0853C25.1588 18.7819 25.2306 18.7467 25.2686 18.6832C25.304 18.6188 25.304 18.5408 25.2686 18.4765L24.4456 16.7367C24.4105 16.6509 24.3637 16.608 24.3091 16.608C24.2544 16.608 24.2076 16.6509 24.1725 16.7367L23.3378 18.4765C23.3024 18.5422 23.3024 18.6213 23.3378 18.6871C23.3794 18.7483 23.4515 18.7813 23.525 18.7729Z" fill="#231F20"/>
<path d="M30.2694 21.2652H29.4347C29.3466 21.2663 29.2619 21.231 29.2006 21.1677C29.1393 21.1069 29.1055 21.0238 29.107 20.9375V13.8616C29.1049 13.7741 29.1387 13.6895 29.2006 13.6276C29.2625 13.5656 29.3471 13.5318 29.4347 13.534H32.6255C32.9957 13.5289 33.3636 13.5938 33.7099 13.7251C34.0196 13.8555 34.3026 14.042 34.5446 14.2751C34.6647 14.3924 34.7708 14.5233 34.8606 14.6652C34.9547 14.8071 35.0331 14.9588 35.0946 15.1177C35.2231 15.462 35.2878 15.8268 35.2858 16.1942C35.3016 16.7375 35.1505 17.2726 34.8528 17.7272C34.6272 18.0541 34.3261 18.3217 33.9751 18.5074C33.9041 18.5436 33.8507 18.6068 33.8269 18.6829C33.8066 18.7603 33.8272 18.8426 33.8815 18.9013C34.1389 19.2524 34.3886 19.584 34.6265 19.896C34.8645 20.2081 35.1063 20.5435 35.3599 20.8946C35.4123 20.9605 35.4297 21.0476 35.4067 21.1286C35.3844 21.2051 35.3103 21.2545 35.2311 21.2457H34.1663C34.067 21.2427 33.9696 21.2174 33.8815 21.1716C33.7917 21.129 33.7119 21.0678 33.6475 20.9921L33.2925 20.5084C33.1794 20.3524 33.0584 20.1925 32.9414 20.0286L32.2432 19.0496C32.1842 18.9671 32.1049 18.9013 32.0131 18.8584C31.9241 18.8112 31.8251 18.7858 31.7244 18.7843H30.9131C30.8258 18.7835 30.7417 18.8171 30.679 18.8779C30.6167 18.9396 30.5828 19.0244 30.5854 19.112V20.918C30.5867 21.0035 30.5545 21.0861 30.4957 21.1481C30.4425 21.2201 30.3589 21.2633 30.2694 21.2652ZM30.9131 17.4932H32.6255C32.7592 17.4879 32.891 17.4602 33.0155 17.4113C33.1618 17.3585 33.2949 17.2746 33.4056 17.1655C33.5192 17.052 33.6128 16.9201 33.6826 16.7755C33.7596 16.5958 33.7956 16.4013 33.7879 16.2059C33.7856 16.0749 33.7712 15.9443 33.745 15.8159C33.7296 15.7391 33.7088 15.6635 33.6826 15.5896C33.6514 15.5155 33.6202 15.4453 33.585 15.3751C33.4965 15.228 33.3733 15.1048 33.2262 15.0162C33.0377 14.909 32.8226 14.8576 32.606 14.868H30.9131C30.8258 14.8672 30.7417 14.9008 30.679 14.9616C30.6167 15.0233 30.5828 15.108 30.5854 15.1957V17.1889C30.5828 17.2766 30.6167 17.3613 30.679 17.423C30.7452 17.4753 30.829 17.5004 30.9131 17.4932Z" fill="#231F20"/>
<path d="M45.0958 13.7018V20.9376C45.0974 21.0239 45.0635 21.1071 45.0022 21.1678C44.9457 21.2309 44.8646 21.2665 44.7799 21.2654H43.9451C43.858 21.2672 43.7742 21.2317 43.715 21.1678C43.6526 21.1075 43.6174 21.0244 43.6175 20.9376V17.6844C43.6175 17.5908 43.598 17.5362 43.5629 17.5206C43.5277 17.505 43.4731 17.5206 43.4185 17.6103L41.4253 20.0054C41.3788 20.074 41.3014 20.1151 41.2185 20.1151C41.1357 20.1151 41.0582 20.074 41.0118 20.0054L39.0029 17.6025C38.9483 17.5323 38.8976 17.505 38.8586 17.5167C38.8196 17.5284 38.7923 17.583 38.7923 17.6766V20.9298C38.7938 21.0161 38.76 21.0993 38.6987 21.16C38.6383 21.2246 38.553 21.2601 38.4646 21.2575H37.6416C37.4615 21.2554 37.316 21.1099 37.3139 20.9298V13.7018C37.3095 13.6635 37.3207 13.625 37.3449 13.595C37.3691 13.5649 37.4043 13.5458 37.4426 13.5419C37.5234 13.5288 37.6047 13.5619 37.6533 13.6277L40.9884 17.7586C41.0431 17.8181 41.1202 17.8519 41.201 17.8519C41.2818 17.8519 41.3589 17.8181 41.4136 17.7586L44.7604 13.6394C44.8084 13.5729 44.8902 13.5396 44.971 13.5536C45.0455 13.5618 45.1004 13.627 45.0958 13.7018Z" fill="#231F20"/>
<path d="M48.6573 21.2651H47.8226C47.7363 21.2686 47.6531 21.2328 47.5963 21.1676C47.5361 21.1065 47.5036 21.0233 47.5066 20.9375V13.8733C47.503 13.7863 47.5354 13.7016 47.5963 13.6393C47.6544 13.5765 47.7371 13.5423 47.8226 13.5456H48.6573C48.7436 13.5441 48.8268 13.5779 48.8875 13.6393C48.9508 13.7005 48.9861 13.7852 48.985 13.8733V20.9375C48.985 21.0242 48.9499 21.1073 48.8875 21.1676C48.8283 21.2316 48.7445 21.2671 48.6573 21.2651Z" fill="#231F20"/>
<path d="M51.2082 19.9859L51.649 19.3306C51.6935 19.2577 51.7676 19.2078 51.8519 19.1941C51.9365 19.179 52.0237 19.1987 52.0937 19.2487C52.3932 19.4341 52.7032 19.6021 53.0221 19.7519C53.426 19.9506 53.8708 20.0522 54.321 20.0483C54.5367 20.0525 54.7515 20.0209 54.9568 19.9547C55.1241 19.9046 55.2812 19.8254 55.421 19.7207C55.5385 19.6333 55.6356 19.5215 55.7058 19.393C55.768 19.2837 55.8003 19.1599 55.7994 19.0341C55.7989 18.8905 55.7462 18.7518 55.6512 18.6441C55.5399 18.5308 55.4074 18.4406 55.2611 18.3788C55.1831 18.3437 55.0973 18.3125 55.0075 18.2813L54.6994 18.1994C54.5941 18.1721 54.4887 18.1448 54.3795 18.1253L54.0363 18.0629L53.7827 18.0122L53.498 17.9576C53.2814 17.9246 53.0685 17.871 52.8621 17.7976C52.6382 17.7339 52.4223 17.6449 52.2185 17.5324C52.0092 17.4334 51.8169 17.3017 51.649 17.1423C51.4797 16.9735 51.347 16.7717 51.259 16.5494C51.1543 16.2948 51.1038 16.0211 51.1107 15.7459C51.0715 15.0013 51.4446 14.2955 52.082 13.9086C52.377 13.7396 52.6969 13.6185 53.0299 13.5498C53.3633 13.4794 53.7033 13.4441 54.0441 13.4444C54.3339 13.4432 54.6234 13.4641 54.91 13.5068C55.0387 13.5302 55.1597 13.5576 55.2767 13.5888L55.62 13.6863C55.7292 13.7292 55.8384 13.7799 55.9476 13.8306L56.2519 13.9944L56.4508 14.1193C56.5171 14.1622 56.5873 14.2051 56.6653 14.248C56.7367 14.2976 56.7857 14.3732 56.8019 14.4586C56.8142 14.5443 56.7918 14.6314 56.7395 14.7005L56.2948 15.3363C56.1885 15.486 55.9817 15.5225 55.8306 15.4182C55.5855 15.2602 55.3239 15.1294 55.0504 15.0281C54.7124 14.8906 54.3504 14.8217 53.9856 14.8253H53.7788C53.7047 14.8253 53.6306 14.8253 53.5526 14.8565C53.3921 14.8915 53.2364 14.9452 53.0884 15.0164C53.0211 15.0501 52.956 15.0879 52.8934 15.1295C52.8362 15.1673 52.7838 15.2119 52.7373 15.2622C52.6474 15.3721 52.5991 15.5102 52.6008 15.6522C52.597 15.8005 52.6583 15.9431 52.7685 16.0423C52.8952 16.1567 53.042 16.2467 53.2015 16.3076C53.2925 16.344 53.3861 16.3752 53.4824 16.4012C53.576 16.4324 53.6774 16.4597 53.7827 16.487C53.888 16.5143 53.9934 16.5416 54.0948 16.5611C54.1962 16.5806 54.2976 16.6079 54.3951 16.6352L54.637 16.6859C54.7282 16.7094 54.8206 16.7276 54.9139 16.7405L55.2182 16.799C55.325 16.8235 55.4304 16.8535 55.5341 16.8888L55.7097 16.9395L55.8852 17.0058C55.9671 17.0409 56.0646 17.0838 56.1738 17.1423C56.2715 17.1912 56.3653 17.2473 56.4547 17.31C56.5077 17.3446 56.5585 17.3824 56.6068 17.4232L56.7395 17.5441C56.9098 17.7196 57.0425 17.928 57.1295 18.1565C57.2407 18.4381 57.2937 18.7393 57.2856 19.042C57.2928 19.4016 57.2209 19.7585 57.0749 20.0873C56.9397 20.3775 56.733 20.6285 56.4742 20.8168C56.1967 21.024 55.8813 21.1751 55.5458 21.2615C55.1559 21.3616 54.7548 21.4114 54.3522 21.4097C53.9936 21.4132 53.6355 21.3805 53.2834 21.3122C52.9965 21.265 52.7163 21.1838 52.4487 21.0703C52.3238 21.0196 52.199 20.965 52.082 20.9065C51.9617 20.8477 51.8445 20.7825 51.7309 20.7115L51.5203 20.5788L51.298 20.4267C51.2261 20.3812 51.1766 20.3076 51.1614 20.2239C51.1476 20.1415 51.1642 20.0569 51.2082 19.9859Z" fill="#231F20"/>
<path d="M58.6626 20.3564C58.6622 20.263 58.674 20.1699 58.6977 20.0795C58.7203 19.9921 58.7544 19.9082 58.7991 19.8298C58.8458 19.7536 58.8993 19.6818 58.9591 19.6153C59.0208 19.5533 59.0903 19.4995 59.1658 19.4554C59.2428 19.4088 59.3254 19.3721 59.4115 19.3462C59.4993 19.3225 59.5898 19.3107 59.6807 19.311C59.7729 19.3107 59.8647 19.3225 59.9537 19.3462C60.0402 19.3714 60.1229 19.4081 60.1995 19.4554C60.2769 19.4985 60.3478 19.5523 60.4101 19.6153C60.4711 19.6808 60.5247 19.7527 60.5701 19.8298C60.6148 19.9082 60.6489 19.9921 60.6715 20.0795C60.6983 20.1693 60.7115 20.2627 60.7105 20.3564C60.7086 20.4905 60.6808 20.623 60.6286 20.7465C60.5772 20.8709 60.5031 20.9847 60.4101 21.082C60.3159 21.1761 60.2047 21.2515 60.0825 21.3043C59.9594 21.3579 59.8266 21.3857 59.6924 21.3862C59.6015 21.3866 59.511 21.3748 59.4233 21.3511C59.3378 21.3248 59.2555 21.2895 59.1775 21.2458C59.1069 21.2084 59.0403 21.1639 58.9786 21.1132C58.9188 21.0467 58.8653 20.9749 58.8186 20.8986C58.7745 20.82 58.7405 20.7361 58.7172 20.649C58.6859 20.5544 58.6676 20.456 58.6626 20.3564ZM58.9162 20.3564C58.9153 20.4671 58.9351 20.5769 58.9747 20.6802C59.0123 20.7757 59.0679 20.8631 59.1385 20.9376C59.2027 21.0109 59.281 21.0706 59.3686 21.1132C59.4636 21.1537 59.5657 21.1749 59.669 21.1756C59.7748 21.1749 59.8794 21.1537 59.9771 21.1132C60.0697 21.0712 60.1532 21.0116 60.2229 20.9376C60.2935 20.8631 60.3491 20.7757 60.3867 20.6802C60.4263 20.5769 60.4461 20.4671 60.4452 20.3564C60.4462 20.2483 60.4263 20.1411 60.3867 20.0405C60.3175 19.8512 60.1777 19.696 59.9967 19.6075C59.8998 19.5639 59.7947 19.5413 59.6885 19.5412C59.5847 19.541 59.4822 19.5636 59.3881 19.6075C59.2965 19.6473 59.2141 19.7057 59.1463 19.7791C59.0748 19.8545 59.0191 19.9433 58.9825 20.0405C58.9402 20.1405 58.9177 20.2478 58.9162 20.3564ZM59.3062 19.8298H59.7587C59.8066 19.829 59.8542 19.8369 59.8991 19.8532C59.9394 19.8683 59.9764 19.8908 60.0084 19.9196C60.038 19.9493 60.0606 19.9853 60.0747 20.0249C60.0942 20.0677 60.1035 20.1144 60.102 20.1614C60.1082 20.1975 60.1082 20.2345 60.102 20.2706C60.0911 20.2992 60.0752 20.3256 60.0552 20.3486C60.0387 20.3699 60.019 20.3883 59.9967 20.4032C59.9779 20.4165 59.9567 20.4258 59.9342 20.4306V20.4501L59.9537 20.4813L60.1488 20.8713H59.8796L59.7041 20.4813H59.5676V20.8713H59.3218L59.3062 19.8298ZM59.6963 20.3174C59.7382 20.3189 59.779 20.3035 59.8094 20.2745C59.8373 20.2437 59.8514 20.2029 59.8484 20.1614C59.8521 20.1187 59.8379 20.0764 59.8094 20.0444C59.7792 20.0182 59.7402 20.0043 59.7002 20.0054H59.5637V20.333L59.6963 20.3174Z" fill="#231F20"/>
</g>
<defs>
<clipPath id="clip0_2827_1891">
<rect width="50" height="19.5035" fill="white" transform="translate(11 2)"/>
</clipPath>
</defs>
</svg>
