<svg width="72" height="24" viewBox="0 0 72 24" fill="none" xmlns="http://www.w3.org/2000/svg">
    <path fill-rule="evenodd" clip-rule="evenodd" d="M13.1271 4.77562C13.1271 5.75321 13.9251 6.54725 14.9027 6.54725C15.8803 6.54725 16.6743 5.74922 16.6743 4.77562C16.6743 3.79404 15.8803 3 14.9027 3C13.9211 3 13.1271 3.79803 13.1271 4.77562ZM13.9248 4.77555C13.9248 4.23688 14.3637 3.79796 14.9024 3.79796C15.437 3.79796 15.876 4.23289 15.876 4.77555C15.876 5.31023 15.441 5.74915 14.9024 5.74915C14.3637 5.74915 13.9248 5.31422 13.9248 4.77555Z" fill="#100F0D"/>
    <path fill-rule="evenodd" clip-rule="evenodd" d="M6.11572 17.4485C6.11572 18.4301 6.91375 19.2241 7.89134 19.2241C8.86893 19.2241 9.66696 18.4301 9.66696 17.4485C9.66696 16.4669 8.87292 15.6729 7.89134 15.6729C6.90976 15.6729 6.11572 16.4669 6.11572 17.4485ZM6.91404 17.4525C6.91404 16.9138 7.35296 16.4749 7.89163 16.4749C8.42631 16.4749 8.86922 16.9138 8.86922 17.4525C8.86922 17.9911 8.4303 18.43 7.89163 18.43C7.35296 18.43 6.91404 17.9911 6.91404 17.4525Z" fill="#100F0D"/>
    <path fill-rule="evenodd" clip-rule="evenodd" d="M13.1271 20.9637C13.1271 21.9453 13.9251 22.7393 14.9027 22.7393C15.8803 22.7393 16.6743 21.9453 16.6743 20.9637C16.6743 19.9821 15.8803 19.1881 14.9027 19.1881C13.9211 19.1881 13.1271 19.9821 13.1271 20.9637ZM13.9248 20.9677C13.9248 20.429 14.3637 19.9901 14.9024 19.9901C15.437 19.9901 15.876 20.429 15.876 20.9677C15.876 21.5064 15.441 21.9453 14.9024 21.9453C14.3637 21.9453 13.9248 21.5064 13.9248 20.9677Z" fill="#100F0D"/>
    <path fill-rule="evenodd" clip-rule="evenodd" d="M6 7.76019C6 8.74176 6.79803 9.53581 7.77562 9.53581C8.75321 9.53581 9.55124 8.74176 9.55124 7.76019C9.55124 6.77861 8.7572 5.98456 7.77562 5.98456C6.79404 5.98456 6 6.77861 6 7.76019ZM6.79833 7.76409C6.79833 7.22541 7.23724 6.7865 7.77591 6.7865C8.3106 6.7865 8.7535 7.22541 8.7535 7.76409C8.7535 8.30276 8.31459 8.74167 7.77591 8.74167C7.23724 8.74167 6.79833 8.30276 6.79833 7.76409Z" fill="#100F0D"/>
    <path fill-rule="evenodd" clip-rule="evenodd" d="M8.79267 8.88155L9.2509 8.2282L11.3939 9.7312L10.9357 10.3845L8.79267 8.88155Z" fill="#100F0D"/>
    <path fill-rule="evenodd" clip-rule="evenodd" d="M8.92817 16.387L10.8261 15.0627L11.2828 15.7172L9.3848 17.0414L8.92817 16.387Z" fill="#100F0D"/>
    <path d="M14.5033 6.47162H15.3013V8.11556H14.5033V6.47162Z" fill="#100F0D"/>
    <path d="M14.5033 17.7917H15.3013V19.4835H14.5033V17.7917Z" fill="#100F0D"/>
    <path fill-rule="evenodd" clip-rule="evenodd" d="M20.2607 17.2131C20.2607 18.1946 21.0548 18.9887 22.0324 18.9887C23.0099 18.9887 23.804 18.1906 23.808 17.2131C23.808 16.2355 23.0099 15.4414 22.0324 15.4414C21.0548 15.4414 20.2607 16.2355 20.2607 17.2131ZM21.059 17.213C21.059 16.6783 21.494 16.2394 22.0326 16.2394C22.5673 16.2394 23.0062 16.6743 23.0102 17.213C23.0102 17.7517 22.5673 18.1906 22.0326 18.1906C21.4979 18.1906 21.059 17.7517 21.059 17.213Z" fill="#100F0D"/>
    <path fill-rule="evenodd" clip-rule="evenodd" d="M18.8259 15.615L19.2828 14.9607L20.9905 16.1531L20.5337 16.8074L18.8259 15.615Z" fill="#100F0D"/>
    <path fill-rule="evenodd" clip-rule="evenodd" d="M9.87883 12.8719C9.87883 15.6571 12.1452 17.9195 14.9264 17.9195C17.7075 17.9195 19.9739 15.6571 19.9739 12.8719C19.9739 10.0868 17.7115 7.82437 14.9264 7.82437C12.1413 7.82437 9.87883 10.0868 9.87883 12.8719ZM10.6764 12.8714C10.6764 10.5292 12.5837 8.62188 14.9259 8.62188C17.2681 8.62188 19.1754 10.5292 19.1754 12.8714C19.1754 15.2136 17.2681 17.1209 14.9259 17.1209C12.5837 17.1209 10.6764 15.2136 10.6764 12.8714Z" fill="#100F0D"/>
    <path fill-rule="evenodd" clip-rule="evenodd" d="M11.9735 13.5578C11.9735 14.6751 12.6119 16.7859 15.0219 16.7859C17.432 16.7859 18.0704 14.6791 18.0704 13.5658V10.4535C18.0704 10.2939 17.9707 10.1463 17.823 10.0864L15.1736 8.99311C15.0778 8.95321 14.9661 8.95321 14.8703 8.99311L12.2208 10.0864C12.0692 10.1463 11.9735 10.2899 11.9735 10.4535V13.5578ZM12.7717 13.5534V10.7164L15.0221 9.78666L17.2726 10.7164V13.5614C17.2726 13.6611 17.2486 15.9834 15.0221 15.9834C12.8116 15.9834 12.7717 13.6531 12.7717 13.5534Z" fill="#100F0D"/>
    <path fill-rule="evenodd" clip-rule="evenodd" d="M13.1633 13.5964C13.1858 13.7043 13.5523 15.461 15.0221 15.461C16.5065 15.461 16.8656 13.6695 16.8775 13.5937C16.878 13.5901 16.8785 13.5866 16.879 13.5832C16.8825 13.5596 16.8855 13.5387 16.8855 13.5178V11.4509C16.8855 11.2873 16.7858 11.1397 16.6341 11.0799L15.1697 10.4893C15.074 10.4494 14.9662 10.4494 14.8705 10.4893L13.4061 11.0799C13.2545 11.1437 13.1547 11.2873 13.1547 11.4509V13.5178C13.1547 13.5458 13.1587 13.5697 13.1627 13.5937L13.1633 13.5964ZM15.0185 14.6672C14.2724 14.6672 13.997 13.6697 13.9532 13.4782V11.7265L15.0185 11.2955L16.0839 11.7265V13.4821C16.04 13.6737 15.7727 14.6672 15.0185 14.6672Z" fill="#100F0D"/>
    <path d="M14.6269 11.1636H15.4249V15.3692H14.6269V11.1636Z" fill="#100F0D"/>
    <path fill-rule="evenodd" clip-rule="evenodd" d="M24.0002 8.02349C24.0002 7.04191 23.2022 6.24787 22.2246 6.24787C21.247 6.24787 20.449 7.04191 20.449 8.02349C20.449 9.00507 21.243 9.79911 22.2246 9.79911C23.2062 9.79911 24.0002 9.00507 24.0002 8.02349ZM23.2027 8.01945C23.2027 8.55812 22.7638 8.99704 22.2251 8.99704C21.6864 8.99704 21.2475 8.55812 21.2475 8.01945C21.2475 7.48078 21.6864 7.04186 22.2251 7.04186C22.7638 7.04186 23.2027 7.48078 23.2027 8.01945Z" fill="#100F0D"/>
    <path fill-rule="evenodd" clip-rule="evenodd" d="M18.8289 9.75317L20.7268 8.42893L21.1835 9.0834L19.2855 10.4076L18.8289 9.75317Z" fill="#100F0D"/>
    <path d="M33.251 10.9348L33.0359 10.9356C32.9569 10.9356 32.8563 10.9891 32.8316 11.0759L32.179 13.3846L31.5336 11.0809C31.5142 11.0087 31.4464 10.9356 31.3543 10.9356H31.0996C31.0079 10.9356 30.941 11.0097 30.9225 11.0824L30.322 13.3621L29.7017 11.0754C29.6771 10.9917 29.574 10.9356 29.4932 10.9356L29.1836 10.935C29.1175 10.935 29.056 10.9636 29.0231 11.0095C29.0007 11.0406 28.9945 11.0759 29.0048 11.1066L29.9633 14.5139C29.9844 14.5855 30.0462 14.6577 30.1366 14.6577H30.4444C30.5276 14.6577 30.6004 14.5969 30.6215 14.5105L31.2114 12.2409L31.8533 14.5131C31.8726 14.5827 31.9348 14.6577 32.0256 14.6577H32.3284C32.4127 14.6577 32.4836 14.5989 32.5044 14.5128L33.4269 11.108C33.4378 11.0752 33.4315 11.0388 33.4095 11.0081C33.3771 10.9629 33.3164 10.9348 33.251 10.9348Z" fill="#100F0D"/>
    <path d="M35.9127 12.3813H34.2866C34.324 11.9231 34.6203 11.4479 35.1223 11.4296C35.6565 11.4472 35.9009 11.9114 35.9127 12.3813ZM35.1211 10.9103C34.0227 10.9103 33.5225 11.8855 33.5225 12.7914C33.5225 13.9221 34.1444 14.6526 35.1068 14.6526C35.7956 14.6526 36.3207 14.3031 36.5475 13.6925C36.5596 13.6576 36.5558 13.6197 36.5368 13.5858C36.5138 13.5445 36.47 13.5134 36.4181 13.5019L36.1133 13.4434C36.0314 13.4305 35.9376 13.4792 35.9066 13.5498C35.7585 13.8891 35.4885 14.0816 35.1497 14.0916C34.8237 14.0815 34.5244 13.887 34.3872 13.5964C34.2758 13.3591 34.2593 13.1251 34.2574 12.8872L36.465 12.8865C36.5113 12.8865 36.5592 12.866 36.593 12.8316C36.6213 12.8031 36.6367 12.7676 36.6364 12.7321C36.631 11.8513 36.2301 10.9103 35.1211 10.9103Z" fill="#100F0D"/>
    <path d="M39.3521 12.7966C39.3521 13.0052 39.3145 14.0468 38.5775 14.0735C38.3305 14.064 38.081 13.9182 37.9415 13.7027C37.8389 13.5397 37.7789 13.3143 37.7635 13.0355V12.4226C37.7755 11.9532 38.1046 11.438 38.5751 11.418C39.3146 11.4473 39.3521 12.5714 39.3521 12.7966ZM38.6931 10.8785H38.6347C38.27 10.8785 37.9835 11.0306 37.7635 11.3423L37.7632 9.90593C37.7632 9.82526 37.6802 9.75177 37.5886 9.75177H37.2712C37.1882 9.75177 37.0954 9.81773 37.0952 9.90593V14.3898C37.0955 14.4712 37.1785 14.5452 37.27 14.5452L37.3632 14.5447C37.4513 14.5447 37.5139 14.4735 37.5351 14.4073L37.6344 14.0908C37.8651 14.4198 38.2126 14.613 38.5845 14.613H38.6414C39.621 14.613 40.0594 13.6563 40.0594 12.7081C40.0594 12.2361 39.9435 11.7848 39.7415 11.47C39.5081 11.1052 39.1063 10.8785 38.6931 10.8785Z" fill="#100F0D"/>
    <path d="M43.5355 12.6958C43.329 12.5469 43.0809 12.4971 42.8322 12.4473L42.3555 12.3585C42.0135 12.302 41.8155 12.2099 41.8155 11.9068C41.8155 11.5864 42.1462 11.4639 42.4265 11.4563C42.7689 11.465 43.0264 11.6184 43.1514 11.8882C43.1811 11.9518 43.2469 11.9945 43.3154 11.9945C43.3271 11.9945 43.339 11.9932 43.3503 11.9908L43.6478 11.9248C43.6963 11.914 43.7417 11.8806 43.766 11.8371C43.7854 11.8026 43.7896 11.7649 43.778 11.7313C43.596 11.1988 43.1338 10.9174 42.4346 10.9174C41.8028 10.9188 41.1277 11.2009 41.1277 11.9888C41.1277 12.5273 41.4646 12.8692 42.1299 13.0053L42.6635 13.1074C42.9565 13.1637 43.2561 13.2639 43.2561 13.5798C43.2561 14.0474 42.7142 14.095 42.5504 14.0984C42.1828 14.0905 41.7667 13.9259 41.6656 13.5772C41.6454 13.5006 41.5493 13.4464 41.4651 13.464L41.1539 13.5285C41.1071 13.5384 41.0642 13.569 41.0393 13.6103C41.0184 13.6447 41.0124 13.6832 41.0221 13.7184C41.1826 14.2968 41.7387 14.6456 42.5096 14.6515L42.5267 14.6516C43.2152 14.6516 43.9508 14.3556 43.9508 13.5251C43.9508 13.1871 43.7993 12.8848 43.5355 12.6958Z" fill="#100F0D"/>
    <path d="M46.6829 12.3846H45.0563C45.0935 11.926 45.3898 11.4506 45.8918 11.4332C46.4258 11.4502 46.6705 11.9144 46.6829 12.3846ZM45.891 10.9134C44.7923 10.9134 44.292 11.8886 44.292 12.7945C44.292 13.9251 44.914 14.6555 45.8765 14.6555C46.5654 14.6555 47.0905 14.306 47.3175 13.6956C47.3296 13.6606 47.3258 13.6226 47.3067 13.5886C47.2836 13.5473 47.2397 13.5161 47.188 13.5049L46.8827 13.4463C46.8112 13.4347 46.7116 13.4718 46.6765 13.5529C46.5283 13.892 46.2582 14.0844 45.9197 14.0949C45.5934 14.0844 45.2941 13.89 45.1575 13.5995C45.0458 13.3627 45.0292 13.1286 45.0276 12.8901L47.2349 12.8896C47.2809 12.8896 47.3285 12.8692 47.3623 12.835C47.3907 12.8064 47.4061 12.7709 47.4058 12.7352C47.4007 11.8545 47.0002 10.9134 45.891 10.9134Z" fill="#100F0D"/>
    <path d="M49.4901 10.9549C49.447 10.9502 49.4056 10.9479 49.3654 10.9479C48.9949 10.9479 48.694 11.1501 48.4852 11.5365L48.486 11.1981C48.4857 11.1162 48.4042 11.0442 48.3118 11.0442H48.036C47.9456 11.0442 47.8658 11.1165 47.8652 11.1995L47.8647 14.4867C47.8647 14.5692 47.9445 14.6416 48.0356 14.6416L48.3573 14.6415C48.441 14.6415 48.5352 14.5755 48.536 14.4867L48.5362 12.8294C48.5362 12.5561 48.5616 12.3503 48.6916 12.1067C48.8773 11.7597 49.1366 11.5895 49.4844 11.5868C49.5716 11.5862 49.6481 11.5098 49.6481 11.4232V11.1157C49.6481 11.0353 49.5786 10.9646 49.4901 10.9549Z" fill="#100F0D"/>
    <path d="M52.8674 10.8904L52.6133 10.8905C52.5338 10.8905 52.4317 10.9479 52.407 11.0321L51.5836 13.6309L50.7427 11.0347C50.7178 10.9485 50.6156 10.8905 50.5356 10.8905L50.1728 10.8902C50.1062 10.8902 50.0418 10.92 50.0089 10.9661C49.9868 10.9969 49.9807 11.0319 49.9916 11.0645L51.1425 14.4928C51.1646 14.5606 51.2233 14.6399 51.3161 14.6399H51.7551C51.8356 14.6399 51.9017 14.5848 51.9319 14.4925L53.0482 11.0656C53.0594 11.033 53.0534 10.998 53.0314 10.967C52.9982 10.9206 52.9339 10.8904 52.8674 10.8904Z" fill="#100F0D"/>
    <path d="M53.7021 9.57248C53.4681 9.57248 53.2778 9.76406 53.2778 9.99981C53.2778 10.2355 53.4681 10.427 53.7021 10.427C53.9362 10.427 54.1266 10.2355 54.1266 9.99981C54.1266 9.76406 53.9362 9.57248 53.7021 9.57248Z" fill="#100F0D"/>
    <path d="M53.8764 10.8693L53.528 10.869C53.4332 10.869 53.3469 10.946 53.3469 11.0303L53.3452 14.5207C53.3452 14.5629 53.3669 14.6049 53.4044 14.636C53.4388 14.6643 53.4827 14.6806 53.5268 14.6806L53.8777 14.6812H53.8779C53.974 14.6803 54.0585 14.6054 54.0585 14.5209V11.0303C54.0585 10.9446 53.9733 10.8693 53.8764 10.8693Z" fill="#100F0D"/>
    <path d="M57.1324 13.2364L56.8415 13.2375C56.7603 13.2375 56.6922 13.2865 56.6619 13.3716C56.5557 13.8319 56.315 14.0704 55.95 14.081C55.2392 14.0598 55.1841 13.0649 55.1841 12.7605C55.1841 12.1534 55.3934 11.4983 55.9779 11.481C56.3307 11.4919 56.5873 11.7459 56.6643 12.1598C56.6788 12.2443 56.7435 12.3082 56.8317 12.3193L57.143 12.3224C57.236 12.3123 57.309 12.2416 57.3083 12.1539C57.1982 11.4059 56.682 10.9224 55.9921 10.9224L55.9683 10.923L55.9413 10.9224C54.938 10.9224 54.4888 11.8627 54.4888 12.7945C54.4888 13.6489 54.8675 14.6465 55.9356 14.6465H55.9868C56.6594 14.6465 57.1672 14.173 57.3126 13.4053C57.3158 13.3688 57.3032 13.3322 57.2774 13.3024C57.244 13.2639 57.1908 13.2392 57.1324 13.2364Z" fill="#100F0D"/>
    <path d="M60.0054 12.3846H58.3787C58.4159 11.9258 58.7123 11.4506 59.2146 11.4332C59.7487 11.4502 59.9933 11.9144 60.0054 12.3846ZM59.2135 10.9134C58.115 10.9134 57.6147 11.8886 57.6147 12.7945C57.6147 13.9251 58.2367 14.6555 59.1993 14.6555C59.8879 14.6555 60.4127 14.3062 60.64 13.6957C60.6518 13.6605 60.6479 13.6224 60.6289 13.5886C60.6055 13.547 60.5629 13.5166 60.5103 13.5049L60.2054 13.4463C60.1337 13.4347 60.0343 13.4718 59.9992 13.5529C59.8506 13.892 59.5804 14.0844 59.242 14.095C58.9158 14.0844 58.6167 13.89 58.48 13.5995C58.3683 13.3624 58.3517 13.1282 58.3499 12.8901L60.5575 12.8898C60.6039 12.8898 60.6518 12.8692 60.6857 12.8347C60.7139 12.8059 60.7291 12.7704 60.7286 12.7352C60.7235 11.8545 60.3228 10.9134 59.2135 10.9134Z" fill="#100F0D"/>
    <path d="M63.4935 12.6958C63.2868 12.5467 63.0383 12.497 62.7901 12.4473L62.3134 12.3585C61.9717 12.302 61.7738 12.2099 61.7738 11.9068C61.7738 11.4935 62.2846 11.459 62.3842 11.4563C62.7269 11.465 62.9844 11.6184 63.1092 11.8883C63.1391 11.9519 63.2051 11.9945 63.2737 11.9945C63.2855 11.9945 63.2973 11.9932 63.3088 11.9908L63.6061 11.9248C63.6546 11.914 63.6999 11.8805 63.7241 11.837C63.7434 11.8025 63.7477 11.7649 63.7361 11.7313C63.5543 11.1988 63.092 10.9174 62.3924 10.9174C61.7609 10.9188 61.086 11.2009 61.086 11.9888C61.086 12.5274 61.4228 12.8694 62.088 13.0053L62.6218 13.1074C62.9148 13.1637 63.2144 13.2639 63.2144 13.5798C63.2144 14.0474 62.6725 14.095 62.5087 14.0984C62.1679 14.0911 61.7317 13.9498 61.6241 13.5777C61.6043 13.5006 61.5084 13.4465 61.4226 13.464L61.112 13.5285C61.0649 13.5385 61.022 13.5693 60.9971 13.6107C60.9764 13.6452 60.9704 13.6834 60.9802 13.7184C61.1403 14.2968 61.6963 14.6456 62.4672 14.6515L62.4844 14.6516C63.1729 14.6516 63.9087 14.3556 63.9087 13.5251C63.9087 13.1868 63.7573 12.8845 63.4935 12.6958Z" fill="#100F0D"/>
    <path fill-rule="evenodd" clip-rule="evenodd" d="M49.3325 4.14922V3.35662C49.333 3.23642 49.4238 3.15575 49.5329 3.15586L53.069 3.15575C53.1818 3.15575 53.2729 3.23838 53.2729 3.35575V4.03544C53.2718 4.14922 53.1761 4.29798 53.0065 4.53422L51.175 7.16032C51.8546 7.14412 52.574 7.24631 53.1916 7.59496C53.3311 7.67355 53.3682 7.79016 53.3796 7.90401V8.74974C53.3796 8.86635 53.2525 9.00113 53.1192 8.93091C52.0308 8.35826 50.5863 8.29575 49.3825 8.93754C49.2597 9.00342 49.1309 8.87073 49.1309 8.75411V7.9505C49.1309 7.82228 49.1335 7.60202 49.2624 7.40584L51.3847 4.34888L49.5371 4.34845C49.424 4.34845 49.3336 4.26765 49.3325 4.14922Z" fill="#100F0D"/>
    <path fill-rule="evenodd" clip-rule="evenodd" d="M36.4338 9.09766H35.3578C35.2555 9.09094 35.1737 9.0135 35.1655 8.91474L35.1663 3.37007C35.1663 3.25913 35.2593 3.17051 35.3738 3.17051L36.3757 3.16996C36.4807 3.17584 36.5646 3.25532 36.5717 3.35613V4.08061H36.5917C36.8525 3.3802 37.3447 3.05401 38.0073 3.05401C38.6801 3.05401 39.1019 3.3802 39.4032 4.08061C39.6645 3.3802 40.2568 3.05401 40.89 3.05401C41.3419 3.05401 41.8333 3.2404 42.1346 3.66022C42.476 4.12717 42.4057 4.80346 42.4057 5.39878L42.405 8.8979C42.405 9.00852 42.3121 9.09766 42.1977 9.09766H41.1233C41.0151 9.09094 40.93 9.00426 40.93 8.89841V5.95875C40.93 5.72553 40.9498 5.1419 40.8997 4.92041C40.8192 4.54672 40.578 4.44231 40.2672 4.44231C40.0058 4.44231 39.7345 4.61732 39.6241 4.89673C39.5137 5.1772 39.5239 5.64387 39.5239 5.95875V8.8979C39.5239 9.00852 39.431 9.09766 39.3164 9.09766H38.2417C38.1341 9.09094 38.0487 9.00426 38.0487 8.89841L38.0473 5.95875C38.0473 5.3403 38.148 4.43061 37.385 4.43061C36.6117 4.43061 36.6419 5.31712 36.6419 5.95875L36.6412 8.8979C36.6417 9.00852 36.5486 9.09766 36.4338 9.09766Z" fill="#100F0D"/>
    <path fill-rule="evenodd" clip-rule="evenodd" d="M56.3268 4.18557C55.5331 4.18557 55.4831 5.27056 55.4831 5.94753C55.4831 6.62411 55.4731 8.07076 56.3171 8.07076C57.1507 8.07076 57.1907 6.90399 57.1907 6.19236C57.1907 5.72575 57.1709 5.16585 57.0302 4.72245C56.9094 4.33726 56.6686 4.18557 56.3268 4.18557ZM56.3171 3.05423C57.9136 3.05423 58.7774 4.43083 58.7774 6.18032C58.7774 7.87249 57.823 9.21436 56.3171 9.21436C54.7503 9.21436 53.8965 7.83737 53.8965 6.12227C53.8965 4.39553 54.7599 3.05423 56.3171 3.05423Z" fill="#100F0D"/>
    <path fill-rule="evenodd" clip-rule="evenodd" d="M60.8486 9.09766H59.7766C59.6687 9.09094 59.5836 9.00426 59.5836 8.89841L59.582 3.35123C59.5909 3.2502 59.6803 3.17051 59.7882 3.17051L60.7865 3.16996C60.8806 3.17519 60.9578 3.23942 60.9775 3.32532V4.17374H60.9979C61.2987 3.41525 61.7208 3.05401 62.4636 3.05401C62.9457 3.05401 63.418 3.22853 63.7191 3.70703C64.0001 4.15022 64.0001 4.89673 64.0001 5.43352V8.92282C63.9881 9.02115 63.9008 9.09766 63.7946 9.09766H62.7156C62.616 9.09115 62.536 9.01732 62.524 8.92282V5.91209C62.524 5.30543 62.5945 4.4185 61.851 4.4185C61.5901 4.4185 61.3494 4.59392 61.2287 4.86194C61.0779 5.20017 61.0579 5.53849 61.0579 5.91209V8.8979C61.0561 9.00852 60.9631 9.09766 60.8486 9.09766Z" fill="#100F0D"/>
    <path fill-rule="evenodd" clip-rule="evenodd" d="M47.5981 9.08383C47.5268 9.14775 47.4247 9.152 47.3442 9.10897C46.987 8.81075 46.9228 8.67249 46.7275 8.38887C46.137 8.9929 45.7188 9.17407 44.9541 9.17407C44.048 9.17407 43.3438 8.61273 43.3438 7.49024C43.3438 6.61352 43.8166 6.01713 44.4908 5.72462C45.0746 5.46732 45.8899 5.42046 46.5137 5.35008V5.20995C46.5137 4.95285 46.5338 4.6487 46.3826 4.42665C46.2522 4.22787 46.0006 4.14621 45.7789 4.14621C45.3685 4.14621 45.0039 4.35746 44.9141 4.79508C44.8959 4.89226 44.8248 4.98879 44.7273 4.99348L43.6848 4.88005C43.5966 4.86015 43.4989 4.78946 43.5244 4.65452C43.764 3.38399 44.9063 3.00011 45.9301 3.00011C46.4531 3.00011 47.1378 3.14033 47.5504 3.53783C48.0736 4.02914 48.0231 4.68386 48.0231 5.3972V7.08022C48.0231 7.58648 48.2327 7.80869 48.4297 8.08155C48.4979 8.17996 48.5133 8.29658 48.4257 8.36875C48.206 8.55363 47.8156 8.89385 47.6011 9.08621L47.5981 9.08383ZM46.5137 6.44952C46.5137 6.87056 46.5237 7.22167 46.3123 7.59554C46.1412 7.89983 45.8693 8.08675 45.5673 8.08675C45.1551 8.08675 44.9137 7.77114 44.9137 7.3032C44.9137 6.38331 45.7357 6.21583 46.5137 6.21583V6.44952Z" fill="#100F0D"/>
    <path fill-rule="evenodd" clip-rule="evenodd" d="M33.4954 9.08383C33.4243 9.14775 33.3214 9.152 33.2409 9.10897C32.8837 8.81075 32.8197 8.67249 32.6242 8.38887C32.034 8.9929 31.6156 9.17407 30.8505 9.17407C29.9447 9.17407 29.2402 8.61273 29.2402 7.49024C29.2402 6.61352 29.7135 6.01713 30.3877 5.72462C30.9716 5.46732 31.7868 5.42046 32.4106 5.35008V5.20995C32.4106 4.95285 32.4309 4.6487 32.2798 4.42665C32.149 4.22787 31.8972 4.14621 31.6761 4.14621C31.2657 4.14621 30.9007 4.35746 30.8112 4.79508C30.7926 4.89226 30.7218 4.98879 30.6244 4.99348L29.5815 4.88005C29.4935 4.86015 29.3957 4.78946 29.421 4.65452C29.6606 3.38399 30.803 3.00011 31.8267 3.00011C32.3504 3.00011 33.0345 3.14033 33.4472 3.53783C33.9706 4.02914 33.9201 4.68386 33.9201 5.3972V7.08022C33.9201 7.58648 34.1297 7.80869 34.3262 8.08155C34.3947 8.17996 34.4102 8.29658 34.3228 8.36875C34.103 8.55363 33.7123 8.89385 33.4979 9.08621L33.4954 9.08383ZM32.4106 6.44952C32.4106 6.87056 32.4205 7.22167 32.2095 7.59554C32.0385 7.89983 31.7664 8.08675 31.4649 8.08675C31.0518 8.08675 30.8105 7.77114 30.8105 7.3032C30.8105 6.38331 31.6323 6.21583 32.4106 6.21583V6.44952Z" fill="#100F0D"/>
    <path d="M29.8381 19.6113C29.8517 19.8555 29.9093 20.0537 30.0109 20.2061C30.2043 20.4912 30.5451 20.6338 31.0334 20.6338C31.2521 20.6338 31.4513 20.6025 31.631 20.54C31.9787 20.4189 32.1525 20.2021 32.1525 19.8896C32.1525 19.6553 32.0793 19.4883 31.9328 19.3887C31.7843 19.291 31.5519 19.2061 31.2355 19.1338L30.6525 19.002C30.2717 18.916 30.0021 18.8213 29.8439 18.7178C29.5705 18.5381 29.4338 18.2695 29.4338 17.9121C29.4338 17.5254 29.5675 17.208 29.8351 16.96C30.1027 16.7119 30.4816 16.5879 30.9718 16.5879C31.423 16.5879 31.8058 16.6973 32.1203 16.916C32.4367 17.1328 32.5949 17.4805 32.5949 17.959H32.047C32.0177 17.7285 31.9552 17.5518 31.8595 17.4287C31.6818 17.2041 31.38 17.0918 30.9543 17.0918C30.6105 17.0918 30.3634 17.1641 30.2131 17.3086C30.0627 17.4531 29.9875 17.6211 29.9875 17.8125C29.9875 18.0234 30.0754 18.1777 30.2511 18.2754C30.3664 18.3379 30.6271 18.416 31.0334 18.5098L31.6369 18.6475C31.9279 18.7139 32.1525 18.8047 32.3107 18.9199C32.5842 19.1211 32.7209 19.4131 32.7209 19.7959C32.7209 20.2725 32.547 20.6133 32.1994 20.8184C31.8537 21.0234 31.4513 21.126 30.9924 21.126C30.4572 21.126 30.0383 20.9893 29.7355 20.7158C29.4328 20.4443 29.2843 20.0762 29.2902 19.6113H29.8381Z" fill="#7B7B7B"/>
    <path d="M34.6955 17.792C34.9181 17.792 35.134 17.8447 35.3429 17.9502C35.5519 18.0537 35.7111 18.1885 35.8205 18.3545C35.9259 18.5127 35.9963 18.6973 36.0314 18.9082C36.0627 19.0527 36.0783 19.2832 36.0783 19.5996H33.7785C33.7883 19.918 33.8634 20.1738 34.0041 20.3672C34.1447 20.5586 34.3625 20.6543 34.6574 20.6543C34.9328 20.6543 35.1525 20.5635 35.3166 20.3818C35.4103 20.2764 35.4767 20.1543 35.5158 20.0156H36.0343C36.0207 20.1309 35.9748 20.2598 35.8967 20.4023C35.8205 20.543 35.7345 20.6582 35.6388 20.748C35.4787 20.9043 35.2804 21.0098 35.0441 21.0645C34.9172 21.0957 34.7736 21.1113 34.6134 21.1113C34.2228 21.1113 33.8918 20.9697 33.6203 20.6865C33.3488 20.4014 33.2131 20.0029 33.2131 19.4912C33.2131 18.9873 33.3498 18.5781 33.6232 18.2637C33.8967 17.9492 34.2541 17.792 34.6955 17.792ZM35.5363 19.1807C35.5148 18.9521 35.465 18.7695 35.3869 18.6328C35.2424 18.3789 35.0011 18.252 34.6633 18.252C34.4211 18.252 34.2179 18.3398 34.0539 18.5156C33.8898 18.6895 33.8029 18.9111 33.7931 19.1807H35.5363Z" fill="#7B7B7B"/>
    <path d="M37.9386 17.7715C38.2922 17.7715 38.5793 17.8574 38.8 18.0293C39.0226 18.2012 39.1564 18.4971 39.2013 18.917H38.6886C38.6574 18.7236 38.5861 18.5635 38.4748 18.4365C38.3634 18.3076 38.1847 18.2432 37.9386 18.2432C37.6027 18.2432 37.3625 18.4072 37.2179 18.7354C37.1242 18.9482 37.0773 19.2109 37.0773 19.5234C37.0773 19.8379 37.1437 20.1025 37.2765 20.3174C37.4093 20.5322 37.6183 20.6396 37.9035 20.6396C38.1222 20.6396 38.2951 20.5732 38.422 20.4404C38.5509 20.3057 38.6398 20.1221 38.6886 19.8896H39.2013C39.1427 20.3057 38.9963 20.6104 38.7619 20.8037C38.5275 20.9951 38.2277 21.0908 37.8625 21.0908C37.4523 21.0908 37.1252 20.9414 36.881 20.6426C36.6369 20.3418 36.5148 19.9668 36.5148 19.5176C36.5148 18.9668 36.6486 18.5381 36.9162 18.2314C37.1838 17.9248 37.5246 17.7715 37.9386 17.7715Z" fill="#7B7B7B"/>
    <path d="M40.256 17.8623V19.9453C40.256 20.1055 40.2814 20.2363 40.3322 20.3379C40.4259 20.5254 40.6008 20.6191 40.8566 20.6191C41.2238 20.6191 41.4738 20.4551 41.6066 20.127C41.6789 19.9512 41.715 19.71 41.715 19.4033V17.8623H42.2424V21H41.7443L41.7502 20.5371C41.6818 20.6562 41.5968 20.7568 41.4953 20.8389C41.2941 21.0029 41.05 21.085 40.7629 21.085C40.3156 21.085 40.0109 20.9355 39.8488 20.6367C39.7609 20.4766 39.717 20.2627 39.717 19.9951V17.8623H40.256Z" fill="#7B7B7B"/>
    <path d="M43.0832 17.8623H43.5842V18.4043C43.6252 18.2988 43.7258 18.1709 43.8859 18.0205C44.0461 17.8682 44.2306 17.792 44.4396 17.792C44.4494 17.792 44.466 17.793 44.4894 17.7949C44.5129 17.7969 44.5529 17.8008 44.6095 17.8066V18.3633C44.5783 18.3574 44.549 18.3535 44.5217 18.3516C44.4963 18.3496 44.4679 18.3486 44.4367 18.3486C44.1711 18.3486 43.967 18.4346 43.8244 18.6064C43.6818 18.7764 43.6105 18.9727 43.6105 19.1953V21H43.0832V17.8623Z" fill="#7B7B7B"/>
    <path d="M45.0666 17.877H45.6027V21H45.0666V17.877ZM45.0666 16.6963H45.6027V17.2939H45.0666V16.6963Z" fill="#7B7B7B"/>
    <path d="M46.508 16.9863H47.0412V17.8623H47.5422V18.293H47.0412V20.3408C47.0412 20.4502 47.0783 20.5234 47.1525 20.5605C47.1935 20.582 47.2619 20.5928 47.3576 20.5928C47.383 20.5928 47.4103 20.5928 47.4396 20.5928C47.4689 20.5908 47.5031 20.5879 47.5422 20.584V21C47.4816 21.0176 47.4181 21.0303 47.3517 21.0381C47.2873 21.0459 47.217 21.0498 47.1408 21.0498C46.8947 21.0498 46.7277 20.9873 46.6398 20.8623C46.5519 20.7354 46.508 20.5713 46.508 20.3701V18.293H46.0832V17.8623H46.508V16.9863Z" fill="#7B7B7B"/>
    <path d="M50.0324 17.8623H50.6154C50.5412 18.0635 50.3761 18.5225 50.1203 19.2393C49.9289 19.7783 49.7687 20.2178 49.6398 20.5576C49.3351 21.3584 49.1203 21.8467 48.9953 22.0225C48.8703 22.1982 48.6554 22.2861 48.3508 22.2861C48.2765 22.2861 48.2189 22.2832 48.1779 22.2773C48.1388 22.2715 48.09 22.2607 48.0314 22.2451V21.7646C48.1232 21.79 48.1896 21.8057 48.2306 21.8115C48.2717 21.8174 48.3078 21.8203 48.339 21.8203C48.4367 21.8203 48.508 21.8037 48.5529 21.7705C48.5998 21.7393 48.6388 21.7002 48.6701 21.6533C48.6799 21.6377 48.715 21.5576 48.7756 21.4131C48.8361 21.2686 48.88 21.1611 48.9074 21.0908L47.7472 17.8623H48.3449L49.1857 20.417L50.0324 17.8623Z" fill="#7B7B7B"/>
    <path d="M52.8273 16.6963H53.4162V18.4746H55.6545V16.6963H56.2433V21H55.6545V18.9873H53.4162V21H52.8273V16.6963Z" fill="#7B7B7B"/>
    <path d="M57.6056 17.8623V19.9453C57.6056 20.1055 57.631 20.2363 57.6818 20.3379C57.7756 20.5254 57.9504 20.6191 58.2062 20.6191C58.5734 20.6191 58.8234 20.4551 58.9562 20.127C59.0285 19.9512 59.0646 19.71 59.0646 19.4033V17.8623H59.592V21H59.0939L59.0998 20.5371C59.0314 20.6562 58.9465 20.7568 58.8449 20.8389C58.6437 21.0029 58.3996 21.085 58.1125 21.085C57.6652 21.085 57.3605 20.9355 57.1984 20.6367C57.1105 20.4766 57.0666 20.2627 57.0666 19.9951V17.8623H57.6056Z" fill="#7B7B7B"/>
    <path d="M60.3771 16.6816H60.8898V18.2432C61.005 18.0928 61.1427 17.9785 61.3029 17.9004C61.4631 17.8203 61.6369 17.7803 61.8244 17.7803C62.215 17.7803 62.5314 17.915 62.7736 18.1846C63.0177 18.4521 63.1398 18.8477 63.1398 19.3711C63.1398 19.8672 63.0197 20.2793 62.7795 20.6074C62.5392 20.9355 62.2062 21.0996 61.7804 21.0996C61.5422 21.0996 61.341 21.042 61.1769 20.9268C61.0793 20.8584 60.9748 20.749 60.8634 20.5986V21H60.3771V16.6816ZM61.7482 20.6338C62.0334 20.6338 62.2463 20.5205 62.3869 20.2939C62.5295 20.0674 62.6008 19.7686 62.6008 19.3975C62.6008 19.0674 62.5295 18.7939 62.3869 18.5771C62.2463 18.3604 62.0383 18.252 61.7629 18.252C61.5226 18.252 61.3117 18.3408 61.13 18.5186C60.9504 18.6963 60.8605 18.9893 60.8605 19.3975C60.8605 19.6924 60.8976 19.9316 60.9718 20.1152C61.1105 20.4609 61.3693 20.6338 61.7482 20.6338Z" fill="#7B7B7B"/>
</svg>
