<?xml version="1.0" encoding="utf-8"?>

<!DOCTYPE svg PUBLIC "-//W3C//DTD SVG 1.1//EN" "http://www.w3.org/Graphics/SVG/1.1/DTD/svg11.dtd">
<svg version="1.1" id="Layer_1" xmlns="http://www.w3.org/2000/svg" xmlns:xlink="http://www.w3.org/1999/xlink" x="0px" y="0px"
	 viewBox="0 0 1638.263 1638.263" enable-background="new 0 0 1638.263 1638.263" xml:space="preserve">
<g>
	<path d="M819.132,195.592c18.782-5.93,35.806-13.774,50.528-23.707c81.357-55.529,13.642-130.811-32.268-109.644
		c-19.597,8.893-15.353,36.782,3.86,40.785c8.067,2.046,16.77-5.004,16.978-13.175c0.231-2.508-1.907-4.103-3.271-5.848
		c29.37-2.727,34.176,37.392,16.319,65.195c-11.131,17.543-29.576,29.413-52.147,37.057c-22.571-7.644-41.016-19.514-52.147-37.057
		c-17.857-27.803-13.051-67.922,16.319-65.195c-1.364,1.745-3.502,3.34-3.271,5.848c0.208,8.171,8.911,15.221,16.978,13.175
		c19.213-4.004,23.458-31.893,3.86-40.785c-45.91-21.168-113.624,54.115-32.268,109.644
		C783.326,181.817,800.349,189.661,819.132,195.592z"/>
	<path d="M1442.672,819.132c5.93,18.782,13.774,35.806,23.707,50.528c55.529,81.357,130.811,13.642,109.644-32.268
		c-8.893-19.597-36.781-15.353-40.785,3.86c-2.046,8.067,5.004,16.77,13.175,16.978c2.508,0.231,4.103-1.907,5.848-3.271
		c2.727,29.37-37.392,34.176-65.195,16.319c-17.543-11.131-29.413-29.576-37.057-52.147c7.644-22.571,19.514-41.016,37.057-52.147
		c27.803-17.857,67.922-13.051,65.195,16.319c-1.745-1.364-3.34-3.502-5.848-3.271c-8.171,0.208-15.221,8.911-13.175,16.978
		c4.004,19.213,31.893,23.458,40.785,3.86c21.168-45.91-54.115-113.624-109.644-32.268
		C1456.446,783.326,1448.602,800.349,1442.672,819.132z"/>
	<path d="M819.132,1442.672c-18.782,5.93-35.806,13.774-50.528,23.707c-81.357,55.529-13.642,130.811,32.268,109.644
		c19.597-8.893,15.353-36.781-3.86-40.785c-8.067-2.046-16.77,5.004-16.978,13.175c-0.231,2.508,1.907,4.103,3.271,5.848
		c-29.37,2.727-34.176-37.392-16.319-65.195c11.131-17.543,29.576-29.413,52.147-37.057c22.571,7.644,41.016,19.514,52.147,37.057
		c17.857,27.803,13.051,67.922-16.319,65.195c1.364-1.745,3.502-3.34,3.271-5.848c-0.208-8.171-8.911-15.221-16.978-13.175
		c-19.213,4.004-23.457,31.893-3.86,40.785c45.91,21.168,113.624-54.115,32.268-109.644
		C854.938,1456.446,837.914,1448.602,819.132,1442.672z"/>
	<path d="M195.592,819.132c-5.93-18.782-13.774-35.806-23.707-50.528c-55.529-81.357-130.811-13.642-109.644,32.268
		c8.893,19.597,36.782,15.353,40.785-3.86c2.046-8.067-5.004-16.77-13.175-16.978c-2.508-0.231-4.103,1.907-5.848,3.271
		c-2.727-29.37,37.392-34.176,65.195-16.319c17.543,11.131,29.413,29.576,37.057,52.147c-7.644,22.571-19.514,41.016-37.057,52.147
		c-27.803,17.857-67.922,13.051-65.195-16.319c1.745,1.364,3.34,3.502,5.848,3.271c8.171-0.208,15.221-8.911,13.175-16.978
		c-4.004-19.213-31.893-23.457-40.785-3.86c-21.168,45.91,54.115,113.624,109.644,32.268
		C181.817,854.938,189.661,837.914,195.592,819.132z"/>
	<path d="M1506.172,819.132c-4.017,6.505-5.863,14.26-4.477,22.872c2.563,14.034,11.528,23.405,25.495,19.647
		c-2.659-4.034-5.617-8.067-6.576-12.898c-2.917-12.077,3.27-23.103,12.769-29.622c-9.499-6.519-15.687-17.545-12.769-29.622
		c0.959-4.831,3.918-8.864,6.576-12.898c-13.967-3.757-22.932,5.613-25.495,19.647
		C1500.31,804.872,1502.156,812.627,1506.172,819.132z"/>
	<path d="M819.132,1506.172c-6.505-4.017-14.26-5.863-22.872-4.477c-14.034,2.563-23.405,11.528-19.647,25.495
		c4.034-2.659,8.067-5.617,12.898-6.576c12.077-2.917,23.102,3.27,29.622,12.769c6.519-9.499,17.545-15.687,29.622-12.769
		c4.831,0.959,8.864,3.918,12.898,6.576c3.757-13.967-5.613-22.932-19.647-25.495
		C833.392,1500.31,825.637,1502.156,819.132,1506.172z"/>
	<path d="M132.091,819.132c4.017-6.505,5.863-14.26,4.477-22.872c-2.563-14.034-11.528-23.405-25.495-19.647
		c2.659,4.034,5.617,8.067,6.576,12.898c2.917,12.077-3.27,23.102-12.769,29.622c9.499,6.519,15.687,17.545,12.769,29.622
		c-0.959,4.831-3.918,8.864-6.576,12.898c13.967,3.757,22.932-5.613,25.495-19.647C137.954,833.392,136.108,825.637,132.091,819.132
		z"/>
	<path d="M819.132,132.091c6.505,4.017,14.26,5.863,22.872,4.477c14.034-2.563,23.405-11.528,19.647-25.495
		c-4.034,2.659-8.067,5.617-12.898,6.576c-12.077,2.917-23.103-3.27-29.622-12.769c-6.519,9.499-17.545,15.687-29.622,12.769
		c-4.831-0.959-8.864-3.918-12.898-6.576c-3.757,13.967,5.613,22.932,19.647,25.495
		C804.872,137.954,812.627,136.108,819.132,132.091z"/>
	<path d="M1569.738,819.132c5.546,4.593,10.032,11.97,12.349,22.791c6.704,29.968-10.72,65.08-51.222,68.8
		c18.942,1.78,38.694-5.778,51.106-20.283c4.785-5.258,7.663-12.17,13.441-16.515c10.04-6.822,16.919-1.6,15.544,6.333
		c-1.769-1.468-3.328-3.975-5.975-3.432c-3.444-0.15-5.016,3.756-4.588,6.692c-0.081,5.524,6.669,9.026,11.476,6.934
		c15.178-6.296,5.36-38.088-18.284-21.797c3.317-13.152,2.994-27.414-1.988-40.104c-1.376-3.462-2.999-6.596-4.829-9.419
		c1.83-2.823,3.453-5.957,4.829-9.419c4.981-12.69,5.305-26.952,1.988-40.104c23.644,16.291,33.462-15.501,18.284-21.797
		c-4.808-2.092-11.557,1.41-11.476,6.934c-0.428,2.935,1.144,6.842,4.588,6.692c2.647,0.543,4.207-1.965,5.975-3.432
		c1.375,7.933-5.505,13.155-15.544,6.333c-5.778-4.346-8.656-11.257-13.441-16.515c-12.412-14.505-32.164-22.063-51.106-20.283
		c40.502,3.721,57.926,38.832,51.222,68.8C1579.77,807.162,1575.285,814.539,1569.738,819.132z"/>
	<path d="M819.132,1569.738c-4.593,5.546-11.97,10.032-22.791,12.349c-29.968,6.704-65.08-10.72-68.8-51.222
		c-1.78,18.942,5.778,38.694,20.283,51.106c5.258,4.785,12.17,7.663,16.515,13.441c6.822,10.04,1.6,16.919-6.333,15.544
		c1.468-1.769,3.975-3.328,3.432-5.975c0.15-3.444-3.756-5.016-6.692-4.588c-5.524-0.081-9.026,6.669-6.934,11.476
		c6.296,15.178,38.088,5.36,21.797-18.284c13.152,3.317,27.414,2.994,40.104-1.988c3.462-1.376,6.596-2.999,9.419-4.829
		c2.823,1.83,5.957,3.453,9.419,4.829c12.69,4.981,26.952,5.305,40.104,1.988c-16.291,23.644,15.501,33.462,21.797,18.284
		c2.092-4.808-1.41-11.557-6.934-11.476c-2.935-0.428-6.842,1.144-6.692,4.588c-0.543,2.647,1.965,4.207,3.432,5.975
		c-7.933,1.375-13.155-5.505-6.333-15.544c4.345-5.778,11.257-8.656,16.515-13.441c14.505-12.412,22.063-32.164,20.283-51.106
		c-3.721,40.502-38.832,57.926-68.8,51.222C831.102,1579.77,823.725,1575.285,819.132,1569.738z"/>
	<path d="M68.525,819.132c-5.546-4.593-10.032-11.97-12.349-22.791c-6.704-29.968,10.72-65.08,51.222-68.8
		c-18.942-1.78-38.694,5.778-51.106,20.283c-4.785,5.258-7.663,12.17-13.441,16.515c-10.04,6.822-16.919,1.6-15.545-6.333
		c1.769,1.468,3.328,3.975,5.975,3.432c3.444,0.15,5.016-3.756,4.588-6.692c0.081-5.524-6.669-9.026-11.476-6.934
		c-15.178,6.296-5.36,38.088,18.284,21.797c-3.317,13.152-2.994,27.414,1.988,40.104c1.376,3.462,2.999,6.596,4.829,9.419
		c-1.83,2.823-3.453,5.957-4.829,9.419c-4.981,12.69-5.305,26.952-1.988,40.104c-23.644-16.291-33.461,15.501-18.284,21.797
		c4.808,2.092,11.558-1.41,11.476-6.934c0.428-2.935-1.144-6.842-4.588-6.692c-2.647-0.543-4.207,1.965-5.975,3.432
		c-1.375-7.933,5.505-13.155,15.545-6.333c5.778,4.345,8.656,11.257,13.441,16.515c12.412,14.505,32.164,22.063,51.106,20.283
		c-40.502-3.721-57.926-38.832-51.222-68.8C58.494,831.102,62.979,823.725,68.525,819.132z"/>
	<path d="M819.132,68.525c4.593-5.546,11.97-10.032,22.791-12.349c29.968-6.704,65.08,10.72,68.8,51.222
		c1.78-18.942-5.778-38.694-20.283-51.106c-5.258-4.785-12.17-7.663-16.515-13.441c-6.822-10.04-1.6-16.919,6.333-15.545
		c-1.468,1.769-3.975,3.328-3.432,5.975c-0.15,3.444,3.756,5.016,6.692,4.588c5.524,0.081,9.026-6.669,6.934-11.476
		c-6.296-15.178-38.088-5.36-21.797,18.284c-13.152-3.317-27.414-2.994-40.104,1.988c-3.462,1.376-6.596,2.999-9.419,4.829
		c-2.823-1.83-5.957-3.453-9.419-4.829c-12.69-4.981-26.952-5.305-40.104-1.988c16.291-23.644-15.501-33.461-21.797-18.284
		c-2.092,4.808,1.41,11.558,6.934,11.476c2.935,0.428,6.842-1.144,6.692-4.588c0.543-2.647-1.965-4.207-3.432-5.975
		c7.933-1.375,13.155,5.505,6.333,15.545c-4.346,5.778-11.257,8.656-16.515,13.441c-14.505,12.412-22.063,32.164-20.283,51.106
		c3.721-40.502,38.832-57.926,68.8-51.222C807.162,58.494,814.539,62.979,819.132,68.525z"/>
	<path d="M1058.376,819.132c-11.912,43.117-35.896,94.672-76.317,103.772c-11.384,3.039-23.115,0.67-34.499-0.971
		c6.657,16.515,16.11,32.187,29.378,44.229c29.362,26.831,86.232,48.621,126.205,56.03
		c68.421-108.064,223.435-102.878,287.336-0.023c49.769-9.043,139.35-42.231,155.757-100.271
		c-18.998,3.097-51.447,9.61-81.467-34.452c-13.132-19.084-22.606-42.672-29.283-68.315c6.678-25.643,16.151-49.231,29.283-68.315
		c30.02-44.062,62.469-37.549,81.467-34.452c-16.407-58.04-105.987-91.228-155.757-100.271
		c-63.902,102.855-218.915,108.041-287.336-0.023c-39.973,7.409-96.843,29.198-126.205,56.03
		c-13.268,12.043-22.721,27.714-29.378,44.229c11.384-1.641,23.114-4.01,34.499-0.971
		C1022.479,724.46,1046.464,776.015,1058.376,819.132z M819.132,1058.376c-43.117-11.912-94.672-35.896-103.772-76.317
		c-3.039-11.384-0.67-23.115,0.971-34.499c-16.515,6.657-32.187,16.11-44.229,29.378c-26.831,29.362-48.621,86.232-56.03,126.205
		c108.064,68.421,102.878,223.435,0.023,287.336c9.043,49.769,42.231,139.35,100.271,155.757
		c-3.097-18.998-9.61-51.447,34.452-81.467c19.084-13.132,42.672-22.606,68.315-29.283c25.643,6.678,49.231,16.151,68.315,29.283
		c44.062,30.02,37.549,62.469,34.452,81.467c58.04-16.407,91.228-105.987,100.271-155.757
		c-102.855-63.902-108.041-218.915,0.023-287.336c-7.409-39.973-29.198-96.843-56.03-126.205
		c-12.043-13.268-27.714-22.721-44.229-29.378c1.641,11.384,4.01,23.114,0.971,34.499
		C913.803,1022.479,862.249,1046.464,819.132,1058.376z M579.888,819.132c11.912-43.117,35.896-94.672,76.317-103.772
		c11.384-3.039,23.115-0.67,34.499,0.971c-6.657-16.515-16.11-32.187-29.378-44.229c-29.362-26.831-86.232-48.621-126.205-56.03
		c-68.421,108.064-223.435,102.878-287.336,0.023c-49.769,9.043-139.35,42.231-155.757,100.271
		c18.998-3.097,51.447-9.61,81.467,34.452c13.132,19.084,22.606,42.672,29.283,68.315c-6.678,25.643-16.151,49.231-29.283,68.315
		c-30.02,44.062-62.469,37.549-81.467,34.452c16.407,58.04,105.987,91.228,155.757,100.271
		c63.902-102.855,218.915-108.041,287.336,0.023c39.973-7.409,96.843-29.198,126.205-56.03
		c13.268-12.043,22.721-27.714,29.378-44.229c-11.384,1.641-23.114,4.01-34.499,0.971
		C615.784,913.803,591.799,862.249,579.888,819.132z M819.132,579.888c43.117,11.912,94.672,35.896,103.772,76.317
		c3.039,11.384,0.67,23.115-0.971,34.499c16.515-6.657,32.187-16.11,44.229-29.378c26.831-29.362,48.621-86.232,56.03-126.205
		c-108.064-68.421-102.878-223.435-0.023-287.336c-9.043-49.769-42.231-139.35-100.271-155.757
		c3.097,18.998,9.61,51.447-34.452,81.467c-19.084,13.132-42.672,22.606-68.315,29.283c-25.643-6.678-49.231-16.151-68.315-29.283
		c-44.062-30.02-37.549-62.469-34.452-81.467c-58.04,16.407-91.228,105.987-100.271,155.757
		c102.855,63.902,108.041,218.915-0.023,287.336c7.409,39.973,29.198,96.843,56.03,126.205
		c12.043,13.268,27.714,22.721,44.229,29.378c-1.641-11.384-4.01-23.114-0.971-34.499
		C724.46,615.784,776.015,591.799,819.132,579.888z M1041.203,819.132c-31.398,84.402-106.448,71.683-101.559,35.746
		c1.687,1.364,3.167,3.468,5.582,3.352c8.425-0.151,15.452-9.2,13.164-17.417c-4.303-20.427-39.204-25.106-43.779,6.957
		c-8.394,56.442,92.967,111.996,135.848-28.638c-42.88-140.634-144.242-85.08-135.848-28.638
		c4.574,32.062,39.476,27.384,43.779,6.957c2.289-8.217-4.738-17.267-13.164-17.417c-2.415-0.116-3.895,1.988-5.582,3.352
		C934.755,747.449,1009.805,734.729,1041.203,819.132z M819.132,1041.203c-84.402-31.398-71.683-106.448-35.746-101.559
		c-1.364,1.687-3.468,3.167-3.352,5.582c0.15,8.425,9.2,15.452,17.417,13.164c20.427-4.303,25.106-39.204-6.957-43.779
		c-56.442-8.394-111.996,92.967,28.638,135.848c140.634-42.88,85.08-144.242,28.638-135.848
		c-32.062,4.574-27.384,39.476-6.957,43.779c8.217,2.289,17.267-4.738,17.417-13.164c0.116-2.415-1.988-3.895-3.352-5.582
		C890.815,934.755,903.534,1009.805,819.132,1041.203z M597.061,819.132c31.398-84.402,106.448-71.683,101.559-35.746
		c-1.687-1.364-3.167-3.468-5.582-3.352c-8.425,0.15-15.452,9.2-13.164,17.417c4.303,20.427,39.204,25.106,43.779-6.957
		c8.394-56.442-92.967-111.996-135.848,28.638c42.88,140.634,144.242,85.08,135.848,28.638
		c-4.574-32.062-39.476-27.384-43.779-6.957c-2.289,8.217,4.739,17.267,13.164,17.417c2.415,0.116,3.895-1.988,5.582-3.352
		C703.508,890.815,628.459,903.534,597.061,819.132z M819.132,597.061c84.402,31.398,71.683,106.448,35.746,101.559
		c1.364-1.687,3.468-3.167,3.352-5.582c-0.151-8.425-9.2-15.452-17.417-13.164c-20.427,4.303-25.106,39.204,6.957,43.779
		c56.442,8.394,111.996-92.967-28.638-135.848c-140.634,42.88-85.08,144.242-28.638,135.848
		c32.062-4.574,27.384-39.476,6.957-43.779c-8.217-2.289-17.267,4.739-17.417,13.164c-0.116,2.415,1.988,3.895,3.352,5.582
		C747.449,703.508,734.729,628.459,819.132,597.061z M819.132,227.168c36.42-8.633,70.625-22.467,97.324-44.37
		c13.845-11.881,25.749-26.836,31.112-44.484c15.764,20.914,34.43,57.725,44.934,99.647
		c-104.798,82.027-96.799,224.35-10.17,298.512c3.306,2.947,6.877,5.582,10.205,8.518c-11.205,43.911-31.069,81.489-44.958,99.427
		c-14.713-48.239-73.584-75.324-128.448-88.735c-54.863,13.41-113.734,40.496-128.448,88.735
		c-13.889-17.938-33.753-55.516-44.958-99.427c3.328-2.935,6.899-5.57,10.205-8.518c86.629-74.161,94.628-216.485-10.17-298.512
		c10.505-41.921,29.171-78.733,44.934-99.647c5.363,17.648,17.267,32.603,31.112,44.484
		C748.507,204.701,782.712,218.535,819.132,227.168z M1411.095,819.132c8.633,36.42,22.467,70.625,44.37,97.324
		c11.881,13.845,26.836,25.749,44.484,31.112c-20.914,15.764-57.725,34.43-99.647,44.934
		c-82.026-104.798-224.35-96.799-298.512-10.17c-2.947,3.306-5.582,6.877-8.518,10.205c-43.911-11.205-81.489-31.069-99.427-44.958
		c48.239-14.713,75.325-73.584,88.735-128.448c-13.41-54.863-40.496-113.734-88.735-128.448
		c17.938-13.889,55.516-33.753,99.427-44.958c2.935,3.328,5.57,6.899,8.518,10.205c74.161,86.629,216.485,94.628,298.512-10.17
		c41.922,10.505,78.733,29.171,99.647,44.934c-17.648,5.363-32.603,17.267-44.484,31.112
		C1433.562,748.507,1419.728,782.712,1411.095,819.132z M819.132,1411.095c-36.42,8.633-70.625,22.467-97.324,44.37
		c-13.845,11.881-25.749,26.836-31.112,44.484c-15.764-20.914-34.43-57.725-44.934-99.647
		c104.798-82.026,96.799-224.35,10.17-298.512c-3.306-2.947-6.877-5.582-10.205-8.518c11.205-43.911,31.069-81.489,44.958-99.427
		c14.713,48.239,73.584,75.325,128.448,88.735c54.863-13.41,113.734-40.496,128.448-88.735
		c13.889,17.938,33.753,55.516,44.958,99.427c-3.328,2.935-6.899,5.57-10.205,8.518c-86.629,74.161-94.628,216.485,10.17,298.512
		c-10.505,41.922-29.171,78.733-44.934,99.647c-5.363-17.648-17.267-32.603-31.112-44.484
		C889.756,1433.562,855.552,1419.728,819.132,1411.095z M227.168,819.132c-8.633-36.42-22.467-70.625-44.37-97.324
		c-11.881-13.845-26.836-25.749-44.484-31.112c20.914-15.764,57.725-34.43,99.647-44.934
		c82.027,104.798,224.35,96.799,298.512,10.17c2.947-3.306,5.582-6.877,8.518-10.205c43.911,11.205,81.489,31.069,99.427,44.958
		c-48.239,14.713-75.324,73.584-88.735,128.448c13.41,54.863,40.496,113.734,88.735,128.448
		c-17.938,13.889-55.516,33.753-99.427,44.958c-2.935-3.328-5.57-6.899-8.518-10.205c-74.161-86.629-216.485-94.628-298.512,10.17
		c-41.921-10.505-78.733-29.171-99.647-44.934c17.648-5.363,32.603-17.267,44.484-31.112
		C204.701,889.756,218.535,855.552,227.168,819.132z"/>
	<path d="M860.946,151.061c0.925-6.854-7.2-10.841-13.002-8.911c-4.588,1.156-7.883,6.45-5.755,10.968
		C845.644,160.897,859.605,159.833,860.946,151.061z"/>
	<path d="M151.061,777.318c-6.854-0.925-10.841,7.2-8.911,13.002c1.156,4.588,6.45,7.883,10.968,5.756
		C160.897,792.62,159.833,778.658,151.061,777.318z"/>
	<path d="M777.318,1487.202c-0.925,6.854,7.2,10.841,13.002,8.911c4.588-1.156,7.883-6.45,5.756-10.968
		C792.62,1477.367,778.658,1478.43,777.318,1487.202z"/>
	<path d="M1487.202,860.946c6.854,0.925,10.841-7.2,8.911-13.002c-1.156-4.588-6.45-7.883-10.968-5.755
		C1477.367,845.644,1478.43,859.605,1487.202,860.946z"/>
	<path d="M1487.202,777.318c6.854-0.925,10.841,7.2,8.911,13.002c-1.156,4.588-6.45,7.883-10.968,5.756
		C1477.367,792.62,1478.43,778.658,1487.202,777.318z"/>
	<path d="M777.318,151.061c-0.925-6.854,7.2-10.841,13.002-8.911c4.588,1.156,7.883,6.45,5.756,10.968
		C792.62,160.897,778.658,159.833,777.318,151.061z"/>
	<path d="M151.061,860.946c-6.854,0.925-10.841-7.2-8.911-13.002c1.156-4.588,6.45-7.883,10.968-5.755
		C160.897,845.644,159.833,859.605,151.061,860.946z"/>
	<path d="M860.946,1487.202c0.925,6.854-7.2,10.841-13.002,8.911c-4.588-1.156-7.883-6.45-5.755-10.968
		C845.644,1477.367,859.605,1478.43,860.946,1487.202z"/>
	<path d="M833.047,157.348c-3.571,1.202-5.952,5.629-4.148,9.13c2.959,6.657,14.758,5.825,16.099-1.618
		C845.887,158.677,838.155,154.725,833.047,157.348z"/>
	<path d="M157.348,805.217c1.202,3.571,5.629,5.952,9.13,4.148c6.657-2.959,5.825-14.758-1.618-16.099
		C158.677,792.377,154.725,800.108,157.348,805.217z"/>
	<path d="M805.217,1480.915c3.571-1.202,5.952-5.629,4.148-9.13c-2.959-6.657-14.758-5.825-16.099,1.618
		C792.377,1479.586,800.108,1483.538,805.217,1480.915z"/>
	<path d="M1480.915,833.047c-1.202-3.571-5.629-5.952-9.13-4.148c-6.657,2.959-5.825,14.758,1.618,16.099
		C1479.586,845.887,1483.538,838.155,1480.915,833.047z"/>
	<path d="M1480.915,805.217c-1.202,3.571-5.629,5.952-9.13,4.148c-6.657-2.959-5.825-14.758,1.618-16.099
		C1479.586,792.377,1483.538,800.108,1480.915,805.217z"/>
	<path d="M805.217,157.348c3.571,1.202,5.952,5.629,4.148,9.13c-2.959,6.657-14.758,5.825-16.099-1.618
		C792.377,158.677,800.108,154.725,805.217,157.348z"/>
	<path d="M157.348,833.047c1.202-3.571,5.629-5.952,9.13-4.148c6.657,2.959,5.825,14.758-1.618,16.099
		C158.677,845.887,154.725,838.155,157.348,833.047z"/>
	<path d="M833.047,1480.915c-3.571-1.202-5.952-5.629-4.148-9.13c2.959-6.657,14.758-5.825,16.099,1.618
		C845.887,1479.586,838.155,1483.538,833.047,1480.915z"/>
	<path d="M819.132,179.465c3.672,0.253,7.562-1.585,8.31-5.381c1.039-4.81-3.94-8.061-8.31-7.755
		c-4.37-0.305-9.349,2.945-8.31,7.755C811.57,177.88,815.46,179.717,819.132,179.465z"/>
	<path d="M1458.799,819.132c-0.253,3.672,1.585,7.562,5.381,8.31c4.811,1.039,8.061-3.94,7.755-8.31
		c0.305-4.37-2.945-9.349-7.755-8.31C1460.383,811.57,1458.546,815.46,1458.799,819.132z"/>
	<path d="M819.132,1458.799c-3.672-0.253-7.562,1.585-8.31,5.381c-1.039,4.811,3.94,8.061,8.31,7.755
		c4.37,0.305,9.349-2.945,8.31-7.755C826.694,1460.383,822.803,1458.546,819.132,1458.799z"/>
	<path d="M179.465,819.132c0.253-3.672-1.585-7.562-5.381-8.31c-4.81-1.039-8.061,3.94-7.755,8.31
		c-0.305,4.37,2.945,9.349,7.755,8.31C177.88,826.694,179.717,822.803,179.465,819.132z"/>
	<path d="M819.132,616.445c3.663,0.239,7.531-1.642,8.367-5.429c0.957-4.866-3.96-8.147-8.367-7.85
		c-4.407-0.297-9.325,2.984-8.367,7.85C811.601,614.803,815.468,616.684,819.132,616.445z"/>
	<path d="M1021.818,819.132c-0.239,3.663,1.642,7.531,5.429,8.367c4.866,0.957,8.147-3.96,7.85-8.367
		c0.297-4.407-2.984-9.325-7.85-8.367C1023.461,811.601,1021.579,815.468,1021.818,819.132z"/>
	<path d="M819.132,1021.818c-3.663-0.239-7.531,1.642-8.367,5.429c-0.957,4.866,3.96,8.147,8.367,7.85
		c4.407,0.297,9.325-2.984,8.367-7.85C826.663,1023.461,822.795,1021.579,819.132,1021.818z"/>
	<path d="M616.445,819.132c0.239-3.663-1.642-7.531-5.429-8.367c-4.866-0.957-8.147,3.96-7.85,8.367
		c-0.297,4.407,2.984,9.325,7.85,8.367C614.803,826.663,616.684,822.795,616.445,819.132z"/>
	<path d="M832.816,612.531c-3.491,1.375-5.744,5.767-3.837,9.246c3.028,6.483,14.493,5.709,15.961-1.595
		C846.083,613.917,837.982,609.63,832.816,612.531z"/>
	<path d="M612.531,805.448c1.375,3.491,5.767,5.744,9.246,3.837c6.483-3.028,5.709-14.493-1.595-15.961
		C613.917,792.18,609.63,800.282,612.531,805.448z"/>
	<path d="M805.448,1025.733c3.491-1.375,5.744-5.767,3.837-9.246c-3.028-6.483-14.493-5.709-15.961,1.595
		C792.18,1024.346,800.282,1028.634,805.448,1025.733z"/>
	<path d="M1025.733,832.816c-1.375-3.491-5.767-5.744-9.246-3.837c-6.483,3.028-5.709,14.493,1.595,15.961
		C1024.346,846.083,1028.634,837.982,1025.733,832.816z"/>
	<path d="M1025.733,805.448c-1.375,3.491-5.767,5.744-9.246,3.837c-6.483-3.028-5.709-14.493,1.595-15.961
		C1024.346,792.18,1028.634,800.282,1025.733,805.448z"/>
	<path d="M805.448,612.531c3.491,1.375,5.744,5.767,3.837,9.246c-3.028,6.483-14.493,5.709-15.961-1.595
		C792.18,613.917,800.282,609.63,805.448,612.531z"/>
	<path d="M612.531,832.816c1.375-3.491,5.767-5.744,9.246-3.837c6.483,3.028,5.709,14.493-1.595,15.961
		C613.917,846.083,609.63,837.982,612.531,832.816z"/>
	<path d="M832.816,1025.733c-3.491-1.375-5.744-5.767-3.837-9.246c3.028-6.483,14.493-5.709,15.961,1.595
		C846.083,1024.346,837.982,1028.634,832.816,1025.733z"/>
	<path d="M842.708,636.858c4.195,6.75,16.457,5.328,18.225-2.727c1.179-7.431-8.124-12.031-14.192-8.911
		C842.327,626.942,840.027,632.767,842.708,636.858z"/>
	<path d="M636.858,795.555c6.75-4.195,5.328-16.457-2.727-18.225c-7.431-1.179-12.031,8.124-8.911,14.192
		C626.942,795.936,632.767,798.236,636.858,795.555z"/>
	<path d="M795.555,1001.405c-4.195-6.75-16.457-5.328-18.225,2.727c-1.179,7.431,8.124,12.031,14.192,8.911
		C795.936,1011.321,798.236,1005.496,795.555,1001.405z"/>
	<path d="M1001.405,842.708c-6.75,4.195-5.328,16.457,2.727,18.225c7.431,1.179,12.031-8.124,8.911-14.192
		C1011.321,842.327,1005.496,840.027,1001.405,842.708z"/>
	<path d="M1001.405,795.555c-6.75-4.195-5.328-16.457,2.727-18.225c7.431-1.179,12.031,8.124,8.911,14.192
		C1011.321,795.936,1005.496,798.236,1001.405,795.555z"/>
	<path d="M795.555,636.858c-4.195,6.75-16.457,5.328-18.225-2.727c-1.179-7.431,8.124-12.031,14.192-8.911
		C795.936,626.942,798.236,632.767,795.555,636.858z"/>
	<path d="M636.858,842.708c6.75,4.195,5.328,16.457-2.727,18.225c-7.431,1.179-12.031-8.124-8.911-14.192
		C626.942,842.327,632.767,840.027,636.858,842.708z"/>
	<path d="M842.708,1001.405c4.195-6.75,16.457-5.328,18.225,2.727c1.179,7.431-8.124,12.031-14.192,8.911
		C842.327,1011.321,840.027,1005.496,842.708,1001.405z"/>
	<path d="M960.404,819.132c12.383,8.666,19.004,25.285,6.028,42.508c15.316,4.893,26.017-9.3,25.865-24.328
		c0.138-6.782-1.668-12.902-4.866-18.18c3.198-5.278,5.004-11.398,4.866-18.18c0.152-15.028-10.55-29.221-25.865-24.328
		C979.408,793.847,972.788,810.466,960.404,819.132z"/>
	<path d="M819.132,960.404c-8.666,12.383-25.285,19.004-42.508,6.028c-4.893,15.316,9.3,26.017,24.328,25.865
		c6.782,0.138,12.902-1.668,18.18-4.866c5.278,3.198,11.398,5.004,18.18,4.866c15.028,0.152,29.221-10.55,24.328-25.865
		C844.417,979.408,827.797,972.788,819.132,960.404z"/>
	<path d="M677.859,819.132c-12.383-8.666-19.004-25.285-6.028-42.508c-15.316-4.893-26.017,9.3-25.865,24.328
		c-0.138,6.782,1.668,12.902,4.866,18.18c-3.198,5.278-5.004,11.398-4.866,18.18c-0.152,15.028,10.55,29.221,25.865,24.328
		C658.855,844.417,665.476,827.797,677.859,819.132z"/>
	<path d="M819.132,677.859c8.666-12.383,25.285-19.004,42.508-6.028c4.893-15.316-9.3-26.017-24.328-25.865
		c-6.782-0.138-12.902,1.668-18.18,4.866c-5.278-3.198-11.398-5.004-18.18-4.866c-15.028-0.152-29.221,10.55-24.328,25.865
		C793.847,658.855,810.466,665.476,819.132,677.859z"/>
	<path d="M819.132,731.057c14.239,9.451,33.152,11.33,49.569,7.009c-7.33,9.71-5.556,23.166,6.361,25.136
		c1.97,11.917,15.426,13.691,25.136,6.361c-4.321,16.417-2.442,35.33,7.009,49.569c-9.451,14.239-11.33,33.152-7.009,49.569
		c-9.71-7.33-23.166-5.556-25.136,6.361c-11.917,1.97-13.691,15.426-6.361,25.136c-16.417-4.321-35.33-2.442-49.569,7.009
		c-14.239-9.451-33.152-11.33-49.569-7.009c7.33-9.71,5.556-23.166-6.361-25.136c-1.97-11.917-15.426-13.691-25.136-6.361
		c4.321-16.417,2.442-35.33-7.009-49.569c9.451-14.239,11.33-33.152,7.009-49.569c9.71,7.33,23.166,5.556,25.136-6.361
		c11.917-1.97,13.691-15.426,6.361-25.136C785.98,742.387,804.892,740.507,819.132,731.057z M889.746,748.517
		c-2.535-4.349-9.951-5.256-12.655-0.674c-1.317,3.143,1.179,5.605,3.04,7.79c-2.531-0.22-5.525,0.069-7.27-2.138
		c-3.098-2.635-2.243-7.166-0.717-10.402c2.542-6.113,8.668-9.315,13.707-13.071c17.452-11.858,26.721-33.747,24.964-54.55
		c-1.445,6.703-1.633,24.183-20.098,39.861c-21.905,18.553-57.419,15.637-71.586-1.295c-14.168,16.932-49.681,19.848-71.586,1.295
		c-18.465-15.678-18.653-33.159-20.098-39.861c-1.757,20.803,7.512,42.692,24.964,54.55c5.039,3.756,11.164,6.958,13.707,13.071
		c1.526,3.236,2.381,7.767-0.717,10.402c-1.745,2.207-4.738,1.918-7.27,2.138c1.861-2.185,4.357-4.646,3.04-7.79
		c-2.704-4.582-10.12-3.674-12.655,0.674c-4.349,2.535-5.256,9.951-0.674,12.655c3.143,1.317,5.605-1.179,7.79-3.04
		c-0.22,2.531,0.069,5.525-2.138,7.27c-2.635,3.098-7.166,2.243-10.402,0.717c-6.113-2.542-9.315-8.668-13.071-13.707
		c-11.858-17.452-33.747-26.721-54.55-24.964c6.703,1.445,24.183,1.633,39.861,20.098c18.553,21.905,15.637,57.419-1.295,71.586
		c16.932,14.168,19.848,49.681,1.295,71.586c-15.678,18.465-33.159,18.653-39.861,20.098c20.803,1.757,42.692-7.512,54.55-24.964
		c3.756-5.039,6.958-11.164,13.071-13.707c3.236-1.526,7.767-2.381,10.402,0.717c2.207,1.745,1.918,4.738,2.138,7.27
		c-2.185-1.861-4.646-4.357-7.79-3.04c-4.582,2.704-3.674,10.12,0.674,12.655c2.535,4.349,9.951,5.256,12.655,0.674
		c1.317-3.143-1.179-5.605-3.04-7.79c2.531,0.22,5.525-0.069,7.27,2.138c3.098,2.635,2.243,7.166,0.717,10.402
		c-2.542,6.113-8.668,9.315-13.707,13.071c-17.452,11.858-26.721,33.747-24.964,54.55c1.445-6.703,1.633-24.183,20.098-39.861
		c21.905-18.553,57.419-15.637,71.586,1.295c14.168-16.932,49.681-19.848,71.586-1.295c18.465,15.678,18.653,33.158,20.098,39.861
		c1.757-20.803-7.512-42.692-24.964-54.55c-5.039-3.756-11.164-6.958-13.707-13.071c-1.526-3.236-2.381-7.767,0.717-10.402
		c1.745-2.207,4.738-1.918,7.27-2.138c-1.861,2.185-4.357,4.646-3.04,7.79c2.704,4.582,10.12,3.674,12.655-0.674
		c4.349-2.535,5.256-9.951,0.674-12.655c-3.143-1.317-5.605,1.179-7.79,3.04c0.22-2.531-0.069-5.525,2.138-7.27
		c2.635-3.098,7.166-2.243,10.402-0.717c6.113,2.542,9.315,8.668,13.071,13.707c11.858,17.452,33.747,26.721,54.55,24.964
		c-6.703-1.445-24.183-1.633-39.861-20.098c-18.553-21.905-15.637-57.419,1.295-71.586c-16.932-14.168-19.848-49.681-1.295-71.586
		c15.678-18.465,33.158-18.653,39.861-20.098c-20.803-1.757-42.692,7.512-54.55,24.964c-3.756,5.039-6.958,11.164-13.071,13.707
		c-3.236,1.526-7.767,2.381-10.402-0.717c-2.207-1.745-1.918-4.738-2.138-7.27c2.185,1.861,4.646,4.357,7.79,3.04
		C895.002,758.468,894.095,751.052,889.746,748.517z"/>
</g>
</svg>
