<svg width="72" height="24" viewBox="0 0 72 24" fill="none" xmlns="http://www.w3.org/2000/svg">
    <g clip-path="url(#clip0_2695_2386)">
        <path fill-rule="evenodd" clip-rule="evenodd" d="M1.99951 15.7524V7.0962C1.99925 6.95289 2.02552 6.81092 2.07683 6.6784C2.12814 6.54589 2.20348 6.42543 2.29856 6.32389C2.39363 6.22236 2.50657 6.14175 2.63093 6.08665C2.75529 6.03156 2.88863 6.00307 3.02334 6.00281H11.1366C10.8656 6.30107 10.7151 6.70035 10.7173 7.11519C10.7196 7.53002 10.8743 7.92744 11.1485 8.22239C11.4227 8.51733 11.7945 8.68637 12.1844 8.69332C12.5743 8.70027 12.9512 8.54457 13.2345 8.25956V16.907C13.2348 17.0503 13.2085 17.1922 13.1572 17.3247C13.1059 17.4572 13.0305 17.5777 12.9354 17.6792C12.8404 17.7807 12.7274 17.8613 12.6031 17.9164C12.4787 17.9715 12.3454 18 12.2107 18.0002H7.16772C7.17162 17.9981 7.17538 17.9957 7.17915 17.9931C9.50168 16.4523 9.96955 14.2508 9.64961 13.32C9.23271 12.1063 10.0665 10.2366 10.0665 10.2366C10.0665 10.2366 11.4248 9.72295 11.3996 9.51163C11.3882 9.41405 10.0898 9.4418 10.0898 9.4418C6.94864 7.056 5.72014 10.683 5.43032 11.9806C4.69967 12.0645 2.74065 15.0496 2.74065 15.0496C2.45944 15.2291 2.2119 15.4624 2.01054 15.7378L1.99951 15.7524Z" fill="#38D47F"/>
        <path d="M12.1978 8.1865C12.7633 8.1865 13.2217 7.69704 13.2217 7.09325C13.2217 6.48946 12.7633 6 12.1978 6C11.6323 6 11.1738 6.48946 11.1738 7.09325C11.1738 7.69704 11.6323 8.1865 12.1978 8.1865Z" fill="#FF2F2F"/>
        <path fill-rule="evenodd" clip-rule="evenodd" d="M25.9624 10.9322V11.948H21.1819C19.6298 11.948 19.2928 12.708 19.2928 14.18C19.2928 15.652 19.6387 16.4028 21.1819 16.4028H25.9624V17.4288H21.1819C19.0799 17.4288 18.2905 16.3459 18.2905 14.18C18.2905 12.0237 19.0705 10.9313 21.1819 10.9313L25.9624 10.9322ZM32.6764 12.2055L35.1154 17.4301H34.0688L33.2439 15.6633H28.4989L27.6741 17.4301H26.6276L29.0666 12.2055C29.4566 11.3601 29.9273 10.8472 30.867 10.8472C31.8161 10.8472 32.2772 11.3601 32.6764 12.2055ZM32.7916 14.7323L31.7184 12.424C31.5322 12.025 31.3015 11.778 30.867 11.778C30.4414 11.778 30.2107 12.025 30.0245 12.424L28.9424 14.7323H32.7916ZM37.1463 11.9965V17.4301H36.1619V10.9322H36.9069C38.4501 10.9322 38.8759 11.4926 40.5077 13.8675C42.0509 16.1188 42.2283 16.3752 43.0266 16.3752H43.0709V10.9322H44.0554V17.4297H43.3104C41.8647 17.4297 41.4302 16.9072 39.7273 14.5039C38.0866 12.2051 37.9624 11.9961 37.1907 11.9961L37.1463 11.9965ZM51.1506 12.2055L53.5898 17.4301H52.5432L51.7183 15.6627H46.9733L46.1485 17.4296H45.1017L47.541 12.2055C47.931 11.3601 48.4017 10.8472 49.3414 10.8472C50.2903 10.8472 50.7516 11.3601 51.1506 12.2055ZM51.266 14.7323L50.1928 12.424C50.0066 12.025 49.7759 11.778 49.3414 11.778C48.9157 11.778 48.6852 12.025 48.4988 12.424L47.4168 14.7323H51.266ZM54.6366 17.4296V10.9322H59.8693C61.3504 10.9322 62.1665 11.7111 62.1665 12.9175C62.1665 13.8485 61.6787 14.4374 60.8626 14.6653C61.6521 14.9124 62.0157 15.4728 62.0157 16.1852V17.43H61.0044V16.1665C61.0044 15.6441 60.6939 15.1406 59.8336 15.1406H55.6119V17.4299L54.6366 17.4296ZM55.6121 14.2093H59.9403C60.8626 14.2093 61.1641 13.5633 61.1641 13.0314C61.1641 12.4994 60.8714 11.863 59.9403 11.863H55.6119V14.2095L55.6121 14.2093ZM62.7692 10.9322H64.1883L66.2022 13.3828C66.4667 13.6744 66.6961 13.9999 66.8851 14.3518C67.0681 13.9958 67.2981 13.6695 67.568 13.3828L69.5808 10.9322H70.9999L68.1174 14.2284C67.878 14.5039 67.3723 15.0453 67.3723 15.5017V17.4301H66.3968V15.5012C66.3968 15.0546 65.8912 14.4942 65.6517 14.2278L62.7692 10.9322Z" fill="white"/>
        <path fill-rule="evenodd" clip-rule="evenodd" d="M19.5064 9.22111H19.1449V7.0007H17.9849V6.6204H20.6659V7.0007H19.5059V9.22111H19.5064ZM23.7916 9.22111H23.4301V8.10711H21.3921V9.22111H21.0273V6.6204H21.3921V7.73068H23.4296V6.6204H23.7911V9.22111H23.7916ZM24.3968 6.6204H24.7583V9.22111H24.3968V6.6204ZM25.7282 7.04634V9.22111H25.3634V6.6204H25.6394C26.2112 6.6204 26.369 6.84475 26.9736 7.79535C27.5454 8.69674 27.6112 8.79904 27.9069 8.79904H27.9233V6.6204H28.288V9.22111H28.0121C27.4764 9.22111 27.3153 9.01208 26.6845 8.05003C26.0765 7.1299 26.0305 7.04634 25.7446 7.04634H25.7282ZM31.6367 9.22111H31.1536L30.6431 8.45694C30.5544 8.32817 30.3742 8.08823 30.1404 8.08823H29.2528V9.22125H28.8913V6.6204H29.2528V7.71165H30.0974C30.3275 7.71165 30.5246 7.48359 30.61 7.35396L31.0931 6.62012H31.5762L30.919 7.53266C30.8158 7.6873 30.6764 7.8106 30.5147 7.89035C30.6963 7.96447 30.8522 8.09581 30.9617 8.26679L31.6353 9.22111H31.6367ZM31.8437 8.84468H33.8285C34.1506 8.84468 34.282 8.7192 34.282 8.51016C34.282 8.28968 34.1276 8.17164 33.7563 8.13745L32.6554 8.03486C32.1526 7.98922 31.87 7.78004 31.87 7.32377C31.87 6.81427 32.2281 6.6204 32.6784 6.6204H34.5023V6.99755H32.6444C32.3848 6.99755 32.2369 7.09256 32.2369 7.31318C32.2369 7.51463 32.3552 7.62108 32.7463 7.65528L33.8078 7.75414C34.3368 7.80365 34.655 7.99738 34.655 8.49557C34.655 8.92909 34.4053 9.22183 33.8039 9.22183H31.8426V8.84468H31.8437ZM36.3818 9.22111H36.0205V7.0007H34.8593V6.6204H37.5408V7.0007H36.3807L36.3818 9.22111Z" fill="white"/>
    </g>
    <defs>
        <clipPath id="clip0_2695_2386">
            <rect width="69" height="12" fill="white" transform="translate(2 6)"/>
        </clipPath>
    </defs>
</svg>
