<svg width="72" height="24" viewBox="0 0 72 24" fill="none" xmlns="http://www.w3.org/2000/svg">
<path d="M18.4925 8.1404C18.404 8.02246 18.2566 7.90451 18.0944 7.8308C17.9322 7.74234 17.7406 7.71285 17.5784 7.71285C17.4899 7.71285 17.3573 7.7276 17.2688 7.74234C17.1803 7.77183 17.0771 7.80131 16.9739 7.86028C16.8855 7.90451 16.8118 7.97823 16.7528 8.08143C16.7086 8.16989 16.6643 8.27309 16.6643 8.40578C16.6643 8.50898 16.6938 8.62693 16.738 8.71539C16.7823 8.80385 16.8412 8.86282 16.9297 8.93653C17.0182 8.99551 17.1066 9.03974 17.2246 9.08397C17.3425 9.11345 17.4752 9.17242 17.6226 9.20191C17.7848 9.24614 17.9617 9.30511 18.1239 9.36408C18.2861 9.42306 18.463 9.51152 18.6104 9.62946C18.7579 9.73266 18.8758 9.8801 18.979 10.0423C19.0675 10.2044 19.1117 10.4256 19.1117 10.6762C19.1117 10.9563 19.0675 11.1922 18.9643 11.3986C18.8758 11.5903 18.7284 11.782 18.5662 11.9146C18.404 12.0473 18.1976 12.1653 17.9912 12.2243C17.7553 12.2832 17.5342 12.3275 17.2835 12.3275C16.9592 12.3275 16.6348 12.2685 16.3252 12.1505C16.0156 12.0326 15.765 11.8409 15.5586 11.6198L16.2073 11.0301C16.3252 11.1922 16.5022 11.3397 16.6938 11.4429C16.915 11.5461 17.1066 11.5903 17.2983 11.5903C17.3867 11.5903 17.5194 11.5756 17.6226 11.5608C17.7258 11.5313 17.8438 11.4871 17.9175 11.4281C18.006 11.3692 18.0797 11.2954 18.1386 11.1775C18.1829 11.089 18.2271 10.9563 18.2271 10.8237C18.2271 10.691 18.1976 10.573 18.1386 10.4846C18.0797 10.3961 17.9912 10.3224 17.888 10.2487C17.7996 10.1897 17.6521 10.1307 17.5194 10.0865C17.372 10.0423 17.2246 9.9833 17.0771 9.93907C16.9297 9.89484 16.7675 9.83587 16.6201 9.77689C16.4727 9.71792 16.3252 9.62946 16.2073 9.51152C16.0893 9.40831 15.9714 9.26088 15.9124 9.11345C15.8387 8.95128 15.8092 8.74487 15.8092 8.52373C15.8092 8.25835 15.8535 8.0372 15.9714 7.86028C16.0746 7.68337 16.222 7.52119 16.399 7.40325C16.5611 7.2853 16.7675 7.1821 16.9887 7.12313C17.2246 7.06415 17.431 7.03467 17.6669 7.03467C17.9322 7.03467 18.1829 7.0789 18.4483 7.16736C18.7136 7.25582 18.9348 7.40325 19.1412 7.58016L18.4925 8.1404Z" fill="white"/>
<path d="M19.8345 7.65352C19.8345 7.52083 19.8787 7.38814 19.9819 7.29968C20.0704 7.21122 20.2178 7.16699 20.3652 7.16699C20.5127 7.16699 20.6601 7.21122 20.7633 7.29968C20.8665 7.38814 20.9255 7.52083 20.9255 7.66826C20.9255 7.80095 20.8812 7.93364 20.7633 8.03684C20.6601 8.1253 20.5274 8.16953 20.3652 8.16953C20.2031 8.16953 20.0704 8.1253 19.9819 8.03684C19.8787 7.90415 19.8345 7.77146 19.8345 7.65352ZM19.9229 12.2091H20.837V8.84771H19.9229V12.2091Z" fill="white"/>
<path d="M25.2891 8.84802V11.8999C25.2891 12.2095 25.2596 12.4748 25.1859 12.7255C25.1122 12.9761 24.9942 13.1825 24.832 13.3594C24.6699 13.5216 24.4635 13.669 24.1981 13.7575C23.9327 13.8459 23.6526 13.8902 23.3135 13.8902C23.1808 13.8902 23.0186 13.8754 22.8712 13.8607C22.7238 13.8312 22.5469 13.8017 22.3994 13.7575C22.252 13.7133 22.0898 13.6543 21.9571 13.5953C21.8244 13.5216 21.6918 13.4479 21.5738 13.3447L22.0751 12.696C22.2373 12.8434 22.4437 12.9761 22.6353 13.0498C22.8565 13.1383 23.0629 13.1678 23.284 13.1678C23.4757 13.1678 23.6673 13.1383 23.8148 13.0793C23.9475 13.0203 24.0801 12.9466 24.1539 12.8287C24.2423 12.7402 24.3013 12.6075 24.3308 12.4601C24.3603 12.3127 24.375 12.1652 24.375 12.0031V11.7524H24.3603C24.2423 11.9146 24.0654 12.0473 23.8737 12.1357C23.6821 12.2242 23.4609 12.2684 23.2103 12.2684C22.9449 12.2684 22.7238 12.2242 22.4879 12.121C22.2667 12.0325 22.0898 11.8999 21.9424 11.7377C21.795 11.5902 21.677 11.3986 21.6033 11.1774C21.5148 10.9563 21.4854 10.7351 21.4854 10.4993C21.4854 10.2486 21.5148 10.0275 21.5886 9.80632C21.6623 9.58518 21.7655 9.40826 21.9276 9.24609C22.0751 9.09865 22.2667 8.96597 22.4731 8.86276C22.6943 8.7743 22.9154 8.71533 23.1956 8.71533C23.4609 8.71533 23.6821 8.75956 23.9032 8.86276C24.1244 8.95122 24.2865 9.12814 24.4045 9.3198H24.4192V8.83328L25.2891 8.84802ZM23.402 9.39352C23.2545 9.39352 23.1071 9.423 22.9892 9.48198C22.8712 9.54095 22.768 9.61466 22.6795 9.71787C22.6058 9.80632 22.5469 9.93901 22.4879 10.0717C22.4437 10.2044 22.4289 10.3518 22.4289 10.4845C22.4289 10.6172 22.4584 10.7646 22.4879 10.8826C22.5321 11.0005 22.5911 11.1332 22.6795 11.2364C22.7533 11.3249 22.8565 11.4133 22.9892 11.487C23.1071 11.546 23.2398 11.5755 23.3872 11.5755C23.5346 11.5755 23.6821 11.546 23.8 11.487C23.918 11.4281 24.0359 11.3544 24.1096 11.2512C24.1833 11.148 24.2571 11.03 24.3013 10.8973C24.3455 10.7646 24.375 10.6319 24.375 10.4845C24.375 10.3371 24.3455 10.1896 24.3013 10.0717C24.2571 9.93901 24.1981 9.82107 24.1096 9.71787C24.0359 9.62941 23.918 9.55569 23.8 9.48198C23.6821 9.423 23.5641 9.39352 23.402 9.39352Z" fill="white"/>
<path d="M26.1738 8.75945H26.97V9.30495H26.9847C27.0584 9.14277 27.1764 8.9806 27.368 8.84791C27.5449 8.71522 27.7661 8.65625 28.0315 8.65625C28.2526 8.65625 28.4295 8.68574 28.577 8.75945C28.7244 8.83317 28.8571 8.93637 28.9603 9.06906C29.0487 9.187 29.1225 9.34918 29.1814 9.51135C29.2257 9.67353 29.2551 9.85044 29.2551 10.0274V12.1946H28.4295V10.2927C28.4295 10.1895 28.4148 10.1011 28.4 9.98313C28.3853 9.87993 28.3558 9.76199 28.3116 9.67353C28.2821 9.58507 28.2084 9.51135 28.1199 9.43764C28.0315 9.37866 27.9283 9.34918 27.7956 9.34918C27.6629 9.34918 27.5302 9.37866 27.4417 9.43764C27.3533 9.48187 27.2648 9.55558 27.1911 9.65878C27.1321 9.74724 27.0879 9.8357 27.0584 9.96839C27.0289 10.0716 27.0142 10.2043 27.0142 10.3075V12.2093H26.1886V8.75945" fill="white"/>
<path d="M32.3513 11.7671H32.3218C32.2333 11.9145 32.1007 12.0472 31.9237 12.1504C31.7468 12.2536 31.5257 12.2978 31.2898 12.2978C31.1571 12.2978 31.0097 12.2831 30.8622 12.2536C30.7148 12.2241 30.5821 12.1504 30.4642 12.0767C30.3462 11.9882 30.2283 11.885 30.1546 11.7523C30.0661 11.6196 30.0366 11.4427 30.0366 11.2363C30.0366 10.9709 30.1103 10.7645 30.2578 10.6023C30.4052 10.4549 30.5821 10.3222 30.8033 10.2485C31.0244 10.1601 31.275 10.1158 31.5404 10.0863C31.8058 10.0568 32.0712 10.0568 32.3366 10.0568V9.96839C32.3366 9.74724 32.2628 9.58507 32.1007 9.49661C31.9532 9.39341 31.7763 9.34918 31.5552 9.34918C31.3782 9.34918 31.2013 9.37866 31.0539 9.45238C30.9065 9.5261 30.7443 9.6293 30.6558 9.7325L30.2135 9.20175C30.4052 9.02483 30.6263 8.8774 30.877 8.78894C31.1424 8.70048 31.3635 8.65625 31.6289 8.65625C31.9385 8.65625 32.1744 8.68574 32.366 8.7742C32.5577 8.86265 32.7051 8.96586 32.8231 9.11329C32.9263 9.24598 33.0147 9.42289 33.059 9.58507C33.1032 9.76199 33.1179 9.9389 33.1179 10.1011V12.2241H32.3366V11.7818H32.3513V11.7671ZM32.2923 10.6318H32.1154C31.9975 10.6318 31.8353 10.6318 31.7026 10.6466C31.5699 10.6613 31.4225 10.6761 31.3045 10.7203C31.1866 10.7498 31.0686 10.8235 30.9949 10.8825C30.9212 10.9562 30.877 11.0446 30.877 11.1921C30.877 11.2805 30.8917 11.3395 30.9212 11.3837C30.9507 11.428 30.9949 11.4869 31.0392 11.5164C31.0981 11.5459 31.1571 11.5754 31.2161 11.5901C31.2898 11.6049 31.3488 11.6196 31.4077 11.6196C31.6879 11.6196 31.8943 11.5459 32.0417 11.369C32.1744 11.2068 32.2628 10.9857 32.2628 10.7203L32.2923 10.6318Z" fill="white"/>
<path d="M35.0052 6.85742H34.1206V12.2092H35.0052V6.85742Z" fill="white"/>
<path d="M40.4158 8.1404C40.3274 8.02246 40.1799 7.90451 40.0178 7.8308C39.8556 7.74234 39.6639 7.71285 39.5017 7.71285C39.4133 7.71285 39.2806 7.7276 39.1921 7.74234C39.1037 7.77183 39.0005 7.80131 38.8973 7.86028C38.8088 7.90451 38.7351 7.97823 38.6761 8.08143C38.6319 8.16989 38.5877 8.27309 38.5877 8.40578C38.5877 8.50898 38.6172 8.62693 38.6614 8.71539C38.7056 8.80385 38.7646 8.86282 38.853 8.93653C38.9415 9.01025 39.03 9.03974 39.1479 9.08397C39.2659 9.11345 39.3985 9.17242 39.546 9.20191C39.7081 9.24614 39.8851 9.30511 40.0472 9.36408C40.2094 9.42306 40.3863 9.51152 40.5338 9.62946C40.6812 9.73266 40.7991 9.8801 40.9023 10.0423C40.9908 10.2044 41.035 10.4256 41.035 10.6762C41.035 10.9563 40.9908 11.1922 40.8876 11.3986C40.7991 11.5903 40.6517 11.782 40.4895 11.9146C40.3274 12.0473 40.121 12.1653 39.9146 12.2243C39.6787 12.2832 39.4575 12.3275 39.2069 12.3275C38.8825 12.3275 38.5582 12.2685 38.2486 12.1505C37.939 12.0326 37.6883 11.8409 37.4819 11.6198L38.1306 11.0301C38.2486 11.1922 38.4255 11.3397 38.6172 11.4429C38.8383 11.5461 39.03 11.5903 39.2216 11.5903C39.3101 11.5903 39.4428 11.5756 39.546 11.5608C39.6492 11.5313 39.7671 11.4871 39.8408 11.4281C39.9293 11.3692 40.003 11.2954 40.062 11.1775C40.1062 11.089 40.1504 10.9563 40.1504 10.8237C40.1504 10.691 40.121 10.573 40.062 10.4846C40.003 10.3961 39.9146 10.3224 39.8113 10.2487C39.7229 10.1897 39.5755 10.1307 39.4428 10.0865C39.3101 10.0423 39.1479 9.9833 39.0005 9.93907C38.853 9.89484 38.6909 9.83587 38.5434 9.77689C38.396 9.71792 38.2486 9.62946 38.1306 9.51152C38.0127 9.40831 37.8947 9.26088 37.8358 9.11345C37.7621 8.95128 37.7326 8.74487 37.7326 8.52373C37.7326 8.25835 37.7768 8.0372 37.8947 7.86028C37.9979 7.68337 38.1454 7.52119 38.3223 7.40325C38.4845 7.2853 38.6909 7.1821 38.912 7.12313C39.1479 7.06415 39.3543 7.03467 39.5902 7.03467C39.8556 7.03467 40.1062 7.0789 40.3716 7.16736C40.637 7.25582 40.8581 7.40325 41.0645 7.58016L40.4158 8.1404Z" fill="white"/>
<path d="M44.0722 9.70281C44.0132 9.59961 43.9247 9.54063 43.7773 9.45218C43.6446 9.3932 43.4972 9.34897 43.3792 9.34897C43.2318 9.34897 43.0844 9.37846 42.9812 9.45218C42.8632 9.51115 42.76 9.59961 42.6863 9.70281C42.6126 9.80601 42.5536 9.9387 42.5241 10.0566C42.4946 10.1893 42.4652 10.322 42.4652 10.4547C42.4652 10.5874 42.4946 10.7201 42.5241 10.8528C42.5536 10.9855 42.6126 11.1034 42.701 11.2066C42.7895 11.3098 42.878 11.3835 42.9959 11.4572C43.1139 11.5162 43.2613 11.5604 43.4087 11.5604C43.5414 11.5604 43.6741 11.531 43.8068 11.4867C43.9395 11.4425 44.0427 11.3688 44.1311 11.2508L44.6471 11.7963C44.5145 11.9438 44.3228 12.0765 44.1164 12.1502C43.8952 12.2386 43.6593 12.2681 43.4087 12.2681C43.1581 12.2681 42.9222 12.2386 42.701 12.1502C42.4799 12.0617 42.2882 11.9585 42.1261 11.7816C41.9639 11.6194 41.8312 11.4278 41.728 11.2066C41.6395 10.9707 41.5806 10.7201 41.5806 10.4252C41.5806 10.1451 41.6248 9.90921 41.728 9.67332C41.8165 9.43743 41.9491 9.26051 42.1261 9.09834C42.2735 8.93617 42.4799 8.81822 42.701 8.72976C42.9369 8.6413 43.1581 8.61182 43.4087 8.61182C43.6593 8.61182 43.8952 8.65605 44.1311 8.75925C44.367 8.86245 44.5439 8.99514 44.6766 9.15731L44.0722 9.70281Z" fill="white"/>
<path d="M45.3252 7.65352C45.3252 7.52083 45.3694 7.38814 45.4726 7.29968C45.5611 7.21122 45.7085 7.16699 45.8559 7.16699C46.0181 7.16699 46.1508 7.21122 46.254 7.29968C46.3572 7.38814 46.4162 7.52083 46.4162 7.66826C46.4162 7.80095 46.372 7.93364 46.254 8.03684C46.1508 8.1253 46.0181 8.16953 45.8559 8.16953C45.6938 8.16953 45.5611 8.1253 45.4726 8.03684C45.3694 7.90415 45.3252 7.77146 45.3252 7.65352ZM45.3989 12.2091H46.313V8.84771H45.3989V12.2091Z" fill="white"/>
<path d="M50.5885 10.5288V10.632C50.5885 10.6615 50.5885 10.7057 50.5737 10.7352H47.9494C47.9642 10.8532 47.9789 10.9859 48.0526 11.0743C48.0969 11.1775 48.1706 11.2512 48.2885 11.3397C48.377 11.4134 48.4802 11.4724 48.5981 11.5019C48.7013 11.5314 48.8488 11.5608 48.9667 11.5608C49.1879 11.5608 49.3648 11.5314 49.5122 11.4576C49.6597 11.3839 49.7923 11.2807 49.8808 11.1333L50.4558 11.5903C50.1167 12.0474 49.6154 12.2833 48.9815 12.2833C48.7161 12.2833 48.4802 12.2538 48.2443 12.1653C48.0084 12.0768 47.8168 11.9736 47.6693 11.8115C47.5072 11.664 47.3597 11.4724 47.286 11.2512C47.1975 11.0153 47.1533 10.7795 47.1533 10.4846C47.1533 10.2045 47.1975 9.96858 47.286 9.71795C47.3745 9.48206 47.5219 9.29039 47.6693 9.14296C47.8315 8.98079 48.0232 8.8481 48.2443 8.75964C48.4655 8.67118 48.7013 8.62695 48.9667 8.62695C49.2174 8.62695 49.4238 8.65644 49.6302 8.73015C49.8218 8.80387 50.0135 8.92182 50.1462 9.08399C50.2936 9.23142 50.4116 9.43783 50.5 9.65897C50.5442 9.93909 50.5885 10.2192 50.5885 10.5288ZM49.6597 10.1308C49.6597 10.0276 49.6449 9.90961 49.6154 9.82115C49.5859 9.71795 49.5417 9.64423 49.468 9.55577C49.409 9.48206 49.3206 9.42308 49.2174 9.37885C49.1142 9.33462 48.9815 9.31988 48.8488 9.31988C48.5834 9.31988 48.377 9.3936 48.1853 9.55577C48.0232 9.7032 47.9052 9.90961 47.8757 10.1455L49.6597 10.1308Z" fill="white"/>
<path d="M51.3848 8.75945H52.1809V9.30495H52.1956C52.2694 9.14277 52.3873 8.9806 52.579 8.84791C52.7706 8.71522 52.977 8.65625 53.2424 8.65625C53.4636 8.65625 53.6405 8.68574 53.7879 8.75945C53.9353 8.83317 54.068 8.93637 54.1712 9.06906C54.2597 9.187 54.3334 9.34918 54.3924 9.51135C54.4366 9.67353 54.4661 9.85044 54.4661 10.0274V12.1946H53.6405V10.2927C53.6405 10.1895 53.6257 10.1011 53.611 9.98313C53.5962 9.87993 53.5668 9.76199 53.5225 9.67353C53.4783 9.58507 53.4193 9.51135 53.3309 9.43764C53.2424 9.37866 53.1392 9.34918 53.0065 9.34918C52.8738 9.34918 52.7411 9.37866 52.6527 9.43764C52.5642 9.48187 52.4758 9.55558 52.402 9.65878C52.3431 9.74724 52.2988 9.8357 52.2694 9.96839C52.2399 10.0716 52.2251 10.2043 52.2251 10.3075V12.2093H51.3995L51.3848 8.75945Z" fill="white"/>
<path d="M57.6649 9.70281C57.606 9.59961 57.5175 9.54063 57.3701 9.45218C57.2374 9.3932 57.0899 9.34897 56.972 9.34897C56.8246 9.34897 56.6771 9.37846 56.5739 9.45218C56.456 9.51115 56.3528 9.59961 56.2791 9.70281C56.2054 9.80601 56.1464 9.9387 56.1169 10.0566C56.0874 10.1893 56.0579 10.322 56.0579 10.4547C56.0579 10.5874 56.0874 10.7201 56.1169 10.8528C56.1464 10.9855 56.2054 11.1034 56.2938 11.2066C56.3823 11.3098 56.4707 11.3835 56.5887 11.4572C56.7066 11.5162 56.8541 11.5604 57.0015 11.5604C57.1342 11.5604 57.2669 11.531 57.3996 11.4867C57.5322 11.4425 57.6354 11.3688 57.7239 11.2508L58.2399 11.7963C58.0925 11.9438 57.9156 12.0765 57.7092 12.1502C57.488 12.2386 57.2521 12.2681 57.0015 12.2681C56.7509 12.2681 56.515 12.2386 56.2938 12.1502C56.0727 12.0617 55.881 11.9585 55.7188 11.7816C55.5567 11.6194 55.424 11.4278 55.3208 11.2066C55.2323 10.9707 55.1733 10.7201 55.1733 10.4252C55.1733 10.1451 55.2176 9.90921 55.3208 9.67332C55.4092 9.43743 55.5567 9.26051 55.7188 9.09834C55.8663 8.93617 56.0727 8.81822 56.2938 8.72976C56.515 8.6413 56.7509 8.61182 57.0015 8.61182C57.2521 8.61182 57.488 8.65605 57.7239 8.75925C57.9598 8.86245 58.1367 8.99514 58.2694 9.15731L57.6649 9.70281Z" fill="white"/>
<path d="M62.1026 10.5288V10.632C62.1026 10.6615 62.1026 10.7057 62.0879 10.7352H59.4636C59.4784 10.8532 59.4931 10.9859 59.5668 11.0743C59.611 11.1775 59.6848 11.2512 59.8027 11.3397C59.8912 11.4134 59.9944 11.4724 60.1123 11.5019C60.2155 11.5314 60.3629 11.5608 60.4809 11.5608C60.702 11.5608 60.879 11.5314 61.0264 11.4576C61.1738 11.3839 61.3065 11.2807 61.395 11.1333L61.9699 11.5903C61.6309 12.0474 61.1296 12.2833 60.4956 12.2833C60.2303 12.2833 59.9796 12.2538 59.7585 12.1653C59.5226 12.0768 59.3309 11.9736 59.1835 11.8115C59.0213 11.664 58.8739 11.4724 58.8002 11.2512C58.7117 11.0153 58.6675 10.7795 58.6675 10.4846C58.6675 10.2045 58.7117 9.96858 58.8002 9.71795C58.8886 9.48206 59.0361 9.29039 59.1835 9.14296C59.3457 8.98079 59.5373 8.8481 59.7585 8.75964C59.9796 8.67118 60.2155 8.62695 60.4809 8.62695C60.7315 8.62695 60.9379 8.65644 61.1443 8.73015C61.336 8.80387 61.5277 8.92182 61.6603 9.08399C61.8078 9.23142 61.9257 9.43783 62.0142 9.65897C62.0437 9.93909 62.1026 10.2192 62.1026 10.5288ZM61.2328 10.1308C61.2328 10.0276 61.218 9.90961 61.1886 9.82115C61.1591 9.71795 61.1148 9.64423 61.0411 9.55577C60.9822 9.48206 60.8937 9.42308 60.7905 9.37885C60.6873 9.33462 60.5546 9.31988 60.4219 9.31988C60.1565 9.31988 59.9501 9.3936 59.7585 9.55577C59.5963 9.7032 59.4784 9.90961 59.4489 10.1455L61.2328 10.1308Z" fill="white"/>
<path d="M64.919 9.67334C64.8453 9.57014 64.7421 9.49642 64.6094 9.40796C64.4767 9.33425 64.344 9.30476 64.1818 9.30476C64.0491 9.30476 63.9165 9.33425 63.8133 9.39322C63.7101 9.45219 63.6511 9.54065 63.6511 9.68808C63.6511 9.82077 63.71 9.92397 63.828 9.98294C63.9459 10.0272 64.1376 10.0861 64.3735 10.1451C64.4914 10.1746 64.6389 10.2041 64.7568 10.2483C64.8895 10.2925 65.0074 10.3515 65.1107 10.4252C65.2139 10.499 65.3023 10.5874 65.376 10.7348C65.435 10.838 65.4645 11.0002 65.4645 11.1624C65.4645 11.3835 65.435 11.5457 65.3465 11.6931C65.2728 11.8406 65.1696 11.9585 65.0369 12.047C64.9042 12.1354 64.7568 12.2092 64.5946 12.2386C64.4325 12.2681 64.2555 12.2976 64.0786 12.2976C63.8133 12.2976 63.5774 12.2534 63.312 12.1502C63.0614 12.047 62.8697 11.8996 62.7075 11.7226L63.253 11.1919C63.3415 11.3098 63.4742 11.4278 63.6216 11.5015C63.769 11.5899 63.9459 11.6194 64.1229 11.6194C64.1818 11.6194 64.2408 11.6047 64.2998 11.5899C64.3588 11.5752 64.4177 11.5605 64.462 11.531C64.5062 11.5015 64.5504 11.4573 64.5946 11.413C64.6241 11.3688 64.6389 11.3098 64.6389 11.2214C64.6389 11.0739 64.5799 10.9707 64.4472 10.9118C64.3145 10.8528 64.1229 10.7938 63.887 10.7348C63.769 10.7054 63.6363 10.6759 63.5184 10.6316C63.4004 10.5874 63.2972 10.5284 63.194 10.4695C63.1056 10.3958 63.0319 10.3073 62.9729 10.1893C62.9139 10.0861 62.8844 9.93871 62.8844 9.77654C62.8844 9.59962 62.9139 9.40796 62.9876 9.27527C63.0614 9.14258 63.1646 9.02464 63.2972 8.93618C63.4152 8.84772 63.5626 8.78875 63.7248 8.74452C63.8722 8.71503 64.0491 8.68555 64.2113 8.68555C64.462 8.68555 64.6831 8.71503 64.919 8.80349C65.1549 8.89195 65.3318 9.02464 65.4645 9.20156L64.919 9.67334Z" fill="white"/>
<path d="M12.8165 6.7101C12.787 6.68062 12.3595 6.45947 11.7845 6.20884L11.2095 6.76908C11.6076 6.93125 11.9762 7.12291 12.2415 7.2556C12.1826 8.15493 11.8435 10.1747 11.4749 11.2805C11.2243 12.0619 9.92686 12.9465 9.27817 13.3445C9.04228 13.2118 8.73267 13.0054 8.42306 12.7695L11.1653 10.0126C11.5928 9.57027 11.5928 8.8626 11.1653 8.42031C10.7377 7.97801 10.0153 7.97801 9.58777 8.42031L8.45255 9.54079C8.30512 9.68822 8.06923 9.68822 7.9218 9.54079C7.84808 9.46707 7.81859 9.37861 7.81859 9.27541C7.81859 9.17221 7.84808 9.08375 7.9218 9.01003L10.4429 6.45947L11.0326 5.88449C10.4281 5.6486 9.77943 5.47168 9.27817 5.47168C8.01026 5.47168 5.84301 6.65113 5.75455 6.7101L5.57764 6.79856V7.03445C5.57764 7.87481 5.99044 10.3074 6.38851 11.5016C6.47697 11.767 6.63914 12.0176 6.81606 12.2683L7.34681 11.7375C7.24361 11.5753 7.12567 11.4279 7.08144 11.2657C6.71286 10.16 6.37377 8.15493 6.31479 7.24086C7.02247 6.90176 8.48204 6.23832 9.29291 6.23832C9.39611 6.23832 9.51406 6.25307 9.632 6.26781L7.42053 8.49402C7.19938 8.68569 7.08144 8.98055 7.08144 9.27541C7.08144 9.57027 7.18464 9.85039 7.40579 10.0715C7.83334 10.5138 8.55575 10.5138 8.9833 10.0715L10.1038 8.95106C10.2512 8.80363 10.4871 8.80363 10.6345 8.95106C10.7083 9.02478 10.7377 9.11324 10.7377 9.21644C10.7377 9.31964 10.7083 9.4081 10.6345 9.48182L7.30258 12.8138C8.05449 13.5067 8.93907 14.008 9.08651 14.0817L9.24868 14.1849L9.41085 14.0817C11.6666 12.858 12.1236 11.6343 12.1678 11.5016C12.5659 10.2927 12.9787 7.87481 12.9787 7.03445V6.79856L12.8165 6.7101Z" fill="#F36D21"/>
<path d="M34.5626 14.937V17.3991H34.2235L32.9703 15.6005H32.9408V17.3991H32.5723V14.937H32.9261L34.1793 16.7357H34.194V14.937H34.5626Z" fill="#7A848D"/>
<path d="M35.8303 17.4283C35.6681 17.4283 35.5059 17.3841 35.3733 17.3104C35.2553 17.2367 35.1374 17.1335 35.0637 16.9713C34.9899 16.8386 34.9604 16.6617 34.9604 16.47C34.9604 16.2784 34.9899 16.1162 35.0637 15.9688C35.1374 15.8361 35.2258 15.7034 35.3733 15.6297C35.4912 15.5559 35.6534 15.5117 35.8303 15.5117C35.9925 15.5117 36.1546 15.5559 36.2873 15.6297C36.4053 15.7034 36.5232 15.8066 36.5969 15.9688C36.6707 16.1014 36.7001 16.2784 36.7001 16.47C36.7001 16.6469 36.6707 16.8239 36.5969 16.9713C36.5232 17.104 36.4348 17.2367 36.2873 17.3104C36.1546 17.3988 36.0072 17.4283 35.8303 17.4283ZM35.8303 17.1482C35.9335 17.1482 36.022 17.1187 36.1104 17.0597C36.1841 17.0008 36.2284 16.9271 36.2726 16.8239C36.3021 16.7354 36.3168 16.6027 36.3168 16.4995C36.3168 16.3816 36.3021 16.2636 36.2726 16.1752C36.2431 16.0867 36.1841 15.9982 36.1104 15.9245C36.0367 15.8656 35.9482 15.8361 35.8303 15.8361C35.7271 15.8361 35.6091 15.8656 35.5502 15.9245C35.4765 15.9835 35.4322 16.0572 35.388 16.1752C35.3585 16.2636 35.3438 16.3963 35.3438 16.4995C35.3438 16.6175 35.3585 16.7354 35.388 16.8239C35.4175 16.9123 35.4765 17.0008 35.5502 17.0597C35.6386 17.1187 35.7271 17.1482 35.8303 17.1482Z" fill="#7A848D"/>
<path d="M37.4228 17.399L36.8921 15.5562H37.2607L37.6292 16.9125H37.644L38.0126 15.5562H38.3811L38.7497 16.8978H38.7645L39.133 15.5562H39.5016L38.9709 17.399H38.6023L38.219 16.0722H38.1895L37.8062 17.399H37.4228Z" fill="#7A848D"/>
<path d="M40.6958 18.0921V15.5562H41.0496V15.8659H41.0791C41.0939 15.8216 41.1234 15.7921 41.1676 15.7332C41.2118 15.6889 41.256 15.6447 41.3298 15.6005C41.4035 15.571 41.4919 15.5415 41.6099 15.5415C41.7573 15.5415 41.89 15.571 42.0079 15.6447C42.1259 15.7184 42.2291 15.8216 42.2881 15.9691C42.347 16.1017 42.3913 16.2787 42.3913 16.4851C42.3913 16.6915 42.3618 16.8536 42.2881 17.0011C42.2291 17.1338 42.1406 17.2517 42.0079 17.3254C41.89 17.3991 41.7573 17.4434 41.6099 17.4434C41.5067 17.4434 41.4182 17.4286 41.3298 17.3844C41.256 17.3549 41.2118 17.3107 41.1676 17.2517C41.1234 17.2075 41.0939 17.1632 41.0791 17.119H41.0644V18.0921H40.6958ZM41.0496 16.4851C41.0496 16.6178 41.0644 16.7357 41.1086 16.8242C41.1381 16.9126 41.1971 16.9863 41.2708 17.06C41.3445 17.119 41.4182 17.1338 41.5362 17.1338C41.6394 17.1338 41.7278 17.1043 41.8163 17.0453C41.89 16.9863 41.9342 16.9126 41.9785 16.8094C42.0079 16.721 42.0374 16.5883 42.0374 16.4703C42.0374 16.3524 42.0227 16.2344 41.9785 16.146C41.949 16.0575 41.89 15.9838 41.8163 15.9101C41.7426 15.8511 41.6541 15.8216 41.5362 15.8216C41.433 15.8216 41.3445 15.8511 41.2708 15.8953C41.1971 15.9543 41.1528 16.0133 41.1086 16.1312C41.0644 16.2492 41.0496 16.3524 41.0496 16.4851Z" fill="#7A848D"/>
<path d="M43.3053 17.4434C43.1874 17.4434 43.0695 17.4286 42.981 17.3844C42.8925 17.3402 42.8188 17.2812 42.7451 17.2075C42.6861 17.1338 42.6714 17.0306 42.6714 16.8979C42.6714 16.7947 42.6861 16.721 42.7304 16.6325C42.7746 16.5735 42.8188 16.5146 42.8925 16.4851C42.9515 16.4408 43.0252 16.4114 43.1284 16.3966C43.2169 16.3819 43.2906 16.3671 43.3938 16.3524C43.497 16.3376 43.5855 16.3229 43.6739 16.3229C43.7476 16.3081 43.7919 16.3081 43.8214 16.2787C43.8508 16.2639 43.8656 16.2344 43.8656 16.1902V16.1755C43.8656 16.0723 43.8361 15.9985 43.7771 15.9248C43.7182 15.8659 43.6297 15.8364 43.5117 15.8364C43.3938 15.8364 43.2906 15.8659 43.2169 15.9101C43.1432 15.9543 43.0989 16.0133 43.0842 16.087L42.7451 16.0133C42.7893 15.9101 42.8336 15.8216 42.922 15.7332C42.9957 15.6594 43.0842 15.6152 43.2021 15.5857C43.3053 15.5562 43.4233 15.5415 43.5265 15.5415C43.6002 15.5415 43.6739 15.5562 43.7624 15.571C43.8361 15.5857 43.9246 15.6152 43.9983 15.6594C44.072 15.7037 44.131 15.7627 44.1752 15.8511C44.2194 15.9396 44.2489 16.0428 44.2489 16.1902V17.4139H43.8951V17.1485H43.8803C43.8508 17.1927 43.8214 17.237 43.7771 17.2812C43.7329 17.3254 43.6739 17.3549 43.6002 17.3844C43.497 17.4286 43.4085 17.4434 43.3053 17.4434ZM43.3938 17.1632C43.497 17.1632 43.5707 17.1485 43.6592 17.1043C43.7329 17.06 43.7771 17.0158 43.8214 16.9568C43.8508 16.8979 43.8803 16.8242 43.8803 16.7652V16.4998C43.8656 16.5146 43.8508 16.5293 43.8066 16.5293C43.7771 16.544 43.7329 16.544 43.6887 16.5588C43.6444 16.5588 43.6002 16.5735 43.556 16.5735C43.5117 16.5735 43.4823 16.5883 43.4528 16.5883C43.3791 16.603 43.3201 16.6178 43.2759 16.6325C43.2169 16.6472 43.1727 16.6767 43.1432 16.721C43.1137 16.7652 43.0989 16.8094 43.0989 16.8684C43.0989 16.9568 43.1284 17.0158 43.1874 17.06C43.2021 17.1338 43.2759 17.1632 43.3938 17.1632Z" fill="#7A848D"/>
<path d="M44.6909 17.3987V15.5559H45.0448V15.8507H45.0595C45.089 15.7475 45.148 15.6738 45.2364 15.6148C45.3249 15.5559 45.4133 15.5264 45.5313 15.5264C45.546 15.5264 45.5755 15.5264 45.605 15.5264C45.6345 15.5264 45.664 15.5264 45.6787 15.5264V15.8802C45.664 15.8802 45.6345 15.8655 45.605 15.8655C45.5755 15.8655 45.5313 15.8507 45.5018 15.8507C45.4133 15.8507 45.3396 15.8655 45.2659 15.9097C45.2069 15.9392 45.148 15.9981 45.1185 16.0571C45.0742 16.1161 45.0595 16.1898 45.0595 16.2783V17.4135L44.6909 17.3987Z" fill="#7A848D"/>
<path d="M46.9469 15.5561V15.8509H45.9443V15.5561H46.9469ZM46.195 15.1138H46.5635V16.8535C46.5635 16.9272 46.5783 16.9714 46.593 17.0009C46.6078 17.0304 46.6373 17.0599 46.6667 17.0746C46.6962 17.0894 46.7405 17.0894 46.77 17.0894C46.7994 17.0894 46.8289 17.0894 46.8437 17.0894C46.8584 17.0894 46.8879 17.0894 46.8879 17.0746L46.9469 17.3695C46.9321 17.3842 46.9026 17.3842 46.8584 17.399C46.8142 17.4137 46.77 17.4137 46.7257 17.4137C46.6373 17.4137 46.5488 17.399 46.4603 17.3695C46.3866 17.34 46.3129 17.281 46.2687 17.2073C46.2245 17.1336 46.195 17.0451 46.195 16.9272V15.1138Z" fill="#7A848D"/>
<path d="M48.9963 17.443C48.8341 17.443 48.672 17.3987 48.5393 17.325C48.4213 17.2513 48.3034 17.1481 48.2297 16.9859C48.156 16.8533 48.1265 16.6763 48.1265 16.4847C48.1265 16.293 48.156 16.1308 48.2297 15.9834C48.3034 15.8507 48.3918 15.718 48.5393 15.6443C48.6572 15.5706 48.8194 15.5264 48.9963 15.5264C49.1585 15.5264 49.3207 15.5706 49.4533 15.6443C49.5713 15.718 49.6892 15.8212 49.763 15.9834C49.8367 16.1161 49.8662 16.293 49.8662 16.4847C49.8662 16.6616 49.8367 16.8385 49.763 16.9859C49.6892 17.1186 49.6008 17.2513 49.4533 17.325C49.3207 17.3987 49.1585 17.443 48.9963 17.443ZM48.9963 17.1481C49.0995 17.1481 49.188 17.1186 49.2764 17.0597C49.3501 17.0007 49.3944 16.927 49.4386 16.8238C49.4828 16.7206 49.4976 16.6026 49.4976 16.4994C49.4976 16.3815 49.4828 16.2635 49.4386 16.1751C49.4091 16.0866 49.3501 15.9981 49.2764 15.9244C49.2027 15.8655 49.1143 15.836 48.9963 15.836C48.8931 15.836 48.7752 15.8655 48.7162 15.9244C48.6425 15.9834 48.5982 16.0571 48.554 16.1751C48.5245 16.2635 48.495 16.3962 48.495 16.4994C48.495 16.6174 48.5098 16.7353 48.554 16.8238C48.5982 16.9122 48.6425 17.0007 48.7162 17.0597C48.7899 17.1186 48.8784 17.1481 48.9963 17.1481Z" fill="#7A848D"/>
<path d="M51.1189 15.556V15.8509H50.0869V15.556H51.1189ZM50.3523 17.3989V15.3349C50.3523 15.2169 50.3818 15.1137 50.426 15.04C50.4702 14.9663 50.544 14.9073 50.6177 14.8778C50.6914 14.8483 50.7798 14.8188 50.8978 14.8188C50.9715 14.8188 51.0305 14.8188 51.0747 14.8336C51.1189 14.8483 51.1632 14.8483 51.1779 14.8631L51.0894 15.1579C51.0747 15.1579 51.0452 15.1432 51.0305 15.1432C51.001 15.1432 50.9715 15.1285 50.942 15.1285C50.8536 15.1285 50.7946 15.1432 50.7651 15.1874C50.7356 15.2317 50.7061 15.2906 50.7061 15.3643V17.3842H50.3523V17.3989Z" fill="#7A848D"/>
<path d="M61.4541 14.5975V17.7967H62.4124V17.3102H62.1028V14.0962H61.4541V14.5975Z" fill="#EE3435"/>
<path d="M53.0802 17.3103H53.4045V15.7475H53.0802V15.32L53.4045 15.261V14.8334C53.4045 14.3174 53.5077 14.0815 54.1859 14.0815C54.3186 14.0815 54.5103 14.0963 54.6429 14.1258L54.5545 14.6418C54.4513 14.627 54.4071 14.627 54.3333 14.627C54.0975 14.627 54.0385 14.6565 54.0385 14.8924V15.2757H54.525V15.7475H54.0385V17.2955H54.3628V17.7821H53.0654L53.0802 17.3103Z" fill="#EE3435"/>
<path d="M61.1153 17.148C61.0121 17.1628 60.9384 17.1628 60.8499 17.1628C60.5845 17.1628 60.5993 17.089 60.5993 16.8237V15.7327H61.1006V15.2756H60.614V14.0962H59.9653V16.9711C59.9653 17.5313 60.098 17.7967 60.7172 17.7967C60.8499 17.7967 61.0563 17.7672 61.2038 17.723L61.1153 17.148Z" fill="#EE3435"/>
<path d="M65.1403 17.3101C65.273 17.3101 65.3909 17.4133 65.3909 17.5607C65.3909 17.6934 65.2877 17.8113 65.1403 17.8113C64.9929 17.8113 64.8896 17.7081 64.8896 17.5607C64.8896 17.4133 64.9929 17.3101 65.1403 17.3101ZM65.1403 17.7524C65.2435 17.7524 65.3319 17.6639 65.3319 17.5607C65.3319 17.4575 65.2435 17.369 65.1403 17.369C65.0371 17.369 64.9486 17.4575 64.9486 17.5607C64.9191 17.6639 65.0223 17.7524 65.1403 17.7524ZM65.1845 17.6786L65.1403 17.6049H65.1108V17.6786H65.0518V17.428H65.155C65.214 17.428 65.2435 17.4575 65.2435 17.5017C65.2435 17.5459 65.2287 17.5607 65.1993 17.5754L65.2582 17.6492L65.1845 17.6786ZM65.0961 17.5607H65.1403C65.1698 17.5607 65.1845 17.5459 65.1845 17.5312C65.1845 17.5017 65.1698 17.5017 65.1403 17.5017H65.0961V17.5607Z" fill="#EE3435"/>
<path d="M59.184 15.7477V15.6593C58.9923 15.6298 58.8007 15.6298 58.6975 15.6298C58.3878 15.6298 58.3584 15.7772 58.3584 15.8804C58.3584 15.9984 58.4026 16.0573 58.7269 16.1458C59.1987 16.249 59.6705 16.3669 59.6705 16.9567C59.6705 17.5169 59.3756 17.8118 58.7859 17.8118C58.3731 17.8118 57.9898 17.7233 57.6802 17.6496V17.1631H58.1667V17.2368C58.3878 17.281 58.5943 17.2663 58.7122 17.2663C59.0365 17.2663 59.0808 17.1041 59.0808 17.0009C59.0808 16.8829 58.9923 16.824 58.6827 16.7503C58.1225 16.6618 57.6802 16.4554 57.6802 15.8804C57.6802 15.3349 58.0488 15.1138 58.6385 15.1138C59.0513 15.1138 59.3609 15.1727 59.6558 15.2465V15.7182L59.184 15.7477Z" fill="#EE3435"/>
<path d="M56.2056 16.1751L56.1613 16.1309L55.9107 16.352C55.896 16.352 55.8812 16.352 55.8665 16.352C55.8075 16.352 55.7485 16.411 55.7485 16.47C55.7485 16.5437 55.8075 16.5879 55.8665 16.5879C55.9255 16.5879 55.9844 16.5289 55.9844 16.47C55.9844 16.4552 55.9844 16.4405 55.9844 16.4405L56.2056 16.1751Z" fill="#EE3435"/>
<path d="M57.1936 17.1482V15.1431H56.5449V15.32C56.4122 15.2463 56.2648 15.1873 56.1026 15.1578V14.9219H56.1763V14.7598H55.5129V14.9219H55.5866V15.1578C54.9821 15.261 54.4956 15.8213 54.4956 16.4552C54.4956 17.1924 55.0853 17.7821 55.8225 17.7821C56.0731 17.7821 56.309 17.7084 56.5154 17.6052L56.6334 17.7821H57.3263V17.1334H57.1936V17.1482ZM55.9109 17.1482V17.0744H55.8372V17.1482C55.4834 17.1334 55.2033 16.8385 55.1885 16.4995H55.2623V16.4257H55.1885C55.2033 16.0719 55.4834 15.7918 55.8372 15.777V15.8508H55.9109V15.777C56.25 15.7918 56.5154 16.0719 56.5596 16.411V16.4257H56.4859V16.4995H56.5596V16.5142C56.5154 16.868 56.2353 17.1334 55.9109 17.1482Z" fill="#EE3435"/>
<path d="M64.0491 15.2759H65.376V15.7477H65.0516L64.2407 17.7675C64.0049 18.3277 63.6363 18.8732 63.0318 18.8732C62.8991 18.8732 62.6927 18.8585 62.56 18.829L62.619 18.254C62.7075 18.2687 62.8107 18.2835 62.8844 18.2835C63.1645 18.2835 63.4594 18.1213 63.5626 17.8264L62.7369 15.7919H62.4126V15.2906H63.7395V15.7624H63.4151L63.8869 16.9124L64.3587 15.7624H64.0343V15.2759H64.0491Z" fill="#EE3435"/>
</svg>
