<svg width="72" height="24" viewBox="0 0 72 24" fill="none" xmlns="http://www.w3.org/2000/svg">
<g clip-path="url(#clip0_2882_505)">
<path d="M3 8.43991V10.3409C3 10.4572 3.04619 10.5687 3.12842 10.6509C3.21064 10.7331 3.32216 10.7793 3.43845 10.7793H8.42122C8.5375 10.7793 8.64902 10.7331 8.73125 10.6509C8.81347 10.5687 8.85967 10.4572 8.85967 10.3409V8.43991C8.85967 8.32363 8.81347 8.21211 8.73125 8.12988C8.64902 8.04766 8.5375 8.00146 8.42122 8.00146H3.43845C3.32216 8.00146 3.21064 8.04766 3.12842 8.12988C3.04619 8.21211 3 8.32363 3 8.43991Z" fill="url(#paint0_linear_2882_505)"/>
<path d="M3 8.43991V10.3409C3 10.4572 3.04619 10.5687 3.12842 10.6509C3.21064 10.7331 3.32216 10.7793 3.43845 10.7793H8.42122C8.5375 10.7793 8.64902 10.7331 8.73125 10.6509C8.81347 10.5687 8.85967 10.4572 8.85967 10.3409V8.43991C8.85967 8.32363 8.81347 8.21211 8.73125 8.12988C8.64902 8.04766 8.5375 8.00146 8.42122 8.00146H3.43845C3.32216 8.00146 3.21064 8.04766 3.12842 8.12988C3.04619 8.21211 3 8.32363 3 8.43991Z" fill="url(#paint1_linear_2882_505)"/>
<path d="M17.9086 10.1316C17.5464 9.48489 17.0183 8.94648 16.3787 8.57181C15.7391 8.19714 15.0113 7.99976 14.27 8C14.156 8 14.0431 8.00452 13.9313 8.01356C13.8987 8.00598 13.8653 8.00213 13.8318 8.00208H9.29785C9.24017 8.00199 9.18303 8.01329 9.12972 8.03533C9.07641 8.05737 9.02798 8.08972 8.98719 8.13052C8.94641 8.17131 8.91408 8.21976 8.89207 8.27308C8.87005 8.3264 8.85877 8.38354 8.85889 8.44123V10.3422C8.85886 10.3998 8.87019 10.4568 8.8922 10.51C8.91422 10.5632 8.94649 10.6115 8.98719 10.6522C9.02789 10.6929 9.07621 10.7252 9.1294 10.7473C9.18258 10.7693 9.23959 10.7806 9.29716 10.7806H10.3365V10.7827H17.5286C17.6049 10.7828 17.6798 10.7628 17.746 10.7248C17.8121 10.6869 17.8672 10.6322 17.9056 10.5663C17.9441 10.5004 17.9646 10.4256 17.9651 10.3494C17.9657 10.2731 17.9462 10.198 17.9086 10.1316Z" fill="url(#paint2_linear_2882_505)"/>
<path d="M17.9086 10.1316C17.5464 9.48489 17.0183 8.94648 16.3787 8.57181C15.7391 8.19714 15.0113 7.99976 14.27 8C14.156 8 14.0431 8.00452 13.9313 8.01356C13.8987 8.00598 13.8653 8.00213 13.8318 8.00208H9.29785C9.24017 8.00199 9.18303 8.01329 9.12972 8.03533C9.07641 8.05737 9.02798 8.08972 8.98719 8.13052C8.94641 8.17131 8.91408 8.21976 8.89207 8.27308C8.87005 8.3264 8.85877 8.38354 8.85889 8.44123V10.3422C8.85886 10.3998 8.87019 10.4568 8.8922 10.51C8.91422 10.5632 8.94649 10.6115 8.98719 10.6522C9.02789 10.6929 9.07621 10.7252 9.1294 10.7473C9.18258 10.7693 9.23959 10.7806 9.29716 10.7806H10.3365V10.7827H17.5286C17.6049 10.7828 17.6798 10.7628 17.746 10.7248C17.8121 10.6869 17.8672 10.6322 17.9056 10.5663C17.9441 10.5004 17.9646 10.4256 17.9651 10.3494C17.9657 10.2731 17.9462 10.198 17.9086 10.1316Z" fill="url(#paint3_linear_2882_505)"/>
<path d="M17.9089 14.21C17.5467 14.8567 17.0186 15.3951 16.379 15.7698C15.7394 16.1445 15.0115 16.3418 14.2703 16.3416C14.1563 16.3416 14.0434 16.3371 13.9316 16.328C13.899 16.3356 13.8656 16.3395 13.832 16.3395H9.29814C9.24057 16.3395 9.18356 16.3282 9.13038 16.3061C9.07719 16.2841 9.02887 16.2518 8.98817 16.2111C8.94747 16.1704 8.91519 16.122 8.89318 16.0688C8.87116 16.0157 8.85984 15.9586 8.85986 15.9011V14.0001C8.85984 13.9425 8.87116 13.8855 8.89318 13.8323C8.91519 13.7791 8.94747 13.7308 8.98817 13.6901C9.02887 13.6494 9.07719 13.6171 9.13038 13.595C9.18356 13.573 9.24057 13.5617 9.29814 13.5617H10.3375V13.5596H17.5295C17.6057 13.5597 17.6804 13.5798 17.7464 13.6178C17.8124 13.6558 17.8673 13.7103 17.9056 13.7761C17.944 13.8418 17.9644 13.9165 17.965 13.9926C17.9656 14.0687 17.9463 14.1437 17.9089 14.21Z" fill="url(#paint4_linear_2882_505)"/>
<path d="M17.9089 14.21C17.5467 14.8567 17.0186 15.3951 16.379 15.7698C15.7394 16.1445 15.0115 16.3418 14.2703 16.3416C14.1563 16.3416 14.0434 16.3371 13.9316 16.328C13.899 16.3356 13.8656 16.3395 13.832 16.3395H9.29814C9.24057 16.3395 9.18356 16.3282 9.13038 16.3061C9.07719 16.2841 9.02887 16.2518 8.98817 16.2111C8.94747 16.1704 8.91519 16.122 8.89318 16.0688C8.87116 16.0157 8.85984 15.9586 8.85986 15.9011V14.0001C8.85984 13.9425 8.87116 13.8855 8.89318 13.8323C8.91519 13.7791 8.94747 13.7308 8.98817 13.6901C9.02887 13.6494 9.07719 13.6171 9.13038 13.595C9.18356 13.573 9.24057 13.5617 9.29814 13.5617H10.3375V13.5596H17.5295C17.6057 13.5597 17.6804 13.5798 17.7464 13.6178C17.8124 13.6558 17.8673 13.7103 17.9056 13.7761C17.944 13.8418 17.9644 13.9165 17.965 13.9926C17.9656 14.0687 17.9463 14.1437 17.9089 14.21Z" fill="url(#paint5_linear_2882_505)"/>
<path d="M14.2701 8H7.38845V8.00208H3.44922C4.51404 8.06228 5.51545 8.52772 6.24796 9.30289C6.98048 10.0781 7.38855 11.1042 7.38845 12.1707V15.907C7.38845 16.0222 7.43422 16.1327 7.5157 16.2142C7.59717 16.2956 7.70767 16.3414 7.8229 16.3414H14.2701C13.164 16.3414 12.1031 15.902 11.321 15.1198C10.5388 14.3377 10.0994 13.2768 10.0994 12.1707C10.0994 11.0646 10.5388 10.0037 11.321 9.22157C12.1031 8.43941 13.164 8 14.2701 8Z" fill="url(#paint6_linear_2882_505)"/>
<path d="M26.4856 10.9136H26.4375C26.1863 10.904 25.9385 10.975 25.7304 11.1161C25.5462 11.2544 25.4056 11.4427 25.3253 11.6586V9.78076H19.4067V10.7694H21.3969V14.8471H22.5228V10.7694H24.2203V14.8471H25.3255V12.6227C25.3171 12.4308 25.385 12.2434 25.5144 12.1014C25.5786 12.035 25.6561 11.9829 25.7419 11.9486C25.8277 11.9143 25.9198 11.8986 26.0121 11.9024C26.0996 11.8986 26.187 11.913 26.2686 11.9449C26.3501 11.9768 26.4241 12.0255 26.4858 12.0877C26.5467 12.1542 26.5939 12.2321 26.6245 12.3169C26.6551 12.4018 26.6687 12.4918 26.6643 12.5819V14.8471H27.7695V12.6504C27.7695 12.0827 27.6595 11.6513 27.4393 11.3562C27.3289 11.2098 27.1842 11.0928 27.0179 11.0157C26.8515 10.9385 26.6687 10.9034 26.4856 10.9136Z" fill="white"/>
<path d="M30.5099 11.0303H30.3163C29.886 11.0303 29.5576 11.1265 29.3312 11.4148C29.1467 11.6679 29.0362 11.9672 29.0119 12.2794V11.0304H28.1333V14.8475H29.2385V12.8772C29.2307 12.5946 29.3295 12.3194 29.5152 12.1063C29.6027 12.0184 29.7075 11.9494 29.8228 11.9037C29.9382 11.8581 30.0618 11.8367 30.1858 11.841H30.5099V11.0303Z" fill="white"/>
<path d="M32.7139 13.9143C32.5534 13.9944 32.3759 14.0344 32.1965 14.0308C32.0171 14.0273 31.8413 13.9802 31.6841 13.8938C31.5448 13.7997 31.439 13.6638 31.3821 13.5057C31.3454 13.407 31.3198 13.3046 31.306 13.2002H34.0527V12.8295C34.0558 12.4997 33.9805 12.1738 33.8331 11.8788C33.6886 11.5904 33.4693 11.3462 33.1981 11.1717C32.8924 10.983 32.5378 10.8886 32.1787 10.9004C31.8969 10.8955 31.6172 10.9505 31.3583 11.0618C31.128 11.1622 30.922 11.3109 30.7542 11.4979C30.5925 11.6797 30.4667 11.8905 30.3834 12.1191C30.2985 12.3511 30.2555 12.5964 30.2564 12.8434V12.9807C30.2563 13.2232 30.2993 13.4638 30.3834 13.6913C30.4679 13.9222 30.5948 14.1352 30.7575 14.3195C30.9276 14.5111 31.1373 14.6634 31.372 14.7658C31.6398 14.8802 31.9288 14.9364 32.2199 14.9305C32.508 14.9362 32.7939 14.8787 33.0575 14.7623C33.2919 14.6564 33.4986 14.4978 33.6616 14.2988C33.8212 14.1034 33.9318 13.8727 33.9843 13.626H32.9751C32.9223 13.7483 32.8305 13.8496 32.7139 13.9143ZM31.3891 12.3044C31.4476 12.15 31.5533 12.0179 31.6911 11.9269C31.8379 11.8384 32.0073 11.7943 32.1787 11.7999C32.3446 11.7939 32.5085 11.8382 32.6488 11.9269C32.7781 12.016 32.8765 12.1431 32.9303 12.2906C32.965 12.3826 32.9892 12.4782 33.0022 12.5756H31.3136C31.3287 12.4825 31.354 12.3914 31.3891 12.3038V12.3044Z" fill="white"/>
<path d="M51.9122 10.9137H51.864C51.6058 10.9057 51.3507 10.9725 51.1295 11.1059C50.9204 11.2437 50.7624 11.4463 50.6797 11.6825C50.6433 11.7792 50.6147 11.8786 50.594 11.9799V11.0295H49.7152V12.8418C49.7163 12.5865 49.6674 12.3335 49.5712 12.097C49.4771 11.8643 49.337 11.6529 49.1593 11.4756C48.9737 11.2926 48.7531 11.149 48.5106 11.0535C47.9535 10.8474 47.341 10.8474 46.7839 11.0535C46.5394 11.1488 46.3165 11.2924 46.1284 11.4756C45.9489 11.6521 45.8076 11.8636 45.7131 12.097C45.6168 12.3335 45.5678 12.5865 45.5689 12.8418V12.9998C45.5677 13.25 45.6143 13.4981 45.7062 13.7309C45.7978 13.9622 45.9356 14.1725 46.1112 14.3488C46.2968 14.5343 46.5189 14.6793 46.7634 14.7744C47.3335 14.9803 47.9577 14.9803 48.5278 14.7744C48.7655 14.6826 48.9816 14.5424 49.1624 14.3628C49.3432 14.1832 49.4848 13.968 49.5781 13.7309C49.6699 13.4981 49.7165 13.25 49.7154 12.9998V14.8474H50.8208V12.6025C50.8166 12.5095 50.8311 12.4166 50.8636 12.3294C50.896 12.2421 50.9456 12.1623 51.0096 12.0946C51.0748 12.03 51.1527 11.9796 51.2383 11.9465C51.324 11.9134 51.4155 11.8984 51.5073 11.9024C51.5956 11.8979 51.6839 11.9125 51.7662 11.945C51.8485 11.9776 51.9229 12.0274 51.9843 12.0911C52.1043 12.2257 52.1671 12.4018 52.1594 12.582V14.8474H53.265V12.6437C53.265 12.0625 53.1495 11.6288 52.9183 11.3428C52.7957 11.1978 52.6409 11.0834 52.4662 11.0089C52.2914 10.9344 52.1017 10.9018 51.9122 10.9137ZM48.5002 13.4744C48.4331 13.6317 48.3208 13.7655 48.1775 13.8588C48.0146 13.9489 47.8316 13.9961 47.6454 13.9961C47.4593 13.9961 47.2763 13.9489 47.1134 13.8588C46.9667 13.7674 46.8514 13.6332 46.7832 13.4744C46.7101 13.2974 46.6728 13.1077 46.6734 12.9162C46.674 12.7247 46.7125 12.5352 46.7867 12.3587C46.8581 12.201 46.9738 12.0675 47.1197 11.9743C47.2787 11.8821 47.4593 11.8336 47.6432 11.8336C47.827 11.8336 48.0076 11.8821 48.1667 11.9743C48.3112 12.0683 48.4258 12.2017 48.4969 12.3587C48.5711 12.5352 48.6096 12.7247 48.6102 12.9162C48.6108 13.1077 48.5734 13.2974 48.5004 13.4744H48.5002Z" fill="white"/>
<path d="M55.8252 10.9135H55.7772C55.5189 10.9055 55.2639 10.9722 55.0426 11.1057C54.8336 11.2434 54.6756 11.446 54.5929 11.6823C54.5565 11.7789 54.5278 11.8783 54.5071 11.9795V11.0299H53.6284V14.847H54.7337V12.6018C54.7294 12.5088 54.7439 12.4159 54.7764 12.3286C54.8088 12.2413 54.8584 12.1615 54.9224 12.0938C54.9876 12.0292 55.0655 11.9788 55.1512 11.9457C55.2368 11.9127 55.3284 11.8976 55.4201 11.9016C55.5085 11.8971 55.5968 11.9117 55.6791 11.9442C55.7615 11.9768 55.8358 12.0266 55.8973 12.0903C56.0172 12.225 56.08 12.4011 56.0723 12.5813V14.8466H57.1775V12.6435C57.1775 12.0622 57.062 11.6286 56.8308 11.3426C56.7083 11.1976 56.5535 11.0833 56.3789 11.0088C56.2042 10.9343 56.0146 10.9017 55.8252 10.9135Z" fill="white"/>
<path d="M63.5207 13.6837C63.461 13.7776 63.377 13.8536 63.2774 13.9034C63.1608 13.959 63.0326 13.986 62.9035 13.9823C62.7341 13.9903 62.5667 13.9433 62.4263 13.8483C62.3008 13.7533 62.2083 13.6212 62.162 13.4708C62.1049 13.2946 62.0771 13.1102 62.0796 12.925C62.0759 12.7324 62.1061 12.5407 62.1689 12.3586C62.22 12.2078 62.3142 12.0753 62.44 11.9775C62.5727 11.8825 62.7333 11.8342 62.8965 11.8403C62.9875 11.8346 63.0787 11.8473 63.1648 11.8773C63.2508 11.9074 63.33 11.9544 63.3977 12.0154C63.5163 12.1314 63.5894 12.2861 63.6036 12.4514H64.6811C64.6702 12.1664 64.5819 11.8896 64.4258 11.6508C64.2697 11.4121 64.0516 11.2203 63.7948 11.096C63.5145 10.9612 63.2064 10.8942 62.8955 10.9003C62.6118 10.8949 62.33 10.9487 62.0683 11.0583C61.8377 11.1566 61.6315 11.3042 61.4641 11.4908C61.3016 11.674 61.1768 11.8875 61.0969 12.119C61.0152 12.3537 60.9736 12.6004 60.9736 12.8489V12.8303C60.9767 12.5004 60.9014 12.1746 60.754 11.8795C60.6095 11.5912 60.3902 11.347 60.119 11.1724C59.8132 10.9837 59.4586 10.8893 59.0994 10.9012C58.8176 10.8962 58.538 10.9513 58.279 11.0626C58.0488 11.163 57.8428 11.3117 57.675 11.4986C57.5133 11.6804 57.3875 11.8912 57.3043 12.1199C57.2194 12.3519 57.1764 12.5971 57.1773 12.8442V12.9815C57.1772 13.224 57.2202 13.4646 57.3043 13.6921C57.3888 13.9229 57.5157 14.136 57.6784 14.3203C57.8485 14.5118 58.0581 14.6641 58.2929 14.7665C58.5606 14.881 58.8496 14.9372 59.1406 14.9313C59.4287 14.9369 59.7146 14.8795 59.9782 14.7631C60.2126 14.6572 60.4193 14.4985 60.5823 14.2996C60.7418 14.1042 60.8524 13.8735 60.9048 13.6267H59.8957C59.843 13.749 59.7514 13.8504 59.635 13.9152C59.4745 13.9953 59.297 14.0353 59.1176 14.0318C58.9382 14.0282 58.7624 13.9812 58.6052 13.8947C58.4659 13.8007 58.3601 13.6648 58.3032 13.5066C58.2665 13.4079 58.241 13.3055 58.2271 13.2011H60.9738V12.9973C60.9741 13.2385 61.0146 13.4779 61.0936 13.7058C61.1721 13.9343 61.2945 14.1454 61.454 14.327C61.6196 14.5142 61.8232 14.664 62.0512 14.7664C62.3311 14.8806 62.6313 14.9365 62.9336 14.9305C63.2358 14.9245 63.5336 14.8568 63.8087 14.7316C64.0659 14.606 64.2859 14.4155 64.4471 14.179C64.6097 13.9356 64.7001 13.6512 64.7078 13.3586H63.6368C63.6213 13.4739 63.5818 13.5847 63.5207 13.6837ZM58.2349 12.575C58.2502 12.4821 58.2755 12.3911 58.3105 12.3037C58.369 12.1493 58.4747 12.0172 58.6125 11.9263C58.7591 11.8379 58.928 11.7938 59.0991 11.7992C59.2651 11.7932 59.429 11.8375 59.5693 11.9263C59.6987 12.0153 59.7971 12.1425 59.8509 12.29C59.8856 12.382 59.9098 12.4776 59.923 12.575H58.2349Z" fill="white"/>
<path d="M36.6194 11.151C36.2958 11.0494 35.9564 11.0081 35.6179 11.0293H34.3724L34.3714 11.84L35.7581 11.8417C35.8371 11.8347 35.9166 11.8435 35.992 11.8676C36.0675 11.8918 36.1374 11.9309 36.1975 11.9825C36.2982 12.1272 36.3466 12.302 36.3347 12.478V12.4847H35.6549C35.3546 12.4797 35.0554 12.5226 34.7686 12.6118C34.5332 12.6811 34.3229 12.8171 34.163 13.0033C34.0262 13.1985 33.9626 13.4356 33.9833 13.673C33.9777 13.9042 34.038 14.1321 34.1571 14.3303C34.2725 14.512 34.4382 14.6563 34.6341 14.7456C34.8491 14.8423 35.0826 14.8908 35.3183 14.8876C35.5477 14.8947 35.7752 14.8451 35.9809 14.7433C36.1592 14.6496 36.3069 14.5066 36.4065 14.3315C36.454 14.2471 36.492 14.1577 36.5198 14.0649V14.8469H37.3927V12.4856C37.4051 12.187 37.3338 11.891 37.1868 11.6308C37.057 11.4116 36.8571 11.2426 36.6194 11.151ZM36.3347 13.3986C36.3346 13.5519 36.2969 13.7027 36.2249 13.838C36.169 13.9358 36.0839 14.0138 35.9816 14.0611C35.8764 14.1059 35.763 14.1281 35.6487 14.1263C35.4886 14.1369 35.3304 14.0866 35.2059 13.9855C35.155 13.9392 35.1148 13.8823 35.0881 13.8188C35.0614 13.7554 35.0489 13.6869 35.0514 13.6181C35.048 13.5472 35.0601 13.4765 35.0868 13.4107C35.1134 13.3449 35.1541 13.2857 35.2059 13.2372C35.3304 13.1361 35.4886 13.0858 35.6487 13.0964H36.3351L36.3347 13.3986Z" fill="white"/>
<path d="M67.467 11.8409V11.0307H66.3685V9.78125H65.3457L65.3434 11.0307H64.5327V11.8409H65.3417L65.3385 13.3232C65.3248 13.6327 65.3811 13.9413 65.5033 14.226C65.6089 14.4441 65.7927 14.6144 66.0182 14.7032C66.3128 14.8095 66.6251 14.8584 66.9382 14.8473H67.4658V13.9136H66.9107C66.8377 13.9183 66.7646 13.9083 66.6956 13.8841C66.6266 13.8599 66.5631 13.8221 66.5091 13.7728C66.4595 13.7176 66.4215 13.653 66.3973 13.5829C66.3732 13.5127 66.3634 13.4384 66.3685 13.3644V11.8409H67.467Z" fill="white"/>
<path d="M42.7387 10.5108C43.0801 10.4683 43.4262 10.5349 43.7275 10.701C44.0289 10.8671 44.27 11.1242 44.4163 11.4356H45.5687C45.4341 10.9255 45.1539 10.4656 44.7624 10.112C44.3709 9.75839 43.8849 9.52638 43.3638 9.44426C42.8426 9.36214 42.3089 9.43347 41.8276 9.64954C41.3463 9.86561 40.9383 10.2171 40.6533 10.6611C40.5821 10.7736 40.4837 10.8663 40.3672 10.9308C40.2507 10.9953 40.1199 11.0295 39.9867 11.0302H39.1239V9.78072H38.1009L38.0988 11.0302H37.2881V11.8409H38.097L38.0939 13.3232C38.0801 13.6327 38.1365 13.9413 38.2586 14.226C38.3643 14.4441 38.5481 14.6144 38.7736 14.7032C39.0682 14.8095 39.3805 14.8584 39.6935 14.8473H40.9192V13.9135H39.667C39.594 13.9183 39.5208 13.9083 39.4518 13.8841C39.3828 13.8599 39.3194 13.8221 39.2653 13.7728C39.2157 13.7176 39.1777 13.653 39.1536 13.5829C39.1294 13.5127 39.1196 13.4384 39.1248 13.3644V11.8404H39.9883C40.0506 11.8404 40.1103 11.8651 40.1544 11.9092C40.1985 11.9532 40.2232 12.013 40.2232 12.0753C40.2225 12.8031 40.5084 13.502 41.0189 14.0208C41.5294 14.5395 42.2236 14.8365 42.9514 14.8474C43.5495 14.8448 44.13 14.645 44.6031 14.2791C45.0762 13.9131 45.4154 13.4013 45.5682 12.8231H44.4158C44.2952 13.0797 44.1097 13.3004 43.8778 13.4634C43.6458 13.6265 43.3754 13.7262 43.0931 13.7529C42.8108 13.7795 42.5265 13.7321 42.2681 13.6153C42.0098 13.4985 41.7863 13.3164 41.6198 13.0869C41.4533 12.8574 41.3495 12.5885 41.3187 12.3067C41.2878 12.0248 41.3309 11.7398 41.4439 11.4797C41.5568 11.2196 41.7355 10.9935 41.9625 10.8236C42.1895 10.6536 42.4568 10.5458 42.7382 10.5108H42.7387Z" fill="white"/>
<path d="M68.5337 14.8471C68.7915 14.8471 69.0004 14.6381 69.0004 14.3803C69.0004 14.1226 68.7915 13.9136 68.5337 13.9136C68.2759 13.9136 68.0669 14.1226 68.0669 14.3803C68.0669 14.6381 68.2759 14.8471 68.5337 14.8471Z" fill="url(#paint7_radial_2882_505)"/>
</g>
<defs>
<linearGradient id="paint0_linear_2882_505" x1="5.92983" y1="10.7793" x2="5.92983" y2="8.00146" gradientUnits="userSpaceOnUse">
<stop stop-color="#FF7A4F"/>
<stop offset="0.267" stop-color="#F9744A"/>
<stop offset="0.591" stop-color="#EB663B"/>
<stop offset="0.944" stop-color="#D24D24"/>
<stop offset="1" stop-color="#CE4920"/>
</linearGradient>
<linearGradient id="paint1_linear_2882_505" x1="3" y1="9.3904" x2="6.41618" y2="9.3904" gradientUnits="userSpaceOnUse">
<stop offset="0.201" stop-color="#CE4920" stop-opacity="0"/>
<stop offset="0.293" stop-color="#CE4920" stop-opacity="0.024"/>
<stop offset="0.405" stop-color="#CE4920" stop-opacity="0.098"/>
<stop offset="0.527" stop-color="#CE4920" stop-opacity="0.216"/>
<stop offset="0.657" stop-color="#CE4920" stop-opacity="0.384"/>
<stop offset="0.792" stop-color="#CE4920" stop-opacity="0.596"/>
<stop offset="0.93" stop-color="#CE4920" stop-opacity="0.855"/>
<stop offset="1" stop-color="#CE4920"/>
</linearGradient>
<linearGradient id="paint2_linear_2882_505" x1="10.6528" y1="9.39136" x2="17.7375" y2="9.39136" gradientUnits="userSpaceOnUse">
<stop stop-color="#001C25"/>
<stop offset="0.5" stop-color="#335D7F"/>
<stop offset="1" stop-color="#8BB7EE"/>
</linearGradient>
<linearGradient id="paint3_linear_2882_505" x1="13.412" y1="8.07792" x2="13.412" y2="10.7132" gradientUnits="userSpaceOnUse">
<stop stop-color="#001C25" stop-opacity="0.502"/>
<stop offset="1" stop-color="#001C25" stop-opacity="0"/>
</linearGradient>
<linearGradient id="paint4_linear_2882_505" x1="10.69" y1="14.9506" x2="17.701" y2="14.9506" gradientUnits="userSpaceOnUse">
<stop stop-color="#001C25"/>
<stop offset="0.5" stop-color="#335D7F"/>
<stop offset="1" stop-color="#8BB7EE"/>
</linearGradient>
<linearGradient id="paint5_linear_2882_505" x1="8.85986" y1="16.005" x2="11.2738" y2="11.0118" gradientUnits="userSpaceOnUse">
<stop stop-color="#001C25" stop-opacity="0.502"/>
<stop offset="1" stop-color="#001C25" stop-opacity="0"/>
</linearGradient>
<linearGradient id="paint6_linear_2882_505" x1="8.85966" y1="8.35868" x2="8.85966" y2="15.9827" gradientUnits="userSpaceOnUse">
<stop stop-color="#FF7A4F"/>
<stop offset="0.5" stop-color="#FBD27E"/>
<stop offset="1" stop-color="#FF7A4F"/>
</linearGradient>
<radialGradient id="paint7_radial_2882_505" cx="0" cy="0" r="1" gradientUnits="userSpaceOnUse" gradientTransform="translate(68.3152 14.0881) scale(0.696423)">
<stop stop-color="#FBD27E"/>
<stop offset="1" stop-color="#FF7A4F"/>
</radialGradient>
<clipPath id="clip0_2882_505">
<rect width="66" height="8.34141" fill="white" transform="translate(3 8)"/>
</clipPath>
</defs>
</svg>
