<svg width="72" height="25" viewBox="0 0 72 25" fill="none" xmlns="http://www.w3.org/2000/svg">
<path fill-rule="evenodd" clip-rule="evenodd" d="M10.6908 17.7028C14.0567 17.7028 16.7853 14.9742 16.7853 11.6082C16.7853 8.2423 14.0567 5.51367 10.6908 5.51367C7.32482 5.51367 4.59619 8.2423 4.59619 11.6082C4.59619 14.9742 7.32482 17.7028 10.6908 17.7028Z" fill="#00CC66" stroke="#F5F5F5" stroke-width="1.05773"/>
<path d="M10.4263 16.4141C7.89044 16.2768 5.87662 14.1784 5.87646 11.6084C5.87646 9.03819 7.8903 6.93801 10.4263 6.80078V16.4141Z" fill="#A7FFD3" stroke="#00CC66" stroke-width="0.528863"/>
<path d="M15.4378 15.8269L19.4042 19.7934" stroke="#F5F5F5" stroke-width="1.05773" stroke-linecap="square"/>
<path d="M26.08 15.6533L25.112 10.4373H26.32L26.68 12.8773C26.712 13.1493 26.7467 13.424 26.784 13.7013C26.8213 13.9733 26.856 14.248 26.888 14.5253H26.92C26.9733 14.248 27.024 13.9733 27.072 13.7013C27.1253 13.424 27.1787 13.1493 27.232 12.8773L27.792 10.4373H28.792L29.352 12.8773C29.4053 13.1387 29.456 13.408 29.504 13.6853C29.5573 13.9627 29.6107 14.2427 29.664 14.5253H29.696C29.7333 14.2427 29.768 13.9653 29.8 13.6933C29.8373 13.416 29.8747 13.144 29.912 12.8773L30.272 10.4373H31.4L30.472 15.6533H28.992L28.48 13.2853C28.4373 13.0827 28.3973 12.88 28.36 12.6773C28.328 12.4693 28.2987 12.2693 28.272 12.0773H28.24C28.208 12.2693 28.1733 12.4693 28.136 12.6773C28.104 12.88 28.0667 13.0827 28.024 13.2853L27.536 15.6533H26.08ZM32.0278 15.6533V10.0453H33.2038V11.4213L33.1478 12.1333C33.2971 12 33.4705 11.8773 33.6678 11.7653C33.8705 11.648 34.1051 11.5893 34.3718 11.5893C34.8038 11.5893 35.1158 11.7333 35.3078 12.0213C35.5051 12.304 35.6038 12.6933 35.6038 13.1893V15.6533H34.4278V13.3413C34.4278 13.0533 34.3878 12.856 34.3078 12.7493C34.2331 12.6427 34.1105 12.5893 33.9398 12.5893C33.7905 12.5893 33.6625 12.624 33.5558 12.6933C33.4491 12.7573 33.3318 12.8507 33.2038 12.9733V15.6533H32.0278ZM38.3021 15.7493C37.9661 15.7493 37.6488 15.6693 37.3501 15.5093C37.0568 15.344 36.8195 15.1067 36.6381 14.7973C36.4568 14.4827 36.3661 14.1067 36.3661 13.6693C36.3661 13.2267 36.4568 12.8507 36.6381 12.5413C36.8195 12.232 37.0568 11.9973 37.3501 11.8373C37.6488 11.672 37.9661 11.5893 38.3021 11.5893C38.6381 11.5893 38.9528 11.672 39.2461 11.8373C39.5395 11.9973 39.7768 12.232 39.9581 12.5413C40.1395 12.8507 40.2301 13.2267 40.2301 13.6693C40.2301 14.1067 40.1395 14.4827 39.9581 14.7973C39.7768 15.1067 39.5395 15.344 39.2461 15.5093C38.9528 15.6693 38.6381 15.7493 38.3021 15.7493ZM38.3021 14.7973C38.5421 14.7973 38.7235 14.696 38.8461 14.4933C38.9688 14.2853 39.0301 14.0107 39.0301 13.6693C39.0301 13.3227 38.9688 13.048 38.8461 12.8453C38.7235 12.6427 38.5421 12.5413 38.3021 12.5413C38.0568 12.5413 37.8728 12.6427 37.7501 12.8453C37.6328 13.048 37.5741 13.3227 37.5741 13.6693C37.5741 14.0107 37.6328 14.2853 37.7501 14.4933C37.8728 14.696 38.0568 14.7973 38.3021 14.7973ZM41.0356 15.6533V11.6853H42.2116V15.6533H41.0356ZM41.6196 11.1013C41.4223 11.1013 41.2623 11.0453 41.1396 10.9333C41.017 10.8213 40.9556 10.672 40.9556 10.4853C40.9556 10.2987 41.017 10.1493 41.1396 10.0373C41.2623 9.92532 41.4223 9.86932 41.6196 9.86932C41.817 9.86932 41.977 9.92532 42.0996 10.0373C42.2223 10.1493 42.2836 10.2987 42.2836 10.4853C42.2836 10.672 42.2223 10.8213 42.0996 10.9333C41.977 11.0453 41.817 11.1013 41.6196 11.1013ZM44.4146 15.7493C44.1532 15.7493 43.8839 15.6987 43.6066 15.5973C43.3346 15.496 43.0972 15.3627 42.8946 15.1973L43.4226 14.4613C43.6039 14.5947 43.7772 14.6987 43.9426 14.7733C44.1132 14.8427 44.2812 14.8773 44.4466 14.8773C44.6226 14.8773 44.7506 14.848 44.8306 14.7893C44.9106 14.7253 44.9506 14.6427 44.9506 14.5413C44.9506 14.4507 44.9106 14.376 44.8306 14.3173C44.7559 14.2587 44.6572 14.2053 44.5346 14.1573C44.4119 14.104 44.2812 14.0507 44.1426 13.9973C43.9826 13.9333 43.8226 13.8533 43.6626 13.7573C43.5079 13.6613 43.3772 13.5387 43.2706 13.3893C43.1639 13.2347 43.1106 13.048 43.1106 12.8293C43.1106 12.4613 43.2492 12.1627 43.5266 11.9333C43.8092 11.704 44.1772 11.5893 44.6306 11.5893C44.9346 11.5893 45.2012 11.6427 45.4306 11.7493C45.6652 11.8507 45.8652 11.9653 46.0306 12.0933L45.5026 12.7973C45.3639 12.6907 45.2252 12.608 45.0866 12.5493C44.9479 12.4907 44.8092 12.4613 44.6706 12.4613C44.3666 12.4613 44.2146 12.5653 44.2146 12.7733C44.2146 12.9013 44.2892 13 44.4386 13.0693C44.5932 13.1333 44.7719 13.2027 44.9746 13.2773C45.1452 13.336 45.3106 13.4133 45.4706 13.5093C45.6359 13.6 45.7719 13.7227 45.8786 13.8773C45.9906 14.0267 46.0466 14.224 46.0466 14.4693C46.0466 14.8267 45.9079 15.1307 45.6306 15.3813C45.3532 15.6267 44.9479 15.7493 44.4146 15.7493Z" fill="white"/>
</svg>
