<svg width="72" height="24" viewBox="0 0 72 24" fill="none" xmlns="http://www.w3.org/2000/svg">
<g clip-path="url(#clip0_4390_4658)">
<path d="M67.3063 11.9073V16.1455H65.7168V12.1873C65.7168 11.2234 65.2933 10.6848 64.4683 10.6848C63.6433 10.6848 63.0988 11.2503 62.9448 12.1981C62.9008 12.4243 62.8898 12.7743 62.8898 13.5121V16.1401H61.3003V9.40854H62.7083C62.7138 9.46778 62.7468 10.0709 62.7468 10.1086C62.7468 10.1571 62.8073 10.184 62.8458 10.1517C63.4288 9.69935 64.0723 9.2793 64.9688 9.2793C66.4428 9.2793 67.3063 10.254 67.3063 11.9073Z" fill="white"/>
<path d="M58.7369 9.4144L58.6874 10.1845C58.6819 10.233 58.6214 10.2599 58.5884 10.2276C58.3959 10.0499 57.6864 9.28516 56.4819 9.28516C54.7549 9.28516 53.4844 10.7446 53.4844 12.7263C53.4844 14.735 54.7439 16.1998 56.4819 16.1998C57.6424 16.1998 58.3519 15.462 58.4839 15.3005C58.5224 15.2574 58.5939 15.2843 58.5939 15.3382C58.5774 15.5428 58.5499 16.0544 58.3739 16.4906C58.1539 17.0399 57.6589 17.5515 56.6634 17.5515C55.8439 17.5515 55.1179 17.2446 54.4304 16.5876L53.5999 17.7023C54.3534 18.537 55.5414 19.0055 56.8339 19.0055C58.9129 19.0055 60.1614 17.6108 60.1614 15.3328V9.4144H58.7369ZM56.8229 14.7889C55.7944 14.7889 55.0684 13.9165 55.0684 12.7263C55.0684 11.5362 55.7944 10.6853 56.8229 10.6853C57.8514 10.6853 58.5774 11.5308 58.5774 12.7263C58.5719 13.9219 57.8459 14.7889 56.8229 14.7889Z" fill="white"/>
<path d="M50.1627 14.1475C50.1627 15.4238 49.0682 16.2801 47.4622 16.2801C46.2027 16.2801 45.0807 15.8008 44.4097 15.1169L44.9322 13.8998C45.4382 14.3468 46.2522 14.9876 47.4127 14.9876C48.2212 14.9876 48.6887 14.6376 48.6887 14.196C48.6887 13.6844 48.0452 13.5498 47.2752 13.4044C46.1807 13.1782 44.7287 12.812 44.7287 11.3526C44.7287 10.1301 45.7407 9.29004 47.2367 9.29004C48.3862 9.29004 49.3762 9.72086 50.0582 10.2809L49.2772 11.3526C48.6172 10.841 47.9242 10.5879 47.2367 10.5879C46.5492 10.5879 46.2082 10.8679 46.2082 11.2718C46.2082 11.8373 46.9507 11.9827 47.4952 12.0904C48.8647 12.3489 50.1627 12.7528 50.1627 14.1475Z" fill="white"/>
<path d="M26.9196 9.2793C24.9781 9.2793 23.5811 10.7549 23.5811 12.7797C23.5811 14.8046 24.9781 16.2801 26.9196 16.2801C28.8611 16.2801 30.2636 14.8046 30.2636 12.7797C30.2636 10.7549 28.8666 9.2793 26.9196 9.2793ZM26.9196 14.8692C25.8911 14.8692 25.1651 14.0129 25.1651 12.7743C25.1651 11.5411 25.8746 10.6795 26.9196 10.6795C27.9591 10.6795 28.6741 11.5357 28.6741 12.7743C28.6741 14.0129 27.9481 14.8692 26.9196 14.8692Z" fill="white"/>
<path d="M30.8247 12.7797C30.8247 10.7818 32.2217 9.2793 34.0862 9.2793C35.5657 9.2793 36.6492 10.0063 37.1552 11.3742L35.7472 11.8965C35.3622 11.051 34.8562 10.6902 34.0917 10.6902C33.1347 10.6902 32.4197 11.5734 32.4197 12.7851C32.4197 13.9914 33.1292 14.88 34.0917 14.88C34.8617 14.88 35.3622 14.5191 35.7472 13.6737L37.1552 14.196C36.6492 15.5639 35.5657 16.2909 34.0862 16.2909C32.2217 16.2801 30.8247 14.7776 30.8247 12.7797Z" fill="white"/>
<path d="M22.3271 6.28516C22.2996 6.28516 22.2666 6.29054 22.2391 6.3067L21.2051 6.84522C21.1831 6.85599 21.1721 6.87753 21.1721 6.89908V10.1033C21.1721 10.1572 21.1061 10.1787 21.0676 10.1464C20.9136 10.0171 20.5561 9.68864 20.0611 9.46246C19.8026 9.34398 19.4231 9.27936 19.0766 9.27936C17.3386 9.27936 16.0791 10.7549 16.0791 12.7798C16.0791 14.8046 17.3386 16.2802 19.0766 16.2802C19.9896 16.2802 20.6771 15.8117 21.0951 15.3916C21.1226 15.3647 21.1391 15.3485 21.1666 15.3216C21.2051 15.2839 21.2711 15.3055 21.2711 15.3593L21.3261 16.1456H22.7616V6.32824C22.7616 6.3067 22.7451 6.28516 22.7176 6.28516H22.3271ZM19.4176 14.8692C18.3781 14.8692 17.6631 14.013 17.6631 12.7744C17.6631 11.5358 18.3946 10.6849 19.4176 10.6849C20.4461 10.6849 21.1721 11.5412 21.1721 12.7798C21.1721 14.013 20.4626 14.8692 19.4176 14.8692Z" fill="white"/>
<path d="M52.0324 9.43513L51.0369 9.95211C51.0149 9.96288 51.0039 9.98443 51.0039 10.006V16.1452H52.5934V9.45129C52.5934 9.42974 52.5769 9.4082 52.5494 9.4082H52.1204C52.0874 9.41359 52.0599 9.41897 52.0324 9.43513Z" fill="white"/>
<path d="M51.7959 8.32036C52.3239 8.32036 52.7529 7.90031 52.7529 7.38332C52.7529 6.86634 52.3239 6.44629 51.7959 6.44629C51.2679 6.44629 50.8389 6.86634 50.8389 7.38332C50.8389 7.90031 51.2679 8.32036 51.7959 8.32036Z" fill="white"/>
<path d="M43.8378 9.4082V13.0648C43.8378 15.8382 42.2538 16.2744 40.8403 16.2744C39.4268 16.2744 37.8428 15.8328 37.8428 13.0648V9.4082H39.4268V13.4525C39.4268 13.8457 39.5258 14.8688 40.8403 14.8688C42.1548 14.8688 42.2538 13.851 42.2538 13.4525V9.4082H43.8378Z" fill="white"/>
<path d="M68.2138 15.4561V15.553H67.9883V16.14H67.8783V15.553H67.6528V15.4561H68.2138ZM69.0003 16.14H68.8903V15.6015L68.6758 16.0054H68.6153L68.4008 15.6068V16.14H68.2908V15.4561H68.4338L68.6428 15.8492L68.8518 15.4561H68.9948L69.0003 16.14Z" fill="white"/>
<path d="M10.6725 13.5121V16.1778C10.6725 16.3178 10.557 16.4309 10.414 16.4309H3.2585C3.1155 16.4309 3 16.3178 3 16.1778V9.17694C3 9.03692 3.1155 8.92383 3.2585 8.92383H5.9755V13.259C5.9755 13.399 6.091 13.5121 6.234 13.5121H10.6725Z" fill="#4C00FF"/>
<path d="M13.6535 9.75303C13.6535 11.9933 12.317 13.5066 10.6725 13.5119V10.6901C10.6725 10.6093 10.6395 10.5285 10.579 10.4747L9.08296 9.00987C9.02246 8.95063 8.94546 8.91832 8.86296 8.91832H5.98096V6.258C5.98096 6.11799 6.09646 6.0049 6.23946 6.0049H10.271C12.185 5.99951 13.6535 7.50738 13.6535 9.75303Z" fill="#FF5252"/>
<path d="M10.579 10.4689C10.6395 10.5282 10.6725 10.6036 10.6725 10.6843V13.5062H6.23946C6.09646 13.5062 5.98096 13.3931 5.98096 13.2531V8.91797H8.86296C8.94546 8.91797 9.02796 8.95028 9.08296 9.00952L10.579 10.4689Z" fill="black"/>
</g>
<defs>
<clipPath id="clip0_4390_4658">
<rect width="66" height="13" fill="white" transform="translate(3 6)"/>
</clipPath>
</defs>
</svg>
