<svg width="73" height="25" viewBox="0 0 73 25" fill="none" xmlns="http://www.w3.org/2000/svg">
<path d="M32.4526 5.39418V13.1942H31.1196V7.07335H31.1019L28.7204 13.1942H27.8317L25.3969 7.07335H25.3791V13.1942H24.1528V5.39418H26.0723L28.276 11.1719H28.3116L30.6398 5.39418H32.4526ZM33.5545 5.99001C33.5545 5.77335 33.6256 5.59279 33.7855 5.44835C33.9455 5.30391 34.1232 5.23168 34.3365 5.23168C34.5675 5.23168 34.763 5.30391 34.9052 5.44835C35.0473 5.59279 35.1362 5.77335 35.1362 5.99001C35.1362 6.20668 35.0651 6.38724 34.9052 6.53168C34.7452 6.67612 34.5675 6.74835 34.3365 6.74835C34.1054 6.74835 33.9277 6.67612 33.7855 6.53168C33.6433 6.36918 33.5545 6.18863 33.5545 5.99001ZM34.994 7.59696V13.1942H33.6966V7.59696H34.994ZM38.9217 12.2372C39.1172 12.2372 39.3305 12.2011 39.5616 12.0928C39.7926 12.0025 40.0059 11.8761 40.2014 11.7317V12.9594C39.9881 13.0858 39.7571 13.1761 39.4905 13.2303C39.2239 13.2844 38.9395 13.3206 38.6196 13.3206C37.8021 13.3206 37.1445 13.0678 36.6469 12.5442C36.1315 12.0206 35.8827 11.3525 35.8827 10.5581C35.8827 9.65528 36.1492 8.91501 36.6646 8.33723C37.18 7.75945 37.9087 7.47057 38.8684 7.47057C39.1172 7.47057 39.3661 7.50668 39.5971 7.56084C39.8459 7.61501 40.0414 7.70529 40.1836 7.77751V9.0414C39.9881 8.89695 39.7748 8.77056 39.5793 8.69834C39.3661 8.62612 39.1528 8.57195 38.9395 8.57195C38.4241 8.57195 38.0154 8.73445 37.6954 9.07751C37.3755 9.42056 37.2334 9.87195 37.2334 10.4497C37.2334 11.0094 37.3933 11.4608 37.6954 11.7678C37.9976 12.0747 38.4063 12.2372 38.9217 12.2372ZM43.8803 7.50668C43.9869 7.50668 44.0758 7.50668 44.1646 7.52473C44.2535 7.54279 44.3246 7.56084 44.3779 7.5789V8.91501C44.3068 8.86084 44.2179 8.80667 44.0758 8.77056C43.9336 8.73445 43.7914 8.69834 43.5959 8.69834C43.276 8.69834 43.0094 8.84279 42.7961 9.11362C42.5829 9.38445 42.4585 9.79973 42.4585 10.3775V13.1942H41.1611V7.59696H42.4585V8.48168H42.4762C42.6006 8.17473 42.7784 7.94001 43.0094 7.75945C43.2582 7.59696 43.5426 7.50668 43.8803 7.50668ZM44.449 10.4858C44.449 9.56501 44.7156 8.82473 45.2132 8.28307C45.7286 7.7414 46.4395 7.47057 47.3459 7.47057C48.199 7.47057 48.8743 7.72334 49.3542 8.24695C49.834 8.77056 50.0829 9.47473 50.0829 10.3594C50.0829 11.2622 49.8163 11.9844 49.3186 12.5261C48.8032 13.0678 48.1101 13.3386 47.2215 13.3386C46.3684 13.3386 45.6931 13.0858 45.1954 12.5803C44.6978 12.0567 44.449 11.3525 44.449 10.4858ZM45.7997 10.4317C45.7997 11.0094 45.9241 11.4608 46.1907 11.7678C46.4573 12.0747 46.8305 12.2372 47.3103 12.2372C47.7724 12.2372 48.1457 12.0928 48.3945 11.7678C48.6433 11.4608 48.7677 11.0094 48.7677 10.3956C48.7677 9.79973 48.6433 9.34834 48.3945 9.02334C48.1457 8.7164 47.7724 8.5539 47.3281 8.5539C46.8483 8.5539 46.4928 8.7164 46.2262 9.0414C45.9241 9.38445 45.7997 9.83584 45.7997 10.4317ZM52.0201 9.07751C52.0201 9.25806 52.0734 9.42056 52.1978 9.52889C52.3222 9.63723 52.571 9.76362 52.9798 9.92612C53.4952 10.1428 53.8684 10.3775 54.0639 10.6303C54.2772 10.9011 54.3838 11.2081 54.3838 11.5872C54.3838 12.1108 54.1883 12.5261 53.7795 12.8511C53.3885 13.1761 52.8376 13.3206 52.1622 13.3206C51.9312 13.3206 51.6824 13.2844 51.398 13.2303C51.1137 13.1761 50.8826 13.1039 50.6871 13.0136V11.7136C50.9182 11.8761 51.1847 12.0206 51.4513 12.1108C51.7179 12.2011 51.9667 12.2553 52.1978 12.2553C52.4821 12.2553 52.7132 12.2192 52.8376 12.1289C52.9798 12.0386 53.0508 11.9122 53.0508 11.7136C53.0508 11.5331 52.9798 11.3886 52.8376 11.2442C52.6954 11.1178 52.411 10.9733 52.0201 10.8108C51.5402 10.6122 51.2025 10.3775 51.007 10.1247C50.8115 9.87195 50.7049 9.54695 50.7049 9.14973C50.7049 8.64418 50.9004 8.2289 51.2914 7.9039C51.6824 7.5789 52.1978 7.4164 52.8198 7.4164C53.0153 7.4164 53.2286 7.43446 53.4596 7.48862C53.6907 7.54279 53.9039 7.59696 54.0639 7.65112V8.93306C53.8862 8.82473 53.6907 8.7164 53.4596 8.62612C53.2286 8.53584 52.9975 8.49973 52.7843 8.49973C52.5355 8.49973 52.34 8.5539 52.2155 8.64418C52.0911 8.77056 52.0201 8.89695 52.0201 9.07751ZM54.9347 10.4858C54.9347 9.56501 55.2013 8.82473 55.699 8.28307C56.2144 7.7414 56.9253 7.47057 57.8316 7.47057C58.6847 7.47057 59.3601 7.72334 59.8399 8.24695C60.3198 8.77056 60.5686 9.47473 60.5686 10.3594C60.5686 11.2622 60.302 11.9844 59.8044 12.5261C59.289 13.0678 58.5959 13.3386 57.7072 13.3386C56.8542 13.3386 56.1788 13.0858 55.6812 12.5803C55.2013 12.0567 54.9347 11.3525 54.9347 10.4858ZM56.2854 10.4317C56.2854 11.0094 56.4099 11.4608 56.6764 11.7678C56.943 12.0747 57.3162 12.2372 57.7961 12.2372C58.2582 12.2372 58.6314 12.0928 58.8802 11.7678C59.129 11.4608 59.2534 11.0094 59.2534 10.3956C59.2534 9.79973 59.129 9.34834 58.8802 9.02334C58.6314 8.7164 58.2582 8.5539 57.8139 8.5539C57.334 8.5539 56.9786 8.7164 56.712 9.0414C56.4276 9.38445 56.2854 9.83584 56.2854 10.4317ZM64.8873 8.68029H62.9501V13.1942H61.635V8.68029H60.7108V7.59696H61.635V6.82057C61.635 6.24279 61.8304 5.75529 62.2037 5.37613C62.5769 4.99696 63.0567 4.81641 63.6432 4.81641C63.8032 4.81641 63.9454 4.83446 64.0698 4.83446C64.1942 4.83446 64.3008 4.87057 64.3897 4.90668V6.04418C64.3541 6.02613 64.2653 5.99001 64.1586 5.9539C64.052 5.91779 63.9276 5.89974 63.7854 5.89974C63.5188 5.89974 63.3056 5.99001 63.1634 6.15251C63.0212 6.31501 62.9501 6.58585 62.9501 6.91085V7.5789H64.8873V6.31501L66.1847 5.91779V7.5789H67.4999V8.66223H66.1847V11.2803C66.1847 11.6233 66.2558 11.8581 66.3624 12.0025C66.4868 12.1469 66.6823 12.2192 66.9489 12.2192C67.02 12.2192 67.1089 12.2011 67.2155 12.165C67.3221 12.1289 67.411 12.0928 67.4821 12.0386V13.1219C67.3932 13.1761 67.2688 13.2122 67.0733 13.2483C66.8778 13.2844 66.7001 13.3025 66.5046 13.3025C65.9537 13.3025 65.5449 13.1581 65.2783 12.8692C65.0117 12.5803 64.8695 12.1289 64.8695 11.5331L64.8873 8.68029Z" fill="#E4E4E4"/>
<path d="M47.0698 20.7934V17.8474H47.6398L47.6878 18.3694H47.7118C47.8158 18.1774 47.9418 18.0314 48.0898 17.9314C48.2378 17.8274 48.3898 17.7754 48.5458 17.7754C48.6858 17.7754 48.7978 17.7954 48.8818 17.8354L48.7618 18.4354C48.7098 18.4194 48.6618 18.4074 48.6178 18.3994C48.5738 18.3914 48.5198 18.3874 48.4558 18.3874C48.3398 18.3874 48.2178 18.4334 48.0898 18.5254C47.9618 18.6134 47.8518 18.7694 47.7598 18.9934V20.7934H47.0698Z" fill="#E4E4E4"/>
<path d="M45.0189 20.8654C44.7469 20.8654 44.5009 20.8054 44.2809 20.6854C44.0609 20.5614 43.8869 20.3854 43.7589 20.1574C43.6309 19.9254 43.5669 19.6474 43.5669 19.3234C43.5669 19.0034 43.6309 18.7274 43.7589 18.4954C43.8909 18.2634 44.0609 18.0854 44.2689 17.9614C44.4769 17.8374 44.6949 17.7754 44.9229 17.7754C45.1909 17.7754 45.4149 17.8354 45.5949 17.9554C45.7749 18.0714 45.9109 18.2354 46.0029 18.4474C46.0949 18.6554 46.1409 18.8974 46.1409 19.1734C46.1409 19.3174 46.1309 19.4294 46.1109 19.5094H44.2389C44.2709 19.7694 44.3649 19.9714 44.5209 20.1154C44.6769 20.2594 44.8729 20.3314 45.1089 20.3314C45.2369 20.3314 45.3549 20.3134 45.4629 20.2774C45.5749 20.2374 45.6849 20.1834 45.7929 20.1154L46.0269 20.5474C45.8869 20.6394 45.7309 20.7154 45.5589 20.7754C45.3869 20.8354 45.2069 20.8654 45.0189 20.8654ZM44.2329 19.0414H45.5409C45.5409 18.8134 45.4909 18.6354 45.3909 18.5074C45.2909 18.3754 45.1409 18.3094 44.9409 18.3094C44.7689 18.3094 44.6149 18.3734 44.4789 18.5014C44.3469 18.6254 44.2649 18.8054 44.2329 19.0414Z" fill="#E4E4E4"/>
<path d="M41.1339 20.8656C40.7659 20.8656 40.4719 20.7296 40.2519 20.4576C40.0319 20.1856 39.9219 19.8076 39.9219 19.3236C39.9219 19.0036 39.9799 18.7276 40.0959 18.4956C40.2159 18.2636 40.3719 18.0856 40.5639 17.9616C40.7559 17.8376 40.9579 17.7756 41.1699 17.7756C41.3379 17.7756 41.4799 17.8056 41.5959 17.8656C41.7159 17.9216 41.8319 17.9996 41.9439 18.0996L41.9199 17.6256V16.5576H42.6099V20.7936H42.0399L41.9919 20.4756H41.9679C41.8599 20.5836 41.7339 20.6756 41.5899 20.7516C41.4459 20.8276 41.2939 20.8656 41.1339 20.8656ZM41.3019 20.2956C41.5219 20.2956 41.7279 20.1856 41.9199 19.9656V18.5916C41.8199 18.4996 41.7199 18.4356 41.6199 18.3996C41.5199 18.3636 41.4199 18.3456 41.3199 18.3456C41.1319 18.3456 40.9699 18.4316 40.8339 18.6036C40.7019 18.7716 40.6359 19.0096 40.6359 19.3176C40.6359 19.6336 40.6939 19.8756 40.8099 20.0436C40.9259 20.2116 41.0899 20.2956 41.3019 20.2956Z" fill="#E4E4E4"/>
<path d="M36.4746 20.7934V17.8474H37.0446L37.0926 18.2434H37.1166C37.2486 18.1154 37.3926 18.0054 37.5486 17.9134C37.7046 17.8214 37.8826 17.7754 38.0826 17.7754C38.3986 17.7754 38.6286 17.8774 38.7726 18.0814C38.9166 18.2854 38.9886 18.5734 38.9886 18.9454V20.7934H38.2986V19.0354C38.2986 18.7914 38.2626 18.6194 38.1906 18.5194C38.1186 18.4194 38.0006 18.3694 37.8366 18.3694C37.7086 18.3694 37.5946 18.4014 37.4946 18.4654C37.3986 18.5254 37.2886 18.6154 37.1646 18.7354V20.7934H36.4746Z" fill="#E4E4E4"/>
<path d="M34.4237 20.8654C34.1517 20.8654 33.9057 20.8054 33.6857 20.6854C33.4657 20.5614 33.2917 20.3854 33.1637 20.1574C33.0357 19.9254 32.9717 19.6474 32.9717 19.3234C32.9717 19.0034 33.0357 18.7274 33.1637 18.4954C33.2957 18.2634 33.4657 18.0854 33.6737 17.9614C33.8817 17.8374 34.0997 17.7754 34.3277 17.7754C34.5957 17.7754 34.8197 17.8354 34.9997 17.9554C35.1797 18.0714 35.3157 18.2354 35.4077 18.4474C35.4997 18.6554 35.5457 18.8974 35.5457 19.1734C35.5457 19.3174 35.5357 19.4294 35.5157 19.5094H33.6437C33.6757 19.7694 33.7697 19.9714 33.9257 20.1154C34.0817 20.2594 34.2777 20.3314 34.5137 20.3314C34.6417 20.3314 34.7597 20.3134 34.8677 20.2774C34.9797 20.2374 35.0897 20.1834 35.1977 20.1154L35.4317 20.5474C35.2917 20.6394 35.1357 20.7154 34.9637 20.7754C34.7917 20.8354 34.6117 20.8654 34.4237 20.8654ZM33.6377 19.0414H34.9457C34.9457 18.8134 34.8957 18.6354 34.7957 18.5074C34.6957 18.3754 34.5457 18.3094 34.3457 18.3094C34.1737 18.3094 34.0197 18.3734 33.8837 18.5014C33.7517 18.6254 33.6697 18.8054 33.6377 19.0414Z" fill="#E4E4E4"/>
<path d="M31.168 20.7934V18.3934H30.772V17.8774L31.168 17.8474V17.5414C31.168 17.2334 31.244 16.9814 31.396 16.7854C31.548 16.5854 31.798 16.4854 32.146 16.4854C32.25 16.4854 32.35 16.4954 32.446 16.5154C32.542 16.5354 32.622 16.5594 32.686 16.5874L32.554 17.1034C32.446 17.0554 32.338 17.0314 32.23 17.0314C31.982 17.0314 31.858 17.1974 31.858 17.5294V17.8474H32.434V18.3934H31.858V20.7934H31.168Z" fill="#E4E4E4"/>
<path d="M29.0204 20.8654C28.7484 20.8654 28.5024 20.8054 28.2824 20.6854C28.0624 20.5614 27.8884 20.3854 27.7604 20.1574C27.6324 19.9254 27.5684 19.6474 27.5684 19.3234C27.5684 19.0034 27.6324 18.7274 27.7604 18.4954C27.8924 18.2634 28.0624 18.0854 28.2704 17.9614C28.4784 17.8374 28.6964 17.7754 28.9244 17.7754C29.1924 17.7754 29.4164 17.8354 29.5964 17.9554C29.7764 18.0714 29.9124 18.2354 30.0044 18.4474C30.0964 18.6554 30.1424 18.8974 30.1424 19.1734C30.1424 19.3174 30.1324 19.4294 30.1124 19.5094H28.2404C28.2724 19.7694 28.3664 19.9714 28.5224 20.1154C28.6784 20.2594 28.8744 20.3314 29.1104 20.3314C29.2384 20.3314 29.3564 20.3134 29.4644 20.2774C29.5764 20.2374 29.6864 20.1834 29.7944 20.1154L30.0284 20.5474C29.8884 20.6394 29.7324 20.7154 29.5604 20.7754C29.3884 20.8354 29.2084 20.8654 29.0204 20.8654ZM28.2344 19.0414H29.5424C29.5424 18.8134 29.4924 18.6354 29.3924 18.5074C29.2924 18.3754 29.1424 18.3094 28.9424 18.3094C28.7704 18.3094 28.6164 18.3734 28.4804 18.5014C28.3484 18.6254 28.2664 18.8054 28.2344 19.0414Z" fill="#E4E4E4"/>
<path d="M23.8003 20.7931V16.8691H24.8503C25.4503 16.8691 25.9183 17.0311 26.2543 17.3551C26.5903 17.6791 26.7583 18.1651 26.7583 18.8131C26.7583 19.4651 26.5923 19.9591 26.2603 20.2951C25.9283 20.6271 25.4703 20.7931 24.8863 20.7931H23.8003ZM24.4963 20.2291H24.8023C25.1983 20.2291 25.5043 20.1151 25.7203 19.8871C25.9363 19.6551 26.0443 19.2971 26.0443 18.8131C26.0443 18.3331 25.9363 17.9831 25.7203 17.7631C25.5043 17.5431 25.1983 17.4331 24.8023 17.4331H24.4963V20.2291Z" fill="#E4E4E4"/>
<path d="M12.4997 21.1273C12.2697 21.1273 12.083 20.9406 12.083 20.7106C12.083 20.4806 12.2697 20.2939 12.4997 20.2939V21.1273Z" fill="#0370C8"/>
<path d="M12.9167 20.7106C12.9167 20.9406 12.73 21.1273 12.5 21.1273V20.2939C12.73 20.2939 12.9167 20.4806 12.9167 20.7106Z" fill="#0F5094"/>
<path d="M19.9997 7.79427C20.2298 7.79427 20.4163 7.60772 20.4163 7.3776C20.4163 7.14749 20.2298 6.96094 19.9997 6.96094C19.7696 6.96094 19.583 7.14749 19.583 7.3776C19.583 7.60772 19.7696 7.79427 19.9997 7.79427Z" fill="#0883D9"/>
<path d="M4.99967 7.79427C5.22979 7.79427 5.41634 7.60772 5.41634 7.3776C5.41634 7.14749 5.22979 6.96094 4.99967 6.96094C4.76956 6.96094 4.58301 7.14749 4.58301 7.3776C4.58301 7.60772 4.76956 7.79427 4.99967 7.79427Z" fill="#33BFF0"/>
<path d="M12.5 20.7106L12.6779 21.0885C12.6779 21.0885 18.9879 17.7969 20.2113 12.7939H12.5V20.7106Z" fill="#0F5094"/>
<path d="M20.4167 7.3776L20 6.96094C15.3658 6.96094 15.3008 4.46094 12.5 4.46094V12.7943H20.2112C20.3425 12.2576 20.4167 11.7018 20.4167 11.1276C20.4167 9.81761 20.4167 7.3776 20.4167 7.3776Z" fill="#0883D9"/>
<path d="M12.4998 20.7106L12.3219 21.0885C12.3219 21.0885 6.01191 17.7969 4.78857 12.7939H12.4998V20.7106Z" fill="#0370C8"/>
<path d="M4.58301 7.3776L4.99967 6.96094C9.63384 6.96094 9.69884 4.46094 12.4997 4.46094V12.7943H4.78842C4.65717 12.2576 4.58301 11.7018 4.58301 11.1276C4.58301 9.8176 4.58301 7.3776 4.58301 7.3776Z" fill="#33BFF0"/>
</svg>
