<svg width="72" height="25" viewBox="0 0 72 25" fill="none" xmlns="http://www.w3.org/2000/svg">
<path fill-rule="evenodd" clip-rule="evenodd" d="M4.38281 6.34578C4.38281 5.96334 4.69284 5.65332 5.07527 5.65332L18.9244 5.65332C19.3068 5.65332 19.6169 5.96334 19.6169 6.34578V17.4746C19.6169 17.857 19.3068 18.167 18.9244 18.167H5.07527C4.69284 18.167 4.38281 17.857 4.38281 17.4746L4.38281 6.34578Z" fill="#00CC66" stroke="black" stroke-width="0.834246"/>
<path d="M19.6169 5.92578L11.9998 12.6412L4.38281 5.92578" stroke="black" stroke-width="0.834246" stroke-linejoin="round"/>
<path d="M11.8643 8.50098C13.8222 8.50124 15.4092 10.0889 15.4092 12.0469C15.4089 14.0046 13.822 15.5915 11.8643 15.5918C9.90627 15.5918 8.31862 14.0048 8.31836 12.0469C8.31836 10.0887 9.90611 8.50098 11.8643 8.50098Z" fill="#FCFCFC" stroke="#FCFCFC" stroke-width="0.834246"/>
<path d="M11.4741 9.8252L13.5597 11.9108L11.4741 13.9964" stroke="black" stroke-width="0.834246"/>
<path d="M9.38818 11.9097H13.4409" stroke="black" stroke-width="0.834246"/>
<path d="M25.616 15.6533V10.4373H26.904L27.744 12.7573C27.7973 12.9067 27.848 13.064 27.896 13.2293C27.944 13.3947 27.9947 13.5573 28.048 13.7173H28.08C28.1333 13.5573 28.1813 13.3947 28.224 13.2293C28.272 13.064 28.3227 12.9067 28.376 12.7573L29.2 10.4373H30.48V15.6533H29.408V13.7413C29.408 13.5707 29.416 13.3813 29.432 13.1733C29.4533 12.96 29.4747 12.7467 29.496 12.5333C29.5227 12.32 29.544 12.1307 29.56 11.9653H29.528L29.104 13.2053L28.36 15.1973H27.712L26.968 13.2053L26.552 11.9653H26.52C26.5413 12.1307 26.5627 12.32 26.584 12.5333C26.6053 12.7467 26.624 12.96 26.64 13.1733C26.6613 13.3813 26.672 13.5707 26.672 13.7413V15.6533H25.616ZM32.6138 15.7493C32.2511 15.7493 31.9631 15.6347 31.7498 15.4053C31.5364 15.1707 31.4298 14.8853 31.4298 14.5493C31.4298 14.1333 31.6058 13.808 31.9578 13.5733C32.3098 13.3387 32.8778 13.1813 33.6618 13.1013C33.6511 12.9253 33.5978 12.7867 33.5018 12.6853C33.4111 12.5787 33.2564 12.5253 33.0378 12.5253C32.8724 12.5253 32.7044 12.5573 32.5338 12.6213C32.3631 12.6853 32.1818 12.7733 31.9898 12.8853L31.5658 12.1093C31.8164 11.9547 32.0831 11.8293 32.3658 11.7333C32.6538 11.6373 32.9524 11.5893 33.2618 11.5893C33.7684 11.5893 34.1578 11.736 34.4298 12.0293C34.7018 12.3227 34.8378 12.7733 34.8378 13.3813V15.6533H33.8778L33.7978 15.2453H33.7658C33.6004 15.3947 33.4218 15.5173 33.2298 15.6133C33.0431 15.704 32.8378 15.7493 32.6138 15.7493ZM33.0138 14.8373C33.1471 14.8373 33.2618 14.808 33.3578 14.7493C33.4591 14.6853 33.5604 14.6027 33.6618 14.5013V13.8053C33.2458 13.8587 32.9578 13.944 32.7978 14.0613C32.6378 14.1733 32.5578 14.3067 32.5578 14.4613C32.5578 14.5893 32.5978 14.6853 32.6778 14.7493C32.7631 14.808 32.8751 14.8373 33.0138 14.8373ZM35.8325 15.6533V11.6853H37.0085V15.6533H35.8325ZM36.4165 11.1013C36.2192 11.1013 36.0592 11.0453 35.9365 10.9333C35.8138 10.8213 35.7525 10.672 35.7525 10.4853C35.7525 10.2987 35.8138 10.1493 35.9365 10.0373C36.0592 9.92532 36.2192 9.86932 36.4165 9.86932C36.6138 9.86932 36.7738 9.92532 36.8965 10.0373C37.0192 10.1493 37.0805 10.2987 37.0805 10.4853C37.0805 10.672 37.0192 10.8213 36.8965 10.9333C36.7738 11.0453 36.6138 11.1013 36.4165 11.1013ZM39.1234 15.7493C38.7181 15.7493 38.4354 15.6293 38.2754 15.3893C38.1208 15.144 38.0434 14.8213 38.0434 14.4213V10.0453H39.2194V14.4693C39.2194 14.592 39.2408 14.6773 39.2834 14.7253C39.3314 14.7733 39.3794 14.7973 39.4274 14.7973C39.4541 14.7973 39.4754 14.7973 39.4914 14.7973C39.5128 14.792 39.5394 14.7867 39.5714 14.7813L39.7154 15.6533C39.6514 15.68 39.5688 15.7013 39.4674 15.7173C39.3714 15.7387 39.2568 15.7493 39.1234 15.7493ZM43.6221 15.7493C43.2807 15.7493 42.9394 15.6853 42.5981 15.5573C42.2621 15.4293 41.9607 15.2427 41.6941 14.9973L42.3661 14.1893C42.5527 14.3493 42.7607 14.48 42.9901 14.5813C43.2194 14.6827 43.4407 14.7333 43.6541 14.7333C43.8994 14.7333 44.0807 14.688 44.1981 14.5973C44.3207 14.5067 44.3821 14.384 44.3821 14.2293C44.3821 14.064 44.3127 13.944 44.1741 13.8693C44.0407 13.7893 43.8594 13.7013 43.6301 13.6053L42.9501 13.3173C42.7741 13.2427 42.6061 13.144 42.4461 13.0213C42.2861 12.8933 42.1554 12.736 42.0541 12.5493C41.9527 12.3627 41.9021 12.144 41.9021 11.8933C41.9021 11.6053 41.9794 11.344 42.1341 11.1093C42.2941 10.8747 42.5127 10.688 42.7901 10.5493C43.0727 10.4107 43.3954 10.3413 43.7581 10.3413C44.0567 10.3413 44.3554 10.4 44.6541 10.5173C44.9527 10.6347 45.2141 10.8053 45.4381 11.0293L44.8381 11.7733C44.6674 11.64 44.4967 11.5387 44.3261 11.4693C44.1554 11.3947 43.9661 11.3573 43.7581 11.3573C43.5554 11.3573 43.3927 11.4 43.2701 11.4853C43.1527 11.5653 43.0941 11.68 43.0941 11.8293C43.0941 11.9893 43.1687 12.1093 43.3181 12.1893C43.4727 12.2693 43.6621 12.3547 43.8861 12.4453L44.5581 12.7173C44.8727 12.8453 45.1234 13.0213 45.3101 13.2453C45.4967 13.4693 45.5901 13.7653 45.5901 14.1333C45.5901 14.4213 45.5127 14.688 45.3581 14.9333C45.2034 15.1787 44.9794 15.376 44.6861 15.5253C44.3927 15.6747 44.0381 15.7493 43.6221 15.7493ZM48.1554 15.7493C47.7767 15.7493 47.4354 15.6667 47.1314 15.5013C46.8274 15.336 46.5874 15.0987 46.4114 14.7893C46.2354 14.48 46.1474 14.1067 46.1474 13.6693C46.1474 13.2373 46.2354 12.8667 46.4114 12.5573C46.5927 12.248 46.8274 12.0107 47.1154 11.8453C47.4034 11.6747 47.7047 11.5893 48.0194 11.5893C48.398 11.5893 48.71 11.6747 48.9554 11.8453C49.206 12.0107 49.3927 12.2373 49.5154 12.5253C49.6434 12.808 49.7074 13.1307 49.7074 13.4933C49.7074 13.5947 49.702 13.696 49.6914 13.7973C49.6807 13.8933 49.67 13.9653 49.6594 14.0133H47.2834C47.3367 14.3013 47.4567 14.5147 47.6434 14.6533C47.83 14.7867 48.054 14.8533 48.3154 14.8533C48.598 14.8533 48.8834 14.7653 49.1714 14.5893L49.5634 15.3013C49.3607 15.44 49.134 15.5493 48.8834 15.6293C48.6327 15.7093 48.39 15.7493 48.1554 15.7493ZM47.2754 13.2373H48.7074C48.7074 13.0187 48.654 12.84 48.5474 12.7013C48.446 12.5573 48.278 12.4853 48.0434 12.4853C47.862 12.4853 47.6994 12.5493 47.5554 12.6773C47.4114 12.8 47.318 12.9867 47.2754 13.2373ZM50.52 15.6533V11.6853H51.48L51.56 12.1893H51.592C51.7627 12.0293 51.9493 11.8907 52.152 11.7733C52.36 11.6507 52.5973 11.5893 52.864 11.5893C53.296 11.5893 53.608 11.7333 53.8 12.0213C53.9973 12.304 54.096 12.6933 54.096 13.1893V15.6533H52.92V13.3413C52.92 13.0533 52.88 12.856 52.8 12.7493C52.7253 12.6427 52.6027 12.5893 52.432 12.5893C52.2827 12.5893 52.1547 12.624 52.048 12.6933C51.9413 12.7573 51.824 12.8507 51.696 12.9733V15.6533H50.52ZM56.5141 15.7493C56.0235 15.7493 55.6288 15.5653 55.3301 15.1973C55.0368 14.824 54.8901 14.3147 54.8901 13.6693C54.8901 13.2373 54.9675 12.8667 55.1221 12.5573C55.2821 12.2427 55.4875 12.0027 55.7381 11.8373C55.9941 11.672 56.2608 11.5893 56.5381 11.5893C56.7568 11.5893 56.9408 11.6267 57.0901 11.7013C57.2395 11.776 57.3808 11.8773 57.5141 12.0053L57.4661 11.3973V10.0453H58.6421V15.6533H57.6821L57.6021 15.2613H57.5701C57.4315 15.4 57.2688 15.5173 57.0821 15.6133C56.8955 15.704 56.7061 15.7493 56.5141 15.7493ZM56.8181 14.7893C56.9461 14.7893 57.0608 14.7627 57.1621 14.7093C57.2688 14.656 57.3701 14.5627 57.4661 14.4293V12.8053C57.3648 12.7093 57.2555 12.6427 57.1381 12.6053C57.0261 12.568 56.9168 12.5493 56.8101 12.5493C56.6235 12.5493 56.4581 12.64 56.3141 12.8213C56.1701 12.9973 56.0981 13.2747 56.0981 13.6533C56.0981 14.0427 56.1595 14.3307 56.2821 14.5173C56.4101 14.6987 56.5888 14.7893 56.8181 14.7893ZM61.4601 15.7493C61.0814 15.7493 60.7401 15.6667 60.4361 15.5013C60.1321 15.336 59.8921 15.0987 59.7161 14.7893C59.5401 14.48 59.4521 14.1067 59.4521 13.6693C59.4521 13.2373 59.5401 12.8667 59.7161 12.5573C59.8974 12.248 60.1321 12.0107 60.4201 11.8453C60.7081 11.6747 61.0094 11.5893 61.3241 11.5893C61.7027 11.5893 62.0147 11.6747 62.2601 11.8453C62.5107 12.0107 62.6974 12.2373 62.8201 12.5253C62.9481 12.808 63.0121 13.1307 63.0121 13.4933C63.0121 13.5947 63.0067 13.696 62.9961 13.7973C62.9854 13.8933 62.9747 13.9653 62.9641 14.0133H60.5881C60.6414 14.3013 60.7614 14.5147 60.9481 14.6533C61.1347 14.7867 61.3587 14.8533 61.6201 14.8533C61.9027 14.8533 62.1881 14.7653 62.4761 14.5893L62.8681 15.3013C62.6654 15.44 62.4387 15.5493 62.1881 15.6293C61.9374 15.7093 61.6947 15.7493 61.4601 15.7493ZM60.5801 13.2373H62.0121C62.0121 13.0187 61.9587 12.84 61.8521 12.7013C61.7507 12.5573 61.5827 12.4853 61.3481 12.4853C61.1667 12.4853 61.0041 12.5493 60.8601 12.6773C60.7161 12.8 60.6227 12.9867 60.5801 13.2373ZM63.8247 15.6533V11.6853H64.7847L64.8647 12.3813H64.8967C65.0407 12.1147 65.214 11.9173 65.4167 11.7893C65.6194 11.656 65.822 11.5893 66.0247 11.5893C66.1367 11.5893 66.23 11.5973 66.3047 11.6133C66.3794 11.624 66.4434 11.6427 66.4967 11.6693L66.3047 12.6853C66.2354 12.664 66.166 12.648 66.0967 12.6373C66.0327 12.6267 65.958 12.6213 65.8727 12.6213C65.7234 12.6213 65.566 12.6773 65.4007 12.7893C65.2407 12.896 65.1074 13.0827 65.0007 13.3493V15.6533H63.8247Z" fill="white"/>
</svg>
