<svg width="72" height="24" viewBox="0 0 72 24" fill="none" xmlns="http://www.w3.org/2000/svg">
    <path d="M17.0537 8.70435H18.0716V14.5314H21.3423L20.9852 15.5026H17.0566L17.0537 8.70435Z" fill="black"/>
    <path d="M29.9451 13.851C30.4747 14.2946 31.1528 14.5353 31.8522 14.528C32.7241 14.5156 33.1662 14.1999 33.1786 13.5811C33.1848 13.0724 32.8934 12.7679 32.3043 12.6675C32.0338 12.63 31.7377 12.588 31.4158 12.5413C30.8386 12.4455 30.3995 12.2296 30.0986 11.8933C29.7871 11.5448 29.6212 11.0956 29.6336 10.6343C29.6336 10.0409 29.8284 9.56226 30.2179 9.1983C30.595 8.83758 31.13 8.65421 31.8229 8.64819C32.6553 8.66669 33.381 8.90047 34 9.34953L33.4286 10.1958C32.9404 9.86434 32.3613 9.68219 31.7657 9.6728C31.4835 9.6623 31.2061 9.7463 30.9801 9.91074C30.7624 10.0754 30.6505 10.321 30.6443 10.6474C30.6456 10.8462 30.7263 11.0367 30.8693 11.1788C31.0203 11.3402 31.2613 11.4521 31.5922 11.5146C31.7765 11.5456 32.0281 11.5812 32.3472 11.6214C32.9762 11.7088 33.4412 11.9373 33.7422 12.3068C34.0386 12.6663 34.1967 13.115 34.1893 13.5755C34.1555 14.8751 33.3698 15.5341 31.8322 15.5526C30.8389 15.5526 29.9848 15.2434 29.27 14.6252L29.9451 13.851Z" fill="black"/>
    <path d="M49.4819 12.1C49.4819 11.3101 49.5058 10.781 49.5534 10.5128C49.5882 10.2853 49.6647 10.0656 49.7791 9.86417C49.9653 9.52732 50.2354 9.24113 50.5648 9.03172C50.9167 8.78384 51.3567 8.6569 51.8848 8.65088C52.4191 8.6569 52.8638 8.7843 53.2191 9.03311C53.5423 9.24539 53.805 9.53367 53.9826 9.87111C54.1066 10.0675 54.1856 10.2875 54.2141 10.5162C54.2541 10.7831 54.2738 11.311 54.2733 12.1C54.2733 12.8769 54.2536 13.4018 54.2141 13.6747C54.186 13.9077 54.1058 14.1319 53.9791 14.3316C53.803 14.6685 53.5399 14.9554 53.2155 15.1641C52.8598 15.4124 52.415 15.5428 51.8812 15.5553C51.3541 15.5428 50.9141 15.4124 50.5612 15.1641C50.2303 14.9565 49.9597 14.6698 49.7755 14.3316C49.7279 14.2289 49.6834 14.1311 49.642 14.0382C49.5992 13.9202 49.5683 13.7985 49.5498 13.6747C49.505 13.4014 49.4824 12.8765 49.4819 12.1ZM50.4984 12.1C50.4984 12.7692 50.5222 13.2222 50.5698 13.4589C50.6011 13.6703 50.692 13.8691 50.8326 14.0333C50.9454 14.1769 51.0905 14.2934 51.2569 14.3739C51.444 14.4805 51.658 14.5338 51.8748 14.5279C52.0958 14.5334 52.3141 14.4801 52.5062 14.3739C52.6673 14.2933 52.8064 14.1765 52.9119 14.0333C53.0531 13.8684 53.1469 13.6703 53.1841 13.4589C53.2317 13.2222 53.2555 12.7692 53.2555 12.1C53.2555 11.4308 53.2317 10.975 53.1841 10.7327C53.1458 10.5244 53.0519 10.3295 52.9119 10.1673C52.8049 10.0239 52.6663 9.90542 52.5062 9.82046C52.3099 9.72598 52.0939 9.67661 51.8748 9.67617C51.66 9.67629 51.4483 9.72573 51.2569 9.82046C51.0916 9.90528 50.9469 10.0236 50.8326 10.1673C50.6938 10.3287 50.6033 10.524 50.5712 10.732C50.5236 10.9748 50.4998 11.4308 50.4998 12.1H50.4984Z" fill="black"/>
    <path d="M56.3755 8.70435H57.3919V15.4964H56.3755V8.70435Z" fill="black"/>
    <path d="M59.6152 8.70435H60.5717L63.6109 13.5325H63.6294V8.70435H64.6453V15.4964H63.6846L60.6497 10.6675H60.6317V15.4964H59.6152V8.70435Z" fill="black"/>
    <path d="M25.7857 8.70435H24.9371L22.5 15.4964H23.5771L24.0921 13.9772L24.385 13.065L25.3572 10.0938H25.3757L26.3472 13.065H25.4C24.4629 13.065 24.0921 13.9772 24.0921 13.9772H26.6358L27.1557 15.4964H28.2272L25.7857 8.70435Z" fill="black"/>
    <path d="M47.6708 9.83164C47.5595 9.57482 47.3822 9.35006 47.1558 9.17887C46.9388 8.99594 46.6844 8.85955 46.4094 8.7786C46.1572 8.7282 45.9004 8.70333 45.6429 8.70438H43.2144V15.4964H44.2308V9.67278H45.7022C45.959 9.66192 46.2128 9.72882 46.4286 9.86425C46.5655 9.94434 46.6771 10.0592 46.7515 10.1965C46.8304 10.3786 46.8682 10.5749 46.8622 10.7723C46.863 11.045 46.7669 11.3096 46.5901 11.5215C46.3996 11.7527 46.1139 11.8714 45.733 11.8774H45.8265C44.8694 11.8774 44.2251 12.8451 44.2251 12.8451H45.7729C46.4644 12.8326 46.9899 12.609 47.3494 12.1743C47.6879 11.7919 47.8741 11.3043 47.8744 10.8C47.8839 10.4663 47.8142 10.135 47.6708 9.83164Z" fill="black"/>
    <path d="M66.3042 8.70435V9.61657H68.1428H69.1502C69.1502 9.61657 68.1428 10.2409 68.1428 11.1719V15.4929H69.1587V9.61657H70.6427L70.9999 8.70435H66.3042Z" fill="black"/>
    <path d="M12.147 12.5938H14.5491L14.9063 11.6816H13.5955C12.8284 11.7454 12.2856 12.4086 12.147 12.5938Z" fill="black"/>
    <path d="M11.0962 8.70435V15.4964H12.1119V12.6418V12.6425V11.6741V9.67275H14.7091H15.0277L15.3834 8.70435H11.0962Z" fill="black"/>
    <path d="M37.1915 11.6165V8.70435H36.1758V15.4964H37.1915V12.5287L37.1936 11.6165H37.1915Z" fill="black"/>
    <path d="M39.8571 8.70435V11.6179H38.7857C37.8321 11.6179 37.1914 12.5301 37.1914 12.5301H39.8571V15.4978H40.8735V8.70435H39.8571Z" fill="black"/>
    <path d="M5.77215 9.59232C5.04214 11.0699 4.69 12.707 4.54857 13.5187C4.73428 14.1243 4.91786 14.8839 4.91786 15.5193C4.91786 16.8047 4.16643 17.2834 4.16643 17.2834C4.16643 17.2834 3.41572 16.8047 3.41572 15.5193C3.41572 14.8804 3.585 14.1118 3.78714 13.5076C4.12 12.3782 5.64429 9.12198 5.64429 9.12198C5.64429 9.12198 5.33143 8.03149 5.02286 7.17962L4.96572 7.02284C4.93902 7.32409 4.88355 7.62228 4.8 7.91355C4.75 6.72593 4.16643 5 4.16643 5C4.16643 5 4.16643 5.71174 3.08357 8.89029C2.60714 10.2853 2 11.8919 2 13.2648C2 16.716 4.16643 18 4.16643 18C4.16643 18 6.33357 16.716 6.33357 13.2648C6.33357 12.1153 6.09286 10.8132 5.77215 9.59232Z" fill="#FA8521"/>
</svg>
