<svg width="72" height="24" viewBox="0 0 72 24" fill="none" xmlns="http://www.w3.org/2000/svg">
    <g clip-path="url(#clip0_2601_1124)">
        <path fill-rule="evenodd" clip-rule="evenodd" d="M12.0786 7.15652H14.5497V11.4348C15.1406 10.7044 15.839 10.0783 17.1283 10.0783C19.0085 10.0783 20.0829 11.2783 20.0829 13.2609V18.7391H17.6117V13.9913C17.6117 12.8435 17.0745 12.2696 16.1076 12.2696C15.1406 12.2696 14.5497 12.8435 14.5497 13.9913V18.7391H12.0786V7.15652ZM27.335 13.7826C27.1739 12.7391 26.5292 12.0087 25.4548 12.0087C24.4342 12.0087 23.7358 12.7391 23.5746 13.8348H27.335V13.7826ZM21.1572 14.513C21.1572 12.0609 22.93 10.0783 25.5085 10.0783C28.4094 10.0783 29.7524 12.2696 29.7524 14.6696C29.7524 14.8783 29.7524 15.087 29.6987 15.2957H23.6284C23.897 16.3913 24.649 16.9652 25.7771 16.9652C26.5829 16.9652 27.2276 16.7044 27.9259 16.0783L29.3226 17.2783C28.5169 18.2696 27.335 18.8435 25.7234 18.8435C23.0912 18.8957 21.1572 17.1217 21.1572 14.513ZM30.8805 10.2348H33.3516V11.9565C33.8351 10.7565 34.6946 10.0261 36.1451 10.0783V12.5826H36.0376C34.3723 12.5826 33.4053 13.5739 33.4053 15.6087V18.7391H30.9342L30.8805 10.2348ZM42.5377 10.1826L40.9261 15.4L39.5294 10.2348H37.0046L39.6906 18.7913H41.8931L43.6121 13.5739L45.2774 18.7913H47.5336L50.2733 10.2348H47.8022L46.3518 15.4L44.6865 10.1826H42.5377ZM56.3974 13.7826C56.2362 12.7391 55.5916 12.0087 54.5709 12.0087C53.5502 12.0087 52.8519 12.7391 52.6907 13.8348H56.3974V13.7826ZM50.2196 14.513C50.2196 12.0609 51.9924 10.0783 54.5709 10.0783C57.4718 10.0783 58.8148 12.2696 58.8148 14.6696C58.8148 14.8783 58.8148 15.087 58.7611 15.2957H52.6907C52.9593 16.3913 53.7114 16.9652 54.8395 16.9652C55.6453 16.9652 56.29 16.7044 56.9883 16.0783L58.385 17.2783C57.5792 18.2696 56.3974 18.8435 54.8395 18.8435C52.1535 18.8957 50.2196 17.1217 50.2196 14.513ZM59.6743 7.15652H62.1454V18.7391H59.6743V7.15652ZM63.9182 7.15652H66.3893V18.7391H63.9182V7.15652ZM7.6736 18.8957C7.02896 18.8957 6.43805 18.7913 5.84713 18.5304C5.30993 18.3217 4.82645 17.9565 4.3967 17.5913C3.96694 17.1739 3.69834 16.7044 3.42974 16.1826C3.21486 15.6609 3.10742 15.087 3.10742 14.4609V14.4087C3.10742 13.7826 3.21486 13.2087 3.42974 12.687C3.64462 12.1652 3.96694 11.6957 4.3967 11.2783C4.82645 10.9652 5.30993 10.6522 5.84713 10.3913C6.38433 10.1826 7.02896 10.0261 7.72732 10.0261C8.53311 10.0261 9.23147 10.1304 9.76867 10.3913C10.3059 10.6522 10.7893 11.0174 11.2191 11.4348L9.71495 13C9.44635 12.687 9.12403 12.4783 8.85543 12.3217C8.47939 12.2174 8.15708 12.113 7.6736 12.113C7.35128 12.113 7.08268 12.1652 6.81408 12.2696C6.54548 12.3739 6.33061 12.5826 6.16945 12.7913C5.95457 13 5.84713 13.2609 5.73969 13.5217C5.63225 13.7826 5.57853 14.0957 5.57853 14.4087V14.4609C5.57853 14.7739 5.63225 15.087 5.73969 15.4C5.84713 15.713 6.00829 15.9217 6.16945 16.1304C6.38433 16.3391 6.5992 16.4957 6.8678 16.6522C7.1364 16.7565 7.45872 16.8087 7.78104 16.8087C8.2108 16.8087 8.53311 16.7044 8.85543 16.5478C9.17775 16.3913 9.50007 16.1826 9.76867 15.8696L11.2191 17.2783C10.7893 17.7478 10.3059 18.113 9.76867 18.3739C9.23147 18.7391 8.53311 18.8957 7.6736 18.8957Z" fill="#EFEFEF"/>
        <path fill-rule="evenodd" clip-rule="evenodd" d="M69.6125 9.97392C68.8067 9.97392 68.1621 9.34783 68.1621 8.56522C68.1621 7.78261 68.8067 7.15652 69.6125 7.15652C70.4183 7.15652 71.063 7.78261 71.063 8.56522C71.063 9.34783 70.4183 9.97392 69.6125 9.97392ZM69.6125 7.41739C68.9679 7.41739 68.4844 7.93913 68.4844 8.51305C68.4844 9.13913 69.0216 9.6087 69.6125 9.6087C70.2035 9.6087 70.7407 9.08696 70.7407 8.51305C70.7944 7.93913 70.2572 7.41739 69.6125 7.41739Z" fill="#EFEFEF"/>
        <path fill-rule="evenodd" clip-rule="evenodd" d="M69.5587 8.46088C69.6661 8.46088 69.7198 8.46088 69.7198 8.40871C69.7736 8.35654 69.7736 8.35654 69.7736 8.25219C69.7736 8.20001 69.7736 8.14784 69.7198 8.09567C69.6661 8.04349 69.6124 8.04349 69.5587 8.04349H69.3975V8.40871L69.5587 8.46088ZM69.3975 8.66958V9.24349H69.0215V7.78262H69.6124C69.8273 7.78262 69.9347 7.8348 70.0422 7.88697C70.1496 7.93915 70.2033 8.04349 70.2033 8.20001C70.2033 8.30436 70.2033 8.35654 70.1496 8.46088C70.0959 8.51306 70.0422 8.56523 69.9347 8.61741C69.9884 8.61741 70.0422 8.66958 70.0959 8.72175C70.1496 8.77393 70.2033 8.8261 70.2033 8.93045L70.4182 9.34784H69.9884L69.8273 8.98262C69.7736 8.93045 69.7736 8.87828 69.7198 8.8261C69.6661 8.8261 69.6124 8.77393 69.5587 8.77393L69.3975 8.66958Z" fill="#EFEFEF"/>
    </g>
    <defs>
        <clipPath id="clip0_2601_1124">
            <rect width="69" height="12" fill="white" transform="translate(3 7)"/>
        </clipPath>
    </defs>
</svg>
