<svg width="72" height="24" viewBox="0 0 72 24" fill="none" xmlns="http://www.w3.org/2000/svg">
<g clip-path="url(#clip0_4071_6340)">
<path d="M64.5425 14.9848V13.6637H64.0859C63.5899 13.6637 63.473 13.5898 63.473 13.244V9.61582H64.5461V8.38416H63.473V6.5957H61.6345V8.38416H60.7212V9.61582H61.6345V13.1534C61.6345 14.5234 61.9612 15.017 63.4873 15.017C63.6829 15.017 64.0358 14.9919 64.5449 14.98" fill="white"/>
<path d="M53.9932 14.9348H55.846V11.0479C55.846 10.1834 56.4076 9.66598 57.2684 9.66598C58.0637 9.66598 58.3415 10.0857 58.3415 10.9775V14.9348H60.1944V10.4672C60.1944 8.96133 59.4372 8.20898 57.9111 8.20898C57.0359 8.20898 56.3325 8.52972 55.8102 9.16283V8.38425H53.9932V14.9348Z" fill="white"/>
<path d="M52.8568 6.06152H51.0039V7.65325H52.8568V6.06152Z" fill="white"/>
<path d="M52.8568 8.38184H51.0039V14.9348H52.8568V8.38184Z" fill="white"/>
<path d="M45.1464 11.6531C45.1464 10.3415 45.7425 9.62614 46.7775 9.62614C47.8124 9.62614 48.3954 10.3415 48.3954 11.6531C48.3954 12.9646 47.804 13.6895 46.7763 13.6895C45.7485 13.6895 45.1452 12.961 45.1452 11.6531M43.2661 11.6531C43.2661 13.8374 44.5967 15.1573 46.7763 15.1573C48.9558 15.1573 50.2864 13.8374 50.2864 11.6531C50.2864 9.46875 48.9558 8.14648 46.7763 8.14648C44.5967 8.14648 43.2661 9.46637 43.2661 11.6519" fill="white"/>
<path d="M40.8277 11.7015C40.8277 12.9236 40.2411 13.639 39.3266 13.639C38.3477 13.639 37.7766 12.9475 37.7766 11.7015C37.7766 10.3566 38.312 9.66506 39.2909 9.66506C40.2697 9.66506 40.8301 10.3685 40.8301 11.7015M35.9727 17.5653H37.773V14.1207C38.2297 14.7991 38.9343 15.1568 39.8214 15.1568C41.4394 15.1568 42.6663 13.7869 42.6663 11.6276C42.6663 9.52914 41.474 8.15918 39.7952 8.15918C38.895 8.15918 38.269 8.50495 37.7337 9.27041V8.38453H35.9727V17.5653Z" fill="white"/>
<path d="M32.211 14.9352H34.0245V9.61627H35.1727V8.38462H34.0114V7.92558C34.0114 7.50588 34.1807 7.43196 34.6898 7.43196H35.1727V6.03696C34.8472 6.01192 34.5611 6 34.2868 6C32.8644 6 32.2122 6.54369 32.2122 7.77773V8.38462H31.2202V9.61627H32.2122L32.211 14.9352Z" fill="white"/>
<path d="M25.9622 11.6531C25.9622 10.3415 26.5583 9.62614 27.5933 9.62614C28.6282 9.62614 29.2112 10.3415 29.2112 11.6531C29.2112 12.9646 28.6246 13.6895 27.5933 13.6895C26.5619 13.6895 25.9622 12.961 25.9622 11.6531ZM24.0831 11.6531C24.0831 13.8374 25.4137 15.1573 27.5933 15.1573C29.7728 15.1573 31.1034 13.8374 31.1034 11.6531C31.1034 9.46875 29.7716 8.14648 27.5921 8.14648C25.4125 8.14648 24.0771 9.46875 24.0771 11.6531" fill="white"/>
<path d="M18.5182 11.6531C18.5182 10.3415 19.1144 9.62614 20.1493 9.62614C21.1842 9.62614 21.7673 10.3415 21.7673 11.6531C21.7673 12.9646 21.1807 13.6895 20.1493 13.6895C19.118 13.6895 18.5182 12.961 18.5182 11.6531ZM16.6392 11.6531C16.6392 13.8374 17.9698 15.1573 20.1493 15.1573C22.3289 15.1573 23.6595 13.8374 23.6595 11.6531C23.6595 9.46875 22.3289 8.14648 20.1493 8.14648C17.9698 8.14648 16.6392 9.46875 16.6392 11.6531Z" fill="white"/>
<path d="M12.4375 14.9356H14.2903V11.4672C14.2903 10.4799 14.8126 9.98632 15.8165 9.98632H16.4293V8.20978C16.3383 8.19964 16.2467 8.19565 16.1551 8.19785C15.268 8.19785 14.6409 8.60443 14.158 9.50939V8.38505H12.4375V14.9356Z" fill="white"/>
<path d="M9.85388 11.7015C9.85388 12.9236 9.26727 13.639 8.35277 13.639C7.37388 13.639 6.80277 12.9475 6.80277 11.7015C6.80277 10.3566 7.33812 9.66506 8.317 9.66506C9.29588 9.66506 9.85627 10.3685 9.85627 11.7015M5 17.5653H6.80038V14.1207C7.25704 14.7991 7.96169 15.1568 8.84877 15.1568C10.4667 15.1568 11.6936 13.7869 11.6936 11.6276C11.6936 9.52914 10.5013 8.15918 8.82254 8.15918C7.92235 8.15918 7.29638 8.50495 6.76104 9.27041V8.38453H5V17.5653Z" fill="white"/>
<path d="M66.9023 14.3939C66.9063 14.5382 66.8671 14.6804 66.7897 14.8023C66.7123 14.9241 66.6002 15.02 66.4679 15.0777C66.3355 15.1353 66.189 15.1521 66.0471 15.1258C65.9051 15.0995 65.7743 15.0314 65.6714 14.9302C65.5685 14.829 65.4981 14.6993 65.4695 14.5579C65.4408 14.4164 65.4551 14.2696 65.5105 14.1363C65.566 14.003 65.66 13.8893 65.7805 13.8099C65.901 13.7305 66.0425 13.6889 66.1869 13.6905C66.2801 13.6894 66.3727 13.7067 66.4592 13.7415C66.5457 13.7764 66.6245 13.8279 66.691 13.8933C66.7575 13.9587 66.8104 14.0366 66.8466 14.1225C66.8829 14.2084 66.9018 14.3007 66.9023 14.3939ZM65.636 14.3939C65.6336 14.4674 65.6461 14.5406 65.6727 14.6091C65.6993 14.6776 65.7395 14.74 65.7908 14.7926C65.8422 14.8451 65.9036 14.8868 65.9715 14.915C66.0393 14.9432 66.1122 14.9574 66.1857 14.9567C66.2579 14.9564 66.3293 14.9417 66.3957 14.9132C66.4621 14.8848 66.5221 14.8434 66.5721 14.7913C66.6222 14.7393 66.6612 14.6777 66.687 14.6103C66.7128 14.5428 66.7248 14.4709 66.7222 14.3987C66.7257 14.3252 66.7142 14.2519 66.6884 14.183C66.6627 14.1141 66.6232 14.0511 66.5725 13.9979C66.5217 13.9447 66.4607 13.9024 66.3931 13.8734C66.3254 13.8445 66.2527 13.8296 66.1791 13.8296C66.1056 13.8296 66.0328 13.8445 65.9652 13.8734C65.8976 13.9024 65.8365 13.9447 65.7858 13.9979C65.735 14.0511 65.6956 14.1141 65.6698 14.183C65.6441 14.2519 65.6326 14.3252 65.636 14.3987V14.3939ZM66.07 14.7636H65.9067V14.0601C65.996 14.0443 66.0866 14.0371 66.1773 14.0386C66.2621 14.0317 66.347 14.0495 66.4218 14.0899C66.4442 14.1089 66.4621 14.1327 66.474 14.1595C66.486 14.1863 66.4918 14.2155 66.4909 14.2449C66.488 14.2843 66.4721 14.3217 66.4458 14.3512C66.4195 14.3807 66.3843 14.4008 66.3455 14.4082V14.4166C66.3798 14.4306 66.4098 14.4536 66.4322 14.4832C66.4547 14.5128 66.4687 14.5478 66.473 14.5847C66.4792 14.6468 66.4962 14.7073 66.5231 14.7636H66.3466C66.3194 14.7095 66.3005 14.6516 66.2906 14.5919C66.2775 14.5144 66.2346 14.4798 66.1451 14.4798H66.0676L66.07 14.7636ZM66.07 14.3641H66.1475C66.2381 14.3641 66.3109 14.3343 66.3109 14.2616C66.3109 14.1889 66.2632 14.1543 66.1606 14.1543C66.1302 14.1535 66.0998 14.1563 66.07 14.1626V14.3641Z" fill="white"/>
</g>
<defs>
<clipPath id="clip0_4071_6340">
<rect width="62" height="11.5654" fill="white" transform="translate(5 6)"/>
</clipPath>
</defs>
</svg>
