<svg width="72" height="24" viewBox="0 0 72 24" fill="none" xmlns="http://www.w3.org/2000/svg">
<path d="M19.4599 4.16321C19.2527 3.95142 18.9651 3.82099 18.6446 3.82099C18.3249 3.82099 18.0396 3.95142 17.835 4.16321H17.8297C17.6231 4.37339 17.4949 4.66676 17.4949 4.99092C17.4949 5.31701 17.6231 5.60853 17.8297 5.81664L17.835 5.82241C18.0396 6.03237 18.3249 6.16097 18.6446 6.16097C18.9651 6.16097 19.2527 6.03237 19.4599 5.82241L19.4623 5.81664C19.6698 5.60853 19.7962 5.31701 19.7962 4.99092C19.7962 4.66676 19.6698 4.37339 19.4623 4.16321H19.4599ZM18.6446 20.1788C18.9651 20.1788 19.2527 20.0459 19.4599 19.838L19.4623 19.832C19.6698 19.6245 19.7962 19.3311 19.7962 19.0087C19.7962 18.6827 19.6698 18.3906 19.4623 18.1794H19.4599C19.2527 17.9656 18.9651 17.8364 18.6446 17.8364C18.3249 17.8364 18.0396 17.9656 17.835 18.1794H17.8297C17.6231 18.3906 17.4949 18.6827 17.4949 19.0087C17.4949 19.3311 17.6231 19.6245 17.8297 19.832L17.835 19.838C18.0396 20.0459 18.3249 20.1788 18.6446 20.1788ZM24.9087 16.6339C25.1935 16.5577 25.4514 16.3717 25.6087 16.0904L25.6299 16.0493C25.7699 15.783 25.7956 15.475 25.7207 15.2018C25.6453 14.9099 25.4605 14.651 25.1846 14.49L25.1684 14.4789C24.8996 14.3286 24.5936 14.2959 24.3125 14.3739C24.0266 14.4465 23.7695 14.6403 23.6131 14.9192C23.4545 15.1963 23.4214 15.5149 23.4972 15.8082C23.5756 16.0968 23.7589 16.3573 24.0331 16.5202H24.0348C24.3095 16.681 24.6202 16.7097 24.9087 16.6339ZM19.8239 10.8009C19.5221 10.4947 19.1056 10.3027 18.6446 10.3027C18.1843 10.3027 17.769 10.4947 17.4678 10.8009C17.1674 11.1068 16.9823 11.5288 16.9823 11.9979C16.9823 12.467 17.1674 12.8908 17.4678 13.2003C17.769 13.5047 18.1843 13.6949 18.6446 13.6949C19.1056 13.6949 19.5221 13.5047 19.8239 13.2003C20.1249 12.8908 20.31 12.467 20.31 11.9979C20.31 11.5288 20.1249 11.1068 19.8239 10.8009ZM19.1608 8.80697C19.8298 8.91911 20.4308 9.2452 20.89 9.71605H20.8935C20.9666 9.79011 21.0377 9.87168 21.1037 9.95327L22.2517 9.27759C22.0972 8.80306 22.0901 8.30693 22.2142 7.84145C22.3778 7.21855 22.7748 6.66069 23.3699 6.31126L23.3894 6.29863C23.978 5.95974 24.647 5.88927 25.2509 6.05571C25.8625 6.22248 26.4142 6.6283 26.7576 7.23295V7.23471C27.0995 7.83609 27.1688 8.52624 27.0058 9.14737C26.8431 9.77035 26.4446 10.3318 25.8501 10.6794L25.6933 10.7736H25.6774C25.1274 11.04 24.5229 11.0816 23.9676 10.9329C23.5117 10.8099 23.0935 10.5507 22.7659 10.1833L21.6197 10.857C21.7515 11.2118 21.8243 11.5939 21.8243 11.9979C21.8243 12.3998 21.7515 12.7876 21.6197 13.1442L22.7659 13.8161C23.0935 13.4429 23.5117 13.1895 23.9676 13.0663C24.5795 12.8962 25.2574 12.9685 25.8501 13.32L25.8881 13.338V13.3397C26.4605 13.6931 26.8449 14.2381 27.0058 14.8538C27.1688 15.4714 27.0995 16.1618 26.7576 16.7644L26.737 16.8064L26.7346 16.8028C26.3913 17.3837 25.8501 17.7772 25.2526 17.9437C24.6399 18.108 23.9617 18.0378 23.3699 17.6914V17.6866C22.7748 17.3366 22.3778 16.7776 22.2142 16.1558C22.0901 15.6925 22.0972 15.1963 22.2517 14.7218L21.1037 14.0479C21.0377 14.1295 20.9666 14.2074 20.8935 14.2815L20.89 14.2851C20.4307 14.7542 19.8298 15.0803 19.1608 15.1888V16.5385C19.6376 16.6399 20.0644 16.8826 20.3989 17.223L20.4007 17.2266C20.849 17.6806 21.1267 18.3132 21.1267 19.0087C21.1267 19.7019 20.849 20.3309 20.4007 20.7873L20.3989 20.7944C19.9474 21.2506 19.3282 21.5332 18.6446 21.5332C17.9647 21.5332 17.3437 21.2506 16.8933 20.7944H16.8915V20.7873C16.4427 20.3309 16.1644 19.7019 16.1644 19.0087C16.1644 18.3132 16.4427 17.6806 16.8915 17.2266V17.223H16.8933C17.2275 16.8826 17.6552 16.6399 18.1304 16.5385V15.1888C17.4613 15.0803 16.8615 14.7542 16.4029 14.2851L16.3982 14.2815C15.8255 13.6967 15.4668 12.8908 15.4668 11.9979C15.4668 11.1068 15.8255 10.3009 16.3982 9.71605H16.4029C16.8615 9.2452 17.4613 8.91911 18.1304 8.80697V7.46298C17.6552 7.35805 17.2275 7.11538 16.8933 6.77674H16.8915V6.77313C16.4427 6.31485 16.1644 5.68651 16.1644 4.99091C16.1644 4.299 16.4427 3.66517 16.8915 3.20878L16.8933 3.20693C17.3437 2.7489 17.9647 2.46655 18.6446 2.46655C19.3282 2.46655 19.9474 2.7489 20.3989 3.20693V3.20878H20.4007C20.8491 3.66517 21.1267 4.299 21.1267 4.99091C21.1267 5.68651 20.8491 6.31485 20.4007 6.77313L20.3989 6.77674C20.0644 7.11538 19.6376 7.35805 19.1608 7.46299V8.80697ZM25.6087 7.91047L25.599 7.89575C25.4408 7.62439 25.1881 7.44323 24.9087 7.36515C24.6202 7.28727 24.3095 7.31988 24.0331 7.48129H24.0348C23.7589 7.64055 23.5745 7.90119 23.4972 8.19296C23.4214 8.48273 23.4545 8.80306 23.6131 9.08203L23.6183 9.08924C23.7772 9.36453 24.0301 9.54927 24.3125 9.62366C24.596 9.70523 24.9123 9.67077 25.1846 9.50937L25.1994 9.50216C25.4675 9.33932 25.6462 9.08204 25.7207 8.79946C25.7968 8.50793 25.7664 8.18936 25.6087 7.91047Z" fill="white"/>
<path d="M30.7021 8.30518H31.983V12.2841L33.8302 10.205H35.366L33.136 12.6137L35.3753 15.6669H33.9087L31.983 12.9397V15.6669H30.7021V8.30518Z" fill="white"/>
<path d="M36.8539 12.9595C36.8539 13.637 37.3328 14.622 38.4865 14.622C39.2004 14.622 39.6702 14.2435 39.9139 13.7474C40.0415 13.5066 40.1002 13.2492 40.1199 12.9814C40.1288 12.7222 40.0807 12.4526 39.9725 12.2133C39.7479 11.6973 39.2495 11.2499 38.4771 11.2499C37.4413 11.2499 36.8539 12.1047 36.8539 12.9505V12.9595ZM41.3906 15.667H40.1091V14.8812C39.768 15.5167 39.0539 15.8355 38.3008 15.8355C36.5799 15.8355 35.5732 14.4717 35.5732 12.9307C35.5732 11.21 36.7952 10.0364 38.3008 10.0364C39.2785 10.0364 39.8747 10.5636 40.1091 11.0018V10.205H41.3906V15.667Z" fill="white"/>
<path d="M42.841 11.2101H42.1772V10.2051H42.841V9.89727C42.841 8.27439 44.0537 8.17656 44.9732 8.16577V9.16905C44.6499 9.16905 44.1225 9.16905 44.1225 9.93687V10.2051H44.9732V11.2101H44.1225V15.667H42.841V11.2101Z" fill="white"/>
<path d="M45.8442 8.30518H47.1247V12.2841L48.9722 10.205H50.508L48.278 12.6137L50.5169 15.6669H49.0503L47.1247 12.9397V15.6669H45.8442V8.30518Z" fill="white"/>
<path d="M51.9957 12.9595C51.9957 13.637 52.4744 14.622 53.6283 14.622C54.3412 14.622 54.811 14.2435 55.0551 13.7474C55.183 13.5066 55.242 13.2492 55.2613 12.9814C55.2702 12.7222 55.2221 12.4526 55.1136 12.2133C54.8895 11.6973 54.3911 11.2499 53.6188 11.2499C52.5828 11.2499 51.9957 12.1047 51.9957 12.9505V12.9595ZM56.5319 15.667H55.2508V14.8812C54.9088 15.5167 54.1953 15.8355 53.4426 15.8355C51.7217 15.8355 50.7158 14.4717 50.7158 12.9307C50.7158 11.21 51.9374 10.0364 53.4426 10.0364C54.4197 10.0364 55.0164 10.5636 55.2508 11.0018V10.205H56.5319V15.667Z" fill="white"/>
</svg>
