<svg width="72" height="24" viewBox="0 0 72 24" fill="none" xmlns="http://www.w3.org/2000/svg">
    <path d="M12.8446 18.145C15.3015 17.677 17.33 17.289 17.3539 17.283L17.396 17.273L15.0768 14.293C13.8016 12.654 12.7576 11.307 12.7576 11.299C12.7576 11.284 15.1523 4.15905 15.1667 4.13405C15.1705 4.12605 16.8004 7.16604 19.1168 11.503L23.0888 18.943L23.1194 19L15.7489 18.999L8.37834 18.998L12.8446 18.145ZM4 17.237C4 17.233 5.09267 15.183 6.42816 12.682L8.85633 8.13603L11.686 5.57004C13.2442 4.15905 14.5214 3.00205 14.5252 3.00005C14.531 2.99805 14.5109 3.05405 14.4803 3.12405L11.4078 10.244L8.38886 17.238L6.19491 17.241C4.98752 17.243 4 17.241 4 17.237V17.237Z" fill="#0089D6"/>
    <path d="M34.7654 14.4411H30.1865L29.1581 17.226H27.6719L31.8454 6.55556H33.1065L37.2875 17.226H35.8087L34.7654 14.4411ZM30.6219 13.2832H34.3375L32.4759 8.29243L30.6219 13.2832Z" fill="#0089D6"/>
    <path d="M39.603 16.1194H44.3545V17.226H37.9066V16.2293L42.3879 10.4177H37.9742V9.29645H44.1294V10.2565L39.603 16.1194Z" fill="#0089D6"/>
    <path d="M50.6034 16.4418C50.0629 17.0623 49.2698 17.3726 48.2239 17.3726C47.3582 17.3726 46.6976 17.1283 46.2422 16.6397C45.7918 16.1462 45.5642 15.4183 45.5591 14.4558V9.29645H46.9478V14.4191C46.9478 15.621 47.4482 16.222 48.4491 16.222C49.51 16.222 50.2156 15.836 50.5659 15.0641V9.29645H51.9545V17.226H50.6334L50.6034 16.4418Z" fill="#0089D6"/>
    <path d="M57.663 10.513C57.4528 10.4788 57.2251 10.4617 56.9799 10.4617C56.0691 10.4617 55.4511 10.8403 55.1258 11.5976V17.226H53.7371V9.29645H55.0883L55.1108 10.2125C55.5662 9.50409 56.2117 9.14988 57.0474 9.14988C57.3177 9.14988 57.5228 9.18408 57.663 9.25248V10.513Z" fill="#0089D6"/>
    <path d="M61.8326 17.3726C60.7316 17.3726 59.8359 17.0208 59.1453 16.3172C58.4547 15.6088 58.1094 14.6634 58.1094 13.4811V13.2319C58.1094 12.4453 58.262 11.7442 58.5673 11.1286C58.8776 10.5081 59.3079 10.0244 59.8584 9.67754C60.4139 9.32576 61.0144 9.14988 61.6599 9.14988C62.7158 9.14988 63.5365 9.48944 64.122 10.1686C64.7075 10.8477 65.0002 11.8199 65.0002 13.0853V13.6496H59.4981C59.5181 14.4313 59.7508 15.0641 60.1962 15.5477C60.6466 16.0265 61.217 16.2659 61.9076 16.2659C62.398 16.2659 62.8134 16.1682 63.1537 15.9728C63.494 15.7774 63.7917 15.5184 64.0469 15.196L64.8951 15.8409C64.2146 16.862 63.1937 17.3726 61.8326 17.3726ZM61.6599 10.2638C61.0994 10.2638 60.629 10.4641 60.2487 10.8648C59.8684 11.2605 59.6332 11.8175 59.5431 12.5357H63.6116V12.4331C63.5715 11.7442 63.3814 11.2117 63.0411 10.8355C62.7008 10.4544 62.2404 10.2638 61.6599 10.2638Z" fill="#0089D6"/>
</svg>
