<svg width="73" height="24" viewBox="0 0 73 24" fill="none" xmlns="http://www.w3.org/2000/svg">
<g clip-path="url(#clip0_4092_1744)">
<mask id="mask0_4092_1744" style="mask-type:luminance" maskUnits="userSpaceOnUse" x="6" y="7" width="61" height="11">
<path d="M66.0151 7H6.01514V17.2379H66.0151V7Z" fill="white"/>
</mask>
<g mask="url(#mask0_4092_1744)">
<path d="M6.01514 17.2375V10.0107H13.1057C14.5824 10.0107 15.3249 10.7491 15.3249 12.2299V17.2416H13.4357V12.0938C13.4357 11.8009 13.2914 11.6566 12.9985 11.6566H11.6167V17.2416H9.7275V11.6566H7.90844V17.2416H6.01514V17.2375Z" fill="white"/>
<path d="M16.6821 7H18.6249V8.83556H16.6821V7ZM16.711 10.0111H18.6002V17.2379H16.711V10.0111Z" fill="white"/>
<path d="M20.2251 17.2375V10.0107H27.3157C28.7924 10.0107 29.5349 10.7491 29.5349 12.2299V17.2416H27.6457V12.0938C27.6457 11.8009 27.5013 11.6566 27.2085 11.6566H25.8266V17.2416H23.9375V11.6566H22.1184V17.2416H20.2292L20.2251 17.2375Z" fill="white"/>
<path d="M30.9333 15.0224V12.2299C30.9333 10.7532 31.6717 10.0107 33.1525 10.0107H34.9303C36.407 10.0107 37.1495 10.7491 37.1495 12.2299V14.3377H32.8225V15.1585C32.8225 15.4514 32.9669 15.5958 33.2597 15.5958H37.1453V17.2375H33.1484C31.6717 17.2375 30.9292 16.4991 30.9292 15.0183M32.8184 12.8569H35.2562V12.0897C35.2562 11.7968 35.1118 11.6524 34.8189 11.6524H33.2597C32.9669 11.6524 32.8225 11.7968 32.8225 12.0897V12.8569H32.8184Z" fill="white"/>
<path d="M38.4941 15.0224V12.2299C38.4941 10.7532 39.2325 10.0107 40.7133 10.0107H44.0792V11.6524H40.8206C40.5277 11.6524 40.3833 11.7968 40.3833 12.0897V15.1544C40.3833 15.4473 40.5277 15.5917 40.8206 15.5917H44.0792V17.2333H40.7133C39.2366 17.2333 38.4941 16.495 38.4941 15.0142" fill="white"/>
<path d="M47.4574 17.2375C45.9808 17.2375 45.2383 16.5115 45.2383 15.0596C45.2383 13.6076 45.9766 12.8816 47.4574 12.8816H49.3466V12.0897C49.3466 11.7968 49.2023 11.6524 48.9094 11.6524H45.6178V10.0107H49.0208C50.4975 10.0107 51.2399 10.7491 51.2399 12.2299V17.2416H47.4616L47.4574 17.2375ZM47.1275 15.1585C47.1275 15.4514 47.2718 15.5958 47.5647 15.5958H49.3425V14.3625H47.5647C47.2718 14.3625 47.1275 14.5068 47.1275 14.7997V15.1544V15.1585Z" fill="white"/>
<path d="M52.6467 16.6231V15.596H55.794C56.1033 15.596 56.2601 15.4228 56.2601 15.0763C56.2601 14.7298 56.1239 14.5194 55.8476 14.474L54.3709 14.2266C53.2201 14.0368 52.6467 13.3686 52.6467 12.226C52.6467 10.7493 53.3851 10.0068 54.8659 10.0068H57.8069V11.6485H54.9855C54.6761 11.6485 54.5194 11.8218 54.5194 12.1683C54.5194 12.5147 54.6555 12.7251 54.9277 12.7705L56.4086 13.018C57.5594 13.2118 58.1327 13.8759 58.1327 15.0144C58.1327 16.4911 57.3944 17.2336 55.9136 17.2336H52.6426V16.619L52.6467 16.6231Z" fill="white"/>
<path d="M59.3452 15.0226V7.7959H61.2344V10.0151H63.5897V11.6568H61.2344V15.1629C61.2344 15.4557 61.3788 15.6001 61.6716 15.6001H63.7258V17.2418H61.5644C60.0877 17.2418 59.3452 16.5034 59.3452 15.0226Z" fill="white"/>
<path d="M64.9841 10.7705H64.8934V10.0981H64.6665V10.0156H65.211V10.0981H64.98V10.7705H64.9841ZM65.6111 10.7705L65.3801 10.1352H65.376V10.3456V10.7705H65.2894V10.0197H65.4214L65.6523 10.6509L65.8875 10.0197H66.0195V10.7705H65.9287V10.1394L65.6936 10.7705H65.6152H65.6111Z" fill="white"/>
</g>
</g>
<defs>
<clipPath id="clip0_4092_1744">
<rect width="60" height="11" fill="white" transform="translate(6.01514 7)"/>
</clipPath>
</defs>
</svg>
