<?xml version="1.0" encoding="utf-8"?>
<!-- Generator: Adobe Illustrator 28.0.0, SVG Export Plug-In . SVG Version: 6.00 Build 0)  -->
<svg version="1.1" id="Layer_1" xmlns="http://www.w3.org/2000/svg" xmlns:xlink="http://www.w3.org/1999/xlink" x="0px" y="0px"
	 viewBox="0 0 300 50" style="enable-background:new 0 0 300 50;" xml:space="preserve">
<g>
	<path d="M198.5,21.2h-2.8c-8.9,0-14.6,5.7-14.6,14.4c0,8.8,5.7,14.4,14.6,14.4h2.8c8.9,0,14.6-5.7,14.6-14.4
		C213.1,26.8,207.3,21.2,198.5,21.2z M207,35.6c0,5.5-3.3,8.7-8.9,8.7H196c-5.5,0-8.8-3.3-8.8-8.7c0-5.5,3.3-8.7,8.8-8.7h2.2
		C203.7,26.9,207,30.1,207,35.6z"/>
	<path d="M260.6,21.2c-1.9,0-3,1.2-3,3V47c0,1.9,1.2,3,3,3c1.8,0,3-1.2,3-3V24.2C263.7,22.4,262.5,21.2,260.6,21.2z"/>
	<path d="M108.3,26c1-1.5,0.7-3.1-0.8-4.2c-1.6-1.1-3.2-0.8-4.2,0.8l-13,19l-13-19c-1-1.5-2.7-1.8-4.2-0.8c-1.6,1.1-1.9,2.7-0.8,4.2
		c0,0,15.4,22.7,15.7,22.9c0.6,0.8,1.4,1.2,2.3,1.1c0.9,0,1.7-0.4,2.3-1.2C92.9,48.6,108.3,26,108.3,26z"/>
	<path d="M291.3,32.7h-10.7c-2.6,0-3-1.8-3-2.9c0-1.3,0.5-2.9,3-2.9h15.6c1.7,0,2.9-1.1,2.9-2.9c0-1.7-1.1-2.9-2.9-2.9h-16
		c-5.3,0-8.7,3.4-8.7,8.6c0,5.2,3.4,8.6,8.7,8.6H291c2.6,0,3,1.8,3,2.9c0,1.3-0.5,2.9-3,2.9h-16.5c-1.7,0-2.9,1.1-2.9,2.9
		c0,1.7,1.1,2.9,2.9,2.9h16.8c5.3,0,8.7-3.4,8.7-8.6C300,36.1,296.6,32.7,291.3,32.7z"/>
	<path d="M146.1,24.2V47c0,1.9,1.2,3,3,3c1.8,0,3-1.2,3-3v-6.9h11.8l5.9,8.7c0.5,0.8,1.3,1.2,2.1,1.2c0.1,0,0.2,0,0.3,0
		c1.6-0.2,2.5-1.5,2.3-3.1c0-0.4-0.2-0.8-0.5-1.2l-4.3-6.2c3-1.3,4.8-4.3,4.8-8.2c0-0.1,0-0.3,0-0.4c0-0.1,0-0.1,0-0.1
		c0-0.1,0-0.1,0-0.2c0-0.1,0-0.3,0-0.4c0-5.4-3.3-8.9-8.3-8.9h-17.1C147.2,21.2,146.1,22.3,146.1,24.2z M152.1,26.9h13.3
		c3,0,3.4,2.6,3.4,3.7c0,1-0.3,3.4-2.9,3.7h-13.8V26.9z"/>
	<path d="M140.2,45.2c0,0-15.4-22.7-15.7-22.9c-0.6-0.8-1.4-1.2-2.3-1.1c-0.9,0-1.7,0.4-2.3,1.2c-0.2,0.2-15.6,22.9-15.6,22.9
		c-1,1.5-0.7,3.1,0.8,4.2c1.5,1.1,3.2,0.8,4.2-0.8l3.2-4.7H132l3.2,4.7c1,1.5,2.7,1.8,4.2,0.8C140.9,48.3,141.3,46.7,140.2,45.2z
		 M115.9,38.9l6.3-9.2l6.3,9.2H115.9z"/>
	<path d="M247.1,50c-1.9,0-3-1.1-3-3V35.3c0-6.3-4.4-8.5-8.6-8.5h-2.2c-4.2,0-8.6,2.2-8.6,8.5V47c0,1.9-1.1,3-3,3c-1.9,0-3-1.1-3-3
		V35.3c0-8.6,5.6-14.2,14.3-14.2h2.8c8.7,0,14.3,5.6,14.3,14.2V47C250.1,48.9,249,50,247.1,50z"/>
	<g>
		<polygon points="11.1,0 0,0 29.5,43.2 35,35 		"/>
		<path d="M37.4,38.6l-5.6,8.2l0.8,1.1c1.6,2.3,4,2.8,6.4,1.2c2.3-1.6,2.8-4.1,1.2-6.3L37.4,38.6z"/>
		<polygon points="32.4,0 21.3,0 40.1,27.5 45.6,19.4 		"/>
		<path d="M61.5,42.7L48,22.9l-5.6,8.2l11.4,16.8c1.6,2.3,4,2.8,6.4,1.2C62.6,47.5,63.1,45,61.5,42.7z"/>
	</g>
</g>
</svg>
