<svg width="72" height="24" viewBox="0 0 72 24" fill="none" xmlns="http://www.w3.org/2000/svg">
    <path fill-rule="evenodd" clip-rule="evenodd" d="M30.4086 13.1757C29.7202 13.1757 29.3942 12.91 29.3942 12.4994V12.4753C29.3942 12.113 29.5995 11.8473 30.3483 11.7386L30.6744 11.6903C31.1508 11.6238 31.4439 11.5361 31.7129 11.373V11.9077C31.7129 12.7168 31.2057 13.1757 30.4086 13.1757ZM30.5898 7.41522C29.6599 7.41522 28.6938 7.66885 27.4983 8.30891L28.1625 9.95129C29.201 9.37159 30.0584 9.11803 30.6865 9.11803C31.3989 9.11803 31.7129 9.38373 31.7129 9.73393V9.75808C31.7129 9.99964 31.5197 10.1325 31.0487 10.1808L30.2275 10.2653C28.1745 10.4826 27.3291 11.3764 27.3291 12.6081V12.6926C27.3291 13.8641 28.2953 14.7819 29.6599 14.7819C30.5582 14.7819 31.3392 14.4026 31.8134 13.733L31.9665 14.6611H33.8263V10.4465C33.8263 8.45383 32.6791 7.41522 30.5898 7.41522Z" fill="white"/>
    <path fill-rule="evenodd" clip-rule="evenodd" d="M13 7.39757L10.7557 5L8.51139 7.39757L9.62782 8.5903L4 14.6024L6.24431 17L8.48861 14.6024L7.37212 13.4098L13 7.39757Z" fill="#EF4E23"/>
    <path fill-rule="evenodd" clip-rule="evenodd" d="M0 10.7192L2.2807 13L8 7.28075L5.71924 5L0 10.7192Z" fill="#EF4E23"/>
    <path fill-rule="evenodd" clip-rule="evenodd" d="M8 14.7193L10.5659 17L17 11.2808L14.4342 9L8 14.7193Z" fill="#EF4E23"/>
    <mask id="mask0_2626_1265" style="mask-type:luminance" maskUnits="userSpaceOnUse" x="0" y="5" width="72" height="15">
        <path fill-rule="evenodd" clip-rule="evenodd" d="M0 20H72V5H0V20Z" fill="white"/>
    </mask>
    <g mask="url(#mask0_2626_1265)">
        <path fill-rule="evenodd" clip-rule="evenodd" d="M35 15H37V5H35V15Z" fill="white"/>
        <path fill-rule="evenodd" clip-rule="evenodd" d="M24.6722 11.159C24.6722 12.2459 24.1046 13.0308 23.1627 13.0308C22.2207 13.0308 21.6531 12.2459 21.6531 11.159V11.0382C21.6531 9.9513 22.2207 9.16639 23.1627 9.16639C24.1046 9.16639 24.6722 9.9513 24.6722 11.0382V11.159ZM23.7786 7.41522C22.8178 7.41522 22.0464 7.84035 21.6216 8.50614L21.4599 7.536H19.6001V17.0764H21.7135V13.7696C22.1157 14.3898 22.8769 14.7819 23.7786 14.7819C25.4693 14.7819 26.846 13.2844 26.846 11.2193V10.9778C26.846 8.91274 25.4693 7.41522 23.7786 7.41522Z" fill="white"/>
        <path fill-rule="evenodd" clip-rule="evenodd" d="M67.1695 11.159C67.1695 12.2459 66.6019 13.0308 65.6599 13.0308C64.718 13.0308 64.1504 12.2459 64.1504 11.159V11.0382C64.1504 9.9513 64.718 9.16639 65.6599 9.16639C66.6019 9.16639 67.1695 9.9513 67.1695 11.0382V11.159ZM65.6599 7.41522C63.4983 7.41522 61.9766 8.91274 61.9766 10.9778V11.2193C61.9766 13.2844 63.4983 14.7819 65.6599 14.7819C67.8216 14.7819 69.3433 13.2844 69.3433 11.2193V10.9778C69.3433 8.91274 67.8216 7.41522 65.6599 7.41522Z" fill="white"/>
        <path fill-rule="evenodd" clip-rule="evenodd" d="M70.6473 7.66886H70.901C71.0458 7.66886 71.1063 7.71714 71.1063 7.82585V7.83792C71.1063 7.93456 71.0458 7.99485 70.901 7.99485H70.6473V7.66886ZM71.3357 7.84998V7.81383C71.3357 7.60849 71.1787 7.4635 70.901 7.4635H70.418V8.57454H70.6473V8.20019H70.9024L71.0942 8.57454H71.3479L71.1118 8.13498C71.2557 8.09142 71.3357 7.98424 71.3357 7.84998Z" fill="white"/>
        <path fill-rule="evenodd" clip-rule="evenodd" d="M70.8528 9.00935C70.2852 9.00935 69.8747 8.59879 69.8747 8.01909C69.8747 7.4394 70.2852 7.02883 70.8528 7.02883C71.4204 7.02883 71.831 7.4394 71.831 8.01909C71.831 8.59879 71.4204 9.00935 70.8528 9.00935ZM70.8528 6.87183C70.2007 6.87183 69.7056 7.36695 69.7056 8.01908C69.7056 8.67127 70.2007 9.16633 70.8528 9.16633C71.5049 9.16633 72.0001 8.67127 72.0001 8.01908C72.0001 7.36695 71.5049 6.87183 70.8528 6.87183Z" fill="white"/>
        <path fill-rule="evenodd" clip-rule="evenodd" d="M54 15H56V5H54V15Z" fill="white"/>
        <path fill-rule="evenodd" clip-rule="evenodd" d="M60.0247 13.2244C59.395 13.2244 59.1605 12.9183 59.1605 12.257V9.30613H61.7037V7.6531H59.1605V6L57 6.31837V12.4652C57 14.1428 57.8642 15 59.5926 15C60.358 15 61.2592 14.7672 62 14.351L61.3827 12.8326C60.9507 13.0653 60.3457 13.2244 60.0247 13.2244Z" fill="white"/>
        <path fill-rule="evenodd" clip-rule="evenodd" d="M49.0185 13.1757C48.3301 13.1757 48.004 12.91 48.004 12.4994V12.4753C48.004 12.113 48.2093 11.8473 48.9581 11.7386L49.2841 11.6903C49.7606 11.6238 50.0537 11.5361 50.3227 11.373V11.9077C50.3227 12.7168 49.8155 13.1757 49.0185 13.1757ZM49.1996 7.41522C48.2697 7.41522 47.3036 7.66885 46.1081 8.30891L46.7723 9.95129C47.8108 9.37159 48.6683 9.11803 49.2963 9.11803C50.0088 9.11803 50.3228 9.38373 50.3228 9.73393V9.75808C50.3228 9.99964 50.1295 10.1325 49.6586 10.1808L48.8374 10.2653C46.7844 10.4826 45.939 11.3764 45.939 12.6081V12.6926C45.939 13.8641 46.9051 14.7819 48.2697 14.7819C49.168 14.7819 49.9489 14.4026 50.4232 13.733L50.5764 14.6611H52.4361V10.4465C52.4361 8.45383 51.2889 7.41522 49.1996 7.41522Z" fill="white"/>
        <path fill-rule="evenodd" clip-rule="evenodd" d="M43.2818 11.159C43.2818 12.2459 42.7141 13.0308 41.7722 13.0308C40.8303 13.0308 40.2627 12.2459 40.2627 11.159V11.0382C40.2627 9.9513 40.8303 9.16639 41.7722 9.16639C42.7141 9.16639 43.2818 9.9513 43.2818 11.0382V11.159ZM41.7722 7.41522C39.6105 7.41522 38.0889 8.91274 38.0889 10.9778V11.2193C38.0889 13.2844 39.6105 14.7819 41.7722 14.7819C43.9339 14.7819 45.4555 13.2844 45.4555 11.2193V10.9778C45.4555 8.91274 43.9339 7.41522 41.7722 7.41522Z" fill="white"/>
        <path d="M47.9028 17H48.518L49.3739 18.13H49.3828V17H49.9445V19H49.3472L48.4734 17.8341H48.4645V19H47.9028V17Z" fill="white"/>
        <path d="M50.6251 17H52.6058L52.6261 17.4843H51.2955V17.7534H52.3417V18.2018H51.2955V18.5067H52.6667L52.6464 19H50.6251V17Z" fill="white"/>
        <path d="M53.7179 17.5112H53.007L53.0343 17H55.0213L55.0487 17.5112H54.3377V19H53.7179V17.5112Z" fill="white"/>
        <path d="M55.3889 17H56.0388L56.3637 18.3812H56.3908L56.815 17H57.4108L57.8259 18.3812H57.853L58.178 17H58.7917L58.2682 19H57.4739L57.1039 17.7892H57.0858L56.7158 19H55.9215L55.3889 17Z" fill="white"/>
        <path d="M59.132 18C59.132 17.3898 59.5915 17 60.323 17C61.0544 17 61.5139 17.3898 61.5139 18C61.5139 18.6102 61.0544 19 60.323 19C59.5915 19 59.132 18.6186 59.132 18ZM60.895 18C60.895 17.6695 60.6887 17.4831 60.323 17.4831C59.9572 17.4831 59.7509 17.678 59.7509 18C59.7509 18.3305 59.9572 18.5169 60.323 18.5169C60.6887 18.5254 60.895 18.3305 60.895 18Z" fill="white"/>
        <path d="M62.1945 17H63.3586C63.8869 17 64.1466 17.2511 64.1466 17.7175C64.1466 18.0404 64.0123 18.2556 63.7616 18.3543L64.2362 19H63.5556L63.1885 18.4709H62.7945V19H62.1945V17ZM63.278 18.0045C63.475 18.0045 63.5467 17.8969 63.5467 17.7444C63.5467 17.5919 63.475 17.4843 63.278 17.4843H62.7945V18.0045H63.278Z" fill="white"/>
        <path d="M64.5764 17H65.1464V17.7354H65.3761L65.929 17H66.5756L65.844 17.9596L66.6181 18.991L66.6096 19H65.9461L65.3761 18.2287H65.1464V19H64.5764V17Z" fill="white"/>
        <path d="M67.3149 18.8291V18.3102C67.6162 18.4718 67.9174 18.5484 68.1697 18.5484C68.3651 18.5484 68.4628 18.4973 68.4628 18.4038C68.4628 18.3102 68.3976 18.2846 68.0069 18.2166C67.5836 18.1485 67.2987 18.0124 67.2987 17.6296C67.2987 17.2722 67.5999 17 68.1778 17C68.4139 17 68.6581 17.051 68.8779 17.1531V17.6721C68.6663 17.5445 68.3732 17.4594 68.1371 17.4594C67.9336 17.4594 67.8441 17.5105 67.8441 17.5955C67.8441 17.7061 67.9743 17.7146 68.2918 17.7742C68.7151 17.8508 69.0001 17.9784 69.0001 18.3782C69.0001 18.693 68.7803 18.9993 68.1371 18.9993C67.8278 19.0078 67.5754 18.9397 67.3149 18.8291Z" fill="white"/>
    </g>
</svg>
