<svg id="Layer_1" data-name="Layer 1" xmlns="http://www.w3.org/2000/svg" viewBox="0 0 256 74.15"><title>cyble-black-logo</title><path d="M3.82,37.43a34.33,34.33,0,0,1,7.76-21.57A33.78,33.78,0,0,1,36,3a32.94,32.94,0,0,1,23.85,7.6A33.43,33.43,0,0,1,72.75,36.08,33.07,33.07,0,0,1,64.44,60c-6.57,7.54-14.48,11.47-25,11.74C29.69,72,21.3,69,14.36,62.25S4,47.17,3.82,37.43ZM17.7,47.28a3,3,0,0,0-.26.55c-.39,1.86-.8,3.73-1.15,5.6A1.35,1.35,0,0,0,17,55q3.12,1.81,6.12,3.81c2,1.32,7.39,4.91,8.06,5.41s1.14.88,1.14.88c.2.49,1,2.2,1,2.2l1.42.06,2.29.05a37.26,37.26,0,0,0,9.87-1.12l.29-.07a18.64,18.64,0,0,0,2.18-.74A25.83,25.83,0,0,0,52.48,64a38.39,38.39,0,0,0,3.77-2.43,32.06,32.06,0,0,0,3-2.55A28.36,28.36,0,0,0,62,55.9a27.35,27.35,0,0,0,2.33-3.44,41.83,41.83,0,0,0,2-4.31,33.2,33.2,0,0,0,2-8.41,22.15,22.15,0,0,0-.16-5.63,35.49,35.49,0,0,0-5.63-14A32.36,32.36,0,0,0,50.67,9.84a26.5,26.5,0,0,0-15-2.54,31.39,31.39,0,0,0-7.34,1.8,32.74,32.74,0,0,0-7.07,3.73A27.9,27.9,0,0,0,17.38,16c-1.39,1.4-2.57,3-3.82,4.53a8,8,0,0,0-.75,1.15c.51-.18,1.62-.74,2.13-.92s1.14-.47,1.73-.63c.4-.11.65.14.54.54L15,28.8l-.17.51c-.6-.29-4.51-2.7-4.76-2.22s.17.49.41.62l1.71,1L14.55,30c-.53.63-6.3,6.56-6.42,6.82s-.06.37,0,.41a.59.59,0,0,0,.47,0c.13-.05.23-.21.34-.32,1.74-1.81,5.43-5.79,5.55-6,0,0,2.93,6.77,4.36,10.2l-2.77-.4c-2.25-.31-4.51-.63-6.77-.91a1.09,1.09,0,0,0-.83.33c-.37.42.33,1,.65,1.26l4.42,3Z"/><path d="M150.56,39.33c0-4.07,0-8.13,0-12.19a14.83,14.83,0,0,1,.56-3.87,4.22,4.22,0,0,1,2.2-2.47,7.41,7.41,0,0,1,3.72-.7c3.24,0,16-.17,19.06-.09a9.29,9.29,0,0,1,4.57,1.06c3,1.81,4,6.22,4.08,9.48a14.51,14.51,0,0,1-1,5.17,6.71,6.71,0,0,1-2.64,3l-.48.33s.3.16.51.29a7.2,7.2,0,0,1,3.49,4.15,15.93,15.93,0,0,1,.58,6.18c-.33,4-2,8.38-6.54,8.92-5.17.61-20,.35-22.26.25a5.86,5.86,0,0,1-4.22-1.51,4.75,4.75,0,0,1-1.15-1.94,15.62,15.62,0,0,1-.52-4.67C150.57,46.92,150.56,43.12,150.56,39.33Zm15.72,3.2h-6c-1.57,0-1.58,0-1.57,1.57,0,2.1,0,4.2,0,6.3,0,1.45.24,1.68,1.59,1.85a24.61,24.61,0,0,0,2.85.12q4,0,7.94,0a16.94,16.94,0,0,0,2.26-.12,6.24,6.24,0,0,0,1.82-.46A3.32,3.32,0,0,0,177,48.67a8.17,8.17,0,0,0-.48-4.14A3,3,0,0,0,175.09,43a7.51,7.51,0,0,0-3-.48C170.13,42.57,168.21,42.53,166.28,42.53Zm-.1-6.57v.09c2.64-.1,5.28-.19,7.91-.3A2.28,2.28,0,0,0,176,34.36a8.58,8.58,0,0,0,0-5.87,2.44,2.44,0,0,0-2.25-1.75c-1.58-.07-3.15-.17-4.73-.16-3,0-6.07.09-9.1.16a1,1,0,0,0-1.07,1c0,2.51,0,5-.07,7.51,0,.56.27.72.79.72C161.77,36,164,36,166.18,36Z"/><path d="M251.77,52.38c-3.72,0-9.38,0-13.1,0-2.92,0-5.85,0-8.77-.12a1.61,1.61,0,0,1-1.16-.51,2.6,2.6,0,0,1-.36-1.44c0-2.3,0-4.59,0-6.89,0-.74.19-1.1,1.05-1.09,6.7,0,15.33,0,22,0l.34,0V35.81H229c-.48,0-.69-.23-.69-.73,0-2.19,0-4.38,0-6.57a4.45,4.45,0,0,1,.18-1.25,1,1,0,0,1,.95-.61c.79,0,16.28-.11,22.27-.12V20.11H226.26a7,7,0,0,0-3,.62,4.83,4.83,0,0,0-2.6,3.67,10.75,10.75,0,0,0-.12,2.48q0,6.25,0,12.5V52a10.79,10.79,0,0,0,.42,3.48,4.56,4.56,0,0,0,1.54,2.31,6.52,6.52,0,0,0,3.86,1.08c2.16,0,4.31,0,6.47,0h19Z"/><path d="M108.62,52.38h-.57c-4.84-.11-10.46.25-15.3-.31a12.13,12.13,0,0,1-4.51-1.49,6.18,6.18,0,0,1-2.5-3.33,8.42,8.42,0,0,1-.56-2.11,33.54,33.54,0,0,1-.36-3.87c-.1-4.45-.58-10.78,4-13.27a9.18,9.18,0,0,1,2.87-1,34.49,34.49,0,0,1,5-.43c3.57-.07,7.92,0,11.49,0a2.57,2.57,0,0,0,.5-.05V20.13c-.15,0-6.9,0-9.72,0-.85,0-1.7,0-2.54,0-5.28.21-10.86-.15-15,3.7A13.14,13.14,0,0,0,78.13,29a21.1,21.1,0,0,0-1.06,4.08,43,43,0,0,0-.43,5.08c-.06,1.38,0,2.78.1,4.17a28.56,28.56,0,0,0,.33,3.45c.2,1.14.56,2.25.87,3.36a14.81,14.81,0,0,0,.71,2.1,13,13,0,0,0,3.23,4.35,12.34,12.34,0,0,0,5.56,2.72,34,34,0,0,0,4.85.56c1.14.08,2.29,0,3.44,0h12.89Z"/><path d="M218.75,52.38l-.24,0c-6.22,0-13.6,0-19.81,0a14.23,14.23,0,0,1-1.73-.12,1.3,1.3,0,0,1-1.25-1.41c0-.42,0-.84,0-1.27V21.25a7.45,7.45,0,0,0-.08-.95h-7.77a2.37,2.37,0,0,0-.1.64c0,5.18,0,11.13,0,16.3,0,3.78,0,7.56,0,11.33a31.1,31.1,0,0,0,.27,6.32A5.14,5.14,0,0,0,189,57a5.23,5.23,0,0,0,4.31,1.8c8,.07,17.26,0,25.31,0h.1Z"/><path d="M134.15,58.92h-8L126,46.82s-15.68-26.06-16-26.68h8.36L134,46.34Z"/><path d="M134.81,44.92c-.23-.19-4-6.27-4-6.27l11.29-18.51,8.19,0Z"/><path d="M29.34,60.68c-.12-.16-.24-.31-.34-.46q-3.08-4.8-6.16-9.58a3.24,3.24,0,0,0-.87-.9c-.91-.66-1.84-1.31-2.8-1.9a.87.87,0,0,1-.42-1.15c.33-1.2.61-2.43,1-3.62a2.54,2.54,0,0,0-.1-1.88c-1.41-3.35-4.42-10.45-4.57-10.72.16,0,15.43,4.65,15.7,4.74l-2,1.1L20.35,41c-.63.35-.62.53,0,1q4.79,3.51,9.54,7l.64.45a30.65,30.65,0,0,0-1.14,5.45C29.21,56.39,29.35,59.41,29.34,60.68Z"/><path d="M44.87,26.71c.11-.12.19-.26.11-.39a.76.76,0,0,0-.34-.24,2.14,2.14,0,0,0-.42-.16c-.35-.11-.51.18-.51.49s.14.61.42.62a.91.91,0,0,0,.43-.1A1.28,1.28,0,0,0,44.87,26.71Z"/><path d="M45.26,27.09c-.38.18-1.43.85-1.6.95-1.6,1-3.22,1.93-4.8,2.94-1.88,1.21-3.72,2.49-5.6,3.72-.16.11-.43,0-.65,0a3.87,3.87,0,0,1,.25-.59c0-.09,5.22-3.68,6.53-4.63-.3-.19-5.16-2.72-5.64-2.9-.31-.11-.51.06-.53.44s-.1,1-.15,1.47c-.22,2-.45,4.07-.64,6.11a.7.7,0,0,0,.23.58c.3.19.69.23,1,.39,2.39,1.22,4.74,2.51,7.16,3.65a1.94,1.94,0,0,0,1.79.09,1.79,1.79,0,0,0,.79-1.26c.72-3.33,1.53-6.64,2.33-10A1.26,1.26,0,0,0,45.26,27.09Z"/><path d="M49.49,25c-.05-.19-.25-.32-.38-.46a7,7,0,0,0-.83-.7c-.43-.33-.87-.65-1.32-.94-.9-.57-1.79-1.14-2.72-1.65-1.44-.79-3-1.37-4.47-2a1.68,1.68,0,0,0-2,.32L35.5,21.67a4.44,4.44,0,0,0-.33.37c.94.32,1.83.61,2.71.93l5.33,2c.31.12,2,.6,2.16.65a4.89,4.89,0,0,0,2.54.17,9.92,9.92,0,0,0,1.32-.3A.44.44,0,0,0,49.49,25Z"/><path d="M32.94,23.07,31.69,34.71l-15-4.23v-.21Z"/><path d="M32.64,22.43c-5.69,2.48-11.19,5-16.75,7.42-.36,0-.4-.21-.31-.55.76-2.78,1.51-5.58,2.29-8.36a3.42,3.42,0,0,1,.62-1.37,3.39,3.39,0,0,1,3.83-.76c3.1,1.52,6.48,2.21,9.7,3.4Z"/><path d="M43.93,38.82c.21-.94.47-1.93.67-2.79.63-2.68,1.25-5.36,1.9-8,.06-.26.26-.66.43-.68a1.17,1.17,0,0,1,.85.34Q51.41,31.25,55,34.9a1.2,1.2,0,0,1,.3.73c0,1.15,0,3.53,0,3.53a17,17,0,0,0-2.56-.68,19.85,19.85,0,0,0-3.7-.27,32.92,32.92,0,0,0-3.71.29A8.39,8.39,0,0,0,43.93,38.82Z"/><path d="M20.93,41.45l10.68-5.88c0,.37.05.64.07.91.15,2.82.25,6.69.52,9a4,4,0,0,1-.66,2.55,5.71,5.71,0,0,1-.65.7,9.09,9.09,0,0,1-.8-.52L21.4,41.83C21.26,41.73,21.13,41.61,20.93,41.45Z"/><path d="M56,34.9l-7.57-7.61c-.2-.21-.55-.41-.29-.74a1.13,1.13,0,0,1,.68-.31,7.31,7.31,0,0,1,3.45.07,11.61,11.61,0,0,1,7.33,7.23,11.75,11.75,0,0,1,0,7.23c-.16.48-.64,1.67-.64,1.67s-.51-.38-.6-.47c-.71-.66-2.39-2.35-2.39-2.35Z"/><path d="M16.86,54.07,18.13,48c1.31.89,2.55,1.72,3.78,2.57a1.62,1.62,0,0,1,.34.47L28.4,60.6c.17.28.36.55.55.82l-.12.1Z"/><path d="M32.86,45.75c-.17-3.24-.34-6.89-.52-10.1.33.19.59.37.86.51l6.72,3.48a7,7,0,0,1,.63.37s-.54.31-.84.51c-.88.57-1.78,1.13-2.65,1.73l-.76.53c-.6.45-1.19.92-1.75,1.42S33.43,45.24,32.86,45.75Z"/><path d="M19.27,42,18,46.65,9.31,40.74l0-.19Z"/><path d="M33,21.75c-.3-.08-8.82-2.83-9.07-3s-.12-.3,0-.45a1.35,1.35,0,0,1,.47-.35,5.29,5.29,0,0,1,1.32-.31c.31,0,.62-.08.94-.11,1.06-.11,2.13-.12,3.2-.14a1.44,1.44,0,0,1,1.37,1C31.73,19.33,32.91,21.48,33,21.75Z"/><path d="M37.24,19C34.91,21.17,34,21.9,34,21.9c-.65-1.21-1.28-2.34-1.89-3.49-.17-.33.15-.73.66-.78a3,3,0,0,1,.78.07l2.49.4C36.54,18.2,37.85,18.45,37.24,19Z"/><path d="M39.7,24.44a.15.15,0,0,1,0,.09c0,.42-.76.57-1.06.59-.72.06-1.44.09-2.16.1s-2.09.28-2.74-.43a1.29,1.29,0,0,1-.22-1,7.41,7.41,0,0,1,.11-1c1.1-.52,2.14.12,3.19.51l1.75.66C38.78,24,39.58,24.17,39.7,24.44Z"/></svg>