<svg width="73" height="24" viewBox="0 0 73 24" fill="none" xmlns="http://www.w3.org/2000/svg">
<g clip-path="url(#clip0_4092_1832)">
<path fill-rule="evenodd" clip-rule="evenodd" d="M14.9538 16.884L16.2018 18.3429L17.6436 17.0801L19.0559 15.8444C20.5736 14.5081 21.5053 12.6201 21.65 10.5924C21.7946 8.56463 21.14 6.55897 19.8282 5.01671C18.5066 3.48181 16.6407 2.54028 14.6351 2.39316C12.6294 2.24605 10.6482 2.91051 9.12315 4.237C7.60541 5.57084 6.67368 7.46127 6.52902 9.489C6.38436 11.5167 7.03902 13.5224 8.35079 15.0647L13.3306 20.8855C13.7744 21.4053 14.2427 21.9693 14.9661 21.3685L14.9881 21.3514L15.0102 21.3318C15.7016 20.6918 15.2186 20.145 14.7724 19.6228L14.461 19.2599L9.79252 13.7995C8.81175 12.6446 8.32137 11.144 8.43171 9.62631C8.53959 8.10858 9.23839 6.69382 10.3712 5.69344C11.5138 4.70041 12.9972 4.20758 14.4977 4.31546C15.9983 4.4258 17.3959 5.1295 18.3865 6.27699C19.3673 7.43185 19.8576 8.93242 19.7497 10.4502C19.6419 11.9679 18.9431 13.3826 17.8103 14.383L16.398 15.6188L15.15 14.1599L13.9019 12.701L12.6809 11.274C12.3621 10.894 12.2028 10.4011 12.2395 9.90338C12.2763 9.40564 12.5019 8.94223 12.8721 8.61122C13.2497 8.28757 13.7352 8.12819 14.228 8.16497C14.7209 8.20175 15.1794 8.42978 15.5055 8.80492C15.7776 9.12857 15.9346 9.53559 15.9517 9.95977C15.9689 10.384 15.8463 10.8032 15.6036 11.149C15.5913 11.1661 15.5815 11.1808 15.5692 11.1955C15.4442 11.377 15.3853 11.5927 15.3951 11.8134C15.4074 12.0341 15.4883 12.2425 15.6305 12.4092C16.2582 13.1424 16.9497 12.6373 17.3174 12.0169C17.7269 11.3255 17.9133 10.5213 17.8471 9.71703C17.7809 8.9128 17.467 8.15271 16.9472 7.53973C16.2901 6.77964 15.3608 6.31132 14.3653 6.23776C13.3674 6.16421 12.3842 6.49276 11.6241 7.14988C10.8714 7.81435 10.4104 8.75343 10.3368 9.76362C10.2657 10.7714 10.5894 11.7668 11.2392 12.5367L12.4602 13.9637L13.7082 15.4202L14.9563 16.8791L14.9538 16.884Z" fill="#3091CF"/>
<path d="M27.4369 16.9133C27.4369 17.1806 27.3389 17.4062 27.1452 17.5901C26.9515 17.7641 26.7259 17.8524 26.4684 17.8524C26.1816 17.8524 25.9511 17.7641 25.777 17.5901C25.6029 17.4062 25.5146 17.1806 25.5146 16.9133V7.0885C25.5146 6.82124 25.6078 6.60057 25.7917 6.42648C25.9756 6.24259 26.211 6.14941 26.5003 6.14941C26.7455 6.14941 26.9613 6.24259 27.1452 6.42648C27.3389 6.60057 27.4369 6.82124 27.4369 7.0885V16.9133Z" fill="#F5F5F5"/>
<path d="M40.1303 16.8715C40.1303 17.1486 40.0396 17.384 39.8581 17.5777C39.6767 17.7591 39.4462 17.8499 39.1692 17.8499C38.8921 17.8499 38.6616 17.7591 38.4802 17.5777C38.2987 17.3864 38.208 17.1511 38.208 16.8715V9.88359C38.208 9.60652 38.2987 9.37604 38.4802 9.1946C38.6616 9.00335 38.8921 8.90527 39.1692 8.90527C39.4462 8.90527 39.6767 9.0009 39.8581 9.1946C40.0396 9.37604 40.1303 9.60652 40.1303 9.88359V16.8715Z" fill="#F5F5F5"/>
<path d="M64.9217 11.0654C64.5343 10.3887 64.0096 9.86152 63.3427 9.48638C62.688 9.09897 61.9525 8.90527 61.136 8.90527C60.3195 8.90527 59.579 9.09897 58.9121 9.48638C58.2574 9.86152 57.7303 10.3887 57.3331 11.0654C56.9457 11.7323 56.752 12.5047 56.752 13.3849C56.752 14.2652 56.9457 15.0449 57.3331 15.7216C57.7303 16.3885 58.2574 16.9083 58.9121 17.2859C59.579 17.6611 60.3195 17.8499 61.136 17.8499C61.9525 17.8499 62.688 17.6611 63.3427 17.2859C64.0096 16.9108 64.5343 16.3885 64.9217 15.7216C65.3189 15.0449 65.5176 14.2652 65.5176 13.3849C65.5176 12.5047 65.3189 11.7299 64.9217 11.0654ZM63.2569 14.7261C63.0411 15.1013 62.7444 15.3955 62.3668 15.6088C61.9991 15.8221 61.5896 15.9276 61.136 15.9276C60.6824 15.9276 60.268 15.8221 59.8904 15.6088C59.5226 15.3955 59.2259 15.1013 59.0004 14.7261C58.7846 14.3412 58.6767 13.8949 58.6767 13.3874C58.6767 12.8798 58.7846 12.4238 59.0004 12.0486C59.2259 11.6637 59.5251 11.3645 59.8904 11.1512C60.268 10.9379 60.6848 10.8325 61.136 10.8325C61.5871 10.8325 61.9991 10.9379 62.3668 11.1512C62.7444 11.3645 63.0411 11.6637 63.2569 12.0486C63.4825 12.4238 63.5977 12.87 63.5977 13.3874C63.5977 13.9047 63.4849 14.3412 63.2569 14.7261Z" fill="#F5F5F5"/>
<path d="M39.1692 8.07172C39.7 8.07172 40.1303 7.64139 40.1303 7.11057C40.1303 6.57974 39.7 6.14941 39.1692 6.14941C38.6383 6.14941 38.208 6.57974 38.208 7.11057C38.208 7.64139 38.6383 8.07172 39.1692 8.07172Z" fill="#F5F5F5"/>
<path d="M49.2245 12.1737C49.0676 10.2072 47.6283 8.91018 45.5442 8.91018C44.816 8.91018 44.1711 9.06955 43.6268 9.35888C43.59 9.30003 43.5483 9.24609 43.4968 9.1946C43.3154 9.00335 43.0849 8.90527 42.8078 8.90527C42.5308 8.90527 42.3003 9.0009 42.1188 9.1946C41.9374 9.37604 41.8467 9.60652 41.8467 9.88359V16.874C41.8467 17.1511 41.9374 17.3865 42.1188 17.5802C42.3003 17.7616 42.5308 17.8523 42.8078 17.8523C43.0849 17.8523 43.3154 17.7616 43.4968 17.5802C43.6783 17.3889 43.769 17.1535 43.769 16.874V12.4998C43.7886 11.0507 44.8846 10.8325 45.5442 10.8325C46.2037 10.8325 47.2997 11.0507 47.3169 12.4998V16.874C47.3169 17.1511 47.4076 17.3865 47.5891 17.5802C47.7705 17.7616 48.001 17.8523 48.2781 17.8523C48.5551 17.8523 48.7856 17.7616 48.967 17.5802C49.1485 17.3889 49.2392 17.1535 49.2392 16.874C49.2392 16.874 49.2343 12.2325 49.2245 12.1761V12.1737Z" fill="#F5F5F5"/>
<path d="M55.8276 6.29904C54.609 6.00236 53.6258 6.14457 52.9025 6.72077C51.907 7.51274 51.8972 8.78038 51.8997 8.92259V9.46201H51.1101C50.8306 9.46201 50.5977 9.55518 50.4114 9.74153C50.225 9.91562 50.1318 10.1436 50.1318 10.4232C50.1318 10.7027 50.225 10.9356 50.4114 11.122C50.5977 11.296 50.8306 11.3843 51.1101 11.3843H51.8997V16.8766C51.8997 17.1537 51.9904 17.3891 52.1718 17.5828C52.3533 17.7642 52.5837 17.8549 52.8608 17.8549C53.1379 17.8549 53.3684 17.7642 53.5498 17.5828C53.7312 17.3915 53.822 17.1561 53.822 16.8766V11.3843H55.1141C55.3936 11.3843 55.6266 11.296 55.8129 11.122C55.9993 10.9356 56.0924 10.7027 56.0924 10.4232C56.0924 10.1436 55.9993 9.91807 55.8129 9.74153C55.6266 9.55518 55.3936 9.46201 55.1141 9.46201H53.822V8.85394C53.8318 8.73624 53.8808 8.39298 54.1064 8.21889C54.3344 8.04235 54.7856 8.02274 55.374 8.16495C55.8889 8.29 56.4087 7.9737 56.5338 7.4588C56.6588 6.94389 56.3425 6.42409 55.8276 6.29904Z" fill="#F5F5F5"/>
<path d="M32.7184 6.14746H30.112V6.15236C29.835 6.15727 29.6069 6.24799 29.4279 6.42698C29.2441 6.60107 29.1509 6.82174 29.1509 7.089V16.9138C29.1509 17.1811 29.2391 17.4067 29.4132 17.5906C29.5873 17.7646 29.8178 17.8529 30.1047 17.8529C30.3621 17.8529 30.5877 17.7646 30.7814 17.5906C30.9751 17.4067 31.0732 17.1811 31.0732 16.9138V13.692H32.7184C34.7976 13.692 36.4895 12.0002 36.4895 9.92096C36.4895 7.84173 34.7976 6.14991 32.7184 6.14991V6.14746ZM32.7184 11.7673H31.0756V8.07467H32.7184C33.736 8.07467 34.5647 8.90341 34.5647 9.92096C34.5647 10.9385 33.736 11.7673 32.7184 11.7673Z" fill="#F5F5F5"/>
</g>
<defs>
<clipPath id="clip0_4092_1832">
<rect width="59.0103" height="19.2524" fill="white" transform="translate(6.50977 2.37402)"/>
</clipPath>
</defs>
</svg>
