<svg width="72" height="24" viewBox="0 0 72 24" fill="none" xmlns="http://www.w3.org/2000/svg">
<g clip-path="url(#clip0_2793_576)">
<path d="M7.63642 14.921L2.75955 12.711C2.15392 12.4348 1.8883 11.7229 2.15924 11.1173C2.28142 10.8516 2.49392 10.6391 2.75424 10.5223L7.63111 8.31226L8.23142 9.63507L3.86986 11.6113L8.23674 13.5929L7.63642 14.921Z" fill="#22AAEE"/>
<path d="M19.0585 9.2366H16.466C16.1632 9.2366 15.9507 9.29504 15.8338 9.41191C15.7117 9.52879 15.7063 9.72535 15.7063 10.0122V11.0641H18.3095L18.3148 12.3285H15.7063V15.33H14.272V9.46504C14.272 8.92316 14.3888 8.54066 14.6279 8.31754C14.867 8.09441 15.276 7.97754 15.8498 7.97754H19.0585V9.2366Z" fill="white"/>
<path d="M25.4176 11.3084V11.8609C25.4176 13.0828 25.1891 13.97 24.727 14.5225C24.2648 15.075 23.5263 15.3512 22.5116 15.3512C21.497 15.3512 20.7638 15.075 20.307 14.5225C19.8554 13.97 19.627 13.0722 19.627 11.8344V11.3031C19.627 10.1716 19.8554 9.33218 20.3176 8.77968C20.7798 8.22718 21.5076 7.95093 22.5063 7.95093C23.5051 7.95093 24.2382 8.23249 24.711 8.7903C25.1838 9.34812 25.4176 10.1822 25.4176 11.3084ZM24.0682 11.8291V11.4466C24.0682 10.7878 23.9885 10.2672 23.8238 9.87405C23.6326 9.42249 23.2235 9.19405 22.5913 9.19405C21.9538 9.19405 21.5395 9.42249 21.3482 9.87405C21.1888 10.2459 21.1145 10.7666 21.1145 11.4466V11.8291C21.1145 12.7109 21.2366 13.3112 21.4863 13.6194C21.5979 13.7628 21.7466 13.8797 21.9113 13.9541C22.1238 14.0497 22.3576 14.0975 22.5913 14.0922C22.8251 14.0975 23.0535 14.055 23.266 13.9594C23.4307 13.885 23.5795 13.7734 23.6963 13.63C23.8079 13.4759 23.8876 13.3006 23.9301 13.1147C24.0204 12.78 24.0682 12.3497 24.0682 11.8291Z" fill="white"/>
<path d="M32.2496 15.33H30.5603L29.1365 12.6312H28.1165V15.33H26.6821V9.55529C26.6821 9.00279 26.8096 8.60436 27.0646 8.34936C27.3196 8.09967 27.7446 7.97217 28.3449 7.97217H29.5615C30.2893 7.97217 30.8737 8.19529 31.304 8.63623C31.7343 9.07717 31.9521 9.64561 31.9521 10.3256C31.9521 10.8197 31.8246 11.25 31.5643 11.6112C31.304 11.9725 30.9853 12.2222 30.6081 12.3603L32.2496 15.33ZM30.2043 11.0587C30.4009 10.8515 30.4965 10.5912 30.4965 10.2778C30.4965 9.96436 30.4009 9.71467 30.2149 9.52342C30.029 9.33217 29.774 9.23654 29.4606 9.23654H28.7487C28.3237 9.23654 28.1112 9.45436 28.1112 9.88467V11.3722H29.4553C29.7368 11.3775 30.0078 11.2659 30.2043 11.0587Z" fill="white"/>
<path d="M37.9497 15.33H35.3625C34.5337 15.33 33.9547 15.1865 33.62 14.8997C33.2853 14.6128 33.1206 14.1081 33.1206 13.3856V9.14623C33.1206 8.49811 33.6465 7.97217 34.2947 7.97217H37.955V9.23654H34.5603V10.979H36.9297L36.9244 12.2434H34.555V13.3165C34.555 13.6034 34.6187 13.8 34.7515 13.9062C34.8844 14.0125 35.1181 14.0709 35.4634 14.0709H37.955V15.33H37.9497Z" fill="white"/>
<path d="M44.2239 13.1413C44.2239 13.8319 43.9689 14.3738 43.4642 14.7669C42.9595 15.1601 42.3114 15.3566 41.5251 15.3566C40.9035 15.3566 40.3032 15.1866 39.7189 14.8466C39.4214 14.6607 39.177 14.4004 39.0123 14.0922C38.8264 13.7522 38.7307 13.3697 38.736 12.9819L40.027 12.9182C40.027 13.2847 40.1864 13.5769 40.4998 13.7788C40.8079 13.9807 41.1745 14.0869 41.5464 14.0869C42.4017 14.0869 42.8267 13.7841 42.8267 13.1838C42.8267 12.6897 42.5345 12.4029 41.9554 12.3126L40.7654 12.1904C40.1704 12.1001 39.6976 11.8876 39.3523 11.5529C39.0017 11.2182 38.8317 10.7347 38.8317 10.1079C38.8317 9.481 39.0814 8.96037 39.5807 8.55131C40.0801 8.14225 40.7123 7.93506 41.472 7.93506C42.2317 7.93506 42.8479 8.12631 43.3101 8.51412C43.7776 8.90193 44.0061 9.396 44.0061 10.0069L42.7364 10.0707C42.6195 9.47568 42.2211 9.17818 41.5357 9.17818C41.1214 9.17818 40.792 9.2685 40.5582 9.44381C40.3245 9.61912 40.2023 9.83162 40.2023 10.076C40.2023 10.3204 40.2873 10.5116 40.4573 10.6497C40.6379 10.7932 40.8611 10.8835 41.0948 10.9101L42.2636 11.0322C43.5704 11.2076 44.2239 11.9088 44.2239 13.1413Z" fill="white"/>
<path d="M49.1327 12.4612H50.4661C50.4661 13.375 50.2323 14.0762 49.7648 14.565C49.2973 15.0537 48.6333 15.2981 47.778 15.2981C45.8973 15.2981 44.957 14.2196 44.957 12.0681V11.4625C44.957 9.76777 45.4405 8.69996 46.402 8.27496C46.7792 8.09965 47.2414 8.01465 47.778 8.01465C48.5642 8.01465 49.2017 8.22184 49.6958 8.64152C50.1898 9.06121 50.4342 9.66684 50.4342 10.4584H49.0902C49.0158 10.0653 48.8777 9.76246 48.6864 9.56059C48.4952 9.35871 48.1923 9.25777 47.778 9.25777C47.2945 9.25777 46.9386 9.40652 46.7048 9.69871C46.5402 9.9059 46.4445 10.2618 46.418 10.7665C46.402 10.9259 46.3967 11.1437 46.3967 11.42V12.0468C46.3967 12.8171 46.5083 13.3431 46.7261 13.6246C46.9545 13.9062 47.3052 14.0496 47.7833 14.0496C48.2614 14.0496 48.5908 13.9221 48.7767 13.6618C48.9627 13.4015 49.0795 13.0031 49.1327 12.4612Z" fill="white"/>
<path d="M57.0162 11.3084V11.8609C57.0162 13.0828 56.7878 13.97 56.3256 14.5225C55.8634 15.075 55.125 15.3512 54.1103 15.3512C53.0956 15.3512 52.3625 15.075 51.9056 14.5225C51.454 13.97 51.2256 13.0722 51.2256 11.8344V11.3031C51.2256 10.1716 51.454 9.33218 51.9162 8.77968C52.3784 8.22718 53.1062 7.95093 54.105 7.95093C55.1037 7.95093 55.8368 8.23249 56.3096 8.7903C56.7825 9.3428 57.0162 10.1822 57.0162 11.3084ZM55.6243 11.8291V11.4466C55.6243 10.7878 55.5446 10.2672 55.38 9.87405C55.1887 9.42249 54.7796 9.19405 54.1475 9.19405C53.51 9.19405 53.0956 9.42249 52.9043 9.87405C52.745 10.2459 52.6706 10.7666 52.6706 11.4466V11.8291C52.6706 12.7109 52.7928 13.3112 53.0425 13.6194C53.154 13.7628 53.3028 13.8797 53.4675 13.9541C53.8978 14.1347 54.3865 14.14 54.8168 13.9594C54.9815 13.885 55.1303 13.7734 55.2471 13.63C55.3587 13.4759 55.4384 13.3006 55.4809 13.1147C55.5765 12.78 55.6243 12.3497 55.6243 11.8291Z" fill="white"/>
<path d="M63.6783 7.97754V12.7747C63.6783 13.5663 63.4127 14.1932 62.8762 14.65C62.3396 15.1069 61.6808 15.3354 60.8946 15.3354C60.1083 15.3354 59.4496 15.1069 58.913 14.65C58.3765 14.1932 58.1108 13.5663 58.1108 12.7747V7.97754H59.5452V12.7216C59.5452 13.1732 59.6674 13.5079 59.9118 13.731C60.1562 13.9541 60.4855 14.0657 60.8893 14.0657C61.293 14.0657 61.6224 13.9541 61.8721 13.731C62.1218 13.5079 62.244 13.1732 62.244 12.7216V7.97754H63.6783Z" fill="white"/>
<path d="M69.8989 9.28441H67.9386V15.3354H66.4564V9.28441H64.5864V7.97754H69.8989V9.28441Z" fill="white"/>
<path d="M10.0644 11.6113C10.0644 12.9979 9.71381 14.3632 9.04443 15.5745L10.3779 16.1695C11.1269 14.767 11.5201 13.1998 11.5201 11.6113C11.5201 10.0229 11.1269 8.45572 10.3779 7.05322L9.04443 7.64822C9.71381 8.85947 10.0644 10.2248 10.0644 11.6113Z" fill="#22AAEE"/>
<path d="M69.7716 15.1759C69.5432 15.3991 69.1766 15.3991 68.9535 15.1706C68.8419 15.0591 68.7835 14.9103 68.7835 14.7562C68.7782 14.5969 68.8472 14.4375 68.9641 14.3312C69.0704 14.2303 69.2138 14.1719 69.3626 14.1719C69.6813 14.1719 69.9416 14.4322 69.9416 14.7562C69.9469 14.9156 69.8832 15.0644 69.7716 15.1759ZM69.0279 14.4269C68.9376 14.5172 68.8897 14.6341 68.8897 14.7616C68.8897 14.8891 68.9376 15.0166 69.0332 15.1016C69.2191 15.2875 69.5166 15.2875 69.7079 15.1069C69.7079 15.1069 69.7079 15.1069 69.7132 15.1016C69.8035 15.0112 69.8566 14.8891 69.8513 14.7616C69.8513 14.6341 69.8035 14.5119 69.7132 14.4269C69.5326 14.2409 69.2351 14.2303 69.0491 14.4109C69.0385 14.4162 69.0332 14.4216 69.0279 14.4269ZM69.1129 15.0856V14.4428H69.2935H69.4263C69.4688 14.4428 69.5113 14.4534 69.5538 14.4747C69.6122 14.5066 69.6441 14.565 69.6388 14.6288C69.6441 14.6713 69.6282 14.7138 69.5963 14.7456C69.5644 14.7722 69.5272 14.7828 69.4847 14.7881C69.5166 14.7934 69.5485 14.8041 69.5751 14.8253C69.6176 14.8625 69.6388 14.9156 69.6335 14.9687V15.0272C69.6335 15.0325 69.6335 15.0378 69.6335 15.0484C69.6335 15.0537 69.6335 15.0591 69.6388 15.0697L69.6441 15.0856H69.4847C69.4794 15.0537 69.4741 15.0272 69.4741 14.9953C69.4741 14.9687 69.4688 14.9422 69.4635 14.9156C69.4582 14.8944 69.4369 14.8784 69.4157 14.8678C69.3997 14.8625 69.3785 14.8572 69.3572 14.8572H69.3201H69.2829V15.0856H69.1129ZM69.421 14.565C69.3891 14.5544 69.3572 14.5491 69.3254 14.5544H69.2829V14.7403H69.3466C69.3785 14.7403 69.4104 14.735 69.4369 14.7191C69.4582 14.7031 69.4741 14.6712 69.4688 14.6447C69.4741 14.6075 69.4529 14.5756 69.421 14.565Z" fill="white"/>
</g>
<defs>
<clipPath id="clip0_2793_576">
<rect width="68" height="9.24375" fill="white" transform="translate(2 7)"/>
</clipPath>
</defs>
</svg>
