<svg width="72" height="24" viewBox="0 0 72 24" fill="none" xmlns="http://www.w3.org/2000/svg">
<g clip-path="url(#clip0_2827_1626)">
<path d="M55.4669 8.62387C53.6749 8.62387 52.2456 10.0745 52.2456 11.8452C52.2456 13.6159 53.6962 15.0665 55.4669 15.0665C57.2589 15.0665 58.6882 13.6159 58.6882 11.8452C58.6882 10.0745 57.2376 8.62387 55.4669 8.62387ZM55.4669 14.0639C54.2509 14.0639 53.2482 13.0825 53.2482 11.8665C53.2482 10.6505 54.2296 9.64787 55.4456 9.64787C56.6616 9.64787 57.6642 10.6292 57.6642 11.8452C57.6642 13.0612 56.6829 14.0639 55.4669 14.0639ZM22.9016 9.60521H19.2749V8.60254H24.9709L21.0242 14.0425H24.6296V15.0452H18.9976C18.9976 15.0452 22.9016 9.60521 22.9016 9.60521ZM26.3469 8.60254H31.1682V9.62654H27.4776V11.3119H30.7202V12.3359H27.4776V14.0639H31.1682V15.0665H26.3256V8.60254H26.3469ZM32.5762 8.60254H35.4562C36.2669 8.60254 36.9069 8.83721 37.3122 9.24254C37.6749 9.62654 37.8669 10.1172 37.8456 10.6292V10.6505C37.8456 11.7172 37.2056 12.3359 36.3096 12.6132L38.0589 15.0452H36.7149L35.1362 12.8052H33.7069V15.0452H32.5762V8.60254ZM35.3709 11.8025C36.1816 11.8025 36.6936 11.3759 36.6936 10.7145V10.6932C36.6936 10.0105 36.2029 9.62654 35.3496 9.62654H33.7069V11.7812H35.3709V11.8025ZM46.5922 8.60254H51.3922V9.62654H47.7442V11.3759H51.0082V12.4212H47.7442V15.0452H46.5922V8.60254ZM61.3976 11.7812L59.1362 8.60254H60.4802L62.0802 10.8639L63.7016 8.60254H65.0029L62.7416 11.7812L65.1096 15.0665H63.7442L62.0376 12.7199L60.3309 15.0665H59.0509L61.3976 11.7812Z" fill="#131E29"/>
<path d="M40.4055 13.2533C39.6162 12.3146 39.7442 10.9279 40.6615 10.1386C41.2802 9.60527 42.1549 9.47727 42.9015 9.77594L43.5202 8.92261C41.9202 8.13327 39.9789 8.79461 39.1895 10.3946C38.5922 11.6319 38.8269 13.1039 39.7869 14.0853L40.4055 13.2533Z" fill="#E4002B"/>
<path d="M44.3948 9.58398L43.7761 10.4373C44.5655 11.376 44.4375 12.7627 43.4988 13.552C42.8801 14.064 42.0268 14.2133 41.2588 13.9147L40.6401 14.768C42.2401 15.5573 44.1815 14.896 44.9708 13.296C45.6108 12.0373 45.3548 10.5653 44.3948 9.58398Z" fill="#BA0C2F"/>
<path d="M10.6345 10.6078L12.0212 9.69043V12.0158L12.5545 12.5491L10.2932 14.7464H9.84521V10.6078H10.6345Z" fill="#BA0C2F"/>
<path d="M9.07723 10.6078L7.66923 9.69043V12.0158L7.15723 12.5491L9.41856 14.7464H9.84523V10.6078H9.07723Z" fill="#E4002B"/>
<path d="M5.96284 16.2188L6.70951 15.1735C4.87484 13.4242 4.81085 10.5228 6.56018 8.70949C7.96818 7.23749 10.1868 6.87483 11.9788 7.81349L12.7255 6.76816C9.93084 5.16816 6.36818 6.14949 4.76818 8.96549C3.40285 11.3548 3.89351 14.3842 5.96284 16.2188Z" fill="#BA0C2F"/>
<path d="M13.7492 7.49316L12.9812 8.5385C14.7945 10.2878 14.8585 13.1678 13.1092 15.0025C11.7012 16.4745 9.50385 16.8372 7.69051 15.8985L6.94385 16.9438C9.73851 18.5438 13.3225 17.5838 14.9225 14.7678C16.3092 12.3572 15.8185 9.32783 13.7492 7.49316Z" fill="#E4002B"/>
<path d="M67.9575 9.17844C67.9255 9.10378 67.8828 9.03978 67.8295 8.98644C67.6481 8.81578 67.3815 8.76244 67.1468 8.85844C67.0721 8.89044 67.0081 8.93311 66.9548 8.98644C66.9015 9.03978 66.8588 9.10378 66.8268 9.17844C66.7628 9.33844 66.7628 9.50911 66.8268 9.65844C66.8588 9.73311 66.9015 9.79711 66.9548 9.85044C67.0081 9.90378 67.0721 9.94644 67.1468 9.97844C67.2215 10.0104 67.3068 10.0211 67.3921 10.0211C67.4775 10.0211 67.5628 10.0104 67.6375 9.97844C67.7121 9.94644 67.7761 9.90378 67.8295 9.85044C67.8828 9.79711 67.9255 9.73311 67.9575 9.65844C68.0108 9.50911 68.0108 9.33844 67.9575 9.17844ZM67.9041 9.64778C67.8721 9.71178 67.8401 9.77578 67.7868 9.82911C67.7335 9.88244 67.6695 9.91444 67.6055 9.94644C67.5308 9.96778 67.4561 9.98911 67.3815 9.98911C67.3068 9.98911 67.2321 9.97844 67.1575 9.95711C67.0935 9.93578 67.0295 9.89311 66.9761 9.83978C66.9228 9.78644 66.8801 9.73311 66.8588 9.66911C66.8268 9.59444 66.8161 9.51978 66.8161 9.44511C66.8161 9.37044 66.8268 9.28511 66.8588 9.22111C66.8908 9.15711 66.9228 9.09311 66.9761 9.05044C67.0295 8.99711 67.0828 8.95444 67.1575 8.93311C67.2321 8.90111 67.3068 8.89044 67.3815 8.89044C67.4561 8.89044 67.5308 8.90111 67.6055 8.93311C67.6695 8.95444 67.7335 8.99711 67.7868 9.05044C67.8401 9.10378 67.8721 9.15711 67.9041 9.22111C67.9361 9.29578 67.9468 9.37044 67.9468 9.44511C67.9468 9.49844 67.9361 9.57311 67.9041 9.64778Z" fill="#131E29"/>
<path d="M67.4774 9.49863C67.4987 9.49863 67.5307 9.48796 67.5521 9.4773C67.5734 9.46663 67.5947 9.4453 67.6054 9.42396C67.6161 9.40263 67.6374 9.3813 67.6481 9.3493C67.6587 9.32796 67.6587 9.29596 67.6587 9.26396C67.6587 9.23196 67.6587 9.21063 67.6374 9.17863C67.6161 9.1253 67.5734 9.07196 67.5201 9.05063C67.4881 9.03996 67.4667 9.0293 67.4347 9.0293H67.1147V9.7973H67.1787V9.51996H67.4027L67.5841 9.80796H67.6587L67.4774 9.49863ZM67.1787 9.4453V9.0933H67.4241C67.4667 9.0933 67.5094 9.11463 67.5414 9.14663C67.5734 9.17863 67.5841 9.2213 67.5841 9.27463C67.5841 9.3173 67.5734 9.35996 67.5414 9.40263C67.5094 9.43463 67.4667 9.45596 67.4241 9.45596H67.1787V9.4453Z" fill="#131E29"/>
</g>
<defs>
<clipPath id="clip0_2827_1626">
<rect width="64" height="11.7227" fill="white" transform="translate(4 6)"/>
</clipPath>
</defs>
</svg>
