<svg width="72" height="24" viewBox="0 0 72 24" fill="none" xmlns="http://www.w3.org/2000/svg">
    <path d="M21.693 13.816C22.8721 13.816 23.7727 13.424 24.2276 13.0787V11.6227H24.2183C23.5406 12.136 22.8071 12.5093 21.7952 12.5093C20.3561 12.5093 19.6319 11.5947 19.6319 10.428C19.6319 9.20534 20.4118 8.29068 21.8045 8.29068C22.835 8.29068 23.522 8.74801 24.2183 9.21468H24.2276V7.75868C23.7541 7.38534 22.9 6.98401 21.8323 6.98401C19.3998 6.98401 18.165 8.62668 18.165 10.4373C18.165 12.2107 19.1956 13.816 21.693 13.816Z" fill="white"/>
    <path d="M28.575 13.6667H33.6627L33.7091 12.3413H30.0047V7.13334H28.575V13.6667Z" fill="white"/>
    <path d="M40.7558 13.816C42.9468 13.816 44.3302 12.472 44.3302 10.4C44.3302 8.32801 42.9468 6.98401 40.7558 6.98401C38.5647 6.98401 37.1814 8.32801 37.1814 10.4C37.1814 12.472 38.5647 13.816 40.7558 13.816ZM40.7465 12.5187C39.4003 12.5187 38.6483 11.716 38.6483 10.4C38.6483 9.08401 39.4188 8.28134 40.7651 8.28134C42.1113 8.28134 42.8633 9.08401 42.8633 10.4C42.8633 11.716 42.0927 12.5187 40.7465 12.5187Z" fill="white"/>
    <path d="M51.6792 13.816C53.4246 13.816 54.8079 13.0973 54.8079 11.1V7.13334H53.3782V11.128C53.3782 12.164 52.5704 12.4907 51.6977 12.4907C50.825 12.4907 50.0173 12.1453 50.0173 11.0813V7.13334H48.5875V11.1467C48.5875 13.088 49.9337 13.816 51.6792 13.816Z" fill="white"/>
    <path d="M59.4431 13.6667H62.6276C64.6702 13.6667 65.8957 12.4253 65.8957 10.3907C65.8957 8.34668 64.6702 7.13334 62.6276 7.13334H59.4431V13.6667ZM60.8729 12.3693V8.43068H62.6184C63.7696 8.43068 64.4288 9.06534 64.4288 10.4093C64.4288 11.7627 63.7696 12.3693 62.6184 12.3693H60.8729Z" fill="white"/>
    <path d="M18.2524 17H19.3123C19.6605 17 19.8801 17.1704 19.8801 17.5022C19.8801 17.7265 19.8044 17.8789 19.5924 17.9596C19.8119 18.0583 19.9103 18.1928 19.9103 18.435C19.9103 18.8475 19.6454 19 19.2744 19H18.2524V17ZM19.1836 17.7982C19.3199 17.7982 19.3804 17.7444 19.3804 17.6188C19.3804 17.5022 19.3199 17.4484 19.1836 17.4484H18.7521V17.7982H19.1836ZM19.2063 18.5426C19.3577 18.5426 19.4107 18.4888 19.4107 18.3543C19.4107 18.2287 19.3501 18.1659 19.2063 18.1659H18.7521V18.5426H19.2063Z" fill="#A3A3A3"/>
    <path d="M21.1068 18.3543L20.2419 17H20.9126L21.398 17.7982H21.4245L21.9187 17H22.563L21.6981 18.3543V19H21.1068V18.3543Z" fill="#A3A3A3"/>
    <path d="M24.2209 17H25.4366C25.9432 17 26.2103 17.287 26.2103 17.7444C26.2103 18.2646 25.8695 18.5067 25.3906 18.5067H24.838V19H24.2209V17ZM25.3261 18.0314C25.5195 18.0314 25.6024 17.9148 25.6024 17.7534C25.6024 17.574 25.5103 17.4753 25.3261 17.4753H24.8472V18.0314H25.3261Z" fill="#A3A3A3"/>
    <path d="M26.8987 17H27.8518L28.5314 19H27.9136L27.7724 18.5874H26.9605L26.8193 19H26.2103L26.8987 17ZM27.1017 18.13H27.6312L27.4194 17.5022H27.3135L27.1017 18.13Z" fill="#A3A3A3"/>
    <path d="M29.1945 17H29.786V18.4798H30.8524L30.8256 19H29.1945V17Z" fill="#A3A3A3"/>
    <path d="M31.184 18C31.184 17.3898 31.5741 17 32.1827 17C32.7912 17 33.1735 17.3898 33.1735 18C33.1735 18.6102 32.7912 19 32.1827 19C31.5741 19 31.184 18.6186 31.184 18ZM32.6586 18C32.6586 17.6695 32.4869 17.4831 32.1827 17.4831C31.8784 17.4831 31.7067 17.678 31.7067 18C31.7067 18.3305 31.8784 18.5169 32.1827 18.5169C32.4791 18.5254 32.6586 18.3305 32.6586 18Z" fill="#A3A3A3"/>
    <path d="M35.5224 17H36.4703L37.1524 19H36.5323L36.3906 18.5874H35.5844L35.4427 19H34.8314L35.5224 17ZM35.7261 18.13H36.2577L36.0451 17.5022H35.9388L35.7261 18.13Z" fill="#A3A3A3"/>
    <path d="M37.484 17H38.0844V18.4798H39.1419L39.124 19H37.484V17Z" fill="#A3A3A3"/>
    <path d="M40.0534 17.5112H39.4735L39.4884 17H41.1165L41.1314 17.5112H40.5515V19H40.0534V17.5112Z" fill="#A3A3A3"/>
    <path d="M41.7945 18C41.7945 17.3814 42.1783 17 42.7893 17C43.4002 17 43.784 17.3898 43.784 18C43.784 18.6102 43.4002 19 42.7893 19C42.1783 19 41.7945 18.6186 41.7945 18ZM43.2671 18C43.2671 17.6695 43.0948 17.4831 42.7893 17.4831C42.4838 17.4831 42.3115 17.678 42.3115 18C42.3115 18.3305 42.4838 18.5169 42.7893 18.5169C43.0869 18.5254 43.2671 18.3305 43.2671 18Z" fill="#A3A3A3"/>
    <path d="M45.4419 17H46.0414L46.8754 18.13H46.8841V17H47.4314V19H46.8493L45.9979 17.8341H45.9892V19H45.4419V17Z" fill="#A3A3A3"/>
    <path d="M48.0945 17H50.0246L50.0444 17.4843H48.7478V17.7534H49.7673V18.2018H48.7478V18.5067H50.084L50.0642 19H48.0945V17Z" fill="#A3A3A3"/>
    <path d="M51.1084 17.5112H50.4156L50.4422 17H52.3784L52.4051 17.5112H51.7123V19H51.1084V17.5112Z" fill="#A3A3A3"/>
    <path d="M52.7367 17H53.3699L53.6865 18.3812H53.7129L54.1263 17H54.7068L55.1114 18.3812H55.1377L55.4544 17H56.0524L55.5423 19H54.7683L54.4077 17.7892H54.3901L54.0295 19H53.2556L52.7367 17Z" fill="#A3A3A3"/>
    <path d="M56.384 18C56.384 17.3898 56.8318 17 57.5445 17C58.2573 17 58.7051 17.3898 58.7051 18C58.7051 18.6102 58.2573 19 57.5445 19C56.8318 19 56.384 18.6186 56.384 18ZM58.102 18C58.102 17.6695 57.9009 17.4831 57.5445 17.4831C57.1882 17.4831 56.9871 17.678 56.9871 18C56.9871 18.3305 57.1882 18.5169 57.5445 18.5169C57.9009 18.5254 58.102 18.3305 58.102 18Z" fill="#A3A3A3"/>
    <path d="M59.3682 17H60.5026C61.0174 17 61.2704 17.2511 61.2704 17.7175C61.2704 18.0404 61.1396 18.2556 60.8952 18.3543L61.3577 19H60.6945L60.3368 18.4709H59.9529V19H59.3682V17ZM60.424 18.0045C60.616 18.0045 60.6858 17.8969 60.6858 17.7444C60.6858 17.5919 60.616 17.4843 60.424 17.4843H59.9529V18.0045H60.424Z" fill="#A3A3A3"/>
    <path d="M61.6893 17H62.2447V17.7354H62.4685L63.0073 17H63.6373L62.9244 17.9596L63.6788 18.991L63.6705 19H63.0239L62.4685 18.2287H62.2447V19H61.6893V17Z" fill="#A3A3A3"/>
    <path d="M64.3578 18.8291V18.3102C64.6513 18.4718 64.9448 18.5484 65.1907 18.5484C65.3811 18.5484 65.4763 18.4973 65.4763 18.4038C65.4763 18.3102 65.4128 18.2846 65.032 18.2166C64.6196 18.1485 64.3419 18.0124 64.3419 17.6296C64.3419 17.2722 64.6354 17 65.1986 17C65.4287 17 65.6666 17.051 65.8808 17.1531V17.6721C65.6746 17.5445 65.389 17.4594 65.159 17.4594C64.9606 17.4594 64.8734 17.5105 64.8734 17.5955C64.8734 17.7061 65.0003 17.7146 65.3097 17.7742C65.7222 17.8508 65.9998 17.9784 65.9998 18.3782C65.9998 18.693 65.7856 18.9993 65.159 18.9993C64.8575 19.0078 64.6116 18.9397 64.3578 18.8291Z" fill="#A3A3A3"/>
    <path d="M11.0454 13.6679V6.25928L14.9368 13.6679H11.0454Z" fill="#54BEE4"/>
    <path d="M11.0435 6.25933L7.15203 13.6679H11.0435V19L3 11L11.0435 3V6.25933Z" fill="#54BEE4"/>
</svg>
