<svg width="72" height="24" viewBox="0 0 72 24" fill="none" xmlns="http://www.w3.org/2000/svg">
    <g clip-path="url(#clip0_2603_1367)">
        <path d="M21.9354 14.1474C21.2904 14.7721 20.4643 15.0622 19.5929 15.0622C17.3296 15.0622 16.3224 13.5227 16.3111 11.9163C16.2998 10.2988 17.3749 8.69243 19.5929 8.69243C20.4303 8.69243 21.2338 9.00478 21.8675 9.61833L21.1999 10.2542C20.7585 9.81912 20.1701 9.61833 19.5929 9.61833C18.0086 9.61833 17.2843 10.7673 17.2957 11.894C17.307 13.0207 17.986 14.1251 19.5929 14.1251C20.1701 14.1251 20.8151 13.8908 21.2451 13.4558L21.9354 14.1474Z" fill="white"/>
        <path d="M25.5909 11.5147L27.3676 8.80398H28.5671V8.84861L26.0888 12.4183V14.9394H25.093V12.4183L22.6938 8.84861V8.80398H23.8821L25.5909 11.5147Z" fill="white"/>
        <path d="M30.8643 14.0247H32.7316C33.2861 14.0247 34.0443 13.8462 34.0443 13.1769C34.0443 12.5187 33.3087 12.2175 32.7316 12.2175H30.853V14.0247H30.8643ZM30.8643 11.3474H32.7429C33.4898 11.3474 33.8632 11.0574 33.8632 10.5777C33.8632 10.1426 33.4785 9.69641 32.7316 9.69641H30.8643V11.3474ZM32.7316 8.80398C33.9198 8.80398 34.8478 9.33944 34.8478 10.5554C34.8478 11.0685 34.5762 11.5371 33.9877 11.7713C34.7346 11.9944 35.0515 12.7195 35.0515 13.188C35.0515 14.5267 33.9651 14.9394 32.7429 14.9394H29.8911V8.80398H32.7316Z" fill="white"/>
        <path d="M41.2982 14.9394H36.6924V8.80398H41.2643V9.75219H37.6882V11.4143H41.1285V12.3291H37.6882V13.9689H41.2982V14.9394Z" fill="white"/>
        <path d="M44.0143 9.69641V11.9275H45.9042C46.7303 11.9275 47.0924 11.4143 47.0924 10.8343C47.0924 10.2765 46.7303 9.70757 45.9042 9.70757H44.0143V9.69641ZM48.3938 14.9394H47.2282L45.3384 12.8199H44.0256V14.9394H43.0298V8.79283C44.003 8.79283 44.9649 8.80398 45.9268 8.80398C47.364 8.80398 48.1222 9.7745 48.1222 10.812C48.1222 11.6932 47.6583 12.5522 46.4361 12.7195L48.292 14.761L48.3938 14.9394Z" fill="white"/>
        <path d="M52.6373 10.5219L51.8338 12.4741H53.4294L52.6373 10.5219ZM54.0292 13.9355H51.2453L50.8379 14.9394H48.9707L51.7659 8.80398H53.5426L56.3265 14.9394H54.4366L54.0292 13.9355Z" fill="white"/>
        <path d="M59.0197 10.1873V11.6598H60.3211C60.7851 11.6598 60.9888 11.3139 60.9888 10.9458C60.9888 10.5554 60.7624 10.1873 60.2985 10.1873H59.0197ZM63.0257 14.9394H61.0906L59.6421 12.9538H59.031V14.9394H57.2656V8.80398H60.2985C61.8941 8.80398 62.7202 9.80797 62.7202 10.9124C62.7202 11.6709 62.4486 12.3068 61.4075 12.7641L63.0257 14.8279V14.9394Z" fill="white"/>
        <path d="M69.7704 8.90438L67.2468 11.8048C68.1182 12.753 69.1254 13.8574 69.9854 14.8279V14.9283H67.8014L66.0247 12.8869V14.9283H64.2593V8.79283H66.0247V10.812C66.5565 10.1649 67.1337 9.43984 67.6656 8.79283H69.7704V8.90438Z" fill="white"/>
        <path d="M71.2416 8.04542H71.1624V8.30199H71.2416C71.3774 8.30199 71.4226 8.25737 71.4226 8.16813C71.4113 8.07888 71.3547 8.04542 71.2416 8.04542ZM71.5358 8.74821H71.4679C71.4566 8.74821 71.4453 8.74821 71.434 8.73705C71.4113 8.70359 71.4 8.68127 71.3774 8.63665C71.3208 8.54741 71.2868 8.49163 71.2416 8.43586C71.2303 8.4247 71.2189 8.41355 71.1963 8.41355H71.1624V8.71474C71.1624 8.73705 71.1397 8.75936 71.1284 8.75936H71.0831C71.0605 8.75936 71.0379 8.73705 71.0379 8.71474V8.0008C71.0379 7.97849 71.0605 7.96733 71.0831 7.96733H71.2868C71.4679 7.96733 71.5584 8.06773 71.5584 8.19044C71.5584 8.30199 71.4905 8.40239 71.3434 8.41355C71.3887 8.43586 71.4792 8.55857 71.5698 8.7259C71.5698 8.71474 71.5698 8.74821 71.5358 8.74821ZM71.2755 7.73307C70.9474 7.73307 70.6758 8.0008 70.6758 8.34661C70.6758 8.69243 70.936 8.96016 71.2755 8.96016C71.6037 8.96016 71.8753 8.69243 71.8753 8.34661C71.8753 8.0008 71.6037 7.73307 71.2755 7.73307ZM71.2755 9.06056C70.8795 9.06056 70.5513 8.74821 70.5513 8.34661C70.5513 7.93386 70.8795 7.63267 71.2755 7.63267C71.6716 7.63267 71.9998 7.94502 71.9998 8.34661C71.9998 8.75936 71.6716 9.06056 71.2755 9.06056Z" fill="white"/>
        <mask id="mask0_2603_1367" style="mask-type:luminance" maskUnits="userSpaceOnUse" x="1" y="5" width="13" height="14">
            <path d="M13.1313 15.3745L7.31463 18.6876V15.4191L13.1313 12.106V15.3745ZM4.24785 13.8127L7.07698 15.4191V18.6876L1.37345 15.4526L4.24785 13.8127ZM7.06567 5.31235V8.58088L4.24785 10.1873L1.36213 8.55857L7.06567 5.31235ZM13.0069 8.54741L10.1325 10.1873L7.30331 8.58088V5.31235L13.0069 8.54741ZM4.12337 13.612L1.24896 15.2518L1.23765 8.75936L4.11205 10.388V13.612H4.12337ZM7.06567 11.9275L4.36101 13.4669V10.3992L7.06567 8.85976V11.9275ZM7.30331 8.85976L10.008 10.3992V13.4781L7.30331 11.9275V8.85976ZM7.19015 15.2072L4.4855 13.6789L7.19015 12.1394L9.8948 13.6789L7.19015 15.2072ZM13.1879 11.7936L10.2456 13.4669V10.3992L13.3011 8.65896V8.45817L7.24673 5H7.12225L1.05658 8.45817L1 8.55857L1.01132 15.4526L1.0679 15.553L7.13357 18.9888H7.25805L13.3124 15.5418L13.369 15.4414V11.894L13.1879 11.7936Z" fill="white"/>
        </mask>
        <g mask="url(#mask0_2603_1367)">
            <path d="M13.369 5H1V19H13.369V5Z" fill="url(#paint0_linear_2603_1367)"/>
        </g>
    </g>
    <defs>
        <linearGradient id="paint0_linear_2603_1367" x1="7.18989" y1="4.19095" x2="7.18989" y2="20.1876" gradientUnits="userSpaceOnUse">
            <stop stop-color="#38B1E6"/>
            <stop offset="0.00527273" stop-color="#38B1E6"/>
            <stop offset="0.2666" stop-color="#329CD7"/>
            <stop offset="0.7878" stop-color="white"/>
            <stop offset="1" stop-color="white"/>
        </linearGradient>
        <clipPath id="clip0_2603_1367">
            <rect width="71" height="14" fill="white" transform="translate(1 5)"/>
        </clipPath>
    </defs>
</svg>
