<svg width="73" height="24" viewBox="0 0 73 24" fill="none" xmlns="http://www.w3.org/2000/svg">
<path d="M8.1902 11.2245H5.35319L5.96784 8.44333H8.5915C9.45504 8.44333 9.96301 8.90812 9.96301 9.58626C9.96301 10.4803 9.30773 11.2245 8.1902 11.2245ZM12.8711 9.31196C12.8711 7.40199 11.398 6 8.82262 6H3.58038L1.01514 17.6833H3.93596L4.81983 13.6703H6.52914L8.2283 17.6833H11.1415L9.33059 13.4773C11.5022 13.137 12.8711 11.3946 12.8711 9.31196Z" fill="white"/>
<path d="M17.9106 13.3097L20.4149 9.0021L21.3622 13.3097H17.9131H17.9106ZM19.2313 6L12.4448 17.6833H15.358L16.4933 15.7454H21.8981L22.3248 17.6833H25.238L22.6804 6H19.2313ZM33.6017 11.2245H31.0111L31.6207 8.44333H33.876C34.765 8.44333 35.3111 8.86749 35.3111 9.58626C35.3111 10.4803 34.638 11.2245 33.6043 11.2245M34.1732 6H29.2332L26.668 17.6833H29.5837L30.4727 13.6653H33.7287C36.5124 13.6653 38.1989 11.5673 38.1989 9.35514C38.1989 7.38422 36.6623 6.00254 34.1707 6.00254" fill="white"/>
<path d="M43.8422 6H40.9214L38.3511 17.6833H41.2719L43.8422 6Z" fill="white"/>
<path d="M64.7603 6H55.5508C55.6905 6.14223 55.8302 6.28954 55.9572 6.44447C56.9883 7.69408 57.5319 9.2637 57.5319 10.9908C57.5319 13.6576 56.4092 16.0629 54.606 17.6833H60.2444L62.924 11.0238H59.5714L60.1301 8.44079H66.7896L63.2922 17.6833H64.6637C67.8563 17.7036 70.0152 15.052 70.0152 11.8315C70.0152 8.61096 67.9579 6 64.7577 6" fill="#E85E26"/>
<path d="M48.5002 15.245H46.8874L48.3859 8.44333H49.9098C51.581 8.44333 52.5182 9.69548 52.5182 11.2626C52.5182 13.3706 51.0146 15.245 48.5053 15.245M54.352 7.90488C53.3513 6.68576 51.6979 6 49.7473 6H46.0035L43.4307 17.6833H48.1421C49.9708 17.6833 51.3778 17.2769 52.4522 16.6293C54.6365 15.3035 55.4111 12.9719 55.4111 10.9908C55.4111 9.75643 55.0251 8.71002 54.3545 7.90488" fill="white"/>
</svg>
