<svg width="72" height="24" viewBox="0 0 72 24" fill="none" xmlns="http://www.w3.org/2000/svg">
    <path d="M9.4764 17.3588C11.2754 17.0078 12.7608 16.7168 12.7783 16.7123L12.8091 16.7048L11.1109 14.4698C10.1771 13.2405 9.4127 12.2303 9.4127 12.2243C9.4127 12.213 11.1662 6.86929 11.1767 6.85054C11.1795 6.84454 12.373 9.12453 14.0691 12.3773L16.9776 17.9573L17 18L11.603 17.9993L6.206 17.9985L9.4764 17.3588ZM3 16.6778C3 16.6748 3.8001 15.1373 4.778 13.2615L6.556 9.85203L8.628 7.92753C9.769 6.86929 10.7042 6.00154 10.707 6.00004C10.7112 5.99854 10.6965 6.04054 10.6741 6.09304L8.4243 11.433L6.2137 16.6785L4.6072 16.6808C3.7231 16.6823 3 16.6808 3 16.6778H3Z" fill="#0089D6"/>
    <path d="M24.2662 11.9192H23.4591V8.79104C23.4591 8.53462 23.475 8.22149 23.507 7.85036H23.4935C23.4431 8.06158 23.3986 8.21319 23.36 8.30567L21.8964 11.9192H21.3356L19.8684 8.33274C19.8274 8.22721 19.784 8.06641 19.7386 7.85076H19.7251C19.7435 8.0441 19.7525 8.35973 19.7525 8.79788V11.9192H19V7.08537H20.1456L21.4349 10.3046C21.5329 10.5518 21.5968 10.7363 21.6262 10.8574H21.6433C21.7277 10.6034 21.796 10.4145 21.8485 10.291L23.1618 7.08537H24.2664L24.2662 11.9192ZM25.7812 7.74257C25.6513 7.74257 25.5399 7.70116 25.4478 7.61794C25.3554 7.53481 25.3093 7.42904 25.3093 7.30103C25.3093 7.17302 25.3554 7.0662 25.4478 6.98065C25.5403 6.89542 25.6513 6.85256 25.7812 6.85256C25.9156 6.85256 26.0299 6.89542 26.1232 6.98065C26.2166 7.0662 26.2636 7.17262 26.2636 7.30103C26.2636 7.42219 26.2166 7.52627 26.1232 7.61279C26.0295 7.69947 25.9156 7.74257 25.7812 7.74257ZM26.1743 11.9192H25.3811V8.46727H26.1743L26.1743 11.9192ZM29.7208 11.7607C29.4405 11.9202 29.1086 12 28.7255 12C28.2057 12 27.7862 11.8398 27.467 11.5198C27.148 11.1997 26.9882 10.7845 26.9882 10.2742C26.9882 9.70562 27.1598 9.24901 27.5029 8.9039C27.846 8.55895 28.3047 8.38639 28.8794 8.38639C29.1985 8.38639 29.4801 8.44149 29.7239 8.55178V9.27978C29.4798 9.10014 29.22 9.01007 28.9444 9.01007C28.6092 9.01007 28.3346 9.12205 28.1203 9.34552C27.9061 9.56907 27.7987 9.86174 27.7987 10.2235C27.7987 10.5809 27.8994 10.8629 28.1012 11.0696C28.3029 11.2764 28.5737 11.3798 28.9134 11.3798C29.1985 11.3798 29.4672 11.2799 29.7204 11.0799L29.7208 11.7607ZM32.5418 9.21236C32.446 9.13808 32.3081 9.10119 32.128 9.10119C31.8931 9.10119 31.697 9.20551 31.5397 9.41464C31.3823 9.62345 31.3036 9.9079 31.3036 10.2673V11.9192H30.51V8.46727H31.3036V9.17852H31.3171C31.3945 8.9358 31.5136 8.74649 31.6744 8.61059C31.8351 8.47476 32.0147 8.40661 32.213 8.40661C32.3568 8.40661 32.4661 8.4282 32.5415 8.47066L32.5418 9.21236ZM34.6621 12C34.1218 12 33.6905 11.8388 33.3676 11.5163C33.045 11.1939 32.8835 10.7663 32.8835 10.2338C32.8835 9.6539 33.0516 9.20108 33.3881 8.87522C33.7246 8.54936 34.1773 8.38639 34.7475 8.38639C35.2948 8.38639 35.7209 8.54493 36.0265 8.86185C36.3321 9.17884 36.4845 9.61797 36.4845 10.1797C36.4845 10.7305 36.32 11.1714 35.9904 11.5026C35.6612 11.8344 35.2185 12 34.6621 12ZM34.6996 9.01007C34.3896 9.01007 34.1444 9.11689 33.9645 9.33013C33.7843 9.54369 33.6943 9.83805 33.6943 10.2132C33.6943 10.575 33.7856 10.8599 33.968 11.0676C34.1503 11.2754 34.3944 11.3794 34.7 11.3794C35.0126 11.3794 35.2525 11.2771 35.4199 11.0728C35.5872 10.8681 35.6712 10.5771 35.6712 10.1995C35.6712 9.81993 35.5876 9.52661 35.4199 9.31982C35.2521 9.11343 35.0122 9.01007 34.6996 9.01007ZM37.0766 11.8114V11.0868C37.3731 11.3093 37.7002 11.4205 38.0578 11.4205C38.5368 11.4205 38.776 11.2812 38.776 11.0025C38.776 10.9238 38.7556 10.8571 38.7146 10.8019C38.6736 10.7468 38.6184 10.6979 38.5486 10.6555C38.4787 10.613 38.3968 10.5747 38.3024 10.5408C38.2076 10.5069 38.1023 10.4689 37.986 10.4261C37.853 10.3749 37.7233 10.3152 37.5978 10.2475C37.4825 10.1845 37.387 10.1133 37.3106 10.0336C37.2354 9.95572 37.1767 9.86336 37.1381 9.76209C37.0992 9.66115 37.08 9.54297 37.08 9.40819C37.08 9.24184 37.12 9.0953 37.1998 8.96834C37.2798 8.8413 37.3866 8.73456 37.5211 8.64829C37.6558 8.56169 37.8082 8.49668 37.9794 8.45285C38.1526 8.40875 38.3306 8.38666 38.5093 8.38712C38.833 8.38712 39.1225 8.43537 39.3778 8.53188V9.21614C39.1316 9.04979 38.849 8.96657 38.5298 8.96657C38.4295 8.96657 38.3388 8.97688 38.258 8.9967C38.177 9.01692 38.1079 9.04504 38.0509 9.08097C37.994 9.11689 37.9496 9.15999 37.9176 9.21066C37.8859 9.26044 37.8693 9.31836 37.8697 9.37742C37.8697 9.45161 37.8857 9.51461 37.9176 9.56633C37.9496 9.61797 37.9968 9.66348 38.0596 9.70288C38.1221 9.74227 38.1975 9.7782 38.2854 9.81066C38.3732 9.84321 38.4739 9.87882 38.5882 9.91684C38.7263 9.97185 38.8615 10.0338 38.9934 10.1024C39.1132 10.1653 39.2153 10.2365 39.2996 10.3162C39.3827 10.3941 39.449 10.4882 39.4945 10.5928C39.54 10.6972 39.5629 10.8215 39.5629 10.9652C39.5629 11.1405 39.5219 11.2931 39.4396 11.4236C39.3577 11.554 39.248 11.6618 39.1115 11.747C38.9747 11.8326 38.8167 11.8959 38.6378 11.9373C38.4586 11.9791 38.2701 11.9997 38.0718 11.9997C37.6885 12 37.3568 11.9373 37.0766 11.8114ZM41.8711 12C41.3308 12 40.8992 11.8388 40.5765 11.5163C40.2539 11.1939 40.0928 10.7663 40.0928 10.2338C40.0928 9.6539 40.2609 9.20108 40.5974 8.87522C40.9335 8.54936 41.3867 8.38639 41.9565 8.38639C42.5038 8.38639 42.9298 8.54493 43.2354 8.86185C43.541 9.17884 43.6938 9.61797 43.6938 10.1797C43.6938 10.7305 43.5292 11.1714 43.1997 11.5026C42.8702 11.8344 42.4271 12 41.8711 12ZM41.9086 9.01007C41.5985 9.01007 41.3533 9.11689 41.1731 9.33013C40.9929 9.54369 40.9029 9.83805 40.9029 10.2132C40.9029 10.575 40.9943 10.8599 41.1766 11.0676C41.3589 11.2754 41.603 11.3794 41.9086 11.3794C42.2208 11.3794 42.4607 11.2771 42.6284 11.0728C42.7962 10.8681 42.8798 10.5771 42.8798 10.1995C42.8798 9.81993 42.7962 9.52661 42.6284 9.31982C42.4607 9.11343 42.2208 9.01007 41.9086 9.01007ZM46.4843 7.44611C46.3774 7.38553 46.2552 7.35508 46.1183 7.35508C45.7329 7.35508 45.5405 7.56969 45.5405 7.99891V8.46751H46.3544V9.08097H45.5439V11.9192H44.7505V9.08097H44.1522V8.46751H44.7505V7.90787C44.7505 7.54375 44.8714 7.25688 45.113 7.04671C45.3547 6.83645 45.6568 6.7314 46.0194 6.7314C46.2155 6.7314 46.3704 6.75267 46.4843 6.79544V7.44611ZM48.772 11.8822C48.6172 11.9586 48.413 11.9969 48.1598 11.9969C47.4806 11.9969 47.1409 11.6755 47.1409 11.0331V9.08129H46.5562V8.46792H47.1409V7.66894L47.9345 7.44652V8.46792H48.7724V9.08129H47.9345V10.807C47.9345 11.0114 47.9719 11.1575 48.0473 11.2452C48.1227 11.3328 48.248 11.3766 48.4234 11.3766C48.5578 11.3766 48.6742 11.3386 48.772 11.2619V11.8822ZM55.5021 11.9192H54.6097L54.1686 10.6887H52.24L51.816 11.9192H50.9267L52.763 7.08537H53.6794L55.5021 11.9192ZM53.953 10.0349L53.2727 8.10677C53.2522 8.04378 53.2304 7.94284 53.2078 7.80347H53.1943C53.1738 7.93156 53.1509 8.03282 53.1258 8.10677L52.4522 10.0349H53.953ZM58.6756 8.79442L56.7845 11.3089H58.6687V11.9192H55.6729V11.6259L57.605 9.0775H55.8577V8.46719H58.6756V8.79442ZM62.3995 11.9192H61.6064V11.3729H61.5929C61.3627 11.7909 61.0046 12 60.5192 12C59.6916 12 59.2778 11.5102 59.2778 10.5302V8.46719H60.0712V10.4494C60.0712 11.0697 60.3139 11.3798 60.7998 11.3798C61.0345 11.3798 61.2276 11.2945 61.3793 11.1238C61.531 10.953 61.6067 10.7294 61.6067 10.4529V8.46719H62.4003L62.3995 11.9192ZM65.4671 9.21236C65.3714 9.13808 65.2335 9.10119 65.0533 9.10119C64.8185 9.10119 64.6223 9.20551 64.465 9.41464C64.3077 9.62345 64.2289 9.9079 64.2289 10.2673V11.9192H63.4357V8.46727H64.2289V9.17852H64.2424C64.3199 8.9358 64.439 8.74649 64.5997 8.61059C64.7605 8.47476 64.94 8.40661 65.1383 8.40661C65.2817 8.40661 65.3914 8.4282 65.4664 8.47066L65.4671 9.21236ZM68.9998 10.4056H66.6127C66.6217 10.7246 66.7213 10.9707 66.912 11.1439C67.1023 11.3168 67.3638 11.4034 67.6968 11.4034C68.0707 11.4034 68.4138 11.2932 68.726 11.0731V11.7032C68.407 11.9011 67.9851 12 67.4607 12C66.9453 12 66.5415 11.8432 66.2484 11.5297C65.9553 11.2162 65.8091 10.7753 65.8091 10.2068C65.8091 9.66969 65.9702 9.23185 66.2932 8.89367C66.6158 8.55548 67.0165 8.38639 67.4954 8.38639C67.9742 8.38639 68.3444 8.53808 68.6066 8.8413C68.8688 9.14461 69 9.56593 69 10.1054L68.9998 10.4056ZM68.2337 9.8528C68.2303 9.57181 68.1643 9.35333 68.032 9.19729C67.8996 9.04125 67.7174 8.96319 67.4847 8.96319C67.2569 8.96319 67.0634 9.04536 66.9051 9.2093C66.7468 9.37323 66.6492 9.58792 66.6128 9.85312L68.2337 9.8528Z" fill="#0089D6"/>
    <path d="M34.397 19V15.076H35.447C36.047 15.076 36.515 15.238 36.851 15.562C37.187 15.886 37.355 16.372 37.355 17.02C37.355 17.672 37.189 18.166 36.857 18.502C36.525 18.834 36.067 19 35.483 19H34.397ZM35.093 18.436H35.399C35.795 18.436 36.101 18.322 36.317 18.094C36.533 17.862 36.641 17.504 36.641 17.02C36.641 16.54 36.533 16.19 36.317 15.97C36.101 15.75 35.795 15.64 35.399 15.64H35.093V18.436Z" fill="#727175"/>
    <path d="M39.437 19.072C39.165 19.072 38.919 19.012 38.699 18.892C38.479 18.768 38.305 18.592 38.177 18.364C38.049 18.132 37.985 17.854 37.985 17.53C37.985 17.21 38.049 16.934 38.177 16.702C38.309 16.47 38.479 16.292 38.687 16.168C38.895 16.044 39.113 15.982 39.341 15.982C39.609 15.982 39.833 16.042 40.013 16.162C40.193 16.278 40.329 16.442 40.421 16.654C40.513 16.862 40.559 17.104 40.559 17.38C40.559 17.524 40.549 17.636 40.529 17.716H38.657C38.689 17.976 38.783 18.178 38.939 18.322C39.095 18.466 39.291 18.538 39.527 18.538C39.655 18.538 39.773 18.52 39.881 18.484C39.993 18.444 40.103 18.39 40.211 18.322L40.445 18.754C40.305 18.846 40.149 18.922 39.977 18.982C39.805 19.042 39.625 19.072 39.437 19.072ZM38.651 17.248H39.959C39.959 17.02 39.909 16.842 39.809 16.714C39.709 16.582 39.559 16.516 39.359 16.516C39.187 16.516 39.033 16.58 38.897 16.708C38.765 16.832 38.683 17.012 38.651 17.248Z" fill="#727175"/>
    <path d="M41.968 19L40.942 16.054H41.644L42.112 17.584C42.152 17.728 42.192 17.874 42.232 18.022C42.276 18.17 42.318 18.32 42.358 18.472H42.382C42.426 18.32 42.468 18.17 42.508 18.022C42.552 17.874 42.594 17.728 42.634 17.584L43.102 16.054H43.768L42.766 19H41.968Z" fill="#727175"/>
    <path d="M45.9527 19.072C45.6127 19.072 45.3127 18.99 45.0527 18.826C44.7927 18.658 44.5887 18.422 44.4407 18.118C44.2967 17.81 44.2247 17.444 44.2247 17.02C44.2247 16.596 44.2967 16.234 44.4407 15.934C44.5887 15.634 44.7927 15.404 45.0527 15.244C45.3127 15.084 45.6127 15.004 45.9527 15.004C46.2967 15.004 46.5987 15.084 46.8587 15.244C47.1187 15.404 47.3207 15.634 47.4647 15.934C47.6127 16.234 47.6867 16.596 47.6867 17.02C47.6867 17.444 47.6127 17.81 47.4647 18.118C47.3207 18.422 47.1187 18.658 46.8587 18.826C46.5987 18.99 46.2967 19.072 45.9527 19.072ZM45.9527 18.466C46.2607 18.466 46.5067 18.336 46.6907 18.076C46.8747 17.812 46.9667 17.46 46.9667 17.02C46.9667 16.58 46.8747 16.236 46.6907 15.988C46.5067 15.736 46.2607 15.61 45.9527 15.61C45.6447 15.61 45.3987 15.736 45.2147 15.988C45.0307 16.236 44.9387 16.58 44.9387 17.02C44.9387 17.46 45.0307 17.812 45.2147 18.076C45.3987 18.336 45.6447 18.466 45.9527 18.466Z" fill="#727175"/>
    <path d="M48.5017 20.164V16.054H49.0717L49.1197 16.366H49.1437C49.2677 16.262 49.4057 16.172 49.5577 16.096C49.7137 16.02 49.8717 15.982 50.0317 15.982C50.3997 15.982 50.6837 16.118 50.8837 16.39C51.0877 16.662 51.1897 17.026 51.1897 17.482C51.1897 17.818 51.1297 18.106 51.0097 18.346C50.8897 18.582 50.7337 18.762 50.5417 18.886C50.3537 19.01 50.1497 19.072 49.9297 19.072C49.8017 19.072 49.6737 19.044 49.5457 18.988C49.4177 18.928 49.2937 18.848 49.1737 18.748L49.1917 19.24V20.164H48.5017ZM49.7857 18.502C49.9817 18.502 50.1457 18.416 50.2777 18.244C50.4097 18.072 50.4757 17.82 50.4757 17.488C50.4757 17.192 50.4257 16.962 50.3257 16.798C50.2257 16.634 50.0637 16.552 49.8397 16.552C49.6317 16.552 49.4157 16.662 49.1917 16.882V18.256C49.2997 18.344 49.4037 18.408 49.5037 18.448C49.6037 18.484 49.6977 18.502 49.7857 18.502Z" fill="#727175"/>
    <path d="M52.7769 19.072C52.5769 19.072 52.3769 19.034 52.1769 18.958C51.9769 18.878 51.8049 18.78 51.6609 18.664L51.9849 18.22C52.1169 18.32 52.2489 18.4 52.3809 18.46C52.5129 18.52 52.6529 18.55 52.8009 18.55C52.9609 18.55 53.0789 18.516 53.1549 18.448C53.2309 18.38 53.2689 18.296 53.2689 18.196C53.2689 18.112 53.2369 18.044 53.1729 17.992C53.1129 17.936 53.0349 17.888 52.9389 17.848C52.8429 17.804 52.7429 17.762 52.6389 17.722C52.5109 17.674 52.3829 17.616 52.2549 17.548C52.1309 17.476 52.0289 17.386 51.9489 17.278C51.8689 17.166 51.8289 17.028 51.8289 16.864C51.8289 16.604 51.9249 16.392 52.1169 16.228C52.3089 16.064 52.5689 15.982 52.8969 15.982C53.1049 15.982 53.2909 16.018 53.4549 16.09C53.6189 16.162 53.7609 16.244 53.8809 16.336L53.5629 16.756C53.4589 16.68 53.3529 16.62 53.2449 16.576C53.1409 16.528 53.0309 16.504 52.9149 16.504C52.7669 16.504 52.6569 16.536 52.5849 16.6C52.5129 16.66 52.4769 16.736 52.4769 16.828C52.4769 16.944 52.5369 17.032 52.6569 17.092C52.7769 17.152 52.9169 17.21 53.0769 17.266C53.2129 17.314 53.3449 17.374 53.4729 17.446C53.6009 17.514 53.7069 17.604 53.7909 17.716C53.8789 17.828 53.9229 17.976 53.9229 18.16C53.9229 18.412 53.8249 18.628 53.6289 18.808C53.4329 18.984 53.1489 19.072 52.7769 19.072Z" fill="#727175"/>
</svg>
