<svg width="72" height="24" viewBox="0 0 72 24" fill="none" xmlns="http://www.w3.org/2000/svg">
<g clip-path="url(#clip0_2827_1673)">
<path d="M7.55695 6.19576C7.73302 6.19599 7.90731 6.23099 8.06983 6.29874C8.23234 6.36649 8.37987 6.46567 8.50396 6.59058L11.2903 9.3769C12.0722 10.1589 12.5115 11.2195 12.5115 12.3254C12.5115 13.4313 12.0722 14.4918 11.2903 15.2738L8.50396 18.0602C8.38075 18.1891 8.23302 18.2922 8.06943 18.3633C7.90584 18.4344 7.7297 18.4721 7.55135 18.4741C7.37299 18.4762 7.19602 18.4426 7.03082 18.3754C6.86563 18.3081 6.71553 18.2085 6.58935 18.0825C6.46317 17.9564 6.36345 17.8064 6.29604 17.6413C6.22863 17.4761 6.1949 17.2992 6.19682 17.1208C6.19873 16.9425 6.23627 16.7663 6.30721 16.6026C6.37816 16.439 6.48108 16.2912 6.60994 16.1678L8.97154 13.8062C9.16625 13.6116 9.32071 13.3804 9.42608 13.126C9.53146 12.8717 9.5857 12.599 9.5857 12.3237C9.5857 12.0483 9.53146 11.7757 9.42608 11.5213C9.32071 11.2669 9.16625 11.0358 8.97154 10.8411L6.60994 8.48178C6.42288 8.29441 6.29554 8.05581 6.244 7.79611C6.19245 7.53641 6.21903 7.26726 6.32036 7.02265C6.42169 6.77805 6.59323 6.56895 6.81333 6.42178C7.03342 6.27461 7.29219 6.19596 7.55695 6.19576ZM7.55695 5.00002C7.05558 4.99996 6.56545 5.14859 6.14856 5.4271C5.73167 5.70562 5.40674 6.10152 5.21486 6.56472C5.02299 7.02793 4.97279 7.53763 5.07062 8.02936C5.16845 8.52109 5.40991 8.97277 5.76446 9.32726L8.1255 11.6855C8.29426 11.8547 8.38904 12.0839 8.38904 12.3228C8.38904 12.5618 8.29426 12.791 8.1255 12.9602L5.76446 15.3184C5.2833 15.788 5.00839 16.4294 5.00019 17.1017C4.99199 17.774 5.25118 18.4219 5.72075 18.9031C6.19031 19.3843 6.83178 19.6592 7.50405 19.6674C8.17631 19.6756 8.82429 19.4164 9.30545 18.9468L9.34888 18.9028L12.1352 16.1165C13.14 15.1095 13.7043 13.7451 13.7043 12.3226C13.7043 10.9 13.14 9.53557 12.1352 8.52859L9.34888 5.74228C9.11427 5.506 8.83504 5.31871 8.52742 5.19128C8.2198 5.06386 7.88992 4.99884 7.55695 5.00002Z" fill="url(#paint0_linear_2827_1673)"/>
<g opacity="0.85">
<path d="M16.1989 6.19576C16.4637 6.1958 16.7226 6.27437 16.9428 6.42154C17.163 6.56871 17.3345 6.77787 17.4359 7.02256C17.5372 7.26726 17.5636 7.5365 17.5119 7.79624C17.4602 8.05598 17.3326 8.29455 17.1453 8.48178L14.7871 10.84C14.394 11.2332 14.1732 11.7665 14.1732 12.3225C14.1732 12.8786 14.394 13.4119 14.7871 13.8051L17.1453 16.1639C17.2793 16.2845 17.3875 16.4308 17.4635 16.5942C17.5395 16.7577 17.5817 16.9347 17.5877 17.1148C17.5936 17.295 17.5632 17.4744 17.4981 17.6425C17.433 17.8106 17.3347 17.9638 17.209 18.0929C17.0833 18.2221 16.9328 18.3245 16.7666 18.3941C16.6004 18.4637 16.4218 18.4991 16.2416 18.498C16.0613 18.4969 15.8832 18.4595 15.7178 18.388C15.5524 18.3164 15.4031 18.2122 15.2789 18.0816L15.2519 18.0545L12.4684 15.2682C11.6864 14.4862 11.2471 13.4256 11.2471 12.3197C11.2471 11.2138 11.6864 10.1533 12.4684 9.37125L15.2547 6.58494C15.3792 6.46097 15.5269 6.36278 15.6894 6.296C15.8519 6.22922 16.026 6.19516 16.2017 6.19576M16.2017 5.00001C15.8687 4.99895 15.5387 5.06402 15.231 5.19143C14.9233 5.31885 14.644 5.50608 14.4092 5.74228L11.6223 8.52859C10.6175 9.53556 10.0532 10.9 10.0532 12.3225C10.0532 13.7451 10.6175 15.1095 11.6223 16.1165L14.4086 18.9028C14.8859 19.3686 15.5276 19.6275 16.1944 19.6234C16.8613 19.6193 17.4997 19.3526 17.9713 18.881C18.4428 18.4095 18.7096 17.7711 18.7136 17.1042C18.7177 16.4373 18.4588 15.7957 17.9931 15.3184L15.6326 12.9602C15.4638 12.791 15.369 12.5618 15.369 12.3228C15.369 12.0839 15.4638 11.8547 15.6326 11.6855L17.9908 9.32726C18.3453 8.9728 18.5868 8.52118 18.6846 8.0295C18.7825 7.53781 18.7323 7.02816 18.5405 6.56498C18.3487 6.1018 18.0239 5.7059 17.6071 5.42734C17.1903 5.14878 16.7002 5.00007 16.1989 5.00001H16.2017Z" fill="url(#paint1_linear_2827_1673)"/>
</g>
<path d="M12.1356 8.52861L10.2568 6.65039V8.34248L11.2901 9.37579C11.6938 9.77939 12.0102 10.2617 12.2197 10.7926H13.4402V10.6635C13.1809 9.85841 12.7337 9.12662 12.1356 8.52861Z" fill="url(#paint2_linear_2827_1673)"/>
<path d="M35.9852 10.1241C35.9852 9.24197 35.4872 8.78059 34.7359 8.78059C33.9733 8.78059 33.4758 9.24197 33.4758 10.1241V13.193H32.0533V10.1241C32.0533 9.24197 31.5559 8.78059 30.804 8.78059C30.0319 8.7789 29.5355 9.24197 29.5355 10.1241V13.193H28.1113V9.13706C28.2484 7.80651 29.5355 7.6373 29.5355 7.6373V8.30906C29.8914 7.84768 30.4904 7.55664 31.1915 7.55664C32.0652 7.55664 32.7866 7.92777 33.1729 8.61984C33.5384 7.98812 34.2801 7.55664 35.1031 7.55664C36.4567 7.55664 37.4094 8.3993 37.4094 9.93403V13.193H35.9852V10.1241Z" fill="#231F20"/>
<path d="M40.683 7.54736C41.4952 7.54736 42.088 7.80682 42.4924 8.25015V7.63761C42.4924 7.63761 43.8534 7.75041 43.9245 9.13737V13.1933H42.4924V12.3811C42.154 12.8622 41.5166 13.2836 40.6226 13.2836C39.2007 13.2836 38.0625 12.1301 38.0625 10.3952C38.0625 8.6602 39.2504 7.54736 40.683 7.54736ZM40.9988 8.77921C40.2368 8.77921 39.5154 9.34324 39.5154 10.3935C39.5154 11.4437 40.2368 12.0506 40.9988 12.0506C41.7812 12.0506 42.4924 11.4691 42.4924 10.4149C42.4924 9.36072 41.7812 8.77921 40.9988 8.77921Z" fill="#231F20"/>
<path d="M45.2469 8.7911H44.6265V7.63765H45.2469V7.26314L46.6818 6.26367V7.63765H48.0637V8.7911H46.8792C46.8266 8.79169 46.7764 8.81299 46.7395 8.85037C46.7025 8.88775 46.6818 8.9382 46.6818 8.99076V11.4787C46.6818 11.8498 46.8341 12.01 47.2814 12.01H48.0665L47.3169 13.1945H47.0456C45.9683 13.1945 45.2475 12.7433 45.2475 11.4697L45.2469 8.7911Z" fill="#231F20"/>
<path d="M49.1488 8.7911H48.5283V7.63765H49.1488V7.26314L50.5814 6.26367V7.63765H51.9661V8.7911H50.7816C50.7287 8.7911 50.6779 8.81213 50.6404 8.84958C50.603 8.88702 50.582 8.93781 50.582 8.99076V11.4787C50.582 11.8498 50.7342 12.01 51.1815 12.01H51.9667L51.2171 13.1945H50.9475C49.8707 13.1945 49.1493 12.7433 49.1493 11.4697L49.1488 8.7911Z" fill="#231F20"/>
<path d="M55.0478 13.2836C53.4121 13.2836 52.2231 12.1606 52.2231 10.4155C52.2231 8.6602 53.3817 7.54736 55.0478 7.54736C56.6734 7.54736 57.8212 8.64046 57.8212 10.2953C57.8228 10.4766 57.8093 10.6578 57.7805 10.8368H53.6631C53.7342 11.6592 54.3033 12.1205 55.0168 12.1205C55.6259 12.1205 55.9615 11.8193 56.1449 11.4482H57.6807C57.3744 12.4714 56.4398 13.2836 55.0478 13.2836ZM53.6761 9.8943H56.3502C56.3299 9.16106 55.741 8.70024 55.0095 8.70024C54.3264 8.70024 53.7889 9.13173 53.6761 9.8943Z" fill="#231F20"/>
<path d="M60.0968 13.193H58.6743V9.13706C58.6743 8.0372 60.0968 7.6373 60.0968 7.6373V8.24983C60.5057 7.69088 61.0416 7.55664 61.8239 7.55664V9.03102H61.4482C60.6022 9.03102 60.0945 9.35195 60.0945 10.4253L60.0968 13.193ZM58.6743 9.13706C58.7572 7.77323 60.0968 7.6373 60.0968 7.6373L58.6743 9.13706Z" fill="#231F20"/>
<path d="M64.7872 13.2836C63.3771 13.2836 62.3895 12.4714 62.3286 11.4386H63.4984C63.5658 11.4381 63.6319 11.4573 63.6886 11.4938C63.7452 11.5304 63.7899 11.5828 63.8171 11.6445C63.953 11.9598 64.3055 12.1803 64.7759 12.1803C65.3349 12.1803 65.6395 11.9299 65.6395 11.609C65.6395 10.6157 62.46 11.248 62.46 9.21182C62.46 8.28963 63.2931 7.54736 64.6846 7.54736C66.0461 7.54736 66.8691 8.2806 66.9503 9.38272H65.8617C65.7916 9.38234 65.7231 9.36105 65.6652 9.32156C65.6072 9.28208 65.5623 9.22619 65.5363 9.16106C65.4144 8.85479 65.1008 8.6602 64.644 8.6602C64.116 8.6602 63.8413 8.87114 63.8413 9.19208C63.8413 10.2073 66.9604 9.5728 66.9999 11.609C67.0022 12.5616 66.159 13.2836 64.7872 13.2836Z" fill="#231F20"/>
<path d="M24.644 11.4681L23.618 13.1929H22.0952L23.7309 10.7112C23.7908 10.621 23.8228 10.5152 23.8228 10.4069C23.8228 10.2986 23.7908 10.1927 23.7309 10.1026L22.0737 7.63721H23.679L24.8268 9.35186L25.8629 7.63721H27.3858L25.7411 10.0992C25.6806 10.1897 25.6484 10.2961 25.6484 10.4049C25.6484 10.5137 25.6806 10.6201 25.7411 10.7106L27.4055 13.1924H25.802L24.644 11.4681Z" fill="#231F20"/>
<path d="M23.5565 15.8745H23.0365L22.0776 18.3331H22.4758C22.5146 18.3346 22.5526 18.3222 22.583 18.2982C22.6079 18.2774 22.6272 18.2509 22.6394 18.2209L22.8086 17.7516H23.7821L23.9513 18.2209C23.964 18.253 23.9852 18.2809 24.0128 18.3015C24.0443 18.3237 24.0821 18.3348 24.1206 18.3331H24.5154L23.5565 15.8745ZM22.931 17.3974L23.195 16.6484C23.2113 16.6083 23.2277 16.5621 23.2452 16.5085C23.2627 16.4549 23.2796 16.3957 23.2954 16.3331C23.3112 16.3957 23.3275 16.4526 23.345 16.5062C23.3625 16.5598 23.3794 16.6055 23.3952 16.645L23.6609 17.3974H22.931Z" fill="#89898A"/>
<path d="M26.3972 15.8745V17.2806C26.3972 17.3167 26.3972 17.3551 26.4006 17.3934C26.404 17.4318 26.4062 17.4752 26.4113 17.5181L25.1778 15.9523C25.1665 15.938 25.154 15.9246 25.1405 15.9123C25.1298 15.9026 25.1178 15.8943 25.105 15.8875C25.0919 15.8812 25.0778 15.8772 25.0633 15.8756C25.0445 15.8743 25.0256 15.8743 25.0069 15.8756H24.7412V18.3343H25.1924V16.9112C25.1924 16.8785 25.1924 16.843 25.1924 16.8046C25.1924 16.7662 25.1874 16.7279 25.1845 16.6878L26.4096 18.2463C26.4296 18.2729 26.4549 18.295 26.4841 18.3111C26.5154 18.3252 26.5496 18.332 26.5839 18.3309H26.8462V15.8745H26.3972Z" fill="#89898A"/>
<path d="M29.7311 16.2727V15.8745H28.1665V18.3331H29.7311V17.9344H28.6781V17.2891H29.4976V16.9044H28.6781V16.2727H29.7311Z" fill="#89898A"/>
<path d="M31.8509 15.8747C31.8121 15.8737 31.774 15.886 31.7432 15.9097C31.7169 15.93 31.6962 15.9566 31.6829 15.987L31.1544 17.4033C31.1341 17.4563 31.1154 17.5161 31.098 17.5764C31.0805 17.6368 31.0641 17.7056 31.0494 17.7738C31.0331 17.7056 31.0145 17.639 30.993 17.5764C30.9716 17.5138 30.9536 17.4563 30.9338 17.4033L30.4014 15.987C30.3885 15.9549 30.367 15.927 30.3393 15.9063C30.3081 15.8839 30.2701 15.8727 30.2316 15.8747H29.8232L30.8126 18.3334H31.2728L32.2627 15.8747H31.8509Z" fill="#89898A"/>
<path d="M34.055 16.2727V15.8745H32.4893V18.3331H34.055V17.9344H33.0008V17.2891H33.8221V16.9044H33.0008V16.2727H34.055Z" fill="#89898A"/>
<path d="M35.8216 17.448C35.8005 17.4145 35.7749 17.3841 35.7455 17.3577C35.7176 17.3327 35.6869 17.3109 35.6541 17.2929C35.7325 17.2661 35.8066 17.2281 35.8741 17.18C35.9364 17.1358 35.9912 17.082 36.0365 17.0204C36.0811 16.9603 36.1154 16.8932 36.138 16.8219C36.1611 16.747 36.1727 16.669 36.1724 16.5906C36.1729 16.4916 36.1537 16.3934 36.116 16.3019C36.0796 16.2135 36.0214 16.1359 35.9468 16.0762C35.8579 16.0073 35.7561 15.9568 35.6473 15.9279C35.5037 15.8895 35.3554 15.8715 35.2068 15.8743H34.4341V18.3329H34.9417V17.3955H35.1143C35.1499 17.3938 35.1853 17.4007 35.2175 17.4158C35.2432 17.4325 35.2647 17.4546 35.2807 17.4807L35.7483 18.2342C35.7671 18.2664 35.7946 18.2927 35.8276 18.3102C35.8605 18.3276 35.8977 18.3355 35.935 18.3329H36.3935L35.8216 17.448ZM35.5644 16.9206C35.5218 16.9596 35.4714 16.9892 35.4166 17.0075C35.3477 17.0291 35.2757 17.0394 35.2034 17.0379H34.9423V16.2607H35.2068C35.3647 16.2607 35.4824 16.2928 35.5599 16.3571C35.5988 16.3902 35.6296 16.4319 35.6498 16.4789C35.6699 16.5258 35.6789 16.5768 35.6761 16.6279C35.6766 16.6835 35.6675 16.7389 35.649 16.7914C35.6311 16.8404 35.6022 16.8846 35.5644 16.9206Z" fill="#89898A"/>
<path d="M38.3731 17.2555C38.2716 17.1553 38.1423 17.0881 38.002 17.0626C38.0702 17.0395 38.1351 17.0075 38.1949 16.9673C38.2455 16.9332 38.2905 16.8913 38.328 16.8432C38.3616 16.799 38.3876 16.7494 38.4047 16.6965C38.4208 16.6439 38.429 16.5891 38.4289 16.5341C38.43 16.4407 38.4127 16.3479 38.3782 16.2611C38.3434 16.1789 38.2876 16.1073 38.2163 16.0535C38.1305 15.9912 38.0334 15.9462 37.9303 15.921C37.792 15.888 37.6501 15.8724 37.5079 15.8747H36.6348V18.3334H37.5869C37.7182 18.335 37.8489 18.316 37.9743 18.2769C38.0773 18.2446 38.1731 18.1927 38.2564 18.1241C38.3315 18.0606 38.3916 17.9813 38.4323 17.8917C38.4724 17.8004 38.4928 17.7016 38.4921 17.6018C38.4977 17.4755 38.4552 17.3517 38.3731 17.2555ZM37.143 16.2611H37.5079C37.5696 16.2604 37.6313 16.2663 37.6918 16.2786C37.7381 16.2881 37.782 16.3073 37.8204 16.335C37.8546 16.3617 37.8808 16.3974 37.8959 16.4382C37.9138 16.4883 37.9222 16.5413 37.9208 16.5944C37.9223 16.6472 37.9121 16.6996 37.8909 16.7479C37.8722 16.7889 37.8427 16.8242 37.8057 16.8499C37.7634 16.8778 37.7161 16.897 37.6664 16.9064C37.604 16.919 37.5405 16.925 37.4769 16.9244H37.143V16.2611ZM37.9715 17.7225C37.9589 17.7649 37.9363 17.8036 37.9055 17.8353C37.8698 17.8707 37.8266 17.8977 37.7792 17.9143C37.7145 17.9358 37.6465 17.9458 37.5784 17.9436H37.143V17.2707H37.575C37.6404 17.2692 37.7057 17.2768 37.769 17.2933C37.8158 17.3048 37.8595 17.3264 37.8971 17.3564C37.9292 17.3833 37.9537 17.4181 37.9681 17.4574C37.9835 17.5003 37.9909 17.5456 37.9901 17.5911C37.9902 17.6356 37.984 17.6798 37.9715 17.7225Z" fill="#89898A"/>
<path d="M40.2703 17.448C40.2489 17.4146 40.2231 17.3842 40.1936 17.3577C40.1659 17.3325 40.1352 17.3107 40.1022 17.2928C40.1808 17.266 40.2551 17.2281 40.3228 17.18C40.3851 17.1358 40.4399 17.0819 40.4852 17.0204C40.5297 16.9603 40.5638 16.8932 40.5862 16.8219C40.6095 16.747 40.6211 16.669 40.6206 16.5906C40.621 16.4916 40.6019 16.3934 40.5642 16.3018C40.5278 16.2135 40.4696 16.1359 40.395 16.0762C40.306 16.0074 40.2042 15.9569 40.0955 15.9279C39.9517 15.8896 39.8032 15.8715 39.6544 15.8743H38.8828V18.3329H39.3904V17.3955H39.563C39.5984 17.3937 39.6337 17.4007 39.6657 17.4158C39.6916 17.4322 39.7134 17.4544 39.7294 17.4807L40.1953 18.2342C40.2141 18.2665 40.2415 18.2928 40.2745 18.3103C40.3075 18.3277 40.3448 18.3356 40.382 18.3329H40.8406L40.2703 17.448ZM40.0126 16.9206C39.9702 16.9597 39.9201 16.9893 39.8654 17.0074C39.7964 17.0291 39.7244 17.0394 39.6522 17.0379H39.391V16.2607H39.655C39.8135 16.2607 39.9308 16.2928 40.0086 16.3571C40.0475 16.3903 40.0782 16.432 40.0983 16.4789C40.1185 16.5259 40.1275 16.5768 40.1248 16.6278C40.1254 16.6835 40.1162 16.7389 40.0977 16.7914C40.0799 16.8406 40.0507 16.8848 40.0126 16.9206Z" fill="#89898A"/>
<path d="M41.084 15.8745V18.3331H41.5956V15.8745H41.084Z" fill="#89898A"/>
<path d="M44.2233 16.6095C44.1661 16.4639 44.0793 16.3318 43.9683 16.2215C43.8556 16.1103 43.7212 16.0235 43.5735 15.9665C43.409 15.9038 43.2341 15.8726 43.058 15.8746H42.1099V18.3332H43.0557C43.2318 18.3351 43.4066 18.3041 43.5713 18.2418C43.7185 18.1843 43.8528 18.0978 43.9661 17.9875C44.0773 17.8771 44.1641 17.7448 44.221 17.5988C44.3429 17.2803 44.3429 16.9281 44.221 16.6095H44.2233ZM43.7422 17.4516C43.7117 17.548 43.662 17.6372 43.5961 17.7139C43.5329 17.7857 43.4539 17.8418 43.3654 17.878C43.2669 17.9171 43.1617 17.9362 43.0557 17.9344H42.6209V16.2728H43.0546C43.1606 16.2707 43.2659 16.2899 43.3643 16.3292C43.4526 16.366 43.5315 16.4223 43.595 16.4939C43.6611 16.57 43.7108 16.6589 43.741 16.7551C43.808 16.982 43.808 17.2235 43.741 17.4505L43.7422 17.4516Z" fill="#89898A"/>
<path d="M45.885 17.3641C45.8846 17.3765 45.8868 17.389 45.8917 17.4005C45.8966 17.412 45.9039 17.4223 45.9132 17.4306C45.9345 17.4493 45.9623 17.4588 45.9905 17.4571H46.268V17.87C46.2079 17.8983 46.1452 17.9207 46.0808 17.9371C45.9001 17.9782 45.7114 17.9669 45.537 17.9044C45.4417 17.8673 45.3557 17.8095 45.2855 17.7352C45.2125 17.6579 45.157 17.5657 45.123 17.465C45.083 17.348 45.0639 17.2249 45.0666 17.1012C45.0653 16.9863 45.0831 16.8719 45.1191 16.7628C45.151 16.6665 45.202 16.5777 45.2691 16.5016C45.3342 16.4283 45.415 16.3704 45.5054 16.3324C45.6036 16.2914 45.7092 16.2711 45.8157 16.2727C45.8757 16.2721 45.9356 16.2761 45.995 16.2845C46.0438 16.2917 46.092 16.303 46.1388 16.3183C46.1816 16.3327 46.2232 16.35 46.2635 16.3702C46.3024 16.39 46.3425 16.4125 46.3831 16.4368C46.4177 16.4609 46.4604 16.4706 46.5021 16.4639C46.5204 16.4595 46.5377 16.4514 46.5527 16.4401C46.5678 16.4287 46.5803 16.4143 46.5895 16.3979L46.7373 16.1723C46.6852 16.1235 46.6285 16.0799 46.5681 16.042C46.5031 16.0012 46.4344 15.9668 46.3628 15.9393C46.2839 15.909 46.2023 15.8864 46.1191 15.8716C46.026 15.8549 45.9317 15.8465 45.8371 15.8468C45.6549 15.8444 45.474 15.8761 45.3035 15.9404C45.1521 15.9982 45.0141 16.0863 44.898 16.1993C44.7856 16.3117 44.6976 16.4461 44.6397 16.5941C44.578 16.7562 44.5474 16.9284 44.5494 17.1018C44.5475 17.2743 44.5797 17.4454 44.6442 17.6055C44.7052 17.7556 44.797 17.8913 44.9138 18.0037C45.0331 18.1179 45.174 18.2071 45.3283 18.2659C45.5039 18.3307 45.69 18.3627 45.8771 18.3601C46.0298 18.361 46.1819 18.3395 46.3284 18.2964C46.4726 18.253 46.6082 18.185 46.7294 18.0956V17.0803H45.8833L45.885 17.3641Z" fill="#89898A"/>
<path d="M48.7088 16.2727V15.8745H47.1431V18.3331H48.7088V17.9344H47.6552V17.2891H48.4747V16.9044H47.6552V16.2727H48.7088Z" fill="#89898A"/>
<path d="M51.638 17.759C51.629 17.749 51.6179 17.741 51.6056 17.7357C51.5932 17.7303 51.5798 17.7277 51.5664 17.728C51.5512 17.7282 51.5362 17.7317 51.5224 17.7381C51.5086 17.7452 51.4955 17.7537 51.4835 17.7635C51.4504 17.794 51.4146 17.8212 51.3763 17.8447C51.3409 17.8667 51.303 17.8845 51.2635 17.8977C51.2212 17.9119 51.1775 17.9214 51.1332 17.9259C51.0812 17.9322 51.0288 17.935 50.9764 17.9344C50.8825 17.9347 50.7895 17.9154 50.7034 17.878C50.6171 17.8414 50.5401 17.7861 50.4778 17.7161C50.4109 17.6396 50.3598 17.5507 50.3272 17.4544C50.2883 17.3406 50.2693 17.221 50.2708 17.1008C50.2691 16.9821 50.2862 16.8638 50.3216 16.7505C50.3512 16.6551 50.3997 16.5667 50.4643 16.4905C50.5251 16.4207 50.6009 16.3653 50.6859 16.3286C50.775 16.2906 50.871 16.2714 50.9679 16.2722C51.0453 16.2702 51.1225 16.2799 51.1969 16.301C51.2493 16.3169 51.2998 16.3384 51.3475 16.3653C51.3881 16.389 51.422 16.4104 51.4502 16.4301C51.4738 16.448 51.5024 16.4581 51.532 16.4589C51.5546 16.4598 51.577 16.4539 51.5963 16.442C51.6113 16.4312 51.6244 16.4181 51.6352 16.4031L51.8044 16.1684C51.7551 16.12 51.7015 16.0762 51.6442 16.0376C51.5835 15.9966 51.5187 15.9622 51.4507 15.9349C51.3777 15.9061 51.3022 15.884 51.2251 15.8689C51.1406 15.8527 51.0546 15.8448 50.9685 15.8452C50.8544 15.8449 50.7407 15.8589 50.6301 15.887C50.5265 15.9131 50.427 15.9535 50.3345 16.0071C50.2451 16.0588 50.1634 16.123 50.092 16.1978C50.0197 16.2732 49.9579 16.358 49.9081 16.4499C49.856 16.5456 49.8169 16.6478 49.7919 16.7539C49.7272 17.0361 49.7423 17.3308 49.8354 17.605C49.8868 17.7523 49.9674 17.8877 50.0723 18.0032C50.177 18.1161 50.3047 18.2054 50.4468 18.2649C50.6043 18.3297 50.7734 18.3617 50.9437 18.3591C51.1239 18.3633 51.303 18.3297 51.4694 18.2604C51.6148 18.1969 51.742 18.098 51.8394 17.9728L51.638 17.759Z" fill="#89898A"/>
<path d="M54.356 16.6057C54.2982 16.4573 54.2113 16.3219 54.1005 16.2075C53.9882 16.0936 53.8538 16.0038 53.7057 15.9435C53.3743 15.8157 53.0072 15.8157 52.6757 15.9435C52.5266 16.0036 52.3912 16.0932 52.2775 16.2069C52.1657 16.3204 52.0785 16.4558 52.0215 16.6046C51.9004 16.9263 51.9004 17.2811 52.0215 17.6029C52.0786 17.7518 52.1658 17.8874 52.2775 18.0011C52.3912 18.1148 52.5266 18.2044 52.6757 18.2645C53.0072 18.3923 53.3743 18.3923 53.7057 18.2645C53.8545 18.2056 53.9895 18.1164 54.1019 18.0025C54.2144 17.8886 54.3019 17.7525 54.3588 17.6029C54.4799 17.2815 54.4799 16.9271 54.3588 16.6057H54.356ZM53.8754 17.4517C53.8454 17.5477 53.7956 17.6362 53.7294 17.7118C53.6652 17.7832 53.5858 17.8393 53.497 17.8759C53.2971 17.9515 53.0764 17.9515 52.8765 17.8759C52.7875 17.8395 52.7079 17.7833 52.6436 17.7118C52.5772 17.6361 52.5271 17.5476 52.4964 17.4517C52.4295 17.2251 52.4295 16.984 52.4964 16.7574C52.5273 16.6613 52.5774 16.5725 52.6436 16.4963C52.7075 16.4242 52.7872 16.368 52.8765 16.3321C53.0763 16.2558 53.2972 16.2558 53.497 16.3321C53.5861 16.3681 53.6657 16.4243 53.7294 16.4963C53.7955 16.5724 53.8452 16.6613 53.8754 16.7574C53.9439 16.9838 53.9439 17.2254 53.8754 17.4517Z" fill="#89898A"/>
<path d="M57.1442 15.8745C57.1211 15.8745 57.1019 15.8745 57.0878 15.8745C57.0729 15.8757 57.0583 15.8789 57.0444 15.8841C57.0305 15.8895 57.0179 15.8975 57.0071 15.9078C56.994 15.9207 56.9831 15.9358 56.975 15.9523L56.2925 17.2586C56.2711 17.2981 56.2508 17.3393 56.2322 17.3827C56.2135 17.4262 56.1961 17.4696 56.1791 17.5147C56.1617 17.4707 56.1442 17.4279 56.1227 17.3856C56.1013 17.3432 56.0844 17.3032 56.0624 17.2643L55.3743 15.9523C55.3663 15.936 55.3558 15.9209 55.3432 15.9078C55.3333 15.8974 55.3211 15.8893 55.3077 15.8841C55.2934 15.8788 55.2784 15.8756 55.2632 15.8745C55.2462 15.8745 55.2274 15.8745 55.2067 15.8745H54.8198V18.3331H55.271V16.8232C55.271 16.7916 55.271 16.7578 55.2671 16.7211C55.2632 16.6845 55.2626 16.6461 55.2586 16.6083L55.9654 17.9462C55.9813 17.9802 56.0065 18.0089 56.0381 18.0291C56.0701 18.0479 56.1066 18.0575 56.1436 18.0567H56.2141C56.2516 18.0579 56.2886 18.0478 56.3203 18.0277C56.352 18.0076 56.3769 17.9784 56.3918 17.9439L57.0946 16.6111C57.0906 16.6484 57.0872 16.685 57.0855 16.7211C57.0838 16.7572 57.0855 16.7911 57.0855 16.8226V18.3326H57.5368V15.8745H57.1442Z" fill="#89898A"/>
<path d="M59.7875 16.3506C59.7498 16.2539 59.6895 16.1676 59.6115 16.099C59.5236 16.0235 59.4208 15.9672 59.3098 15.9338C59.168 15.8928 59.0208 15.8738 58.8732 15.8774H58.043V18.336H58.5506V17.4899H58.8721C59.0172 17.4927 59.1619 17.4725 59.3008 17.4302C59.4127 17.3957 59.5161 17.3381 59.6042 17.2609C59.6835 17.19 59.745 17.1013 59.7836 17.0021C59.824 16.896 59.8441 16.7833 59.8428 16.6698C59.8446 16.5609 59.8258 16.4526 59.7875 16.3506ZM59.2235 16.9829C59.1483 17.0581 59.0317 17.0957 58.8738 17.0957H58.5523V16.2609H58.8738C58.9433 16.2598 59.0126 16.2696 59.0791 16.2897C59.1322 16.3065 59.1811 16.3346 59.2224 16.372C59.2601 16.4077 59.2889 16.4518 59.3064 16.5006C59.3261 16.5548 59.3359 16.6122 59.3352 16.6698C59.3405 16.7849 59.3002 16.8974 59.2229 16.9829H59.2235Z" fill="#89898A"/>
<path d="M61.1898 15.8745H60.6698L59.7109 18.3331H60.1058C60.1445 18.3346 60.1825 18.3222 60.2129 18.2982C60.2378 18.2774 60.2571 18.2509 60.2693 18.2209L60.4357 17.7516H61.4149L61.5807 18.2209C61.5935 18.253 61.615 18.2809 61.6427 18.3015C61.6742 18.3237 61.7121 18.3348 61.7505 18.3331H62.1453L61.1898 15.8745ZM60.5643 17.3974L60.8283 16.6484C60.8441 16.6083 60.861 16.5621 60.8785 16.5085C60.896 16.4549 60.9129 16.3957 60.9281 16.3331C60.9439 16.3957 60.9608 16.4526 60.9783 16.5062C60.9958 16.5598 61.0127 16.6055 61.0285 16.645L61.2942 17.3974H60.5643Z" fill="#89898A"/>
<path d="M64.0321 15.8745V17.2806C64.0321 17.3167 64.0321 17.3551 64.0355 17.3934C64.0389 17.4318 64.0411 17.4752 64.0462 17.5181L62.8133 15.954C62.8018 15.9398 62.7894 15.9265 62.776 15.914C62.7652 15.9043 62.7533 15.896 62.7405 15.8892C62.7274 15.8829 62.7132 15.8789 62.6988 15.8773C62.68 15.876 62.6611 15.876 62.6424 15.8773H62.375V18.3359H62.8262V16.9112C62.8262 16.8785 62.8262 16.843 62.8262 16.8046C62.8262 16.7662 62.8223 16.7279 62.8189 16.6878L64.044 18.2463C64.0651 18.2743 64.0923 18.2972 64.1235 18.3134C64.1548 18.3275 64.189 18.3342 64.2233 18.3331H64.4856V15.8745H64.0321Z" fill="#89898A"/>
<path d="M66.5501 15.8743C66.5118 15.8728 66.4743 15.8855 66.4447 15.9098C66.4196 15.931 66.399 15.9571 66.3843 15.9865L65.9844 16.7604C65.9579 16.8111 65.9342 16.8596 65.9139 16.9048C65.8936 16.9499 65.8744 16.9967 65.8575 17.0418C65.841 16.9956 65.8222 16.9502 65.8011 16.9059C65.7797 16.8608 65.7549 16.8123 65.7278 16.7604L65.3245 15.9865C65.3101 15.9549 65.2882 15.9272 65.2608 15.9059C65.2302 15.8833 65.1927 15.8721 65.1547 15.8743H64.708L65.6009 17.387V18.3329H66.1085V17.387L67.0008 15.8743H66.5501Z" fill="#89898A"/>
</g>
<defs>
<linearGradient id="paint0_linear_2827_1673" x1="-8.24664" y1="12.3335" x2="15.6277" y2="12.3335" gradientUnits="userSpaceOnUse">
<stop stop-color="#00EAFF"/>
<stop offset="1" stop-color="#0027FF"/>
</linearGradient>
<linearGradient id="paint1_linear_2827_1673" x1="33.8361" y1="12.3115" x2="-2.09491" y2="12.3115" gradientUnits="userSpaceOnUse">
<stop offset="0.34" stop-color="#00EAFF"/>
<stop offset="1" stop-color="#2FFF5D"/>
</linearGradient>
<linearGradient id="paint2_linear_2827_1673" x1="-8.24677" y1="8.72151" x2="15.6275" y2="8.72151" gradientUnits="userSpaceOnUse">
<stop stop-color="#00EAFF"/>
<stop offset="1" stop-color="#0027FF"/>
</linearGradient>
<clipPath id="clip0_2827_1673">
<rect width="62" height="14.6671" fill="white" transform="translate(5 5)"/>
</clipPath>
</defs>
</svg>
