<svg width="72" height="24" viewBox="0 0 72 24" fill="none" xmlns="http://www.w3.org/2000/svg">
    <path d="M30.9526 8.59999V16.4H29.6196V10.2792H29.6019L27.2204 16.4H26.3317L23.8969 10.2792H23.8791V16.4H22.6528V8.59999H24.5723L26.776 14.3778H26.8116L29.1398 8.59999H30.9526ZM32.0545 9.19583C32.0545 8.97916 32.1256 8.7986 32.2855 8.65416C32.4455 8.50972 32.6232 8.43749 32.8365 8.43749C33.0675 8.43749 33.263 8.50972 33.4052 8.65416C33.5473 8.7986 33.6362 8.97916 33.6362 9.19583C33.6362 9.41249 33.5651 9.59305 33.4052 9.73749C33.2452 9.88193 33.0675 9.95416 32.8365 9.95416C32.6054 9.95416 32.4277 9.88193 32.2855 9.73749C32.1433 9.57499 32.0545 9.39444 32.0545 9.19583ZM33.494 10.8028V16.4H32.1966V10.8028H33.494ZM37.4217 15.443C37.6172 15.443 37.8305 15.4069 38.0616 15.2986C38.2926 15.2083 38.5059 15.0819 38.7014 14.9375V16.1653C38.4881 16.2916 38.2571 16.3819 37.9905 16.4361C37.7239 16.4903 37.4395 16.5264 37.1196 16.5264C36.3021 16.5264 35.6445 16.2736 35.1469 15.75C34.6315 15.2264 34.3827 14.5583 34.3827 13.7639C34.3827 12.8611 34.6492 12.1208 35.1646 11.543C35.68 10.9653 36.4087 10.6764 37.3684 10.6764C37.6172 10.6764 37.8661 10.7125 38.0971 10.7667C38.3459 10.8208 38.5414 10.9111 38.6836 10.9833V12.2472C38.4881 12.1028 38.2748 11.9764 38.0793 11.9042C37.8661 11.8319 37.6528 11.7778 37.4395 11.7778C36.9241 11.7778 36.5154 11.9403 36.1954 12.2833C35.8755 12.6264 35.7334 13.0778 35.7334 13.6555C35.7334 14.2153 35.8933 14.6666 36.1954 14.9736C36.4976 15.2805 36.9063 15.443 37.4217 15.443ZM42.3803 10.7125C42.4869 10.7125 42.5758 10.7125 42.6646 10.7305C42.7535 10.7486 42.8246 10.7667 42.8779 10.7847V12.1208C42.8068 12.0667 42.7179 12.0125 42.5758 11.9764C42.4336 11.9403 42.2914 11.9042 42.0959 11.9042C41.776 11.9042 41.5094 12.0486 41.2961 12.3194C41.0829 12.5903 40.9585 13.0055 40.9585 13.5833V16.4H39.6611V10.8028H40.9585V11.6875H40.9762C41.1006 11.3805 41.2784 11.1458 41.5094 10.9653C41.7582 10.8028 42.0426 10.7125 42.3803 10.7125ZM42.949 13.6916C42.949 12.7708 43.2156 12.0305 43.7132 11.4889C44.2286 10.9472 44.9395 10.6764 45.8459 10.6764C46.699 10.6764 47.3743 10.9292 47.8542 11.4528C48.334 11.9764 48.5829 12.6805 48.5829 13.5653C48.5829 14.468 48.3163 15.1903 47.8186 15.7319C47.3032 16.2736 46.6101 16.5444 45.7215 16.5444C44.8684 16.5444 44.1931 16.2916 43.6954 15.7861C43.1978 15.2625 42.949 14.5583 42.949 13.6916ZM44.2997 13.6375C44.2997 14.2153 44.4241 14.6666 44.6907 14.9736C44.9573 15.2805 45.3305 15.443 45.8103 15.443C46.2724 15.443 46.6457 15.2986 46.8945 14.9736C47.1433 14.6666 47.2677 14.2153 47.2677 13.6014C47.2677 13.0055 47.1433 12.5542 46.8945 12.2292C46.6457 11.9222 46.2724 11.7597 45.8281 11.7597C45.3483 11.7597 44.9928 11.9222 44.7262 12.2472C44.4241 12.5903 44.2997 13.0416 44.2997 13.6375ZM50.5201 12.2833C50.5201 12.4639 50.5734 12.6264 50.6978 12.7347C50.8222 12.843 51.071 12.9694 51.4798 13.1319C51.9952 13.3486 52.3684 13.5833 52.5639 13.8361C52.7772 14.1069 52.8838 14.4139 52.8838 14.793C52.8838 15.3166 52.6883 15.7319 52.2795 16.0569C51.8885 16.3819 51.3376 16.5264 50.6622 16.5264C50.4312 16.5264 50.1824 16.4903 49.898 16.4361C49.6137 16.3819 49.3826 16.3097 49.1871 16.2194V14.9194C49.4182 15.0819 49.6847 15.2264 49.9513 15.3166C50.2179 15.4069 50.4667 15.4611 50.6978 15.4611C50.9821 15.4611 51.2132 15.425 51.3376 15.3347C51.4798 15.2444 51.5508 15.118 51.5508 14.9194C51.5508 14.7389 51.4798 14.5944 51.3376 14.45C51.1954 14.3236 50.911 14.1791 50.5201 14.0166C50.0402 13.818 49.7025 13.5833 49.507 13.3305C49.3115 13.0778 49.2049 12.7528 49.2049 12.3555C49.2049 11.85 49.4004 11.4347 49.7914 11.1097C50.1824 10.7847 50.6978 10.6222 51.3198 10.6222C51.5153 10.6222 51.7286 10.6403 51.9596 10.6944C52.1907 10.7486 52.4039 10.8028 52.5639 10.8569V12.1389C52.3862 12.0305 52.1907 11.9222 51.9596 11.8319C51.7286 11.7417 51.4975 11.7055 51.2843 11.7055C51.0355 11.7055 50.84 11.7597 50.7155 11.85C50.5911 11.9764 50.5201 12.1028 50.5201 12.2833ZM53.4347 13.6916C53.4347 12.7708 53.7013 12.0305 54.199 11.4889C54.7144 10.9472 55.4253 10.6764 56.3316 10.6764C57.1847 10.6764 57.8601 10.9292 58.3399 11.4528C58.8198 11.9764 59.0686 12.6805 59.0686 13.5653C59.0686 14.468 58.802 15.1903 58.3044 15.7319C57.789 16.2736 57.0959 16.5444 56.2072 16.5444C55.3542 16.5444 54.6788 16.2916 54.1812 15.7861C53.7013 15.2625 53.4347 14.5583 53.4347 13.6916ZM54.7854 13.6375C54.7854 14.2153 54.9099 14.6666 55.1764 14.9736C55.443 15.2805 55.8162 15.443 56.2961 15.443C56.7582 15.443 57.1314 15.2986 57.3802 14.9736C57.629 14.6666 57.7534 14.2153 57.7534 13.6014C57.7534 13.0055 57.629 12.5542 57.3802 12.2292C57.1314 11.9222 56.7582 11.7597 56.3139 11.7597C55.834 11.7597 55.4786 11.9222 55.212 12.2472C54.9276 12.5903 54.7854 13.0416 54.7854 13.6375ZM63.3873 11.8861H61.4501V16.4H60.135V11.8861H59.2108V10.8028H60.135V10.0264C60.135 9.4486 60.3304 8.9611 60.7037 8.58194C61.0769 8.20277 61.5567 8.02222 62.1432 8.02222C62.3032 8.02222 62.4454 8.04027 62.5698 8.04027C62.6942 8.04027 62.8008 8.07638 62.8897 8.11249V9.24999C62.8541 9.23194 62.7653 9.19583 62.6586 9.15971C62.552 9.1236 62.4276 9.10555 62.2854 9.10555C62.0188 9.10555 61.8056 9.19583 61.6634 9.35832C61.5212 9.52082 61.4501 9.79166 61.4501 10.1167V10.7847H63.3873V9.52082L64.6847 9.1236V10.7847H65.9999V11.868H64.6847V14.4861C64.6847 14.8291 64.7558 15.0639 64.8624 15.2083C64.9868 15.3528 65.1823 15.425 65.4489 15.425C65.52 15.425 65.6089 15.4069 65.7155 15.3708C65.8221 15.3347 65.911 15.2986 65.9821 15.2444V16.3278C65.8932 16.3819 65.7688 16.418 65.5733 16.4541C65.3778 16.4903 65.2001 16.5083 65.0046 16.5083C64.4537 16.5083 64.0449 16.3639 63.7783 16.075C63.5117 15.7861 63.3695 15.3347 63.3695 14.7389L63.3873 11.8861Z" fill="#737373"/>
    <path d="M12.0782 6H6V12.175H12.0782V6Z" fill="#F25022"/>
    <path d="M18.796 6H12.7178V12.175H18.796V6Z" fill="#7FBA00"/>
    <path d="M12.0782 12.825H6V18.9999H12.0782V12.825Z" fill="#00A4EF"/>
    <path d="M18.796 12.825H12.7178V18.9999H18.796V12.825Z" fill="#FFB900"/>
</svg>
