<svg width="72" height="24" viewBox="0 0 72 24" fill="none" xmlns="http://www.w3.org/2000/svg">
<g clip-path="url(#clip0_2882_601)">
<path d="M37.0054 3.00997C38.6135 2.95462 40.2321 3.19649 41.7488 3.73469C44.0305 4.53568 46.0698 6.00356 47.5619 7.90495C48.2183 8.73912 48.7681 9.65603 49.199 10.6261C49.2754 10.7876 49.3342 10.969 49.2933 11.1489C49.2432 11.4508 48.9785 11.7004 48.6741 11.7306C48.358 11.7768 48.0312 11.5796 47.9185 11.2817C47.0617 9.26536 45.5994 7.51397 43.7753 6.30164C42.6476 5.54809 41.3829 4.99937 40.0617 4.69216C38.3579 4.29362 36.564 4.29362 34.8598 4.69095C32.4266 5.25127 30.1986 6.64698 28.6273 8.58633C27.961 9.40346 27.4109 10.3143 26.9962 11.2834C26.9064 11.5086 26.7002 11.6851 26.4596 11.7247C26.2275 11.7694 25.975 11.6893 25.8132 11.5165C25.6224 11.3254 25.5601 11.0199 25.6584 10.7691C26.7998 8.07061 28.9132 5.80368 31.5116 4.45433C33.204 3.56854 35.0971 3.07445 37.0054 3.00997Z" fill="#F49813"/>
<path d="M34.8804 11.3184C34.8707 11.1783 35.0033 11.0734 35.1347 11.0701C35.3055 11.0655 35.4767 11.0669 35.6478 11.0694C35.7667 11.0734 35.9054 11.1526 35.905 11.2861C35.9111 12.8542 35.9013 14.4227 35.9102 15.9916C36.5455 15.2851 37.1863 14.5825 37.8239 13.8782C37.9495 13.7543 38.0487 13.5667 38.2441 13.5506C38.5072 13.5397 38.771 13.5462 39.0345 13.5466C39.136 13.5374 39.2493 13.6305 39.2137 13.7389C39.172 13.8225 39.0956 13.8799 39.0333 13.9464C38.3438 14.6352 37.6518 15.3217 36.9658 16.0135C37.6284 16.7699 38.2818 17.534 38.9414 18.2931C39.0262 18.4012 39.1325 18.4929 39.2036 18.6119C39.2558 18.705 39.1694 18.8183 39.0696 18.8227C38.8506 18.835 38.631 18.8227 38.4115 18.828C38.2973 18.8254 38.1738 18.842 38.0702 18.7832C37.9609 18.7205 37.8945 18.6084 37.8163 18.5141C37.1802 17.713 36.5482 16.9087 35.9097 16.1089C35.9032 16.8976 35.9077 17.6859 35.9072 18.4741C35.9048 18.565 35.9234 18.6746 35.8442 18.741C35.718 18.8628 35.5303 18.8201 35.3729 18.828C35.2332 18.8232 35.0699 18.8538 34.9564 18.7507C34.8932 18.7015 34.8767 18.6176 34.8791 18.5429C34.8809 16.1344 34.8784 13.7262 34.8804 11.3184Z" fill="white"/>
<path d="M31.9827 13.5338C32.3016 13.4312 32.6612 13.4117 32.9737 13.5469C33.0833 13.5984 33.2106 13.7082 33.1611 13.8435C33.111 14.0133 33.0684 14.1851 33.0086 14.3519C32.9645 14.4717 32.8256 14.5162 32.7086 14.4928C32.4455 14.4477 32.1871 14.3607 31.9173 14.3695C31.729 14.3651 31.5553 14.4661 31.4266 14.597C31.2188 14.8002 31.1112 15.0844 31.063 15.3663C31.0246 15.5701 31.0356 15.7782 31.0338 15.9841C31.0338 16.8492 31.0341 17.7148 31.0336 18.5798C31.0459 18.7221 30.8987 18.8187 30.7703 18.8236C30.594 18.8261 30.418 18.8284 30.2418 18.8222C30.1144 18.8156 29.9711 18.7226 29.9876 18.5793C29.9869 16.9774 29.9859 15.376 29.988 13.7741C29.9771 13.6148 30.1536 13.5282 30.2921 13.5431C30.4658 13.5545 30.7029 13.4892 30.8158 13.664C30.9015 13.8666 30.9423 14.0855 31.0228 14.29C31.2649 13.9576 31.586 13.6646 31.9827 13.5338Z" fill="white"/>
<path d="M14 13.656C14.049 13.5998 14.1063 13.539 14.1879 13.5448C14.4272 13.5425 14.6671 13.5373 14.9062 13.5483C15.0276 13.5518 15.1112 13.6585 15.1289 13.7714C15.3641 14.7278 15.5951 15.6857 15.8292 16.6424C15.8979 16.9378 15.9815 17.2303 16.0263 17.5308C16.0725 17.8008 16.0816 18.0748 16.1255 18.3453C16.186 17.9592 16.2401 17.5707 16.3442 17.1936C16.6504 16.0517 16.9564 14.91 17.2629 13.7684C17.2868 13.6383 17.4092 13.5457 17.5393 13.5457C17.8056 13.539 18.0724 13.5436 18.3387 13.5436C18.4815 13.5369 18.6344 13.6204 18.6688 13.7667C18.8975 14.5991 19.1234 15.433 19.3512 16.2662C19.4894 16.8058 19.6705 17.3362 19.7487 17.8899C19.7703 18.0423 19.7913 18.1951 19.8228 18.3466C19.9087 17.4767 20.1325 16.6305 20.3165 15.7787C20.4685 15.1011 20.6171 14.4227 20.7708 13.745C20.7934 13.6089 20.9374 13.5404 21.0643 13.5443C21.2796 13.5431 21.4953 13.5369 21.7103 13.5478C21.838 13.5515 21.9114 13.6927 21.8664 13.8066C21.4344 15.4009 21.0039 16.9963 20.5716 18.5907C20.5484 18.7186 20.437 18.8183 20.3065 18.8205C19.9728 18.8313 19.6384 18.8231 19.3046 18.8248C19.185 18.8322 19.0585 18.7681 19.0374 18.6422C18.7387 17.5458 18.4459 16.4474 18.1499 15.3502C18.0428 14.9684 17.9994 14.5727 17.9544 14.1801C17.8994 14.5297 17.8722 14.885 17.7791 15.2284C17.4761 16.3582 17.1713 17.4885 16.8677 18.6185C16.8334 18.8015 16.6242 18.838 16.4686 18.8261C16.1582 18.8205 15.8478 18.8333 15.5378 18.8205C15.4273 18.8208 15.3421 18.7347 15.3223 18.6304C14.8867 17.0424 14.4525 15.4536 14.0165 13.8659C14.0014 13.7965 14.0033 13.7258 14 13.656Z" fill="white"/>
<path d="M53.1412 13.5477C53.3678 13.5438 53.5953 13.5429 53.8219 13.5477C53.9598 13.5496 54.0894 13.6439 54.1328 13.7756C54.5241 14.7983 54.9127 15.8228 55.3035 16.846C55.3851 17.0536 55.4422 17.2702 55.4788 17.4901C55.6404 16.8832 55.8555 16.2927 56.0444 15.6937C56.2546 15.0461 56.465 14.3983 56.6762 13.7505C56.7075 13.6378 56.8149 13.5608 56.9291 13.5513C57.1141 13.5376 57.3003 13.5496 57.4856 13.5446C57.594 13.5459 57.7231 13.5332 57.8056 13.6202C57.8592 13.6655 57.8478 13.7408 57.8255 13.7997C57.2002 15.5834 56.5766 17.368 55.9522 19.1523C55.8436 19.4495 55.7602 19.7605 55.5854 20.0279C55.3347 20.435 54.9285 20.7282 54.482 20.8868C54.326 20.9351 54.1649 21.0423 53.9972 20.9822C53.8781 20.9518 53.8324 20.828 53.7688 20.737C53.7232 20.6544 53.6389 20.578 53.6564 20.4753C53.6647 20.3734 53.7463 20.2905 53.8426 20.2633C54.0309 20.1983 54.2224 20.1266 54.3748 19.9936C54.7455 19.6801 54.9747 19.2164 55.062 18.7444C55.0028 18.5349 54.8933 18.3422 54.8139 18.1393C54.2176 16.7534 53.6213 15.367 53.0236 13.9817C52.9875 13.891 52.9345 13.8046 52.9243 13.7063C52.9257 13.5982 53.0495 13.5508 53.1412 13.5477Z" fill="white"/>
<path d="M25.3367 14.2177C25.0114 14.2782 24.7147 14.4807 24.5496 14.7691C24.2737 15.2369 24.2419 15.8012 24.2544 16.3317C24.274 16.8119 24.3511 17.3241 24.6575 17.7123C24.886 18.0042 25.2615 18.1509 25.6265 18.1453C25.9776 18.1565 26.3455 18.0376 26.5835 17.7706C26.8875 17.4381 26.9852 16.9767 27.027 16.5416C27.0454 16.1142 27.054 15.6791 26.9432 15.2618C26.855 14.9093 26.6688 14.5567 26.3467 14.3668C26.0468 14.1829 25.6764 14.1658 25.3367 14.2177ZM25.4741 13.4572C26.0627 13.421 26.6794 13.5432 27.1652 13.8919C27.5998 14.2011 27.8949 14.6774 28.0327 15.1882C28.1966 15.798 28.1959 16.4488 28.0473 17.0619C27.9073 17.6269 27.5799 18.1597 27.086 18.4807C26.5582 18.831 25.8951 18.922 25.2756 18.8473C24.7478 18.7823 24.2335 18.5508 23.866 18.1619C23.4341 17.7095 23.2196 17.0861 23.175 16.4699C23.1207 15.7866 23.2254 15.0633 23.6055 14.4798C23.8867 14.0407 24.3338 13.718 24.8324 13.5708C25.0404 13.5058 25.2573 13.4756 25.4741 13.4572Z" fill="white"/>
<path d="M42.8367 14.1901C42.514 14.2108 42.2026 14.3965 42.0585 14.691C41.7771 15.2357 41.7714 15.8696 41.7854 16.4686C41.8079 16.8599 41.8504 17.2639 42.0327 17.6173C42.156 17.8553 42.38 18.0433 42.6448 18.1009C43.0501 18.1984 43.527 18.1158 43.815 17.7956C44.0926 17.4796 44.1839 17.05 44.2266 16.6434C44.2559 16.1798 44.2577 15.7068 44.1426 15.2531C44.0636 14.9497 43.9298 14.6467 43.6895 14.4359C43.459 14.2331 43.1379 14.1549 42.8367 14.1901ZM44.2252 11.2514C44.2178 11.1285 44.3434 11.05 44.4526 11.0405C44.6274 11.031 44.8027 11.0355 44.9778 11.0375C45.1113 11.0363 45.2606 11.1355 45.2413 11.2838C45.2413 13.7032 45.2418 16.1222 45.241 18.5412C45.2501 18.6661 45.1271 18.7631 45.0117 18.7706C44.8724 18.778 44.7328 18.778 44.594 18.7684C44.4962 18.7622 44.4014 18.6995 44.368 18.6059C44.3157 18.4487 44.2884 18.2853 44.2485 18.1255C44.0553 18.3875 43.8062 18.6194 43.4968 18.7345C43.0553 18.8969 42.564 18.8996 42.1104 18.7889C41.6545 18.6793 41.2576 18.3661 41.0377 17.9539C40.6925 17.3245 40.6516 16.5842 40.6732 15.8821C40.6855 15.2823 40.8 14.6494 41.1908 14.1734C41.4856 13.7699 41.9686 13.5384 42.4564 13.4778C42.9105 13.4114 43.4028 13.4878 43.7787 13.7629C43.9564 13.8879 44.0987 14.0557 44.2257 14.231C44.2222 13.238 44.2231 12.2447 44.2252 11.2514Z" fill="white"/>
<path d="M49.1109 14.2204C48.949 14.2534 48.7921 14.3183 48.6613 14.4197C48.3996 14.6234 48.2696 14.9472 48.2002 15.2616C48.0992 15.7605 48.1006 16.2756 48.1528 16.7801C48.2016 17.1507 48.2947 17.5463 48.5665 17.8203C48.7878 18.0527 49.1215 18.1378 49.4338 18.1226C49.7697 18.1347 50.1192 18.0096 50.3358 17.7458C50.6066 17.4182 50.683 16.9824 50.7225 16.5719C50.7477 16.0892 50.748 15.595 50.6124 15.1263C50.5267 14.8344 50.37 14.5441 50.1056 14.3777C49.8144 14.1866 49.4461 14.1691 49.1109 14.2204ZM48.6613 13.5578C49.1273 13.4287 49.6261 13.4211 50.0969 13.5288C50.5343 13.6302 50.9439 13.8757 51.2126 14.2393C51.4968 14.612 51.6403 15.0742 51.7 15.5347C51.7519 15.8899 51.7369 16.2496 51.7374 16.6074C51.7374 17.2531 51.7374 17.899 51.7357 18.5445C51.7427 18.6232 51.693 18.6929 51.6289 18.7338C51.5205 18.8006 51.3862 18.7711 51.2653 18.7786C51.1297 18.7776 50.9514 18.7895 50.8776 18.6485C50.8056 18.4826 50.7907 18.2977 50.7445 18.1233C50.5627 18.3442 50.3744 18.5722 50.1113 18.6999C49.7104 18.8981 49.2418 18.8865 48.8129 18.8027C48.288 18.699 47.8046 18.3887 47.5078 17.9415C47.1542 17.4207 47.026 16.7778 47.0309 16.1565C47.0265 15.5509 47.1451 14.9247 47.4818 14.4123C47.7511 13.9934 48.1832 13.6901 48.6613 13.5578Z" fill="white"/>
<path d="M58.0479 17.5247C57.7815 17.6225 57.6137 17.9299 57.6817 18.2074C57.7511 18.5333 58.1301 18.7556 58.4463 18.6351C58.7379 18.5461 58.9218 18.2136 58.8313 17.9204C58.7519 17.5905 58.3606 17.3956 58.0479 17.5247ZM58.0849 17.3854C58.2429 17.3604 58.4147 17.3587 58.5614 17.4319C58.8112 17.5454 58.9907 17.8136 58.9636 18.0926C58.9844 18.4252 58.7045 18.7226 58.3852 18.7762C58.0256 18.8526 57.6387 18.5921 57.5655 18.2334C57.4709 17.8725 57.7218 17.4662 58.0849 17.3854Z" fill="white"/>
<path d="M58.1588 17.7912C58.1582 17.8667 58.1579 17.9422 58.1588 18.0183C58.225 18.0142 58.2931 18.0183 58.3585 18.0002C58.4199 17.9747 58.4138 17.8966 58.3972 17.8442C58.3336 17.782 58.239 17.7982 58.1588 17.7912ZM57.9589 17.6682C58.15 17.6791 58.3643 17.6252 58.5364 17.7318C58.6752 17.836 58.6079 18.0625 58.4512 18.1108C58.4964 18.2303 58.5593 18.3413 58.6167 18.4551C58.5443 18.4565 58.4732 18.4578 58.402 18.459C58.3506 18.3536 58.3002 18.247 58.251 18.1407C58.2197 18.1398 58.189 18.1395 58.1588 18.139C58.1582 18.2452 58.1582 18.3515 58.1582 18.4578C58.0906 18.4569 58.0244 18.456 57.958 18.4555C57.9585 18.1929 57.9576 17.9303 57.9589 17.6682Z" fill="white"/>
</g>
<defs>
<clipPath id="clip0_2882_601">
<rect width="44.9663" height="18" fill="white" transform="translate(14 3)"/>
</clipPath>
</defs>
</svg>
