<svg width="72" height="24" viewBox="0 0 72 24" fill="none" xmlns="http://www.w3.org/2000/svg">
    <path d="M11 10.4907H13.9921V20.5718H11V10.4907Z" fill="#FF1515"/>
    <path d="M11 4.96216H13.9921V7.91011H11V4.96216Z" fill="#FF1515"/>
    <path d="M23.253 10.4907L20.9084 17.3242L18.603 10.4907H15.3853L19.1327 20.5718H22.4485L26.1372 10.4907H23.253Z" fill="#FF1515"/>
    <path d="M35.3586 13.98C35.3586 13.5257 35.339 12.3272 34.6523 11.5056C33.6418 10.3458 31.8564 10.2104 31.0127 10.2104C30.0415 10.2104 28.8447 10.3748 27.9127 11.032C26.8434 11.7859 26.7747 12.8684 26.7551 13.4H29.6981C29.6785 13.0811 29.757 12.7718 29.9238 12.5012C30.1887 12.1435 30.6105 11.9309 31.0618 11.9406C31.3462 11.9406 32.1311 12.0372 32.3959 12.7815C32.5137 13.1391 32.5333 13.458 32.5333 14.1153C31.5425 14.1153 29.7374 14.1153 28.4915 14.6759C26.608 15.5361 26.3235 17.0052 26.3235 17.8075C26.3137 18.629 26.6276 19.4313 27.2162 20.0209C27.6184 20.3978 28.2855 20.8134 29.7668 20.8134C30.3358 20.8134 31.6896 20.8134 32.8178 19.1993C32.808 19.6632 32.8472 20.1175 32.9159 20.5718H35.6235C35.4567 19.7309 35.3684 18.8803 35.3782 18.0201L35.3586 13.98ZM31.9643 18.3294C31.6406 18.6967 31.1795 18.9093 30.689 18.9093C29.6981 18.9093 29.2273 18.1554 29.2273 17.4692C29.2273 16.2707 30.6007 15.6714 32.5235 15.8357C32.5333 16.9183 32.4842 17.6915 31.9643 18.3294Z" fill="#FF1515"/>
    <path d="M46.483 12.1242C46.2181 11.4282 45.3745 10.2297 43.3634 10.2297C41.1365 10.2297 40.3321 11.5249 40.0476 11.9792L39.9691 10.481H37.0947C37.1536 11.1769 37.1536 12.2595 37.1536 12.2981V20.5717H40.1653V14.6758C40.1653 13.9026 40.3517 13.4 40.5283 13.139C40.8814 12.6364 41.47 12.3465 42.0881 12.3561C42.7061 12.3368 43.2751 12.6654 43.5498 13.2164C43.7068 13.5353 43.7068 13.8929 43.7068 14.3085V20.5717H46.7675V15.1301C46.7675 13.2647 46.6988 12.7427 46.483 12.1242Z" fill="#FF1515"/>
    <path d="M52.7616 7.94873L49.7892 8.75096V10.4907H47.8271V12.4432H49.7892V18.0394C49.7892 18.8803 49.7892 20.7554 52.8009 20.7554C53.5857 20.7458 54.3705 20.6394 55.1259 20.4365V18.5034C54.7923 18.542 54.449 18.5614 54.1154 18.5614C52.7813 18.5614 52.7813 17.9814 52.7616 17.0632V12.4335H55.1946V10.4811H52.7616V7.94873Z" fill="#FF1515"/>
    <path d="M56.7837 10.4907H59.7758V20.5718H56.7837V10.4907Z" fill="#FF1515"/>
    <path d="M56.7837 5.948H58.7752V7.91008H56.7837V5.948Z" fill="#FF1515"/>
    <path d="M59.7856 4.96208V7.91004H61.777V3H56.7837V4.97175L59.7856 4.96208Z" fill="#FF1515"/>
</svg>
