<svg width="72" height="24" viewBox="0 0 72 24" fill="none" xmlns="http://www.w3.org/2000/svg">
    <g clip-path="url(#clip0_2695_1957)">
        <path d="M27.6648 8.87868V11.8398L30.5557 8.30624C30.6274 8.21544 30.7196 8.14154 30.8253 8.09013C30.9309 8.03872 31.0473 8.01112 31.1656 8.00942H32.8013L29.614 11.9058L32.8367 15.9859H31.0826C30.9594 15.9843 30.8384 15.9545 30.7294 15.8991C30.6204 15.8436 30.5266 15.7639 30.4556 15.6667L27.6648 12.0153V15.9847H26.8109C26.362 15.9847 25.9985 15.5936 25.9985 15.1107V8H26.8524C27.3013 8 27.6648 8.39223 27.6648 8.87397V8.87868Z" fill="white"/>
        <path d="M18.5306 9.39693H21.4361C21.4361 9.39693 22.0948 9.37573 22.462 9.54416C22.7547 9.67844 22.9206 9.96466 22.9206 10.4382C22.9206 10.8139 22.8279 11.066 22.634 11.2049C22.8375 11.3776 23.0164 11.5756 23.1658 11.7939C23.2512 11.9117 23.3707 12.1142 23.5317 12.3958C23.5415 12.4134 23.5561 12.4276 23.5671 12.444C23.839 12.3069 24.0693 12.104 24.2355 11.8551C24.5056 11.4216 24.6383 10.9213 24.6173 10.4158C24.6173 10.364 24.5649 9.63721 24.4234 9.30388C24.3219 9.05119 24.1693 8.82055 23.9745 8.62544C23.7634 8.40928 23.4958 8.25219 23.1999 8.17078C22.7568 8.04601 22.2964 7.98839 21.835 7.99999H17.7109V8.56183C17.7056 8.66879 17.7227 8.77567 17.7612 8.87611C17.7997 8.97654 17.8587 9.06847 17.9347 9.1464C18.0108 9.22434 18.1023 9.28669 18.2038 9.32973C18.3053 9.37277 18.4148 9.39563 18.5257 9.39693H18.5306Z" fill="white"/>
        <path d="M22.6779 12.1684C22.2656 11.5654 21.8521 11.4346 21.5984 11.4181C21.3447 11.4017 19.3869 11.4181 19.3869 11.4181V10.8775C19.3869 10.3958 19.021 10.0035 18.5746 10.0035H17.7207V15.1131C17.7207 15.5948 18.0866 15.987 18.5331 15.987H19.3869V12.8174H21.3581L22.989 15.7739C23.0216 15.8367 23.0713 15.8897 23.1327 15.9273C23.1942 15.9648 23.2651 15.9855 23.3378 15.987H24.9894L23.0378 12.7621C23.0329 12.7456 22.7511 12.2744 22.6779 12.1684Z" fill="white"/>
        <path d="M64.7583 10.0213C64.9337 9.50331 65.2557 9.04308 65.6878 8.69264C66.0261 8.4114 66.4321 8.21661 66.8686 8.12609C67.2973 8.04514 67.7333 8.00568 68.1701 8.0083H70.1803C70.6292 8.0083 70.9939 8.39935 70.9939 8.88227V9.40406H68.2457C68.2457 9.40406 67.6663 9.40406 67.3626 9.43115C67.3626 9.43115 66.4587 9.50182 65.7976 9.85047C65.1572 10.1885 64.8327 10.4688 64.4863 10.9423C64.4863 10.9376 64.6522 10.3287 64.7583 10.0213Z" fill="white"/>
        <path d="M61.1796 15.9871C59.9769 15.9871 59.0731 15.6749 58.4717 15.0825C57.9972 14.6113 57.6862 13.9352 57.5361 13.0507C57.5508 13.0719 57.5752 13.1166 57.5898 13.1366C58.1265 13.881 59.1438 14.4688 60.649 14.5748C60.8723 14.5948 61.7359 14.5972 61.9152 14.5984H63.1435C63.5924 14.5984 63.9559 14.9894 63.9559 15.4723V15.9859L61.1796 15.9871Z" fill="white"/>
        <path d="M11.9245 11.4842L10.4717 15.4418C10.4198 15.5965 10.3196 15.7319 10.1849 15.8295C10.0502 15.9271 9.88749 15.9822 9.71914 15.9871H8.60791L11.6391 8.0083H13.6408C13.3968 8.22974 13.065 8.54069 12.4344 10.1002C12.2917 10.4889 12.1746 10.7822 11.9245 11.4842Z" fill="white"/>
        <path d="M16.4973 14.7503L13.8882 8.60071C13.5125 9.16206 13.2074 9.76467 12.9795 10.3958L13.8687 12.6514H12.6977C12.5144 12.6578 12.3386 12.7226 12.1975 12.8358C12.0565 12.9489 11.9583 13.104 11.9182 13.2768L11.6328 14.0836H14.4249L15.1568 15.987H15.7594C16.351 15.987 16.7449 15.3286 16.4998 14.7503H16.4973Z" fill="white"/>
        <path d="M35.7908 10.02V15.987H36.7044C37.1533 15.987 37.518 15.5948 37.518 15.113V10.0023H35.7896L35.7908 10.02Z" fill="white"/>
        <path d="M34.0453 8.01648C33.5964 8.01648 33.2329 8.40753 33.2329 8.89045V9.39928H39.2843C39.7332 9.39928 40.0967 9.01412 40.0967 8.5312V8.01648H34.0453Z" fill="white"/>
        <path d="M2.66257 9.39935C2.66257 9.39935 4.52275 9.39935 4.60691 9.39935C4.69108 9.39935 5.02042 9.42291 5.19485 9.44175C7.31728 9.67732 8.0333 10.5937 8.33947 11.0377C8.19553 10.1061 7.85155 9.39464 7.36364 8.90818C6.76269 8.3169 5.85476 8.01694 4.63985 8.0083H1V9.39817L2.66257 9.39935Z" fill="url(#paint0_linear_2695_1957)"/>
        <path d="M52.375 11.4842L50.9222 15.4418C50.8702 15.5965 50.77 15.7319 50.6353 15.8295C50.5006 15.9271 50.3379 15.9822 50.1696 15.9871H49.0596L52.0895 8.0083H54.0912C53.8472 8.22974 53.5155 8.54069 52.8848 10.1002C52.7421 10.4889 52.6043 10.8198 52.375 11.4842Z" fill="white"/>
        <path d="M56.9481 14.7503L54.3389 8.60071C53.9632 9.16206 53.6582 9.76467 53.4302 10.3958L54.3194 12.6514H53.1692C52.9859 12.6578 52.8101 12.7226 52.669 12.8358C52.528 12.9489 52.4298 13.104 52.3897 13.2768L52.1665 14.0836H54.8757L55.6136 15.987H56.2077C56.7993 15.987 57.1933 15.3286 56.9481 14.7503Z" fill="white"/>
        <path d="M41.8812 9.39345H44.7904C44.7904 9.39345 45.4491 9.37225 45.815 9.54068C46.109 9.67496 46.2749 9.96 46.2749 10.4347C46.281 10.8104 46.1821 11.0613 45.9882 11.2015C46.1919 11.3736 46.3704 11.5718 46.5188 11.7904C46.6042 11.9141 46.7237 12.1108 46.8847 12.3911C46.8945 12.4088 46.9091 12.4241 46.9201 12.4406C47.1914 12.3031 47.4212 12.1002 47.5873 11.8516C47.8553 11.418 47.9855 10.9179 47.9618 10.4135C47.9618 10.3616 47.9106 9.63373 47.7679 9.30158C47.6674 9.04841 47.5146 8.8176 47.319 8.62313C47.1094 8.40726 46.8436 8.24981 46.5493 8.1673C46.106 8.04376 45.6456 7.98734 45.1844 8.00004H41.0664V8.55717C41.0611 8.66419 41.0782 8.77113 41.1167 8.87163C41.1551 8.97213 41.2141 9.06413 41.2901 9.14216C41.3661 9.22019 41.4576 9.28265 41.5592 9.32582C41.6607 9.36899 41.7702 9.39199 41.8812 9.39345Z" fill="white"/>
        <path d="M46.0273 12.1649C45.615 11.5618 45.2027 11.4311 44.9478 11.4134C44.6928 11.3958 42.7375 11.4134 42.7375 11.4134V10.874C42.7375 10.391 42.3716 10 41.9251 10H41.0713V15.1084C41.0713 15.5913 41.4372 15.9823 41.8837 15.9823H42.7375V12.8174H44.7087L46.3396 15.7739C46.3721 15.8366 46.4218 15.8895 46.4833 15.9269C46.5448 15.9643 46.6158 15.9847 46.6884 15.9859H48.34L46.3883 12.7621C46.3822 12.742 46.1017 12.2709 46.0273 12.1649Z" fill="white"/>
        <path d="M7.50879 10.9835C7.6162 11.0988 7.71408 11.2221 7.80154 11.3521C8.1425 11.8391 8.32475 12.4134 8.32483 13.0011C8.32419 13.7894 7.99986 14.5453 7.42295 15.103C6.84605 15.6608 6.06365 15.9748 5.2473 15.9764L4.68864 15.987H1.8136C1.36594 15.987 1 15.5948 1 15.113V10.0023H2.67355V14.596H4.61179C4.88442 14.6032 5.15708 14.583 5.42539 14.5359C5.66596 14.4802 5.88052 14.3489 6.03529 14.1625C6.20924 13.9578 6.3342 13.7185 6.40122 13.4617C6.468 13.2024 6.51408 12.9386 6.53906 12.6725C6.56244 12.3338 6.56651 11.994 6.55126 11.6549C6.53767 11.2754 6.48744 10.8981 6.40122 10.5276C6.37907 10.4471 6.35052 10.3684 6.31584 10.2921C6.75312 10.4247 7.15267 10.6533 7.48318 10.9599L7.50879 10.9835Z" fill="white"/>
        <path d="M60.6316 9.43469L60.7536 9.4182C60.873 9.40438 60.9932 9.39808 61.1135 9.39935L63.9604 9.39111V8.87521C63.9604 8.39346 63.5945 8.00124 63.1481 8.00124H61.1354C60.7482 8.00035 60.3617 8.03228 59.9803 8.09665H59.962C59.2565 8.20959 58.6152 8.56002 58.1517 9.08584C57.6882 9.61166 57.4324 10.2789 57.4297 10.9694C57.4291 11.5533 57.6125 12.1235 57.9554 12.6043C58.5055 13.3758 59.0959 13.6184 59.6753 13.7986V13.7928C59.4534 13.3618 59.3118 12.8965 59.2569 12.4182C59.0666 10.9023 59.6814 9.56543 60.6316 9.43233" fill="white"/>
        <path d="M71.0002 12.3133C71.0002 11.8304 70.6342 11.4393 70.1866 11.4393H66.232C66.2949 11.0075 66.4296 10.5883 66.6309 10.1979L66.5797 10.2144C66.4588 10.2477 66.3406 10.2894 66.2259 10.3392C65.6896 10.5512 65.2331 10.9161 64.9171 11.3852C64.5733 11.8657 64.3895 12.436 64.3901 13.02C64.3918 13.5902 64.5668 14.1474 64.8934 14.6225C65.2199 15.0975 65.6837 15.4696 66.2271 15.6926C66.4079 15.7767 66.5989 15.8389 66.7956 15.8775C67.2238 15.959 67.6594 15.9985 68.0959 15.9953H70.1012C70.5245 15.9953 70.8721 15.6419 70.9099 15.2026C70.9099 15.1731 70.9099 15.1425 70.9099 15.1119V14.6019L68.0678 14.596C67.9455 14.5975 67.8233 14.5912 67.7019 14.5771L67.5799 14.5595C66.909 14.4652 66.4052 13.7691 66.2381 12.8327H70.9953L71.0002 12.3133Z" fill="white"/>
    </g>
    <defs>
        <linearGradient id="paint0_linear_2695_1957" x1="6.905" y1="9.52302" x2="1.84897" y2="9.52302" gradientUnits="userSpaceOnUse">
            <stop stop-color="#F1562C"/>
            <stop offset="1" stop-color="#F68B27"/>
        </linearGradient>
        <clipPath id="clip0_2695_1957">
            <rect width="70" height="8" fill="white" transform="translate(1 8)"/>
        </clipPath>
    </defs>
</svg>
