<svg width="72" height="24" viewBox="0 0 72 24" fill="none" xmlns="http://www.w3.org/2000/svg">
    <g clip-path="url(#clip0_2601_1244)">
        <path d="M0.000488281 15.075C0.000488281 15.0781 0.0328849 15.1099 0.0960937 15.1719C0.159302 15.2323 0.253323 15.3086 0.376683 15.4008C0.501571 15.4914 0.655742 15.5836 0.837719 15.6741C1.02117 15.7663 1.23085 15.8427 1.46986 15.903C1.70882 15.965 1.974 15.9969 2.26699 16C2.60926 15.9984 2.91454 15.9459 3.18284 15.8411C3.45108 15.7377 3.67774 15.5947 3.86278 15.4119C4.04776 15.2291 4.18964 15.0193 4.28678 14.7809C4.38233 14.5424 4.43166 14.2882 4.43166 14.0164C4.43013 13.7477 4.38544 13.5125 4.29907 13.3122C4.21275 13.1119 4.09557 12.9387 3.9491 12.7925C3.80263 12.6462 3.63764 12.519 3.45419 12.4094C3.27068 12.3013 3.08259 12.2043 2.88679 12.1201C2.69099 12.0343 2.50289 11.9516 2.31938 11.8737C2.13593 11.7958 1.97094 11.7132 1.82448 11.6274C1.67801 11.5416 1.56082 11.443 1.47445 11.3333C1.38813 11.2236 1.34339 11.0949 1.34186 10.9455C1.34339 10.7849 1.38813 10.6451 1.47445 10.5227C1.56235 10.4019 1.67954 10.3065 1.82906 10.2382C1.97712 10.1698 2.14516 10.1364 2.33173 10.1348C2.49672 10.1364 2.65242 10.1571 2.79889 10.1969C2.94535 10.235 3.07794 10.2843 3.19824 10.3431C3.31849 10.4003 3.42333 10.4591 3.5097 10.5179C3.59755 10.5767 3.6654 10.6244 3.71167 10.6641C3.75947 10.7039 3.78411 10.7246 3.78411 10.7262L4.30219 9.72478C4.30219 9.7232 4.27596 9.69775 4.22199 9.64847C4.16959 9.60082 4.09092 9.54039 3.98456 9.46886C3.87972 9.39734 3.74866 9.32581 3.59137 9.25428C3.43414 9.18276 3.25064 9.12396 3.04249 9.07468C2.83434 9.02698 2.60003 9.00158 2.34096 9C2.02492 9.00158 1.73351 9.05086 1.46675 9.14778C1.19851 9.24634 0.967197 9.38303 0.768337 9.55948C0.569423 9.73751 0.416781 9.94415 0.30577 10.1826C0.196288 10.421 0.140783 10.6817 0.139253 10.9646C0.140783 11.2236 0.185526 11.4494 0.271844 11.6433C0.359746 11.8388 0.476931 12.0073 0.623399 12.1519C0.771396 12.2965 0.936383 12.4237 1.11984 12.5333C1.30334 12.6431 1.49297 12.7416 1.68877 12.8306C1.88457 12.918 2.07425 13.0038 2.25771 13.0865C2.44121 13.1676 2.60773 13.255 2.7542 13.3456C2.90219 13.4346 3.01785 13.5363 3.1057 13.6508C3.19207 13.7636 3.23676 13.8956 3.23834 14.045C3.23676 14.2294 3.19054 14.3819 3.10264 14.5027C3.01474 14.6251 2.89914 14.7157 2.7542 14.7761C2.61079 14.8349 2.45509 14.8651 2.28546 14.8651C2.10048 14.8635 1.92467 14.8381 1.75969 14.7904C1.59475 14.7427 1.44517 14.6839 1.30952 14.614C1.17382 14.5425 1.05663 14.4725 0.957965 14.401C0.859301 14.3311 0.783745 14.2723 0.729769 14.2246C0.675793 14.1769 0.64804 14.1515 0.64804 14.1498L0.000488281 15.075ZM5.10697 13.4537C5.10856 13.8018 5.16712 14.1292 5.28278 14.4344C5.39996 14.7411 5.56801 15.0114 5.7885 15.245C6.00894 15.4802 6.27418 15.663 6.58558 15.7966C6.89856 15.9301 7.25012 15.9969 7.64177 16C7.87767 15.9984 8.09352 15.9746 8.29085 15.9269C8.48665 15.8808 8.66246 15.8236 8.81663 15.7552C8.9708 15.6869 9.10186 15.6169 9.20981 15.5486C9.31618 15.4802 9.39791 15.423 9.45341 15.3769C9.51045 15.3292 9.5382 15.3054 9.5382 15.3038L9.08492 14.4359C9.08492 14.4376 9.06176 14.4566 9.01707 14.4916C8.9708 14.5266 8.90759 14.5711 8.82433 14.6236C8.7426 14.676 8.64394 14.73 8.53139 14.7825C8.41885 14.8349 8.29396 14.8794 8.15826 14.9144C8.02103 14.9494 7.87767 14.9685 7.72503 14.97C7.5477 14.97 7.37965 14.943 7.21772 14.889C7.05585 14.8333 6.91091 14.7523 6.78144 14.6442C6.6519 14.5361 6.54554 14.4026 6.46381 14.242C6.38055 14.0815 6.32969 13.894 6.30964 13.6826H9.56594C9.56594 13.681 9.56747 13.6635 9.57053 13.6301C9.57365 13.5951 9.57671 13.5538 9.57982 13.503C9.58288 13.4521 9.58599 13.3997 9.58905 13.3487C9.59217 13.2963 9.5937 13.2518 9.5937 13.2153C9.5937 12.891 9.54895 12.5906 9.45799 12.3108C9.36856 12.0327 9.23444 11.7879 9.05869 11.5781C8.88136 11.3683 8.66398 11.2046 8.40338 11.0869C8.14285 10.9693 7.84374 10.9089 7.503 10.9073C7.14992 10.9089 6.82764 10.9709 6.53471 11.0949C6.2433 11.2173 5.99047 11.3921 5.77768 11.6194C5.56489 11.8451 5.39996 12.1138 5.2843 12.4237C5.16711 12.7353 5.10856 13.0769 5.10697 13.4537ZM6.34662 12.8528C6.3836 12.6415 6.45299 12.4618 6.55476 12.3108C6.65654 12.1598 6.78449 12.0454 6.94019 11.9643C7.09595 11.8833 7.27481 11.842 7.47525 11.842C7.64947 11.842 7.80518 11.8801 7.94394 11.958C8.08117 12.0343 8.19218 12.1487 8.27391 12.2982C8.35717 12.4475 8.40186 12.6335 8.40956 12.8528L6.34662 12.8528ZM10.565 15.8856H11.7399V13.9592C11.7399 13.8161 11.7476 13.6778 11.763 13.5459C11.7784 13.4123 11.8046 13.2868 11.8416 13.1676C11.9187 12.926 12.0251 12.7305 12.1623 12.5811C12.2996 12.4301 12.4537 12.3204 12.6218 12.2505C12.7899 12.1805 12.9579 12.1455 13.1276 12.1471C13.2077 12.1471 13.274 12.1503 13.3249 12.1567C13.3773 12.1614 13.4035 12.1646 13.4051 12.1662V10.9741C13.4035 10.9725 13.3819 10.9693 13.3403 10.9646C13.2987 10.9582 13.2493 10.955 13.1923 10.955C12.9502 10.9582 12.7297 11.0138 12.5309 11.1235C12.3304 11.2348 12.1593 11.3826 12.0159 11.5702C11.874 11.7577 11.7661 11.9691 11.6936 12.2043H11.6751C11.6751 12.2028 11.6766 12.1869 11.6798 12.1551C11.6828 12.1233 11.6859 12.0819 11.689 12.0311C11.6921 11.9787 11.6936 11.9214 11.6936 11.861V11.0218H10.565L10.565 15.8856ZM15.3848 15.8856H16.7724L18.4653 11.0218H17.2257L16.2451 14.0354C16.222 14.1086 16.2004 14.1865 16.1819 14.2707C16.1619 14.3549 16.1449 14.4344 16.131 14.5107C16.1156 14.5854 16.1048 14.6474 16.0955 14.6951C16.0863 14.7427 16.0817 14.7682 16.0786 14.7698H16.0601C16.057 14.7682 16.0524 14.7427 16.0431 14.6951C16.0339 14.6474 16.0231 14.5854 16.0076 14.5107C15.9938 14.4344 15.9768 14.3549 15.9568 14.2707C15.9382 14.1865 15.9167 14.1086 15.8936 14.0354L14.913 11.0218H13.6733L15.3848 15.8856ZM19.1221 10.1921H20.2878V9.11446H19.1221V10.1921ZM19.1221 15.8856H20.297V11.0218H19.1221V15.8856ZM21.2499 13.4537C21.2514 13.8082 21.3115 14.1403 21.4303 14.4471C21.549 14.7539 21.7217 15.0241 21.9452 15.2561C22.1688 15.4882 22.4371 15.6694 22.7532 15.8013C23.0677 15.9316 23.4208 15.9984 23.8124 16C24.0653 15.9984 24.295 15.9698 24.5016 15.9173C24.7066 15.8649 24.887 15.7997 25.0443 15.7219C25.2 15.644 25.3311 15.5645 25.4359 15.4866C25.5423 15.4087 25.6209 15.3436 25.6749 15.2911C25.7288 15.2387 25.7551 15.2101 25.7551 15.2084L25.3018 14.3501C25.3018 14.3518 25.2787 14.374 25.2339 14.4153C25.1892 14.4566 25.1245 14.5075 25.0428 14.5679C24.9595 14.6299 24.8608 14.6903 24.7467 14.7523C24.6311 14.8127 24.5047 14.8635 24.3644 14.9049C24.2241 14.9462 24.0745 14.9685 23.9141 14.97C23.689 14.9685 23.487 14.9271 23.3051 14.8477C23.1247 14.7666 22.9705 14.6553 22.8425 14.5154C22.7131 14.374 22.6159 14.2119 22.5466 14.0291C22.4787 13.8463 22.4432 13.6508 22.4432 13.4442C22.4432 13.2359 22.4772 13.0404 22.545 12.8592C22.6128 12.6764 22.7084 12.5175 22.8333 12.3792C22.9597 12.2409 23.1108 12.1344 23.2866 12.0566C23.4624 11.9787 23.6597 11.9389 23.8772 11.9373C24.0252 11.9389 24.1624 11.9564 24.2888 11.9914C24.4152 12.0264 24.5294 12.0693 24.6295 12.1217C24.7313 12.1741 24.8161 12.225 24.887 12.2775C24.9579 12.3283 25.0134 12.3728 25.0505 12.4078C25.0875 12.4428 25.1075 12.4603 25.1075 12.4618L25.6256 11.6321C25.6256 11.6305 25.6024 11.6051 25.5546 11.5559C25.5084 11.5082 25.4374 11.4478 25.3419 11.3763C25.2463 11.3047 25.126 11.2332 24.9826 11.1617C24.8377 11.0902 24.6681 11.0314 24.4738 10.9821C24.278 10.9344 24.0591 10.9089 23.8124 10.9073C23.4208 10.9106 23.0677 10.9773 22.7532 11.1108C22.4371 11.2443 22.1688 11.4271 21.9452 11.6624C21.7217 11.896 21.549 12.1662 21.4303 12.473C21.3116 12.7782 21.2514 13.1056 21.2499 13.4537ZM26.3008 13.4537C26.3024 13.8018 26.361 14.1292 26.4766 14.4344C26.5938 14.7412 26.7619 15.0114 26.9824 15.245C27.2028 15.4802 27.468 15.6631 27.7794 15.7966C28.0924 15.9301 28.444 15.9969 28.8356 16C29.0715 15.9984 29.2874 15.9746 29.4847 15.9269C29.6805 15.8808 29.8563 15.8236 30.0105 15.7553C30.1646 15.6869 30.2957 15.6169 30.4037 15.5486C30.51 15.4802 30.5918 15.423 30.6473 15.377C30.7043 15.3293 30.7321 15.3054 30.7321 15.3038L30.2788 14.436C30.2788 14.4376 30.2556 14.4566 30.2109 14.4916C30.1646 14.5266 30.1014 14.5711 30.0182 14.6236C29.9365 14.676 29.8378 14.73 29.7252 14.7825C29.6127 14.8349 29.4878 14.8794 29.3521 14.9144C29.2149 14.9494 29.0715 14.9685 28.9189 14.97C28.7416 14.97 28.5735 14.943 28.4116 14.889C28.2497 14.8334 28.1048 14.7523 27.9753 14.6442C27.8458 14.5361 27.7394 14.4026 27.6577 14.242C27.5744 14.0815 27.5235 13.894 27.5035 13.6826H30.7598C30.7598 13.681 30.7613 13.6635 30.7644 13.6301C30.7675 13.5952 30.7706 13.5538 30.7737 13.503C30.7767 13.4521 30.7798 13.3997 30.7829 13.3488C30.786 13.2963 30.7876 13.2518 30.7876 13.2153C30.7876 12.891 30.7428 12.5906 30.6518 12.3108C30.5624 12.0327 30.4283 11.7879 30.2525 11.5781C30.0752 11.3683 29.8578 11.2046 29.5972 11.0869C29.3367 10.9693 29.0376 10.9089 28.6969 10.9073C28.3438 10.9089 28.0215 10.9709 27.7286 11.0949C27.4372 11.2173 27.1843 11.3921 26.9715 11.6195C26.7587 11.8451 26.5938 12.1138 26.4782 12.4237C26.361 12.7353 26.3024 13.077 26.3008 13.4537ZM27.5405 12.8529C27.5775 12.6415 27.6468 12.4618 27.7486 12.3108C27.8504 12.1598 27.9783 12.0454 28.134 11.9644C28.2898 11.8833 28.4687 11.842 28.6691 11.842C28.8433 11.842 28.999 11.8801 29.1378 11.958C29.275 12.0343 29.386 12.1487 29.4678 12.2982C29.551 12.4475 29.5957 12.6335 29.6034 12.8529L27.5405 12.8529ZM31.9439 15.8856H34.1826C34.6914 15.884 35.1509 15.8077 35.561 15.6551C35.9711 15.5025 36.3227 15.2816 36.6171 14.9891C36.9101 14.6967 37.1352 14.3422 37.2925 13.9226C37.4497 13.503 37.5299 13.0261 37.5315 12.4905C37.5299 11.9548 37.4497 11.4796 37.2925 11.0616C37.1352 10.6435 36.9101 10.2906 36.6171 10.0014C36.3227 9.71207 35.9711 9.49113 35.561 9.34171C35.1509 9.19072 34.6914 9.11446 34.1826 9.11446H31.9439V15.8856ZM33.1373 14.827V10.1731H34.1179C34.4478 10.1731 34.7454 10.2239 35.0136 10.3224C35.2804 10.4226 35.5101 10.5704 35.7029 10.7659C35.894 10.963 36.042 11.2046 36.1453 11.4923C36.2486 11.78 36.2996 12.1138 36.3011 12.4905C36.2996 12.9991 36.2085 13.4283 36.0313 13.7748C35.8539 14.1213 35.6011 14.3835 35.2758 14.56C34.9504 14.738 34.565 14.827 34.1178 14.827L33.1373 14.827ZM38.2623 13.4537C38.2638 13.8018 38.3224 14.1293 38.4381 14.4344C38.5552 14.7412 38.7233 15.0114 38.9438 15.245C39.1642 15.4803 39.4295 15.6631 39.7409 15.7966C40.0538 15.9301 40.4054 15.9969 40.7971 16C41.033 15.9985 41.2488 15.9746 41.4461 15.9269C41.6419 15.8808 41.8177 15.8236 41.9719 15.7553C42.1261 15.6869 42.2571 15.6169 42.3651 15.5486C42.4715 15.4803 42.5532 15.423 42.6087 15.377C42.6657 15.3293 42.6935 15.3054 42.6935 15.3039L42.2402 14.436C42.2402 14.4376 42.217 14.4566 42.1723 14.4916C42.1261 14.5266 42.0629 14.5711 41.9796 14.6236C41.8979 14.676 41.7992 14.73 41.6867 14.7825C41.5741 14.8349 41.4492 14.8794 41.3135 14.9144C41.1763 14.9494 41.033 14.9685 40.8803 14.9701C40.703 14.9701 40.5349 14.943 40.373 14.889C40.2111 14.8334 40.0662 14.7523 39.9367 14.6442C39.8072 14.5361 39.7008 14.4026 39.6191 14.2421C39.5358 14.0816 39.485 13.894 39.4649 13.6826H42.7212C42.7212 13.681 42.7228 13.6635 42.7258 13.6301C42.7289 13.5952 42.732 13.5538 42.7351 13.503C42.7382 13.4521 42.7413 13.3997 42.7443 13.3488C42.7474 13.2963 42.749 13.2518 42.749 13.2153C42.749 12.891 42.7042 12.5906 42.6133 12.3108C42.5238 12.0327 42.3897 11.7879 42.214 11.5781C42.0366 11.3683 41.8193 11.2046 41.5587 11.087C41.2981 10.9694 40.999 10.9089 40.6583 10.9074C40.3052 10.9089 39.9829 10.9709 39.69 11.0949C39.3986 11.2173 39.1457 11.3922 38.933 11.6195C38.7202 11.8451 38.5552 12.1138 38.4396 12.4237C38.3224 12.7353 38.2638 13.077 38.2623 13.4537ZM39.5019 12.8529C39.5389 12.6415 39.6083 12.4618 39.71 12.3108C39.8118 12.1599 39.9398 12.0454 40.0955 11.9644C40.2512 11.8833 40.4301 11.842 40.6305 11.842C40.8048 11.842 40.9605 11.8801 41.0992 11.958C41.2365 12.0343 41.3475 12.1488 41.4292 12.2982C41.5125 12.4475 41.5571 12.6335 41.5648 12.8529L39.5019 12.8529ZM43.3225 15.2848C43.3225 15.2863 43.3487 15.3118 43.3996 15.3595C43.452 15.4072 43.5276 15.466 43.6293 15.5359C43.7296 15.6074 43.8545 15.6774 44.0025 15.7489C44.1505 15.8189 44.3201 15.8777 44.5128 15.9254C44.7055 15.973 44.9198 15.9985 45.1542 16C45.4348 15.9985 45.6861 15.9603 45.9082 15.8856C46.1302 15.8109 46.3198 15.7076 46.4755 15.574C46.6328 15.4421 46.7515 15.2863 46.8332 15.1115C46.9165 14.9351 46.9581 14.7443 46.9581 14.5409C46.9566 14.3184 46.9134 14.126 46.8317 13.9639C46.7485 13.8018 46.639 13.6635 46.5033 13.5475C46.3676 13.4315 46.218 13.3329 46.0546 13.2486C45.8927 13.1644 45.7293 13.0897 45.5674 13.0245C45.404 12.9578 45.2544 12.8942 45.1187 12.8322C44.983 12.7703 44.8736 12.7019 44.7903 12.6304C44.7086 12.5573 44.6654 12.473 44.6639 12.376C44.6654 12.2743 44.6948 12.1917 44.7518 12.1265C44.8088 12.0613 44.8828 12.0137 44.9738 11.9835C45.0648 11.9516 45.1619 11.9373 45.2652 11.9373C45.4456 11.9389 45.6075 11.9612 45.7509 12.0025C45.8927 12.0438 46.0145 12.0915 46.1147 12.1471C46.2135 12.2012 46.2905 12.2505 46.3429 12.2918C46.3954 12.3331 46.4216 12.3554 46.4216 12.357L46.8564 11.4605C46.8564 11.4589 46.8363 11.4399 46.7947 11.4033C46.7531 11.3667 46.6898 11.3206 46.6066 11.265C46.5218 11.211 46.417 11.1569 46.2905 11.1013C46.1641 11.0473 46.0176 11.0011 45.848 10.9646C45.6784 10.928 45.4872 10.9089 45.2744 10.9074C45.0185 10.9074 44.7811 10.9392 44.5637 11.0028C44.3447 11.0663 44.1536 11.1601 43.9916 11.2825C43.8282 11.4049 43.7002 11.5559 43.6093 11.7323C43.5183 11.9087 43.4721 12.1106 43.4705 12.3379C43.4736 12.5604 43.5153 12.7527 43.597 12.9133C43.6802 13.0754 43.7897 13.2137 43.9254 13.3297C44.061 13.4458 44.2106 13.5459 44.3741 13.6301C44.5359 13.7144 44.6993 13.7891 44.8613 13.8558C45.0247 13.9226 45.1743 13.9894 45.3099 14.0529C45.4456 14.1181 45.5551 14.1881 45.6383 14.2643C45.72 14.339 45.7632 14.4296 45.7648 14.5314C45.7632 14.6267 45.7339 14.7078 45.6784 14.7729C45.6214 14.8382 45.5474 14.8874 45.4533 14.9192C45.3608 14.9526 45.2575 14.9701 45.145 14.9701C44.9907 14.9685 44.8489 14.9494 44.7163 14.9144C44.5853 14.8794 44.4665 14.8349 44.3602 14.7825C44.2553 14.73 44.1659 14.676 44.0904 14.6236C44.0163 14.5711 43.9593 14.5266 43.9192 14.4916C43.8791 14.4566 43.859 14.4376 43.859 14.436L43.3225 15.2848ZM47.9017 15.8856H49.0767V13.7589H49.6872L50.9361 15.8856H52.2867L50.6123 13.2153V13.1962L52.1017 11.0218H50.7973L49.6595 12.7384H49.0767V9.11447H47.9017V15.8856Z" fill="#EFEFEF"/>
        <path d="M55.4966 15.8856H56.4124V13.3964H57.8833C58.1824 13.3949 58.4584 13.344 58.7082 13.2423C58.958 13.1405 59.1738 12.9959 59.3573 12.8068C59.5408 12.6192 59.6826 12.3951 59.7844 12.1328C59.8846 11.8721 59.9355 11.5812 59.937 11.2602C59.9355 10.9391 59.8846 10.6498 59.7844 10.3923C59.6826 10.1333 59.5408 9.91232 59.3573 9.72635C59.1738 9.54195 58.958 9.40053 58.7082 9.30197C58.4584 9.20341 58.1824 9.15413 57.8833 9.15256H55.4966V15.8856ZM56.4124 12.5762V9.97274H57.7446C58.0051 9.97274 58.2287 10.0252 58.4168 10.1269C58.6034 10.227 58.7483 10.3749 58.85 10.5656C58.9503 10.7579 59.0011 10.9884 59.0027 11.2602C59.0011 11.532 58.9503 11.7656 58.8485 11.9611C58.7483 12.1582 58.6018 12.3092 58.4137 12.4157C58.2241 12.5207 57.999 12.5747 57.7353 12.5762L56.4124 12.5762ZM60.8714 14.5695C60.8729 14.8111 60.9007 15.0129 60.9531 15.1751C61.0071 15.3388 61.078 15.4691 61.1674 15.5693C61.2568 15.6694 61.357 15.7441 61.4665 15.7966C61.576 15.8474 61.6885 15.8808 61.8026 15.8983C61.9183 15.9173 62.0262 15.9253 62.1295 15.9237C62.2112 15.9221 62.279 15.919 62.3361 15.9142C62.3932 15.9078 62.4225 15.9046 62.4255 15.9046V15.0845C62.424 15.0845 62.4086 15.086 62.3777 15.0892C62.3484 15.0924 62.3114 15.094 62.2683 15.094C62.1742 15.0956 62.0909 15.0797 62.0154 15.0447C61.9398 15.0098 61.8813 14.943 61.8365 14.8444C61.7918 14.7443 61.7703 14.5997 61.7687 14.4073V9.15256H60.8714V14.5695ZM63.3136 14.1498C63.3136 14.5758 63.3738 14.9239 63.494 15.1973C63.6142 15.4707 63.7931 15.6726 64.0305 15.8045C64.268 15.9348 64.5625 16 64.914 16C65.1438 15.9984 65.3519 15.9619 65.5415 15.8935C65.7312 15.8252 65.8993 15.7361 66.0457 15.6249C66.1907 15.5152 66.314 15.396 66.4127 15.2673C66.5114 15.1401 66.5853 15.0145 66.6347 14.8937H66.6532C66.6532 14.8953 66.6501 14.9303 66.6439 14.9955C66.6393 15.0606 66.6362 15.1448 66.6347 15.2466V15.8856H67.5043V11.0599H66.607V13.3201C66.607 13.5601 66.573 13.789 66.5037 14.0068C66.4358 14.2246 66.3371 14.4185 66.2061 14.5886C66.075 14.7586 65.9162 14.8937 65.7296 14.9907C65.5415 15.0892 65.3287 15.1401 65.0898 15.1417C64.9032 15.1401 64.7521 15.1099 64.6365 15.0479C64.5209 14.9859 64.4314 14.9001 64.3697 14.792C64.3081 14.6823 64.2649 14.5552 64.2433 14.4089C64.2202 14.2643 64.2094 14.1085 64.2109 13.94V11.0599H63.3136L63.3136 14.1498ZM68.5311 15.2943C68.5311 15.2959 68.5558 15.3213 68.6051 15.3674C68.656 15.4151 68.7285 15.4723 68.8256 15.5422C68.9227 15.6122 69.043 15.6821 69.1864 15.752C69.3298 15.8204 69.4948 15.8792 69.6829 15.9269C69.8694 15.973 70.0776 15.9984 70.3073 16C70.6511 15.9968 70.9502 15.9364 71.2031 15.814C71.456 15.6932 71.6502 15.5279 71.789 15.3181C71.9278 15.1067 71.9987 14.8683 72.0003 14.5981C71.9971 14.374 71.954 14.1801 71.8676 14.0195C71.7813 13.859 71.6656 13.7223 71.5238 13.6094C71.3804 13.4966 71.2247 13.3996 71.0535 13.317C70.8824 13.2359 70.7128 13.1612 70.5416 13.0929C70.3705 13.0261 70.2148 12.9578 70.0714 12.8878C69.9296 12.8194 69.8139 12.74 69.7276 12.6526C69.6413 12.5652 69.5965 12.4602 69.595 12.3378C69.5965 12.198 69.6351 12.0851 69.7075 11.9977C69.78 11.9103 69.8756 11.8467 69.9912 11.807C70.1069 11.7656 70.2318 11.7465 70.3628 11.7465C70.5478 11.7482 70.7128 11.7704 70.8562 11.8133C70.9996 11.8563 71.1199 11.9055 71.2185 11.9611C71.3172 12.0168 71.3912 12.066 71.4421 12.109C71.4929 12.1503 71.5192 12.1725 71.5192 12.1757L71.88 11.4795C71.88 11.478 71.8599 11.4589 71.8214 11.4239C71.7828 11.3889 71.7243 11.3444 71.6456 11.292C71.5654 11.2396 71.4668 11.1855 71.3465 11.133C71.2262 11.0806 71.0859 11.0361 70.924 11.0011C70.7606 10.9661 70.5771 10.9471 70.3721 10.9455C70.1377 10.9455 69.9172 10.9757 69.7137 11.0361C69.5087 11.0965 69.3298 11.1855 69.1756 11.3031C69.0199 11.4207 68.8996 11.5638 68.8117 11.7339C68.7254 11.9039 68.6807 12.0994 68.6791 12.3188C68.6822 12.5413 68.7254 12.7336 68.8117 12.8942C68.8996 13.0531 69.0137 13.1898 69.1556 13.3042C69.2989 13.4171 69.4547 13.5141 69.6258 13.5967C69.797 13.6794 69.9665 13.7556 70.1377 13.824C70.3089 13.8923 70.4646 13.9623 70.608 14.0338C70.7498 14.1053 70.8654 14.1848 70.9518 14.2754C71.0381 14.3644 71.0828 14.4725 71.0844 14.5981C71.0828 14.7284 71.0443 14.8381 70.9688 14.9271C70.8947 15.0161 70.7991 15.0845 70.682 15.1305C70.5648 15.1751 70.4399 15.1989 70.3073 15.1989C70.1439 15.1973 69.9928 15.1782 69.8555 15.1401C69.7168 15.1036 69.5935 15.0558 69.484 15.0002C69.3745 14.9446 69.2805 14.8905 69.2034 14.8349C69.1262 14.7793 69.0677 14.7316 69.0276 14.6951C68.9875 14.6569 68.9659 14.6378 68.9659 14.6362L68.5311 15.2943Z" fill="#EFEFEF"/>
    </g>
    <defs>
        <clipPath id="clip0_2601_1244">
            <rect width="72" height="7" fill="white" transform="translate(0 9)"/>
        </clipPath>
    </defs>
</svg>
