<svg width="72" height="24" viewBox="0 0 72 24" fill="none" xmlns="http://www.w3.org/2000/svg">
<g clip-path="url(#clip0_2794_673)">
<path d="M5.81915 11.243H14.1129C13.6836 8.32773 11.1751 6.11304 8.14683 6.11304C4.8022 6.11304 2.11293 8.8249 2.11293 12.1469C2.09033 15.4916 4.8022 18.2034 8.14683 18.2034C8.44062 18.2034 8.7118 18.1808 8.98299 18.1356V13.1413H5.81915V11.243Z" fill="white"/>
<path d="M11.2427 17.3447C12.7342 16.4408 13.8189 14.9267 14.1127 13.1414H11.2427V17.3447Z" fill="white"/>
<path d="M16.373 9.50293H24.1019V11.1978H21.2544V16.3504H19.2205V11.1978H16.373V9.50293Z" fill="white"/>
<path d="M26.8817 9.50293H29.5257L33.1641 16.3504H30.9043L30.2715 15.13H26.1585L25.5709 16.3504H23.311L26.8817 9.50293ZM26.9269 13.6611H29.5257L28.215 11.0849L26.9269 13.6611Z" fill="white"/>
<path d="M33.7065 9.50293H36.8478L40.667 14.4747H40.6896V9.50293H42.7235V16.3504H39.5822L35.763 11.3786H35.7404V16.3504H33.7065V9.50293Z" fill="white"/>
<path d="M44.0342 9.50293H46.0681V16.3504H44.0342V9.50293Z" fill="white"/>
<path d="M47.356 9.50293H49.3899V13.4577C49.3899 14.3391 49.6836 14.6781 50.5198 14.6781H52.5311C53.3673 14.6781 53.661 14.3391 53.661 13.4577V9.50293H55.6949V13.9097C55.6949 15.6046 54.8362 16.4182 52.9831 16.4182H50.0678C48.1921 16.4182 47.356 15.6046 47.356 13.9097V9.50293Z" fill="white"/>
<path d="M56.8926 9.50293H60.0112L62.3163 13.9097L64.5988 9.50293H67.7174V16.3504H65.7513V11.4238H65.7287L63.0621 16.3504H61.5479L58.8813 11.4238H58.8587V16.3504H56.8926V9.50293Z" fill="white"/>
<path d="M68.8473 15.7855H68.6665V15.6951H69.1185V15.7855H68.9377V16.26H68.8247V15.7855H68.8473ZM69.7738 15.8081L69.6157 16.26H69.5253L69.3671 15.8081V16.26H69.2541V15.6951H69.4349L69.5705 16.0792L69.7061 15.6951H69.8868V16.26H69.7738V15.8081Z" fill="white"/>
</g>
<defs>
<clipPath id="clip0_2794_673">
<rect width="68" height="12.3164" fill="white" transform="translate(2 6)"/>
</clipPath>
</defs>
</svg>
