<svg width="72" height="24" viewBox="0 0 72 24" fill="none" xmlns="http://www.w3.org/2000/svg">
    <path fill-rule="evenodd" clip-rule="evenodd" d="M8.51749 15.3717C6.77837 15.3717 5.3682 14.0087 5.3682 12.3274C5.3682 10.6463 6.77815 9.28342 8.51709 9.28321V15.3717C10.2562 15.3717 11.6664 14.0087 11.6664 12.3274C11.6664 10.6463 10.2564 9.28341 8.51749 9.2832V7C5.47074 7 3 9.38815 3 12.3333C3 15.279 5.47074 17.6667 8.51749 17.6667V15.3717Z" fill="#00CC66"/>
    <path d="M16.6521 14.0959C15.0381 14.0959 14.3721 13.0639 14.3721 11.9239C14.3721 10.7599 15.1701 9.7039 16.7421 9.7039C17.4321 9.7039 17.9841 9.9619 18.2901 10.2019V11.1379H18.2841C17.8341 10.8379 17.3901 10.5439 16.7241 10.5439C15.8241 10.5439 15.3201 11.1319 15.3201 11.9179C15.3201 12.6679 15.7881 13.2559 16.7181 13.2559C17.3721 13.2559 17.8461 13.0159 18.2841 12.6859H18.2901V13.6219C17.9961 13.8439 17.4141 14.0959 16.6521 14.0959Z" fill="white"/>
    <path d="M20.7516 14.0959C19.6356 14.0959 18.9756 13.3399 18.9756 12.3799C18.9756 11.4199 19.6356 10.6639 20.7516 10.6639C21.8676 10.6639 22.5276 11.4199 22.5276 12.3799C22.5276 13.3399 21.8676 14.0959 20.7516 14.0959ZM20.7516 13.3519C21.3036 13.3519 21.6396 12.9439 21.6396 12.3799C21.6396 11.8159 21.3036 11.4079 20.7516 11.4079C20.1996 11.4079 19.8636 11.8159 19.8636 12.3799C19.8636 12.9439 20.1996 13.3519 20.7516 13.3519Z" fill="white"/>
    <path d="M23.2984 13.9999V10.7599H24.1684V11.3659C24.4144 10.8979 24.7324 10.6879 25.0624 10.6879C25.0984 10.6879 25.1344 10.6879 25.2064 10.6999V11.5759C25.1344 11.5639 25.0804 11.5639 25.0144 11.5639C24.6124 11.5639 24.3004 11.6959 24.1804 11.9839V13.9999H23.2984Z" fill="white"/>
    <path d="M26.2723 13.9999V11.4859H25.5523L25.6963 10.7599H26.2723V10.0399L27.1423 9.9499V10.7599H27.8743V11.4859H27.1423V13.9999H26.2723Z" fill="white"/>
    <path d="M29.9791 10.6639C31.0531 10.6639 31.5631 11.4019 31.5631 12.3619C31.5631 12.4579 31.5571 12.5539 31.5451 12.6499H29.1331C29.2171 13.1119 29.5651 13.3579 30.1351 13.3579C30.6151 13.3579 30.9931 13.2079 31.3591 12.9919H31.3651V13.7659C31.0891 13.9279 30.6511 14.0959 30.0991 14.0959C28.8331 14.0959 28.2451 13.3819 28.2451 12.4519C28.2451 11.4379 28.9171 10.6639 29.9791 10.6639ZM29.9611 11.3899C29.5351 11.3899 29.2471 11.6359 29.1511 12.0619H30.7291C30.6931 11.6419 30.4111 11.3899 29.9611 11.3899Z" fill="white"/>
    <path d="M31.9379 13.9999V13.9939L33.1919 12.3199L32.0039 10.7659V10.7599H33.0359L33.7559 11.7499L34.4459 10.7599H35.4539V10.7659L34.2719 12.3499L35.5259 13.9939V13.9999H34.4939L33.7079 12.9139L32.9459 13.9999H31.9379Z" fill="white"/>
    <path d="M37.8035 13.9999V9.7999H39.8615C41.1815 9.7999 41.9735 10.5799 41.9735 11.8939C41.9735 13.2019 41.1815 13.9999 39.8615 13.9999H37.8035ZM38.7275 13.1659H39.8555C40.5995 13.1659 41.0255 12.7759 41.0255 11.9059C41.0255 11.0419 40.5995 10.6339 39.8555 10.6339H38.7275V13.1659Z" fill="white"/>
    <path d="M43.6871 14.0959C42.9371 14.0959 42.5711 13.6939 42.5711 13.1839C42.5711 12.8899 42.6851 12.6799 42.8291 12.5359C43.0151 12.3499 43.4951 12.0799 44.7071 12.0139V11.9179C44.7071 11.6299 44.5451 11.4259 44.1191 11.4259C43.7111 11.4259 43.2851 11.5819 42.8711 11.8699H42.8651V11.0419C43.3391 10.7719 43.7891 10.6639 44.2331 10.6639C45.1751 10.6639 45.5831 11.1799 45.5831 11.9659V13.9999H44.7731L44.7551 13.6339C44.4971 13.9219 44.1491 14.0959 43.6871 14.0959ZM43.8911 13.4419C44.2451 13.4419 44.5631 13.2739 44.7071 13.1299V12.5719C43.9931 12.6319 43.6691 12.7399 43.5251 12.8839C43.4651 12.9439 43.4351 13.0279 43.4351 13.1119C43.4351 13.3039 43.5971 13.4419 43.8911 13.4419Z" fill="white"/>
    <path d="M46.8504 13.9999V11.4859H46.1304L46.2744 10.7599H46.8504V10.0399L47.7204 9.9499V10.7599H48.4524V11.4859H47.7204V13.9999H46.8504Z" fill="white"/>
    <path d="M49.9625 14.0959C49.2125 14.0959 48.8465 13.6939 48.8465 13.1839C48.8465 12.8899 48.9605 12.6799 49.1045 12.5359C49.2905 12.3499 49.7705 12.0799 50.9825 12.0139V11.9179C50.9825 11.6299 50.8205 11.4259 50.3945 11.4259C49.9865 11.4259 49.5605 11.5819 49.1465 11.8699H49.1405V11.0419C49.6145 10.7719 50.0645 10.6639 50.5085 10.6639C51.4505 10.6639 51.8585 11.1799 51.8585 11.9659V13.9999H51.0485L51.0305 13.6339C50.7725 13.9219 50.4245 14.0959 49.9625 14.0959ZM50.1665 13.4419C50.5205 13.4419 50.8385 13.2739 50.9825 13.1299V12.5719C50.2685 12.6319 49.9445 12.7399 49.8005 12.8839C49.7405 12.9439 49.7105 13.0279 49.7105 13.1119C49.7105 13.3039 49.8725 13.4419 50.1665 13.4419Z" fill="white"/>
    <path d="M54.4734 13.9999V9.7999H55.3974V13.1479H57.7914L57.7614 13.9999H54.4734Z" fill="white"/>
    <path d="M59.443 14.0959C58.693 14.0959 58.327 13.6939 58.327 13.1839C58.327 12.8899 58.441 12.6799 58.585 12.5359C58.771 12.3499 59.251 12.0799 60.463 12.0139V11.9179C60.463 11.6299 60.301 11.4259 59.875 11.4259C59.467 11.4259 59.041 11.5819 58.627 11.8699H58.621V11.0419C59.095 10.7719 59.545 10.6639 59.989 10.6639C60.931 10.6639 61.339 11.1799 61.339 11.9659V13.9999H60.529L60.511 13.6339C60.253 13.9219 59.905 14.0959 59.443 14.0959ZM59.647 13.4419C60.001 13.4419 60.319 13.2739 60.463 13.1299V12.5719C59.749 12.6319 59.425 12.7399 59.281 12.8839C59.221 12.9439 59.191 13.0279 59.191 13.1119C59.191 13.3039 59.353 13.4419 59.647 13.4419Z" fill="white"/>
    <path d="M62.2516 13.9999V9.4519H63.1336V11.9479H63.6376L64.4536 10.7599H65.4556V10.7659L64.3696 12.2959L65.5456 13.9939V13.9999H64.5136L63.6496 12.7159H63.1336V13.9999H62.2516Z" fill="white"/>
    <path d="M67.5904 10.6639C68.6644 10.6639 69.1744 11.4019 69.1744 12.3619C69.1744 12.4579 69.1684 12.5539 69.1564 12.6499H66.7444C66.8284 13.1119 67.1764 13.3579 67.7464 13.3579C68.2264 13.3579 68.6044 13.2079 68.9704 12.9919H68.9764V13.7659C68.7004 13.9279 68.2624 14.0959 67.7104 14.0959C66.4444 14.0959 65.8564 13.3819 65.8564 12.4519C65.8564 11.4379 66.5284 10.6639 67.5904 10.6639ZM67.5724 11.3899C67.1464 11.3899 66.8584 11.6359 66.7624 12.0619H68.3404C68.3044 11.6419 68.0224 11.3899 67.5724 11.3899Z" fill="white"/>
</svg>
