<svg width="72" height="24" viewBox="0 0 72 24" fill="none" xmlns="http://www.w3.org/2000/svg">
    <path fill-rule="evenodd" clip-rule="evenodd" d="M8.51749 15.3717C6.77837 15.3717 5.3682 14.0087 5.3682 12.3274C5.3682 10.6463 6.77815 9.28342 8.51709 9.28321V15.3717C10.2562 15.3717 11.6664 14.0087 11.6664 12.3274C11.6664 10.6463 10.2564 9.28341 8.51749 9.2832V7C5.47074 7 3 9.38815 3 12.3333C3 15.279 5.47074 17.6667 8.51749 17.6667V15.3717Z" fill="#00CC66"/>
    <path d="M16.6521 14.096C15.0381 14.096 14.3721 13.064 14.3721 11.924C14.3721 10.76 15.1701 9.704 16.7421 9.704C17.4321 9.704 17.9841 9.962 18.2901 10.202V11.138H18.2841C17.8341 10.838 17.3901 10.544 16.7241 10.544C15.8241 10.544 15.3201 11.132 15.3201 11.918C15.3201 12.668 15.7881 13.256 16.7181 13.256C17.3721 13.256 17.8461 13.016 18.2841 12.686H18.2901V13.622C17.9961 13.844 17.4141 14.096 16.6521 14.096Z" fill="#000101"/>
    <path d="M20.7516 14.096C19.6356 14.096 18.9756 13.34 18.9756 12.38C18.9756 11.42 19.6356 10.664 20.7516 10.664C21.8676 10.664 22.5276 11.42 22.5276 12.38C22.5276 13.34 21.8676 14.096 20.7516 14.096ZM20.7516 13.352C21.3036 13.352 21.6396 12.944 21.6396 12.38C21.6396 11.816 21.3036 11.408 20.7516 11.408C20.1996 11.408 19.8636 11.816 19.8636 12.38C19.8636 12.944 20.1996 13.352 20.7516 13.352Z" fill="#000101"/>
    <path d="M23.2984 14V10.76H24.1684V11.366C24.4144 10.898 24.7324 10.688 25.0624 10.688C25.0984 10.688 25.1344 10.688 25.2064 10.7V11.576C25.1344 11.564 25.0804 11.564 25.0144 11.564C24.6124 11.564 24.3004 11.696 24.1804 11.984V14H23.2984Z" fill="#000101"/>
    <path d="M26.2723 14V11.486H25.5523L25.6963 10.76H26.2723V10.04L27.1423 9.95V10.76H27.8743V11.486H27.1423V14H26.2723Z" fill="#000101"/>
    <path d="M29.9791 10.664C31.0531 10.664 31.5631 11.402 31.5631 12.362C31.5631 12.458 31.5571 12.554 31.5451 12.65H29.1331C29.2171 13.112 29.5651 13.358 30.1351 13.358C30.6151 13.358 30.9931 13.208 31.3591 12.992H31.3651V13.766C31.0891 13.928 30.6511 14.096 30.0991 14.096C28.8331 14.096 28.2451 13.382 28.2451 12.452C28.2451 11.438 28.9171 10.664 29.9791 10.664ZM29.9611 11.39C29.5351 11.39 29.2471 11.636 29.1511 12.062H30.7291C30.6931 11.642 30.4111 11.39 29.9611 11.39Z" fill="#000101"/>
    <path d="M31.9379 14V13.994L33.1919 12.32L32.0039 10.766V10.76H33.0359L33.7559 11.75L34.4459 10.76H35.4539V10.766L34.2719 12.35L35.5259 13.994V14H34.4939L33.7079 12.914L32.9459 14H31.9379Z" fill="#000101"/>
    <path d="M37.8035 14V9.8H39.8615C41.1815 9.8 41.9735 10.58 41.9735 11.894C41.9735 13.202 41.1815 14 39.8615 14H37.8035ZM38.7275 13.166H39.8555C40.5995 13.166 41.0255 12.776 41.0255 11.906C41.0255 11.042 40.5995 10.634 39.8555 10.634H38.7275V13.166Z" fill="#000101"/>
    <path d="M43.6871 14.096C42.9371 14.096 42.5711 13.694 42.5711 13.184C42.5711 12.89 42.6851 12.68 42.8291 12.536C43.0151 12.35 43.4951 12.08 44.7071 12.014V11.918C44.7071 11.63 44.5451 11.426 44.1191 11.426C43.7111 11.426 43.2851 11.582 42.8711 11.87H42.8651V11.042C43.3391 10.772 43.7891 10.664 44.2331 10.664C45.1751 10.664 45.5831 11.18 45.5831 11.966V14H44.7731L44.7551 13.634C44.4971 13.922 44.1491 14.096 43.6871 14.096ZM43.8911 13.442C44.2451 13.442 44.5631 13.274 44.7071 13.13V12.572C43.9931 12.632 43.6691 12.74 43.5251 12.884C43.4651 12.944 43.4351 13.028 43.4351 13.112C43.4351 13.304 43.5971 13.442 43.8911 13.442Z" fill="#000101"/>
    <path d="M46.8504 14V11.486H46.1304L46.2744 10.76H46.8504V10.04L47.7204 9.95V10.76H48.4524V11.486H47.7204V14H46.8504Z" fill="#000101"/>
    <path d="M49.9625 14.096C49.2125 14.096 48.8465 13.694 48.8465 13.184C48.8465 12.89 48.9605 12.68 49.1045 12.536C49.2905 12.35 49.7705 12.08 50.9825 12.014V11.918C50.9825 11.63 50.8205 11.426 50.3945 11.426C49.9865 11.426 49.5605 11.582 49.1465 11.87H49.1405V11.042C49.6145 10.772 50.0645 10.664 50.5085 10.664C51.4505 10.664 51.8585 11.18 51.8585 11.966V14H51.0485L51.0305 13.634C50.7725 13.922 50.4245 14.096 49.9625 14.096ZM50.1665 13.442C50.5205 13.442 50.8385 13.274 50.9825 13.13V12.572C50.2685 12.632 49.9445 12.74 49.8005 12.884C49.7405 12.944 49.7105 13.028 49.7105 13.112C49.7105 13.304 49.8725 13.442 50.1665 13.442Z" fill="#000101"/>
    <path d="M54.4734 14V9.8H55.3974V13.148H57.7914L57.7614 14H54.4734Z" fill="#000101"/>
    <path d="M59.443 14.096C58.693 14.096 58.327 13.694 58.327 13.184C58.327 12.89 58.441 12.68 58.585 12.536C58.771 12.35 59.251 12.08 60.463 12.014V11.918C60.463 11.63 60.301 11.426 59.875 11.426C59.467 11.426 59.041 11.582 58.627 11.87H58.621V11.042C59.095 10.772 59.545 10.664 59.989 10.664C60.931 10.664 61.339 11.18 61.339 11.966V14H60.529L60.511 13.634C60.253 13.922 59.905 14.096 59.443 14.096ZM59.647 13.442C60.001 13.442 60.319 13.274 60.463 13.13V12.572C59.749 12.632 59.425 12.74 59.281 12.884C59.221 12.944 59.191 13.028 59.191 13.112C59.191 13.304 59.353 13.442 59.647 13.442Z" fill="#000101"/>
    <path d="M62.2516 14V9.452H63.1336V11.948H63.6376L64.4536 10.76H65.4556V10.766L64.3696 12.296L65.5456 13.994V14H64.5136L63.6496 12.716H63.1336V14H62.2516Z" fill="#000101"/>
    <path d="M67.5904 10.664C68.6644 10.664 69.1744 11.402 69.1744 12.362C69.1744 12.458 69.1684 12.554 69.1564 12.65H66.7444C66.8284 13.112 67.1764 13.358 67.7464 13.358C68.2264 13.358 68.6044 13.208 68.9704 12.992H68.9764V13.766C68.7004 13.928 68.2624 14.096 67.7104 14.096C66.4444 14.096 65.8564 13.382 65.8564 12.452C65.8564 11.438 66.5284 10.664 67.5904 10.664ZM67.5724 11.39C67.1464 11.39 66.8584 11.636 66.7624 12.062H68.3404C68.3044 11.642 68.0224 11.39 67.5724 11.39Z" fill="#000101"/>
</svg>
