<svg width="72" height="24" viewBox="0 0 72 24" fill="none" xmlns="http://www.w3.org/2000/svg">
    <g clip-path="url(#clip0_2714_79)">
        <path d="M35.2447 10.8319C32.9991 10.2314 32.1225 9.72513 32.1225 8.70073C32.1225 7.14841 34.1315 6.99827 34.8518 6.99827C35.9837 6.99827 37.4233 7.35616 38.2751 7.77226L39.1781 6.09311C38.0275 5.53159 36.2655 5.15489 34.7919 5.15489C31.6558 5.15489 29.6925 6.50558 29.6925 8.81347C29.6925 11.4504 32.4614 12.1956 34.6141 12.7685C36.8559 13.3685 37.6384 14.0439 37.6384 15.0683C37.6384 16.7762 35.806 17.0423 34.6719 17.0423C33.1146 17.0423 31.8292 16.631 30.5729 15.8976L29.501 17.6152C31.0858 18.5393 32.73 18.9702 34.6719 18.9702C37.9152 18.9702 40.0701 17.3821 40.0701 14.9241C40.0701 12.1794 37.4486 11.4195 35.2447 10.8308" fill="#BE3A34"/>
        <path d="M26.7978 9.31425C26.7637 6.9397 24.8443 5.28223 22.1287 5.28223H16.2573V18.8813H18.3957V7.27141H22.0066C23.2161 7.27141 24.5164 7.88226 24.5378 9.34677C24.5565 10.6492 23.5534 11.4644 21.853 11.5343L21.82 11.5366L20.5252 11.5477L24.8366 18.9028L27.3629 18.8978C27.3629 18.8978 25.2884 15.34 23.987 13.1091C25.9031 12.4148 26.8198 10.8798 26.7978 9.31612" fill="#BE3A34"/>
        <path d="M55.8744 18.8538L53.2601 18.8589L48.5217 8.14875L43.9814 18.8589H41.3511L47.316 5.20021L49.7691 5.19853L55.8744 18.8538Z" fill="#BE3A34"/>
    </g>
    <defs>
        <clipPath id="clip0_2714_79">
            <rect width="40" height="14" fill="white" transform="translate(16 5)"/>
        </clipPath>
    </defs>
</svg>
