<?xml version="1.0" encoding="UTF-8"?>
<!DOCTYPE svg PUBLIC "-//W3C//DTD SVG 1.1//EN" "http://www.w3.org/Graphics/SVG/1.1/DTD/svg11.dtd">
<svg xmlns="http://www.w3.org/2000/svg" version="1.1" width="120px" height="50px" style="shape-rendering:geometricPrecision; text-rendering:geometricPrecision; image-rendering:optimizeQuality; fill-rule:evenodd; clip-rule:evenodd" xmlns:xlink="http://www.w3.org/1999/xlink">
<g><path style="opacity:1" fill="#faf9f9" d="M 2.5,-0.5 C 41.5,-0.5 80.5,-0.5 119.5,-0.5C 119.5,5.16667 119.5,10.8333 119.5,16.5C 114.989,14.5025 112.656,16.0025 112.5,21C 112.31,24.7985 113.977,27.2985 117.5,28.5C 119.047,31.3079 118.547,33.6412 116,35.5C 114.739,35.2409 113.739,34.5742 113,33.5C 112.456,35.8453 113.456,37.1786 116,37.5C 117.599,36.9293 118.766,35.9293 119.5,34.5C 119.5,39.5 119.5,44.5 119.5,49.5C 83.5,49.5 47.5,49.5 11.5,49.5C 12.8333,46.5 12.8333,43.5 11.5,40.5C 11.1984,37.9407 11.5318,35.6074 12.5,33.5C 13.8503,34.4831 14.8503,35.8164 15.5,37.5C 16.4519,35.9547 16.7852,34.288 16.5,32.5C 13.2657,32.7634 11.9324,31.2634 12.5,28C 13.3879,23.4451 15.5546,19.6117 19,16.5C 19.4935,14.8659 19.6602,13.1992 19.5,11.5C 18.1779,11.33 17.0113,11.6634 16,12.5C 15.602,16.6277 14.102,20.2944 11.5,23.5C 11.0244,20.2605 11.0244,16.9271 11.5,13.5C 10.5,13.5 9.5,13.5 8.5,13.5C 8.34438,16.0661 8.67771,18.5661 9.5,21C 9.16389,22.0299 8.49722,22.5299 7.5,22.5C 5.65212,15.4711 4.31878,8.47106 3.5,1.5C 3.16667,0.833333 2.83333,0.166667 2.5,-0.5 Z"/></g>
<g><path style="opacity:1" fill="#bd463b" d="M -0.5,-0.5 C 0.5,-0.5 1.5,-0.5 2.5,-0.5C 2.83333,0.166667 3.16667,0.833333 3.5,1.5C 3.5,4.5 3.5,7.5 3.5,10.5C 1.80072,10.4729 0.46739,9.80624 -0.5,8.5C -0.5,5.5 -0.5,2.5 -0.5,-0.5 Z"/></g>
<g><path style="opacity:1" fill="#c57e77" d="M 3.5,1.5 C 4.31878,8.47106 5.65212,15.4711 7.5,22.5C 5.19393,18.9155 3.8606,14.9155 3.5,10.5C 3.5,7.5 3.5,4.5 3.5,1.5 Z"/></g>
<g><path style="opacity:1" fill="#b8544a" d="M 12.5,33.5 C 12.1667,32.8333 11.8333,32.1667 11.5,31.5C 11.6602,29.8008 11.4935,28.1341 11,26.5C 10.0228,25.2264 9.18944,25.2264 8.5,26.5C 7.83333,26.5 7.5,26.1667 7.5,25.5C 7.5,24.5 7.5,23.5 7.5,22.5C 8.49722,22.5299 9.16389,22.0299 9.5,21C 8.67771,18.5661 8.34438,16.0661 8.5,13.5C 9.5,13.5 10.5,13.5 11.5,13.5C 11.0244,16.9271 11.0244,20.2605 11.5,23.5C 14.102,20.2944 15.602,16.6277 16,12.5C 17.0113,11.6634 18.1779,11.33 19.5,11.5C 19.6602,13.1992 19.4935,14.8659 19,16.5C 15.5546,19.6117 13.3879,23.4451 12.5,28C 11.9324,31.2634 13.2657,32.7634 16.5,32.5C 16.7852,34.288 16.4519,35.9547 15.5,37.5C 14.8503,35.8164 13.8503,34.4831 12.5,33.5 Z"/></g>
<g><path style="opacity:1" fill="#2a2a2a" d="M 34.5,15.5 C 36.604,15.2011 38.604,15.5344 40.5,16.5C 38.9547,17.4519 37.288,17.7852 35.5,17.5C 35.5,19.8333 35.5,22.1667 35.5,24.5C 42.1667,25.1667 42.1667,25.8333 35.5,26.5C 35.5,29.1667 35.5,31.8333 35.5,34.5C 37.288,34.2148 38.9547,34.5481 40.5,35.5C 38.604,36.4656 36.604,36.7989 34.5,36.5C 34.5,29.5 34.5,22.5 34.5,15.5 Z"/></g>
<g><path style="opacity:1" fill="#f0f0f0" d="M 119.5,18.5 C 119.5,21.5 119.5,24.5 119.5,27.5C 116.688,25.961 114.688,23.7943 113.5,21C 113.585,19.8926 113.919,18.8926 114.5,18C 116.197,17.6155 117.863,17.7822 119.5,18.5 Z"/></g>
<g><path style="opacity:1" fill="#2d2c2d" d="M 46.5,36.5 C 46.5,30.1667 46.5,23.8333 46.5,17.5C 45.1667,17.5 43.8333,17.5 42.5,17.5C 43.3339,16.2521 44.6672,15.5854 46.5,15.5C 47.8333,15.8333 49.1667,16.1667 50.5,16.5C 49.675,17.3857 48.675,17.719 47.5,17.5C 47.8235,24.0221 47.4902,30.3554 46.5,36.5 Z"/></g>
<g><path style="opacity:1" fill="#2a2a2a" d="M 71.5,15.5 C 74.2469,15.1866 76.9135,15.52 79.5,16.5C 78.675,17.3857 77.675,17.719 76.5,17.5C 76.1667,42.8333 75.8333,42.8333 75.5,17.5C 73.5168,17.8432 72.1834,17.1765 71.5,15.5 Z"/></g>
<g><path style="opacity:1" fill="#fbf9f8" d="M -0.5,8.5 C 0.46739,9.80624 1.80072,10.4729 3.5,10.5C 3.8606,14.9155 5.19393,18.9155 7.5,22.5C 7.5,23.5 7.5,24.5 7.5,25.5C 6.54885,26.9187 6.21552,28.5853 6.5,30.5C 5.04765,31.7131 3.71431,31.3797 2.5,29.5C 1.26501,30.3398 0.265012,31.3398 -0.5,32.5C -0.5,24.5 -0.5,16.5 -0.5,8.5 Z"/></g>
<g><path style="opacity:1" fill="#373737" d="M 23.5,15.5 C 25.7749,20.2161 27.6082,25.2161 29,30.5C 29.3333,25.5 29.6667,20.5 30,15.5C 30.6667,22.5 30.6667,29.5 30,36.5C 27.7388,32.0501 26.0722,27.3835 25,22.5C 24.6667,27.1667 24.3333,31.8333 24,36.5C 23.5004,29.5079 23.3337,22.5079 23.5,15.5 Z"/></g>
<g><path style="opacity:1" fill="#b8b7b7" d="M 42.5,17.5 C 43.8333,17.5 45.1667,17.5 46.5,17.5C 46.5,23.8333 46.5,30.1667 46.5,36.5C 45.5104,30.69 45.1771,24.69 45.5,18.5C 44.209,18.7373 43.209,18.404 42.5,17.5 Z"/></g>
<g><path style="opacity:1" fill="#232223" d="M 94.5,34.5 C 95.9516,35.3019 97.6183,35.8019 99.5,36C 97.5273,36.4955 95.5273,36.6621 93.5,36.5C 93.5,29.5 93.5,22.5 93.5,15.5C 95.924,15.1924 98.2573,15.5258 100.5,16.5C 98.604,17.4656 96.604,17.7989 94.5,17.5C 94.5,19.8333 94.5,22.1667 94.5,24.5C 101.167,25.1667 101.167,25.8333 94.5,26.5C 94.5,29.1667 94.5,31.8333 94.5,34.5 Z"/></g>
<g><path style="opacity:1" fill="#686868" d="M 67.5,15.5 C 68.821,18.5982 69.4877,22.0982 69.5,26C 69.1667,29.5 68.8333,33 68.5,36.5C 67.503,29.5316 67.1697,22.5316 67.5,15.5 Z"/></g>
<g><path style="opacity:1" fill="#383737" d="M 89.5,15.5 C 89.8245,22.6866 89.4912,29.6866 88.5,36.5C 86.9053,31.5476 85.4053,26.5476 84,21.5C 83.6667,26.5 83.3333,31.5 83,36.5C 82.3333,29.5 82.3333,22.5 83,15.5C 84.9654,20.009 86.6321,24.6757 88,29.5C 88.1745,24.6486 88.6745,19.9819 89.5,15.5 Z"/></g>
<g><path style="opacity:1" fill="#a5a4a4" d="M 89.5,15.5 C 90.8194,22.6769 90.8194,30.0102 89.5,37.5C 88.8933,37.3764 88.56,37.0431 88.5,36.5C 89.4912,29.6866 89.8245,22.6866 89.5,15.5 Z"/></g>
<g><path style="opacity:1" fill="#272727" d="M 119.5,16.5 C 119.5,17.1667 119.5,17.8333 119.5,18.5C 117.863,17.7822 116.197,17.6155 114.5,18C 113.919,18.8926 113.585,19.8926 113.5,21C 114.688,23.7943 116.688,25.961 119.5,27.5C 119.5,29.8333 119.5,32.1667 119.5,34.5C 118.766,35.9293 117.599,36.9293 116,37.5C 113.456,37.1786 112.456,35.8453 113,33.5C 113.739,34.5742 114.739,35.2409 116,35.5C 118.547,33.6412 119.047,31.3079 117.5,28.5C 113.977,27.2985 112.31,24.7985 112.5,21C 112.656,16.0025 114.989,14.5025 119.5,16.5 Z"/></g>
<g><path style="opacity:1" fill="#fbeaea" d="M 11.5,31.5 C 10.8501,31.8039 10.1835,32.1373 9.5,32.5C 8.53443,30.604 8.2011,28.604 8.5,26.5C 9.18944,25.2264 10.0228,25.2264 11,26.5C 11.4935,28.1341 11.6602,29.8008 11.5,31.5 Z"/></g>
<g><path style="opacity:1" fill="#232323" d="M 104.5,15.5 C 106.665,15.1159 108.332,15.7826 109.5,17.5C 108.005,17.4779 106.338,17.8113 104.5,18.5C 104.013,19.4461 103.68,20.4461 103.5,21.5C 104.901,23.8092 106.735,25.8092 109,27.5C 109.667,30.1667 109.667,32.8333 109,35.5C 105.645,38.3824 103.645,37.7158 103,33.5C 106.225,36.313 108.058,35.4796 108.5,31C 108.333,30.1667 108.167,29.3333 108,28.5C 102.164,25.517 100.997,21.1836 104.5,15.5 Z"/></g>
<g><path style="opacity:1" fill="#545454" d="M 52.5,15.5 C 53.7251,16.1522 54.3917,17.3189 54.5,19C 55,22.5 55.5,26 56,29.5C 56.7971,24.8255 57.6304,20.1588 58.5,15.5C 59.8785,19.7644 61.0452,24.0978 62,28.5C 62.4807,24.4686 63.1473,20.4686 64,16.5C 64.7945,23.3635 63.9611,30.0301 61.5,36.5C 60.3422,31.8969 59.5089,27.2302 59,22.5C 58.4911,27.2302 57.6578,31.8969 56.5,36.5C 54.2736,29.707 52.9402,22.707 52.5,15.5 Z"/></g>
<g><path style="opacity:1" fill="#cb7c75" d="M 7.5,25.5 C 7.5,26.1667 7.83333,26.5 8.5,26.5C 8.2011,28.604 8.53443,30.604 9.5,32.5C 10.1835,32.1373 10.8501,31.8039 11.5,31.5C 11.8333,32.1667 12.1667,32.8333 12.5,33.5C 11.5318,35.6074 11.1984,37.9407 11.5,40.5C 10.8333,40.8333 10.1667,41.1667 9.5,41.5C 9.78964,38.2153 9.12297,35.2153 7.5,32.5C 7.67158,31.5084 7.33825,30.8417 6.5,30.5C 6.21552,28.5853 6.54885,26.9187 7.5,25.5 Z"/></g>
<g><path style="opacity:1" fill="#bc493e" d="M 6.5,30.5 C 7.33825,30.8417 7.67158,31.5084 7.5,32.5C 6.54163,32.9528 5.7083,33.6195 5,34.5C 4.74888,36.433 4.24888,38.2663 3.5,40C 1.80666,40.484 0.473322,39.984 -0.5,38.5C -0.5,36.5 -0.5,34.5 -0.5,32.5C 0.265012,31.3398 1.26501,30.3398 2.5,29.5C 3.71431,31.3797 5.04765,31.7131 6.5,30.5 Z"/></g>
<g><path style="opacity:1" fill="#909090" d="M 94.5,34.5 C 96.5,34.5 98.5,34.5 100.5,34.5C 100.5,35.5 100.5,36.5 100.5,37.5C 97.9407,37.8016 95.6074,37.4682 93.5,36.5C 95.5273,36.6621 97.5273,36.4955 99.5,36C 97.6183,35.8019 95.9516,35.3019 94.5,34.5 Z"/></g>
<g><path style="opacity:1" fill="#fcf4f3" d="M 7.5,32.5 C 9.12297,35.2153 9.78964,38.2153 9.5,41.5C 9.27863,44.2788 9.61197,46.9455 10.5,49.5C 6.83333,49.5 3.16667,49.5 -0.5,49.5C -0.5,45.8333 -0.5,42.1667 -0.5,38.5C 0.473322,39.984 1.80666,40.484 3.5,40C 4.24888,38.2663 4.74888,36.433 5,34.5C 5.7083,33.6195 6.54163,32.9528 7.5,32.5 Z"/></g>
<g><path style="opacity:1" fill="#b34338" d="M 11.5,40.5 C 12.8333,43.5 12.8333,46.5 11.5,49.5C 11.1667,49.5 10.8333,49.5 10.5,49.5C 9.61197,46.9455 9.27863,44.2788 9.5,41.5C 10.1667,41.1667 10.8333,40.8333 11.5,40.5 Z"/></g>
</svg>
