<svg xmlns="http://www.w3.org/2000/svg" width="120" height="50"><path fill="#F7F6F6" d="M0 0h120v50H0z"/><path fill="#FAFAFA" d="m23 16 1 21h4l4 1V28l2-1 1 10 7 1-1-2c-2.527-.656-2.527-.656-5-1v-8h5v-2h-5v-7q4.219-.04 8.438-.062l2.431-.026c2.044-.009 4.088.036 6.131.088 2.145 2.145 1.74 6.584 2.063 9.563l.275 2.443Q55.674 33.002 56 36c1.736-1.736 1.656-4.205 2.063-6.562l.535-3.067L59 24h1l1 14h2l.148-2.414C63.93 24.505 63.93 24.505 66 20l2-1v18h2V19l2-1 3 1v18h2V18l6-1 .375 2.375c.416 2.766.416 2.766 2.625 4.625a79 79 0 0 1 1.625 5.438c.39 1.452.39 1.452.79 2.933C89 35 89 35 89 38h2V28l2 1v9h8v-2l3.438.563L108 37c1.968-1.968 1.662-5.348 2-8h1v5h2v3c2.416.167 2.416.167 5 0l2-2v15H12v-8a57 57 0 0 0-.5-4l-.5-3 3-1 1 4h2v-5l-4-1c-.313-5.218.021-8.631 3-13 5-3 5-3 7-3"/><path fill="#A7746E" d="M0 0h4c1.22 2.44 1.213 4.277 1.375 7C5.829 12.63 7.163 17.675 9 23v-9h3l-1 10h2l3-12h4v6l-4 1-.437 1.875C15 23 15 23 14 25c-.04 2.333-.043 4.667 0 7l3 1v5h-2l-1-4-2 1 .254 2.773.309 3.602.316 3.586C13 48 13 48 12 50H0z"/><path fill="#F9EBE8" d="m0 8 1 3h3c4.777 13.449 4.777 13.449 3 21l-6-1v10l3-1c1.225-3.008 1.225-3.008 2-6h3c1.502 3.003 1.093 5.79 1.063 9.125l-.028 3.883L10 50H0z"/><path fill="#807F7F" d="M89 16h2l1 7 2-7h6v2h-5v7h5v2h-5v8h6v3h-8l-1-9-1 9h-2a357 357 0 0 1-1.562-4.75l-.88-2.672c-.575-2.656-.45-4.048.442-6.578l1 3z"/><path fill="#FDFAF9" d="M7 33c1.488 1.05 1.488 1.05 3 3 .293 3.355.293 3.355.188 7.188l-.083 3.855L10 50H0v-8h5l-.125-3.375C5 35 5 35 7 33"/><path fill="#5F5F5F" d="M53 16h2l1 8h1l2-8c2.566 3.85 2.551 6.435 3 11l2-11h2l-3 22h-2l-2-10-2 9-2-1c-.41-1.95-.41-1.95-.633-4.473l-.254-2.724-.238-2.866-.262-2.876Q53.293 19.53 53 16"/><path fill="#A3625C" d="M1 31c11.5 0 11.5 0 16 2v5h-2l-1-4-2 1 .254 2.773.309 3.602.316 3.586C13 48 13 48 12 50h-2l-.148-2.992-.227-3.883c-.07-1.276-.14-2.552-.21-3.867C9.327 35.919 9.327 35.919 7 34l-3 7H1z"/><path fill="#494949" d="M115 16c2.625.375 2.625.375 5 1q.08 4.406.125 8.813c.017.833.034 1.666.05 2.525l.02 2.432.032 2.237C120 35 120 35 118 38l-5-1 1-3h4c-.196-2.401-.196-2.401-1-5l-2.062-1.312C113 26 113 26 112.668 24.109c-.043-2.172-.043-2.172.332-6.109z"/><path fill="#5A5A5A" d="M38.063 15.938 41 16v2h-5v7h5v2h-5v8h5l1 3q-3.5.062-7 0c-1.59-1.59-1.13-3.239-1.133-5.437l-.004-2.711.012-2.852-.012-2.852.004-2.71.004-2.504c.218-3.262.857-2.928 4.191-2.997"/><path fill="#404040" d="M24 16c2 1 2 1 2.852 3.504L29 28l1-12h1v21c-3.35-3.35-3.895-5.494-5-10l-1 10h-1z"/><path fill="#F7F0EC" d="M7 33c1.488 1.113 1.488 1.113 3 3 .293 2.918.293 2.918.188 6.188l-.083 3.292L10 48l-2-4-4 2 .5-1.875c.554-2.354.496-4.208.375-6.625C5 35 5 35 7 33"/><path fill="#333" d="m105 16 5 1v1h-5c-.417 2.874-.417 2.874 0 6l2.5 1.313L110 27c.581 3.046.55 5.95 0 9l-2 2c-2.125-.375-2.125-.375-4-1v-3l4 2v-7l-1.937-.875C104 27 104 27 103 25c-.259-4.051-.304-5.543 2-9"/><path fill="#AA4B43" d="m1 31 5 1c0 3.38-.875 5.835-2 9H1z"/><path fill="#F1F1F1" d="m115 18 5 1v9l-6-4z"/><path fill="#B1706C" d="m17 11 3 1v6l-4 1-.437 1.875C15 23 15 23 14 25l-3-1h2l.621-2.59.816-3.347.81-3.34C16 12 16 12 17 11"/><path fill="#525252" d="M53 16h2l2 12h1c.125 3.375.125 3.375 0 7l-2 2c-1.573-1.573-1.33-3.292-1.535-5.473l-.264-2.724-.264-2.866-.275-2.876Q53.325 19.53 53 16"/><path fill="#F8E0DD" d="M12 34h2l1 4h2v2h-2l-.148 1.934-.227 2.504-.21 2.496L14 49l-2 1 .063-3.562c.01-2.913-.21-5.46-.626-8.376L11 35z"/><path fill="#B85249" d="M0 0h4v10H1C-.607 6.785-.057 3.564 0 0"/><path fill="#414041" d="M89 16h1v21c-2.737-2.737-3.162-5.26-4-9 .375-2.437.375-2.437 1-4l1 3z"/><path fill="#E9E8E8" d="M30 16v16c-1.518-3.035-2.512-5.345-3.312-8.562l-.614-2.317C26 19 26 19 27.394 17.223 29 16 29 16 30 16"/><path fill="#303030" d="M43 16h8v2h-3v19h-1V18h-4z"/><path fill="#292929" d="M73 16h7v2h-3v19h-1V18h-3z"/><path fill="#313031" d="m83 16 3 4c-.277 1.828-.277 1.828-1 4q-.328 3.371-.562 6.75l-.254 3.547L84 37h-1z"/><path fill="#373737" d="M115 16c2.625.375 2.625.375 5 1v2l-5-1c-.234 4.79-.234 4.79 2 9l-4-1c-.195-6.055-.195-6.055 0-8z"/><path fill="#D8D6D7" d="M84 22c2.762 2.762 2.579 5.207 3 9h-2v6h-1z"/><path fill="#F3F1F2" d="M88 17h1v13c-2.168-3.251-2.685-5.145-3-9 .938-2.375.938-2.375 2-4"/><path fill="#F7DDDA" d="m12 14 3 4c-.812 3.25-.812 3.25-2 6h-2z"/><path fill="#A15049" d="M10 42h3c.125 5.75.125 5.75-1 8h-2z"/><path fill="#F9DFDC" d="M7 33c1.5 1.375 1.5 1.375 3 3v2H7v2H5c-.125-2.375-.125-2.375 0-5z"/><path fill="#EBEBEB" d="M59 24h1l1 10-3 1c-.143-7.429-.143-7.429 1-11"/><path fill="#F6DCDA" d="m9 26 3 1v5l-3 1z"/><path fill="#F2D1CD" d="M12 34h2l.375 1.938L15 38l2 1h-6z"/><path fill="#FBEBE4" d="M4 0h3q.079 2.687.125 5.375l.07 3.023C7 11 7 11 5 13z"/></svg>