<svg width="72" height="24" viewBox="0 0 72 24" fill="none" xmlns="http://www.w3.org/2000/svg">
    <path fill-rule="evenodd" clip-rule="evenodd" d="M22.3481 3.90744L24.61 9.73259C24.6437 9.86155 24.7225 9.97667 24.8341 10.0601C24.9458 10.1436 25.0841 10.1908 25.2278 10.1944H25.2572C25.4003 10.194 25.5388 10.1478 25.6491 10.0635C25.7594 9.9793 25.8346 9.86233 25.8619 9.73259L27.7348 4.79178L29.5913 9.73259C29.619 9.86519 29.6965 9.98451 29.8101 10.0695C29.9237 10.1546 30.0661 10.1998 30.2123 10.1974H30.2287C30.37 10.1912 30.5054 10.1429 30.6144 10.0596C30.7234 9.97633 30.8003 9.86264 30.8334 9.73561L33.1214 3.90744C33.1614 3.81802 33.1857 3.72326 33.1933 3.62675C33.1916 3.56213 33.1761 3.49846 33.1478 3.43937C33.1194 3.38028 33.0787 3.32693 33.028 3.28236C32.9774 3.2378 32.9177 3.20289 32.8523 3.17964C32.787 3.15639 32.7174 3.14524 32.6474 3.14685C32.5225 3.14649 32.4013 3.18593 32.3043 3.25851C32.2072 3.33109 32.1402 3.43237 32.1147 3.54525L30.2123 8.58265L28.3394 3.56034C28.3078 3.44174 28.2339 3.33643 28.1295 3.26141C28.0251 3.18639 27.8964 3.14603 27.7642 3.14685H27.7053C27.5772 3.14891 27.4536 3.19086 27.3545 3.26591C27.2554 3.34097 27.1867 3.44471 27.1595 3.56034L25.2735 8.58265L23.4006 3.57242C23.3726 3.45333 23.3018 3.34648 23.1998 3.26922C23.0977 3.19197 22.9704 3.14884 22.8384 3.14685C22.6955 3.14352 22.5568 3.19179 22.4518 3.28141C22.3468 3.37102 22.2838 3.49491 22.2762 3.62675C22.2846 3.72313 22.3089 3.81778 22.3481 3.90744ZM41.0902 9.66619V3.65391H41.1065C41.1056 3.51857 41.1624 3.38832 41.2645 3.29122C41.3666 3.19412 41.5059 3.13794 41.6524 3.13478C41.7252 3.13556 41.7971 3.14964 41.8641 3.17619C41.931 3.20274 41.9915 3.24125 42.0423 3.2895C42.093 3.33775 42.1329 3.39478 42.1597 3.45732C42.1864 3.51986 42.1995 3.58667 42.1982 3.65391V4.83403C42.4182 4.36259 42.7741 3.95596 43.2271 3.65845C43.6801 3.36094 44.2129 3.18398 44.7674 3.14685C44.84 3.14677 44.9119 3.16033 44.9787 3.1867C45.0455 3.21307 45.1058 3.25171 45.156 3.30026C45.2061 3.34881 45.245 3.40627 45.2704 3.46914C45.2957 3.532 45.3069 3.59898 45.3034 3.66598C45.3075 3.79362 45.2593 3.91798 45.1684 4.01422C45.0775 4.11046 44.9506 4.17149 44.8131 4.18511C43.3815 4.3481 42.1982 5.34713 42.1982 7.33311V9.66619C42.2041 9.73668 42.1941 9.80753 42.169 9.87429C42.1438 9.94105 42.1039 10.0023 42.0519 10.0542C41.9999 10.106 41.9368 10.1474 41.8667 10.1757C41.7965 10.204 41.7208 10.2186 41.6442 10.2186C41.5677 10.2186 41.4919 10.204 41.4218 10.1757C41.3516 10.1474 41.2886 10.106 41.2365 10.0542C41.1845 10.0023 41.1447 9.94105 41.1195 9.87429C41.0943 9.80753 41.0843 9.73668 41.0902 9.66619ZM50.3769 9.99755C49.9027 10.1747 49.3939 10.2592 48.8825 10.2457L48.8956 10.2517C46.8821 10.2517 45.2478 8.81808 45.2478 6.70532V6.67816C45.2478 4.7133 46.7187 3.12874 48.7387 3.1227C50.9025 3.1227 52.1315 4.76763 52.1315 6.57856C52.1319 6.64079 52.1191 6.70249 52.0937 6.76013C52.0683 6.81777 52.0308 6.87023 51.9835 6.91452C51.9361 6.9588 51.8798 6.99403 51.8177 7.01821C51.7556 7.04239 51.689 7.05504 51.6216 7.05544H46.3363C46.4899 8.53134 47.6012 9.36135 48.9087 9.36135C49.2986 9.36386 49.6852 9.2953 50.0465 9.15961C50.4077 9.02391 50.7363 8.82375 51.0136 8.57058C51.0596 8.53273 51.1131 8.5036 51.1712 8.48486C51.2293 8.46612 51.2909 8.45813 51.3524 8.46135C51.4138 8.46458 51.474 8.47895 51.5294 8.50364C51.5849 8.52834 51.6345 8.56288 51.6755 8.60529C51.7165 8.6477 51.7481 8.69715 51.7683 8.75082C51.7886 8.80449 51.7973 8.86132 51.7938 8.91807C51.7903 8.97483 51.7747 9.03039 51.748 9.08159C51.7213 9.13279 51.6839 9.17863 51.6379 9.21648C51.2805 9.55446 50.8512 9.82041 50.3769 9.99755ZM48.7093 4.00402C47.4378 4.00402 46.4768 4.99098 46.3363 6.32201H51.043C50.9286 5.08454 50.1671 4.00402 48.7093 4.00402ZM35.9912 10.2729C34.6119 10.2729 33.2129 9.54245 33.2129 8.13294V8.11785V8.0937C33.2129 6.64496 34.5105 5.87532 36.3932 5.87532C37.1679 5.87106 37.9389 5.97277 38.6813 6.17714V5.93568C38.6813 4.70123 37.8576 4.06439 36.4651 4.06439C35.8701 4.03837 35.2767 4.14175 34.7328 4.36621C34.6697 4.3915 34.6021 4.40582 34.5334 4.40846C34.4059 4.40775 34.2836 4.36146 34.1922 4.27931C34.1008 4.19716 34.0473 4.08552 34.0431 3.9678C34.0372 3.87607 34.0637 3.78505 34.1185 3.70834C34.1733 3.63163 34.2535 3.57336 34.3471 3.54224C35.0485 3.25434 35.8128 3.12104 36.5796 3.15289C37.6288 3.15289 38.4361 3.4034 38.982 3.90744C39.2482 4.17713 39.4528 4.49358 39.5837 4.83791C39.7145 5.18223 39.7689 5.54737 39.7435 5.91153V9.7175C39.7467 9.78358 39.7351 9.84956 39.7097 9.91138C39.6842 9.97321 39.6454 10.0296 39.5955 10.0771C39.5456 10.1245 39.4858 10.1621 39.4196 10.1875C39.3535 10.2128 39.2824 10.2254 39.2108 10.2246C39.1413 10.227 39.0721 10.2164 39.0073 10.1933C38.9425 10.1702 38.8835 10.135 38.8339 10.0901C38.7843 10.0452 38.7452 9.99134 38.7189 9.93194C38.6927 9.87254 38.6799 9.80881 38.6813 9.74467V9.08971C38.3665 9.46966 37.9584 9.77508 37.4907 9.98079C37.023 10.1865 36.509 10.2866 35.9912 10.2729ZM36.2233 9.44285C37.5863 9.44285 38.7107 8.6732 38.7107 7.58664V6.92565C38.0008 6.73077 37.2645 6.63016 36.524 6.62685C35.1316 6.62685 34.3536 7.18824 34.3536 8.04843V8.07559C34.3536 8.9388 35.2165 9.44285 36.2233 9.44285ZM4.21633 3.2652C4.31799 3.35384 4.39944 3.46034 4.45589 3.57845L6.39089 7.78886L7.89771 4.51108C8.40761 3.43056 9.24437 3.00197 10.2969 3.00197C10.6825 3.01383 11.0608 3.10281 11.4056 3.26279C11.7504 3.42276 12.0535 3.64991 12.294 3.92857C12.294 3.92857 13.3334 3.00197 14.5199 3.00197C15.6377 3.00197 16.3012 3.34907 16.785 3.92857C17.4115 3.3484 18.2578 3.01609 19.1449 3.00197C19.4892 2.98897 19.8327 3.04028 20.1549 3.15283C20.4772 3.26538 20.7715 3.43686 21.0203 3.65697C21.269 3.87709 21.4671 4.14131 21.6026 4.43381C21.7381 4.72631 21.8082 5.04106 21.8088 5.3592V9.12593C21.8088 9.7507 21.4166 10.2638 20.6975 10.2638C19.9784 10.2638 19.6025 9.7507 19.6025 9.12593V5.8059C19.6119 5.66634 19.5893 5.52653 19.5361 5.39561C19.483 5.26468 19.4004 5.14561 19.294 5.04617C19.1875 4.94673 19.0595 4.86917 18.9184 4.81857C18.7772 4.76797 18.6261 4.74547 18.4749 4.75254C18.3212 4.74358 18.1672 4.76447 18.0228 4.81387C17.8784 4.86327 17.7468 4.94008 17.6365 5.03933C17.5263 5.13859 17.4398 5.2581 17.3826 5.39013C17.3255 5.52217 17.2989 5.6638 17.3047 5.8059V9.12593C17.3047 9.7507 16.9125 10.2638 16.1934 10.2638C15.4743 10.2638 15.0984 9.7507 15.0984 9.12593V5.8059C15.1078 5.66661 15.0852 5.52706 15.0322 5.39636C14.9793 5.26566 14.8971 5.14673 14.791 5.04734C14.6849 4.94795 14.5573 4.87033 14.4165 4.81953C14.2758 4.76874 14.125 4.74591 13.974 4.75254C13.8202 4.74361 13.666 4.76451 13.5215 4.81388C13.3769 4.86325 13.2451 4.94 13.1346 5.03921C13.0241 5.13842 12.9373 5.25788 12.8798 5.38992C12.8222 5.52196 12.7953 5.66366 12.8006 5.8059V9.12593C12.8006 9.7507 12.4149 10.2638 11.6925 10.2638C10.9702 10.2638 10.5976 9.7507 10.5976 9.12593V5.07549C10.5976 4.99544 10.5631 4.91867 10.5018 4.86207C10.4405 4.80547 10.3574 4.77367 10.2707 4.77367C10.2063 4.76838 10.1418 4.78261 10.087 4.8142C10.0321 4.84578 9.98991 4.89301 9.96673 4.94872L7.88791 9.13197C7.51529 9.83823 7.12633 10.2638 6.39089 10.2638C5.65546 10.2638 5.2665 9.87445 4.89388 9.13197L2.53396 4.39337C2.47093 4.27735 2.4343 4.15063 2.42632 4.02104C2.41834 3.89144 2.43918 3.76171 2.48756 3.63983C2.53595 3.51796 2.61085 3.40652 2.70765 3.31239C2.80444 3.21826 2.92109 3.14344 3.0504 3.09252C3.17698 3.03769 3.31415 3.00677 3.45385 3.00158C3.59355 2.9964 3.73297 3.01705 3.86391 3.06232C3.99485 3.10759 4.11467 3.17657 4.21633 3.2652ZM52.278 4.31489C52.2322 4.21146 52.2091 4.10067 52.2099 3.98893L52.2197 3.98289C52.2123 3.86706 52.2305 3.75104 52.2734 3.64195C52.3162 3.53287 52.3828 3.43303 52.469 3.34857C52.5551 3.26412 52.6591 3.19682 52.7745 3.15082C52.8898 3.10482 53.0142 3.0811 53.1398 3.0811C53.2655 3.0811 53.3898 3.10482 53.5052 3.15082C53.6206 3.19682 53.7245 3.26412 53.8107 3.34857C53.8969 3.43303 53.9635 3.53287 54.0063 3.64195C54.0492 3.75104 54.0674 3.86706 54.0599 3.98289C54.0599 4.09571 54.0358 4.20742 53.989 4.31162C53.9421 4.41581 53.8734 4.51044 53.7869 4.59008C53.7004 4.66971 53.5976 4.73279 53.4846 4.77569C53.3716 4.81859 53.2506 4.84046 53.1284 4.84007C53.0074 4.84047 52.8875 4.81871 52.7756 4.77604C52.6638 4.73337 52.5622 4.67064 52.4768 4.59149C52.3914 4.51233 52.3238 4.41832 52.278 4.31489ZM53.8384 4.25989C53.8727 4.17117 53.8869 4.07689 53.8802 3.98289L53.8704 3.99497C53.8721 3.90427 53.8542 3.81416 53.8176 3.72997C53.781 3.64578 53.7265 3.56921 53.6574 3.50478C53.5882 3.44036 53.5058 3.38938 53.4149 3.35486C53.3241 3.32034 53.2266 3.30298 53.1284 3.3038C52.9341 3.30614 52.7486 3.37844 52.6112 3.50529C52.4738 3.63214 52.3955 3.80352 52.393 3.98289C52.3862 4.07689 52.4004 4.17117 52.4347 4.25989C52.4691 4.34861 52.5227 4.42988 52.5924 4.49866C52.6622 4.56745 52.7464 4.62228 52.84 4.65977C52.9336 4.69725 53.0345 4.7166 53.1366 4.7166C53.2386 4.7166 53.3395 4.69725 53.4331 4.65977C53.5267 4.62228 53.611 4.56745 53.6807 4.49866C53.7504 4.42988 53.8041 4.34861 53.8384 4.25989ZM52.8041 4.36081C52.7857 4.34383 52.7754 4.3208 52.7754 4.29679V3.65089C52.7754 3.639 52.7779 3.62723 52.7829 3.61624C52.7878 3.60525 52.795 3.59527 52.8041 3.58686C52.8132 3.57846 52.824 3.57179 52.8359 3.56724C52.8478 3.56269 52.8606 3.56034 52.8734 3.56034H53.1807C53.2282 3.55706 53.276 3.56287 53.321 3.57742C53.366 3.59196 53.4072 3.61492 53.4422 3.64485C53.4941 3.69518 53.5223 3.76248 53.5206 3.83198C53.5237 3.88562 53.5083 3.93878 53.4766 3.98381C53.4449 4.02883 53.3985 4.06339 53.3441 4.0825L53.4781 4.23341C53.4967 4.25248 53.5072 4.27715 53.5076 4.30283C53.5076 4.31392 53.5052 4.32491 53.5006 4.33517C53.496 4.34542 53.4892 4.35474 53.4807 4.36258C53.4722 4.37043 53.4622 4.37666 53.4511 4.3809C53.44 4.38515 53.4281 4.38734 53.416 4.38734C53.3972 4.38641 53.3788 4.38192 53.3619 4.37413C53.345 4.36634 53.3301 4.35542 53.318 4.34206L53.1284 4.11871H52.9715V4.29679C52.972 4.30879 52.9697 4.32076 52.965 4.33193C52.9602 4.34311 52.953 4.35326 52.9438 4.36175C52.9346 4.37025 52.9236 4.3769 52.9115 4.3813C52.8994 4.3857 52.8864 4.38776 52.8734 4.38734C52.8474 4.38734 52.8225 4.3778 52.8041 4.36081ZM52.9715 3.72031V3.95573L53.1709 3.95271C53.2657 3.95271 53.318 3.90744 53.318 3.83802C53.318 3.75955 53.2624 3.72031 53.1676 3.72031H52.9715ZM2.52617 19.2404C2.87139 19.7774 3.3583 20.2249 3.94147 20.5412C4.51462 20.8605 5.17115 21.0295 5.84052 21.0302C6.35201 21.0302 6.85811 20.9336 7.32772 20.7465C7.79679 20.5593 8.22196 20.2897 8.57959 19.9527L7.81147 19.2766C7.55835 19.531 7.25276 19.7363 6.91261 19.8802C6.57735 20.0261 6.21115 20.1014 5.84052 20.1006C5.3608 20.1009 4.89068 19.9764 4.48405 19.7414C4.06599 19.5049 3.72053 19.1734 3.4806 18.7786C3.23857 18.3831 3.11137 17.9365 3.11137 17.4823C3.11137 17.028 3.23857 16.5814 3.4806 16.1859C3.72257 15.7941 4.06771 15.465 4.48405 15.2292C4.89068 14.9941 5.3608 14.8696 5.84052 14.87C6.21115 14.8692 6.57735 14.9444 6.91261 15.0903C7.25276 15.2343 7.55835 15.4395 7.81147 15.694L8.57959 15.0179C8.22673 14.6798 7.8045 14.4099 7.33753 14.2241C6.86469 14.0363 6.35525 13.9397 5.84052 13.9404C5.17177 13.9392 4.51528 14.1061 3.94147 14.4233C3.35927 14.7381 2.87248 15.1835 2.52617 15.7181C2.18182 16.2505 2 16.8591 2 17.4792C2 18.0994 2.18182 18.708 2.52617 19.2404ZM14.1354 16.9472C14.0299 16.6789 13.868 16.4325 13.659 16.2222C13.4359 16.0158 13.1686 15.8547 12.8743 15.7492C12.5799 15.6437 12.2649 15.5961 11.9495 15.6095C11.2106 15.629 10.4866 15.8067 9.83473 16.1286L10.2368 16.856C10.7142 16.6025 11.2493 16.4558 11.7991 16.4274C12.0023 16.4094 12.2071 16.4346 12.3981 16.5011C12.589 16.5675 12.7609 16.6734 12.9007 16.8107C13.126 17.0829 13.2416 17.4191 13.2275 17.7614V17.9214C12.687 17.7431 12.1181 17.6493 11.5442 17.6437C11.1559 17.6388 10.7711 17.7119 10.4165 17.858C10.0923 17.9867 9.81295 18.1956 9.6092 18.4617C9.40749 18.7262 9.30322 19.0437 9.31175 19.3671C9.30046 19.5963 9.34717 19.8247 9.44816 20.0343C9.54915 20.2438 9.70166 20.4288 9.89356 20.5744C10.3119 20.8828 10.8361 21.0424 11.371 21.0241C11.7323 21.0234 12.0892 20.9503 12.4169 20.8098C12.7398 20.6779 13.0194 20.4697 13.2275 20.2062V20.9064H14.2735V17.7856C14.2878 17.5004 14.2408 17.2155 14.1354 16.9472ZM13.0036 19.7086C12.8996 19.829 12.77 19.9285 12.6228 20.001C12.3073 20.1665 11.9495 20.2509 11.5867 20.2454C11.266 20.2584 10.9497 20.1724 10.6878 20.001C10.5738 19.9286 10.4812 19.831 10.4184 19.7172C10.3556 19.6033 10.3246 19.4768 10.3283 19.349C10.3281 19.2145 10.3645 19.0821 10.4342 18.964C10.5039 18.8458 10.6046 18.7458 10.7271 18.6729C11.0127 18.4856 11.3576 18.3911 11.7076 18.4043C12.2221 18.401 12.7343 18.4681 13.2275 18.6035V19.3007C13.1838 19.4494 13.1076 19.5882 13.0036 19.7086ZM19.0423 15.6366C18.5975 15.627 18.1585 15.7315 17.7741 15.9384C17.4268 16.1321 17.151 16.4183 16.9831 16.7594V15.7543H15.9012V20.9064H16.9701V18.178C16.9642 17.8704 17.0538 17.5677 17.2283 17.3057C17.4036 17.0419 17.6595 16.8319 17.9637 16.7021C18.3009 16.556 18.67 16.4837 19.0423 16.4908V15.6366ZM25.5893 16.9345C25.3835 16.5441 25.0658 16.2132 24.6708 15.9777C24.2844 15.75 23.8349 15.6304 23.3765 15.6336C22.9699 15.6281 22.5688 15.7207 22.2129 15.9022C21.8586 16.0871 21.5641 16.3559 21.3598 16.6809V13.9404H20.2909V20.9064H21.3598V20.001C21.5668 20.3177 21.8612 20.5781 22.2129 20.7555C22.565 20.935 22.9612 21.0275 23.3634 21.0241C23.8262 21.0296 24.2807 20.91 24.6708 20.6801C25.0675 20.4437 25.3855 20.1104 25.5893 19.7172C25.8151 19.2825 25.9271 18.8049 25.9162 18.3228C25.9272 17.8427 25.8152 17.367 25.5893 16.9345ZM24.6349 19.2766C24.5007 19.5448 24.2864 19.772 24.0171 19.9315H24.004C23.7347 20.0897 23.4211 20.1715 23.1019 20.167C22.7869 20.1711 22.4776 20.0892 22.2129 19.9315C21.9508 19.7694 21.7436 19.5424 21.6147 19.2766C21.4645 18.9781 21.3897 18.652 21.3957 18.3228C21.3893 17.9966 21.4642 17.6734 21.6147 17.3781C21.7491 17.1109 21.9634 16.8847 22.2325 16.7262C22.4972 16.5685 22.8065 16.4866 23.1215 16.4908C23.4385 16.4874 23.7496 16.5692 24.0171 16.7262C24.2861 16.8847 24.5005 17.1109 24.6349 17.3781C24.7865 17.6731 24.8625 17.9964 24.8571 18.3228C24.8621 18.6522 24.7861 18.9783 24.6349 19.2766ZM27.2171 19.675C27.4764 20.083 27.8457 20.422 28.2892 20.6589H28.2597C28.7056 20.9009 29.2134 21.0286 29.7306 21.0286C30.2478 21.0286 30.7556 20.9009 31.2015 20.6589C31.6449 20.422 32.0143 20.083 32.2736 19.675C32.5368 19.266 32.6747 18.7986 32.6723 18.3228C32.6784 17.852 32.545 17.3886 32.2866 16.9827C32.0309 16.5781 31.6675 16.2405 31.2309 16.0018C30.785 15.7598 30.2772 15.6322 29.76 15.6322C29.2428 15.6322 28.735 15.7598 28.2892 16.0018C27.8466 16.2385 27.4774 16.5763 27.2171 16.9827C26.9541 17.3874 26.8162 17.8509 26.8183 18.3228C26.8159 18.7986 26.9538 19.266 27.2171 19.675ZM31.3649 19.2464C31.2034 19.5193 30.9695 19.7499 30.685 19.9165C30.406 20.0799 30.0823 20.1667 29.7519 20.1667C29.4214 20.1667 29.0977 20.0799 28.8187 19.9165C28.5342 19.7499 28.3003 19.5193 28.1388 19.2464C27.9737 18.963 27.8873 18.6462 27.8873 18.3243C27.8873 18.0025 27.9737 17.6857 28.1388 17.4023C28.2998 17.1298 28.5339 16.9001 28.8187 16.7353C29.0992 16.5755 29.4223 16.491 29.7519 16.491C30.0814 16.491 30.4045 16.5755 30.685 16.7353C30.9698 16.9001 31.2039 17.1298 31.3649 17.4023C31.53 17.6857 31.6164 18.0025 31.6164 18.3243C31.6164 18.6462 31.53 18.963 31.3649 19.2464ZM38.6408 16.5874C38.4736 16.2918 38.2169 16.0475 37.9021 15.8841L37.9053 15.8781C37.5783 15.7156 37.2128 15.6306 36.8414 15.6306C36.4701 15.6306 36.1045 15.7156 35.7775 15.8781C35.4761 16.0235 35.2238 16.2428 35.0486 16.5119V15.7543H33.9798V20.9064H35.0519V17.7011C35.053 17.4857 35.1235 17.2756 35.2545 17.0974C35.3974 16.908 35.5911 16.7562 35.8167 16.6568C36.058 16.545 36.3247 16.4881 36.5946 16.4908C36.7673 16.4858 36.9391 16.516 37.0978 16.5791C37.2565 16.6422 37.3983 16.7367 37.5131 16.856C37.7579 17.1151 37.8854 17.4511 37.8694 17.7946V20.9064H38.9055V17.6256C38.913 17.2645 38.822 16.9074 38.6408 16.5874ZM47.2371 14.0611H43.7201V20.9064H47.381C47.7806 20.909 48.1754 20.8264 48.5348 20.665C48.8659 20.5179 49.1457 20.2878 49.3421 20.001C49.5352 19.7174 49.6351 19.3882 49.6298 19.0532C49.6326 18.69 49.5088 18.3355 49.2767 18.0421C49.0214 17.7213 48.6847 17.4632 48.2962 17.2906C48.6071 17.1392 48.8748 16.922 49.0774 16.6568C49.2605 16.3946 49.3528 16.0872 49.3421 15.7755C49.3492 15.4604 49.2548 15.1505 49.0708 14.8851C48.8875 14.6242 48.6296 14.4153 48.3256 14.2814C47.9868 14.1295 47.6137 14.054 47.2371 14.0611ZM47.8713 16.6357C47.6122 16.8264 47.2871 16.924 46.9561 16.9103H44.8086V14.9485H46.9561C47.2874 14.9359 47.6125 15.0345 47.8713 15.2261C47.9849 15.3111 48.0761 15.4188 48.1378 15.5412C48.1996 15.6636 48.2302 15.7974 48.2275 15.9324C48.2312 16.0671 48.201 16.2008 48.1391 16.3228C48.0773 16.4448 47.9856 16.5519 47.8713 16.6357ZM48.136 19.7142C47.8525 19.9265 47.4938 20.034 47.1293 20.0161L44.8086 20.0402V17.7916H47.1293C47.4938 17.7737 47.8525 17.8812 48.136 18.0934C48.264 18.1918 48.3661 18.3157 48.4347 18.4558C48.5032 18.596 48.5363 18.7486 48.5315 18.9023C48.537 19.0566 48.5043 19.2099 48.4357 19.3506C48.3672 19.4914 48.2647 19.6157 48.136 19.7142ZM52.2087 13.9404H51.1398V20.9064H52.2087V13.9404ZM58.2613 16.9472C58.1558 16.6789 57.9939 16.4325 57.7849 16.2222C57.5618 16.0158 57.2945 15.8547 57.0002 15.7492C56.7058 15.6437 56.3908 15.5961 56.0754 15.6095C55.3375 15.6287 54.6145 15.8065 53.9639 16.1286L54.3627 16.856C54.8401 16.6025 55.3752 16.4558 55.9251 16.4274C56.1282 16.4092 56.3331 16.4343 56.5241 16.5008C56.7151 16.5672 56.887 16.6732 57.0266 16.8107C57.252 17.0829 57.3675 17.4191 57.3534 17.7614V17.9214C56.8129 17.7431 56.244 17.6493 55.6701 17.6437C55.2818 17.6388 54.897 17.7119 54.5424 17.858C54.2182 17.9867 53.9389 18.1956 53.7351 18.4617C53.5334 18.7262 53.4291 19.0437 53.4377 19.3671C53.4271 19.5962 53.4742 19.8244 53.5751 20.0338C53.6761 20.2433 53.8281 20.4283 54.0195 20.5744C54.4378 20.8828 54.962 21.0424 55.4969 21.0241C55.8592 21.0231 56.2171 20.95 56.5461 20.8098C56.8675 20.6769 57.1458 20.4689 57.3534 20.2062V20.9064H58.3994V17.7856C58.4137 17.5004 58.3667 17.2155 58.2613 16.9472ZM57.1295 19.7086C57.0255 19.829 56.8959 19.9285 56.7487 20.001C56.4332 20.1665 56.0754 20.2509 55.7126 20.2454C55.3919 20.2584 55.0756 20.1724 54.8137 20.001C54.6997 19.9286 54.6071 19.831 54.5443 19.7172C54.4815 19.6033 54.4505 19.4768 54.4542 19.349C54.454 19.2145 54.4904 19.0821 54.5601 18.964C54.6298 18.8458 54.7305 18.7458 54.8529 18.6729C55.1386 18.4856 55.4835 18.3911 55.8335 18.4043C56.348 18.401 56.8602 18.4681 57.3534 18.6035V19.3007C57.3097 19.4494 57.2335 19.5882 57.1295 19.7086ZM59.9683 19.6629C60.2324 20.0719 60.6032 20.4132 61.0469 20.6559C61.4904 20.8934 61.9953 21.0154 62.508 21.009C62.9008 21.0104 63.2894 20.9353 63.6487 20.7887C64.0044 20.6436 64.328 20.4389 64.6031 20.1851L63.8775 19.5814C63.7029 19.7609 63.4904 19.9057 63.2532 20.007C62.9887 20.1228 62.6967 20.1746 62.4046 20.1577C62.1125 20.1408 61.8298 20.0557 61.583 19.9104C61.2958 19.745 61.0595 19.5143 60.8966 19.2404C60.727 18.9579 60.6391 18.6398 60.6416 18.3168C60.6415 17.9998 60.7293 17.6881 60.8966 17.4113C61.0595 17.1374 61.2958 16.9067 61.583 16.7413C61.8269 16.5965 62.1066 16.5114 62.396 16.494C62.6853 16.4766 62.9747 16.5274 63.2369 16.6417C63.4678 16.7388 63.6756 16.8773 63.8481 17.0491L64.5705 16.4304C64.2969 16.1837 63.9767 15.9853 63.6258 15.8449C63.2733 15.703 62.8925 15.6311 62.508 15.6336C61.9956 15.6328 61.4927 15.7611 61.0535 16.0048C60.6076 16.243 60.2343 16.5815 59.9683 16.9888C59.7031 17.3918 59.5628 17.8543 59.5628 18.3259C59.5628 18.7974 59.7031 19.2599 59.9683 19.6629ZM66.78 13.9404H65.7112L65.7145 20.9064H66.7833V19.5784L67.6789 18.7424L69.4276 20.9034H70.6991L68.411 18.0844L70.8167 15.7543H69.5093L66.78 18.3923V13.9404Z" fill="#E3E3E3"/>
</svg>
