<svg width="73" height="24" viewBox="0 0 73 24" fill="none" xmlns="http://www.w3.org/2000/svg">
<g clip-path="url(#clip0_4092_1763)">
<path d="M13.0146 15.1143H16.6813V15.8538H13.869V16.8864H15.546V17.6326H13.869V18.8838H16.9364V19.6431H13.0146V15.1143Z" fill="#8FE5F2"/>
<path d="M18.3017 19.6416H17.4917V16.4151H18.3017V16.9569C18.4071 16.7694 18.5609 16.6136 18.7471 16.5059C18.9333 16.3982 19.145 16.3425 19.3601 16.3446C19.605 16.3355 19.8471 16.3991 20.0559 16.5274C20.2647 16.6557 20.4308 16.843 20.5333 17.0656C20.6413 16.8445 20.8105 16.659 21.0208 16.5312C21.231 16.4034 21.4736 16.3386 21.7196 16.3446C21.9033 16.34 22.0859 16.374 22.2556 16.4445C22.4253 16.5151 22.5782 16.6205 22.7045 16.754C22.8308 16.8875 22.9276 17.0461 22.9886 17.2194C23.0496 17.3928 23.0735 17.577 23.0586 17.7602V19.641H22.2423V17.9199C22.2552 17.8125 22.245 17.7035 22.2123 17.6004C22.1796 17.4972 22.1251 17.4023 22.0526 17.3219C21.9801 17.2416 21.8913 17.1777 21.792 17.1346C21.6928 17.0915 21.5854 17.0701 21.4772 17.072C21.3674 17.0692 21.2582 17.0897 21.1569 17.132C21.0555 17.1743 20.9642 17.2376 20.8889 17.3176C20.8137 17.3976 20.7562 17.4927 20.7202 17.5965C20.6842 17.7003 20.6705 17.8105 20.68 17.9199V19.6416H19.8639V17.9199C19.8769 17.8125 19.8667 17.7035 19.8339 17.6003C19.8012 17.4971 19.7467 17.4022 19.6742 17.3218C19.6017 17.2414 19.5128 17.1776 19.4135 17.1345C19.3142 17.0914 19.2068 17.0701 19.0986 17.072C18.9888 17.0693 18.8797 17.0897 18.7783 17.1321C18.677 17.1744 18.5857 17.2377 18.5105 17.3177C18.4353 17.3978 18.3778 17.4928 18.3418 17.5965C18.3058 17.7003 18.2922 17.8105 18.3017 17.9199V19.6416Z" fill="#8FE5F2"/>
<path d="M25.1631 19.7122C24.3339 19.7122 23.6445 19.0878 23.6445 18.0288C23.6445 16.9831 24.333 16.3453 25.1685 16.3453C25.3812 16.3345 25.5929 16.3801 25.7821 16.4776C25.9714 16.5752 26.1315 16.721 26.2461 16.9005V16.4146H27.0624V19.6423H26.2546V19.1321C26.1434 19.3196 25.9827 19.473 25.7902 19.5753C25.5977 19.6776 25.3807 19.725 25.1631 19.7122ZM25.3799 17.0596C25.1843 17.0409 24.9875 17.0818 24.8155 17.1769C24.6436 17.2721 24.5044 17.4171 24.4164 17.5928C24.3284 17.7685 24.2956 17.9668 24.3224 18.1615C24.3491 18.3562 24.4342 18.5383 24.5664 18.6837C24.6986 18.8292 24.8717 18.9312 25.063 18.9764C25.2543 19.0216 25.4547 19.0079 25.6381 18.937C25.8214 18.8662 25.979 18.7415 26.0901 18.5794C26.2012 18.4172 26.2607 18.2253 26.2606 18.0288C26.2698 17.9066 26.254 17.784 26.2142 17.6682C26.1744 17.5524 26.1114 17.4459 26.0291 17.3552C25.9468 17.2645 25.8469 17.1916 25.7355 17.1408C25.6241 17.0899 25.5035 17.0623 25.3811 17.0596H25.3799Z" fill="#8FE5F2"/>
<path d="M27.8813 14.9297H28.7293V15.8991H27.8813V14.9297ZM27.9005 16.4154H28.7162V19.642H27.9005V16.4154Z" fill="#8FE5F2"/>
<path d="M29.5649 14.9492H30.381V19.6424H29.5649V14.9492Z" fill="#8FE5F2"/>
<path d="M33.4044 16.301C33.4044 16.6071 33.6723 16.7869 34.1442 16.8431C34.4248 16.8686 34.635 16.8941 34.9411 16.926C35.8468 17.0153 36.5417 17.3594 36.5417 18.3161C36.5417 19.1321 35.8978 19.7253 34.6159 19.7253C33.1365 19.7253 32.5692 18.979 32.3906 18.3282H33.3017C33.4232 18.6149 33.7877 18.9964 34.6153 18.9964C35.3041 18.9964 35.6676 18.7349 35.6676 18.3716C35.6676 17.9379 35.3487 17.7976 34.8831 17.7402L34.0798 17.6576C33.1742 17.568 32.5367 17.1413 32.5367 16.3247C32.5367 15.515 33.2699 15.0303 34.3477 15.0303C35.7696 15.0303 36.2914 15.7124 36.4326 16.2864H35.5598C35.4322 16.0568 35.0878 15.757 34.3483 15.757C33.7297 15.7589 33.4044 15.969 33.4044 16.301Z" fill="#8FE5F2"/>
<path d="M40.4002 18.0733V18.1626H37.8369C37.8449 18.404 37.9478 18.6325 38.1233 18.7985C38.2988 18.9644 38.5327 19.0544 38.7742 19.0488C38.924 19.0627 39.0749 19.0377 39.2123 18.9763C39.3497 18.9149 39.469 18.8192 39.5586 18.6983H40.3619C40.3109 19.0297 39.8708 19.7249 38.7742 19.7249C38.5452 19.7384 38.3159 19.7042 38.1009 19.6244C37.8858 19.5447 37.6896 19.4212 37.5248 19.2617C37.36 19.1022 37.23 18.9103 37.1432 18.698C37.0564 18.4857 37.0147 18.2577 37.0206 18.0284C37.0205 17.8045 37.065 17.5828 37.1513 17.3763C37.2376 17.1697 37.3641 16.9824 37.5234 16.8251C37.6828 16.6679 37.8718 16.5438 38.0794 16.4602C38.2871 16.3766 38.5093 16.3351 38.7332 16.338C38.957 16.341 39.178 16.3884 39.3834 16.4775C39.5888 16.5667 39.7744 16.6957 39.9295 16.8571C40.0846 17.0186 40.2061 17.2092 40.2869 17.418C40.3677 17.6268 40.4062 17.8495 40.4002 18.0733ZM37.8624 17.6014H39.5459C39.4943 17.4178 39.3841 17.2562 39.2322 17.1411C39.0802 17.026 38.8948 16.9637 38.7042 16.9637C38.5135 16.9637 38.3281 17.026 38.1762 17.1411C38.0242 17.2562 37.914 17.4178 37.8624 17.6014Z" fill="#8FE5F2"/>
<path d="M42.448 17.0527C42.3279 17.0591 42.2102 17.0896 42.1022 17.1426C41.9941 17.1956 41.8979 17.2698 41.8193 17.3609C41.7406 17.452 41.6812 17.558 41.6446 17.6726C41.608 17.7873 41.5949 17.9081 41.6062 18.0279C41.595 18.1482 41.6083 18.2696 41.6453 18.3846C41.6823 18.4996 41.7422 18.606 41.8215 18.6972C41.9007 18.7884 41.9976 18.8626 42.1064 18.9153C42.2151 18.968 42.3334 18.998 42.4541 19.0037C42.6102 19.0143 42.7659 18.9797 42.9028 18.9039C43.0396 18.8282 43.1517 18.7146 43.2255 18.5767H44.0231C43.9848 18.9144 43.5961 19.7244 42.4417 19.7244C41.9973 19.7169 41.5737 19.5353 41.2618 19.2187C40.9499 18.9021 40.7748 18.4758 40.7739 18.0314C40.7731 17.5869 40.9467 17.16 41.2573 16.8422C41.568 16.5244 41.991 16.3412 42.4353 16.332C43.583 16.332 43.972 17.1217 44.0231 17.48H43.2131C43.1393 17.3436 43.0281 17.2309 42.8926 17.1552C42.7572 17.0796 42.603 17.044 42.448 17.0527Z" fill="#8FE5F2"/>
<path d="M44.5654 18.2197V16.415H45.3818V18.1301C45.3733 18.2365 45.387 18.3436 45.4219 18.4445C45.4569 18.5454 45.5123 18.638 45.5848 18.7164C45.6572 18.7949 45.7451 18.8575 45.843 18.9003C45.9408 18.9431 46.0464 18.9652 46.1532 18.9652C46.26 18.9652 46.3656 18.9431 46.4634 18.9003C46.5613 18.8575 46.6492 18.7949 46.7216 18.7164C46.7941 18.638 46.8495 18.5454 46.8845 18.4445C46.9194 18.3436 46.9331 18.2365 46.9246 18.1301V16.415H47.7473V18.2197C47.7473 19.0931 47.1673 19.7115 46.166 19.7115C45.1467 19.7115 44.5654 19.0931 44.5654 18.2197Z" fill="#8FE5F2"/>
<path d="M49.3486 19.6415H48.5386V16.4149H49.3486V16.9568C49.4315 16.7721 49.6802 16.3955 50.3945 16.3955H51.1468V17.2055H50.2861C49.5976 17.2055 49.3486 17.4351 49.3486 17.9453V19.6415Z" fill="#8FE5F2"/>
<path d="M51.6382 14.9297H52.4861V15.8991H51.6382V14.9297ZM51.6573 16.4154H52.4734V19.642H51.6573V16.4154Z" fill="#8FE5F2"/>
<path d="M55.8534 19.6416H54.9608C54.2016 19.6416 53.845 19.2771 53.845 18.5893V17.1099H52.9585V16.415H53.845V15.1143H54.6611V16.415H55.8534V17.1099H54.6611V18.3408C54.6611 18.7423 54.795 18.9145 55.2348 18.9145H55.8534V19.6416Z" fill="#8FE5F2"/>
<path d="M57.6711 21.0001H56.8547L57.467 19.5839L56.0132 16.415H56.9304L57.8807 18.6087L58.831 16.415H59.6595L57.6711 21.0001Z" fill="#8FE5F2"/>
<path d="M18.6726 9.01008H15.0442L14.3855 10.4897H13.0176L16.2505 3.26367H17.5376L20.7809 10.4897H19.3319L18.6726 9.01008ZM18.1563 7.83444L16.8585 4.92585L15.5614 7.83444H18.1563Z" fill="white"/>
<path d="M23.8018 10.5807C22.4655 10.5807 21.3594 9.57845 21.3594 7.91505C21.3594 6.24285 22.4643 5.24943 23.8018 5.24943C24.1464 5.23259 24.4894 5.30603 24.7969 5.46247C25.1044 5.61892 25.3658 5.85295 25.5551 6.14142V5.36089H26.8525V10.3778C26.8525 11.7867 25.9505 12.7698 24.0958 12.7698C22.1195 12.7698 21.4809 11.5434 21.4001 11.1683H22.8882C22.959 11.2695 23.2633 11.6953 24.0942 11.6953C25.0266 11.6953 25.5639 11.2093 25.5639 10.359V9.6483C25.38 9.94669 25.1196 10.1905 24.8098 10.3544C24.5 10.5183 24.1519 10.5965 23.8018 10.5807ZM24.1358 6.38468C23.9368 6.37999 23.739 6.41693 23.5551 6.49314C23.3712 6.56934 23.2052 6.68312 23.0678 6.8272C22.9304 6.97128 22.8247 7.14247 22.7573 7.3298C22.6899 7.51713 22.6624 7.71648 22.6765 7.91505C22.6659 8.11198 22.6954 8.30901 22.7635 8.49413C22.8315 8.67924 22.9365 8.84856 23.0721 8.99173C23.2078 9.13491 23.3711 9.24894 23.5523 9.32687C23.7335 9.4048 23.9286 9.44499 24.1258 9.44499C24.323 9.44499 24.5182 9.4048 24.6994 9.32687C24.8805 9.24894 25.0439 9.13491 25.1795 8.99173C25.3152 8.84856 25.4202 8.67924 25.4882 8.49413C25.5562 8.30901 25.5858 8.11198 25.5751 7.91505C25.5754 7.04342 25.0075 6.38468 24.1358 6.38468Z" fill="white"/>
<path d="M30.5222 10.6009C29.2044 10.6009 28.1099 9.60782 28.1099 7.92559C28.1099 6.26311 29.2032 5.24965 30.5322 5.24965C30.8701 5.23211 31.2065 5.30436 31.5074 5.45907C31.8083 5.61377 32.0628 5.8454 32.2451 6.13039V5.36111H33.5422V10.4895H32.2551V9.67858C32.0785 9.97633 31.8235 10.2198 31.5179 10.3825C31.2123 10.5452 30.8678 10.6207 30.5222 10.6009ZM30.8669 6.3849C29.995 6.3849 29.4276 7.05305 29.4276 7.92559C29.4276 8.79814 29.995 9.46599 30.8669 9.46599C31.7079 9.46599 32.2639 8.79783 32.2639 7.92559C32.2639 7.05335 31.7079 6.3849 30.8669 6.3849Z" fill="white"/>
<path d="M36.4219 10.4895H35.1348V5.36112H36.4219V6.22273C36.5537 5.92905 36.9488 5.33105 38.084 5.33105H39.28V6.61785H37.9118C36.8185 6.61785 36.4219 6.9823 36.4219 7.7935V10.4895Z" fill="white"/>
<path d="M40.3345 3H41.6823V4.54039H40.3345V3ZM40.3648 5.36131H41.662V10.4897H40.3648V5.36131Z" fill="white"/>
<path d="M42.2692 4.30309C42.2669 4.1691 42.2913 4.036 42.3409 3.91153C42.3906 3.78707 42.4645 3.67375 42.5585 3.57818C42.6524 3.4826 42.7644 3.40669 42.888 3.35487C43.0116 3.30305 43.1443 3.27637 43.2783 3.27637C43.4123 3.27637 43.5449 3.30305 43.6685 3.35487C43.7921 3.40669 43.9041 3.4826 43.998 3.57818C44.092 3.67375 44.1659 3.78707 44.2156 3.91153C44.2653 4.036 44.2896 4.1691 44.2873 4.30309C44.2827 4.56767 44.1744 4.81987 43.9857 5.00536C43.7969 5.19085 43.5429 5.29479 43.2783 5.29479C43.0136 5.29479 42.7596 5.19085 42.5709 5.00536C42.3821 4.81987 42.2738 4.56767 42.2692 4.30309ZM44.1391 4.30309C44.1391 4.07481 44.0484 3.85589 43.887 3.69448C43.7256 3.53307 43.5067 3.44239 43.2784 3.44239C43.0501 3.44239 42.8312 3.53307 42.6698 3.69448C42.5084 3.85589 42.4177 4.07481 42.4177 4.30309C42.4177 4.53136 42.5084 4.75028 42.6698 4.91169C42.8312 5.07311 43.0501 5.16379 43.2784 5.16379C43.5067 5.16379 43.7256 5.07311 43.887 4.91169C44.0484 4.75028 44.1391 4.53136 44.1391 4.30309ZM42.8967 3.79833H43.3801C43.6176 3.79833 43.7321 3.91282 43.7321 4.0996C43.7377 4.16661 43.7175 4.23321 43.6758 4.28593C43.6341 4.33865 43.5739 4.37355 43.5074 4.38357L43.7406 4.79478H43.5836L43.3461 4.39663H43.0409V4.79478H42.8967V3.79833ZM43.0409 3.93834V4.26057H43.3801C43.5202 4.26057 43.5836 4.2056 43.5836 4.0996C43.5836 3.99361 43.5202 3.93834 43.3801 3.93834H43.0409Z" fill="white"/>
</g>
<defs>
<clipPath id="clip0_4092_1763">
<rect width="46.6458" height="18" fill="white" transform="translate(13.0151 3)"/>
</clipPath>
</defs>
</svg>
