<svg width="72" height="24" viewBox="0 0 72 24" fill="none" xmlns="http://www.w3.org/2000/svg">
    <path d="M39.6669 7.20366H37.6029L33.4771 17.9017H37.1409L37.9245 15.3886C37.6202 15.2317 37.3775 14.9771 37.2352 14.6656C37.0929 14.3541 37.0595 14.0037 37.1401 13.6709C37.2208 13.338 37.4109 13.042 37.68 12.8302C37.949 12.6185 38.2814 12.5034 38.6237 12.5034C38.966 12.5034 39.2984 12.6185 39.5675 12.8302C39.8366 13.042 40.0267 13.338 40.1073 13.6709C40.188 14.0037 40.1545 14.3541 40.0123 14.6656C39.87 14.9771 39.6272 15.2317 39.3229 15.3886L40.1127 17.9017H43.7765L39.6669 7.20366Z" fill="white"/>
    <path d="M46.3594 7.08961H50.0822C50.9337 7.07322 51.783 7.17953 52.6042 7.40528C55.9078 8.38283 55.9078 13.7594 52.2439 14.6717L54.9429 17.8284H52.7161L50.1453 14.8978H48.3948V17.8284H46.3594V7.08961ZM48.3948 12.8857H50.6705C51.3198 12.8857 52.9726 12.902 52.9726 10.9632C52.9726 9.10377 51.1407 9.07322 50.5932 9.07322H48.3948V12.8857Z" fill="white"/>
    <path d="M60.1618 7.12627H58.1406V17.8284H60.1618V7.12627Z" fill="white"/>
    <path d="M15.1681 9.95912L16.8941 14.5251H13.5112L15.1681 9.95912ZM14.1361 7.08757L10 17.8284H12.2634L12.7601 16.4435H17.574L18.1113 17.8284H20.3015L16.2 7.08757H14.1361Z" fill="white"/>
    <path d="M32.2964 11.8735H27.1121V13.7288H30.1144C30.0922 14.1069 29.9774 14.4738 29.7801 14.797C29.5827 15.1202 29.3088 15.3898 28.9826 15.5821C28.4578 15.8817 27.8606 16.0311 27.2566 16.0138C26.768 16.0264 26.2819 15.9403 25.8273 15.7608C25.3726 15.5813 24.9588 15.3121 24.6105 14.9691C24.2653 14.6424 23.9922 14.2473 23.8085 13.8089C23.6248 13.3705 23.5347 12.8986 23.5439 12.4234C23.5349 11.9647 23.6207 11.509 23.7958 11.085C23.9709 10.661 24.2316 10.2777 24.5616 9.95913C24.8987 9.62494 25.2998 9.36245 25.7409 9.18745C26.182 9.01245 26.654 8.92857 27.1283 8.94084C28.0105 8.93267 28.8701 9.21936 29.5709 9.75547L30.5439 7.95311C29.4121 7.13849 27.8815 7 27.1202 7C25.3955 7 23.9951 7.6035 22.919 8.8105C22.024 9.78827 21.5362 11.0712 21.5552 12.3969C21.5511 13.3795 21.8052 14.3459 22.2921 15.1992C22.7614 16.0395 23.4557 16.7321 24.297 17.1991C25.1817 17.6783 26.1754 17.9204 27.1813 17.9017C28.0992 17.923 29.0065 17.701 29.8111 17.2582C30.578 16.8139 31.2108 16.1708 31.643 15.3968C32.1152 14.5821 32.3473 13.2156 32.3473 12.3073L32.3351 11.8816L32.2964 11.8735Z" fill="white"/>
    <path d="M62.0813 17.1971H62.179C62.2047 17.2005 62.2307 17.2005 62.2563 17.1971C62.2759 17.1929 62.2942 17.1838 62.3093 17.1706C62.3221 17.1597 62.3319 17.1457 62.3378 17.1299C62.3411 17.111 62.3411 17.0917 62.3378 17.0728C62.3401 17.0553 62.3401 17.0375 62.3378 17.0199C62.3306 17.0049 62.3202 16.9917 62.3072 16.9812C62.2949 16.9694 62.2793 16.9616 62.2625 16.9588C62.2381 16.9562 62.2135 16.9562 62.1892 16.9588H62.0793L62.0813 17.1971ZM62.0813 17.2928V17.5881H61.9531V16.8427H62.1912C62.2666 16.838 62.3416 16.8557 62.407 16.8936C62.4288 16.9134 62.4462 16.9376 62.4578 16.9647C62.4694 16.9917 62.4749 17.021 62.4741 17.0504C62.4759 17.0982 62.4607 17.1451 62.4314 17.1828C62.3966 17.223 62.3493 17.2503 62.2971 17.2602C62.3062 17.2658 62.3144 17.2726 62.3215 17.2806C62.3303 17.2892 62.3372 17.2996 62.3418 17.3111L62.5311 17.5881H62.409C62.401 17.5891 62.3928 17.5878 62.3855 17.5841C62.3783 17.5805 62.3723 17.5748 62.3683 17.5677L62.1994 17.3152C62.1943 17.3081 62.1881 17.3019 62.181 17.2969H62.1505L62.0813 17.2928ZM61.6742 17.2174C61.6745 17.2658 61.6821 17.3139 61.6966 17.36C61.7078 17.4055 61.7249 17.4493 61.7475 17.4903C61.7698 17.5286 61.7964 17.5641 61.8269 17.5962C61.8592 17.6276 61.8947 17.6556 61.9327 17.6797C61.9728 17.7032 62.016 17.7211 62.0609 17.7327C62.1067 17.7456 62.1539 17.7524 62.2014 17.7531C62.3427 17.7526 62.478 17.6962 62.5779 17.5962C62.6262 17.5479 62.6642 17.4905 62.6899 17.4272C62.735 17.3145 62.7429 17.1903 62.7123 17.0728C62.6997 17.0275 62.682 16.9838 62.6594 16.9425C62.6352 16.9044 62.608 16.8683 62.5779 16.8346C62.5454 16.8017 62.5084 16.7736 62.468 16.7511C62.4298 16.7263 62.3879 16.7078 62.3439 16.6961C62.2974 16.6839 62.2495 16.6777 62.2014 16.6777C62.1313 16.6777 62.062 16.6922 61.9978 16.7205C61.9012 16.7623 61.8191 16.8318 61.7618 16.9203C61.7046 17.0087 61.6748 17.1121 61.6762 17.2174M61.5928 17.2174C61.5925 17.1622 61.6007 17.1072 61.6172 17.0545C61.6308 17.0034 61.6507 16.9542 61.6762 16.9079C61.7036 16.8626 61.7364 16.8209 61.7739 16.7837C61.811 16.747 61.8527 16.7155 61.8981 16.69C61.9422 16.661 61.9912 16.6403 62.0426 16.6289C62.0947 16.6127 62.1489 16.6044 62.2034 16.6044C62.2593 16.6043 62.3149 16.6125 62.3683 16.6289C62.4195 16.6411 62.4684 16.6618 62.5128 16.69C62.5569 16.7166 62.5978 16.748 62.6349 16.7837C62.6737 16.8198 62.7067 16.8617 62.7326 16.9079C62.7588 16.9541 62.7793 17.0033 62.7937 17.0545C62.8092 17.1075 62.8174 17.1623 62.8181 17.2174C62.8175 17.2719 62.8092 17.3261 62.7937 17.3783C62.7797 17.4303 62.7592 17.4802 62.7326 17.527C62.7071 17.5723 62.6741 17.6129 62.6349 17.6472C62.5989 17.6847 62.5578 17.7169 62.5128 17.7429C62.468 17.7709 62.4193 17.7922 62.3683 17.806C62.3146 17.8207 62.2591 17.8283 62.2034 17.8284C62.1491 17.8281 62.095 17.8206 62.0426 17.806C61.9913 17.793 61.9425 17.7716 61.8981 17.7429C61.8518 17.718 61.8098 17.6856 61.7739 17.6472C61.736 17.6118 61.7031 17.5714 61.6762 17.527C61.6503 17.4802 61.6305 17.4302 61.6172 17.3783C61.6007 17.3263 61.5925 17.272 61.5928 17.2174Z" fill="white"/>
</svg>
