<svg width="72" height="24" viewBox="0 0 72 24" fill="none" xmlns="http://www.w3.org/2000/svg">
<path d="M31.9526 4.60024V12.4002H30.6196V6.2794H30.6019L28.2204 12.4002H27.3317L24.8969 6.2794H24.8791V12.4002H23.6528V4.60024H25.5723L27.776 10.378H27.8116L30.1398 4.60024H31.9526ZM33.0545 5.19607C33.0545 4.9794 33.1256 4.79885 33.2855 4.6544C33.4455 4.50996 33.6232 4.43774 33.8365 4.43774C34.0675 4.43774 34.263 4.50996 34.4052 4.6544C34.5473 4.79885 34.6362 4.9794 34.6362 5.19607C34.6362 5.41274 34.5651 5.59329 34.4052 5.73773C34.2452 5.88218 34.0675 5.9544 33.8365 5.9544C33.6054 5.9544 33.4277 5.88218 33.2855 5.73773C33.1433 5.57524 33.0545 5.39468 33.0545 5.19607ZM34.494 6.80301V12.4002H33.1966V6.80301H34.494ZM38.4217 11.4433C38.6172 11.4433 38.8305 11.4072 39.0616 11.2988C39.2926 11.2086 39.5059 11.0822 39.7014 10.9377V12.1655C39.4881 12.2919 39.2571 12.3822 38.9905 12.4363C38.7239 12.4905 38.4395 12.5266 38.1196 12.5266C37.3021 12.5266 36.6445 12.2738 36.1469 11.7502C35.6315 11.2266 35.3827 10.5586 35.3827 9.76411C35.3827 8.86134 35.6492 8.12106 36.1646 7.54329C36.68 6.96551 37.4087 6.67662 38.3684 6.67662C38.6172 6.67662 38.8661 6.71273 39.0971 6.7669C39.3459 6.82107 39.5414 6.91134 39.6836 6.98357V8.24745C39.4881 8.10301 39.2748 7.97662 39.0793 7.9044C38.8661 7.83217 38.6528 7.77801 38.4395 7.77801C37.9241 7.77801 37.5154 7.94051 37.1954 8.28356C36.8755 8.62662 36.7334 9.078 36.7334 9.65578C36.7334 10.2155 36.8933 10.6669 37.1954 10.9738C37.4976 11.2808 37.9063 11.4433 38.4217 11.4433ZM43.3803 6.71273C43.4869 6.71273 43.5758 6.71273 43.6646 6.73079C43.7535 6.74884 43.8246 6.7669 43.8779 6.78495V8.12106C43.8068 8.0669 43.7179 8.01273 43.5758 7.97662C43.4336 7.94051 43.2914 7.9044 43.0959 7.9044C42.776 7.9044 42.5094 8.04884 42.2961 8.31967C42.0829 8.59051 41.9585 9.00578 41.9585 9.58356V12.4002H40.6611V6.80301H41.9585V7.68773H41.9762C42.1006 7.38079 42.2784 7.14606 42.5094 6.96551C42.7582 6.80301 43.0426 6.71273 43.3803 6.71273ZM43.949 9.69189C43.949 8.77106 44.2156 8.03079 44.7132 7.48912C45.2286 6.94745 45.9395 6.67662 46.8459 6.67662C47.699 6.67662 48.3743 6.9294 48.8542 7.45301C49.334 7.97662 49.5829 8.68078 49.5829 9.5655C49.5829 10.4683 49.3163 11.1905 48.8186 11.7322C48.3032 12.2738 47.6101 12.5447 46.7215 12.5447C45.8684 12.5447 45.1931 12.2919 44.6954 11.7863C44.1978 11.2627 43.949 10.5586 43.949 9.69189ZM45.2997 9.63773C45.2997 10.2155 45.4241 10.6669 45.6907 10.9738C45.9573 11.2808 46.3305 11.4433 46.8103 11.4433C47.2724 11.4433 47.6457 11.2988 47.8945 10.9738C48.1433 10.6669 48.2677 10.2155 48.2677 9.60161C48.2677 9.00578 48.1433 8.55439 47.8945 8.2294C47.6457 7.92245 47.2724 7.75995 46.8281 7.75995C46.3483 7.75995 45.9928 7.92245 45.7262 8.24745C45.4241 8.59051 45.2997 9.04189 45.2997 9.63773ZM51.5201 8.28356C51.5201 8.46412 51.5734 8.62662 51.6978 8.73495C51.8222 8.84328 52.071 8.96967 52.4798 9.13217C52.9952 9.34884 53.3684 9.58356 53.5639 9.83634C53.7772 10.1072 53.8838 10.4141 53.8838 10.7933C53.8838 11.3169 53.6883 11.7322 53.2795 12.0572C52.8885 12.3822 52.3376 12.5266 51.6622 12.5266C51.4312 12.5266 51.1824 12.4905 50.898 12.4363C50.6137 12.3822 50.3826 12.3099 50.1871 12.2197V10.9197C50.4182 11.0822 50.6847 11.2266 50.9513 11.3169C51.2179 11.4072 51.4667 11.4613 51.6978 11.4613C51.9821 11.4613 52.2132 11.4252 52.3376 11.3349C52.4798 11.2447 52.5508 11.1183 52.5508 10.9197C52.5508 10.7391 52.4798 10.5947 52.3376 10.4502C52.1954 10.3238 51.911 10.1794 51.5201 10.0169C51.0402 9.81828 50.7025 9.58356 50.507 9.33078C50.3115 9.078 50.2049 8.75301 50.2049 8.35578C50.2049 7.85023 50.4004 7.43495 50.7914 7.10995C51.1824 6.78495 51.6978 6.62245 52.3198 6.62245C52.5153 6.62245 52.7286 6.64051 52.9596 6.69468C53.1907 6.74884 53.4039 6.80301 53.5639 6.85718V8.13912C53.3862 8.03078 53.1907 7.92245 52.9596 7.83217C52.7286 7.7419 52.4975 7.70579 52.2843 7.70579C52.0355 7.70579 51.84 7.75995 51.7155 7.85023C51.5911 7.97662 51.5201 8.10301 51.5201 8.28356ZM54.4347 9.69189C54.4347 8.77106 54.7013 8.03079 55.199 7.48912C55.7144 6.94745 56.4253 6.67662 57.3316 6.67662C58.1847 6.67662 58.8601 6.9294 59.3399 7.45301C59.8198 7.97662 60.0686 8.68078 60.0686 9.5655C60.0686 10.4683 59.802 11.1905 59.3044 11.7322C58.789 12.2738 58.0959 12.5447 57.2072 12.5447C56.3542 12.5447 55.6788 12.2919 55.1812 11.7863C54.7013 11.2627 54.4347 10.5586 54.4347 9.69189ZM55.7854 9.63773C55.7854 10.2155 55.9099 10.6669 56.1764 10.9738C56.443 11.2808 56.8162 11.4433 57.2961 11.4433C57.7582 11.4433 58.1314 11.2988 58.3802 10.9738C58.629 10.6669 58.7534 10.2155 58.7534 9.60161C58.7534 9.00578 58.629 8.55439 58.3802 8.2294C58.1314 7.92245 57.7582 7.75995 57.3139 7.75995C56.834 7.75995 56.4786 7.92245 56.212 8.24745C55.9276 8.59051 55.7854 9.04189 55.7854 9.63773ZM64.3873 7.88634H62.4501V12.4002H61.135V7.88634H60.2108V6.80301H61.135V6.02662C61.135 5.44885 61.3304 4.96135 61.7037 4.58218C62.0769 4.20302 62.5567 4.02246 63.1432 4.02246C63.3032 4.02246 63.4454 4.04052 63.5698 4.04052C63.6942 4.04052 63.8008 4.07663 63.8897 4.11274V5.25024C63.8541 5.23218 63.7653 5.19607 63.6586 5.15996C63.552 5.12385 63.4276 5.10579 63.2854 5.10579C63.0188 5.10579 62.8056 5.19607 62.6634 5.35857C62.5212 5.52107 62.4501 5.7919 62.4501 6.1169V6.78495H64.3873V5.52107L65.6847 5.12385V6.78495H66.9999V7.86829H65.6847V10.4863C65.6847 10.8294 65.7558 11.0641 65.8624 11.2086C65.9868 11.353 66.1823 11.4252 66.4489 11.4252C66.52 11.4252 66.6089 11.4072 66.7155 11.3711C66.8221 11.3349 66.911 11.2988 66.9821 11.2447V12.328C66.8932 12.3822 66.7688 12.4183 66.5733 12.4544C66.3778 12.4905 66.2001 12.5086 66.0046 12.5086C65.4537 12.5086 65.0449 12.3641 64.7783 12.0752C64.5117 11.7863 64.3695 11.3349 64.3695 10.7391L64.3873 7.88634Z" fill="#E4E4E4"/>
<path d="M46.5698 19.9994V17.0534H47.1398L47.1878 17.5754H47.2118C47.3158 17.3834 47.4418 17.2374 47.5898 17.1374C47.7378 17.0334 47.8898 16.9814 48.0458 16.9814C48.1858 16.9814 48.2978 17.0014 48.3818 17.0414L48.2618 17.6414C48.2098 17.6254 48.1618 17.6134 48.1178 17.6054C48.0738 17.5974 48.0198 17.5934 47.9558 17.5934C47.8398 17.5934 47.7178 17.6394 47.5898 17.7314C47.4618 17.8194 47.3518 17.9754 47.2598 18.1994V19.9994H46.5698Z" fill="#E4E4E4"/>
<path d="M44.5189 20.0714C44.2469 20.0714 44.0009 20.0114 43.7809 19.8914C43.5609 19.7674 43.3869 19.5914 43.2589 19.3634C43.1309 19.1314 43.0669 18.8534 43.0669 18.5294C43.0669 18.2094 43.1309 17.9334 43.2589 17.7014C43.3909 17.4694 43.5609 17.2914 43.7689 17.1674C43.9769 17.0434 44.1949 16.9814 44.4229 16.9814C44.6909 16.9814 44.9149 17.0414 45.0949 17.1614C45.2749 17.2774 45.4109 17.4414 45.5029 17.6534C45.5949 17.8614 45.6409 18.1034 45.6409 18.3794C45.6409 18.5234 45.6309 18.6354 45.6109 18.7154H43.7389C43.7709 18.9754 43.8649 19.1774 44.0209 19.3214C44.1769 19.4654 44.3729 19.5374 44.6089 19.5374C44.7369 19.5374 44.8549 19.5194 44.9629 19.4834C45.0749 19.4434 45.1849 19.3894 45.2929 19.3214L45.5269 19.7534C45.3869 19.8454 45.2309 19.9214 45.0589 19.9814C44.8869 20.0414 44.7069 20.0714 44.5189 20.0714ZM43.7329 18.2474H45.0409C45.0409 18.0194 44.9909 17.8414 44.8909 17.7134C44.7909 17.5814 44.6409 17.5154 44.4409 17.5154C44.2689 17.5154 44.1149 17.5794 43.9789 17.7074C43.8469 17.8314 43.7649 18.0114 43.7329 18.2474Z" fill="#E4E4E4"/>
<path d="M40.6339 20.0717C40.2659 20.0717 39.9719 19.9357 39.7519 19.6637C39.5319 19.3917 39.4219 19.0137 39.4219 18.5297C39.4219 18.2097 39.4799 17.9337 39.5959 17.7017C39.7159 17.4697 39.8719 17.2917 40.0639 17.1677C40.2559 17.0437 40.4579 16.9817 40.6699 16.9817C40.8379 16.9817 40.9799 17.0117 41.0959 17.0717C41.2159 17.1277 41.3319 17.2057 41.4439 17.3057L41.4199 16.8317V15.7637H42.1099V19.9997H41.5399L41.4919 19.6817H41.4679C41.3599 19.7897 41.2339 19.8817 41.0899 19.9577C40.9459 20.0337 40.7939 20.0717 40.6339 20.0717ZM40.8019 19.5017C41.0219 19.5017 41.2279 19.3917 41.4199 19.1717V17.7977C41.3199 17.7057 41.2199 17.6417 41.1199 17.6057C41.0199 17.5697 40.9199 17.5517 40.8199 17.5517C40.6319 17.5517 40.4699 17.6377 40.3339 17.8097C40.2019 17.9777 40.1359 18.2157 40.1359 18.5237C40.1359 18.8397 40.1939 19.0817 40.3099 19.2497C40.4259 19.4177 40.5899 19.5017 40.8019 19.5017Z" fill="#E4E4E4"/>
<path d="M35.9746 19.9994V17.0534H36.5446L36.5926 17.4494H36.6166C36.7486 17.3214 36.8926 17.2114 37.0486 17.1194C37.2046 17.0274 37.3826 16.9814 37.5826 16.9814C37.8986 16.9814 38.1286 17.0834 38.2726 17.2874C38.4166 17.4914 38.4886 17.7794 38.4886 18.1514V19.9994H37.7986V18.2414C37.7986 17.9974 37.7626 17.8254 37.6906 17.7254C37.6186 17.6254 37.5006 17.5754 37.3366 17.5754C37.2086 17.5754 37.0946 17.6074 36.9946 17.6714C36.8986 17.7314 36.7886 17.8214 36.6646 17.9414V19.9994H35.9746Z" fill="#E4E4E4"/>
<path d="M33.9237 20.0714C33.6517 20.0714 33.4057 20.0114 33.1857 19.8914C32.9657 19.7674 32.7917 19.5914 32.6637 19.3634C32.5357 19.1314 32.4717 18.8534 32.4717 18.5294C32.4717 18.2094 32.5357 17.9334 32.6637 17.7014C32.7957 17.4694 32.9657 17.2914 33.1737 17.1674C33.3817 17.0434 33.5997 16.9814 33.8277 16.9814C34.0957 16.9814 34.3197 17.0414 34.4997 17.1614C34.6797 17.2774 34.8157 17.4414 34.9077 17.6534C34.9997 17.8614 35.0457 18.1034 35.0457 18.3794C35.0457 18.5234 35.0357 18.6354 35.0157 18.7154H33.1437C33.1757 18.9754 33.2697 19.1774 33.4257 19.3214C33.5817 19.4654 33.7777 19.5374 34.0137 19.5374C34.1417 19.5374 34.2597 19.5194 34.3677 19.4834C34.4797 19.4434 34.5897 19.3894 34.6977 19.3214L34.9317 19.7534C34.7917 19.8454 34.6357 19.9214 34.4637 19.9814C34.2917 20.0414 34.1117 20.0714 33.9237 20.0714ZM33.1377 18.2474H34.4457C34.4457 18.0194 34.3957 17.8414 34.2957 17.7134C34.1957 17.5814 34.0457 17.5154 33.8457 17.5154C33.6737 17.5154 33.5197 17.5794 33.3837 17.7074C33.2517 17.8314 33.1697 18.0114 33.1377 18.2474Z" fill="#E4E4E4"/>
<path d="M30.668 19.9994V17.5994H30.272V17.0834L30.668 17.0534V16.7474C30.668 16.4394 30.744 16.1874 30.896 15.9914C31.048 15.7914 31.298 15.6914 31.646 15.6914C31.75 15.6914 31.85 15.7014 31.946 15.7214C32.042 15.7414 32.122 15.7654 32.186 15.7934L32.054 16.3094C31.946 16.2614 31.838 16.2374 31.73 16.2374C31.482 16.2374 31.358 16.4034 31.358 16.7354V17.0534H31.934V17.5994H31.358V19.9994H30.668Z" fill="#E4E4E4"/>
<path d="M28.5204 20.0714C28.2484 20.0714 28.0024 20.0114 27.7824 19.8914C27.5624 19.7674 27.3884 19.5914 27.2604 19.3634C27.1324 19.1314 27.0684 18.8534 27.0684 18.5294C27.0684 18.2094 27.1324 17.9334 27.2604 17.7014C27.3924 17.4694 27.5624 17.2914 27.7704 17.1674C27.9784 17.0434 28.1964 16.9814 28.4244 16.9814C28.6924 16.9814 28.9164 17.0414 29.0964 17.1614C29.2764 17.2774 29.4124 17.4414 29.5044 17.6534C29.5964 17.8614 29.6424 18.1034 29.6424 18.3794C29.6424 18.5234 29.6324 18.6354 29.6124 18.7154H27.7404C27.7724 18.9754 27.8664 19.1774 28.0224 19.3214C28.1784 19.4654 28.3744 19.5374 28.6104 19.5374C28.7384 19.5374 28.8564 19.5194 28.9644 19.4834C29.0764 19.4434 29.1864 19.3894 29.2944 19.3214L29.5284 19.7534C29.3884 19.8454 29.2324 19.9214 29.0604 19.9814C28.8884 20.0414 28.7084 20.0714 28.5204 20.0714ZM27.7344 18.2474H29.0424C29.0424 18.0194 28.9924 17.8414 28.8924 17.7134C28.7924 17.5814 28.6424 17.5154 28.4424 17.5154C28.2704 17.5154 28.1164 17.5794 27.9804 17.7074C27.8484 17.8314 27.7664 18.0114 27.7344 18.2474Z" fill="#E4E4E4"/>
<path d="M23.3003 19.9992V16.0752H24.3503C24.9503 16.0752 25.4183 16.2372 25.7543 16.5612C26.0903 16.8852 26.2583 17.3712 26.2583 18.0192C26.2583 18.6712 26.0923 19.1652 25.7603 19.5012C25.4283 19.8332 24.9703 19.9992 24.3863 19.9992H23.3003ZM23.9963 19.4352H24.3023C24.6983 19.4352 25.0043 19.3212 25.2203 19.0932C25.4363 18.8612 25.5443 18.5032 25.5443 18.0192C25.5443 17.5392 25.4363 17.1892 25.2203 16.9692C25.0043 16.7492 24.6983 16.6392 24.3023 16.6392H23.9963V19.4352Z" fill="#E4E4E4"/>
<path d="M11.9997 20.3333C11.7697 20.3333 11.583 20.1467 11.583 19.9167C11.583 19.6867 11.7697 19.5 11.9997 19.5V20.3333Z" fill="#0370C8"/>
<path d="M12.4167 19.9167C12.4167 20.1467 12.23 20.3333 12 20.3333V19.5C12.23 19.5 12.4167 19.6867 12.4167 19.9167Z" fill="#0F5094"/>
<path d="M19.4997 7.00033C19.7298 7.00033 19.9163 6.81378 19.9163 6.58366C19.9163 6.35354 19.7298 6.16699 19.4997 6.16699C19.2696 6.16699 19.083 6.35354 19.083 6.58366C19.083 6.81378 19.2696 7.00033 19.4997 7.00033Z" fill="#0883D9"/>
<path d="M4.49967 7.00033C4.72979 7.00033 4.91634 6.81378 4.91634 6.58366C4.91634 6.35354 4.72979 6.16699 4.49967 6.16699C4.26956 6.16699 4.08301 6.35354 4.08301 6.58366C4.08301 6.81378 4.26956 7.00033 4.49967 7.00033Z" fill="#33BFF0"/>
<path d="M12 19.9167L12.1779 20.2946C12.1779 20.2946 18.4879 17.0029 19.7113 12H12V19.9167Z" fill="#0F5094"/>
<path d="M19.9167 6.58366L19.5 6.16699C14.8658 6.16699 14.8008 3.66699 12 3.66699V12.0003H19.7112C19.8425 11.4637 19.9167 10.9078 19.9167 10.3337C19.9167 9.02366 19.9167 6.58366 19.9167 6.58366Z" fill="#0883D9"/>
<path d="M11.9998 19.9167L11.8219 20.2946C11.8219 20.2946 5.51191 17.0029 4.28857 12H11.9998V19.9167Z" fill="#0370C8"/>
<path d="M4.08301 6.58366L4.49967 6.16699C9.13384 6.16699 9.19884 3.66699 11.9997 3.66699V12.0003H4.28842C4.15717 11.4637 4.08301 10.9078 4.08301 10.3337C4.08301 9.02366 4.08301 6.58366 4.08301 6.58366Z" fill="#33BFF0"/>
</svg>
