<svg width="72" height="24" viewBox="0 0 72 24" fill="none" xmlns="http://www.w3.org/2000/svg">
    <path d="M32.0764 17.6006H30.0537V6.99902H32.0764V10.9049C32.3902 10.5213 33.1226 10.1376 33.8898 10.1376C36.0171 10.1376 37.2028 11.8813 37.2028 13.9737C37.2028 16.0662 36.0171 17.775 33.8898 17.775C33.1226 17.775 32.3902 17.3914 32.0764 17.0077V17.6006ZM32.0764 15.1594C32.3205 15.6825 32.8436 15.9964 33.4364 15.9964C34.5175 15.9964 35.1801 15.1246 35.1801 13.9389C35.1801 12.7532 34.5175 11.8813 33.4364 11.8813C32.8436 11.8813 32.2856 12.2301 32.0764 12.7183V15.1594Z" fill="#414042"/>
    <path d="M46.0959 10.1379C47.5955 10.1379 48.5022 11.1841 48.5022 12.8232V17.6009H46.4795V13.2417C46.4795 12.4745 46.1308 11.9514 45.4333 11.9514C44.9102 11.9514 44.422 12.2652 44.3174 12.893V17.6009H42.2947V13.2417C42.2947 12.4745 41.9808 11.9514 41.2834 11.9514C40.7603 11.9514 40.272 12.2652 40.1325 12.893V17.6009H38.1099V10.3123H40.0628V10.9052C40.4115 10.4518 41.109 10.1379 41.9111 10.1379C42.7829 10.1379 43.4455 10.5215 43.864 11.0795C44.3522 10.5564 45.0497 10.1379 46.0959 10.1379Z" fill="#414042"/>
    <path d="M52.7918 10.1379C54.6401 10.1379 55.7909 11.219 56.0001 12.7535H54.0123C53.9077 12.1955 53.4544 11.8467 52.7918 11.8467C51.8502 11.8467 51.2922 12.6837 51.2922 13.9392C51.2922 15.1597 51.8502 15.9967 52.7918 15.9967C53.4544 15.9967 53.8728 15.648 54.0123 15.09H56.0001C55.7909 16.6593 54.6401 17.7055 52.7918 17.7055C50.7342 17.7055 49.2695 16.1362 49.2695 13.9043C49.3044 11.6724 50.7342 10.1379 52.7918 10.1379Z" fill="#414042"/>
    <path d="M17.3601 20.7393C16.6975 20.7393 16 20.2162 16 19.2049V16.8335C16 15.8919 16.5929 14.8108 17.4298 14.3575L20.7428 12.4045L17.4298 10.4516C16.6277 9.92851 16 8.8823 16 7.94072V5.53444C16 4.5231 16.6975 4 17.3949 4C17.6739 4 17.9878 4.06975 18.2668 4.24412L25.7297 8.67306C26.2528 8.98692 26.5318 9.47515 26.5318 9.96338C26.5318 10.4865 26.218 10.9747 25.7297 11.2537L23.9512 12.2999L25.7297 13.3461C26.2528 13.66 26.5667 14.1482 26.5667 14.6364C26.5667 15.1595 26.2528 15.6478 25.7297 15.9268L18.2668 20.4952C17.9529 20.6696 17.6739 20.7393 17.3601 20.7393ZM22.347 13.3461L18.2668 15.7524C17.9529 15.9268 17.6391 16.4847 17.6391 16.8335V18.9608L24.7184 14.7759L22.347 13.3461ZM17.6391 5.81343V7.94072C17.6391 8.28945 17.9529 8.84743 18.2668 9.0218L22.347 11.4281L24.7533 9.99826L17.6391 5.81343Z" fill="#FE5000"/>
</svg>
