<svg width="72" height="24" viewBox="0 0 72 24" fill="none" xmlns="http://www.w3.org/2000/svg">
    <path fill-rule="evenodd" clip-rule="evenodd" d="M46.8213 14.145C46.7081 13.9336 46.6738 13.687 46.7249 13.4515C46.891 13.4515 47.0503 13.3837 47.1678 13.2629C47.2852 13.1422 47.3512 12.9784 47.3512 12.8076C47.3464 12.6628 47.2956 12.5236 47.2067 12.4113C47.317 12.2399 47.436 12.0745 47.5632 11.916C47.7656 12.129 47.9872 12.342 48.2232 12.55C48.2232 12.342 48.2232 12.1339 48.1895 11.916C48.0739 11.802 47.9631 11.6931 47.8619 11.5791C47.9631 11.4702 48.0739 11.3612 48.1895 11.2522C48.1895 11.0343 48.1895 10.8312 48.1895 10.6231C47.9628 10.8182 47.7457 11.0248 47.5391 11.2423C46.8068 10.3557 46.4985 9.51358 46.7875 8.99348C47.0381 8.55263 47.6933 8.40403 48.5653 8.49814C48.6373 8.24265 48.7225 7.99132 48.8207 7.74523C47.6258 7.60653 46.696 7.85916 46.3154 8.52786C45.8866 9.29068 46.2817 10.43 47.2404 11.5643C47.0791 11.7539 46.9279 11.9523 46.7875 12.1587H46.7008C46.577 12.1589 46.456 12.1966 46.3529 12.267C46.2497 12.3373 46.169 12.4374 46.1208 12.5546C46.0725 12.6718 46.0588 12.801 46.0814 12.9261C46.104 13.0513 46.1619 13.1668 46.2479 13.2583C46.1664 13.4735 46.1302 13.7039 46.1419 13.9345C46.1535 14.1651 46.2126 14.3905 46.3154 14.5958C46.7249 15.2694 47.6885 15.5171 48.9122 15.3833C48.8119 15.1342 48.7251 14.8795 48.652 14.6205C47.7415 14.7394 47.0766 14.5958 46.8213 14.145Z" fill="black"/>
    <path fill-rule="evenodd" clip-rule="evenodd" d="M52.6266 9.13734C51.7892 8.62819 50.8923 8.23039 49.9575 7.95348C50.3044 6.88355 50.8151 6.20989 51.4028 6.20989C51.6173 6.22427 51.8202 6.31539 51.9762 6.46747C51.9357 6.55757 51.9143 6.65551 51.9135 6.75476C51.9135 6.926 51.9794 7.09031 52.0967 7.21186C52.214 7.33341 52.3733 7.40235 52.5398 7.40365H52.6362C52.7446 7.6388 52.8395 7.88028 52.9204 8.12685C52.6362 8.1962 52.3375 8.28536 52.034 8.38938C52.217 8.47854 52.4098 8.57761 52.588 8.68163C52.747 8.63209 52.9012 8.59247 53.0698 8.55779C53.1035 8.69153 53.1373 8.83023 53.1662 8.96892C53.3444 9.08285 53.513 9.19182 53.6768 9.30575C53.6239 9.01846 53.566 8.73611 53.4938 8.47358C54.5681 8.29031 55.392 8.44386 55.6714 8.94416C55.9171 9.37015 55.7341 9.99923 55.2378 10.6927C55.4184 10.8833 55.5873 11.0851 55.7437 11.297C56.423 10.3311 56.6591 9.40482 56.2929 8.75097C55.869 8.00797 54.7609 7.78506 53.3685 8.03769C53.2773 7.74674 53.1678 7.46215 53.0409 7.18571C53.1406 7.06945 53.1955 6.91967 53.1951 6.76467C53.1951 6.59126 53.1281 6.42495 53.0088 6.30233C52.8895 6.17971 52.7278 6.11082 52.5591 6.11082C52.4935 6.11225 52.4286 6.12394 52.3664 6.1455C52.2298 5.9776 52.0608 5.8407 51.87 5.7435C51.6793 5.64629 51.471 5.59089 51.2583 5.58081C49.813 5.58081 48.6519 8.23087 48.6519 11.5249C48.6519 14.8189 49.8226 17.4689 51.2583 17.4689C52.0966 17.4689 52.8482 16.5674 53.3203 15.1606C53.5482 15.2034 53.7782 15.2332 54.0093 15.2498C54.0551 15.3734 54.1362 15.4797 54.242 15.5549C54.3478 15.6301 54.4733 15.6705 54.6019 15.6708C54.7433 15.6714 54.8807 15.6228 54.9918 15.5328C55.1029 15.4429 55.1811 15.317 55.2137 15.1755C55.4336 15.1278 55.6413 15.0336 55.8238 14.8989C56.0063 14.7641 56.1595 14.5918 56.2737 14.3929C57.0011 13.1199 55.3631 10.7571 52.6266 9.13734ZM53.383 10.663C53.383 10.9404 53.4119 11.2178 53.4119 11.5051C53.4119 11.7923 53.4119 11.9657 53.4119 12.1886C53.566 12.0697 53.7154 11.941 53.8599 11.8122C53.8599 11.7081 53.8599 11.6091 53.8599 11.5051C53.8599 11.401 53.8599 11.1781 53.8599 11.0097C54.0815 11.193 54.2839 11.3763 54.4766 11.5645C53.7939 12.2131 53.0406 12.7782 52.2315 13.2486C51.4626 13.7114 50.6447 14.0821 49.7937 14.3532C49.7327 14.0957 49.6797 13.8232 49.6347 13.5359L50.049 13.7886L50.2658 13.9173C50.4537 13.853 50.6368 13.7787 50.8199 13.7093L50.2417 13.4022C49.996 13.2585 49.76 13.105 49.5383 12.9514C49.4874 12.4694 49.4617 11.9849 49.4613 11.5001C49.4613 11.0394 49.4612 10.5936 49.5239 10.1676C49.7455 10.019 49.9768 9.87044 50.2176 9.72679C50.4585 9.58314 50.7813 9.43949 51.0608 9.27603C51.4366 9.4494 51.822 9.65249 52.2074 9.88034C52.6119 10.1205 53.0043 10.3817 53.383 10.663ZM53.2336 13.635C53.1781 13.9693 53.1041 14.3001 53.012 14.6257C52.686 14.5459 52.3643 14.4483 52.0484 14.3334C52.2363 14.2393 52.4242 14.1353 52.6121 14.0263C52.8 13.9173 53.0409 13.7489 53.2336 13.6201V13.635ZM50.5356 9.06304C50.3574 9.15715 50.1791 9.25622 50.0008 9.36519C49.8226 9.47417 49.7262 9.52865 49.5913 9.61286C49.6347 9.32061 49.6829 9.03827 49.7407 8.77574C50.01 8.85269 50.2753 8.94362 50.5356 9.04818V9.06304ZM51.3787 16.8002C50.8343 16.8002 50.3429 16.1711 49.9912 15.1606C50.5229 15.0093 51.0417 14.8139 51.5426 14.5761C51.9812 14.7592 52.432 14.9099 52.8915 15.0269C52.5061 16.1067 51.9521 16.7854 51.3787 16.7854V16.8002ZM55.6522 14.2294C55.5287 14.4341 55.3368 14.5856 55.1126 14.6554C55.0572 14.5618 54.9794 14.4844 54.8866 14.4306C54.7938 14.3768 54.6891 14.3485 54.5826 14.3483C54.4547 14.349 54.33 14.3896 54.225 14.4648C54.12 14.54 54.0397 14.6462 53.9948 14.7693C53.8074 14.7576 53.6208 14.7344 53.436 14.7C53.5662 14.2374 53.6628 13.7656 53.725 13.2883C54.1769 12.9556 54.6008 12.5845 54.9921 12.1787C55.657 12.9762 55.9316 13.7291 55.6522 14.2146V14.2294Z" fill="black"/>
    <path d="M58.4706 3H14.0744C13.7894 3 13.5162 3.11638 13.3147 3.32353C13.1132 3.53068 13 3.81164 13 4.1046V18.8954C13 19.1884 13.1132 19.4693 13.3147 19.6765C13.5162 19.8836 13.7894 20 14.0744 20H58.4706C58.7556 20 59.0289 19.8836 59.2303 19.6765C59.4318 19.4693 59.545 19.1884 59.545 18.8954V4.1046C59.545 3.81164 59.4318 3.53068 59.2303 3.32353C59.0289 3.11638 58.7556 3 58.4706 3ZM28.0075 18.2465C28.0063 18.2947 27.9871 18.3406 27.954 18.3747C27.9208 18.4088 27.8762 18.4285 27.8293 18.4298H14.7055C14.6586 18.4285 14.614 18.4088 14.5808 18.3747C14.5476 18.3406 14.5285 18.2947 14.5273 18.2465V4.7535C14.5285 4.70528 14.5476 4.65939 14.5808 4.62529C14.614 4.59119 14.6586 4.57147 14.7055 4.57022H27.8293C27.8762 4.57147 27.9208 4.59119 27.954 4.62529C27.9871 4.65939 28.0063 4.70528 28.0075 4.7535V18.2465ZM43.0151 18.2465C43.0138 18.2956 42.994 18.3422 42.9598 18.3764C42.9256 18.4106 42.8797 18.4298 42.832 18.4298H29.713C29.6658 18.4298 29.6204 18.4105 29.587 18.3761C29.5536 18.3417 29.5348 18.2951 29.5348 18.2465V4.7535C29.5348 4.70489 29.5536 4.65827 29.587 4.6239C29.6204 4.58953 29.6658 4.57022 29.713 4.57022H42.832C42.8797 4.5702 42.9256 4.58935 42.9598 4.62359C42.994 4.65782 43.0138 4.70444 43.0151 4.7535V18.2465ZM58.0178 18.2465C58.0165 18.2947 57.9974 18.3406 57.9642 18.3747C57.931 18.4088 57.8864 18.4285 57.8395 18.4298H44.7206C44.6728 18.4298 44.627 18.4106 44.5928 18.3764C44.5586 18.3422 44.5387 18.2956 44.5375 18.2465V4.75845C44.5375 4.70853 44.5568 4.66065 44.5911 4.62535C44.6254 4.59005 44.672 4.57022 44.7206 4.57022H57.8395C57.8872 4.57151 57.9326 4.59191 57.9659 4.62707C57.9992 4.66223 58.0178 4.70938 58.0178 4.75845V18.2465Z" fill="black"/>
    <path d="M41.512 6.16531C41.4784 6.10551 41.4299 6.05605 41.3714 6.02207C41.313 5.9881 41.2467 5.97085 41.1796 5.97213H39.6234C39.5484 5.97114 39.4748 5.99326 39.4121 6.03563C39.3495 6.07801 39.3005 6.1387 39.2717 6.20989L36.3714 12.9069L33.4807 6.22475C33.4545 6.14957 33.4059 6.08474 33.342 6.03942C33.278 5.99409 33.2018 5.97056 33.1242 5.97213H31.5632C31.4985 5.96809 31.4339 5.98178 31.376 6.0118C31.3181 6.04183 31.269 6.08711 31.2338 6.14303C31.1985 6.19894 31.1783 6.26349 31.1752 6.33006C31.1721 6.39664 31.1863 6.46286 31.2163 6.52195L35.9378 17.1024C35.9674 17.1726 36.0166 17.2323 36.0792 17.2737C36.1418 17.3152 36.215 17.3366 36.2895 17.3352H36.4388C36.5122 17.3373 36.5845 17.3167 36.6464 17.2761C36.7082 17.2355 36.7568 17.1767 36.7857 17.1073L41.5264 6.53681C41.5551 6.47877 41.5688 6.41416 41.5662 6.34913C41.5637 6.2841 41.545 6.22082 41.512 6.16531Z" fill="black"/>
    <path d="M21.3302 5.63013C18.8153 5.63013 16.7773 7.88887 16.7773 10.6826C16.777 11.3303 16.8896 11.9728 17.1098 12.5797C17.977 15.0564 20.4052 17.5331 21.3302 17.439C22.2552 17.5133 24.7027 15.0415 25.5458 12.5797C25.766 11.9728 25.8786 11.3303 25.8782 10.6826C25.8782 7.88887 23.8403 5.63013 21.3302 5.63013ZM17.2158 10.9253C17.2158 10.9253 20.9062 10.3903 20.9062 14.14C20.9062 14.1301 17.2158 14.3927 17.2158 10.9253ZM21.7493 14.14C21.7493 10.3903 25.4446 10.9253 25.4446 10.9253C25.4446 14.3927 21.7493 14.1301 21.7493 14.1301V14.14Z" fill="black"/>
</svg>
