<svg width="71" height="14" viewBox="0 0 71 14" fill="none" xmlns="http://www.w3.org/2000/svg">
    <g clip-path="url(#clip0_2601_938)">
        <path d="M20.9354 9.14741C20.2904 9.77211 19.4643 10.0622 18.5929 10.0622C16.3296 10.0622 15.3224 8.52271 15.3111 6.91633C15.2998 5.2988 16.3749 3.69243 18.5929 3.69243C19.4303 3.69243 20.2338 4.00478 20.8675 4.61833L20.1999 5.25418C19.7585 4.81912 19.1701 4.61833 18.5929 4.61833C17.0086 4.61833 16.2843 5.76733 16.2957 6.89402C16.307 8.02072 16.986 9.1251 18.5929 9.1251C19.1701 9.1251 19.8151 8.89084 20.2451 8.45578L20.9354 9.14741Z" fill="#173159"/>
        <path d="M24.5909 6.51474L26.3676 3.80398H27.5671V3.84861L25.0888 7.41833V9.93944H24.093V7.41833L21.6938 3.84861V3.80398H22.8821L24.5909 6.51474Z" fill="#173159"/>
        <path d="M29.8643 9.0247H31.7316C32.2861 9.0247 33.0443 8.84622 33.0443 8.17689C33.0443 7.51873 32.3087 7.21753 31.7316 7.21753H29.853V9.0247H29.8643ZM29.8643 6.34741H31.7429C32.4898 6.34741 32.8632 6.05737 32.8632 5.57769C32.8632 5.14263 32.4785 4.69641 31.7316 4.69641H29.8643V6.34741ZM31.7316 3.80398C32.9198 3.80398 33.8478 4.33944 33.8478 5.55538C33.8478 6.06853 33.5762 6.53705 32.9877 6.77131C33.7346 6.99442 34.0515 7.71952 34.0515 8.18805C34.0515 9.52669 32.9651 9.93944 31.7429 9.93944H28.8911V3.80398H31.7316Z" fill="#173159"/>
        <path d="M40.2982 9.93944H35.6924V3.80398H40.2643V4.75219H36.6882V6.41434H40.1285V7.32908H36.6882V8.96892H40.2982V9.93944Z" fill="#173159"/>
        <path d="M43.0143 4.69641V6.92749H44.9042C45.7303 6.92749 46.0924 6.41434 46.0924 5.83426C46.0924 5.27649 45.7303 4.70757 44.9042 4.70757H43.0143V4.69641ZM47.3938 9.93944H46.2282L44.3384 7.81992H43.0256V9.93944H42.0298V3.79283C43.003 3.79283 43.9649 3.80398 44.9268 3.80398C46.364 3.80398 47.1222 4.7745 47.1222 5.81195C47.1222 6.69323 46.6583 7.55219 45.4361 7.71952L47.292 9.76096L47.3938 9.93944Z" fill="#173159"/>
        <path d="M51.6373 5.52191L50.8338 7.4741H52.4294L51.6373 5.52191ZM53.0292 8.93546H50.2453L49.8379 9.93944H47.9707L50.7659 3.80398H52.5426L55.3265 9.93944H53.4366L53.0292 8.93546Z" fill="#173159"/>
        <path d="M58.0197 5.18725V6.65976H59.3211C59.7851 6.65976 59.9888 6.31394 59.9888 5.94582C59.9888 5.55538 59.7624 5.18725 59.2985 5.18725H58.0197ZM62.0257 9.93944H60.0906L58.6421 7.95379H58.031V9.93944H56.2656V3.80398H59.2985C60.8941 3.80398 61.7202 4.80797 61.7202 5.91235C61.7202 6.67092 61.4486 7.30677 60.4075 7.76414L62.0257 9.82789V9.93944Z" fill="#173159"/>
        <path d="M68.7704 3.90438L66.2468 6.80478C67.1182 7.75299 68.1254 8.85737 68.9854 9.82789V9.92829H66.8014L65.0247 7.88685V9.92829H63.2593V3.79283H65.0247V5.81195C65.5565 5.16494 66.1337 4.43984 66.6656 3.79283H68.7704V3.90438Z" fill="#173159"/>
        <path d="M70.2416 3.04542H70.1624V3.30199H70.2416C70.3774 3.30199 70.4226 3.25737 70.4226 3.16813C70.4113 3.07888 70.3547 3.04542 70.2416 3.04542ZM70.5358 3.74821H70.4679C70.4566 3.74821 70.4453 3.74821 70.434 3.73705C70.4113 3.70359 70.4 3.68127 70.3774 3.63665C70.3208 3.54741 70.2868 3.49163 70.2416 3.43586C70.2303 3.4247 70.2189 3.41355 70.1963 3.41355H70.1624V3.71474C70.1624 3.73705 70.1397 3.75936 70.1284 3.75936H70.0831C70.0605 3.75936 70.0379 3.73705 70.0379 3.71474V3.0008C70.0379 2.97849 70.0605 2.96733 70.0831 2.96733H70.2868C70.4679 2.96733 70.5584 3.06773 70.5584 3.19044C70.5584 3.30199 70.4905 3.40239 70.3434 3.41355C70.3887 3.43586 70.4792 3.55857 70.5698 3.7259C70.5698 3.71474 70.5698 3.74821 70.5358 3.74821ZM70.2755 2.73307C69.9474 2.73307 69.6758 3.0008 69.6758 3.34661C69.6758 3.69243 69.936 3.96016 70.2755 3.96016C70.6037 3.96016 70.8753 3.69243 70.8753 3.34661C70.8753 3.0008 70.6037 2.73307 70.2755 2.73307ZM70.2755 4.06056C69.8795 4.06056 69.5513 3.74821 69.5513 3.34661C69.5513 2.93386 69.8795 2.63267 70.2755 2.63267C70.6716 2.63267 70.9998 2.94502 70.9998 3.34661C70.9998 3.75936 70.6716 4.06056 70.2755 4.06056Z" fill="#173159"/>
        <mask id="mask0_2601_938" style="mask-type:luminance" maskUnits="userSpaceOnUse" x="0" y="0" width="13" height="14">
            <path d="M12.1313 10.3745L6.31463 13.6876V10.4191L12.1313 7.10598V10.3745ZM3.24785 8.81275L6.07698 10.4191V13.6876L0.373446 10.4526L3.24785 8.81275ZM6.06567 0.312351V3.58088L3.24785 5.18725L0.362129 3.55857L6.06567 0.312351ZM12.0069 3.54741L9.13245 5.18725L6.30331 3.58088V0.312351L12.0069 3.54741ZM3.12337 8.61195L0.248964 10.2518L0.237647 3.75936L3.11205 5.38805V8.61195H3.12337ZM6.06567 6.92749L3.36101 8.46693V5.3992L6.06567 3.85976V6.92749ZM6.30331 3.85976L9.00797 5.3992V8.47809L6.30331 6.92749V3.85976ZM6.19015 10.2072L3.4855 8.67889L6.19015 7.13944L8.8948 8.67889L6.19015 10.2072ZM12.1879 6.79363L9.24562 8.46693V5.3992L12.3011 3.65896V3.45817L6.24673 0H6.12225L0.0565827 3.45817L0 3.55857L0.0113165 10.4526L0.0678993 10.553L6.13357 13.9888H6.25805L12.3124 10.5418L12.369 10.4414V6.89402L12.1879 6.79363Z" fill="white"/>
        </mask>
        <g mask="url(#mask0_2601_938)">
            <path d="M12.369 0H0V14H12.369V0Z" fill="url(#paint0_linear_2601_938)"/>
        </g>
    </g>
    <defs>
        <linearGradient id="paint0_linear_2601_938" x1="6.18989" y1="-0.809051" x2="6.18989" y2="15.1876" gradientUnits="userSpaceOnUse">
            <stop stop-color="#38B1E6"/>
            <stop offset="0.00527273" stop-color="#38B1E6"/>
            <stop offset="0.2666" stop-color="#329CD7"/>
            <stop offset="0.7878" stop-color="#296FB8"/>
            <stop offset="1" stop-color="#296FB8"/>
        </linearGradient>
        <clipPath id="clip0_2601_938">
            <rect width="71" height="14" fill="white"/>
        </clipPath>
    </defs>
</svg>
