<svg width="72" height="24" viewBox="0 0 72 24" fill="none" xmlns="http://www.w3.org/2000/svg">
<path d="M18.6069 14.1263V14.1127C18.6097 12.808 19.597 11.7419 21.0076 11.7446C21.8729 11.7446 22.391 12.0376 22.8141 12.458L22.1712 13.1986C21.8186 12.8758 21.4578 12.6778 20.9994 12.6778C20.2263 12.6778 19.6648 13.3179 19.6648 14.1046V14.1181C19.6648 14.9048 20.2046 15.5612 20.994 15.5639C21.5175 15.5639 21.8403 15.355 22.2011 15.0295L22.8412 15.6806C22.3665 16.1851 21.843 16.497 20.956 16.4943C19.6052 16.4916 18.6042 15.4446 18.6069 14.1263Z" fill="#231F20"/>
<path d="M23.6549 11.8291H24.664L24.6585 13.6492L26.5221 13.6547L26.5275 11.8372H27.5366L27.5257 16.4323H26.5166L26.5221 14.5878L24.6585 14.5823L24.6531 16.4242H23.644L23.6549 11.8291Z" fill="#231F20"/>
<path d="M28.7628 11.8423L32.2267 11.8505V12.7483L29.7637 12.7429V13.6733L31.9256 13.6787V14.5766L29.7583 14.5712V15.5341L32.2484 15.5396V16.4374L28.752 16.4293L28.7628 11.8369V11.8423Z" fill="#231F20"/>
<path d="M32.9453 14.1619V14.1483C32.948 12.8436 33.9354 11.7776 35.3459 11.7803C36.2112 11.7803 36.7293 12.0732 37.1552 12.4937L36.5096 13.2342C36.157 12.9114 35.7962 12.7134 35.3378 12.7134C34.5647 12.7134 34.0059 13.3536 34.0032 14.1402V14.1538C34.0032 14.9404 34.543 15.5968 35.3297 15.5996C35.8532 15.5996 36.176 15.3907 36.5395 15.0652L37.1796 15.7162C36.7049 16.2207 36.1814 16.5327 35.2944 16.53C33.9435 16.5273 32.9426 15.4802 32.9453 14.1619Z" fill="#231F20"/>
<path d="M37.9369 11.8667H38.946L38.9405 13.8767L40.8068 11.8748H42.0274L40.1531 13.8197L42.1007 16.4672H40.8882L39.4695 14.506L38.9378 15.0567V16.4591H37.9233L37.9342 11.8667H37.9369Z" fill="#231F20"/>
<path d="M44.8375 11.8828L46.7119 11.8882C47.8078 11.891 48.4669 12.542 48.4669 13.4805V13.4941C48.4642 14.5574 47.6369 15.1053 46.6061 15.1026H45.8384L45.8357 16.4779H44.8267L44.8375 11.8828ZM46.6414 14.2021C47.1459 14.2021 47.4416 13.9037 47.4416 13.5103V13.4968C47.4416 13.0438 47.1296 12.7997 46.6251 12.7997H45.8439L45.8412 14.2021H46.6414Z" fill="#231F20"/>
<path d="M49.1182 14.2024V14.1889C49.1209 12.8841 50.1544 11.8181 51.5703 11.8208C52.9863 11.8235 54.0008 12.8841 53.9981 14.1889V14.2024C53.9954 15.5072 52.9619 16.5732 51.5459 16.5705C50.13 16.5678 49.1155 15.5099 49.1182 14.2024ZM52.9429 14.2133V14.1997C52.9429 13.4131 52.3678 12.7539 51.5568 12.7539C50.7457 12.7539 50.1788 13.3941 50.1761 14.1807V14.1943C50.1761 14.9809 50.7484 15.6374 51.5622 15.6401C52.376 15.6428 52.9429 14.9999 52.9429 14.2133Z" fill="#231F20"/>
<path d="M54.9884 11.9102H55.9975L55.9866 16.5052H54.9775L54.9884 11.9102Z" fill="#231F20"/>
<path d="M57.2662 11.9155H58.1966L60.3395 14.7502L60.3477 11.9237H61.3432L61.3323 16.5187H60.4752L58.259 13.5919L58.2509 16.5106H57.2554L57.2662 11.9155Z" fill="#231F20"/>
<path d="M63.6328 12.865H62.2358V11.9292L66.0388 11.94V12.8705L64.6419 12.8677L64.631 16.527H63.6192L63.6301 12.865H63.6328Z" fill="#231F20"/>
<path d="M17.7877 8.38943C17.0662 9.28728 15.7533 9.42834 14.8582 8.7068C13.9603 7.98525 13.8193 6.67509 14.5408 5.77723C15.2623 4.88209 16.5725 4.73832 17.4704 5.45986C18.3682 6.17869 18.5093 7.49157 17.7877 8.38943Z" fill="#231F20"/>
<path d="M14.975 11.6444C14.3973 11.9102 13.7056 11.9048 13.1142 11.5685L11.4758 13.7439C11.6793 13.9826 11.7932 14.281 11.8068 14.5875C11.8176 14.8588 11.7471 15.1382 11.5898 15.385C11.1802 16.0198 10.3284 16.2042 9.69368 15.7919C9.62587 15.7485 9.56619 15.6997 9.50923 15.6454C9.49024 15.6292 9.47396 15.6129 9.45769 15.5939C9.41971 15.5532 9.38445 15.5125 9.3519 15.4691C9.33834 15.4501 9.32206 15.4311 9.3085 15.4122C9.26781 15.3525 9.23255 15.2928 9.20271 15.2277C9.19457 15.2114 9.18915 15.1951 9.18101 15.1762C9.15931 15.1246 9.14032 15.0704 9.12404 15.0161C9.11862 14.9971 9.11319 14.9754 9.10777 14.9564C9.09149 14.8886 9.08064 14.8208 9.07522 14.753C9.07522 14.734 9.07522 14.715 9.07522 14.696C9.07251 14.6336 9.07522 14.5713 9.07793 14.5089C9.07793 14.4953 9.07793 14.4817 9.08064 14.4709C9.08878 14.3977 9.10506 14.3271 9.12404 14.2566C9.12947 14.2403 9.13489 14.224 9.14032 14.2051C9.16473 14.1318 9.19186 14.0613 9.22983 13.9908L7.90882 12.998L7.49922 13.5432L5.98833 12.4066L7.12489 10.8957L8.63578 12.0323L8.22619 12.5775L9.56077 13.5812C9.97579 13.234 10.5726 13.158 11.0689 13.413L12.7019 11.2457C12.0509 10.6082 11.8854 9.58829 12.3656 8.76367C12.4605 8.60092 12.5744 8.45986 12.7019 8.33237C11.8149 7.72747 10.7407 7.36941 9.58518 7.3667C6.50642 7.36399 4.00816 9.84869 4.00002 12.9193C3.99188 15.9926 6.47659 18.4882 9.54992 18.4963C12.6232 18.5045 15.1188 16.0198 15.1269 12.9464C15.1269 12.4962 15.0754 12.0594 14.975 11.6417V11.6444Z" fill="#EE0C5D"/>
<path d="M67.0019 12.5776H66.8907V12.0459H66.6899V11.9429H67.2053V12.0487H67.0046V12.5803L67.0019 12.5776Z" fill="#231F20"/>
<path d="M67.6884 12.423H67.6857L67.4877 12.1246V12.5776H67.3765V11.9429H67.4958L67.6884 12.244L67.881 11.9456H68.0004V12.5803H67.8891V12.1246L67.6884 12.423Z" fill="#231F20"/>
</svg>
