<svg width="72" height="24" viewBox="0 0 72 24" fill="none" xmlns="http://www.w3.org/2000/svg">
<path d="M22.0299 9.27211V15.9821H19.9399V9.27211H17.1899V7.44611H24.8019V9.27211H22.0299ZM32.1939 12.0661V15.9821H30.1699V12.4841C30.1699 11.7361 29.7299 11.2301 29.0699 11.2301C28.2779 11.2301 27.7499 11.7801 27.7499 13.0121V15.9821H25.7039V6.80811H27.7499V10.1961C28.2559 9.69011 28.9159 9.40411 29.7299 9.40411C31.2039 9.40411 32.1939 10.4601 32.1939 12.0661ZM40.6199 13.2981H35.9339C36.1099 14.0681 36.6159 14.5301 37.3199 14.5301C37.7819 14.5301 38.3319 14.4201 38.6839 13.7821L40.4879 14.1561C39.9379 15.5201 38.7719 16.1801 37.3199 16.1801C35.4719 16.1801 33.9539 14.8161 33.9539 12.7921C33.9539 10.7681 35.4719 9.40411 37.3419 9.40411C39.1459 9.40411 40.5979 10.7021 40.6419 12.7921V13.2981H40.6199ZM35.9779 12.0661H38.6179C38.4199 11.3841 37.9139 11.0541 37.3419 11.0541C36.7479 11.0541 36.1759 11.4061 35.9779 12.0661Z" fill="white"/>
<path d="M49.618 15.9819H47.528V12.6159H43.942V15.9819H41.83V7.44594H43.942V10.7679H47.528V7.44594H49.618V15.9819ZM52.984 7.70995C52.984 8.36995 52.478 8.85395 51.796 8.85395C51.114 8.85395 50.63 8.36995 50.63 7.70995C50.63 7.09395 51.114 6.54395 51.796 6.54395C52.478 6.54395 52.984 7.07195 52.984 7.70995ZM50.762 15.9819V9.57995H52.808V15.9819H50.762ZM58.022 15.9819H55.954L53.314 9.57995H55.47L57.01 13.5399L58.528 9.57995H60.684L58.022 15.9819ZM67.086 13.2979H62.4C62.576 14.0679 63.082 14.5299 63.786 14.5299C64.248 14.5299 64.798 14.4199 65.15 13.7819L66.954 14.1559C66.404 15.4979 65.238 16.1579 63.786 16.1579C61.938 16.1579 60.42 14.7939 60.42 12.7699C60.42 10.7459 61.96 9.38194 63.808 9.38194C65.612 9.38194 67.064 10.6799 67.108 12.7699V13.2979H67.086ZM62.422 12.0659H65.062C64.864 11.3839 64.358 11.0539 63.786 11.0539C63.214 11.0539 62.62 11.4059 62.422 12.0659ZM10.414 9.00795C11.074 9.00795 11.646 9.64595 11.646 10.1739C11.646 10.7899 10.634 10.8339 10.436 10.8339C10.216 10.8339 9.22603 10.8119 9.22603 10.1739C9.16003 9.64595 9.73203 9.00795 10.414 9.00795ZM9.09403 15.4099H11.646L11.866 15.9819H8.87403L9.09403 15.4099ZM9.44603 14.5959L9.66603 14.0239H11.096L11.316 14.5959H9.44603ZM9.99603 13.2319L10.392 12.2639L10.788 13.2319H9.99603ZM7.00403 16.4219C6.82803 16.4219 6.67403 16.3999 6.54203 16.3119C5.92603 16.0479 5.61803 15.3219 5.88203 14.7059C6.58603 13.0339 8.67603 11.8239 9.82003 11.6479L9.07203 13.4739L8.50003 14.8379L8.14803 15.6519C7.92803 16.1139 7.48803 16.4219 7.00403 16.4219ZM10.37 18.2479C9.55603 18.2479 8.89603 17.6539 8.63203 16.7299L12.13 16.7519C11.866 17.6979 11.184 18.2479 10.37 18.2479ZM14.242 16.3339C14.088 16.3999 13.912 16.4219 13.78 16.4219C13.296 16.4219 12.834 16.1139 12.636 15.6519L12.284 14.8599L11.778 13.5839C11.778 13.5399 11.756 13.4739 11.734 13.4299L11.03 11.6479C12.174 11.8459 14.264 13.0559 14.946 14.7279C15.166 15.3879 14.88 16.0919 14.242 16.3339Z" fill="#F3D02F"/>
<path fill-rule="evenodd" clip-rule="evenodd" d="M8.93469 7.62725C9.06543 7.56355 9.22306 7.6179 9.28676 7.74865L9.70476 8.60665C9.76846 8.7374 9.7141 8.89503 9.58336 8.95873C9.45261 9.02242 9.29498 8.96807 9.23128 8.83732L8.81328 7.97932C8.74958 7.84857 8.80394 7.69094 8.93469 7.62725ZM11.8494 7.62725C11.9801 7.69094 12.0345 7.84857 11.9708 7.97932L11.5528 8.83732C11.4891 8.96807 11.3314 9.02242 11.2007 8.95873C11.0699 8.89503 11.0156 8.7374 11.0793 8.60665L11.4973 7.74865C11.561 7.6179 11.7186 7.56355 11.8494 7.62725Z" fill="#F3D02F"/>
<path fill-rule="evenodd" clip-rule="evenodd" d="M7.72223 6.0379C7.76935 5.95671 7.85612 5.90674 7.95 5.90674H12.834C12.9279 5.90674 13.0146 5.95671 13.0618 6.0379L15.5258 10.2839C15.5724 10.3642 15.5732 10.4631 15.5281 10.5442L14.4501 12.4802C14.3793 12.6073 14.219 12.6529 14.0919 12.5822C13.9648 12.5114 13.9192 12.351 13.9899 12.224L14.9951 10.4188L12.6823 6.43342H8.10165L5.79191 10.4136L6.87758 12.2162C6.95262 12.3408 6.91245 12.5026 6.78786 12.5777C6.66327 12.6527 6.50145 12.6125 6.42641 12.4879L5.26041 10.5519C5.21086 10.4697 5.21003 10.367 5.25823 10.2839L7.72223 6.0379Z" fill="#F3D02F"/>
</svg>
