<svg width="72" height="24" viewBox="0 0 72 24" fill="none" xmlns="http://www.w3.org/2000/svg">
<path d="M5.73223 12.508C5.73223 12.3164 5.78119 12.1557 5.88235 12.022C5.98279 11.8882 6.10339 11.8232 6.24883 11.8232H10.3537C10.5332 11.8232 10.7 11.8686 10.8574 11.9579C11.0163 12.0497 11.1535 12.173 11.2706 12.3289C11.3898 12.4867 11.4816 12.6732 11.5439 12.8847C11.6089 13.1023 11.6411 13.3261 11.6411 13.5642V13.8796C11.6411 14.1159 11.609 14.3414 11.5439 14.5567C11.4816 14.7711 11.3898 14.9569 11.2706 15.1147C11.1533 15.2701 11.0163 15.3946 10.8574 15.4859C10.7 15.5757 10.5332 15.6202 10.3537 15.6202H4.76617C4.47493 15.6202 4.21285 15.5257 3.98515 15.3343C3.75619 15.1442 3.56125 14.9 3.39979 14.6008C3.23905 14.2981 3.11647 13.9643 3.02809 13.5932C2.94295 13.2233 2.90137 12.8611 2.90137 12.508C2.90137 12.1451 2.94763 11.7822 3.03475 11.4146C3.12457 11.0491 3.25453 10.7173 3.42733 10.4162C3.59689 10.1165 3.80587 9.87275 4.04959 9.68033C4.29133 9.49313 4.56799 9.39575 4.87417 9.39575H11.1266C11.2687 9.39575 11.3898 9.46073 11.4917 9.59375C11.5923 9.72749 11.6411 9.88985 11.6411 10.0807C11.6411 10.2688 11.5923 10.4329 11.4917 10.5668C11.3898 10.6995 11.2687 10.7645 11.1266 10.7645H5.47033C5.22121 10.7645 5.01763 10.826 4.86481 10.9456C4.71145 11.0631 4.58959 11.2096 4.49977 11.379C4.41211 11.5504 4.35109 11.739 4.31761 11.9435C4.28539 12.1494 4.26955 12.3359 4.26955 12.5078C4.26955 12.6791 4.28539 12.8674 4.31761 13.0724C4.35109 13.2766 4.41211 13.4647 4.49977 13.6349C4.58959 13.8086 4.71145 13.9528 4.86481 14.0722C5.01763 14.1895 5.04103 14.2495 5.29015 14.2495H10.3114C10.3978 14.2495 10.4734 14.1962 10.5418 14.0927C10.6102 13.9892 10.6424 13.8641 10.6424 13.7206C10.6424 13.5779 10.6149 13.4519 10.5521 13.3495C10.4932 13.2469 10.412 13.1936 10.3116 13.1936H6.24901C6.10357 13.1936 5.98297 13.1277 5.88253 12.992C5.78119 12.8611 5.73223 12.6964 5.73223 12.508Z" fill="white"/>
<path d="M30.0009 13.7163C30.2003 13.8994 30.4035 14.1042 30.6125 14.322C30.6915 14.3987 30.7585 14.4862 30.8163 14.5855C30.873 14.6861 30.9016 14.8026 30.9016 14.9345C30.9016 15.1246 30.8524 15.287 30.7525 15.4198C30.6521 15.5532 30.5304 15.6202 30.3877 15.6202C30.2662 15.6202 30.1443 15.5532 30.0239 15.4198C29.7307 15.1334 29.4292 14.8597 29.1223 14.59C28.8141 14.327 28.4939 14.0875 28.1618 13.8796C27.8295 13.6704 27.4837 13.5043 27.127 13.3783C26.7708 13.2551 26.3989 13.1938 26.0131 13.1938H24.0585C23.966 13.2125 23.8864 13.2695 23.822 13.3669C23.7592 13.4587 23.7257 13.5782 23.7257 13.7208V14.9344C23.7257 15.1244 23.6733 15.2868 23.5704 15.4196C23.4665 15.553 23.2269 15.62 23.0916 15.62C22.9483 15.62 22.7679 15.553 22.6673 15.4196C22.5661 15.2868 22.5159 15.1243 22.5159 14.9344V13.564C22.5159 13.3259 22.4967 13.1212 22.5159 12.8941C22.5307 12.7216 22.468 10.3352 22.5159 10.0807C22.5516 9.89057 23.4872 9.87383 23.6454 9.78203C23.8035 9.69293 23.6285 11.8232 23.8128 11.8232H29.4985C29.605 11.8232 29.7001 11.7712 29.7805 11.6715C29.865 11.5752 29.9049 11.4469 29.9049 11.2933C29.9049 11.1515 29.8648 11.0258 29.7805 10.9222C29.7001 10.819 29.6049 10.7645 29.4985 10.7645H23.0309C22.8876 10.7645 22.7677 10.6995 22.6671 10.5668C22.566 10.4329 22.5159 10.2689 22.5159 10.0807C22.5159 9.88967 22.566 9.72749 22.6671 9.59375C22.7677 9.46073 22.8874 9.39575 23.0309 9.39575H29.4544C29.6558 9.39575 29.8435 9.44651 30.019 9.54641C30.192 9.64541 30.347 9.78347 30.4786 9.95123C30.6125 10.1233 30.7137 10.326 30.7889 10.5532C30.8647 10.7814 30.9023 11.0258 30.9023 11.2933C30.9023 11.5615 30.8647 11.8087 30.7889 12.0369C30.7137 12.2644 30.6125 12.4649 30.4786 12.6381C30.3472 12.8084 30.192 12.9446 30.019 13.0429C29.8435 13.1437 29.6558 13.1936 29.4544 13.1936H29.4126C29.6043 13.3554 29.802 13.5291 30.0009 13.7163Z" fill="white"/>
<path d="M41.7778 12.508C41.7778 12.1451 41.8207 11.7822 41.909 11.4146C42.0016 11.0491 42.1296 10.7173 42.3029 10.4162C42.4717 10.1165 42.6807 9.87275 42.9237 9.68033C43.1664 9.49313 43.4421 9.39575 43.7497 9.39575H50.0015C50.1428 9.39575 50.2661 9.46073 50.3664 9.59375C50.4677 9.72749 50.5145 9.88985 50.5145 10.0807C50.5145 10.2688 50.4675 10.4329 50.3664 10.5668C50.2659 10.6995 50.1428 10.7645 50.0015 10.7645H44.3351C44.0852 10.7645 43.8817 10.826 43.7289 10.9456C43.5762 11.0631 43.4544 11.2096 43.3633 11.379C43.2758 11.5504 43.2146 11.739 43.1818 11.9435C43.1494 12.1494 43.1354 12.3359 43.1354 12.5078C43.1354 12.6791 43.1494 12.8674 43.1818 13.0724C43.2146 13.2766 43.2756 13.4647 43.3633 13.6349C43.4544 13.8086 43.5764 13.9528 43.7289 14.0722C43.8819 14.1895 43.9053 14.2495 44.1549 14.2495H50.0015C50.1428 14.2495 50.2661 14.3164 50.3664 14.4493C50.4677 14.5817 50.5145 14.7437 50.5145 14.9342C50.5145 15.1243 50.4675 15.2866 50.3664 15.4195C50.2659 15.5528 50.1428 15.6198 50.0015 15.6198H43.6405C43.3491 15.6198 43.0879 15.5253 42.8594 15.334C42.6317 15.1439 42.4339 14.8996 42.2739 14.6005C42.113 14.2977 41.9906 13.964 41.9033 13.5928C41.8196 13.2235 41.7778 12.8611 41.7778 12.508Z" fill="white"/>
<path d="M62.2924 15.4723C62.1135 15.3699 61.9574 15.236 61.8253 15.0633C61.6914 14.8934 61.5868 14.694 61.5078 14.4629C61.4299 14.2362 61.3906 13.9896 61.3906 13.7209V10.0808C61.3906 9.88977 61.4408 9.72759 61.5406 9.59385C61.6423 9.46083 61.9265 9.33105 62.0708 9.33105C62.2069 9.33105 62.5205 9.46101 62.6251 9.59385C62.7295 9.72759 62.7818 9.88995 62.7818 10.0808V13.7209C62.7818 13.8645 62.8213 13.9895 62.9032 14.093C62.986 14.1963 63.0833 14.2497 63.1885 14.2497H69.264C69.4062 14.2497 69.5275 14.3167 69.6271 14.4495C69.7277 14.582 69.7774 14.744 69.7774 14.9345C69.7774 15.1245 69.7277 15.2869 69.6271 15.4197C69.5275 15.5531 69.4062 15.6201 69.264 15.6201H62.8601C62.66 15.6201 62.4712 15.5686 62.2924 15.4723Z" fill="white"/>
<path d="M13.9777 13.0726C14.0071 13.2767 14.0708 13.4648 14.1593 13.6351C14.2497 13.8088 14.3696 13.953 14.5242 14.0723C14.677 14.1897 14.8801 14.2496 15.1285 14.2496H19.0372C19.2791 14.2496 19.4805 14.1897 19.6387 14.0723C19.7962 13.953 19.9201 13.8088 20.0086 13.6351C20.0975 13.4648 20.1587 13.2766 20.1901 13.0726C20.2214 12.8674 20.2388 12.6791 20.2388 12.508V10.0947C20.2388 9.90587 20.2898 9.74441 20.3897 9.61157C20.4908 9.47765 20.6797 9.39575 20.8224 9.39575C20.9662 9.39575 21.1973 9.47765 21.2985 9.61157C21.3977 9.74441 21.4492 9.90587 21.4492 10.0947V12.5078C21.4492 12.8699 21.4042 13.2348 21.3158 13.6006C21.2247 13.966 21.0947 14.2979 20.9227 14.6006C20.7511 14.8998 20.5441 15.1441 20.3009 15.3341C20.0597 15.5255 19.7804 15.62 19.4758 15.62H14.5845C14.2918 15.6009 14.0312 15.4945 13.8028 15.2985C13.5749 15.1066 13.3781 14.8595 13.2165 14.5641C13.0565 14.2712 12.9332 13.9417 12.8482 13.5781C12.7604 13.2161 12.7183 12.8609 12.7183 12.5078V10.0947C12.7183 9.90587 12.7699 9.74441 12.8698 9.61157C12.9681 9.47765 13.2053 9.41177 13.3472 9.41177C13.4905 9.41177 13.6795 9.47765 13.7779 9.61157C13.8791 9.74441 13.9273 9.90587 13.9273 10.0947V12.5078C13.9273 12.6791 13.9441 12.8674 13.9777 13.0726Z" fill="white"/>
<path d="M33.2028 13.0726C33.2323 13.2767 33.2961 13.4648 33.3846 13.6351C33.475 13.8088 33.5949 13.953 33.7495 14.0723C33.9021 14.1897 34.1052 14.2496 34.3536 14.2496H38.2623C38.5042 14.2496 38.7058 14.1897 38.8638 14.0723C39.0213 13.953 39.1452 13.8088 39.2337 13.6351C39.3226 13.4648 39.3837 13.2766 39.4153 13.0726C39.4467 12.8674 39.4641 12.6791 39.4641 12.508V10.0947C39.4641 9.90587 39.5151 9.74441 39.615 9.61157C39.7159 9.47765 39.9049 9.39575 40.0477 9.39575C40.1915 9.39575 40.4224 9.47765 40.5238 9.61157C40.623 9.74441 40.6746 9.90587 40.6746 10.0947V12.5078C40.6746 12.8699 40.6296 13.2348 40.5412 13.6006C40.4502 13.966 40.3202 14.2979 40.1479 14.6006C39.9764 14.8998 39.7696 15.1441 39.5264 15.3341C39.2852 15.5255 39.0058 15.62 38.7013 15.62H33.8098C33.5171 15.6009 33.2565 15.4945 33.028 15.2985C32.8002 15.1066 32.6034 14.8595 32.4418 14.5641C32.2818 14.2712 32.1586 13.9417 32.0735 13.5781C31.9857 13.2161 31.9434 12.8609 31.9434 12.5078V10.0947C31.9434 9.90587 31.995 9.74441 32.0949 9.61157C32.1934 9.47765 32.4303 9.41177 32.5723 9.41177C32.7156 9.41177 32.9046 9.47765 33.003 9.61157C33.1044 9.74441 33.1524 9.90587 33.1524 10.0947V12.5078C33.1526 12.6791 33.1693 12.8674 33.2028 13.0726Z" fill="white"/>
<path d="M52.8483 13.0726C52.8777 13.2767 52.9414 13.4648 53.0299 13.6351C53.1203 13.8088 53.2402 13.953 53.3948 14.0723C53.5476 14.1897 53.7505 14.2496 53.9991 14.2496H57.9078C58.1497 14.2496 58.3511 14.1897 58.5093 14.0723C58.6668 13.953 58.7905 13.8088 58.8792 13.6351C58.9681 13.4648 59.0292 13.2766 59.0607 13.0726C59.092 12.8674 59.1096 12.6791 59.1096 12.508V10.0947C59.1096 9.90587 59.1606 9.74441 59.2605 9.61157C59.3614 9.47765 59.5504 9.39575 59.6932 9.39575C59.837 9.39575 60.0681 9.47765 60.1693 9.61157C60.2685 9.74441 60.3201 9.90587 60.3201 10.0947V12.5078C60.3201 12.8699 60.2751 13.2348 60.1869 13.6006C60.0958 13.966 59.9657 14.2979 59.7936 14.6006C59.6221 14.8998 59.4151 15.1441 59.1719 15.3341C58.9307 15.5255 58.6515 15.62 58.3468 15.62H53.4555C53.1626 15.6009 52.9021 15.4945 52.6735 15.2985C52.4457 15.1066 52.2489 14.8595 52.0875 14.5641C51.9274 14.2712 51.8041 13.9417 51.719 13.5781C51.6312 13.2161 51.5889 12.8609 51.5889 12.5078V10.0947C51.5889 9.90587 51.6405 9.74441 51.7404 9.61157C51.8389 9.47765 52.0759 9.41177 52.2178 9.41177C52.3612 9.41177 52.5502 9.47765 52.6487 9.61157C52.7497 9.74441 52.7981 9.90587 52.7981 10.0947V12.5078C52.7979 12.6791 52.8147 12.8674 52.8483 13.0726Z" fill="white"/>
</svg>
