<svg width="72" height="24" viewBox="0 0 72 24" fill="none" xmlns="http://www.w3.org/2000/svg">
    <g clip-path="url(#clip0_2626_263)">
        <path d="M9.00974 7.00084H8.4228C8.07095 7.00084 7.87584 7.20485 7.87584 7.57274V13.6895L3.88878 7.38211C3.74612 7.10953 3.55036 7.00084 3.23786 7.00084H2.53417C2.18232 7.00084 2 7.20485 2 7.57274V16.2425C2 16.6237 2.18232 16.8147 2.53417 16.8147H3.13343C3.48527 16.8147 3.66759 16.6241 3.66759 16.2425V9.98428L7.66745 16.4333C7.81091 16.7059 8.0193 16.8162 8.30589 16.8162H9.00958C9.35983 16.8162 9.55655 16.6256 9.55655 16.2443V7.57358C9.55655 7.20569 9.35983 7.00167 9.00958 7.00167M17.0015 15.3027H13.0768V12.5589H15.8532C16.205 12.5589 16.4004 12.3682 16.4004 11.987V11.6054C16.4004 11.2375 16.205 11.0468 15.8535 11.0468H13.0768V8.51288H16.7928C17.1446 8.51288 17.3397 8.32224 17.3397 7.95435V7.57308C17.3397 7.20519 17.1446 7.00084 16.7928 7.00084H11.9432C11.5913 7.00084 11.409 7.20485 11.409 7.57274V16.2425C11.409 16.6237 11.5913 16.8147 11.9432 16.8147H17.0015C17.353 16.8147 17.5484 16.6241 17.5484 16.2425V15.8612C17.5484 15.4933 17.353 15.3027 17.0015 15.3027ZM26.0487 7.00084H19.4036C19.039 7.00084 18.8563 7.20485 18.8563 7.57274V7.95435C18.8563 8.32224 19.0387 8.51288 19.4036 8.51288H21.8921V16.2425C21.8921 16.6237 22.0744 16.8147 22.4263 16.8147H23.0126C23.3772 16.8147 23.5596 16.6241 23.5596 16.2425V8.51288H26.0481C26.3999 8.51288 26.5822 8.32224 26.5822 7.95435V7.57308C26.5822 7.20519 26.3999 7.00084 26.0481 7.00084M29.1897 9.71154C29.1897 9.05769 29.7367 8.62191 30.5967 8.62191C31.3131 8.62191 31.8214 8.92124 32.1992 9.15201C32.473 9.30084 32.7464 9.35602 32.9419 8.96137L33.177 8.51154C33.3337 8.21221 33.2953 7.95301 33.0074 7.73395C32.6171 7.43478 31.7182 7 30.6227 7C28.8645 7 27.5089 8.10368 27.5089 9.80602C27.5089 12.8171 31.8219 12.4356 31.8219 14.2742C31.8219 14.9286 31.3005 15.3779 30.4409 15.3779C29.5293 15.3779 28.8646 14.888 28.5649 14.6699C28.2393 14.4793 28.0179 14.4926 27.8092 14.792L27.523 15.2279C27.2623 15.5958 27.3925 15.8271 27.6007 16.0177C28.0571 16.3856 29.1253 16.9988 30.441 16.9988C32.3826 16.9988 33.5029 15.7045 33.5029 14.138C33.5029 11.0587 29.1896 11.5219 29.1896 9.70987M42.3998 14.6413C42.1919 14.3286 41.9312 14.3286 41.645 14.546C41.2147 14.8732 40.4199 15.3905 39.3771 15.3905C37.3828 15.3905 36.2633 13.7425 36.2633 11.9306C36.2633 10.1463 37.3444 8.60619 39.3644 8.60619C40.3159 8.60619 41.0452 9.01539 41.4482 9.28796C41.7601 9.49264 42.008 9.46522 42.1903 9.15201L42.4238 8.75569C42.6061 8.45636 42.5933 8.18378 42.3199 7.96472C41.8241 7.59682 40.8085 6.99649 39.2961 6.99649C36.4973 6.9985 34.5301 9.15067 34.5301 11.9567C34.5301 14.8037 36.4061 16.9968 39.3121 16.9968C40.9533 16.9968 42.0613 16.2343 42.5818 15.7978C42.8425 15.5666 42.8553 15.2804 42.6602 15.008L42.3995 14.6401M61.5005 7.00117H60.9007C60.5489 7.00117 60.3666 7.20519 60.3666 7.57308V13.349C60.3666 14.6567 59.5461 15.3925 58.3083 15.3925C57.0704 15.3925 56.2627 14.6567 56.2627 13.349V7.57325C56.2627 7.20535 56.0804 7.00134 55.7155 7.00134H55.1293C54.7775 7.00134 54.5952 7.20535 54.5952 7.57325V13.3629C54.5952 15.5288 56.0803 17 58.3212 17C60.549 17 62.0348 15.5288 62.0348 13.3629V7.57274C62.0348 7.20485 61.8525 7.00084 61.5006 7.00084M70.4663 7.00084H63.8212C63.4566 7.00084 63.2743 7.20485 63.2743 7.57274V7.95435C63.2743 8.32224 63.4566 8.51288 63.8212 8.51288H66.3097V16.2425C66.3097 16.6237 66.4921 16.8147 66.8439 16.8147H67.4308C67.7971 16.8147 67.9794 16.6241 67.9794 16.2425V8.51288H70.4679C70.8198 8.51288 71.0021 8.32224 71.0021 7.95435V7.57308C71.0021 7.20519 70.8198 7.00084 70.4679 7.00084" fill="#474A50"/>
        <path d="M48.3092 7.00084H44.6922C44.2668 7.00084 43.9223 7.36121 43.9223 7.80569C43.9223 8.25051 44.2669 8.61071 44.6922 8.61071H48.14C48.1262 8.61205 48.112 8.61456 48.0981 8.61606C48.1678 8.61138 48.238 8.6082 48.3092 8.6082C50.0812 8.6082 51.3583 10.0524 51.3583 11.9323C51.3583 13.8938 50.0814 15.3925 48.3093 15.3925C46.5389 15.3925 45.2611 13.8942 45.2611 11.9323C45.2611 10.76 45.7585 9.75753 46.5613 9.16874C46.5501 9.1771 46.5373 9.18379 46.5261 9.19382H45.4434C45.0931 9.19382 44.8005 8.94633 44.7077 8.61021C43.964 9.47977 43.5322 10.6403 43.5322 11.9313C43.5322 14.7774 45.5122 16.9982 48.3138 16.9982C51.1158 16.9982 53.0957 14.7774 53.0957 11.9296C53.0957 9.16372 51.1158 6.99817 48.3138 6.99817" fill="#80CC28"/>
        <path d="M44.7055 8.61069L44.7046 8.61159C44.7046 8.61159 44.7059 8.61159 44.7064 8.61069" fill="#80CC28"/>
        <path d="M45.4408 9.19398H46.5244C46.5356 9.18512 46.5484 9.17726 46.5596 9.1689C46.993 8.85117 47.5143 8.65468 48.0965 8.61605C48.1093 8.61438 48.1237 8.61204 48.1381 8.61053H44.7028V8.61221L44.7012 8.61388C44.7939 8.95 45.0866 9.19749 45.4369 9.19749" fill="#6A9E47"/>
        <path d="M70.219 16.0844H70.291C70.3748 16.0844 70.4429 16.0553 70.4429 15.9841C70.4429 15.9214 70.3988 15.8794 70.303 15.8794C70.263 15.8794 70.2358 15.8828 70.2198 15.8878V16.0834L70.219 16.0844ZM70.2148 16.4734H70.0629V15.7878C70.1229 15.7761 70.2068 15.7677 70.3148 15.7677C70.4387 15.7677 70.4949 15.7895 70.5429 15.8179C70.5796 15.848 70.6068 15.9015 70.6068 15.9684C70.6068 16.0436 70.5508 16.1022 70.4709 16.1272V16.1356C70.5349 16.1607 70.5716 16.2109 70.5908 16.3028C70.6116 16.4082 70.6228 16.45 70.6388 16.4751H70.4757C70.4565 16.45 70.4437 16.3881 70.4245 16.3079C70.4133 16.2326 70.3733 16.1992 70.2886 16.1992H70.2166V16.4751L70.2148 16.4734ZM69.811 16.1139C69.811 16.4199 70.0269 16.6624 70.3228 16.6624C70.6107 16.6624 70.8227 16.4199 70.8227 16.1189C70.8227 15.8145 70.6116 15.567 70.3189 15.567C70.0279 15.567 69.812 15.8145 69.812 16.1155L69.811 16.1139ZM70.9907 16.1139C70.9907 16.5035 70.6996 16.8079 70.3189 16.8079C69.9431 16.8079 69.644 16.5035 69.644 16.1139C69.644 15.7343 69.9447 15.4283 70.3205 15.4283C70.7012 15.4283 70.9923 15.7343 70.9923 16.1139" fill="#474A50"/>
    </g>
    <defs>
        <clipPath id="clip0_2626_263">
            <rect width="69" height="10" fill="white" transform="translate(2 7)"/>
        </clipPath>
    </defs>
</svg>
