<svg width="72" height="24" viewBox="0 0 72 24" fill="none" xmlns="http://www.w3.org/2000/svg">
    <g clip-path="url(#clip0_2603_1439)">
        <path d="M10.294 11.9351H5.64941V13.019H10.294V11.9351Z" fill="#ED732E"/>
        <path d="M12.6209 8H9.54785L10.2893 9.08637L12.53 9.81062C12.7278 9.87529 12.9003 10.0041 13.022 10.1779C13.1438 10.3518 13.2083 10.5615 13.2062 10.7763V14.2382C13.2076 14.4528 13.1427 14.6622 13.0211 14.8359C12.8995 15.0096 12.7274 15.1385 12.53 15.2039L10.2893 15.9136L9.54785 17H12.6209C12.9267 17.0003 13.2295 16.938 13.5118 16.8167C13.7942 16.6953 14.0506 16.5173 14.2662 16.2929C14.4819 16.0685 14.6525 15.8021 14.7683 15.5092C14.8841 15.2162 14.9428 14.9024 14.9409 14.5858V10.4142C14.9409 9.77597 14.6969 9.16374 14.2621 8.71135C13.8274 8.25895 13.2373 8.00319 12.6209 8Z" fill="#ED732E"/>
        <path d="M3.33163 8H6.3954L5.66327 9.08637L3.42257 9.81062C3.22455 9.87521 3.05177 10.0039 2.92964 10.1777C2.8075 10.3515 2.74245 10.5613 2.74406 10.7763V14.2382C2.74319 14.453 2.80852 14.6624 2.93055 14.8361C3.05258 15.0098 3.22494 15.1386 3.42257 15.2039L5.66327 15.9136L6.40472 17H3.33163C2.71325 17 2.12019 16.7457 1.68292 16.2929C1.24565 15.8402 1 15.2261 1 14.5858V10.4142C1 9.77389 1.24565 9.15984 1.68292 8.70709C2.12019 8.25435 2.71325 8 3.33163 8Z" fill="#ED732E"/>
        <path d="M52.5732 14.2768C52.5586 14.6448 52.4071 14.9926 52.1505 15.2476C51.8939 15.5025 51.552 15.6449 51.1964 15.6449C50.8407 15.6449 50.4988 15.5025 50.2422 15.2476C49.9856 14.9926 49.8342 14.6448 49.8195 14.2768V10.8439C49.8342 10.476 49.9856 10.1281 50.2422 9.87315C50.4988 9.61817 50.8407 9.47579 51.1964 9.47579C51.552 9.47579 51.8939 9.61817 52.1505 9.87315C52.4071 10.1281 52.5586 10.476 52.5732 10.8439V10.897H53.6271V10.856C53.6075 10.202 53.3428 9.58153 52.8891 9.12608C52.4354 8.67064 51.8283 8.41594 51.1964 8.41594C50.5644 8.41594 49.9573 8.67064 49.5036 9.12608C49.0499 9.58153 48.7852 10.202 48.7656 10.856V14.2768C48.7656 14.944 49.0216 15.5838 49.4772 16.0556C49.9329 16.5274 50.5508 16.7924 51.1952 16.7924C51.8395 16.7924 52.4575 16.5274 52.9131 16.0556C53.3688 15.5838 53.6247 14.944 53.6247 14.2768V14.231H52.5708L52.5732 14.2768Z" fill="#ED732E"/>
        <path d="M58.0482 10.5807C57.5118 10.575 56.9941 10.784 56.603 11.1641C56.212 11.5443 55.9779 12.0661 55.9497 12.6207V14.7283C56.0017 15.2643 56.2441 15.7612 56.6299 16.1225C57.0157 16.4839 57.5174 16.684 58.0377 16.684C58.5579 16.684 59.0597 16.4839 59.4455 16.1225C59.8313 15.7612 60.0737 15.2643 60.1257 14.7283V12.6183C60.0981 12.0675 59.8671 11.5488 59.4804 11.1695C59.0936 10.7902 58.5809 10.5794 58.0482 10.5807ZM59.0811 14.6052C59.0811 14.8888 58.9723 15.1608 58.7786 15.3614C58.5848 15.562 58.3221 15.6746 58.0482 15.6746C57.7742 15.6746 57.5115 15.562 57.3178 15.3614C57.1241 15.1608 57.0153 14.8888 57.0153 14.6052V12.7438C57.0153 12.4602 57.1241 12.1882 57.3178 11.9876C57.5115 11.787 57.7742 11.6744 58.0482 11.6744C58.3221 11.6744 58.5848 11.787 58.7786 11.9876C58.9723 12.1882 59.0811 12.4602 59.0811 12.7438V14.6052Z" fill="#ED732E"/>
        <path d="M55.1986 8.3573H54.1494V16.6331H55.1986V8.3573Z" fill="#ED732E"/>
        <path d="M26.2538 10.5807H25.2046V16.633H26.2538V10.5807Z" fill="#ED732E"/>
        <path d="M24.1557 8.3573H23.1064V16.6331H24.1557V8.3573Z" fill="#ED732E"/>
        <path d="M20.4573 8.3573H19.1633L17.0415 16.621H18.0884L18.6527 14.4241H20.9843L21.5462 16.5968H22.5931L20.4573 8.36213V8.3573ZM20.6905 13.3594H18.9278L19.8092 9.93133L20.6905 13.3594Z" fill="#ED732E"/>
        <path d="M64.0171 14.7186C64.0171 15.0029 63.908 15.2755 63.7139 15.4766C63.5197 15.6776 63.2564 15.7905 62.9818 15.7905C62.7073 15.7905 62.444 15.6776 62.2498 15.4766C62.0557 15.2755 61.9466 15.0029 61.9466 14.7186V10.5807H60.895V14.8973C60.8943 15.1912 60.9605 15.4812 61.088 15.7437C61.2156 16.0063 61.4011 16.2341 61.6294 16.4087C61.8578 16.5833 62.1226 16.6999 62.4025 16.7489C62.6824 16.798 62.9695 16.7781 63.2406 16.691C63.341 16.6609 63.438 16.6196 63.5298 16.5679C63.6901 16.4825 63.8371 16.3726 63.9658 16.242L64.0124 16.1961V16.6403H65.071V10.5807H64.0171V14.7186Z" fill="#ED732E"/>
        <path d="M26.2538 8.3573H25.2046V9.44609H26.2538V8.3573Z" fill="#ED732E"/>
        <path d="M29.6628 10.5735C29.1899 10.5733 28.736 10.7659 28.3991 11.1094L28.3548 11.1553V8.3573H27.3032V16.6331H28.3548V16.1888L28.3991 16.2347C28.6537 16.492 28.9758 16.6658 29.3253 16.7345C29.6747 16.8032 30.036 16.7638 30.3639 16.621C30.6919 16.4783 30.9719 16.2387 31.169 15.9321C31.3661 15.6255 31.4716 15.2656 31.4722 14.8973V12.4469C31.4716 11.9502 31.2807 11.4741 30.9416 11.1229C30.6024 10.7717 30.1425 10.5741 29.6628 10.5735ZM30.4346 12.6449V14.6993C30.4346 14.9842 30.3253 15.2575 30.1307 15.459C29.9361 15.6604 29.6722 15.7736 29.397 15.7736C29.1218 15.7736 28.8579 15.6604 28.6634 15.459C28.4688 15.2575 28.3595 14.9842 28.3595 14.6993V12.6449C28.3595 12.3599 28.4688 12.0867 28.6634 11.8852C28.8579 11.6837 29.1218 11.5706 29.397 11.5706C29.6722 11.5706 29.9361 11.6837 30.1307 11.8852C30.3253 12.0867 30.4346 12.3599 30.4346 12.6449Z" fill="#ED732E"/>
        <path d="M39.4465 10.5735C38.9728 10.5727 38.5179 10.7653 38.1805 11.1094L38.1361 11.1553V8.3573H37.0869V16.6331H38.1361V16.1888L38.1805 16.2347C38.435 16.492 38.7572 16.6658 39.1066 16.7345C39.4561 16.8032 39.8174 16.7638 40.1453 16.621C40.4732 16.4783 40.7532 16.2387 40.9504 15.9321C41.1475 15.6255 41.2529 15.2656 41.2535 14.8973V12.4469C41.2529 11.9507 41.0624 11.4749 40.7237 11.1238C40.3851 10.7726 39.9258 10.5748 39.4465 10.5735ZM40.216 12.6449V14.6969C40.216 14.9818 40.1066 15.2551 39.9121 15.4565C39.7175 15.658 39.4536 15.7712 39.1784 15.7712C38.9032 15.7712 38.6393 15.658 38.4447 15.4565C38.2501 15.2551 38.1408 14.9818 38.1408 14.6969V12.6449C38.1408 12.3599 38.2501 12.0867 38.4447 11.8852C38.6393 11.6837 38.9032 11.5706 39.1784 11.5706C39.4536 11.5706 39.7175 11.6837 39.9121 11.8852C40.1066 12.0867 40.216 12.3599 40.216 12.6449Z" fill="#ED732E"/>
        <path d="M68.9485 8.3573V11.1553L68.9042 11.1094C68.65 10.851 68.3278 10.6762 67.9779 10.6068C67.6281 10.5375 67.2662 10.5767 66.9379 10.7196C66.6095 10.8625 66.3292 11.1027 66.1323 11.41C65.9354 11.7174 65.8306 12.0781 65.8311 12.4469V14.9045C65.833 15.2722 65.9395 15.6312 66.1371 15.9366C66.3348 16.2421 66.6149 16.4806 66.9425 16.6225C67.2701 16.7643 67.6309 16.8031 67.9797 16.7342C68.3285 16.6652 68.65 16.4915 68.9042 16.2347L68.9485 16.1888V16.6331H70V8.3573H68.9485ZM68.9485 12.6449V14.6969C68.9485 14.838 68.9216 14.9777 68.8695 15.108C68.8173 15.2384 68.7409 15.3568 68.6446 15.4565C68.5482 15.5563 68.4338 15.6354 68.3079 15.6894C68.1821 15.7434 68.0471 15.7712 67.9109 15.7712C67.7746 15.7712 67.6397 15.7434 67.5138 15.6894C67.3879 15.6354 67.2735 15.5563 67.1772 15.4565C67.0808 15.3568 67.0044 15.2384 66.9523 15.108C66.9001 14.9777 66.8733 14.838 66.8733 14.6969V12.6449C66.8733 12.5038 66.9001 12.3641 66.9523 12.2337C67.0044 12.1034 67.0808 11.985 67.1772 11.8852C67.2735 11.7854 67.3879 11.7063 67.5138 11.6523C67.6397 11.5983 67.7746 11.5706 67.9109 11.5706C68.0471 11.5706 68.1821 11.5983 68.3079 11.6523C68.4338 11.7063 68.5482 11.7854 68.6446 11.8852C68.7409 11.985 68.8173 12.1034 68.8695 12.2337C68.9216 12.3641 68.9485 12.5038 68.9485 12.6449Z" fill="#ED732E"/>
        <path d="M36.3312 12.628C36.3282 12.5568 36.3212 12.4858 36.3102 12.4155V12.3865C36.2573 12.06 36.1346 11.7499 35.9511 11.4788C35.7736 11.2166 35.541 10.9993 35.2709 10.8434C35.0007 10.6874 34.7 10.5968 34.3912 10.5783H34.27C33.7807 10.5773 33.3064 10.7534 32.9292 11.076C32.552 11.3987 32.2955 11.8478 32.2042 12.3455H33.2347C33.2811 12.102 33.4074 11.8825 33.5923 11.7245C33.7772 11.5665 34.0093 11.4797 34.249 11.4788C34.5153 11.4823 34.7701 11.5914 34.9609 11.7836C35.1518 11.9759 35.2642 12.2366 35.2749 12.5121V13.019H33.785C33.3445 13.0162 32.9182 13.1801 32.5862 13.4798C32.2542 13.7795 32.0394 14.1945 31.9821 14.6467C31.9249 15.0989 32.0291 15.5572 32.2752 15.9354C32.5213 16.3136 32.8924 16.5858 33.3187 16.7006H33.3467L33.4469 16.7248L33.5728 16.7441H33.5985C33.6891 16.754 33.7802 16.7588 33.8713 16.7586C34.0854 16.7628 34.2988 16.731 34.5032 16.6644C34.7727 16.5767 35.0181 16.4236 35.219 16.2178L35.2656 16.1719V16.6161H36.3148V15.8919L36.3312 12.628ZM33.9855 13.835H35.2749V14.6003C35.2751 14.8825 35.1798 15.1558 35.0056 15.3728C34.8314 15.5898 34.5893 15.7367 34.3213 15.7881C34.2449 15.8068 34.1667 15.8165 34.0881 15.8171C33.9008 15.8154 33.7173 15.7621 33.5565 15.6626C33.5094 15.6362 33.4642 15.6063 33.4213 15.5732C33.362 15.5239 33.308 15.4681 33.2604 15.4067L33.2487 15.3922C33.1415 15.2489 33.0754 15.0774 33.058 14.8971C33.0405 14.7168 33.0724 14.535 33.15 14.3726C33.2275 14.2102 33.3477 14.0736 33.4967 13.9785C33.6457 13.8835 33.8175 13.8338 33.9925 13.835H33.9855Z" fill="#ED732E"/>
        <path d="M46.1266 12.6328C46.1236 12.5616 46.1166 12.4907 46.1056 12.4203V12.3914C46.0527 12.0656 45.93 11.7563 45.7465 11.486C45.5685 11.2241 45.3359 11.007 45.0659 10.8507C44.7959 10.6944 44.4954 10.603 44.1867 10.5832H44.0654C43.5768 10.5819 43.103 10.7573 42.7259 11.079C42.3488 11.4007 42.0919 11.8487 41.9996 12.3455H43.0279C43.0753 12.0868 43.2131 11.8553 43.4151 11.6954C43.6171 11.5354 43.8689 11.4582 44.1224 11.4785C44.376 11.4988 44.6133 11.6153 44.7891 11.8055C44.9649 11.9958 45.0667 12.2465 45.075 12.5097V13.0166H43.5828C43.1433 13.0168 42.719 13.1827 42.3892 13.4834C42.0594 13.7841 41.8467 14.199 41.791 14.6503C41.7352 15.1016 41.8402 15.5585 42.0864 15.9355C42.3325 16.3124 42.7028 16.5836 43.1281 16.6982H43.1561L43.2564 16.7224L43.3823 16.7417H43.4079C43.4985 16.7524 43.5896 16.7581 43.6807 16.7586C43.8949 16.7628 44.1083 16.731 44.3126 16.6644C44.5813 16.5748 44.8263 16.4219 45.0284 16.2178L45.075 16.1719V16.6161H46.1243V15.8919L46.1266 12.6328ZM43.781 13.8399H45.068V14.6148C45.0682 14.897 44.9729 15.1703 44.7987 15.3873C44.6245 15.6043 44.3824 15.7512 44.1144 15.8026C44.038 15.8213 43.9598 15.831 43.8812 15.8315C43.6939 15.8299 43.5104 15.7765 43.3496 15.677C43.302 15.6515 43.2568 15.6216 43.2144 15.5877C43.1544 15.5384 43.0996 15.4826 43.0512 15.4211V15.4066C42.9257 15.2396 42.8576 15.034 42.8577 14.8224C42.8558 14.5667 42.952 14.3207 43.125 14.1383C43.2981 13.9559 43.534 13.8521 43.781 13.8495V13.8399Z" fill="#ED732E"/>
    </g>
    <defs>
        <clipPath id="clip0_2603_1439">
            <rect width="69" height="9" fill="white" transform="translate(1 8)"/>
        </clipPath>
    </defs>
</svg>
