<svg width="72" height="24" viewBox="0 0 72 24" fill="none" xmlns="http://www.w3.org/2000/svg">
<g clip-path="url(#clip0_2895_1605)">
<path d="M9.69373 17.2923C9.69373 17.2923 5 16.2693 5 11.681V7L6.86522 8.79963V11.681C6.86522 14.409 9.69373 15.3357 9.69373 15.3357V17.2923Z" fill="url(#paint0_linear_2895_1605)"/>
<path d="M9.69385 17.2923C9.69385 17.2923 14.3876 16.2693 14.3876 11.6797V7L12.5227 8.79963V11.681C12.5227 14.409 9.69385 15.3357 9.69385 15.3357V17.2923Z" fill="url(#paint1_linear_2895_1605)"/>
<path d="M12.5226 8.79963H6.86522L5 7H14.3875L12.5226 8.79963Z" fill="url(#paint2_linear_2895_1605)"/>
<path d="M32.8525 12.8357L32.8492 12.8589C32.7008 13.9126 31.9969 14.4931 30.8669 14.4931C29.5009 14.4931 28.6186 13.5282 28.6186 12.0346C28.6186 10.5411 29.5009 9.5778 30.8669 9.5778C31.9437 9.5778 32.6368 10.127 32.7726 11.0841L32.7758 11.1072H33.8138L33.8106 11.0772C33.7372 10.4161 33.4461 9.81764 32.9905 9.39213C32.4665 8.90265 31.7323 8.6416 30.8669 8.6416C28.9047 8.6416 27.5864 10.0053 27.5864 12.0353C27.5864 14.0653 28.9047 15.429 30.8669 15.429C32.1307 15.429 33.6791 14.7581 33.8827 12.8671L33.886 12.837L32.8525 12.8357Z" fill="white"/>
<path d="M35.7684 14.3894V12.3979H38.6338V11.4637H35.7684V9.73714H38.9425V8.80225H34.7451V15.324H38.9866V14.3894H35.7684Z" fill="white"/>
<path d="M18.5888 8.79932V14.3862H21.5422V15.3207H17.5654V8.79932H18.5888Z" fill="white"/>
<path d="M46.4595 8.80225L45.4348 14.2935L44.4011 8.80225H42.7744L41.7406 14.2935L40.7166 8.80225H39.7168L39.7184 9.0832L40.914 15.324H42.5499L43.5859 9.79881L44.6259 15.324H46.2617L47.459 9.06656V8.80225H46.4595Z" fill="white"/>
<path d="M51.1129 8.6416C49.0982 8.6416 47.7446 10.0053 47.7446 12.0353C47.7446 14.0653 49.0982 15.429 51.1129 15.429C53.1275 15.429 54.4811 14.0653 54.4811 12.0353C54.4811 10.0053 53.1275 8.6416 51.1129 8.6416ZM53.449 12.0353C53.449 13.5109 52.5101 14.5026 51.1129 14.5026C49.6722 14.5026 48.7768 13.5562 48.7768 12.0353C48.7768 10.5143 49.6722 9.56801 51.1129 9.56801C52.5118 9.56736 53.449 10.559 53.449 12.0346V12.0353Z" fill="white"/>
<path d="M65.6049 9.47413V8.80225H64.825L61.7789 11.6817V8.80225H60.7559V15.324H61.7789V13.0313L62.5398 12.3252L64.9007 15.324H65.6049V14.6322L63.2698 11.6445L65.6049 9.47413Z" fill="white"/>
<path d="M58.5221 12.6091C59.4269 12.393 59.9464 11.7182 59.9497 10.7526C59.9533 9.53842 59.1643 8.81139 57.8391 8.80715L55.2286 8.79932L55.209 15.3207L56.2323 15.324L56.2405 12.6808L57.393 12.6848L59.1029 15.324H59.9393L59.9412 14.6322C59.9412 14.6322 58.5198 12.6097 58.5221 12.6091ZM56.2493 9.71398L57.748 9.71855C58.554 9.72116 58.9283 10.0413 58.9264 10.7265C58.9244 11.4118 58.5482 11.7313 57.7422 11.7273L56.2431 11.7228L56.2493 9.71398Z" fill="white"/>
<path d="M25.552 8.79932H24.0982L22.2559 14.8391V15.3207H23.1894L23.7716 13.3645H25.8786L26.4608 15.3207H27.3966V14.8391L25.552 8.79932ZM24.0509 12.4045L24.8197 9.79784L25.5957 12.4045H24.0509Z" fill="white"/>
<path d="M66.641 15.3242C66.5694 15.3247 66.4993 15.3039 66.4395 15.2646C66.3797 15.2252 66.333 15.1689 66.3052 15.103C66.2774 15.037 66.2698 14.9642 66.2834 14.8939C66.297 14.8237 66.3312 14.759 66.3816 14.7081C66.432 14.6573 66.4963 14.6225 66.5665 14.6083C66.6367 14.5941 66.7095 14.601 66.7757 14.6282C66.8419 14.6553 66.8986 14.7016 66.9385 14.761C66.9785 14.8204 66.9998 14.8904 67 14.962C67.0001 15.0575 66.9625 15.1493 66.8952 15.2171C66.828 15.285 66.7366 15.3235 66.641 15.3242ZM66.641 14.6321C66.5756 14.6317 66.5116 14.6507 66.457 14.6868C66.4024 14.7229 66.3598 14.7743 66.3345 14.8346C66.3092 14.895 66.3024 14.9614 66.315 15.0256C66.3275 15.0898 66.3588 15.1489 66.405 15.1952C66.4511 15.2416 66.51 15.2732 66.5741 15.2861C66.6383 15.2989 66.7048 15.2925 66.7652 15.2675C66.8257 15.2425 66.8773 15.2001 66.9137 15.1457C66.95 15.0913 66.9694 15.0274 66.9693 14.962C66.969 14.8748 66.9344 14.7913 66.873 14.7295C66.8115 14.6678 66.7282 14.6328 66.641 14.6321ZM66.4779 14.7469H66.69C66.7238 14.748 66.756 14.7623 66.7795 14.7866C66.8031 14.811 66.8163 14.8436 66.8163 14.8775C66.8169 14.9017 66.8104 14.9256 66.7976 14.9462C66.7848 14.9668 66.7662 14.9832 66.7441 14.9933C66.7412 14.9933 66.7412 14.9985 66.7422 15.0005L66.8202 15.1728C66.8207 15.1734 66.8209 15.1742 66.821 15.175C66.821 15.1758 66.8208 15.1766 66.8204 15.1772C66.8199 15.1779 66.8193 15.1784 66.8186 15.1787C66.8178 15.1791 66.817 15.1791 66.8163 15.179H66.768C66.7659 15.1791 66.7639 15.1787 66.762 15.1778C66.7602 15.1769 66.7586 15.1755 66.7575 15.1737L66.6867 15.0106C66.6861 15.0093 66.6851 15.0082 66.6838 15.0074C66.6825 15.0067 66.681 15.0065 66.6795 15.0067H66.534C66.5336 15.0066 66.5332 15.0067 66.5328 15.0068C66.5324 15.0069 66.5321 15.0071 66.5318 15.0074C66.5315 15.0077 66.5313 15.008 66.5312 15.0084C66.531 15.0088 66.531 15.0092 66.5311 15.0096V15.1728C66.5311 15.1735 66.531 15.1742 66.5308 15.1748C66.5305 15.1755 66.5301 15.1761 66.5296 15.1766C66.5291 15.1771 66.5285 15.1774 66.5279 15.1777C66.5272 15.1779 66.5265 15.178 66.5258 15.178H66.4779C66.4772 15.178 66.4765 15.1779 66.4758 15.1777C66.4752 15.1774 66.4746 15.1771 66.4741 15.1766C66.4736 15.1761 66.4732 15.1755 66.4729 15.1748C66.4727 15.1742 66.4726 15.1735 66.4726 15.1728V14.7518C66.4726 14.7511 66.4727 14.7504 66.4729 14.7498C66.4732 14.7492 66.4736 14.7486 66.4741 14.7481C66.4746 14.7476 66.4752 14.7473 66.4758 14.7471C66.4765 14.7469 66.4772 14.7468 66.4779 14.7469ZM66.5363 14.7991C66.5356 14.7991 66.5349 14.7992 66.5342 14.7994C66.5336 14.7997 66.533 14.8001 66.5325 14.8006C66.532 14.8011 66.5316 14.8017 66.5314 14.8023C66.5311 14.803 66.531 14.8037 66.5311 14.8044V14.9499C66.531 14.9506 66.5311 14.9513 66.5314 14.952C66.5316 14.9526 66.532 14.9532 66.5325 14.9537C66.533 14.9542 66.5336 14.9546 66.5342 14.9548C66.5349 14.9551 66.5356 14.9552 66.5363 14.9551H66.6847C66.7044 14.9539 66.7228 14.9452 66.7363 14.9309C66.7498 14.9167 66.7574 14.8978 66.7575 14.8781C66.7574 14.8579 66.7496 14.8385 66.7357 14.8239C66.7219 14.8092 66.7029 14.8004 66.6828 14.7991H66.5363Z" fill="white"/>
</g>
<defs>
<linearGradient id="paint0_linear_2895_1605" x1="3.76914" y1="7.26432" x2="6.09936" y2="11.3008" gradientUnits="userSpaceOnUse">
<stop stop-color="#01023B"/>
<stop offset="1" stop-color="#FF646C"/>
</linearGradient>
<linearGradient id="paint1_linear_2895_1605" x1="15.0872" y1="8.18453" x2="12.8689" y2="12.0269" gradientUnits="userSpaceOnUse">
<stop stop-color="#01023B"/>
<stop offset="0.24" stop-color="#071573"/>
<stop offset="0.49" stop-color="#0D27AA"/>
<stop offset="0.72" stop-color="#1135D2"/>
<stop offset="0.89" stop-color="#143DEA"/>
<stop offset="1" stop-color="#1540F3"/>
</linearGradient>
<linearGradient id="paint2_linear_2895_1605" x1="5" y1="7.89965" x2="14.3875" y2="7.89965" gradientUnits="userSpaceOnUse">
<stop offset="0.2" stop-color="#00F8F8"/>
<stop offset="0.3" stop-color="#00F4F8"/>
<stop offset="0.4" stop-color="#02E7F8"/>
<stop offset="0.51" stop-color="#04D3F7"/>
<stop offset="0.61" stop-color="#08B6F6"/>
<stop offset="0.72" stop-color="#0C90F5"/>
<stop offset="0.83" stop-color="#1163F4"/>
<stop offset="0.9" stop-color="#1540F3"/>
</linearGradient>
<clipPath id="clip0_2895_1605">
<rect width="62" height="10.3116" fill="white" transform="translate(5 7)"/>
</clipPath>
</defs>
</svg>
