<svg width="72" height="24" viewBox="0 0 72 24" fill="none" xmlns="http://www.w3.org/2000/svg">
    <g clip-path="url(#clip0_2626_1462)">
        <path d="M10.8879 15.1122C10.8879 15.5577 10.7976 15.9717 10.6168 16.3543C10.4361 16.7317 10.1801 17.0566 9.85874 17.3187C9.53241 17.5859 9.14586 17.7903 8.69905 17.9371C8.25224 18.0838 7.76024 18.1572 7.22809 18.1572C6.59051 18.1572 6.01819 18.0681 5.51615 17.8847C5.01412 17.7065 4.50706 17.4025 4 16.9832L4.8384 15.5629C5.24003 15.9141 5.60149 16.1709 5.92781 16.3333C6.24912 16.4958 6.58046 16.5744 6.92185 16.5744C7.33854 16.5744 7.66988 16.4643 7.92592 16.239C8.18196 16.0136 8.30245 15.7149 8.30245 15.3323C8.30245 15.1698 8.27734 15.0178 8.23216 14.8763C8.18698 14.7348 8.10163 14.5881 7.98114 14.4361C7.86065 14.2893 7.68996 14.1216 7.47408 13.9487C7.26323 13.7757 6.98711 13.5556 6.64573 13.2987C6.38969 13.1101 6.13365 12.9109 5.88765 12.7117C5.64165 12.5073 5.42076 12.2924 5.21493 12.0618C5.01412 11.8312 4.85346 11.5744 4.72795 11.2862C4.60746 11.0032 4.5422 10.6729 4.5422 10.3113C4.5422 9.89206 4.62755 9.50417 4.79322 9.15828C4.95889 8.81239 5.18983 8.51887 5.481 8.27253C5.77218 8.02621 6.11859 7.83752 6.53026 7.70126C6.93691 7.56499 7.3787 7.49686 7.86065 7.49686C8.36771 7.49686 8.85468 7.56499 9.32659 7.7065C9.79848 7.84801 10.2353 8.05241 10.6419 8.32494L9.88383 9.60378C9.36676 9.22639 8.81954 9.0325 8.24722 9.0325C7.90081 9.0325 7.60964 9.12683 7.38372 9.3155C7.1578 9.50417 7.04233 9.74006 7.04233 10.0283C7.04233 10.3008 7.14274 10.5472 7.34355 10.7621C7.54436 10.9822 7.89078 11.2809 8.38277 11.6792C8.87978 12.0566 9.29145 12.3921 9.61275 12.6751C9.93908 12.9581 10.1951 13.2306 10.3859 13.4822C10.5767 13.7338 10.7022 13.9853 10.7775 14.2474C10.8528 14.5147 10.8879 14.7977 10.8879 15.1122ZM19.4978 12.717C19.4978 13.1101 19.4576 13.5346 19.3773 13.9906C19.302 14.4466 19.1665 14.8658 18.9757 15.2537C18.7849 15.6415 18.539 15.9612 18.2327 16.2076C17.9265 16.4591 17.5349 16.5849 17.068 16.5849C16.2848 16.5849 15.6673 16.2599 15.2155 15.6048C14.7636 14.9549 14.5377 14.0587 14.5377 12.9214C14.5377 11.7526 14.7636 10.8302 15.2255 10.1436C15.6824 9.457 16.3049 9.11633 17.0881 9.11633C17.8311 9.11633 18.4184 9.44128 18.8502 10.0807C19.282 10.7254 19.4978 11.6059 19.4978 12.717ZM22.2189 12.6174C22.2189 11.8574 22.1134 11.1656 21.9076 10.5472C21.6967 9.9235 21.4056 9.38889 21.019 8.93817C20.6324 8.48742 20.1806 8.14151 19.6534 7.88994C19.1263 7.63837 18.544 7.51258 17.9064 7.51258C17.2035 7.51258 16.586 7.65409 16.0539 7.92663C15.5217 8.20441 15.0247 8.63939 14.5728 9.23689L14.5578 7.75367H12.0526V23H14.5528V16.5587C14.7988 16.8574 15.0347 17.109 15.2657 17.3134C15.4916 17.5178 15.7225 17.6856 15.9585 17.8113C16.1944 17.9371 16.4404 18.0314 16.7015 18.0839C16.9625 18.1363 17.2437 18.1625 17.5399 18.1625C18.2026 18.1625 18.8251 18.0209 19.3974 17.7484C19.9698 17.4707 20.4667 17.0828 20.8834 16.5797C21.3001 16.0765 21.6265 15.4895 21.8624 14.8239C22.1034 14.1531 22.2189 13.4141 22.2189 12.6174ZM23.3334 17.9162H25.9038V3H23.3334V17.9162ZM36.8683 17.9214V7.74319H34.2978V13.2201C34.2978 13.7076 34.2777 14.0849 34.2376 14.3522C34.1974 14.6195 34.1321 14.8553 34.0418 15.0755C33.6803 15.9141 33.0126 16.3386 32.0437 16.3386C31.2856 16.3386 30.7585 16.0556 30.4572 15.4843C30.3368 15.2694 30.2564 15.0231 30.2113 14.7505C30.1661 14.478 30.141 14.0849 30.141 13.5661V7.74319H27.5705V13.5241C27.5705 13.9172 27.5756 14.2526 27.5806 14.5199C27.5856 14.7872 27.6057 15.0336 27.6308 15.2432C27.6559 15.4528 27.686 15.6415 27.7212 15.804C27.7513 15.9664 27.8015 16.1237 27.8668 16.2704C28.1027 16.8941 28.4792 17.3658 29.0064 17.6856C29.5335 18.0052 30.1811 18.1625 30.9443 18.1625C31.632 18.1625 32.2395 18.0367 32.7616 17.7851C33.2837 17.5336 33.7908 17.1247 34.2828 16.5534L34.2878 17.9162L36.8683 17.9214ZM47.9431 17.9162V12.1457C47.9431 11.7526 47.9381 11.4172 47.9331 11.1394C47.9281 10.8616 47.913 10.6206 47.8829 10.4162C47.8578 10.2117 47.8227 10.0336 47.7875 9.88156C47.7473 9.72433 47.7022 9.57233 47.652 9.42556C47.416 8.81761 47.0395 8.34591 46.5123 8.01572C45.9852 7.68553 45.3376 7.51782 44.5695 7.51782C43.8817 7.51782 43.2742 7.64361 42.7521 7.89518C42.23 8.14675 41.7229 8.56078 41.2309 9.12683L41.2259 7.76415H38.6404V17.9214H41.2309V12.4392C41.2309 11.9675 41.246 11.5954 41.2811 11.3333C41.3112 11.0713 41.3765 10.8249 41.4669 10.5891C41.6326 10.1803 41.8936 9.87633 42.24 9.66667C42.5865 9.457 42.9981 9.35222 43.48 9.35222C44.2381 9.35222 44.7653 9.63522 45.0665 10.2065C45.182 10.4214 45.2623 10.6677 45.3074 10.935C45.3526 11.2023 45.3777 11.6006 45.3777 12.1143V17.9109L47.9431 17.9162ZM58.576 17.2453L54.6604 12.1667L57.9686 8.46646L56.0209 7.59119L52.5769 11.7578H52.3058V3H49.7153V17.9162H52.3058V12.5126L56.1815 18.1206L58.576 17.2453ZM68.5871 13.5975V11.9361L60.8004 7.85849V9.68761L66.8348 12.7537L60.8004 15.8616V17.6488L68.5871 13.5975ZM61.5532 5.22222C61.0764 5.22222 60.6896 5.63103 60.6896 6.13417C60.6896 6.6478 61.0764 7.05137 61.5532 7.05137C62.0354 7.05137 62.4169 6.6478 62.4169 6.13417C62.4169 5.62579 62.0354 5.22222 61.5532 5.22222ZM61.5586 5.36373C61.9448 5.36373 62.256 5.70964 62.256 6.13942C62.256 6.56918 61.9448 6.91509 61.5586 6.90985C61.167 6.90985 60.8553 6.56918 60.8553 6.13417C60.8553 5.70964 61.167 5.36373 61.5586 5.36373ZM61.3929 6.22851H61.4978C61.6236 6.22851 61.6838 6.27568 61.7088 6.40671C61.7291 6.54298 61.7541 6.63208 61.7743 6.66352H61.94C61.9246 6.63208 61.8996 6.56918 61.8798 6.41195C61.8596 6.25996 61.8042 6.18134 61.7141 6.16562V6.15513C61.8196 6.12369 61.9049 6.03983 61.9049 5.90881C61.9049 5.81447 61.8745 5.74109 61.8143 5.69916C61.7541 5.65199 61.6587 5.62054 61.5133 5.62054C61.3977 5.62054 61.3172 5.63103 61.2373 5.64675V6.66352H61.3929V6.22851ZM61.3929 5.75681C61.4179 5.75157 61.4531 5.74633 61.5032 5.74633C61.679 5.74633 61.7392 5.83543 61.7392 5.92453C61.7392 6.05032 61.6284 6.09748 61.5032 6.09748H61.3929V5.75681Z" fill="#0C1724"/>
    </g>
    <defs>
        <clipPath id="clip0_2626_1462">
            <rect width="65" height="20" fill="white" transform="translate(4 3)"/>
        </clipPath>
    </defs>
</svg>
