<svg width="72" height="24" viewBox="0 0 72 24" fill="none" xmlns="http://www.w3.org/2000/svg">
<g clip-path="url(#clip0_2827_1582)">
<path d="M10.5018 8.00093H9.95738C9.63103 8.00093 9.45005 8.1819 9.45005 8.50825V13.9343L5.75191 8.33915C5.61959 8.09735 5.43802 8.00093 5.14816 8.00093H4.49546C4.16911 8.00093 4 8.1819 4 8.50825V16.199C4 16.5372 4.16911 16.7066 4.49546 16.7066H5.05129C5.37764 16.7066 5.54675 16.5375 5.54675 16.199V10.6475L9.25676 16.3683C9.38983 16.6101 9.58312 16.708 9.84894 16.708H10.5016C10.8265 16.708 11.009 16.5389 11.009 16.2006V8.509C11.009 8.18265 10.8265 8.00167 10.5016 8.00167M17.9144 15.3653H14.2741V12.9313H16.8493C17.1757 12.9313 17.3569 12.7622 17.3569 12.424V12.0855C17.3569 11.7592 17.1757 11.59 16.8496 11.59H14.2741V9.34223H17.7208C18.0472 9.34223 18.2281 9.17312 18.2281 8.84677V8.50855C18.2281 8.1822 18.0472 8.00093 17.7208 8.00093H13.2227C12.8963 8.00093 12.7272 8.1819 12.7272 8.50825V16.199C12.7272 16.5372 12.8963 16.7066 13.2227 16.7066H17.9144C18.2405 16.7066 18.4217 16.5375 18.4217 16.199V15.8608C18.4217 15.5344 18.2405 15.3653 17.9144 15.3653ZM26.3061 8.00093H20.1425C19.8043 8.00093 19.6349 8.1819 19.6349 8.50825V8.84677C19.6349 9.17312 19.804 9.34223 20.1425 9.34223H22.4507V16.199C22.4507 16.5372 22.6198 16.7066 22.9461 16.7066H23.4899C23.8282 16.7066 23.9973 16.5375 23.9973 16.199V9.34223H26.3055C26.6318 9.34223 26.8009 9.17312 26.8009 8.84677V8.50855C26.8009 8.1822 26.6318 8.00093 26.3055 8.00093M29.2195 10.4055C29.2195 9.82552 29.7268 9.43895 30.5244 9.43895C31.189 9.43895 31.6604 9.70448 32.0108 9.90919C32.2648 10.0412 32.5184 10.0902 32.6997 9.74008L32.9178 9.34104C33.0631 9.07551 33.0275 8.84558 32.7605 8.65125C32.3984 8.38587 31.5648 8.00019 30.5486 8.00019C28.9178 8.00019 27.6604 8.97924 27.6604 10.4894C27.6604 13.1604 31.6609 12.822 31.6609 14.453C31.6609 15.0335 31.1773 15.4321 30.3799 15.4321C29.5344 15.4321 28.9179 14.9974 28.6399 14.804C28.3379 14.6349 28.1326 14.6468 27.939 14.9123L27.6735 15.299C27.4317 15.6254 27.5524 15.8305 27.7456 15.9996C28.1689 16.326 29.1597 16.8699 30.3801 16.8699C32.181 16.8699 33.2201 15.7218 33.2201 14.3321C33.2201 11.6006 29.2193 12.0115 29.2193 10.4041M41.4723 14.7786C41.2795 14.5012 41.0377 14.5012 40.7721 14.6941C40.3731 14.9844 39.6358 15.4432 38.6687 15.4432C36.8188 15.4432 35.7805 13.9813 35.7805 12.374C35.7805 10.7912 36.7832 9.425 38.6568 9.425C39.5394 9.425 40.2159 9.78799 40.5897 10.0298C40.8789 10.2114 41.1089 10.187 41.278 9.90919L41.4946 9.55762C41.6637 9.29209 41.6518 9.05029 41.3981 8.85597C40.9383 8.52962 39.9963 7.99707 38.5934 7.99707C35.9975 7.99885 34.1729 9.908 34.1729 12.3972C34.1729 14.9227 35.9129 16.8682 38.6083 16.8682C40.1306 16.8682 41.1583 16.1917 41.6411 15.8046C41.8829 15.5994 41.8948 15.3456 41.7138 15.1039L41.472 14.7776M59.1888 8.00122H58.6326C58.3062 8.00122 58.1371 8.1822 58.1371 8.50855V13.6323C58.1371 14.7923 57.3761 15.445 56.2279 15.445C55.0798 15.445 54.3307 14.7923 54.3307 13.6323V8.5087C54.3307 8.18235 54.1616 8.00137 53.823 8.00137H53.2794C52.953 8.00137 52.7839 8.18235 52.7839 8.5087V13.6446C52.7839 15.5659 54.1614 16.871 56.24 16.871C58.3064 16.871 59.6844 15.5659 59.6844 13.6446V8.50825C59.6844 8.1819 59.5153 8.00093 59.189 8.00093M67.505 8.00093H61.3414C61.0032 8.00093 60.8341 8.1819 60.8341 8.50825V8.84677C60.8341 9.17312 61.0032 9.34223 61.3414 9.34223H63.6496V16.199C63.6496 16.5372 63.8187 16.7066 64.1451 16.7066H64.6895C65.0292 16.7066 65.1983 16.5375 65.1983 16.199V9.34223H67.5065C67.8328 9.34223 68.0019 9.17312 68.0019 8.84677V8.50855C68.0019 8.1822 67.8328 8.00093 67.5065 8.00093" fill="#474A50"/>
<path d="M46.9538 8.00091H43.5989C43.2043 8.00091 42.8848 8.32058 42.8848 8.71487C42.8848 9.10946 43.2044 9.42899 43.5989 9.42899H46.7968C46.7841 9.43018 46.7708 9.4324 46.7579 9.43374C46.8226 9.42958 46.8877 9.42676 46.9538 9.42676C48.5974 9.42676 49.7819 10.7078 49.7819 12.3755C49.7819 14.1155 48.5975 15.445 46.9539 15.445C45.3118 15.445 44.1265 14.1158 44.1265 12.3755C44.1265 11.3356 44.5879 10.4463 45.3325 9.924C45.3221 9.93142 45.3103 9.93735 45.2999 9.94625H44.2956C43.9708 9.94625 43.6993 9.72671 43.6133 9.42854C42.9235 10.1999 42.5229 11.2294 42.5229 12.3746C42.5229 14.8994 44.3594 16.8693 46.9581 16.8693C49.557 16.8693 51.3935 14.8994 51.3935 12.3731C51.3935 9.91955 49.557 7.99854 46.9581 7.99854" fill="#80CC28"/>
<path d="M43.6106 9.42871L43.6099 9.42945C43.6099 9.42945 43.611 9.42945 43.6113 9.42871" fill="#80CC28"/>
<path d="M44.293 9.94627H45.298C45.3084 9.93841 45.3203 9.93144 45.3307 9.92402C45.7327 9.64217 46.2163 9.46787 46.7562 9.43361C46.7681 9.43212 46.7814 9.43005 46.7948 9.42871H43.6084V9.43019L43.6069 9.43168C43.693 9.72984 43.9644 9.94939 44.2893 9.94939" fill="#6A9E47"/>
<path d="M67.276 16.0587H67.3427C67.4204 16.0587 67.4836 16.0328 67.4836 15.9696C67.4836 15.914 67.4427 15.8768 67.3538 15.8768C67.3168 15.8768 67.2915 15.8798 67.2767 15.8842V16.0578L67.276 16.0587ZM67.2721 16.4037H67.1312V15.7955C67.1868 15.7851 67.2647 15.7777 67.3648 15.7777C67.4798 15.7777 67.5319 15.797 67.5764 15.8222C67.6105 15.8489 67.6357 15.8964 67.6357 15.9557C67.6357 16.0225 67.5838 16.0744 67.5096 16.0966V16.104C67.5689 16.1263 67.6031 16.1708 67.6209 16.2524C67.6401 16.3458 67.6505 16.3829 67.6654 16.4052H67.5141C67.4963 16.3829 67.4844 16.328 67.4666 16.2568C67.4562 16.1901 67.4191 16.1604 67.3405 16.1604H67.2737V16.4052L67.2721 16.4037ZM66.8975 16.0848C66.8975 16.3562 67.0978 16.5713 67.3722 16.5713C67.6392 16.5713 67.8359 16.3562 67.8359 16.0892C67.8359 15.8192 67.6401 15.5997 67.3687 15.5997C67.0987 15.5997 66.8984 15.8192 66.8984 16.0862L66.8975 16.0848ZM67.9917 16.0848C67.9917 16.4304 67.7217 16.7004 67.3687 16.7004C67.0201 16.7004 66.7427 16.4304 66.7427 16.0848C66.7427 15.748 67.0216 15.4766 67.3702 15.4766C67.7232 15.4766 67.9932 15.748 67.9932 16.0848" fill="#474A50"/>
</g>
<defs>
<clipPath id="clip0_2827_1582">
<rect width="64" height="8.8708" fill="white" transform="translate(4 8)"/>
</clipPath>
</defs>
</svg>
