<svg width="72" height="24" viewBox="0 0 72 24" fill="none" xmlns="http://www.w3.org/2000/svg">
    <path d="M6.10168 10.0461C6.00096 10.2831 5.85547 10.52 5.64284 10.7231C5.1952 11.1744 4.63565 11.3549 4.05371 11.3774L6.23597 13.5774C6.26954 12.9908 6.43742 12.4267 6.88503 11.9754C7.0865 11.7723 7.3215 11.6257 7.5565 11.5128C6.88503 11.2646 6.34788 10.7231 6.10168 10.0461Z" fill="#FF8200"/>
    <path d="M5.62031 15.0216C6.44847 14.1867 6.44847 12.8328 5.62031 11.998C4.79217 11.1631 3.44924 11.1631 2.62111 11.998C1.79296 12.8328 1.79296 14.1867 2.62111 15.0216C3.44924 15.8565 4.79217 15.8565 5.62031 15.0216Z" fill="#FF8200"/>
    <path d="M9.91768 7.67694C10.7458 8.51182 10.7458 9.86566 9.91768 10.7005C9.08955 11.5354 7.74662 11.5354 6.91848 10.7005C6.09032 9.86566 6.09032 8.51182 6.91848 7.67694C7.74662 6.84206 9.08955 6.84206 9.91768 7.67694Z" fill="black"/>
    <path d="M18.5124 7.67694C17.6843 6.84206 16.3414 6.84206 15.5132 7.67694C15.1103 8.08309 14.9089 8.60207 14.8977 9.12105C14.8641 9.70772 14.6963 10.2718 14.2486 10.7231C14.0472 10.9262 13.8121 11.0841 13.5771 11.1857C14.2598 11.4339 14.797 11.9754 15.0432 12.6636C15.1439 12.4154 15.2894 12.1898 15.502 11.9867C15.9496 11.5354 16.5092 11.3549 17.0911 11.3323C17.6171 11.3211 18.1319 11.1067 18.5236 10.7118C19.3406 9.86567 19.3406 8.51182 18.5124 7.67694ZM17.7738 9.95592C17.5724 10.159 17.2926 10.2718 17.0128 10.2718C16.7218 10.2718 16.4533 10.159 16.2518 9.95592C15.8265 9.5272 15.8265 8.839 16.2518 8.41028C16.4533 8.2072 16.733 8.09437 17.0128 8.09437C17.3038 8.09437 17.5724 8.2072 17.7738 8.41028C17.9752 8.61335 18.0871 8.8954 18.0871 9.17746C18.0983 9.48207 17.9864 9.75284 17.7738 9.95592Z" fill="#00A9CE"/>
    <path d="M14.2155 12.0092C15.0437 12.8441 15.0437 14.1979 14.2155 15.0328C13.3874 15.8677 12.0445 15.8677 11.2163 15.0328C10.3882 14.1979 10.3882 12.8441 11.2163 12.0092C12.0445 11.1743 13.3874 11.1743 14.2155 12.0092Z" fill="black"/>
    <path d="M11.1936 10.7229C10.7459 10.2716 10.5669 9.70752 10.5445 9.12085L8.35107 11.3209C8.93302 11.3547 9.49258 11.5239 9.9402 11.9752C10.3879 12.4265 10.5669 12.9906 10.5893 13.5773L12.7715 11.3773C12.2008 11.3547 11.6413 11.1742 11.1936 10.7229Z" fill="black"/>
    <path d="M36.8898 15.6984C35.8155 15.6984 35.144 15.0328 35.144 13.9723V7.46251C35.144 7.20303 35.3343 7.01123 35.5917 7.01123C35.8491 7.01123 36.0393 7.21431 36.0393 7.46251V9.67381H37.6172C37.8522 9.67381 38.0537 9.87688 38.0537 10.1138C38.0537 10.3394 37.8522 10.5425 37.6172 10.5425H36.0393V13.9159C36.0393 14.5364 36.3415 14.8297 36.9794 14.8297C37.2144 14.8297 37.3599 14.7846 37.4606 14.7507C37.5165 14.7282 37.5613 14.7169 37.6172 14.7169C37.8411 14.7169 38.0425 14.92 38.0425 15.1456C38.0425 15.3261 37.9418 15.4728 37.7515 15.5405C37.5389 15.6082 37.2592 15.6984 36.8898 15.6984Z" fill="black"/>
    <path d="M41.6461 15.6984C40.874 15.6984 39.9787 15.3938 39.3632 14.9312C39.2848 14.8748 39.1953 14.7281 39.1953 14.5815C39.1953 14.3446 39.3967 14.1302 39.6429 14.1302C39.7436 14.1302 39.8444 14.1641 39.9227 14.2204C40.4823 14.6266 41.0642 14.8297 41.6797 14.8297C42.3736 14.8297 42.8548 14.4574 42.8548 13.9384V13.9158C42.8548 13.4307 42.3847 13.2051 41.5007 12.9569L41.4783 12.9456L41.4559 12.9343C40.5606 12.6748 39.4527 12.3477 39.4527 11.2307V11.2081C39.4527 10.204 40.3032 9.4707 41.4783 9.4707C42.0938 9.4707 42.7876 9.6625 43.3807 10.001L43.3919 10.0122C43.5374 10.1138 43.6158 10.2492 43.6158 10.4071C43.6158 10.644 43.4143 10.8584 43.1681 10.8584C43.0786 10.8584 42.9891 10.8358 42.9219 10.7907C42.4407 10.5087 41.9371 10.3507 41.4559 10.3507C40.8068 10.3507 40.3592 10.6779 40.3592 11.1517V11.1743C40.3592 11.6481 40.9523 11.8512 41.7916 12.0994C42.5302 12.3025 43.7613 12.6523 43.7613 13.8594V13.882C43.7501 14.92 42.866 15.6984 41.6461 15.6984Z" fill="black"/>
    <path d="M45.6976 15.6308C45.4402 15.6308 45.2388 15.439 45.2388 15.1795V7.46257C45.2388 7.20308 45.4291 7 45.6864 7C45.9438 7 46.1341 7.20308 46.1341 7.46257V15.1682C46.1453 15.439 45.955 15.6308 45.6976 15.6308Z" fill="black"/>
    <path d="M54.1465 15.7099C52.4454 15.7099 51.1025 14.3447 51.1025 12.596V12.5734C51.1025 10.8134 52.4454 9.43701 54.1686 9.43701C55.8697 9.43701 57.2126 10.8021 57.2126 12.5509V12.5734C57.2126 14.3447 55.8697 15.7099 54.1465 15.7099ZM54.1465 10.317C52.9487 10.317 52.0424 11.276 52.0424 12.5622V12.5847C52.0424 13.8483 52.9713 14.8524 54.1686 14.8524C55.3664 14.8524 56.2727 13.8934 56.2727 12.6073V12.5847C56.2727 11.3098 55.3438 10.317 54.1465 10.317Z" fill="black"/>
    <path d="M30.914 15.7099C29.2466 15.7099 27.9932 14.3673 27.9932 12.5847V12.5622C27.9932 10.8134 29.2354 9.43701 30.8245 9.43701C32.4136 9.43701 33.5663 10.7457 33.5663 12.5396C33.5663 12.7652 33.3537 12.9796 33.1187 12.9796H30.0747C29.8285 12.9796 29.6494 12.7991 29.6494 12.5622C29.6494 12.3139 29.8285 12.1334 30.0747 12.1334H32.6151C32.492 11.2534 31.966 10.3057 30.8021 10.3057C29.8509 10.3057 29.0899 11.0729 28.9332 12.156L28.9108 12.3365C28.8884 12.5283 28.8884 12.6976 28.9108 12.8555V12.8668C29.0227 14.0288 29.8509 14.8411 30.914 14.8411C31.5631 14.8411 32.1003 14.6155 32.6039 14.1191C32.6934 14.0288 32.7941 13.995 32.9061 13.995C33.1522 13.995 33.3537 14.1868 33.3537 14.435C33.3537 14.514 33.3313 14.638 33.2082 14.7509C32.5479 15.4278 31.8653 15.7099 30.914 15.7099Z" fill="black"/>
    <path d="M58.8244 18.0001C58.567 18.0001 58.3657 17.8083 58.3657 17.5375V12.3026C58.3657 10.5765 59.686 9.44824 61.2527 9.44824C62.9538 9.44824 64.2966 10.8134 64.2966 12.5621V12.5847C64.2966 14.3447 62.9538 15.7211 61.2305 15.7211C60.4583 15.7211 59.7643 15.439 59.261 14.9201V17.5375C59.261 17.8083 59.0818 18.0001 58.8244 18.0001ZM59.261 12.8441C59.3614 13.9837 60.1226 14.7847 61.1523 14.8411C61.1859 14.8411 61.2306 14.8411 61.2642 14.8411C61.6335 14.8411 61.9803 14.7508 62.2824 14.5703C62.316 14.5477 62.3385 14.5365 62.3717 14.5139C62.6181 14.3447 62.8308 14.1303 62.9874 13.8483C63.01 13.8144 63.021 13.7918 63.0436 13.758C63.0767 13.7016 63.1104 13.6339 63.1329 13.5662C63.2559 13.2616 63.3231 12.9344 63.3231 12.596V12.5734C63.3231 12.3026 63.2784 12.0318 63.2001 11.7837C63.1776 11.716 63.1555 11.6483 63.1219 11.5806C63.0993 11.5129 63.0657 11.4452 63.0321 11.3888C62.8419 11.0503 62.5845 10.7682 62.2598 10.5765C62.2266 10.5539 62.2041 10.5426 62.1705 10.5313C62.1147 10.4975 62.0475 10.4749 61.9803 10.4523C61.8458 10.4072 61.7118 10.3621 61.5773 10.3395C61.5101 10.3282 61.4318 10.317 61.3646 10.317C61.331 10.317 61.2863 10.317 61.2527 10.317C60.1672 10.317 59.3839 11.118 59.272 12.3026V12.8441H59.261Z" fill="black"/>
    <path d="M50.0726 15.6309C49.9492 15.6309 49.8373 15.5857 49.748 15.4955L46.9725 12.6637C46.8049 12.4945 46.7933 12.235 46.9504 12.0545L46.9614 12.0319L49.4905 9.67393C49.5688 9.58367 49.6697 9.53855 49.7816 9.52726C49.9045 9.51598 50.0164 9.54982 50.1062 9.6288C50.2964 9.78675 50.3185 10.0801 50.162 10.2719L50.1394 10.2944L47.9013 12.3478L50.3747 14.875C50.4641 14.9653 50.5087 15.078 50.5087 15.2022C50.5087 15.3263 50.4641 15.4391 50.3747 15.518C50.3075 15.5857 50.1956 15.6309 50.0726 15.6309Z" fill="black"/>
    <path d="M26.2469 15.7097C25.9896 15.7097 25.7881 15.5066 25.7881 15.2472V12.0881C25.7881 10.9825 25.1838 10.3281 24.1654 10.3281C23.147 10.3281 22.5427 10.9825 22.5427 12.0881V15.2472C22.5427 15.5066 22.3413 15.7097 22.0839 15.7097C21.8265 15.7097 21.6362 15.5179 21.6362 15.2472V11.9979C21.6362 10.4635 22.5986 9.4707 24.0759 9.4707H24.2326C25.721 9.4707 26.6722 10.4635 26.6722 11.9979V15.2472C26.6834 15.5179 26.5044 15.7097 26.2469 15.7097Z" fill="black"/>
    <path d="M68.3478 15.7099C66.6803 15.7099 65.4268 14.3673 65.4268 12.5847V12.5622C65.4268 10.8134 66.6692 9.43701 68.2584 9.43701C69.8472 9.43701 71.0003 10.7457 71.0003 12.5396C71.0003 12.7765 70.7986 12.9796 70.5522 12.9796H67.4972C67.2513 12.9796 67.0721 12.7991 67.0721 12.5622C67.0721 12.3139 67.2513 12.1334 67.4972 12.1334H70.0378C69.9144 11.2534 69.3885 10.3057 68.2248 10.3057C67.2734 10.3057 66.5126 11.0729 66.3556 12.156L66.3335 12.3365C66.3109 12.5283 66.3109 12.6976 66.3335 12.8555V12.8668C66.4454 14.0288 67.2734 14.8411 68.3367 14.8411C68.9856 14.8411 69.523 14.6155 70.0263 14.1191C70.1161 14.0288 70.2165 13.995 70.3284 13.995C70.5748 13.995 70.776 14.1868 70.776 14.435C70.776 14.514 70.7539 14.638 70.631 14.7509C69.9816 15.4278 69.2992 15.7099 68.3478 15.7099Z" fill="black"/>
</svg>
