<svg width="72" height="24" viewBox="0 0 72 24" fill="none" xmlns="http://www.w3.org/2000/svg">
<g clip-path="url(#clip0_2802_1120)">
<path d="M35.7646 4.44015V14.0267H27.8242L35.7646 4.44015ZM35.7646 1C35.7646 2.05296 35.3463 3.06279 34.6018 3.80735C33.8572 4.55191 32.8474 4.97019 31.7944 4.97019C30.7415 4.97019 29.7316 4.55191 28.9871 3.80735C28.2425 3.06279 27.8242 2.05296 27.8242 1L35.7646 1ZM37.0727 14.0276C37.0727 12.9746 37.491 11.9648 38.2356 11.2202C38.9801 10.4757 39.99 10.0574 41.0429 10.0574C42.0959 10.0574 43.1057 10.4757 43.8503 11.2202C44.5948 11.9648 45.0131 12.9746 45.0131 14.0276H37.0727ZM37.0727 10.5874V1H45.0148L37.0727 10.5866V10.5874ZM41.5135 22.2296C41.9219 22.2387 42.3173 22.086 42.6135 21.8049L43.1588 22.3935C42.7987 22.7639 42.2992 23.0391 41.5229 23.0391C40.1918 23.0391 39.3314 22.1557 39.3314 20.9614C39.326 20.6877 39.3757 20.4157 39.4778 20.1616C39.5798 19.9075 39.7319 19.6766 39.9251 19.4827C40.1183 19.2887 40.3486 19.1356 40.6022 19.0325C40.8559 18.9295 41.1276 18.8786 41.4014 18.8829C42.7231 18.8829 43.4723 19.8886 43.406 21.2833H40.2819C40.3923 21.8626 40.8 22.2321 41.511 22.2321M42.4623 20.6182C42.3774 20.0771 42.0546 19.6788 41.409 19.6788C40.8085 19.6788 40.3897 20.0185 40.2819 20.6182H42.4632H42.4623ZM21 22.1846L23.4039 19.7416H21.0569V18.9754H24.5192V19.7569L22.1153 22.199H24.5531V22.966H21V22.1846ZM27.2517 22.2287C27.6601 22.2379 28.0555 22.0852 28.3517 21.804L28.8971 22.3927C28.5369 22.763 28.0375 23.0382 27.2611 23.0382C25.93 23.0382 25.0696 22.1548 25.0696 20.9605C25.0642 20.6868 25.114 20.4148 25.216 20.1608C25.318 19.9067 25.4701 19.6758 25.6633 19.4818C25.8565 19.2878 26.0868 19.1347 26.3404 19.0317C26.5941 18.9286 26.8659 18.8777 27.1396 18.882C28.4613 18.882 29.2105 19.8877 29.1442 21.2825H26.0218C26.1322 21.8618 26.5399 22.2313 27.2509 22.2313M28.2022 20.6174C28.1173 20.0763 27.7945 19.6779 27.149 19.6779C26.5484 19.6779 26.1297 20.0177 26.0218 20.6174H28.2031H28.2022ZM34.3376 20.9597C34.3376 19.6856 35.2915 18.8837 36.3422 18.8837C36.5944 18.8804 36.8442 18.9322 37.0741 19.0357C37.304 19.1391 37.5086 19.2917 37.6733 19.4825V17.128H38.5227V22.955H37.6733V22.4054C37.5117 22.6041 37.3075 22.764 37.0758 22.8731C36.844 22.9822 36.5907 23.0378 36.3346 23.0357C35.3153 23.0357 34.3385 22.2287 34.3385 20.9605M37.7208 20.952C37.7142 20.7029 37.6342 20.4613 37.4909 20.2574C37.3476 20.0534 37.1474 19.8963 36.9152 19.8056C36.6831 19.7149 36.4294 19.6946 36.1858 19.7474C35.9422 19.8001 35.7196 19.9235 35.5458 20.1021C35.3719 20.2807 35.2546 20.5066 35.2085 20.7515C35.1624 20.9965 35.1895 21.2495 35.2865 21.4791C35.3835 21.7087 35.546 21.9046 35.7537 22.0423C35.9614 22.18 36.2051 22.2534 36.4544 22.2534C37.1849 22.2534 37.72 21.6707 37.72 20.952M43.9615 22.1073L44.7311 21.708C44.8329 21.8894 44.9822 22.0395 45.163 22.1422C45.3439 22.2449 45.5493 22.2963 45.7572 22.2907C46.238 22.2907 46.4877 22.0444 46.4877 21.7641C46.4877 21.4447 46.0231 21.3734 45.5177 21.2689C44.8381 21.1245 44.1306 20.9011 44.1306 20.0797C44.1306 19.4486 44.7311 18.865 45.6765 18.8735C46.4215 18.8735 46.9761 19.1691 47.2904 19.6465L46.5769 20.0372C46.4783 19.8912 46.3442 19.7728 46.187 19.6931C46.0299 19.6135 45.8551 19.5752 45.6791 19.5819C45.2221 19.5819 44.9893 19.8053 44.9893 20.061C44.9893 20.3481 45.358 20.428 45.9356 20.5562C46.593 20.7006 47.3371 20.9155 47.3371 21.7454C47.3371 22.2958 46.8564 23.0382 45.7181 23.0306C44.8857 23.0306 44.2996 22.6951 43.9624 22.1047M49.645 21.1814L48.9714 21.9161V22.9524H48.122V17.1254H48.9714V20.9419L50.7747 18.9627H51.8093L50.2464 20.67L51.8501 22.9533H50.8886L49.6459 21.1814H49.645ZM31.7707 18.8829C30.7598 18.8829 29.9147 19.5369 29.9147 20.6242V22.9558H30.7811V20.732C30.7811 20.078 31.1574 19.6856 31.8004 19.6856C32.4434 19.6856 32.7628 20.0763 32.7628 20.732V22.9558H33.6241V20.6242C33.6241 19.5386 32.7747 18.8829 31.7681 18.8829" fill="white"/>
</g>
<defs>
<clipPath id="clip0_2802_1120">
<rect width="30.834" height="22" fill="white" transform="translate(21 1)"/>
</clipPath>
</defs>
</svg>
