<svg width="120" height="50" viewBox="0 0 120 50" fill="none" xmlns="http://www.w3.org/2000/svg">
<path d="M42.9117 35.9693C41.8568 35.9693 40.9073 35.7487 40.0633 35.3075C39.2289 34.8568 38.572 34.2334 38.0924 33.4374C37.6129 32.6414 37.3731 31.7398 37.3731 30.7328C37.3731 29.7258 37.6129 28.8243 38.0924 28.0283C38.572 27.2322 39.2289 26.6136 40.0633 26.1725C40.9073 25.7217 41.8568 25.4963 42.9117 25.4963C43.8324 25.4963 44.662 25.6594 45.4005 25.9855C46.139 26.3115 46.7528 26.7815 47.2419 27.3953L45.4293 29.0353C44.7771 28.2488 43.9859 27.8556 43.0556 27.8556C42.5089 27.8556 42.0198 27.9755 41.5882 28.2153C41.1662 28.455 40.8354 28.7955 40.5956 29.2367C40.3654 29.6683 40.2503 30.167 40.2503 30.7328C40.2503 31.2987 40.3654 31.8022 40.5956 32.2433C40.8354 32.6749 41.1662 33.0106 41.5882 33.2504C42.0198 33.4901 42.5089 33.61 43.0556 33.61C43.9859 33.61 44.7771 33.2168 45.4293 32.4304L47.2419 34.0704C46.7528 34.6842 46.139 35.1541 45.4005 35.4802C44.662 35.8063 43.8324 35.9693 42.9117 35.9693Z" fill="#878A8E"/>
<path d="M48.5119 25.6977H51.3603V33.5093H56.1652V35.7679H48.5119V25.6977Z" fill="#878A8E"/>
<path d="M62.2161 35.9693C61.1515 35.9693 60.1925 35.7439 59.3389 35.2932C58.4949 34.8424 57.8284 34.219 57.3392 33.423C56.8597 32.627 56.62 31.7302 56.62 30.7328C56.62 29.7354 56.8597 28.8387 57.3392 28.0426C57.8284 27.2466 58.4949 26.6232 59.3389 26.1725C60.1925 25.7217 61.1515 25.4963 62.2161 25.4963C63.2806 25.4963 64.2349 25.7217 65.0789 26.1725C65.9324 26.6232 66.599 27.2466 67.0785 28.0426C67.5677 28.8387 67.8122 29.7354 67.8122 30.7328C67.8122 31.7302 67.5677 32.627 67.0785 33.423C66.599 34.219 65.9324 34.8424 65.0789 35.2932C64.2349 35.7439 63.2806 35.9693 62.2161 35.9693ZM62.2161 33.61C62.7244 33.61 63.1847 33.4901 63.5971 33.2504C64.0095 33.0106 64.3356 32.6749 64.5754 32.2433C64.8151 31.8022 64.935 31.2987 64.935 30.7328C64.935 30.167 64.8151 29.6683 64.5754 29.2367C64.3356 28.7955 64.0095 28.455 63.5971 28.2153C63.1847 27.9755 62.7244 27.8556 62.2161 27.8556C61.7078 27.8556 61.2474 27.9755 60.835 28.2153C60.4226 28.455 60.0966 28.7955 59.8568 29.2367C59.617 29.6683 59.4971 30.167 59.4971 30.7328C59.4971 31.2987 59.617 31.8022 59.8568 32.2433C60.0966 32.6749 60.4226 33.0106 60.835 33.2504C61.2474 33.4901 61.7078 33.61 62.2161 33.61Z" fill="#878A8E"/>
<path d="M73.9507 35.9693C72.4546 35.9693 71.2893 35.5617 70.455 34.7465C69.6302 33.9313 69.2178 32.7756 69.2178 31.2795V25.6977H72.0662V31.1932C72.0662 32.8044 72.704 33.61 73.9795 33.61C75.2455 33.61 75.8785 32.8044 75.8785 31.1932V25.6977H78.6837V31.2795C78.6837 32.7756 78.2665 33.9313 77.4321 34.7465C76.6073 35.5617 75.4469 35.9693 73.9507 35.9693Z" fill="#878A8E"/>
<path d="M80.6133 25.6977H85.3751C86.478 25.6977 87.4563 25.9039 88.3098 26.3163C89.1634 26.7287 89.8251 27.3138 90.2951 28.0714C90.765 28.8291 91 29.7162 91 30.7328C91 31.7494 90.765 32.6366 90.2951 33.3942C89.8251 34.1519 89.1634 34.7369 88.3098 35.1493C87.4563 35.5617 86.478 35.7679 85.3751 35.7679H80.6133V25.6977ZM85.26 33.4949C86.1232 33.4949 86.8137 33.2504 87.3316 32.7612C87.8591 32.2721 88.1228 31.596 88.1228 30.7328C88.1228 29.8697 87.8591 29.1935 87.3316 28.7044C86.8137 28.2153 86.1232 27.9707 85.26 27.9707H83.4618V33.4949H85.26Z" fill="#878A8E"/>
<path fill-rule="evenodd" clip-rule="evenodd" d="M67.559 18.0761L68.0688 16.9797C67.1798 16.5134 66.2139 16.2717 65.0831 16.2727C63.3222 16.2727 62.148 17.0576 62.148 18.068C62.148 19.1815 63.0896 19.5871 64.9536 19.846C66.2998 20.0281 66.6194 20.1656 66.6194 20.4852C66.6194 20.8393 66.1451 21.0547 65.1953 21.0547C64.186 21.0547 63.1331 20.7523 62.3472 20.3466L61.8375 21.4774C62.7609 21.9437 63.8391 22.2461 65.1084 22.2461C66.8257 22.2461 68.1548 21.5553 68.1548 20.4074C68.1548 19.2938 67.2748 18.8963 65.3754 18.6202C63.9766 18.4209 63.6833 18.2743 63.6833 17.981C63.6833 17.6877 64.0717 17.4459 65.0042 17.4459C65.8841 17.4459 66.7995 17.6968 67.559 18.0761ZM42.2758 16.384C43.8728 16.384 44.77 17.1435 44.77 18.335C44.77 19.5952 43.7777 20.3285 42.1979 20.3285H40.4633V22.1329H38.9614V16.384H42.2758ZM40.4634 19.1724H41.9825C42.9575 19.1724 43.2771 18.8619 43.2771 18.3613C43.2771 17.8778 42.9231 17.5501 42.0513 17.5501H40.4634V19.1724ZM49.311 22.1329H47.809V16.384H51.5725C53.1523 16.384 53.9898 17.0829 53.9898 18.2652C53.9898 19.1977 53.3769 19.8106 52.4797 20.0523L54.275 22.1329H52.5576L50.8908 20.1646H49.311V22.1329ZM49.3109 19.0511H51.2103C52.0477 19.0511 52.4705 18.8003 52.4705 18.2915C52.4705 17.8081 52.1256 17.5411 51.2791 17.5411H49.3109V19.0511ZM58.9366 16.384V22.1329H57.4256V16.384H58.9366ZM73.2147 16.384L75.2254 20.2941H75.2517L77.2452 16.384H79.4379V22.1329H77.9532V17.8424H77.9359L75.718 22.1409H74.6479L72.4299 17.8424H72.4127V22.1329H71.023V16.384H73.2147ZM87.3016 21.1051H84.0045L83.4957 22.1327H81.9331L84.8591 16.3495H86.4986L89.4337 22.1327H87.8114L87.3016 21.1051ZM84.5222 20.0522H86.7837L85.6621 17.7644H85.6448L84.5222 20.0522ZM90.0002 16.384V17.005H89.8607V16.649C89.8607 16.6461 89.8609 16.6432 89.8611 16.6402V16.6401V16.6401C89.8614 16.6368 89.8617 16.6334 89.8617 16.6298L89.718 16.9089C89.713 16.919 89.7049 16.9281 89.6948 16.9342C89.6856 16.9403 89.6745 16.9423 89.6624 16.9423H89.6432C89.6311 16.9423 89.6199 16.9393 89.6108 16.9342C89.6017 16.9281 89.5936 16.92 89.5876 16.9089L89.4439 16.6298C89.4439 16.6336 89.4442 16.6374 89.4445 16.641C89.4448 16.6439 89.445 16.6467 89.445 16.649V17.005H89.3064V16.384H89.4207C89.4278 16.384 89.4328 16.384 89.4379 16.385C89.4429 16.385 89.447 16.386 89.452 16.388C89.4571 16.3901 89.4611 16.3921 89.4652 16.3961C89.4682 16.3992 89.4723 16.4042 89.4753 16.4103L89.6301 16.7178C89.6361 16.7279 89.6412 16.739 89.6462 16.7511L89.6503 16.7597L89.6543 16.7683C89.6559 16.7652 89.6572 16.7621 89.6585 16.7589C89.6597 16.756 89.6609 16.7531 89.6624 16.7501C89.6674 16.739 89.6735 16.7269 89.6796 16.7157L89.8344 16.4103C89.8372 16.4045 89.8402 16.4005 89.8431 16.3966L89.8435 16.3961C89.8475 16.3921 89.8516 16.389 89.8566 16.388C89.8607 16.386 89.8647 16.385 89.8708 16.385C89.8758 16.384 89.8809 16.384 89.888 16.384H90.0002ZM89.2487 16.384H88.7521V16.5104H88.923V17.005H89.0778V16.5104H89.2487V16.384Z" fill="#878A8E"/>
<path d="M29.0595 22.2915L32.2171 16.3829V14L29.6846 16.5336L29.1799 17.0373L26 20.2181L32.2171 26.4363V22.2915H29.0595Z" fill="#878A8E"/>
<path d="M32.2171 16.3829V22.2915L35.3759 22.2915L32.2171 16.3829Z" fill="#878A8E"/>
</svg>
