<?xml version="1.0" encoding="UTF-8" standalone="no"?>
<svg
   version="1.2"
   width="287.47mm"
   height="308.44mm"
   viewBox="0 0 28747 30844"
   preserveAspectRatio="xMidYMid"
   fill-rule="evenodd"
   stroke-width="28.222"
   stroke-linejoin="round"
   xml:space="preserve"
   id="svg1940"
   sodipodi:docname="KrajnaPolanaErb.svg"
   inkscape:version="1.2.2 (732a01da63, 2022-12-09, custom)"
   xmlns:inkscape="http://www.inkscape.org/namespaces/inkscape"
   xmlns:sodipodi="http://sodipodi.sourceforge.net/DTD/sodipodi-0.dtd"
   xmlns="http://www.w3.org/2000/svg"
   xmlns:svg="http://www.w3.org/2000/svg"
   xmlns:ooo="http://xml.openoffice.org/svg/export"><sodipodi:namedview
   id="namedview1942"
   pagecolor="#ffffff"
   bordercolor="#000000"
   borderopacity="0.25"
   inkscape:showpageshadow="2"
   inkscape:pageopacity="0.0"
   inkscape:pagecheckerboard="0"
   inkscape:deskcolor="#d1d1d1"
   inkscape:document-units="mm"
   showgrid="false"
   inkscape:zoom="0.62592857"
   inkscape:cx="527.21671"
   inkscape:cy="584.73126"
   inkscape:window-width="1920"
   inkscape:window-height="1031"
   inkscape:window-x="0"
   inkscape:window-y="25"
   inkscape:window-maximized="1"
   inkscape:current-layer="layer1" />
 <defs
   class="ClipPathGroup"
   id="defs1847">
  <clipPath
   id="presentation_clip_path"
   clipPathUnits="userSpaceOnUse">
   <rect
   x="0"
   y="0"
   width="33000"
   height="35000"
   id="rect1841" />
  </clipPath>
  <clipPath
   id="presentation_clip_path_shrink"
   clipPathUnits="userSpaceOnUse">
   <rect
   x="33"
   y="35"
   width="32934"
   height="34930"
   id="rect1844" />
  </clipPath>
 </defs>
 <defs
   class="TextShapeIndex"
   id="defs1851">
  <g
   ooo:slide="id1"
   ooo:id-list="id3 id4 id5 id6 id7 id8"
   id="g1849" />
 </defs>
 <defs
   class="EmbeddedBulletChars"
   id="defs1883">
  <g
   id="bullet-char-template-57356"
   transform="matrix(4.8828125e-4,0,0,-4.8828125e-4,0,0)">
   <path
   d="M 580,1141 1163,571 580,0 -4,571 Z"
   id="path1853" />
  </g>
  <g
   id="bullet-char-template-57354"
   transform="matrix(4.8828125e-4,0,0,-4.8828125e-4,0,0)">
   <path
   d="M 8,1128 H 1137 V 0 H 8 Z"
   id="path1856" />
  </g>
  <g
   id="bullet-char-template-10146"
   transform="matrix(4.8828125e-4,0,0,-4.8828125e-4,0,0)">
   <path
   d="M 174,0 602,739 174,1481 1456,739 Z M 1358,739 309,1346 659,739 Z"
   id="path1859" />
  </g>
  <g
   id="bullet-char-template-10132"
   transform="matrix(4.8828125e-4,0,0,-4.8828125e-4,0,0)">
   <path
   d="M 2015,739 1276,0 H 717 l 543,543 H 174 v 393 h 1086 l -543,545 h 557 z"
   id="path1862" />
  </g>
  <g
   id="bullet-char-template-10007"
   transform="matrix(4.8828125e-4,0,0,-4.8828125e-4,0,0)">
   <path
   d="m 0,-2 c -7,16 -16,29 -25,39 l 381,530 c -94,256 -141,385 -141,387 0,25 13,38 40,38 9,0 21,-2 34,-5 21,4 42,12 65,25 l 27,-13 111,-251 280,301 64,-25 24,25 c 21,-10 41,-24 62,-43 C 886,937 835,863 770,784 769,783 710,716 594,584 L 774,223 c 0,-27 -21,-55 -63,-84 l 16,-20 C 717,90 699,76 672,76 641,76 570,178 457,381 L 164,-76 c -22,-34 -53,-51 -92,-51 -42,0 -63,17 -64,51 -7,9 -10,24 -10,44 0,9 1,19 2,30 z"
   id="path1865" />
  </g>
  <g
   id="bullet-char-template-10004"
   transform="matrix(4.8828125e-4,0,0,-4.8828125e-4,0,0)">
   <path
   d="M 285,-33 C 182,-33 111,30 74,156 52,228 41,333 41,471 c 0,78 14,145 41,201 34,71 87,106 158,106 53,0 88,-31 106,-94 l 23,-176 c 8,-64 28,-97 59,-98 l 735,706 c 11,11 33,17 66,17 42,0 63,-15 63,-46 V 965 c 0,-36 -10,-64 -30,-84 L 442,47 C 390,-6 338,-33 285,-33 Z"
   id="path1868" />
  </g>
  <g
   id="bullet-char-template-9679"
   transform="matrix(4.8828125e-4,0,0,-4.8828125e-4,0,0)">
   <path
   d="M 813,0 C 632,0 489,54 383,161 276,268 223,411 223,592 c 0,181 53,324 160,431 106,107 249,161 430,161 179,0 323,-54 432,-161 108,-107 162,-251 162,-431 0,-180 -54,-324 -162,-431 C 1136,54 992,0 813,0 Z"
   id="path1871" />
  </g>
  <g
   id="bullet-char-template-8226"
   transform="matrix(4.8828125e-4,0,0,-4.8828125e-4,0,0)">
   <path
   d="m 346,457 c -73,0 -137,26 -191,78 -54,51 -81,114 -81,188 0,73 27,136 81,188 54,52 118,78 191,78 73,0 134,-26 185,-79 51,-51 77,-114 77,-187 0,-75 -25,-137 -76,-188 -50,-52 -112,-78 -186,-78 z"
   id="path1874" />
  </g>
  <g
   id="bullet-char-template-8211"
   transform="matrix(4.8828125e-4,0,0,-4.8828125e-4,0,0)">
   <path
   d="M -4,459 H 1135 V 606 H -4 Z"
   id="path1877" />
  </g>
  <g
   id="bullet-char-template-61548"
   transform="matrix(4.8828125e-4,0,0,-4.8828125e-4,0,0)">
   <path
   d="m 173,740 c 0,163 58,303 173,419 116,115 255,173 419,173 163,0 302,-58 418,-173 116,-116 174,-256 174,-419 0,-163 -58,-303 -174,-418 C 1067,206 928,148 765,148 601,148 462,206 346,322 231,437 173,577 173,740 Z"
   id="path1880" />
  </g>
 </defs>
 
 
<g
   inkscape:groupmode="layer"
   id="layer1"
   inkscape:label="Layer 1"
   style="display:inline"><path
     fill="#000000"
     stroke="none"
     d="m 2208,2019 v 19273 h 18 c 0,6384 6428,11569 14363,11569 7927,0 14364,-5185 14364,-11569 h -26 V 2019 Z"
     id="path1892"
     style="display:inline"
     transform="translate(-2207,-2018)" /><path
     fill="#1e6a39"
     stroke="none"
     d="m 2915,23703 c -20,-66 -38,-132 -55,-199 h 27486 c -18,67 -36,133 -56,199 h 28 c -1421,5019 -7020,8769 -13701,8769 -5,0 -10,0 -15,0 -4,0 -9,0 -13,0 -64,0 -129,0 -192,-2 -64,0 -128,-1 -191,-3 -126,-2 -252,-6 -377,-12 -2,1 -4,1 -5,-1 C 9477,32182 4251,28529 2886,23703 Z"
     id="path1899"
     transform="translate(-2207,-2018)"
     style="display:inline" /><path
     fill="#2a6099"
     stroke="none"
     d="m 2784,23315 c -164,-687 -249,-1395 -249,-2120 h -17 V 2408 h 28099 v 18787 h 26 c 0,725 -85,1434 -250,2120 z"
     id="path1906"
     transform="translate(-2207,-2018)"
     style="display:inline" /><path
     fill="#ffffff"
     stroke="none"
     d="m 12321,11035 -17,-25 76,51 -6,6 z M 22336,9105 v 203 h -26 l 21,-183 z M 19082,5879 c -556,-635 -1201,-1113 -1901,-1574 -237,-157 -751,-315 -889,-559 726,-135 1452,298 2006,726 962,742 1609,1615 2230,2652 190,316 422,630 576,965 40,86 -50,217 -165,307 268,-168 561,-313 839,-231 -162,111 -404,94 -584,205 -128,79 -254,162 -381,242 -145,90 -311,224 -483,254 -62,11 -218,-32 -150,-126 40,-54 251,-25 328,-69 101,-57 212,-133 328,-209 -63,32 -125,45 -169,27 -124,-51 -210,-409 -267,-527 -202,-417 -437,-1006 -781,-1321 -58,-266 -361,-561 -537,-762 z m -2461,178 -152,-76 c 4,-125 -2,-311 -34,-431 -18,-69 -87,-126 -136,-46 -88,142 39,366 -8,528 -198,-76 -137,-312 -178,-483 l 76,-101 c -249,88 -149,481 -432,381 -192,299 -592,195 -368,-178 210,-352 675,-462 1054,-457 114,1 410,25 434,176 14,93 -228,120 -273,206 -75,142 11,331 17,481 z m 610,-203 h -26 c 3,366 501,1063 -25,1321 -67,-280 27,-594 -90,-864 -82,-190 -403,-458 -322,-685 72,-201 333,-147 462,-50 278,209 410,622 523,938 82,231 101,515 -71,711 -61,70 -208,201 -309,123 -104,-81 73,-270 103,-351 81,-221 127,-548 -42,-737 z m -192,1041 c -38,130 -176,175 -214,305 l 203,-25 26,25 c -126,462 -790,946 -1197,460 -183,-218 -195,-671 -200,-942 513,77 -49,908 609,914 v -26 c -115,-33 -207,-47 -228,-177 l 406,-26 v -25 l -508,-51 c 93,-173 317,-132 483,-102 -41,-146 -156,-226 -280,-304 l 127,254 c -74,-18 -204,-4 -264,-52 -170,-135 81,-541 -84,-728 -100,-113 -346,63 -396,-67 -49,-129 95,-166 186,-169 l 25,-153 279,153 c 100,-153 604,31 762,76 v -25 c -118,-73 -133,-221 -50,-331 136,326 429,631 315,1016 z m -1434,-254 c -30,-202 240,-296 305,-101 z m -127,432 c -94,-167 -121,-347 -76,-533 h 51 c 73,150 126,386 25,533 z m 2464,-254 h -26 l 26,-101 z m 0,356 h -26 l 51,-330 z m -9168,1701 76,-177 c 77,204 59,459 -25,660 -357,-178 -611,-381 -1016,-457 43,-240 182,-176 355,-102 l -178,-254 c -96,-431 -519,-714 -558,-1194 332,114 485,625 628,915 117,234 139,434 438,355 l -152,-381 25,127 -76,26 -330,-432 -25,-51 -102,-178 -102,-177 c -33,-270 -400,-232 -431,-508 423,22 844,540 1099,838 91,106 208,219 250,355 59,187 27,433 73,635 z m 8587,-711 c 30,-66 -7,-270 39,-300 81,-52 128,97 133,148 15,146 -48,289 -129,406 -332,476 -1484,917 -1798,203 134,35 245,123 381,159 343,92 629,11 940,-133 v -26 c 177,-92 350,-273 434,-457 z m -1273,603 c -157,-31 -312,-142 -288,-323 25,-196 254,-311 262,-51 h 51 l 25,-381 c 133,49 129,153 153,279 l 101,-25 c -71,-299 75,-391 356,-432 l -102,533 c 127,-188 208,-372 288,-584 25,-67 58,-192 144,-205 116,-17 146,205 150,281 14,285 -111,561 -302,762 -273,114 -540,206 -838,146 z M 6996,8094 c 146,117 466,165 567,310 112,159 -267,346 -389,341 -279,-10 -647,-711 -584,-961 155,78 271,202 406,310 z m 8634,452 c -37,-158 -63,-362 33,-505 47,-71 254,-236 300,-74 31,106 -138,176 -187,250 -61,93 -44,223 -69,329 z m -811,584 c -212,-103 -423,-498 -222,-701 154,-155 398,-199 603,-238 z m 2946,508 c -195,-369 -181,-743 -152,-1143 155,-149 239,-297 482,-230 70,19 191,62 180,155 -18,142 -234,323 -304,456 -125,237 -148,501 -181,762 z m 508,-787 -262,559 -145,330 c 4,-528 290,-1644 1041,-1422 z m 989,-356 h -25 l 25,-203 z M 9231,9029 c -15,-217 -376,-390 -351,-579 26,-200 487,-32 560,51 246,278 259,884 216,1239 -15,119 -26,256 -95,356 z m 6362,-305 c 380,469 918,378 1410,117 167,-89 296,-216 483,-269 4,238 -8,502 42,736 64,300 207,546 184,864 -17,222 -249,290 -273,459 -29,207 75,314 -63,531 -53,83 -123,165 -221,192 -227,63 -526,9 -762,12 -116,1 -239,40 -355,19 -90,-16 -148,-72 -195,-147 -358,-570 -239,-1448 -237,-2082 h -25 c -101,783 -69,1503 177,2260 -330,97 -496,-218 -584,-482 -109,-327 -239,-643 -253,-991 -9,-236 83,-631 -26,-838 l 76,-25 c -6,-252 206,-605 432,-712 38,132 103,250 190,356 z m 3438,-27 c -11,37 -30,69 -48,103 -330,-165 153,-442 48,-103 z m -4924,154 h -26 c -32,-110 -46,-235 26,-330 z m -6628,0 c 62,-157 193,-242 355,-279 -33,165 -180,312 -355,279 z m 6777,-144 c 77,-202 230,92 261,144 36,61 80,118 118,178 61,97 113,191 133,305 -234,-6 -616,-358 -512,-627 z m 6962,119 h -25 v 584 c -74,0 -237,-19 -257,82 -16,81 75,154 105,223 57,130 -16,329 -108,427 -283,302 -655,-274 -582,-554 41,-158 205,-244 232,-407 248,-226 324,-501 711,-461 77,8 265,3 282,110 29,186 -303,50 -358,-4 z m -11123,2133 -35,-813 -167,-431 -129,-940 c 688,32 824,1147 642,1651 -68,189 -219,337 -286,533 z m 9855,-1086 c 68,-42 209,-109 286,-56 61,42 96,144 140,202 54,70 130,139 149,229 30,145 -98,252 -195,336 -214,186 -457,435 -762,424 -347,-13 -594,-341 -838,-546 -213,-180 -475,-335 -569,-613 -107,-317 -79,-595 117,-871 95,-133 231,-249 401,-176 293,126 518,514 702,760 79,106 180,223 206,356 39,200 -19,431 -19,634 192,-190 139,-531 382,-679 z M 9002,8826 c 210,114 139,561 102,762 -215,-66 -145,-582 -102,-762 z m -2108,152 h -25 l 25,-102 z m 14602,179 c 38,-129 100,-210 229,-254 -8,147 -59,292 -229,254 z m 52,329 c -5,-98 157,-419 279,-264 34,44 11,113 11,162 0,89 21,170 -36,249 -126,173 -266,19 -127,-147 z M 7555,9918 c 236,-57 618,-458 860,-362 179,71 151,407 77,540 -226,404 -511,783 -768,1168 -92,137 -194,393 -335,482 -118,75 -299,-23 -418,-53 -233,-58 -476,-66 -712,-23 l 127,-813 26,-101 203,-432 -25,-76 127,-330 c 104,-115 128,-290 242,-398 71,-68 161,-28 240,-74 83,-48 139,-128 229,-168 249,-113 481,12 711,106 -117,309 -399,311 -584,534 z m 3055,1269 c -7,-165 -82,-317 -73,-482 9,-168 82,-452 -36,-584 v -762 c 192,30 325,223 420,381 236,390 197,1148 77,1575 -69,244 -199,480 -472,508 33,-219 95,-411 84,-636 z M 22310,9435 h -51 l 26,-51 z m -8165,2565 c -70,-50 -81,-177 -98,-254 -80,-347 89,-565 110,-889 160,-239 176,-706 240,-990 21,-96 51,-319 152,-365 273,-124 251,428 264,568 63,654 138,1386 -21,2032 -157,-32 -526,-17 -647,-102 z m 7113,-2175 c 100,17 131,51 127,153 -89,-27 -113,-62 -127,-153 z m 544,144 c 25,-122 79,-184 203,-204 -24,122 -79,184 -203,204 z m -12038,634 h 26 c -68,-241 -126,-523 -26,-761 h 51 c 208,508 67,1114 457,1549 20,-132 -65,-230 -57,-356 4,-75 66,-273 175,-206 91,57 102,214 117,308 48,291 11,633 -336,686 187,192 482,-7 703,91 122,54 218,262 297,366 219,291 508,547 651,889 h 25 l 25,-534 c 256,170 97,578 77,813 l 431,-279 c 25,195 63,358 156,533 35,66 95,165 47,238 -67,101 -273,140 -380,177 -347,122 -701,217 -1067,264 -98,12 -446,99 -472,-50 -41,-234 481,-513 624,-654 l -762,558 -407,-1117 -151,-356 -254,-838 h -26 c 128,616 334,1220 492,1829 42,160 193,504 73,652 -116,144 -505,94 -572,-68 -192,-466 -271,-971 -426,-1448 -124,-384 -322,-791 -354,-1193 150,-155 431,-699 426,-915 -6,-287 -168,-693 -71,-965 z m 1372,1575 -73,-508 22,-559 c 98,0 86,-152 68,-228 -45,-189 -62,-437 -43,-635 6,-53 15,-184 77,-199 221,-54 468,334 503,504 93,442 -79,928 -122,1371 -28,288 127,514 127,788 z m 762,-1752 -432,-356 25,-25 z m 6101,-203 c -37,504 -490,-137 -7,-153 3,50 10,102 7,153 z m -9504,532 c 66,-96 251,-432 400,-375 175,69 108,541 84,680 -42,239 -186,492 -434,560 -118,33 -251,-15 -354,61 -188,138 -235,386 -484,445 12,-521 510,-968 788,-1371 z m 9015,-25 c 14,-187 158,-252 330,-203 -67,140 -180,190 -330,203 z m -101,661 c -15,-253 179,-615 432,-686 -21,245 -146,664 -432,686 z m -5604,773 c -48,-177 -85,-362 -86,-545 -1,-183 -41,-551 77,-703 162,-206 429,284 475,399 148,368 83,760 83,1143 0,183 7,563 -203,635 16,-370 -254,-597 -346,-929 z m 7864,-1053 -102,51 -330,-203 z m 101,26 h -76 l 76,-26 z m -3758,330 c 358,-40 760,-63 1118,-16 121,17 352,4 438,104 57,66 30,162 -59,175 -168,24 -387,-47 -557,-65 -192,-21 -391,-38 -584,-14 -255,31 -506,100 -762,120 3,-256 187,-279 406,-304 z m -10057,127 h -26 l 26,-76 z m 8000,254 h -25 v -279 z m 3429,-69 c 119,18 419,69 402,243 -15,153 -348,-40 -427,-46 -413,-30 -1029,65 -1397,-128 288,-272 1067,-124 1422,-69 z m -4751,1949 c -171,-399 -98,-897 -130,-1321 -14,-182 -98,-381 -47,-559 122,54 210,135 304,229 94,93 194,185 254,304 225,446 -173,942 -330,1347 z m 2719,-1677 c 59,-208 248,-203 432,-203 -94,176 -248,203 -432,203 z m -8153,203 c 25,179 -187,300 -285,432 -98,132 -158,321 -300,413 -287,187 -494,-295 -551,-504 -99,-368 88,-723 501,-663 119,17 489,76 471,246 -12,115 -186,176 -268,236 -154,114 -275,265 -330,450 334,-114 378,-527 762,-610 z m 8610,2077 c -288,241 -565,506 -827,775 -80,82 -242,204 -257,323 -18,135 184,251 221,381 -189,15 -425,96 -610,68 -102,-15 -198,-89 -279,-148 -529,-387 -186,-802 124,-1215 600,-801 1463,-1494 2390,-1880 v -25 h -254 v -102 c -287,202 -484,439 -838,229 -25,-215 -123,-498 178,-559 l 25,305 138,-412 370,6 1016,25 c -79,1005 -655,1607 -1397,2229 z m -10041,-2263 9,-8 c 19,0 4,12 -9,8 z m 8416,363 v -279 c 277,-52 519,-30 457,305 z m 1066,2947 26,153 c 202,-85 730,-8 618,329 -40,122 -200,166 -313,143 -209,-42 -830,-362 -707,-625 101,-217 337,-392 503,-558 447,-446 981,-834 1382,-1321 169,-205 433,-484 447,-762 110,-139 124,-410 127,-584 610,62 657,1061 398,1472 -141,222 -573,349 -804,464 -466,233 -877,520 -1296,828 -188,140 -450,299 -558,512 z m -7594,-3149 -51,178 26,-178 z m 6731,1092 c -190,-67 -108,-379 -102,-533 l -254,330 c -55,-232 197,-838 518,-584 166,132 15,631 -162,686 z m 1065,-336 c -137,52 -274,-121 -120,-182 128,-50 294,116 120,182 z m 3709,6 -127,-76 25,-26 z m -12317,127 c 41,-120 102,-168 228,-178 -36,111 -118,156 -228,178 z m 50,178 c 61,-176 247,-300 432,-254 -63,211 -236,229 -432,254 z m 5944,304 c 134,-143 200,-404 383,-496 141,-71 411,134 368,292 -66,241 -584,413 -802,432 z m 1777,26 26,-330 v 330 z m 5689,-51 c -305,88 -435,334 -544,610 -48,121 -77,314 -196,388 -80,51 -189,8 -276,-4 -217,-31 -441,-54 -661,-54 l 77,-737 c 322,-210 615,-239 990,-275 189,-18 364,23 534,-80 z m -13384,203 h -26 l -50,-254 z m 13297,908 c -153,229 -424,-68 -434,-248 -6,-114 65,-216 64,-331 224,-215 364,-466 711,-482 -72,315 -161,791 -341,1061 z m -7075,158 c 4,-480 253,-928 712,-1106 150,-58 303,-26 457,-62 283,756 -620,1066 -1169,1168 z m 12445,-126 c 137,298 428,527 598,812 226,380 363,935 218,1371 -95,286 -333,578 -486,838 -92,-153 -68,-362 -58,-533 25,-457 223,-1240 -120,-1625 -23,-378 -532,-756 -813,-953 -117,-83 -277,-143 -355,-266 l 685,127 v -25 c -550,-212 -1195,-266 -1777,-196 -595,71 -1157,276 -1702,-83 206,442 381,717 381,1218 -385,0 -730,-87 -1067,-272 -103,-56 -262,-114 -326,-218 -79,-131 -35,-406 -15,-551 21,-156 27,-351 169,-453 142,-102 342,-74 502,-51 332,48 654,149 993,124 329,-24 640,-138 963,-193 805,-136 1600,-105 2260,421 250,199 490,421 703,658 193,213 598,495 644,789 -540,-25 -1019,-610 -1397,-939 z m -12292,-611 c -181,193 -151,558 -366,748 -205,181 -718,194 -980,282 -659,219 -1156,538 -1594,1077 -132,163 -254,121 -413,27 -58,-338 -342,-581 -228,-965 185,63 239,237 304,406 h 26 c -13,-246 -219,-550 -178,-786 22,-125 236,-125 304,-37 62,81 6,309 26,417 h 51 c 28,-103 54,-369 138,-432 197,-148 685,-128 929,-178 376,-76 756,-180 1117,-310 271,-97 577,-245 864,-274 z m 11805,1702 c -45,-533 -440,-948 -910,-1168 139,134 296,250 412,406 293,393 297,857 274,1321 -8,168 19,445 -77,584 -148,-439 -89,-1164 -406,-1524 -45,-287 -419,-600 -660,-730 -144,-77 -375,-141 -458,-286 569,0 1180,1 1677,323 577,374 653,1304 101,1760 5,-225 65,-461 47,-686 z m -2789,-1016 c 162,46 411,389 296,569 -144,226 -293,-194 -295,-289 -3,-93 -1,-187 -1,-280 z m -2768,280 76,431 h 25 c 1,-94 -15,-263 70,-329 121,-94 513,55 573,180 143,298 147,770 97,1089 -21,133 -194,277 -145,406 104,274 451,214 548,-25 43,-107 5,-219 11,-330 19,-329 41,-634 15,-965 l 1116,355 c -59,457 -207,864 -466,1245 -122,179 -424,402 -473,609 -59,250 23,598 149,813 163,281 367,432 251,788 -105,323 -569,490 -831,669 -421,286 -871,598 -1241,946 -109,103 -152,254 -262,357 -130,121 -359,78 -460,195 -150,171 130,318 28,494 -49,84 -160,148 -287,198 140,-52 282,-87 367,-91 -36,318 -486,534 -761,610 -2,-79 -39,-200 1,-270 51,-89 204,-175 366,-238 -167,62 -356,101 -469,127 l 55,-610 224,-533 c 111,0 355,-315 458,-398 381,-307 781,-570 1096,-948 87,-105 291,-289 275,-432 300,-341 -197,-687 -432,-889 -275,-237 -591,-430 -861,-672 -127,-114 -199,-282 -118,-446 92,-183 286,-223 421,-355 -402,8 -822,76 -1220,137 -161,26 -405,97 -553,-7 -131,-92 -158,-314 -165,-460 -18,-343 -13,-675 33,-1016 282,-36 599,-84 838,-249 196,-134 357,-393 584,-470 319,-108 746,42 1067,84 z m -6398,1370 c -222,-230 -275,-531 -238,-837 11,-95 -10,-215 69,-287 95,-87 477,-123 583,-42 124,94 84,352 219,476 365,334 687,646 1117,923 174,113 463,236 508,454 -707,-2 -1745,-155 -2258,-687 z m -307,-1142 c -5,559 -51,1065 482,1420 414,275 964,367 1448,427 150,19 564,-12 660,122 93,131 26,489 26,647 l -1600,-151 -730,9 -159,-340 h -26 c -25,584 -560,978 -702,1524 -214,824 -164,1730 -342,2565 -44,206 -234,342 -279,533 -35,153 128,298 81,456 -61,201 -521,178 -688,179 -72,0 -201,22 -239,-59 -60,-127 63,-290 115,-398 159,-332 291,-605 381,-965 135,-540 87,-983 43,-1524 -44,-534 -26,-1041 -114,-1575 -63,-389 -92,-897 -440,-1143 47,83 212,646 -50,528 -264,-120 -222,-508 -229,-731 l 76,-203 c 172,-167 275,-390 457,-554 467,-422 1196,-740 1829,-767 z m 14323,2794 h -25 l -127,-229 -180,-541 -294,-1211 -136,-559 c 911,602 782,1606 762,2540 z M 16876,16800 c -222,-180 -383,-480 -500,-737 -33,-72 -115,-213 -58,-289 81,-108 432,-62 558,-92 z m 6501,5562 229,-406 50,-102 c 155,-180 130,-656 142,-889 42,-859 123,-1815 -700,-2362 -403,-267 -854,-447 -1244,-734 -126,-92 -332,-217 -365,-383 -25,-122 89,-295 132,-407 143,-376 277,-825 614,-1073 102,-75 491,-309 595,-163 144,201 221,500 318,728 155,361 341,712 556,1041 203,312 627,557 732,915 97,331 24,728 9,1067 -16,359 26,710 68,1066 26,224 53,578 -55,783 -65,124 -225,168 -269,309 -59,193 128,390 91,585 -67,358 -701,103 -903,25 z m 2338,-5461 c -11,450 60,816 177,1245 h 26 l 76,-381 c 43,-47 86,-145 155,-155 171,-22 290,439 316,561 112,531 275,1292 -141,1727 -73,-246 -5,-499 -105,-748 -83,-207 -227,-391 -320,-595 -266,-586 -460,-1318 -439,-1958 8,-265 -21,-576 128,-813 211,320 136,760 127,1117 z m -8788,432 c 565,0 371,729 -51,864 -89,-72 -130,20 -224,-9 -135,-42 -301,-344 -335,-474 132,-38 221,-1 330,76 -77,-109 -156,-164 -127,-304 l -330,50 v -50 l 432,-254 c -156,64 -333,159 -508,138 -413,-49 -848,-568 -1168,-808 -154,-116 -313,-230 -457,-358 -54,-47 -142,-128 -67,-198 224,-210 767,38 1006,98 262,67 442,-176 658,-142 113,17 199,219 257,304 176,266 682,745 584,1067 z m -7340,-990 457,1168 c -365,123 -771,101 -1118,288 -643,345 -787,1261 -833,1922 -16,224 139,378 178,584 30,158 -47,329 28,482 92,187 314,211 428,366 177,240 -213,710 -436,776 -186,55 -323,-304 -395,-431 -172,-299 -366,-695 -411,-1041 -27,-208 15,-425 13,-635 -3,-244 22,-489 1,-736 -21,-255 -93,-618 -2,-864 87,-234 367,-462 540,-635 471,-471 938,-959 1550,-1244 z m 15924,1828 -203,-203 c -27,-127 -126,-238 -183,-356 -148,-308 -254,-649 -172,-990 h 50 l 153,229 76,-483 h 51 c 124,602 228,1187 228,1803 z M 9866,16927 c 185,-27 257,204 279,355 -160,-46 -235,-204 -279,-355 z m 16635,1193 -218,-584 91,-406 c 265,-218 361,91 440,330 132,399 173,778 108,1194 -21,135 -16,329 -142,406 -39,-275 -75,-736 -279,-940 z m -10870,-254 -25,-609 c 242,69 343,564 76,660 z m 2738,-443 c -183,134 -530,245 -756,258 -123,7 -340,-251 -192,-332 161,-87 491,-62 674,-84 93,-11 498,-7 274,158 z m -2350,111 c 129,-20 208,220 246,307 115,259 492,650 26,726 -71,11 -224,55 -286,9 -121,-89 -104,-525 -88,-659 9,-79 -6,-366 102,-383 z m -515,1044 c 28,-214 88,-344 305,-407 0,280 6,407 -305,407 z m -6807,3699 c -124,90 -333,-77 -309,-220 23,-132 308,-515 424,-582 57,-33 129,-6 190,-22 76,-19 186,-116 264,-55 74,58 -11,211 -32,278 -86,275 -178,566 -376,784 -35,39 -288,179 -264,30 14,-86 147,-169 203,-230 118,-127 225,-283 256,-457 -183,99 -190,352 -356,474 z m 9118,644 c 44,-133 189,-154 304,-210 267,-129 527,-421 813,-476 -38,344 -806,685 -1117,686 z m 6070,51 c 87,-17 213,-70 301,-50 75,18 100,127 39,176 -69,55 -253,44 -340,51 -285,25 -729,111 -991,-25 68,-213 195,-160 381,-152 -126,-95 -125,-269 27,-351 138,-75 486,-89 633,-38 229,80 127,302 -50,363 z m -13333,101 c 93,-445 683,-244 1041,-330 77,417 -808,349 -1041,330 z m 1040,153 c -247,-69 -622,50 -889,50 -90,0 -250,25 -311,-61 -36,-51 7,-88 59,-84 434,33 785,-53 1217,-109 z m 12572,33 c 20,0 4,13 -8,9 z m -2892,-13709 36,65 c 0,23 -2,47 -10,68 -114,302 -367,-276 -69,-163 14,5 30,17 44,29 z"
     id="path1913"
     transform="translate(-2207,-2018)"
     style="display:inline" /><path
     fill="#2e2c34"
     stroke="none"
     d="m 20505,8923 c 98,315 -305,424 -476,614 -72,80 -141,283 -282,254 -136,-28 -227,-253 -289,-359 -81,-138 -275,-362 -302,-509 -30,-164 82,-274 134,-411 35,-93 23,-203 47,-300 -535,-215 -1441,243 -1741,-406 -88,-191 69,-202 175,-315 164,-173 399,-635 143,-828 11,-81 -12,-191 -101,-203 l -102,-381 -51,25 v -102 c -75,0 -124,-184 -169,-254 -119,-182 -274,-335 -491,-381 49,-146 -200,-193 -305,-228 -348,-117 -900,-14 -1142,228 -65,66 -243,213 -279,204 v 254 h -26 l -50,-51 101,940 c -106,16 -70,204 0,253 -57,352 536,505 229,909 -89,118 -255,68 -381,100 -314,80 -564,170 -838,354 -97,66 -235,125 -283,239 -143,334 259,568 264,862 7,374 -89,769 -221,1118 -56,150 -169,309 -203,464 -27,127 36,292 36,425 h -25 l -51,-331 h -25 c 42,530 210,1049 101,1575 l 51,76 h -25 l -26,-50 -76,457 c -249,-89 -577,-516 -559,-788 l -50,-76 -102,-51 c 80,1 18,-64 -51,-50 l 51,-51 v -26 l -76,26 25,-127 c -185,0 -438,-417 -482,-584 h -26 v 50 h -25 l -102,-279 h 51 v -25 l -25,-51 h -102 l 51,-51 -32,-19 -19,19 -34,-51 -42,-25 25,-127 -76,25 25,-101 c -84,0 -431,-471 -431,-559 -137,-104 -303,-275 -483,-254 -326,-594 -953,-1202 -1538,-1526 -183,-101 -428,-311 -646,-227 l -305,-86 -421,-433 15,-14 -15,14 -112,-116 -77,-76 -25,-25 25,-51 -25,-25 -51,25 -228,-254 -102,-76 c -255,-29 -378,-295 -686,-229 l 26,76 h -51 c 36,158 85,446 229,534 l 25,533 -965,-457 c -305,424 367,874 404,1295 18,208 -170,316 -216,508 -70,294 -237,527 -317,813 -98,352 -58,820 -303,1118 l -51,101 c -10,112 -150,265 -51,356 v 25 c -62,13 -65,16 -50,76 h -51 c -2,164 -65,411 -69,635 v 43 c 3,175 49,330 196,415 l -26,76 407,279 h 25 l 76,-51 305,51 c -1,450 470,1029 788,1315 118,108 270,170 380,284 l 77,-25 127,127 h 101 l -25,51 h 101 c 37,182 687,292 839,304 73,7 172,-19 228,26 116,92 40,499 -25,482 l -102,229 c -4,185 -221,349 -345,467 -316,300 -658,568 -968,872 -142,140 -295,151 -312,388 -209,69 -193,401 -206,584 -38,558 107,1181 -23,1727 93,0 69,202 76,280 15,153 31,359 81,503 54,158 181,296 199,462 h 76 l 228,482 h -50 l 254,178 v 102 h 76 c 38,288 313,714 629,465 102,-80 135,-230 196,-338 138,-243 389,-517 403,-813 8,-147 -177,-208 -288,-255 -204,-87 -346,-230 -534,-335 -82,-47 -202,-63 -253,-152 -65,-114 45,-271 8,-401 -152,-545 -262,-994 -54,-1549 279,-743 1438,-1138 2179,-984 199,42 347,346 393,527 29,115 12,259 140,304 26,595 203,1132 203,1728 0,174 10,531 -152,635 -39,511 -281,1076 -537,1513 -195,333 -507,482 -504,899 232,84 439,102 685,102 51,0 110,1 174,1 h 22 c 359,-1 850,-31 923,-382 37,-177 16,-503 -12,-686 -15,-95 -77,-207 -60,-304 38,-217 253,-388 272,-636 18,-243 -73,-689 78,-888 l 76,-915 c 156,-130 175,-591 215,-787 64,-310 305,-668 539,-873 93,-82 418,-42 542,-42 468,0 932,4 1397,66 123,16 350,-20 445,80 36,38 -90,482 -90,591 l 178,25 c 365,-92 737,49 1089,-126 115,-57 162,-185 264,-259 340,-245 709,-429 1135,-479 103,-12 229,-57 330,-25 249,78 430,433 635,587 300,223 1006,502 807,988 -203,498 -775,797 -1158,1133 -463,407 -819,991 -862,1610 -15,213 -237,703 -13,870 274,203 882,-292 1099,-441 95,-65 256,-127 276,-253 42,-272 -350,-467 -302,-681 30,-133 296,-184 407,-181 l 148,-177 360,-508 c 188,-27 206,-201 356,-279 529,-275 1237,-659 1467,-1245 71,-179 -63,-324 -20,-508 -346,-187 -374,-667 -253,-991 362,141 682,369 1016,559 429,244 887,432 1130,889 364,682 250,1552 179,2286 -33,341 -386,608 -395,940 -185,120 -423,483 -508,685 l 51,153 c 472,1 1225,222 1616,-128 111,-99 46,-205 50,-329 6,-170 96,-343 92,-508 -3,-135 -119,-240 -101,-381 32,-237 294,-404 319,-661 41,-408 -87,-789 -96,-1193 -12,-468 90,-987 19,-1448 -30,-197 -187,-359 -223,-559 -227,-116 -389,-426 -525,-635 -270,-415 -517,-877 -679,-1346 -84,-245 -100,-513 -175,-762 -59,-194 -174,-439 -323,-577 -50,-46 -156,-120 -90,-196 65,-73 187,-41 268,-26 248,44 453,129 660,277 572,406 688,1088 827,1720 41,189 155,389 164,580 h 51 l -26,51 26,25 51,-25 101,152 c 269,-4 260,395 432,533 l -26,77 102,177 102,229 c 50,64 64,157 132,207 87,62 202,27 280,106 212,214 296,593 324,881 l 23,228 79,559 h 25 c 229,-310 520,-681 661,-1041 90,-229 90,-603 227,-800 76,-109 244,126 301,-42 6,-16 8,-33 9,-49 v -16 c -4,-102 -77,-211 -75,-312 12,-438 88,-889 64,-1321 -20,-356 -363,-604 -349,-965 l 229,-26 c -90,-303 -374,-538 -583,-764 -211,-229 -370,-499 -592,-723 -161,-162 -371,-261 -527,-417 l -101,-26 -1118,-278 -2311,224 -356,-44 -304,-156 c -102,-148 -319,-153 -483,-151 -432,5 -839,-54 -1266,-114 -95,-14 -153,-86 -239,-108 l 6,-7 -6,7 c -14,-4 -29,-6 -44,-7 -255,-617 -814,-288 -1016,178 -383,-135 -233,-612 -257,-940 -23,-325 -260,-566 -286,-889 -18,-223 120,-532 202,-736 48,-119 104,-347 219,-416 151,-91 444,290 604,314 46,93 125,171 229,127 v 102 h 101 l 26,25 -26,51 c 229,99 472,254 734,164 393,-135 599,-713 1044,-774 95,-106 249,-416 396,-438 205,-31 327,333 595,198 260,-131 124,-378 305,-547 l 122,-488 5,-45 v 25 l 25,-102 -51,77 h -25 c 13,-110 -10,-188 -51,-253 l 51,151 h -26 l -25,-152 c -79,-129 -222,-210 -276,-384 -34,-110 63,-326 -60,-385 -188,-89 -488,97 -646,-11 -106,-72 -182,-253 -244,-363 -145,-259 -366,-528 -450,-813 h -76 l 25,-76 -76,-26 25,-50 -568,-839 -880,-990 -50,25 c -103,-188 -292,-331 -458,-463 -446,-355 -1068,-663 -1625,-795 -98,-23 -200,-32 -302,-33 h -20 c -124,1 -248,14 -367,29 -65,8 -209,47 -195,138 16,98 393,156 479,193 434,190 868,481 1225,793 896,783 1708,1603 2292,2653 151,271 490,765 446,1090 -29,222 -377,21 -409,255 -39,285 332,232 483,153 z m -8186,2108 -17,-25 76,51 -6,6 z M 22334,9101 v 203 h -26 l 21,-183 z M 19079,5875 c -556,-635 -1201,-1113 -1901,-1574 -237,-157 -750,-315 -888,-559 725,-135 1451,298 2005,726 962,742 1609,1615 2230,2652 190,316 422,630 576,965 40,86 -50,217 -165,307 268,-168 561,-313 839,-231 -162,111 -404,94 -584,205 -128,79 -254,162 -381,242 -145,90 -311,224 -483,254 -62,11 -218,-32 -150,-126 40,-54 251,-25 328,-69 101,-57 212,-133 328,-209 -63,32 -125,45 -169,27 -124,-51 -210,-409 -267,-527 -202,-417 -437,-1006 -781,-1321 -58,-266 -361,-561 -537,-762 z m 1754,2583 c 34,-22 69,-44 103,-66 -33,26 -68,49 -103,66 z M 18923,5469 c 689,782 1470,1769 1811,2768 l 203,-25 v -25 l -229,-127 c -19,-282 -313,-645 -453,-889 -381,-663 -815,-1306 -1350,-1854 -216,-222 -426,-474 -711,-610 200,283 499,501 729,762 z m -2304,584 -151,-76 c 4,-125 -2,-311 -34,-431 -18,-69 -87,-126 -136,-46 -88,142 39,366 -8,528 -198,-76 -137,-312 -178,-483 l 76,-101 c -249,88 -149,481 -432,381 -192,299 -592,195 -368,-178 210,-352 675,-462 1054,-457 113,1 409,25 433,176 14,93 -228,120 -273,206 -74,142 11,331 17,481 z m 610,-203 h -26 c 3,366 501,1063 -25,1321 -67,-280 27,-594 -90,-864 -82,-190 -403,-458 -322,-685 72,-201 333,-147 462,-50 278,209 410,622 523,938 82,231 101,515 -71,711 -61,70 -208,201 -309,123 -104,-81 73,-270 103,-351 81,-221 127,-548 -42,-737 z m -193,1041 c -38,130 -176,175 -214,305 l 203,-25 26,25 c -126,462 -789,946 -1196,460 -183,-218 -195,-671 -200,-942 513,77 -49,908 609,914 v -26 c -115,-33 -207,-47 -228,-177 l 406,-26 v -25 l -508,-51 c 93,-173 317,-132 483,-102 -41,-146 -156,-226 -280,-304 l 127,254 c -74,-18 -204,-4 -264,-52 -170,-135 81,-541 -84,-728 -100,-113 -346,63 -396,-67 -49,-129 95,-166 186,-169 l 25,-153 279,153 c 100,-153 603,31 761,76 v -25 c -118,-73 -133,-221 -50,-331 136,326 429,631 315,1016 z m -265,-406 c -126,-137 -482,-318 -608,-102 226,-42 399,17 608,102 z m -1167,152 c -30,-202 240,-296 305,-101 z m -127,432 c -94,-167 -121,-347 -76,-533 h 51 c 73,150 126,386 25,533 z m 834,-449 c -67,262 441,136 537,94 -72,-59 -495,-258 -537,-94 z m 1629,195 h -26 l 26,-101 z m 0,356 h -26 l 51,-330 z m -9168,1701 76,-177 c 77,204 59,459 -25,660 -357,-178 -611,-381 -1016,-457 43,-240 182,-176 355,-102 l -178,-254 c -96,-431 -519,-714 -558,-1194 332,114 485,625 628,915 117,234 139,434 438,355 l -152,-381 25,127 -76,26 -330,-432 -25,-51 -102,-178 -102,-177 c -33,-270 -400,-232 -431,-508 423,22 844,540 1099,838 91,106 208,219 250,355 59,187 27,433 73,635 z m 8586,-711 c 30,-66 -7,-270 39,-300 81,-52 128,97 133,148 15,146 -48,289 -129,406 -332,476 -1483,917 -1797,203 134,35 245,123 381,159 343,92 628,11 939,-133 v -26 c 177,-92 350,-273 434,-457 z m -1271,603 c -157,-31 -312,-142 -288,-323 25,-196 254,-311 262,-51 h 51 l 25,-381 c 133,49 129,153 153,279 l 101,-25 c -71,-299 75,-391 355,-432 l -102,533 c 127,-188 208,-372 288,-584 25,-67 58,-192 144,-205 116,-17 146,205 150,281 14,285 -111,561 -302,762 -273,114 -539,206 -837,146 z M 6994,8090 c 146,117 466,165 567,310 112,159 -267,346 -389,341 -279,-10 -647,-711 -584,-961 155,78 271,202 406,310 z m 8635,452 c -37,-158 -63,-362 33,-505 47,-71 254,-236 300,-74 31,106 -138,176 -187,250 -61,93 -44,223 -69,329 z m -812,584 c -212,-103 -423,-498 -222,-701 154,-155 398,-199 603,-238 z m 2945,508 c -195,-369 -181,-743 -152,-1143 155,-149 239,-297 482,-230 70,19 191,62 180,155 -18,142 -234,323 -304,456 -125,237 -148,501 -181,762 z m 509,-787 -262,559 -145,330 c 4,-528 290,-1644 1041,-1422 z m 989,-356 h -25 l 25,-203 z M 9229,9025 c -15,-217 -376,-390 -351,-579 26,-200 487,-32 560,51 246,278 259,884 216,1239 -15,119 -26,256 -95,356 z m 6362,-305 c 380,469 918,378 1409,117 167,-89 296,-216 483,-269 4,238 -8,502 42,736 64,300 207,546 184,864 -17,222 -249,290 -273,459 -29,207 75,314 -63,531 -53,83 -123,165 -221,192 -227,63 -526,9 -761,12 -116,1 -239,40 -355,19 -90,-16 -148,-72 -195,-147 -358,-570 -239,-1448 -237,-2082 h -25 c -101,783 -69,1503 177,2260 -330,97 -496,-218 -584,-482 -109,-327 -239,-643 -253,-991 -9,-236 83,-631 -26,-838 l 76,-25 c -6,-252 206,-605 432,-712 38,132 103,250 190,356 z m 6370,635 c 121,-527 -362,-758 -796,-813 300,-409 850,84 982,381 175,394 -139,772 -448,991 40,-206 214,-352 262,-559 z m -2932,-662 c -11,37 -30,69 -48,103 -330,-165 153,-442 48,-103 z m -4923,154 h -26 c -32,-110 -46,-235 26,-330 z m -6629,0 c 62,-157 193,-242 355,-279 -33,165 -180,312 -355,279 z m 6777,-144 c 77,-202 230,92 261,144 36,61 80,118 118,178 61,97 113,191 133,305 -234,-6 -616,-358 -512,-627 z m 6962,119 h -25 v 584 c -74,0 -237,-19 -257,82 -16,81 75,154 105,223 57,130 -16,329 -108,427 -283,302 -655,-274 -582,-554 41,-158 205,-244 232,-407 248,-226 324,-501 711,-461 77,8 265,3 282,110 29,186 -303,50 -358,-4 z m -11123,2133 -35,-813 -167,-431 -129,-940 c 688,32 824,1147 642,1651 -68,189 -219,337 -286,533 z m 9854,-1086 c 68,-42 209,-109 286,-56 61,42 96,144 140,202 54,70 130,139 149,229 30,145 -98,253 -195,337 -214,186 -457,435 -762,424 -347,-13 -594,-341 -838,-547 -213,-180 -475,-335 -569,-613 -107,-317 -79,-595 117,-871 95,-133 231,-249 401,-176 293,126 518,514 702,760 79,106 180,223 206,356 39,200 -19,431 -19,635 192,-191 139,-532 382,-680 z M 9000,8822 c 210,114 139,561 102,762 -215,-66 -145,-582 -102,-762 z m -2108,152 h -25 l 25,-102 z m 14578,203 c 38,-129 100,-210 229,-254 -8,147 -59,292 -229,254 z M 7299,9000 c 385,-114 826,-16 1168,183 90,52 440,270 310,410 -117,126 -526,-273 -640,-333 -488,-256 -783,-203 -1219,95 12,-225 185,-297 381,-355 z m 14095,711 h -25 l -51,-153 h -26 c -1,32 1,70 -11,101 -114,302 -367,-276 -69,-163 28,10 61,46 80,62 -48,-173 -77,-358 -25,-533 h 51 z m 152,-229 c -5,-98 157,-419 279,-264 34,44 11,113 11,162 0,89 21,170 -36,249 -126,173 -266,19 -127,-147 z M 7553,9914 c 236,-57 618,-458 860,-362 179,71 151,407 77,540 -226,404 -511,783 -768,1168 -92,137 -194,393 -335,482 -118,75 -299,-23 -418,-53 -233,-58 -476,-66 -712,-23 l 127,-813 26,-101 203,-432 -25,-76 127,-330 c 104,-115 128,-290 242,-398 71,-68 161,-28 240,-74 83,-48 139,-128 229,-168 249,-113 481,12 711,106 -117,309 -399,311 -584,534 z m 3055,1269 c -7,-165 -82,-317 -73,-482 9,-168 82,-452 -36,-584 v -762 c 192,30 325,223 420,381 236,390 197,1148 77,1575 -69,244 -199,480 -472,508 33,-219 95,-411 84,-636 z M 22308,9431 h -51 l 26,-51 z m -8164,2565 c -70,-50 -81,-177 -98,-254 -80,-347 89,-565 110,-889 160,-239 176,-706 240,-990 21,-96 51,-319 152,-365 273,-124 251,428 264,568 63,654 138,1386 -21,2032 -157,-32 -526,-17 -647,-102 z M 8899,10003 c -179,19 -171,-269 0,-273 160,-4 152,258 0,273 z m 12622,-242 c 100,17 131,51 127,153 -89,-27 -113,-62 -127,-153 z m 279,204 c 25,-122 79,-184 203,-204 -24,122 -79,184 -203,204 z m -12038,634 h 26 c -68,-241 -126,-523 -26,-761 h 51 c 208,508 67,1114 457,1549 20,-132 -65,-230 -57,-356 4,-75 66,-273 175,-206 91,57 102,214 117,308 48,291 11,633 -336,686 187,192 482,-7 703,91 122,54 218,262 297,366 219,291 508,547 651,889 h 25 l 25,-534 c 256,170 97,578 77,813 l 431,-279 c 25,195 63,358 156,532 35,66 95,165 47,238 -67,101 -273,140 -380,177 -347,122 -701,217 -1067,264 -98,12 -446,99 -472,-50 -41,-234 481,-513 624,-654 l -762,558 -407,-1116 -151,-356 -254,-838 h -26 c 128,616 334,1220 492,1828 42,160 193,504 73,652 -116,144 -505,94 -572,-68 -192,-466 -271,-970 -426,-1447 -124,-384 -322,-791 -354,-1193 150,-155 431,-699 426,-915 -6,-287 -168,-693 -71,-965 z m 1372,1575 -73,-508 22,-559 c 98,0 86,-152 68,-228 -45,-189 -62,-437 -43,-635 6,-53 15,-184 77,-199 221,-54 468,334 503,504 93,442 -79,928 -122,1371 -28,288 127,514 127,788 z m 762,-1752 -432,-356 25,-25 z m 6101,-203 c -37,504 -490,-137 -7,-153 3,50 10,102 7,153 z M 7984,10092 c -367,37 -616,311 -660,660 513,0 571,-203 660,-660 z m -108,1295 c -112,128 -217,282 -374,355 230,-431 558,-824 845,-1219 106,-145 219,-378 399,-431 -13,442 -594,977 -870,1295 z m 1074,51 152,-712 -51,-609 c 178,62 177,240 178,406 2,356 -68,610 -254,915 z m -2235,-381 508,-813 c -428,-117 -531,518 -534,813 z m 965,-483 c -42,-87 -60,-148 0,-228 66,88 110,164 0,228 z m 813,178 c 66,-96 251,-432 400,-375 175,69 108,541 84,680 -42,239 -186,492 -434,560 -118,33 -251,-15 -354,61 -188,138 -235,386 -484,445 12,-521 510,-968 788,-1371 z m 9015,-26 c 14,-187 158,-252 330,-203 -67,140 -180,190 -330,203 z m -102,661 c -15,-253 179,-615 432,-686 -21,245 -146,664 -432,686 z m -5602,773 c -48,-177 -85,-362 -86,-545 -1,-183 -41,-551 77,-703 162,-206 429,284 475,399 148,368 83,760 83,1143 0,183 7,563 -203,635 16,-370 -254,-597 -346,-929 z M 7756,10930 c -353,-170 -649,311 -711,609 z m 11911,177 -102,51 -330,-203 z m -4952,102 c -58,-201 -260,-225 -432,-152 z m 5053,-76 h -76 l 76,-26 z m -4647,101 c 396,186 186,665 -127,813 7,-272 -2,-565 127,-813 z m 889,230 c 358,-40 759,-63 1117,-16 121,17 352,4 438,104 57,66 30,162 -59,175 -168,24 -387,-47 -557,-65 -192,-21 -391,-38 -583,-14 -255,31 -506,100 -762,120 3,-256 187,-279 406,-304 z m -10057,126 h -26 l 26,-76 z m 8000,254 h -25 v -279 z m -7238,-129 c 82,14 324,31 324,153 0,93 -143,72 -197,61 -157,-33 -293,-98 -458,-81 -160,17 -296,109 -457,123 77,-323 523,-300 788,-256 z m 10666,60 c 119,18 419,69 402,243 -15,153 -348,-40 -427,-46 -413,-30 -1028,65 -1396,-128 288,-272 1066,-124 1421,-69 z m -4749,1948 c -171,-398 -98,-896 -130,-1320 -14,-182 -98,-381 -47,-559 122,54 210,135 304,229 94,93 194,185 254,304 225,446 -173,942 -330,1346 z m 2718,-1676 c 59,-208 248,-203 432,-203 -94,176 -248,203 -432,203 z m -8026,93 c -180,-13 -153,-248 25,-226 162,19 140,238 -25,226 z m -127,110 c 25,179 -187,300 -285,432 -98,132 -158,321 -300,413 -287,187 -494,-295 -551,-504 -99,-368 88,-723 501,-663 119,17 489,76 471,246 -12,115 -186,176 -268,236 -154,114 -275,265 -330,450 334,-114 378,-527 762,-610 z m 723,1220 c -27,-184 205,-343 161,-521 -36,-145 -280,-88 -291,-243 -23,-334 565,-895 900,-722 123,63 152,273 187,393 105,364 216,725 311,1093 83,325 204,651 219,989 -537,-101 -1392,-327 -1487,-989 z m 7887,856 c -288,241 -565,506 -827,775 -80,82 -242,204 -257,323 -18,135 184,251 221,381 -189,15 -425,96 -610,68 -102,-15 -198,-89 -279,-148 -529,-387 -186,-802 124,-1215 600,-801 1463,-1493 2389,-1879 v -25 h -253 v -102 c -287,202 -484,439 -838,229 -25,-215 -123,-498 178,-559 l 25,305 138,-412 370,6 1015,25 c -79,1005 -654,1606 -1396,2228 z m -10041,-2262 9,-8 c 19,0 4,12 -9,8 z m 9454,214 c 159,334 -468,672 -386,277 14,-70 40,-135 62,-203 27,-85 42,-171 73,-254 86,40 208,90 251,180 z m -1038,150 v -279 c 277,-52 519,-30 457,305 z m 1066,2945 26,153 c 202,-85 730,-8 618,329 -40,122 -200,166 -313,143 -209,-42 -830,-362 -707,-625 101,-217 337,-392 503,-558 447,-446 981,-834 1381,-1320 169,-205 433,-484 447,-762 110,-139 124,-410 127,-584 610,62 657,1061 398,1471 -141,222 -573,349 -804,464 -465,233 -876,520 -1295,828 -188,140 -450,299 -558,512 z M 6514,12530 c 17,-40 29,-81 38,-123 33,-156 -79,-301 -225,-142 -106,115 -69,444 83,493 32,-77 73,-151 104,-228 z m 1140,-305 -51,178 26,-178 z m -254,76 c 114,167 162,409 178,610 l 203,-51 c 35,141 -51,222 -67,356 -17,143 57,313 130,430 372,602 1125,861 1791,890 1102,48 2263,-129 3277,-593 267,-122 546,-255 787,-424 135,-95 247,-257 407,-303 -154,645 -964,840 -1524,1000 -1440,411 -3018,790 -4394,7 -245,-139 -442,-336 -547,-602 -60,-151 -66,-345 -158,-481 -133,-198 -351,-291 -565,-356 122,-222 389,19 533,101 -33,-160 -155,-444 -51,-584 z m 6985,1016 c -190,-67 -108,-379 -102,-533 l -254,330 c -55,-232 197,-838 518,-584 166,132 15,631 -162,686 z m 1065,-335 c -137,52 -274,-121 -120,-182 128,-50 294,116 120,182 z m 3709,5 -127,-76 25,-26 z m -4667,432 c 47,-285 317,-610 581,-388 42,36 130,72 135,135 11,147 -248,345 -343,433 -100,95 -189,160 -328,174 -24,-116 -64,-234 -45,-354 z m -7650,-305 c 41,-120 102,-168 228,-178 -36,111 -118,156 -228,178 z m 11793,609 c -134,389 -137,890 -367,1240 -251,381 -853,490 -1268,545 -397,52 -822,146 -1193,-39 -79,-40 -237,-87 -273,-176 -57,-145 453,-417 553,-493 580,-445 1333,-942 2030,-1179 99,381 -111,942 -408,1199 -148,127 -416,179 -506,350 439,-150 772,-364 954,-813 213,-525 177,-1233 824,-1421 9,245 -265,550 -346,787 z M 6892,13292 c 61,-176 247,-300 432,-254 -63,211 -236,229 -432,254 z m 12257,-195 c 241,305 -380,379 -185,68 28,-44 62,-85 93,-127 35,17 67,26 92,59 z m -6313,499 c 134,-142 200,-403 383,-495 141,-71 411,134 368,292 -66,240 -584,412 -802,431 z m -5243,547 c -122,-177 -288,-376 -294,-597 -1,-58 -20,-184 40,-220 126,-73 320,412 379,498 295,434 793,660 1282,812 205,64 521,56 483,331 -716,0 -1455,-195 -1890,-824 z m 7020,-522 h 26 v -329 z m -7080,584 c 336,439 874,731 1417,826 161,29 321,-15 482,12 -147,258 -610,145 -838,75 -564,-171 -1016,-631 -1329,-1116 -108,-169 -281,-427 -195,-634 185,260 265,577 463,837 z m 12769,-635 c -305,88 -435,334 -544,610 -48,121 -77,314 -196,388 -80,51 -189,8 -276,-4 -217,-31 -441,-54 -661,-54 l 77,-737 c 322,-210 615,-238 990,-274 189,-18 364,23 534,-80 z m -13384,203 h -26 l -50,-253 z m 14247,-177 c -386,206 -556,607 -558,1041 -1,135 -35,314 80,412 425,360 1364,597 1901,408 130,-46 189,-173 304,-236 0,91 33,262 -26,337 -74,96 -320,95 -431,114 -454,76 -940,-4 -1371,-155 -139,-49 -265,-128 -407,-169 l 51,1118 c -256,-12 -220,-173 -229,-381 -10,-223 16,-655 -139,-832 -98,-111 -331,-147 -470,-181 -423,-105 -884,-232 -1321,-232 7,-316 236,-258 483,-230 456,51 856,228 1295,332 3,-370 86,-792 265,-1118 130,-235 301,-384 573,-254 z m -950,1086 c -153,229 -424,-68 -434,-248 -6,-114 65,-216 64,-331 224,-215 364,-466 711,-482 -72,315 -161,791 -341,1061 z m -7075,158 c 4,-480 253,-928 712,-1106 150,-58 303,-26 457,-62 283,756 -620,1066 -1169,1168 z m 12445,-127 c 137,299 428,528 598,813 226,380 363,935 218,1371 -95,286 -333,578 -486,838 -92,-153 -68,-362 -58,-533 25,-457 223,-1240 -120,-1625 -23,-378 -532,-757 -813,-954 -117,-83 -277,-143 -355,-266 l 685,127 v -25 c -550,-212 -1195,-266 -1777,-196 -595,71 -1157,276 -1702,-83 206,442 381,717 381,1219 -385,0 -730,-87 -1067,-272 -103,-56 -262,-114 -326,-219 -79,-131 -35,-406 -15,-551 21,-156 27,-351 169,-453 142,-102 342,-74 502,-51 332,48 654,149 993,124 329,-24 640,-138 963,-193 805,-136 1600,-105 2260,421 250,199 490,421 703,658 193,214 598,496 644,790 -540,-25 -1019,-610 -1397,-940 z m -12292,-610 c -181,193 -151,558 -366,748 -205,181 -718,194 -980,282 -659,219 -1156,538 -1594,1077 -132,163 -254,121 -413,27 -58,-338 -342,-581 -228,-965 185,63 239,237 304,406 h 26 c -13,-246 -219,-550 -178,-786 22,-125 236,-125 304,-37 62,81 6,309 26,417 h 51 c 28,-103 54,-369 138,-432 197,-148 685,-128 929,-178 376,-76 756,-180 1117,-310 271,-97 577,-245 864,-274 z m 11805,1702 c -45,-533 -440,-948 -910,-1168 139,134 296,250 412,406 293,393 297,857 274,1321 -8,168 19,445 -77,584 -148,-439 -89,-1164 -406,-1524 -45,-287 -419,-600 -660,-730 -144,-77 -375,-141 -458,-286 569,0 1180,1 1677,323 577,374 653,1304 101,1760 5,-225 65,-461 47,-686 z m -2790,-1016 c 162,46 411,389 296,569 -144,226 -293,-194 -295,-289 -3,-93 -1,-187 -1,-280 z m -9320,365 c -596,154 -1223,274 -1753,606 -195,123 -392,266 -557,428 -106,105 -160,227 -306,278 -91,-333 391,-660 635,-808 768,-466 1813,-810 2718,-818 -113,204 -524,260 -737,314 z m 6552,-85 76,431 h 25 c 1,-94 -15,-263 70,-329 121,-94 513,55 573,180 143,298 147,770 97,1089 -21,133 -194,277 -145,406 104,274 451,214 548,-25 43,-107 5,-219 11,-330 19,-329 41,-634 15,-965 l 1117,355 c -59,457 -207,864 -466,1245 -122,179 -424,402 -473,609 -59,250 23,598 149,813 163,281 367,432 251,788 -105,323 -570,490 -832,669 -421,286 -871,598 -1241,946 -109,103 -152,254 -262,357 -130,121 -359,78 -460,195 -150,171 130,318 28,494 -115,197 -576,288 -783,336 l 55,-610 224,-533 c 111,0 355,-315 458,-398 381,-307 781,-570 1096,-948 87,-105 291,-289 275,-432 300,-341 -197,-687 -432,-889 -275,-237 -591,-430 -861,-672 -127,-114 -199,-282 -118,-446 92,-183 286,-223 421,-355 -402,8 -822,76 -1220,137 -161,26 -405,97 -553,-7 -131,-92 -158,-314 -165,-460 -18,-343 -13,-675 33,-1016 282,-36 599,-84 838,-249 196,-134 357,-393 584,-470 319,-108 746,42 1067,84 z m -6397,1370 c -222,-230 -275,-531 -238,-837 11,-95 -10,-215 69,-287 95,-87 477,-123 583,-42 124,94 84,352 219,476 365,334 687,646 1117,923 174,113 463,236 508,454 -707,-2 -1745,-155 -2258,-687 z m -307,-1142 c -5,559 -51,1065 482,1420 414,275 964,367 1448,427 150,19 564,-12 660,122 93,131 26,489 26,647 l -1600,-151 -730,9 -159,-340 h -26 c -25,584 -560,978 -702,1524 -214,824 -164,1730 -342,2565 -44,206 -234,342 -279,533 -35,153 128,298 81,456 -61,201 -521,178 -688,179 -72,0 -201,22 -239,-59 -60,-127 63,-290 115,-398 159,-332 291,-605 381,-965 135,-540 87,-983 43,-1524 -44,-534 -26,-1041 -114,-1575 -63,-389 -92,-897 -440,-1143 47,83 212,646 -50,528 -264,-120 -222,-508 -229,-731 l 76,-203 c 172,-167 275,-390 457,-554 467,-422 1196,-740 1829,-767 z m 6204,965 -288,635 c 113,-43 208,-105 229,-228 277,-157 397,-939 279,-1219 z m 627,559 c -208,28 -527,89 -686,229 l 533,-128 331,26 -29,-736 -98,-254 -77,-432 z m 7492,1270 h -25 l -127,-229 -180,-541 -294,-1211 -136,-559 c 911,602 782,1606 762,2540 z M 16873,16796 c -222,-180 -382,-480 -499,-737 -33,-72 -115,-213 -58,-289 81,-108 431,-62 557,-92 z m -6984,-280 c -194,-138 -434,-514 -330,-762 133,240 306,482 330,762 z m 13486,5842 229,-406 50,-102 c 155,-180 130,-656 142,-889 42,-859 123,-1815 -700,-2362 -403,-267 -855,-447 -1245,-734 -126,-92 -332,-217 -365,-383 -25,-122 89,-295 132,-407 143,-376 277,-825 614,-1073 102,-75 492,-309 596,-163 144,201 221,500 318,728 155,361 341,712 556,1041 203,312 627,557 732,915 97,331 24,728 9,1067 -16,359 26,710 68,1066 26,224 53,578 -55,783 -65,124 -225,168 -269,309 -59,193 128,390 91,585 -67,358 -701,103 -903,25 z m 2337,-5461 c -11,450 60,816 177,1245 h 26 l 76,-381 c 43,-47 86,-145 155,-155 171,-22 290,439 316,561 112,531 276,1292 -141,1727 -73,-246 -5,-499 -105,-748 -83,-207 -227,-391 -320,-595 -266,-586 -460,-1318 -439,-1958 8,-265 -21,-576 128,-813 211,320 136,760 127,1117 z m -6477,-939 h -25 l 25,-77 z m -2311,1371 c 565,0 371,729 -51,864 -89,-72 -130,20 -224,-9 -134,-42 -300,-344 -334,-474 132,-38 221,-1 329,76 -77,-109 -155,-164 -126,-304 l -330,50 v -50 l 431,-254 c -155,64 -332,159 -507,138 -413,-49 -848,-568 -1168,-808 -154,-116 -313,-230 -457,-358 -54,-47 -142,-128 -67,-198 224,-210 767,38 1006,98 262,67 442,-176 658,-142 113,17 199,219 257,304 176,266 681,745 583,1067 z m -7339,-990 457,1168 c -365,123 -771,101 -1118,288 -643,345 -787,1261 -833,1922 -16,224 139,378 178,584 30,158 -47,329 28,482 92,187 314,211 428,366 177,240 -213,710 -436,776 -186,55 -323,-304 -395,-431 -172,-299 -366,-695 -411,-1041 -27,-208 15,-425 13,-635 -3,-244 22,-489 1,-736 -21,-255 -93,-618 -2,-864 87,-234 367,-462 540,-635 471,-471 938,-959 1550,-1244 z m 15923,1828 -203,-203 c -27,-127 -126,-238 -183,-356 -148,-308 -254,-649 -172,-990 h 50 l 153,229 76,-483 h 51 c 124,602 228,1187 228,1803 z M 10169,16965 c -273,7 -282,-428 0,-432 277,-3 268,424 0,432 z m 10336,-24 c -284,34 -255,-331 0,-361 252,-30 232,333 0,361 z m -10641,-18 c 185,-27 257,204 279,355 -160,-46 -235,-204 -279,-355 z m 16635,1193 -218,-584 91,-406 c 265,-218 361,91 440,330 132,399 173,778 108,1194 -21,135 -16,329 -142,406 -39,-275 -75,-736 -279,-940 z m -16025,-558 c -145,-75 -323,-255 -254,-432 159,96 237,249 254,432 z m 5155,304 -25,-609 c 242,69 343,564 76,660 z m 2737,-444 c -183,134 -530,245 -756,258 -123,7 -340,-251 -192,-332 161,-87 491,-62 674,-84 93,-11 498,-7 274,158 z m 4120,211 965,462 c -137,-403 -986,-644 -1371,-660 z m -6468,-99 c 129,-20 208,220 246,307 115,259 491,650 26,726 -71,11 -224,55 -286,9 -121,-89 -104,-525 -88,-659 9,-79 -6,-366 102,-383 z m 3573,764 v 26 c 188,105 679,74 584,-254 -199,189 -318,240 -584,228 z m -4089,280 c 28,-214 88,-344 305,-407 0,280 6,407 -305,407 z m -7822,152 c 122,-45 367,-145 330,-305 -152,82 -254,144 -330,305 z m 16508,-178 -559,-101 c 100,205 399,282 559,101 z m -12622,610 v 25 c 268,74 613,-321 558,-584 -163,278 -273,421 -558,559 z m 9117,473 c 178,-116 407,-98 457,-346 l -1067,721 -457,422 c 400,-169 704,-563 1067,-797 z m -8736,136 -483,-25 c 88,256 342,214 483,25 z m -3252,2506 c -124,90 -333,-77 -309,-220 23,-132 308,-515 424,-582 57,-33 129,-6 190,-22 76,-19 186,-116 264,-55 74,58 -11,211 -32,278 -86,275 -178,566 -376,784 -35,39 -288,179 -264,30 14,-86 147,-169 203,-230 118,-127 225,-283 256,-457 -183,99 -190,352 -356,474 z m 10007,-169 c -36,318 -486,534 -762,610 -2,-79 -39,-200 1,-270 99,-170 574,-331 761,-340 z m -889,813 c 44,-133 189,-154 304,-210 267,-129 527,-421 813,-476 -38,344 -806,685 -1117,686 z m 6070,51 c 87,-17 213,-70 301,-50 75,18 100,127 39,176 -69,55 -253,44 -340,51 -285,25 -729,111 -991,-25 68,-213 195,-160 381,-152 -126,-95 -125,-269 27,-351 138,-75 486,-89 633,-38 229,80 127,302 -50,363 z m -13333,101 c 93,-445 683,-244 1041,-330 77,417 -808,349 -1041,330 z m 1041,153 c -247,-69 -622,50 -889,50 -90,0 -250,25 -311,-61 -36,-51 7,-88 59,-84 434,33 785,-53 1217,-109 z m 12571,33 c 20,0 4,13 -8,9 z"
     id="path1920"
     style="display:inline"
     transform="translate(-2207,-2018)" /><path
     fill="#ffbf00"
     stroke="none"
     d="m 18637,13727 c -134,389 -137,890 -367,1240 -251,381 -853,490 -1268,545 -397,52 -823,146 -1194,-39 -79,-40 -237,-87 -273,-176 -57,-145 453,-417 553,-493 581,-445 1334,-942 2031,-1179 99,381 -111,942 -408,1199 -148,127 -416,179 -506,350 439,-150 772,-364 954,-813 213,-525 177,-1234 824,-1422 9,245 -265,550 -346,788 z m 3327,-4369 c 121,-527 -362,-758 -796,-813 300,-409 850,84 982,381 175,394 -139,772 -448,991 40,-206 214,-352 262,-559 z m -665,181 c -41,-161 -61,-330 -13,-491 h 51 l 76,686 h -25 l -51,-153 h -13 z m -131,4062 c -386,206 -556,607 -558,1041 -1,135 -35,314 80,412 425,360 1364,597 1901,408 130,-46 189,-173 304,-236 0,91 33,262 -26,337 -74,96 -320,95 -431,114 -454,76 -940,-4 -1371,-155 -139,-49 -265,-128 -407,-169 l 51,1118 c -256,-12 -220,-173 -229,-381 -10,-223 16,-655 -139,-832 -98,-111 -331,-147 -470,-181 -423,-105 -884,-232 -1321,-232 7,-316 236,-258 483,-230 456,51 856,228 1295,332 3,-370 86,-792 265,-1118 130,-235 301,-385 573,-254 z m -2016,-500 c 241,305 -380,379 -185,68 28,-44 62,-85 93,-127 35,17 67,26 92,59 z m 1355,3845 c -284,34 -255,-331 0,-361 252,-30 232,333 0,361 z M 7301,9002 c 385,-114 826,-16 1168,183 90,52 440,270 310,410 -117,126 -526,-273 -640,-333 -488,-256 -783,-203 -1219,95 12,-225 185,-297 381,-355 z m -583,2716 c 82,14 324,31 324,153 0,93 -143,72 -197,61 -157,-33 -293,-98 -458,-81 -160,17 -296,109 -457,123 77,-323 523,-300 788,-256 z m 7777,1703 c 47,-284 317,-609 581,-387 42,36 130,72 135,135 11,146 -248,344 -343,433 -100,95 -189,160 -328,174 -24,-116 -64,-235 -45,-355 z M 7402,12305 c 114,167 162,409 178,610 l 203,-51 c 35,141 -51,222 -67,356 -17,143 57,313 130,431 372,602 1125,861 1791,890 1102,48 2263,-129 3277,-593 267,-122 546,-255 787,-425 135,-95 247,-257 407,-303 -154,646 -964,841 -1524,1001 -1440,411 -3018,790 -4394,7 -245,-139 -442,-336 -547,-602 -60,-152 -66,-346 -158,-482 -133,-198 -351,-291 -565,-356 122,-222 389,19 533,101 -33,-160 -155,-444 -51,-584 z m 5589,2852 c -596,154 -1223,274 -1753,606 -195,123 -392,266 -557,428 -106,105 -160,227 -306,278 -91,-333 391,-660 635,-808 768,-466 1813,-810 2718,-818 -113,204 -524,260 -737,314 z M 7878,11390 c -112,128 -217,282 -374,355 230,-431 558,-824 845,-1219 106,-145 219,-378 399,-431 -13,442 -594,977 -870,1295 z m -342,2820 c 336,439 874,731 1417,826 161,29 321,-15 482,12 -147,258 -610,145 -838,75 -564,-171 -1016,-631 -1329,-1116 -108,-169 -281,-427 -195,-635 185,261 265,578 463,838 z m 1417,-2768 152,-712 -51,-609 c 178,62 177,240 178,406 2,356 -68,610 -254,915 z m -1627,700 c -180,-13 -153,-248 25,-226 162,19 140,238 -25,226 z m 1576,-2136 c -179,19 -171,-269 0,-273 160,-4 152,258 0,273 z m 1270,6963 c -273,7 -282,-428 0,-432 277,-3 268,424 0,432 z m -280,-450 c -194,-138 -434,-514 -330,-762 133,240 306,482 330,762 z m 584,1042 c -145,-75 -323,-255 -254,-432 159,96 237,249 254,432 z"
     id="path1927"
     transform="translate(-2207,-2018)"
     style="display:inline" /></g></svg>
