<svg width="73" height="24" viewBox="0 0 73 24" fill="none" xmlns="http://www.w3.org/2000/svg">
<path d="M17.0137 10.9942L17.9162 10.3672L20.0151 10.9942V12.1628H17.0137V10.9942Z" fill="#D9182F"/>
<path d="M20.9579 22.123C24.2068 22.123 26.8406 19.4913 26.8406 16.2451C26.8406 12.9988 24.2068 10.3672 20.9579 10.3672C17.709 10.3672 15.0752 12.9988 15.0752 16.2451C15.0752 19.4913 17.709 22.123 20.9579 22.123Z" fill="#D9182F"/>
<path d="M20.9579 21.2699C23.7349 21.2699 25.9861 19.0205 25.9861 16.2458C25.9861 13.471 23.7349 11.2217 20.9579 11.2217C18.1809 11.2217 15.9297 13.471 15.9297 16.2458C15.9297 19.0205 18.1809 21.2699 20.9579 21.2699Z" fill="#E9727A"/>
<path d="M20.9578 20.0851C23.08 20.0851 24.8004 18.3661 24.8004 16.2457C24.8004 14.1252 23.08 12.4062 20.9578 12.4062C18.8356 12.4062 17.1152 14.1252 17.1152 16.2457C17.1152 18.3661 18.8356 20.0851 20.9578 20.0851Z" fill="#F7F7F7"/>
<path d="M12.5196 15.1272C15.4234 15.1272 17.7774 12.7751 17.7774 9.87366C17.7774 6.97221 15.4234 4.62012 12.5196 4.62012C9.61574 4.62012 7.26172 6.97221 7.26172 9.87366C7.26172 12.7751 9.61574 15.1272 12.5196 15.1272Z" fill="#D9182F"/>
<path d="M12.5195 14.3647C15.0016 14.3647 17.0137 12.3543 17.0137 9.87425C17.0137 7.39424 15.0016 5.38379 12.5195 5.38379C10.0375 5.38379 8.02539 7.39424 8.02539 9.87425C8.02539 12.3543 10.0375 14.3647 12.5195 14.3647Z" fill="#E9727A"/>
<path d="M12.5197 13.3082C14.4177 13.3082 15.9564 11.7708 15.9564 9.87431C15.9564 7.97783 14.4177 6.44043 12.5197 6.44043C10.6217 6.44043 9.08301 7.97783 9.08301 9.87431C9.08301 11.7708 10.6217 13.3082 12.5197 13.3082Z" fill="#F7F7F7"/>
<path d="M17.5493 10.8949C18.4316 11.0852 19.3505 11.0098 20.1899 10.6783C21.0293 10.3467 21.7514 9.77389 22.2649 9.03226C22.7785 8.29063 23.0604 7.41351 23.0751 6.51179C23.0898 5.61001 22.8364 4.72419 22.3472 3.96634C21.858 3.20843 21.1549 2.61248 20.3267 2.25388C19.4986 1.8953 18.5826 1.79014 17.6946 1.9517C16.8066 2.11326 15.9865 2.5343 15.338 3.16158C14.6895 3.78885 14.2417 4.5942 14.0513 5.47575L18.5121 6.43777L17.5493 10.8949Z" fill="#D9182F"/>
<path d="M22.4127 6.43753C22.4127 8.59007 20.6663 10.335 18.512 10.335C16.3578 10.335 15.286 7.79273 14.6113 6.43753C14.6113 4.28505 16.3578 2.54004 18.512 2.54004C20.6663 2.54004 22.4127 4.28505 22.4127 6.43753Z" fill="#E9727A"/>
<path d="M18.5122 9.41596C20.1585 9.41596 21.4931 8.08244 21.4931 6.43747C21.4931 4.7925 20.1585 3.45898 18.5122 3.45898C16.8659 3.45898 15.5312 4.7925 15.5312 6.43747C15.5312 8.08244 16.8659 9.41596 18.5122 9.41596Z" fill="#F7F7F7"/>
<g filter="url(#filter0_d_4092_1940)">
<path d="M30.5684 14.7013C30.3853 14.5626 30.3409 14.4224 30.4355 14.2807L30.7767 13.767C30.889 13.5988 31.053 13.5899 31.2687 13.7405C31.4341 13.8556 31.6498 13.9751 31.9157 14.0991C32.1845 14.2201 32.4667 14.2807 32.7621 14.2807C32.9689 14.2807 33.1683 14.2571 33.3604 14.2099C33.5524 14.1626 33.6987 14.0711 33.7991 13.9353C33.8995 13.7995 33.9498 13.6386 33.9498 13.4526C33.9498 13.3198 33.9276 13.2032 33.8833 13.1028C33.839 13.0025 33.7666 12.9198 33.6661 12.8549C33.5657 12.79 33.4623 12.7353 33.356 12.691C33.1698 12.6142 32.9349 12.539 32.6513 12.4652C32.3706 12.3884 32.0929 12.2969 31.8182 12.1907C31.5729 12.0962 31.3484 11.9663 31.1445 11.801C30.9407 11.6357 30.7826 11.4497 30.6704 11.2431C30.5581 11.0364 30.502 10.7604 30.502 10.4151C30.502 10.0047 30.6349 9.65345 30.9009 9.36114C31.1667 9.06891 31.4725 8.88149 31.8182 8.79882C32.1638 8.71614 32.5124 8.6748 32.8641 8.6748C33.2127 8.6748 33.5716 8.72801 33.9409 8.83426C34.3132 8.94051 34.5939 9.07337 34.7829 9.23275C34.9691 9.38925 35.0148 9.53087 34.9203 9.65783L34.5613 10.1405C34.4402 10.3058 34.2777 10.3191 34.0739 10.1803C33.9439 10.0918 33.7652 9.99292 33.5376 9.88364C33.3131 9.77444 33.0783 9.7198 32.833 9.7198C32.6587 9.7198 32.4977 9.73461 32.35 9.76409C32.2052 9.79363 32.0766 9.86452 31.9644 9.97667C31.8522 10.0888 31.796 10.2276 31.796 10.3929C31.796 10.5523 31.8373 10.6822 31.9201 10.7826C32.0028 10.88 32.0944 10.9538 32.1949 11.004C32.2953 11.0512 32.3973 11.091 32.5006 11.1235C32.8197 11.2268 33.1048 11.3184 33.356 11.3981C33.6071 11.4748 33.839 11.5604 34.0517 11.6549C34.3471 11.7877 34.5731 11.9206 34.7298 12.0534C34.8863 12.1862 35.0148 12.3678 35.1153 12.598C35.2187 12.8283 35.2704 13.1028 35.2704 13.4216C35.2704 13.894 35.1197 14.2851 34.8183 14.595C34.517 14.9021 34.1817 15.0999 33.8124 15.1884C33.4461 15.2799 33.0885 15.3257 32.7399 15.3257C32.2259 15.3257 31.8078 15.2755 31.4858 15.1751C31.1638 15.0777 30.858 14.9198 30.5684 14.7013ZM36.5999 15.1751C36.3931 15.1751 36.2897 15.0644 36.2897 14.843V9.15748C36.2897 8.93605 36.3931 8.82542 36.5999 8.82542H37.2735C37.4803 8.82542 37.5837 8.93605 37.5837 9.15748V11.3227H39.9679V9.15748C39.9679 8.93605 40.0714 8.82542 40.2781 8.82542H40.9517C41.1586 8.82542 41.262 8.93605 41.262 9.15748V14.843C41.262 15.0644 41.1586 15.1751 40.9517 15.1751H40.2781C40.0714 15.1751 39.9679 15.0644 39.9679 14.843V12.4209H37.5837V14.843C37.5837 15.0644 37.4803 15.1751 37.2735 15.1751H36.5999ZM42.3521 12.0002C42.3521 10.9818 42.615 10.173 43.141 9.57372C43.6669 8.97444 44.4173 8.6748 45.3922 8.6748C46.3672 8.6748 47.1176 8.97444 47.6435 9.57372C48.1694 10.173 48.4323 10.9818 48.4323 12.0002C48.4323 13.0187 48.1694 13.8275 47.6435 14.4268C47.1176 15.026 46.3672 15.3257 45.3922 15.3257C44.4173 15.3257 43.6669 15.026 43.141 14.4268C42.615 13.8275 42.3521 13.0187 42.3521 12.0002ZM43.7348 12.0002C43.7348 12.7383 43.8662 13.3035 44.1292 13.6962C44.3951 14.0858 44.8161 14.2807 45.3922 14.2807C45.9683 14.2807 46.3878 14.0858 46.6508 13.6962C46.9167 13.3035 47.0496 12.7383 47.0496 12.0002C47.0496 11.2623 46.9167 10.6984 46.6508 10.3087C46.3878 9.91614 45.9683 9.7198 45.3922 9.7198C44.8161 9.7198 44.3951 9.91614 44.1292 10.3087C43.8662 10.6984 43.7348 11.2623 43.7348 12.0002ZM49.8327 15.1751C49.6259 15.1751 49.5225 15.0644 49.5225 14.843V9.15748C49.5225 8.93605 49.6259 8.82542 49.8327 8.82542H51.3793C52.7384 8.82542 53.6572 9.09989 54.1358 9.64899C54.6174 10.1981 54.8581 10.9789 54.8581 11.9914C54.8581 13.004 54.6174 13.7877 54.1358 14.3426C53.6572 14.8976 52.7384 15.1751 51.3793 15.1751H49.8327ZM50.8165 14.077H51.2951C52.211 14.077 52.8033 13.9073 53.0722 13.5677C53.3411 13.2253 53.4755 12.6999 53.4755 11.9914C53.4755 11.2829 53.3411 10.7604 53.0722 10.4239C52.8033 10.0844 52.211 9.9147 51.2951 9.9147H50.8165V14.077ZM55.7489 15.1751C55.5362 15.1751 55.4668 15.0777 55.5407 14.8829L57.7122 9.18408C57.8037 8.94497 57.9426 8.82542 58.1287 8.82542H58.7492C58.9353 8.82542 59.0741 8.94497 59.1657 9.18408L61.3372 14.8829C61.4111 15.0777 61.3416 15.1751 61.1289 15.1751H60.4243C60.2293 15.1751 60.0934 15.0733 60.0166 14.8696L59.5646 13.6784H57.3133L56.8613 14.8696C56.7844 15.0733 56.6485 15.1751 56.4535 15.1751H55.7489ZM57.7255 12.5803H59.1524L58.6073 11.1722C58.5423 11.0069 58.5024 10.8874 58.4877 10.8135C58.4758 10.7368 58.4626 10.6246 58.4478 10.477H58.4301C58.4153 10.6246 58.4005 10.7368 58.3857 10.8135C58.3739 10.8874 58.3355 11.0069 58.2705 11.1722L57.7255 12.5803ZM62.4363 15.1751C62.2294 15.1751 62.126 15.0644 62.126 14.843V9.15748C62.126 8.93605 62.2294 8.82542 62.4363 8.82542H63.0922C63.3462 8.82542 63.5382 8.92872 63.6683 9.13534L65.9284 12.7618H65.9594C65.9446 12.5848 65.9372 12.4076 65.9372 12.2305V9.15748C65.9372 8.93605 66.0406 8.82542 66.2474 8.82542H66.9211C67.1279 8.82542 67.2312 8.93605 67.2312 9.15748V14.843C67.2312 15.0644 67.1279 15.1751 66.9211 15.1751H66.3095C66.0554 15.1751 65.8633 15.0718 65.7333 14.8651L63.429 11.1722H63.3979C63.4127 11.3493 63.4201 11.5265 63.4201 11.7035V14.843C63.4201 15.0644 63.3166 15.1751 63.1099 15.1751H62.4363Z" fill="white"/>
<path d="M30.5684 14.7013C30.3853 14.5626 30.3409 14.4224 30.4355 14.2807L30.7767 13.767C30.889 13.5988 31.053 13.5899 31.2687 13.7405C31.4341 13.8556 31.6498 13.9751 31.9157 14.0991C32.1845 14.2201 32.4667 14.2807 32.7621 14.2807C32.9689 14.2807 33.1683 14.2571 33.3604 14.2099C33.5524 14.1626 33.6987 14.0711 33.7991 13.9353C33.8995 13.7995 33.9498 13.6386 33.9498 13.4526C33.9498 13.3198 33.9276 13.2032 33.8833 13.1028C33.839 13.0025 33.7666 12.9198 33.6661 12.8549C33.5657 12.79 33.4623 12.7353 33.356 12.691C33.1698 12.6142 32.9349 12.539 32.6513 12.4652C32.3706 12.3884 32.0929 12.2969 31.8182 12.1907C31.5729 12.0962 31.3484 11.9663 31.1445 11.801C30.9407 11.6357 30.7826 11.4497 30.6704 11.2431C30.5581 11.0364 30.502 10.7604 30.502 10.4151C30.502 10.0047 30.6349 9.65345 30.9009 9.36114C31.1667 9.06891 31.4725 8.88149 31.8182 8.79882C32.1638 8.71614 32.5124 8.6748 32.8641 8.6748C33.2127 8.6748 33.5716 8.72801 33.9409 8.83426C34.3132 8.94051 34.5939 9.07337 34.7829 9.23275C34.9691 9.38925 35.0148 9.53087 34.9203 9.65783L34.5613 10.1405C34.4402 10.3058 34.2777 10.3191 34.0739 10.1803C33.9439 10.0918 33.7652 9.99292 33.5376 9.88364C33.3131 9.77444 33.0783 9.7198 32.833 9.7198C32.6587 9.7198 32.4977 9.73461 32.35 9.76409C32.2052 9.79363 32.0766 9.86452 31.9644 9.97667C31.8522 10.0888 31.796 10.2276 31.796 10.3929C31.796 10.5523 31.8373 10.6822 31.9201 10.7826C32.0028 10.88 32.0944 10.9538 32.1949 11.004C32.2953 11.0512 32.3973 11.091 32.5006 11.1235C32.8197 11.2268 33.1048 11.3184 33.356 11.3981C33.6071 11.4748 33.839 11.5604 34.0517 11.6549C34.3471 11.7877 34.5731 11.9206 34.7298 12.0534C34.8863 12.1862 35.0148 12.3678 35.1153 12.598C35.2187 12.8283 35.2704 13.1028 35.2704 13.4216C35.2704 13.894 35.1197 14.2851 34.8183 14.595C34.517 14.9021 34.1817 15.0999 33.8124 15.1884C33.4461 15.2799 33.0885 15.3257 32.7399 15.3257C32.2259 15.3257 31.8078 15.2755 31.4858 15.1751C31.1638 15.0777 30.858 14.9198 30.5684 14.7013ZM36.5999 15.1751C36.3931 15.1751 36.2897 15.0644 36.2897 14.843V9.15748C36.2897 8.93605 36.3931 8.82542 36.5999 8.82542H37.2735C37.4803 8.82542 37.5837 8.93605 37.5837 9.15748V11.3227H39.9679V9.15748C39.9679 8.93605 40.0714 8.82542 40.2781 8.82542H40.9517C41.1586 8.82542 41.262 8.93605 41.262 9.15748V14.843C41.262 15.0644 41.1586 15.1751 40.9517 15.1751H40.2781C40.0714 15.1751 39.9679 15.0644 39.9679 14.843V12.4209H37.5837V14.843C37.5837 15.0644 37.4803 15.1751 37.2735 15.1751H36.5999ZM42.3521 12.0002C42.3521 10.9818 42.615 10.173 43.141 9.57372C43.6669 8.97444 44.4173 8.6748 45.3922 8.6748C46.3672 8.6748 47.1176 8.97444 47.6435 9.57372C48.1694 10.173 48.4323 10.9818 48.4323 12.0002C48.4323 13.0187 48.1694 13.8275 47.6435 14.4268C47.1176 15.026 46.3672 15.3257 45.3922 15.3257C44.4173 15.3257 43.6669 15.026 43.141 14.4268C42.615 13.8275 42.3521 13.0187 42.3521 12.0002ZM43.7348 12.0002C43.7348 12.7383 43.8662 13.3035 44.1292 13.6962C44.3951 14.0858 44.8161 14.2807 45.3922 14.2807C45.9683 14.2807 46.3878 14.0858 46.6508 13.6962C46.9167 13.3035 47.0496 12.7383 47.0496 12.0002C47.0496 11.2623 46.9167 10.6984 46.6508 10.3087C46.3878 9.91614 45.9683 9.7198 45.3922 9.7198C44.8161 9.7198 44.3951 9.91614 44.1292 10.3087C43.8662 10.6984 43.7348 11.2623 43.7348 12.0002ZM49.8327 15.1751C49.6259 15.1751 49.5225 15.0644 49.5225 14.843V9.15748C49.5225 8.93605 49.6259 8.82542 49.8327 8.82542H51.3793C52.7384 8.82542 53.6572 9.09989 54.1358 9.64899C54.6174 10.1981 54.8581 10.9789 54.8581 11.9914C54.8581 13.004 54.6174 13.7877 54.1358 14.3426C53.6572 14.8976 52.7384 15.1751 51.3793 15.1751H49.8327ZM50.8165 14.077H51.2951C52.211 14.077 52.8033 13.9073 53.0722 13.5677C53.3411 13.2253 53.4755 12.6999 53.4755 11.9914C53.4755 11.2829 53.3411 10.7604 53.0722 10.4239C52.8033 10.0844 52.211 9.9147 51.2951 9.9147H50.8165V14.077ZM55.7489 15.1751C55.5362 15.1751 55.4668 15.0777 55.5407 14.8829L57.7122 9.18408C57.8037 8.94497 57.9426 8.82542 58.1287 8.82542H58.7492C58.9353 8.82542 59.0741 8.94497 59.1657 9.18408L61.3372 14.8829C61.4111 15.0777 61.3416 15.1751 61.1289 15.1751H60.4243C60.2293 15.1751 60.0934 15.0733 60.0166 14.8696L59.5646 13.6784H57.3133L56.8613 14.8696C56.7844 15.0733 56.6485 15.1751 56.4535 15.1751H55.7489ZM57.7255 12.5803H59.1524L58.6073 11.1722C58.5423 11.0069 58.5024 10.8874 58.4877 10.8135C58.4758 10.7368 58.4626 10.6246 58.4478 10.477H58.4301C58.4153 10.6246 58.4005 10.7368 58.3857 10.8135C58.3739 10.8874 58.3355 11.0069 58.2705 11.1722L57.7255 12.5803ZM62.4363 15.1751C62.2294 15.1751 62.126 15.0644 62.126 14.843V9.15748C62.126 8.93605 62.2294 8.82542 62.4363 8.82542H63.0922C63.3462 8.82542 63.5382 8.92872 63.6683 9.13534L65.9284 12.7618H65.9594C65.9446 12.5848 65.9372 12.4076 65.9372 12.2305V9.15748C65.9372 8.93605 66.0406 8.82542 66.2474 8.82542H66.9211C67.1279 8.82542 67.2312 8.93605 67.2312 9.15748V14.843C67.2312 15.0644 67.1279 15.1751 66.9211 15.1751H66.3095C66.0554 15.1751 65.8633 15.0718 65.7333 14.8651L63.429 11.1722H63.3979C63.4127 11.3493 63.4201 11.5265 63.4201 11.7035V14.843C63.4201 15.0644 63.3166 15.1751 63.1099 15.1751H62.4363Z" fill="white" fill-opacity="0.2"/>
<path d="M30.5684 14.7013C30.3853 14.5626 30.3409 14.4224 30.4355 14.2807L30.7767 13.767C30.889 13.5988 31.053 13.5899 31.2687 13.7405C31.4341 13.8556 31.6498 13.9751 31.9157 14.0991C32.1845 14.2201 32.4667 14.2807 32.7621 14.2807C32.9689 14.2807 33.1683 14.2571 33.3604 14.2099C33.5524 14.1626 33.6987 14.0711 33.7991 13.9353C33.8995 13.7995 33.9498 13.6386 33.9498 13.4526C33.9498 13.3198 33.9276 13.2032 33.8833 13.1028C33.839 13.0025 33.7666 12.9198 33.6661 12.8549C33.5657 12.79 33.4623 12.7353 33.356 12.691C33.1698 12.6142 32.9349 12.539 32.6513 12.4652C32.3706 12.3884 32.0929 12.2969 31.8182 12.1907C31.5729 12.0962 31.3484 11.9663 31.1445 11.801C30.9407 11.6357 30.7826 11.4497 30.6704 11.2431C30.5581 11.0364 30.502 10.7604 30.502 10.4151C30.502 10.0047 30.6349 9.65345 30.9009 9.36114C31.1667 9.06891 31.4725 8.88149 31.8182 8.79882C32.1638 8.71614 32.5124 8.6748 32.8641 8.6748C33.2127 8.6748 33.5716 8.72801 33.9409 8.83426C34.3132 8.94051 34.5939 9.07337 34.7829 9.23275C34.9691 9.38925 35.0148 9.53087 34.9203 9.65783L34.5613 10.1405C34.4402 10.3058 34.2777 10.3191 34.0739 10.1803C33.9439 10.0918 33.7652 9.99292 33.5376 9.88364C33.3131 9.77444 33.0783 9.7198 32.833 9.7198C32.6587 9.7198 32.4977 9.73461 32.35 9.76409C32.2052 9.79363 32.0766 9.86452 31.9644 9.97667C31.8522 10.0888 31.796 10.2276 31.796 10.3929C31.796 10.5523 31.8373 10.6822 31.9201 10.7826C32.0028 10.88 32.0944 10.9538 32.1949 11.004C32.2953 11.0512 32.3973 11.091 32.5006 11.1235C32.8197 11.2268 33.1048 11.3184 33.356 11.3981C33.6071 11.4748 33.839 11.5604 34.0517 11.6549C34.3471 11.7877 34.5731 11.9206 34.7298 12.0534C34.8863 12.1862 35.0148 12.3678 35.1153 12.598C35.2187 12.8283 35.2704 13.1028 35.2704 13.4216C35.2704 13.894 35.1197 14.2851 34.8183 14.595C34.517 14.9021 34.1817 15.0999 33.8124 15.1884C33.4461 15.2799 33.0885 15.3257 32.7399 15.3257C32.2259 15.3257 31.8078 15.2755 31.4858 15.1751C31.1638 15.0777 30.858 14.9198 30.5684 14.7013ZM36.5999 15.1751C36.3931 15.1751 36.2897 15.0644 36.2897 14.843V9.15748C36.2897 8.93605 36.3931 8.82542 36.5999 8.82542H37.2735C37.4803 8.82542 37.5837 8.93605 37.5837 9.15748V11.3227H39.9679V9.15748C39.9679 8.93605 40.0714 8.82542 40.2781 8.82542H40.9517C41.1586 8.82542 41.262 8.93605 41.262 9.15748V14.843C41.262 15.0644 41.1586 15.1751 40.9517 15.1751H40.2781C40.0714 15.1751 39.9679 15.0644 39.9679 14.843V12.4209H37.5837V14.843C37.5837 15.0644 37.4803 15.1751 37.2735 15.1751H36.5999ZM42.3521 12.0002C42.3521 10.9818 42.615 10.173 43.141 9.57372C43.6669 8.97444 44.4173 8.6748 45.3922 8.6748C46.3672 8.6748 47.1176 8.97444 47.6435 9.57372C48.1694 10.173 48.4323 10.9818 48.4323 12.0002C48.4323 13.0187 48.1694 13.8275 47.6435 14.4268C47.1176 15.026 46.3672 15.3257 45.3922 15.3257C44.4173 15.3257 43.6669 15.026 43.141 14.4268C42.615 13.8275 42.3521 13.0187 42.3521 12.0002ZM43.7348 12.0002C43.7348 12.7383 43.8662 13.3035 44.1292 13.6962C44.3951 14.0858 44.8161 14.2807 45.3922 14.2807C45.9683 14.2807 46.3878 14.0858 46.6508 13.6962C46.9167 13.3035 47.0496 12.7383 47.0496 12.0002C47.0496 11.2623 46.9167 10.6984 46.6508 10.3087C46.3878 9.91614 45.9683 9.7198 45.3922 9.7198C44.8161 9.7198 44.3951 9.91614 44.1292 10.3087C43.8662 10.6984 43.7348 11.2623 43.7348 12.0002ZM49.8327 15.1751C49.6259 15.1751 49.5225 15.0644 49.5225 14.843V9.15748C49.5225 8.93605 49.6259 8.82542 49.8327 8.82542H51.3793C52.7384 8.82542 53.6572 9.09989 54.1358 9.64899C54.6174 10.1981 54.8581 10.9789 54.8581 11.9914C54.8581 13.004 54.6174 13.7877 54.1358 14.3426C53.6572 14.8976 52.7384 15.1751 51.3793 15.1751H49.8327ZM50.8165 14.077H51.2951C52.211 14.077 52.8033 13.9073 53.0722 13.5677C53.3411 13.2253 53.4755 12.6999 53.4755 11.9914C53.4755 11.2829 53.3411 10.7604 53.0722 10.4239C52.8033 10.0844 52.211 9.9147 51.2951 9.9147H50.8165V14.077ZM55.7489 15.1751C55.5362 15.1751 55.4668 15.0777 55.5407 14.8829L57.7122 9.18408C57.8037 8.94497 57.9426 8.82542 58.1287 8.82542H58.7492C58.9353 8.82542 59.0741 8.94497 59.1657 9.18408L61.3372 14.8829C61.4111 15.0777 61.3416 15.1751 61.1289 15.1751H60.4243C60.2293 15.1751 60.0934 15.0733 60.0166 14.8696L59.5646 13.6784H57.3133L56.8613 14.8696C56.7844 15.0733 56.6485 15.1751 56.4535 15.1751H55.7489ZM57.7255 12.5803H59.1524L58.6073 11.1722C58.5423 11.0069 58.5024 10.8874 58.4877 10.8135C58.4758 10.7368 58.4626 10.6246 58.4478 10.477H58.4301C58.4153 10.6246 58.4005 10.7368 58.3857 10.8135C58.3739 10.8874 58.3355 11.0069 58.2705 11.1722L57.7255 12.5803ZM62.4363 15.1751C62.2294 15.1751 62.126 15.0644 62.126 14.843V9.15748C62.126 8.93605 62.2294 8.82542 62.4363 8.82542H63.0922C63.3462 8.82542 63.5382 8.92872 63.6683 9.13534L65.9284 12.7618H65.9594C65.9446 12.5848 65.9372 12.4076 65.9372 12.2305V9.15748C65.9372 8.93605 66.0406 8.82542 66.2474 8.82542H66.9211C67.1279 8.82542 67.2312 8.93605 67.2312 9.15748V14.843C67.2312 15.0644 67.1279 15.1751 66.9211 15.1751H66.3095C66.0554 15.1751 65.8633 15.0718 65.7333 14.8651L63.429 11.1722H63.3979C63.4127 11.3493 63.4201 11.5265 63.4201 11.7035V14.843C63.4201 15.0644 63.3166 15.1751 63.1099 15.1751H62.4363Z" fill="white" fill-opacity="0.2"/>
</g>
<defs>
<filter id="filter0_d_4092_1940" x="30.094" y="8.6748" width="37.4307" height="7.23686" filterUnits="userSpaceOnUse" color-interpolation-filters="sRGB">
<feFlood flood-opacity="0" result="BackgroundImageFix"/>
<feColorMatrix in="SourceAlpha" type="matrix" values="0 0 0 0 0 0 0 0 0 0 0 0 0 0 0 0 0 0 127 0" result="hardAlpha"/>
<feOffset dy="0.293233"/>
<feGaussianBlur stdDeviation="0.146617"/>
<feComposite in2="hardAlpha" operator="out"/>
<feColorMatrix type="matrix" values="0 0 0 0 0 0 0 0 0 0 0 0 0 0 0 0 0 0 0.25 0"/>
<feBlend mode="normal" in2="BackgroundImageFix" result="effect1_dropShadow_4092_1940"/>
<feBlend mode="normal" in="SourceGraphic" in2="effect1_dropShadow_4092_1940" result="shape"/>
</filter>
</defs>
</svg>
