<svg width="72" height="24" viewBox="0 0 72 24" fill="none" xmlns="http://www.w3.org/2000/svg">
    <g clip-path="url(#clip0_2603_1392)">
        <path d="M69.6342 15.7081C69.6226 15.3676 69.6226 15.0149 69.6342 14.6743C69.6342 14.6014 69.692 14.5405 69.7268 14.4676C69.7962 14.5041 69.8773 14.5284 69.912 14.577C70.0393 14.7716 70.1551 14.9541 70.294 15.1851C70.4213 14.9784 70.5487 14.7838 70.6529 14.6014C70.7686 14.4068 70.8496 14.3946 70.9886 14.5527V15.8176L70.7918 15.9027C70.7686 15.8419 70.7455 15.7689 70.7339 15.6959C70.7339 15.477 70.7223 15.2581 70.676 15.0392C70.6181 15.1243 70.5602 15.2095 70.5024 15.2946C70.3172 15.5865 70.2708 15.5865 70.0741 15.2946C70.0162 15.1973 69.9467 15.1243 69.8657 15.0635C69.8657 15.2703 69.8773 15.4892 69.8657 15.6959C69.8657 15.7689 69.7962 15.8419 69.7615 15.9149C69.7152 15.8419 69.6457 15.7811 69.6342 15.7081Z" fill="#024DA0"/>
        <path d="M68.4068 14.7108C68.349 14.6987 68.3142 14.6378 68.2563 14.5892C68.3027 14.5527 68.349 14.4797 68.3837 14.4797C68.6731 14.4676 68.9509 14.4676 69.2403 14.4797C69.2866 14.4797 69.3213 14.5649 69.3676 14.6135C69.3213 14.65 69.275 14.6987 69.2287 14.7108C69.1245 14.723 69.0319 14.723 68.9278 14.7108V15.6351C68.9278 15.7324 68.8583 15.9027 68.8236 15.9027C68.6384 15.9027 68.6962 15.7324 68.6962 15.623V14.7108C68.6036 14.723 68.511 14.723 68.4068 14.7108Z" fill="#024DA0"/>
        <path d="M63.927 10.6973C63.5566 10.3568 63.1746 10.0162 62.8042 9.67568C62.6884 9.6027 62.6537 9.45676 62.7231 9.3473C62.7463 9.31081 62.7694 9.27432 62.8042 9.26216C63.5566 8.58108 64.2975 7.88784 65.0499 7.21892C65.1425 7.14595 65.2583 7.0973 65.374 7.0973C66.1149 7.08514 66.8558 7.0973 67.6082 7.0973C67.7471 7.0973 67.886 7.0973 67.9092 7.34054C67.8744 7.40135 67.8397 7.46216 67.7934 7.51081C66.6242 8.58108 65.4551 9.65135 64.2859 10.7216C64.1933 10.8189 64.0428 10.8311 63.9502 10.7338C63.9386 10.7095 63.927 10.7095 63.927 10.6973Z" fill="#024DA0"/>
        <path d="M66.4622 15.927C66.1959 15.9149 65.9181 15.9149 65.6519 15.927C65.3393 15.9635 65.0383 15.8419 64.8184 15.5986C64.1701 14.9784 63.4987 14.3824 62.8389 13.7743C62.6305 13.5797 62.6305 13.4824 62.8389 13.2878C63.1862 12.9716 63.545 12.6554 63.8807 12.327C63.9849 12.2054 64.1586 12.1811 64.2743 12.2905C64.2859 12.3027 64.2975 12.3149 64.309 12.327C65.4551 13.373 66.6011 14.4311 67.7355 15.477C67.805 15.5378 67.8281 15.6838 67.8629 15.7932C67.7703 15.8541 67.6777 15.8905 67.5735 15.9149C67.2146 15.927 66.8442 15.927 66.4622 15.927Z" fill="#024DA0"/>
        <path d="M58.6947 7.19459C60.1764 8.54459 61.6697 9.90676 63.1514 11.2568C63.3482 11.4514 63.3482 11.5486 63.1514 11.7311C61.6581 13.0932 60.1764 14.4554 58.6831 15.8176C58.6021 15.8784 58.5095 15.9149 58.4053 15.9149C58.0233 15.927 57.6413 15.9149 57.2593 15.9149H56.1595C56.0554 15.8905 55.9628 15.8541 55.8701 15.7932C55.9164 15.6838 55.928 15.55 55.9975 15.477C57.0393 14.5162 58.0927 13.5554 59.1346 12.5946C59.4471 12.3149 59.7481 12.0351 60.0607 11.7554C60.3153 11.5243 60.3153 11.4757 60.0607 11.2446C58.7063 10.0041 57.3634 8.77567 56.0091 7.53513C55.928 7.47432 55.8701 7.37703 55.847 7.27973C55.8354 7.12162 55.9512 7.07297 56.0901 7.07297H58.44C58.5326 7.08513 58.6252 7.12162 58.6947 7.19459Z" fill="#A8CB3A"/>
        <path d="M53.2889 15.927C53.0921 15.927 53.0111 15.8419 52.9995 15.6473V7.55946C52.9995 7.0973 53.0342 7.06081 53.4741 7.06081H54.7938C55.1063 7.06081 55.1526 7.12162 55.1526 7.43784V15.55C55.1526 15.8905 55.1411 15.9149 54.8169 15.9149C54.3192 15.927 53.8098 15.9149 53.2889 15.927Z" fill="#024DA0"/>
        <path d="M52.3395 7.51081V14.8932C52.3048 15.7324 51.8881 16.0851 51.1009 15.9635C50.7305 15.9027 50.3948 15.7446 50.1169 15.4892C48.3227 13.8473 46.5284 12.2054 44.7225 10.5635C44.6415 10.5027 44.5605 10.4541 44.4679 10.4054C44.4331 10.5149 44.41 10.6243 44.3984 10.7338V15.3919C44.3984 15.8419 44.3289 15.927 43.9006 15.927H42.6504C42.361 15.927 42.2568 15.8176 42.2568 15.5257V8.16757C42.2568 7.53514 42.4652 7.21892 42.9861 7H43.4144C44.0974 7.10946 44.5489 7.59595 45.0351 8.03378C46.6326 9.50541 48.2416 10.9649 49.8507 12.4243C49.9433 12.4851 50.0359 12.5338 50.1285 12.5581C50.1632 12.4608 50.1864 12.3635 50.198 12.2541V7.58378C50.198 7.15811 50.279 7.07297 50.6726 7.07297C51.0662 7.07297 51.5061 7.07297 51.9228 7.07297C52.2353 7.07297 52.3395 7.19459 52.3395 7.51081Z" fill="#024DA0"/>
        <path d="M41.4349 15.4649C39.8027 12.9716 38.1473 10.4784 36.5151 7.98514C36.2026 7.51081 35.8669 7.0973 35.2881 7H35.1492C34.7324 7.07297 34.3736 7.30405 34.1305 7.66892C32.4172 10.2716 30.704 12.8743 28.9907 15.477C28.9213 15.5743 28.8981 15.6959 28.9213 15.8054C28.9444 15.8662 29.1065 15.9149 29.1991 15.9149C29.7548 15.927 30.322 15.9149 30.8776 15.927C31.0281 15.9392 31.1786 15.8541 31.2481 15.7203C31.6532 15.0878 32.0699 14.4676 32.4867 13.8351C32.5561 13.7135 32.6835 13.6405 32.8224 13.6405H37.6033C37.7538 13.6284 37.8927 13.7014 37.9621 13.8351C38.3673 14.4676 38.7956 15.1122 39.2239 15.7446C39.2818 15.8419 39.3744 15.9027 39.4786 15.9149C40.0921 15.927 40.7056 15.927 41.3307 15.9149C41.4233 15.9027 41.5044 15.8419 41.5507 15.7568C41.5391 15.6473 41.5044 15.55 41.4349 15.4649ZM36.2257 11.6581H34.2694C34.0263 11.6581 33.98 11.5851 34.1189 11.3784C34.443 10.8797 34.7672 10.3811 35.0913 9.89459C35.1839 9.74865 35.2765 9.76081 35.3575 9.89459C35.6817 10.3932 36.0174 10.9041 36.3531 11.4027C36.4572 11.5851 36.4225 11.6581 36.2257 11.6581Z" fill="#024DA0"/>
        <path d="M31.2713 7.07297C31.6765 7.07297 31.7575 7.15811 31.7575 7.59594V8.6054C31.7575 8.94594 31.6533 9.0554 31.3292 9.0554H28.5973C28.2384 9.0554 28.2153 9.07973 28.2153 9.45676V15.4527C28.2153 15.8297 28.1227 15.927 27.7638 15.927H26.5136C26.1663 15.927 26.0737 15.8297 26.0737 15.4649V9.48108C26.0737 9.06757 26.0506 9.0554 25.6685 9.0554H22.9713C22.6125 9.0554 22.5083 8.94594 22.5083 8.58108C22.5083 8.21621 22.5083 7.87567 22.5083 7.52297C22.5083 7.17027 22.6125 7.07297 22.9482 7.07297H31.2713Z" fill="#024DA0"/>
        <path d="M14.3356 13.7257C14.6713 13.8473 15.0302 13.9203 15.389 13.9446C16.4424 13.9568 17.4959 13.9446 18.5493 13.9081C18.7692 13.8959 18.9892 13.8473 19.1975 13.7622C19.5564 13.6284 19.6837 13.4338 19.6837 13.0203V7.62027C19.6837 7.13378 19.7416 7.07297 20.2162 7.07297H21.397C21.7327 7.07297 21.8368 7.18243 21.8368 7.52297V13.2878C21.8368 14.6014 21.0381 15.5257 19.7184 15.7568C19.2438 15.8541 18.7576 15.9027 18.2599 15.9027C16.9055 15.9027 15.5627 15.8662 14.2083 15.8054C13.5137 15.7811 12.8539 15.477 12.3677 14.9541C11.9741 14.5405 11.7657 13.9811 11.7773 13.4095V10.5149V7.51081C11.7773 7.17027 11.8699 7.07297 12.1825 7.07297H13.479C13.8031 7.07297 13.9073 7.18243 13.9189 7.52297V13.0446C13.8726 13.3486 14.0578 13.6405 14.3356 13.7257Z" fill="#024DA0"/>
        <path d="M11.0827 7.48649V14.9176C11.0132 15.7932 10.5733 16.1338 9.75145 15.9392C9.41574 15.8662 9.10319 15.6959 8.83694 15.4527C7.08897 13.8473 5.32942 12.2419 3.56987 10.6365C3.53514 10.6 3.50041 10.5635 3.46569 10.5392C3.38465 10.4905 3.30362 10.4541 3.22259 10.4054C3.18786 10.4905 3.16471 10.5878 3.15313 10.6851V15.4284C3.15313 15.8419 3.0721 15.9392 2.67852 15.9392C2.28493 15.9392 1.87978 15.927 1.47462 15.9392C1.30098 15.9514 1.11576 15.8662 1 15.7203V7.91216C1.11576 7.49865 1.27782 7.13378 1.72929 7H2.13445C2.80585 7.0973 3.26889 7.57162 3.74351 8.00946C5.36415 9.50541 6.98479 10.9892 8.60542 12.4608C8.68646 12.5095 8.76749 12.5581 8.84852 12.5824C8.88325 12.4851 8.91798 12.3878 8.92955 12.2905V7.57162C8.92955 7.15811 9.01058 7.07297 9.40417 7.07297H10.6775C10.9785 7.08514 11.0827 7.19459 11.0827 7.48649Z" fill="#024DA0"/>
    </g>
    <defs>
        <clipPath id="clip0_2603_1392">
            <rect width="70" height="9" fill="white" transform="translate(1 7)"/>
        </clipPath>
    </defs>
</svg>
