<svg width="72" height="25" viewBox="0 0 72 25" fill="none" xmlns="http://www.w3.org/2000/svg">
<g clip-path="url(#clip0_4073_34594)">
<path d="M46.04 16.1923H44.1805V8.81934L50.161 8.82412C50.161 8.82412 51.2559 8.78444 51.9525 9.453C51.9525 9.453 52.6634 10.0298 52.6634 11.4396V16.1912H50.8087V11.3168C50.8087 11.3168 50.8316 10.8196 50.6572 10.6451C50.6572 10.6451 50.5031 10.4556 50.21 10.4556H46.0354L46.0393 16.1897L46.04 16.1923ZM53.9559 16.191V9.28814V8.82484H61.4184V10.4633L55.8041 10.4629V11.7156H59.7045V13.2977H55.8041V14.5547H61.4533V16.1936H53.9515L53.9559 16.191ZM40.94 16.191V9.28814V8.82484H42.7917V16.1936H40.94V16.191ZM64.084 16.191V10.4612H62.336V8.82272H69.2886V10.4612H65.937V16.191H64.0853H64.084ZM34.8243 16.191V10.4612H33.0764V8.82272H40.029V10.4612H36.6773V16.191H34.8257H34.8243ZM29.2405 11.7105C29.693 11.7071 29.9637 11.7109 30.0726 11.6465C30.0726 11.6465 30.2628 11.5443 30.2649 11.3251L30.2654 10.8432C30.2654 10.623 30.0731 10.5219 30.0731 10.5219C29.9287 10.4456 29.684 10.4599 29.1032 10.4594H25.4957V11.7104H29.3233L29.2405 11.7105ZM30.2383 16.191V13.6763C30.2383 13.4503 30.0438 13.3556 30.0438 13.3556C29.9561 13.3026 29.6934 13.2931 29.3067 13.2931H29.3966H25.4957V16.1906H23.644V9.28772V8.82442H29.424C30.4222 8.82738 31.1114 8.97001 31.5861 9.41773C32.0525 9.87933 32.1144 10.4832 32.117 11.1117V11.6364C32.123 12.1704 31.8342 12.6574 31.4897 12.9412L31.559 12.9745C31.6995 13.0407 31.7764 13.1344 31.7764 13.1344C32.0384 13.4594 32.0352 13.7392 32.0346 14.083V16.1924H30.2383L30.2383 16.191ZM2.23622 8.8223V9.28602V16.1889H4.08792V13.2939H9.69792V11.7109H4.08792V10.4591H10.6089V8.82061H2.23535L2.23622 8.8223Z" fill="#F3F3F3"/>
<path d="M68.6633 14.8879V15.2262H68.9875C69.0752 15.2262 69.1602 15.2029 69.1733 15.0763C69.1918 14.9085 69.067 14.8879 68.9875 14.8879H68.6633ZM68.5331 14.7767H68.9847C69.1416 14.7767 69.2931 14.8053 69.3061 15.0271C69.3116 15.1541 69.2718 15.2002 69.1732 15.2727C69.2772 15.3373 69.28 15.3527 69.2958 15.5231C69.3061 15.6522 69.2876 15.6729 69.3437 15.7581H69.1895L69.1683 15.6342C69.147 15.5178 69.2053 15.3373 68.9956 15.3373H68.6632V15.7581H68.5329L68.5331 14.7767ZM68.8731 14.5057C68.4267 14.5057 68.0627 14.8593 68.0658 15.2959C68.0658 15.7296 68.4271 16.0832 68.8761 16.0811C69.3229 16.0811 69.6869 15.7296 69.6869 15.2934C69.6869 14.8593 69.3225 14.5057 68.8731 14.5057ZM68.8761 16.1835C68.3687 16.1835 67.959 15.786 67.959 15.2934C67.9568 14.8025 68.3687 14.4023 68.8761 14.4023C69.3813 14.4023 69.7932 14.8025 69.7932 15.2934C69.7932 15.7863 69.3813 16.1819 68.8761 16.1835Z" fill="#F3F3F3"/>
<path d="M21.098 16.2644C21.6996 16.0659 22.1677 15.3928 22.2802 14.5467V14.3021H19.1962V16.2646H21.0976L21.098 16.2644ZM22.2806 10.704V10.4827C22.1624 9.59971 21.6595 8.90391 21.0182 8.74045H19.1966V10.7037L22.2806 10.704ZM11.4268 14.3024V14.5448C11.5384 15.3918 12.0065 16.066 12.6098 16.2646H14.5016V14.3021L11.4268 14.3024ZM12.6887 8.74193C12.0483 8.90548 11.544 9.60161 11.4268 10.4859V10.7056H14.5016V8.74227L12.6887 8.74193ZM22.2828 11.5226H19.1988V13.4859H22.2828V11.5226ZM15.3433 16.2657H18.3601V14.3032H15.3433V16.2657ZM18.3601 8.74023H15.3433V10.7035H18.3601V8.74023ZM11.4294 13.4833H14.5042V11.52H11.4294V13.4833Z" fill="#EE2E24"/>
</g>
<defs>
<clipPath id="clip0_4073_34594">
<rect width="68" height="8" fill="white" transform="translate(2 8.5)"/>
</clipPath>
</defs>
</svg>
