<svg width="72" height="24" viewBox="0 0 72 24" fill="none" xmlns="http://www.w3.org/2000/svg">
<g clip-path="url(#clip0_2882_404)">
<path d="M5.98193 10.2716C5.98193 7.06603 8.56431 4.47852 11.7407 4.47852C14.2304 4.47852 16.348 6.09043 17.147 8.3415H15.5869C14.8805 6.91681 13.4131 5.92291 11.7421 5.92291C9.36472 5.92291 7.4325 7.87268 7.4325 10.273C7.4325 12.6733 9.36472 14.623 11.7421 14.623C13.4145 14.623 14.8819 13.6291 15.5869 12.2045H17.147C16.348 14.4541 14.2304 16.0674 11.7407 16.0674C8.56431 16.066 5.98193 13.4785 5.98193 10.2716Z" fill="white"/>
<path d="M11.7406 16.1013C8.54601 16.1013 5.94678 13.4856 5.94678 10.2716C5.94678 7.05762 8.54601 4.44336 11.7406 4.44336C14.1685 4.44336 16.3535 6.0046 17.1792 8.32885L17.1961 8.37531H15.5644L15.5545 8.3556C14.8313 6.89855 13.3344 5.95673 11.7406 5.95673C9.38433 5.95673 7.46616 7.89246 7.46616 10.2716C7.46616 12.6508 9.38433 14.5865 11.7406 14.5865C13.3358 14.5865 14.8328 13.6447 15.5545 12.1876L15.5644 12.1679H17.1961L17.1792 12.2144C16.3549 14.5386 14.1685 16.0999 11.7406 16.0999M11.7406 4.51375C8.58392 4.51375 6.01699 7.09704 6.01699 10.2716C6.01699 13.4462 8.58392 16.0295 11.7406 16.0295C14.1222 16.0295 16.2693 14.5076 17.0964 12.2369H15.6079C14.8706 13.7066 13.3555 14.6555 11.7406 14.6555C9.34502 14.6555 7.39594 12.6888 7.39594 10.2702C7.39594 7.85164 9.34502 5.88775 11.7406 5.88775C13.3541 5.88775 14.8693 6.8366 15.6079 8.30635H17.0964C16.2679 6.03557 14.1222 4.51375 11.7406 4.51375Z" fill="white"/>
<path d="M24.3552 8.37793H25.9152L22.8498 16.1025L21.3276 19.9654H19.7661L21.308 16.1025L18.2622 8.37793H19.8041L22.0887 14.1344L24.3552 8.37793Z" fill="white"/>
<path d="M21.3498 20.0007H19.7139L21.2698 16.1025L18.21 8.34277H19.8262L19.8346 8.36527L22.087 14.0387L24.3296 8.34277H25.9655L25.9459 8.39063L22.8804 16.1152L21.3484 19.9993L21.3498 20.0007ZM19.8178 19.9303H21.3021L22.8172 16.0898L25.863 8.41313H24.3774L22.087 14.2287L22.0547 14.1471L19.7785 8.41313H18.3125L21.3456 16.1025L21.34 16.1152L19.8178 19.9289V19.9303Z" fill="white"/>
<path d="M34.6833 12.2211C34.6833 14.3582 32.9744 16.0841 30.8568 16.0841C28.7392 16.0841 27.0303 14.3595 27.0303 12.2211V4.49658H28.4794V9.22254C29.1296 8.67911 29.9651 8.35954 30.8568 8.35954C32.9744 8.35954 34.6833 10.1038 34.6833 12.2211ZM33.2524 12.2211C33.2524 10.8908 32.1753 9.82083 30.8568 9.82083C29.5382 9.82083 28.4794 10.8894 28.4794 12.2211C28.4794 13.5529 29.5382 14.6397 30.8568 14.6397C32.1753 14.6397 33.2524 13.5515 33.2524 12.2211Z" fill="white"/>
<path d="M30.8562 16.1193C28.7275 16.1193 26.9946 14.3709 26.9946 12.2212V4.46143H28.5126V9.14797C29.1754 8.61583 30.0039 8.3244 30.8548 8.3244C32.9837 8.3244 34.7165 10.0729 34.7165 12.2212C34.7165 14.3694 32.9837 16.1193 30.8548 16.1193M27.0648 4.53322V12.2226C27.0648 14.3329 28.7653 16.0504 30.8562 16.0504C32.9471 16.0504 34.6477 14.3329 34.6477 12.2226C34.6477 10.1123 32.9471 8.39619 30.8562 8.39619C29.9968 8.39619 29.16 8.70029 28.5013 9.25072L28.4438 9.29858V4.53322H27.0648ZM30.8562 14.6764C29.5265 14.6764 28.4438 13.5755 28.4438 12.2226C28.4438 10.8697 29.5265 9.78708 30.8562 9.78708C32.1861 9.78708 33.287 10.8795 33.287 12.2226C33.287 13.5656 32.1959 14.6764 30.8562 14.6764ZM30.8562 9.85747C29.5643 9.85747 28.514 10.919 28.514 12.2226C28.514 13.5262 29.5643 14.606 30.8562 14.606C32.1481 14.606 33.2182 13.536 33.2182 12.2226C33.2182 10.9091 32.1594 9.85747 30.8562 9.85747Z" fill="white"/>
<path d="M35.7998 12.2229C35.7998 10.1042 37.5087 8.36133 39.6263 8.36133C41.7439 8.36133 43.4528 10.1056 43.4528 12.2229C43.4528 12.4862 43.415 12.7297 43.3786 12.9549H37.3416C37.6393 13.9292 38.5493 14.6429 39.6263 14.6429C40.2947 14.6429 40.8887 14.3613 41.3353 13.9305H43.0625C42.4489 15.206 41.1302 16.0873 39.6263 16.0873C37.5087 16.0873 35.7998 14.3627 35.7998 12.2243M37.3416 11.512H41.9111C41.5951 10.5378 40.6851 9.82401 39.6263 9.82401C38.5675 9.82401 37.6393 10.5364 37.3416 11.512Z" fill="white"/>
<path d="M39.6243 16.1196C37.4955 16.1196 35.7627 14.3712 35.7627 12.2215C35.7627 10.0718 37.4955 8.32471 39.6243 8.32471C41.7531 8.32471 43.4859 10.0732 43.4859 12.2215C43.4859 12.4819 43.4509 12.7184 43.4117 12.9591L43.4059 12.9887H37.3874C37.7006 13.9432 38.6133 14.6063 39.6243 14.6063C40.2422 14.6063 40.8404 14.3571 41.3094 13.9038L41.3192 13.8939H43.1167L43.0927 13.9446C42.4581 15.2665 41.096 16.121 39.6243 16.121M39.6243 8.39649C37.5334 8.39649 35.8329 10.1126 35.8329 12.2229C35.8329 14.3331 37.5334 16.0507 39.6243 16.0507C41.0496 16.0507 42.3709 15.2341 43.0042 13.9657H41.3473C40.8671 14.4261 40.2562 14.6781 39.6243 14.6781C38.5669 14.6781 37.6135 13.9742 37.3059 12.9662L37.2919 12.9211H43.347C43.3834 12.6945 43.4156 12.4692 43.4156 12.2243C43.4156 10.114 41.7152 8.39792 39.6243 8.39792M41.9581 11.5471H37.2933L37.3074 11.5021C37.6149 10.4941 38.5684 9.79021 39.6257 9.79021C40.6831 9.79021 41.6127 10.4786 41.9442 11.5021L41.9595 11.5485L41.9581 11.5471ZM37.3874 11.4767H41.8613C41.5299 10.5223 40.6171 9.85921 39.6243 9.85921C38.6316 9.85921 37.7006 10.5223 37.3874 11.4767Z" fill="white"/>
<path d="M48.6804 8.35986V9.80286C47.3619 9.80286 46.3033 10.8911 46.3033 12.2214V16.0844H44.854V12.2214C44.854 10.0844 46.5811 8.35986 48.6804 8.35986Z" fill="white"/>
<path d="M46.3385 16.1196H44.8203V12.2215C44.8203 10.0718 46.5532 8.32471 48.6821 8.32471H48.7171V9.83806H48.6821C47.3903 9.83806 46.34 10.908 46.34 12.2215V16.1196H46.3385ZM44.8892 16.0492H46.2682V12.2215C46.2682 10.8799 47.331 9.78739 48.6457 9.76767V8.3951C46.5714 8.41339 44.8892 10.1239 44.8892 12.2215V16.0492Z" fill="white"/>
<path d="M51.3458 8.35986H49.8965V16.0844H51.3458V8.35986Z" fill="white"/>
<path d="M51.381 16.1196H49.8613V8.32471H51.381V16.1196ZM49.9317 16.0492H51.3106V8.3951H49.9317V16.0492Z" fill="white"/>
<path d="M54.1758 16.0844H52.7451V12.2214C52.7451 10.0844 54.454 8.35986 56.5715 8.35986C58.689 8.35986 60.398 10.0844 60.398 12.2214V16.0844H58.9673V12.2214C58.9673 10.8911 57.8901 9.80286 56.5715 9.80286C55.253 9.80286 54.1744 10.8911 54.1744 12.2214V16.0844H54.1758Z" fill="white"/>
<path d="M60.4352 16.1196H58.9355V12.2215C58.9355 10.9066 57.8766 9.83806 56.5737 9.83806C55.2705 9.83806 54.213 10.908 54.213 12.2215V16.1196H52.7134V12.2215C52.7134 10.0718 54.4462 8.32471 56.5748 8.32471C58.7037 8.32471 60.4366 10.0732 60.4366 12.2215V16.1196H60.4352ZM59.0045 16.0492H60.3648V12.2215C60.3648 10.1112 58.6645 8.3951 56.5737 8.3951C54.4827 8.3951 52.7823 10.1126 52.7823 12.2215V16.0492H54.1427V12.2215C54.1427 10.8686 55.2341 9.76767 56.5737 9.76767C57.913 9.76767 59.0045 10.8686 59.0045 12.2215V16.0492Z" fill="white"/>
<path d="M48.2041 4.35449C48.2195 5.66655 49.277 6.72521 50.5812 6.72521C51.8859 6.72521 52.942 5.66655 52.9573 4.35449H48.2041Z" fill="white"/>
<path d="M62.187 9.57451H60.7573V8.13155H62.187V4.26855H63.6177V8.13155H66.0134V9.57451H63.6177" fill="white"/>
<path d="M62.151 9.60976H60.7217V8.09637H62.151V4.2334H63.651V8.09637H66.0463V9.60976H63.651M63.5806 9.53937H65.9763V8.16676H63.5806V4.30379H62.2199V8.16676H60.7888V9.53937H62.2199" fill="white"/>
<path d="M66.0476 16.1431C63.9301 16.1431 62.2212 14.4186 62.2212 12.2816V9.27734H63.6519V12.2816C63.6519 13.6119 64.7291 14.7002 66.0476 14.7002" fill="white"/>
</g>
<defs>
<clipPath id="clip0_2882_404">
<rect width="60" height="16.0714" fill="white" transform="translate(6 4)"/>
</clipPath>
</defs>
</svg>
