<svg width="72" height="24" viewBox="0 0 72 24" fill="none" xmlns="http://www.w3.org/2000/svg">
    <path fill-rule="evenodd" clip-rule="evenodd" d="M10.399 18.1375C9.74466 18.079 9.43123 16.9991 9.45869 15.6262C9.4575 15.5384 9.45787 15.449 9.45979 15.3583C9.51677 14.0136 9.7732 12.7547 10.4285 12.6403L10.685 12.6117C10.8274 14.1852 11.3403 15.3297 12.1951 15.4155L15.6141 15.3869C15.6038 15.4768 15.5921 15.5645 15.5791 15.6498L15.6127 15.6495C15.4417 17.1715 14.9004 18.0496 14.3021 18.1082L10.399 18.1375ZM8.88919 13.2786C9.28805 13.2201 9.68691 12.5468 9.74389 11.376C9.74597 11.2969 9.74653 11.2192 9.74564 11.1431C9.76183 10.1177 9.50845 9.3501 9.14587 9.3501C9.11249 9.3501 9.08889 9.35992 9.06933 9.36805C9.05551 9.37381 9.0437 9.37871 9.0319 9.37871L6.35362 9.77925C5.92624 9.83647 5.75528 10.6376 5.72679 11.5245C5.72401 11.6081 5.7234 11.6902 5.72496 11.7701C5.70945 12.6143 5.90949 13.2794 6.32508 13.3079H6.35357L8.88919 13.2786ZM5.78355 8.21498C5.79119 8.11303 5.79422 8.01475 5.79313 7.921C5.80382 7.28102 5.61787 6.83228 5.38488 6.83228H5.3279L3.4474 7.08977C3.16248 7.14699 3.04851 7.71919 3.02002 8.32C3.02002 8.34735 3.02031 8.37448 3.02091 8.40133L3.02002 8.41987L5.78355 8.21498ZM18.2336 11.6688C18.2408 11.5118 18.2444 11.358 18.2445 11.2082C18.2746 9.52284 17.8585 8.29154 17.2379 8.29154C17.181 8.29154 17.124 8.29154 17.067 8.32015L12.4512 8.97818C11.7104 9.09262 11.4255 10.4945 11.3685 11.9822C11.3639 12.0994 11.3621 12.2149 11.363 12.3283C11.338 13.7471 11.7069 14.8906 12.3932 14.947H12.4217L16.7522 14.9178C17.4644 14.8592 18.1482 13.6884 18.2336 11.6688ZM32.7379 14.9576L30.9346 11.8097L32.5641 8.85886H32.505L32.567 8.74926H30.8859L29.7747 11.0381L28.6635 8.74926H26.9825L27.0444 8.85886H26.98L28.6121 11.8145L26.8115 14.9576H26.9506L26.8091 15.2104H28.4045L29.772 12.6347L31.1396 15.2104H32.735L32.5935 14.9576H32.7379ZM35.5296 13.3269V12.9836L35.4726 12.9264V9.94183H37.2079V9.80788H37.2106V8.69208H35.4726V7.08992H34.3614L33.991 8.77791L33.1362 8.83513V8.94648L33.1338 8.94665V9.9711H33.9885V13.542C33.9885 13.7762 34.0455 14.0104 34.1024 14.2152C34.1879 14.4201 34.2734 14.5958 34.4443 14.7421C34.5868 14.8885 34.7862 14.9763 35.0426 15.0641C35.299 15.1519 35.6124 15.1812 35.9828 15.1812H36.3532C36.7235 15.1812 36.9799 15.1519 37.1224 15.0348C37.2933 14.947 37.3503 14.7714 37.3503 14.5079V14.3636C37.3522 14.3341 37.3531 14.3032 37.3531 14.271V13.9563L37.2391 13.8419H36.3559C36.1564 13.8419 35.9855 13.8419 35.8715 13.7847C35.7575 13.7561 35.672 13.6988 35.6151 13.613C35.5581 13.5272 35.5296 13.4414 35.5296 13.3269ZM41.3992 9.80783H41.3961V9.94185H39.9176V14.9576H39.9146V15.2104H38.4331V8.91741L38.436 8.91723V8.80648C38.9204 8.77787 39.3193 8.74926 39.6042 8.72065C39.8891 8.69204 40.1456 8.69204 40.3165 8.69204H40.8294H41.3992V9.80783ZM45.9544 13.9563V12.5176H44.245C44.0741 12.5176 43.9316 12.5469 43.8462 12.5762C43.7322 12.6054 43.6752 12.664 43.6182 12.7225C43.5747 12.7672 43.5478 12.829 43.5248 12.8818C43.5177 12.8981 43.511 12.9136 43.5043 12.9274C43.5043 12.9713 43.4972 13.0152 43.49 13.0591C43.4861 13.0837 43.4821 13.1082 43.4793 13.1328V13.2697V13.2697C43.4793 13.3555 43.4793 13.4413 43.5078 13.5272C43.5078 13.5951 43.5435 13.6451 43.5866 13.7055L43.5867 13.7055L43.5867 13.7056C43.598 13.7215 43.6099 13.7382 43.6218 13.756C43.6788 13.8133 43.7643 13.8705 43.8497 13.8991C43.9637 13.9277 44.0777 13.9563 44.2486 13.9563H45.9544ZM45.9259 11.2094V11.1127C45.9259 10.9663 45.9259 10.82 45.8974 10.7029C45.869 10.5565 45.8405 10.4687 45.755 10.3516C45.6695 10.2638 45.5841 10.176 45.4416 10.1175C45.2992 10.0589 45.1282 10.0297 44.8718 10.0297H42.6211L42.5071 9.9126V9.59063C42.5071 9.55399 42.5082 9.51905 42.5106 9.48581V9.46453C42.5106 9.20704 42.5676 9.03538 42.7385 8.94955C42.881 8.83511 43.1374 8.80649 43.5078 8.80649H45.3598C45.7302 8.80649 46.0436 8.86372 46.3001 8.94955C46.5565 9.03538 46.7844 9.14982 46.9554 9.32148C47.1264 9.46453 47.2688 9.6648 47.3258 9.86507C47.4113 10.0653 47.4398 10.2942 47.4398 10.5517V14.9863L47.4359 14.9865V15.2397C46.9516 15.269 46.5242 15.2983 46.1823 15.3275C45.8405 15.3568 45.5556 15.3568 45.2707 15.3568H44.5869H43.9601C43.5898 15.3568 43.2764 15.3275 43.02 15.2397C42.7635 15.1519 42.5641 15.0641 42.4217 14.9178C42.2507 14.7714 42.1652 14.5958 42.0798 14.3909C42.0228 14.186 41.9658 13.9519 41.9658 13.7177V12.8981C41.9658 12.8527 41.9669 12.8074 41.9692 12.7622V12.6975C41.9692 12.4686 41.9977 12.2397 42.0832 12.0394C42.1402 11.8392 42.2542 11.6675 42.4251 11.5245C42.5961 11.3814 42.7955 11.2956 43.0235 11.2097C43.2799 11.1239 43.5933 11.0953 43.9637 11.0953H44.3911H44.733C44.7842 11.0953 44.8412 11.1011 44.9039 11.1074C44.9808 11.1152 45.0663 11.1239 45.1604 11.1239C45.3307 11.1524 45.5859 11.1809 45.9259 11.2094ZM54.7865 15.2397V14.9862H54.7904V7.2901H53.2518V7.36612H53.248V10.4086H50.2886V7.2901H48.75V7.36612H48.7466V15.2397H50.285V14.9862H50.2886V11.7859H53.248V15.2397H54.7865ZM59.8626 13.6988C59.7201 13.8132 59.4637 13.8704 59.0933 13.8704H58.5804C58.21 13.8704 57.9536 13.8132 57.8111 13.6988C57.6686 13.5843 57.6117 13.384 57.6117 13.1266V10.6686C57.6276 10.4638 57.687 10.3036 57.8066 10.2053C57.949 10.0882 58.2054 10.0297 58.5758 10.0297H59.0886C59.459 10.0297 59.7154 10.0882 59.8579 10.2053C60.0003 10.3224 60.0573 10.5273 60.0573 10.7907V13.2483C60.041 13.4473 59.9817 13.6031 59.8626 13.6988ZM61.5673 13.5411V13.6006C61.5673 13.8348 61.5388 14.0689 61.4533 14.2738C61.3963 14.4787 61.2824 14.6543 61.1114 14.8007C60.9405 14.947 60.741 15.0641 60.5131 15.1227C60.2567 15.2105 59.9433 15.2397 59.573 15.2397H58.0915C57.7211 15.2397 57.4077 15.2105 57.1513 15.1227C56.8949 15.0349 56.6955 14.947 56.553 14.8007C56.3821 14.6543 56.2966 14.4787 56.2111 14.2738C56.1542 14.0689 56.0972 13.8348 56.0972 13.6006V10.498C56.0972 10.4467 56.0985 10.3954 56.1016 10.3444C56.1021 10.1178 56.1309 9.89158 56.2155 9.69335C56.2725 9.49307 56.3865 9.32141 56.5574 9.17836C56.7284 9.03531 56.9278 8.94948 57.1558 8.86365C57.4122 8.77782 57.7256 8.74921 58.096 8.74921H59.5776C59.948 8.74921 60.2614 8.77782 60.5179 8.86365C60.7743 8.94948 60.9738 9.03531 61.1162 9.17836C61.2872 9.32141 61.3726 9.49307 61.4581 9.69335C61.5151 9.89362 61.5721 10.1225 61.5721 10.3514V13.384C61.5721 13.4365 61.5706 13.489 61.5673 13.5411ZM66.8092 10.7907V13.163C66.8067 13.189 66.8034 13.215 66.8002 13.2411C66.7931 13.2983 66.7859 13.3555 66.7859 13.4127C66.7859 13.5272 66.7575 13.613 66.7005 13.6988C66.6435 13.756 66.558 13.8419 66.444 13.8705C66.3301 13.8991 66.1876 13.9277 65.9597 13.9277H64.3356V9.97117H66.04C66.2394 9.97117 66.3819 10.0004 66.4958 10.0297C66.6098 10.0883 66.6668 10.1468 66.7238 10.2053C66.7807 10.2931 66.8092 10.3517 66.8092 10.4688V10.7907ZM68.3192 13.6885V13.6344C68.3229 13.5799 68.3245 13.5249 68.3245 13.4699V10.3228C68.3245 10.0939 68.2675 9.86507 68.2106 9.6648C68.1251 9.46453 68.0396 9.29286 67.8687 9.14981C67.7262 9.00676 67.5267 8.92093 67.2703 8.8351C67.0139 8.74927 66.7005 8.72066 66.3301 8.72066H65.7032H65.0194C64.7345 8.72066 64.4496 8.72066 64.1077 8.74927C63.7658 8.77788 63.3384 8.80649 62.854 8.8351V8.94643L62.8491 8.94672V17.7863H64.3306V17.4753H64.3356V15.1817C64.6185 15.2108 64.8731 15.2399 65.0713 15.269C65.1794 15.269 65.2875 15.2776 65.3865 15.2855C65.4702 15.2922 65.5474 15.2983 65.6127 15.2983H66.0115H66.3249V15.3276C66.6953 15.3276 67.0087 15.2983 67.2651 15.2105C67.493 15.1227 67.6924 15.0349 67.8634 14.8885C68.0343 14.7422 68.1483 14.5666 68.2052 14.3617C68.2907 14.1568 68.3192 13.9226 68.3192 13.6885ZM22.2238 9.41215C22.2361 9.17792 22.319 8.99137 22.4501 8.82965V8.80038C22.5926 8.62476 22.906 8.56622 23.3333 8.56622H26.4957L26.6097 8.44914V8.3507L26.6116 8.34875V7.97682C26.6116 7.71933 26.5546 7.54767 26.3837 7.46184C26.2412 7.3474 25.9848 7.31879 25.6144 7.29018H22.6512C22.2808 7.29018 21.9674 7.31879 21.711 7.40462C21.4545 7.49045 21.2551 7.57628 21.1126 7.71933C20.9417 7.86238 20.8562 8.03404 20.7707 8.23431C20.7137 8.43458 20.6567 8.66346 20.6567 8.89234V8.93922C20.6558 8.96122 20.6553 8.98324 20.6553 9.00527V10.0004V10.1175V12.2835V12.4299V13.6299C20.6553 13.8641 20.6838 14.0982 20.7692 14.3031C20.8262 14.508 20.9402 14.6836 21.1111 14.83C21.2821 14.9763 21.4815 15.0934 21.7094 15.152C21.9658 15.2398 22.2792 15.269 22.6496 15.269H25.6125C25.9829 15.269 26.2393 15.2105 26.3818 15.1227C26.5242 15.0056 26.6097 14.83 26.6097 14.5666V14.3939C26.611 14.3726 26.6116 14.3508 26.6116 14.3283V13.9563L26.4977 13.8419H23.335C22.9076 13.8419 22.6227 13.7561 22.4518 13.5844C22.3093 13.4127 22.2238 13.2125 22.2238 12.955V12.5969C22.2339 12.3858 22.2928 12.1817 22.4217 12.0493C22.5641 11.8737 22.8205 11.7859 23.1909 11.7859H25.2422V11.6103H25.244V10.4945H23.1926C22.8222 10.4945 22.5657 10.4087 22.4233 10.237C22.2808 10.0654 22.2238 9.86508 22.2238 9.6362V9.41215Z" fill="black"/>
</svg>
