<svg width="72" height="24" viewBox="0 0 72 24" fill="none" xmlns="http://www.w3.org/2000/svg">
    <path d="M35.5662 14.4438L33.8054 13.4175L33.6796 13.6196C33.2866 14.2417 32.7363 14.5526 32.0603 14.5526C30.8968 14.5526 30.0322 13.6818 30.0322 12.5466C30.0322 11.396 30.9126 10.5407 32.0603 10.5407C32.752 10.5407 33.2551 10.8361 33.6796 11.4737L33.8054 11.6758L35.5662 10.6495L35.409 10.4318C34.5601 9.21891 33.4752 8.64355 32.0446 8.64355C29.3561 8.64355 27.9097 10.6651 27.9097 12.5622C27.9097 14.4594 29.3561 16.4809 32.0446 16.4809C33.4124 16.4809 34.7015 15.7966 35.409 14.6771L35.5662 14.4438Z" fill="#C01818"/>
    <path d="M35.4717 16.4496H37.8929L38.6161 14.6769H42.2478L42.971 16.4496H45.4079L41.0687 6.07764H38.899L39.4808 7.46161L35.4717 16.4496ZM40.4555 10.1673L41.4303 12.6088H39.4493L40.4555 10.1673Z" fill="#C01818"/>
    <path d="M46.4146 16.4651H48.5371V11.8001H49.9205V9.84072H48.5371V8.92326C48.5371 8.51895 48.8042 8.09909 49.3076 8.09909C49.5749 8.09909 49.7475 8.14574 49.9047 8.20794L50.1407 8.30125L51.021 6.38857L50.7695 6.27971C50.3763 6.12421 49.8263 6.06201 49.4331 6.06201C48.4742 6.06201 47.6723 6.37302 47.1378 6.96392C46.6662 7.47708 46.3989 8.1924 46.3989 8.98546V9.82517H45.4556V11.7845H46.3989L46.4146 16.4651Z" fill="#C01818"/>
    <path d="M17.895 6.01538V16.4496H20.2061V10.4783L22.4544 12.1266L24.6868 10.4783V16.4496H26.998L27.0137 6.01538L22.4544 9.42088L17.895 6.01538Z" fill="#C01818"/>
    <path d="M54.7314 8.65894C52.0589 8.65894 50.6123 10.6649 50.6123 12.562C50.6123 14.4592 52.0589 16.4651 54.7314 16.4651C55.9578 16.4496 57.1054 15.9053 58.0015 14.8946L56.2722 13.9616C55.8319 14.4125 55.2819 14.6458 54.6843 14.6458C53.804 14.6458 53.0334 14.0704 52.8291 13.3085H58.615V12.7953C58.615 9.9496 56.3352 8.65894 54.7314 8.65894ZM52.8762 11.5979C53.1593 10.8826 53.7565 10.4783 54.5271 10.4783C55.3131 10.4783 55.9261 10.8826 56.2405 11.6135L52.8762 11.5979Z" fill="#C01818"/>
    <path d="M63.4253 8.65894C60.7527 8.65894 59.3062 10.6649 59.3062 12.562C59.3062 14.4592 60.7527 16.4651 63.4253 16.4651C64.6517 16.4496 65.7997 15.9053 66.6958 14.8946L64.9661 13.9616C64.5262 14.4125 63.9757 14.6458 63.3782 14.6458C62.4979 14.6458 61.7277 14.0704 61.5229 13.3085H67.3088V12.7953C67.3088 9.9496 65.0449 8.65894 63.4253 8.65894ZM61.5705 11.5979C61.8532 10.8826 62.4508 10.4628 63.2209 10.4783C64.007 10.4783 64.6204 10.8826 64.9348 11.6135L61.5705 11.5979Z" fill="#C01818"/>
    <path fill-rule="evenodd" clip-rule="evenodd" d="M7.59789 8.6102L2 6V16.3876L7.59309 19L13.1958 16.3876V6L7.59789 8.6102ZM7.59789 11.1604L7.6027 11.1627V11.1582L10.887 9.62321V14.9103L7.59789 16.4475L4.30881 14.9103V9.62321L7.59309 11.1582V11.1627L7.59789 11.1604Z" fill="#C01818"/>
    <path d="M68.6577 8.74536V9.04601H68.153V10.6025H67.7728V9.04601H67.2681V8.74536H68.6577Z" fill="#C01818"/>
    <path d="M71.0002 8.74536V10.6025H70.6205V9.39456L70.113 10.6025H69.8251L69.3148 9.39456V10.6025H68.9351V8.74536H69.3666L69.9688 10.1262L70.5715 8.74536H71.0002Z" fill="#C01818"/>
</svg>
