<svg width="72" height="24" viewBox="0 0 72 24" fill="none" xmlns="http://www.w3.org/2000/svg">
    <g clip-path="url(#clip0_2601_1139)">
        <path d="M43.8654 10.0507V10.8398C44.3932 10.1463 45.2767 9.93111 46.0684 9.94306C46.7913 9.94306 47.4568 10.3376 47.8239 10.9952C48.3288 10.2539 49.4188 9.93111 50.2909 9.96698C51.7022 10.0268 52.8267 11.0192 52.7922 13.4822V17.8822H50.6007V13.4702C50.6007 12.5257 50.1761 12.1909 49.6828 12.155C49.1435 12.1431 48.3403 12.5257 48.3288 13.3985V17.8583H46.1258V13.4702C46.1258 12.5257 45.7012 12.1909 45.1964 12.155C44.8636 12.1431 44.5424 12.2626 44.3129 12.5137C44.0719 12.7528 43.9457 13.0876 43.9457 13.4344V17.8702H41.6509V10.0507H43.8654Z" fill="#002F6C"/>
        <path d="M15.8114 7.75504C19.0012 7.75504 20.5961 10.3018 20.5961 12.8246C20.5961 15.3474 18.9897 17.8703 15.8114 17.8703H11.979V7.75504H15.8114ZM15.8114 15.5148C17.4407 15.5148 18.2668 14.1518 18.2668 12.8246C18.2668 11.4974 17.4407 10.0866 15.8114 10.0866H14.3082V15.5029H15.8114V15.5148Z" fill="#002F6C"/>
        <path d="M26.5282 10.8637V10.0507H28.6853V17.8702H26.5167V17.0811C26.0348 17.6789 25.3004 18.0018 24.5546 17.9659C22.1795 17.9659 20.9632 15.9811 20.9747 13.817C20.9862 11.6648 22.1795 9.91916 24.589 9.91916C25.3463 9.89525 26.0577 10.242 26.5282 10.8637ZM26.5282 13.9126C26.5396 13.4224 26.3675 12.9561 26.0577 12.5974C25.7364 12.2387 25.3004 12.0355 24.83 12.0235C23.7285 12.0235 23.1777 12.9322 23.1662 13.8887C23.1548 14.8452 23.717 15.8018 24.83 15.8018C25.7938 15.7539 26.5511 14.917 26.5282 13.9126Z" fill="#002F6C"/>
        <path d="M29.385 8.44849H31.5536V10.1463H33.1141V12.0833H31.5536V15.1681C31.5536 15.8615 32.0355 16.0767 32.5519 16.0767C32.7584 16.0767 32.9649 16.0528 33.1715 16.005V17.8822C32.8043 17.9539 32.4256 17.9898 32.0585 18.0017C30.3833 18.0137 29.3735 17.2126 29.3735 15.1681L29.385 8.44849Z" fill="#002F6C"/>
        <path d="M38.7596 10.8637V10.0507H40.9282V17.8702H38.7596V17.0811C38.2777 17.6789 37.5433 18.0018 36.7975 17.9659C34.4224 17.9659 33.1947 15.9692 33.2176 13.817C33.2405 11.6648 34.4224 9.91916 36.8319 9.91916C37.5778 9.89525 38.3006 10.242 38.7596 10.8637ZM38.7596 13.9126C38.7711 13.4224 38.599 12.9561 38.2892 12.5974C37.9679 12.2387 37.5319 12.0355 37.0614 12.0235C35.9599 12.0235 35.4092 12.9322 35.3977 13.8887C35.3862 14.8452 35.9484 15.8018 37.0614 15.8018C38.0253 15.7539 38.7825 14.917 38.7596 13.9126Z" fill="#002F6C"/>
        <path d="M54.7314 7.00176C55.3969 7.00176 56.0853 7.42024 56.0853 8.32893C56.0853 9.16589 55.4657 9.58437 54.8346 9.59633C54.2036 9.60828 53.4807 9.1898 53.4807 8.32893C53.4692 7.97024 53.5954 7.63546 53.8364 7.38437C54.0659 7.13328 54.3986 6.9898 54.7314 7.00176ZM53.6872 10.0507V17.8702H55.8903V10.0507H53.6872Z" fill="#002F6C"/>
        <path d="M58.9423 10.0507V10.8398C59.4701 10.1463 60.3536 9.94305 61.1453 9.94305C63.268 9.96697 63.8532 11.617 63.8303 13.5659V17.8702H61.6272V13.5778C61.6272 12.5257 61.065 12.0474 60.4683 12.0474C59.6652 12.0713 59.0341 12.7767 59.0455 13.6257V17.8822H56.7393V10.0507H58.9423Z" fill="#002F6C"/>
        <path d="M66.8942 17.8702H64.7256V10.0507H66.6877L66.768 10.5767C67.204 10.1224 67.7892 9.88327 68.3973 9.88327C68.6727 9.88327 68.9481 9.9311 69.212 10.0028V12.1431C68.971 12.0713 68.73 12.0235 68.4776 12.0235C67.6974 12.0354 66.8942 12.4778 66.8942 13.53V17.8702Z" fill="#002F6C"/>
        <path d="M8.00902 7.75504C8.91547 7.75504 9.64981 8.5083 9.64981 9.45286V11.8681C9.29412 11.4974 8.83515 11.2463 8.33029 11.1746V9.45286C8.33029 8.80721 8.07786 8.19743 7.63037 7.75504H8.00902Z" fill="#002F6C"/>
        <path d="M6.03555 16.5072C7.29771 16.5192 8.33037 15.455 8.34185 14.1278V11.8561C9.09914 12.0115 9.6499 12.705 9.66137 13.5181V16.1724C9.6499 17.117 8.91555 17.8702 8.02057 17.8583H5.61101C4.83077 17.8583 4.16528 17.2963 3.99316 16.4952H6.03555V16.5072Z" fill="#002F6C"/>
        <path d="M3.94727 15.8257V13.53C3.95874 12.5855 4.69308 11.8202 5.58806 11.8322H7.67635V14.1398C7.66488 15.0844 6.93053 15.8496 6.03555 15.8376H3.94727V15.8257Z" fill="#002F6C"/>
        <path d="M0 9.45285C0.0114741 8.50828 0.745817 7.74306 1.6408 7.75502H6.02391C6.93036 7.75502 7.6647 8.50828 7.6647 9.45285V11.1507H5.59936C4.33721 11.1387 3.30454 12.2028 3.29307 13.53V15.8376H1.6408C0.745817 15.8376 0.0114741 15.0844 0 14.1398V9.45285Z" fill="#002F6C"/>
        <path d="M0 16.1844V15.8018C0.436016 16.2561 1.03267 16.5191 1.6408 16.5191H3.31602C3.38486 17.0333 3.62582 17.5235 3.98151 17.8822H1.6408C0.745817 17.8822 0.0114741 17.117 0 16.1844Z" fill="#002F6C"/>
        <path d="M71.0249 8.83112C71.5756 8.85503 72.0002 9.33329 71.9887 9.9072C71.9772 10.4811 71.5297 10.9355 70.979 10.9355C70.4282 10.9355 69.9922 10.4572 69.9922 9.88329C69.9922 9.59633 70.1069 9.32133 70.302 9.13003C70.497 8.93872 70.761 8.83112 71.0249 8.83112ZM71.0249 10.7202C71.2314 10.7202 71.4265 10.6246 71.5641 10.4692C71.7018 10.3137 71.7821 10.0985 71.7707 9.88329C71.7707 9.4409 71.4265 9.0822 71.0134 9.0822C70.5888 9.0822 70.2561 9.4409 70.2561 9.88329C70.2446 10.0985 70.3249 10.3137 70.4626 10.4811C70.6118 10.6366 70.8183 10.7322 71.0249 10.7202ZM70.6233 9.29742H71.0593C71.3461 9.29742 71.5068 9.39307 71.5068 9.64416C71.5182 9.72785 71.4838 9.81155 71.4265 9.87133C71.3691 9.93112 71.2888 9.96699 71.2084 9.95503L71.5068 10.4811H71.2773L71.0019 9.97894H70.8642V10.4811H70.6462L70.6233 9.29742ZM70.8527 9.78764H71.0478C71.174 9.78764 71.2658 9.76372 71.2658 9.62025C71.2658 9.47677 71.1396 9.47677 71.0363 9.47677H70.8413V9.78764H70.8527Z" fill="#002F6C"/>
    </g>
    <defs>
        <clipPath id="clip0_2601_1139">
            <rect width="72" height="11" fill="white" transform="translate(0 7)"/>
        </clipPath>
    </defs>
</svg>
