<svg width="72" height="24" viewBox="0 0 72 24" fill="none" xmlns="http://www.w3.org/2000/svg">
    <path d="M8.35556 8.58863L4.17778 11.1709L8.35556 13.7532L4.17778 16.3354L0 13.7316L4.17778 11.1494L0 8.58863L4.17778 6.00636L8.35556 8.58863ZM4.15556 17.1531L8.33333 14.5709L12.5111 17.1531L8.33333 19.7354L4.15556 17.1531ZM8.35556 13.7316L12.5333 11.1494L8.35556 8.58863L12.5111 6.00636L16.6889 8.58863L12.5111 11.1709L16.6889 13.7532L12.5111 16.3354L8.35556 13.7316Z" fill="#0061FF"/>
    <path d="M24 6.47232H26.4663C28.0401 6.47232 29.3382 7.29889 29.3382 9.18819V9.58672C29.3382 11.4908 28.1213 12.3469 26.5149 12.3469H24V6.47232ZM25.3792 7.53506V11.2694H26.4338C27.3262 11.2694 27.9266 10.738 27.9266 9.5572V9.24723C27.9266 8.06642 27.2938 7.53506 26.3851 7.53506H25.3792ZM30.0683 7.5941H31.1716L31.3501 8.70111C31.5611 7.94834 32.0965 7.54982 33.07 7.54982H33.4108V8.81919H32.8429C31.7233 8.81919 31.4475 9.17343 31.4475 10.1771V12.3616H30.0845V7.5941H30.0683ZM33.6866 10.0738V9.94096C33.6866 8.34686 34.8061 7.47601 36.3313 7.47601C37.889 7.47601 38.9761 8.34686 38.9761 9.94096V10.0738C38.9761 11.6384 37.9214 12.4797 36.3313 12.4797C34.6439 12.4649 33.6866 11.6384 33.6866 10.0738ZM37.5807 10.059V9.94096C37.5807 9.05535 37.0939 8.52398 36.3151 8.52398C35.5525 8.52398 35.0495 9.01107 35.0495 9.94096V10.059C35.0495 10.9151 35.5363 11.4022 36.3151 11.4022C37.0939 11.3875 37.5807 10.9151 37.5807 10.059ZM39.69 7.5941H40.8258L40.9556 8.49447C41.2314 7.8893 41.8155 7.47601 42.6755 7.47601C44.006 7.47601 44.8822 8.34686 44.8822 9.95572V10.0886C44.8822 11.6531 43.9086 12.4797 42.6755 12.4797C41.848 12.4797 41.2801 12.1402 41.0043 11.5941V14H39.6738L39.69 7.5941ZM43.503 10.059V9.95572C43.503 9.01107 42.9675 8.53875 42.2536 8.53875C41.491 8.53875 40.988 9.07011 40.988 9.95572V10.0443C40.988 10.8856 41.4748 11.417 42.2374 11.417C43.0162 11.4022 43.503 10.9446 43.503 10.059ZM46.8941 11.476L46.7805 12.3469H45.6123V6H46.9428V8.43542C47.2348 7.8155 47.819 7.47601 48.6465 7.47601C49.8958 7.49077 50.8207 8.27306 50.8207 9.8524V10C50.8207 11.5793 49.9445 12.4797 48.614 12.4797C47.7378 12.4649 47.1699 12.0959 46.8941 11.476ZM49.4253 10V9.88192C49.4253 9.01107 48.9061 8.52398 48.1759 8.52398C47.4295 8.52398 46.9103 9.07011 46.9103 9.89668V10C46.9103 10.8856 47.4133 11.4022 48.1597 11.4022C48.9547 11.4022 49.4253 10.9446 49.4253 10ZM51.4048 10.0738V9.94096C51.4048 8.34686 52.5243 7.47601 54.0495 7.47601C55.6072 7.47601 56.6943 8.34686 56.6943 9.94096V10.0738C56.6943 11.6384 55.6234 12.4797 54.0495 12.4797C52.3621 12.4649 51.4048 11.6384 51.4048 10.0738ZM55.3151 10.059V9.94096C55.3151 9.05535 54.8284 8.52398 54.0495 8.52398C53.2869 8.52398 52.7839 9.01107 52.7839 9.94096V10.059C52.7839 10.9151 53.2707 11.4022 54.0495 11.4022C54.8284 11.3875 55.3151 10.9151 55.3151 10.059ZM58.4791 9.88192L56.6456 7.5941H58.2195L59.2741 9.02583L60.345 7.5941H61.9026L60.0367 9.86716L62 12.3469H60.4586L59.2579 10.7675L58.0897 12.3469H56.4833L58.4791 9.88192Z" fill="black"/>
    <path d="M34.6743 20V16.076H37.0383V16.664H35.3703V17.666H36.7803V18.254H35.3703V19.412H37.0983V20H34.6743Z" fill="#727175"/>
    <path d="M38.5342 20L37.5082 17.054H38.2102L38.6782 18.584C38.7182 18.728 38.7582 18.874 38.7982 19.022C38.8422 19.17 38.8842 19.32 38.9242 19.472H38.9482C38.9922 19.32 39.0342 19.17 39.0742 19.022C39.1182 18.874 39.1602 18.728 39.2002 18.584L39.6682 17.054H40.3342L39.3322 20H38.5342Z" fill="#727175"/>
    <path d="M42.1598 20.072C41.8878 20.072 41.6418 20.012 41.4218 19.892C41.2018 19.768 41.0278 19.592 40.8998 19.364C40.7718 19.132 40.7078 18.854 40.7078 18.53C40.7078 18.21 40.7718 17.934 40.8998 17.702C41.0318 17.47 41.2018 17.292 41.4098 17.168C41.6178 17.044 41.8358 16.982 42.0638 16.982C42.3318 16.982 42.5558 17.042 42.7358 17.162C42.9158 17.278 43.0518 17.442 43.1438 17.654C43.2358 17.862 43.2818 18.104 43.2818 18.38C43.2818 18.524 43.2718 18.636 43.2518 18.716H41.3798C41.4118 18.976 41.5058 19.178 41.6618 19.322C41.8178 19.466 42.0138 19.538 42.2498 19.538C42.3778 19.538 42.4958 19.52 42.6038 19.484C42.7158 19.444 42.8258 19.39 42.9338 19.322L43.1678 19.754C43.0278 19.846 42.8718 19.922 42.6998 19.982C42.5278 20.042 42.3478 20.072 42.1598 20.072ZM41.3738 18.248H42.6818C42.6818 18.02 42.6318 17.842 42.5318 17.714C42.4318 17.582 42.2818 17.516 42.0818 17.516C41.9098 17.516 41.7558 17.58 41.6198 17.708C41.4878 17.832 41.4058 18.012 41.3738 18.248Z" fill="#727175"/>
    <path d="M44.0308 20V17.054H44.6008L44.6488 17.45H44.6728C44.8048 17.322 44.9488 17.212 45.1048 17.12C45.2608 17.028 45.4388 16.982 45.6388 16.982C45.9548 16.982 46.1848 17.084 46.3288 17.288C46.4728 17.492 46.5448 17.78 46.5448 18.152V20H45.8548V18.242C45.8548 17.998 45.8188 17.826 45.7468 17.726C45.6748 17.626 45.5568 17.576 45.3928 17.576C45.2648 17.576 45.1508 17.608 45.0508 17.672C44.9548 17.732 44.8448 17.822 44.7208 17.942V20H44.0308Z" fill="#727175"/>
    <path d="M48.5162 20.072C48.1762 20.072 47.9342 19.974 47.7902 19.778C47.6502 19.578 47.5802 19.32 47.5802 19.004V17.6H47.1602V17.084L47.6162 17.054L47.7002 16.25H48.2762V17.054H49.0262V17.6H48.2762V19.004C48.2762 19.348 48.4142 19.52 48.6902 19.52C48.7422 19.52 48.7962 19.514 48.8522 19.502C48.9082 19.486 48.9562 19.47 48.9962 19.454L49.1162 19.964C49.0362 19.992 48.9442 20.016 48.8402 20.036C48.7402 20.06 48.6322 20.072 48.5162 20.072Z" fill="#727175"/>
    <path d="M50.4996 20.072C50.2996 20.072 50.0996 20.034 49.8996 19.958C49.6996 19.878 49.5276 19.78 49.3836 19.664L49.7076 19.22C49.8396 19.32 49.9716 19.4 50.1036 19.46C50.2356 19.52 50.3756 19.55 50.5236 19.55C50.6836 19.55 50.8016 19.516 50.8776 19.448C50.9536 19.38 50.9916 19.296 50.9916 19.196C50.9916 19.112 50.9596 19.044 50.8956 18.992C50.8356 18.936 50.7576 18.888 50.6616 18.848C50.5656 18.804 50.4656 18.762 50.3616 18.722C50.2336 18.674 50.1056 18.616 49.9776 18.548C49.8536 18.476 49.7516 18.386 49.6716 18.278C49.5916 18.166 49.5516 18.028 49.5516 17.864C49.5516 17.604 49.6476 17.392 49.8396 17.228C50.0316 17.064 50.2916 16.982 50.6196 16.982C50.8276 16.982 51.0136 17.018 51.1776 17.09C51.3416 17.162 51.4836 17.244 51.6036 17.336L51.2856 17.756C51.1816 17.68 51.0756 17.62 50.9676 17.576C50.8636 17.528 50.7536 17.504 50.6376 17.504C50.4896 17.504 50.3796 17.536 50.3076 17.6C50.2356 17.66 50.1996 17.736 50.1996 17.828C50.1996 17.944 50.2596 18.032 50.3796 18.092C50.4996 18.152 50.6396 18.21 50.7996 18.266C50.9356 18.314 51.0676 18.374 51.1956 18.446C51.3236 18.514 51.4296 18.604 51.5136 18.716C51.6016 18.828 51.6456 18.976 51.6456 19.16C51.6456 19.412 51.5476 19.628 51.3516 19.808C51.1556 19.984 50.8716 20.072 50.4996 20.072Z" fill="#727175"/>
</svg>
