<svg width="72" height="24" viewBox="0 0 72 24" fill="none" xmlns="http://www.w3.org/2000/svg">
    <g clip-path="url(#clip0_2526_1400)">
        <path d="M15.0058 17H1.08606C0.822367 17 0.569471 16.8959 0.38301 16.7105C0.196549 16.5251 0.0917969 16.2737 0.0917969 16.0115V6.12672C0.0917969 5.86456 0.196549 5.61313 0.38301 5.42776C0.569471 5.24238 0.822367 5.13824 1.08606 5.13824H15.0058C15.2695 5.13824 15.5224 5.24238 15.7088 5.42776C15.8953 5.61313 16 5.86456 16 6.12672V16.0115C16 16.2737 15.8953 16.5251 15.7088 16.7105C15.5224 16.8959 15.2695 17 15.0058 17Z" fill="#EAEAEA"/>
        <path d="M2.08033 17H1.08606C0.822367 17 0.569471 16.8959 0.38301 16.7105C0.196549 16.5251 0.0917969 16.2737 0.0917969 16.0115V6.12672C0.0917969 5.99691 0.117514 5.86837 0.167481 5.74844C0.217447 5.62851 0.290684 5.51954 0.38301 5.42776C0.475336 5.33597 0.584944 5.26316 0.705573 5.21348C0.826203 5.1638 0.955494 5.13824 1.08606 5.13824C1.21663 5.13824 1.34592 5.1638 1.46655 5.21348C1.58718 5.26316 1.69679 5.33597 1.78911 5.42776C1.88144 5.51954 1.95468 5.62851 2.00464 5.74844C2.05461 5.86837 2.08033 5.99691 2.08033 6.12672V17Z" fill="#D54C3F"/>
        <path d="M14.0112 17H15.0055C15.2692 17 15.5221 16.8959 15.7085 16.7105C15.895 16.5251 15.9998 16.2737 15.9998 16.0115V6.12672C15.9998 5.86456 15.895 5.61313 15.7085 5.42776C15.5221 5.24238 15.2692 5.13824 15.0055 5.13824C14.7418 5.13824 14.4889 5.24238 14.3024 5.42776C14.116 5.61313 14.0112 5.86456 14.0112 6.12672V17Z" fill="#B63524"/>
        <path d="M15.5749 6.93727C15.6819 6.86293 15.7732 6.76836 15.8435 6.65895C15.9138 6.54953 15.9618 6.42742 15.9846 6.29959C16.0074 6.17176 16.0047 6.04071 15.9766 5.91392C15.9485 5.78713 15.8955 5.66709 15.8208 5.56065C15.746 5.4542 15.6509 5.36344 15.5408 5.29355C15.4308 5.22366 15.3079 5.176 15.1794 5.1533C15.0508 5.1306 14.919 5.13329 14.7914 5.16124C14.6639 5.18918 14.5432 5.24183 14.4361 5.31616L8.04627 9.94126L8.04561 9.94159L8.04495 9.94126L1.65513 5.31616C1.4389 5.16603 1.17154 5.10745 0.911863 5.1533C0.652185 5.19915 0.421463 5.34568 0.270453 5.56065C0.119443 5.77562 0.0605159 6.04143 0.106634 6.29959C0.152752 6.55776 0.300138 6.78714 0.516368 6.93727L0.489854 6.91783L8.04561 12.3871M15.6017 6.91783L8.04561 12.3871L15.6017 6.91783Z" fill="#DE5145"/>
        <path d="M15.0057 5.13824C14.7939 5.13824 14.5973 5.20414 14.4363 5.31616L8.04646 9.94126L8.0458 9.94159L8.04513 9.94126L1.65532 5.31616C1.48845 5.20005 1.28962 5.13792 1.08594 5.13824H15.0057Z" fill="#EFEFEF"/>
        <path d="M2.08063 8.49512L0.40496 6.84502L0.404297 6.84633C0.439428 6.87928 0.476878 6.9096 0.516649 6.93727L0.490135 6.91783L2.08096 8.06941L2.08063 8.50698" fill="#C64132"/>
        <path d="M6.94137 13.2408L2.08008 17L2.08041 8.45393L6.94038 13.2395" fill="#E3E3E3"/>
        <path d="M6.94153 13.2408L8.04583 12.3871L2.08057 8.06941V8.45393L6.94054 13.2395L6.94153 13.2408Z" fill="url(#paint0_linear_2526_1400)"/>
        <path d="M10.7173 17H14.0113V8.06908L8.04572 12.3871L6.94043 13.2395L10.7173 17Z" fill="url(#paint1_linear_2526_1400)"/>
    </g>
    <path d="M25.1106 11.612C25.1106 12.2621 24.8707 12.7842 24.3909 13.1784C23.9042 13.5657 23.3132 13.7593 22.6179 13.7593C21.999 13.7593 21.4532 13.5795 20.9804 13.2199C20.5076 12.8603 20.1808 12.3693 20 11.7469L20.9178 11.3734C20.9804 11.5947 21.0673 11.7953 21.1786 11.9751C21.2898 12.1549 21.4184 12.3105 21.5645 12.4419C21.7174 12.5664 21.8843 12.6667 22.0651 12.7427C22.2459 12.8119 22.4371 12.8465 22.6387 12.8465C23.0768 12.8465 23.4349 12.7358 23.713 12.5145C23.9911 12.2863 24.1302 11.9855 24.1302 11.612C24.1302 11.3008 24.0154 11.0346 23.786 10.8133C23.5704 10.5989 23.1672 10.3914 22.5761 10.1909C21.9782 9.97649 21.6062 9.83126 21.4602 9.75519C20.6675 9.35408 20.2712 8.76279 20.2712 7.98133C20.2712 7.43499 20.4902 6.96819 20.9282 6.58091C21.3732 6.19364 21.9191 6 22.5657 6C23.1359 6 23.6295 6.14523 24.0467 6.43568C24.4639 6.71923 24.7421 7.07538 24.8811 7.50415L23.9842 7.87759C23.9007 7.60097 23.7338 7.37275 23.4835 7.19295C23.2402 7.00622 22.9412 6.91286 22.5866 6.91286C22.2111 6.91286 21.8947 7.0166 21.6375 7.22407C21.3802 7.4177 21.2516 7.67012 21.2516 7.98133C21.2516 8.23721 21.3524 8.45851 21.554 8.64523C21.7765 8.83195 22.2598 9.05325 23.0038 9.30913C23.7617 9.56501 24.3005 9.87967 24.6204 10.2531C24.9472 10.6196 25.1106 11.0726 25.1106 11.612Z" fill="#5F6368"/>
    <path d="M27.3398 6.75726C27.3398 6.94398 27.2737 7.10304 27.1416 7.23444C27.0095 7.36584 26.8496 7.43154 26.6618 7.43154C26.4741 7.43154 26.3142 7.36584 26.1821 7.23444C26.05 7.10304 25.9839 6.94398 25.9839 6.75726C25.9839 6.57054 26.05 6.41148 26.1821 6.28008C26.3142 6.14869 26.4741 6.08299 26.6618 6.08299C26.8496 6.08299 27.0095 6.14869 27.1416 6.28008C27.2737 6.41148 27.3398 6.57054 27.3398 6.75726ZM27.1416 8.51037V13.5934H26.1821V8.51037H27.1416Z" fill="#5F6368"/>
    <path d="M28.3903 8.51037H29.3081V9.21577H29.3499C29.4959 8.9668 29.7184 8.75934 30.0174 8.59336C30.3233 8.42739 30.6397 8.3444 30.9665 8.3444C31.5922 8.3444 32.072 8.5242 32.4058 8.88382C32.7465 9.23651 32.9168 9.74136 32.9168 10.3983V13.5934H31.9573V10.4606C31.9364 9.63071 31.5158 9.21577 30.6953 9.21577C30.3129 9.21577 29.993 9.37137 29.7358 9.68257C29.4785 9.98686 29.3499 10.3534 29.3499 10.7822V13.5934H28.3903V8.51037Z" fill="#5F6368"/>
    <path d="M36.2868 12.888C36.7596 12.888 37.1455 12.7185 37.4445 12.3797C37.7574 12.0408 37.9138 11.5982 37.9138 11.0519C37.9138 10.5194 37.7574 10.0802 37.4445 9.73444C37.1385 9.38866 36.7526 9.21577 36.2868 9.21577C35.8279 9.21577 35.442 9.38866 35.1291 9.73444C34.8162 10.0802 34.6597 10.5194 34.6597 11.0519C34.6597 11.5913 34.8162 12.0304 35.1291 12.3693C35.442 12.7151 35.8279 12.888 36.2868 12.888ZM36.2555 16C35.9704 16 35.7027 15.962 35.4524 15.8859C35.2021 15.8167 34.9726 15.7165 34.764 15.5851C34.5624 15.4537 34.3886 15.2981 34.2425 15.1183C34.0965 14.9384 33.9853 14.7379 33.9088 14.5166L34.8162 14.1432C34.9205 14.4405 35.1013 14.6791 35.3585 14.8589C35.6158 15.0387 35.9148 15.1286 36.2555 15.1286C36.777 15.1286 37.1837 14.973 37.4758 14.6618C37.7678 14.3506 37.9138 13.9219 37.9138 13.3755V12.888H37.8721C37.6913 13.1577 37.4445 13.3721 37.1316 13.5311C36.8256 13.6833 36.4919 13.7593 36.1303 13.7593C35.4628 13.7593 34.8892 13.5 34.4094 12.9813C33.9366 12.4488 33.7002 11.8057 33.7002 11.0519C33.7002 10.2981 33.9366 9.65837 34.4094 9.13278C34.8892 8.60719 35.4628 8.3444 36.1303 8.3444C36.4919 8.3444 36.8256 8.42393 37.1316 8.58299C37.4445 8.73513 37.6913 8.94606 37.8721 9.21577H37.9138V8.51037H38.8316V13.3755C38.8316 14.1916 38.5987 14.8313 38.1328 15.2946C37.66 15.7649 37.0342 16 36.2555 16Z" fill="#5F6368"/>
    <path d="M40.9611 6.16598V13.5934H40.0015V6.16598H40.9611Z" fill="#5F6368"/>
    <path d="M44.3739 13.7593C43.6229 13.7593 43.0041 13.5035 42.5174 12.9917C42.0307 12.4799 41.7873 11.8333 41.7873 11.0519C41.7873 10.2773 42.0237 9.63416 42.4965 9.12241C42.9694 8.60373 43.5743 8.3444 44.3113 8.3444C45.0692 8.3444 45.6707 8.5899 46.1157 9.08091C46.5676 9.56501 46.7936 10.2462 46.7936 11.1245L46.7832 11.2282H42.7677C42.7816 11.7261 42.9485 12.1272 43.2683 12.4315C43.5882 12.7358 43.9706 12.888 44.4156 12.888C45.0275 12.888 45.5073 12.5837 45.8549 11.9751L46.7102 12.39C46.4807 12.8188 46.1609 13.1542 45.7506 13.3963C45.3473 13.6383 44.8884 13.7593 44.3739 13.7593ZM42.8407 10.4398H45.7715C45.7437 10.0871 45.5976 9.79668 45.3334 9.56846C45.0762 9.33333 44.7285 9.21577 44.2905 9.21577C43.9289 9.21577 43.616 9.32642 43.3518 9.54772C43.0945 9.76902 42.9242 10.0664 42.8407 10.4398Z" fill="#5F6368"/>
    <path d="M52.5229 13.7593C51.6955 13.7593 51.028 13.4896 50.5204 12.9502C50.0128 12.4177 49.7591 11.7123 49.7591 10.834V6.16598H50.7186V10.8755C50.7186 11.4841 50.8785 11.9647 51.1984 12.3174C51.5182 12.6701 51.9597 12.8465 52.5229 12.8465C53.0861 12.8465 53.5277 12.6701 53.8475 12.3174C54.1674 11.9647 54.3273 11.4841 54.3273 10.8755V6.16598H55.2868V10.834C55.2868 11.7331 55.0365 12.4454 54.5359 12.971C54.0352 13.4965 53.3643 13.7593 52.5229 13.7593Z" fill="#5F6368"/>
    <path d="M60.3619 12.1826C60.3619 12.6252 60.1673 12.9986 59.7779 13.3029C59.3885 13.6072 58.8983 13.7593 58.3073 13.7593C57.7927 13.7593 57.3408 13.6279 56.9514 13.3651C56.562 13.0954 56.2839 12.7427 56.117 12.3071L56.9723 11.944C57.0974 12.2483 57.2782 12.4869 57.5146 12.6598C57.758 12.8257 58.0222 12.9087 58.3073 12.9087C58.6132 12.9087 58.867 12.843 59.0687 12.7116C59.2773 12.5802 59.3815 12.4246 59.3815 12.2448C59.3815 11.9198 59.1312 11.6812 58.6306 11.529L57.7545 11.3112C56.7602 11.0622 56.2631 10.5851 56.2631 9.87967C56.2631 9.41632 56.4508 9.04633 56.8263 8.76971C57.2087 8.48617 57.6954 8.3444 58.2864 8.3444C58.7384 8.3444 59.1451 8.45159 59.5067 8.66598C59.8752 8.88036 60.1325 9.16736 60.2785 9.52697L59.4233 9.87967C59.3259 9.66528 59.166 9.49931 58.9435 9.38174C58.728 9.25726 58.4846 9.19502 58.2134 9.19502C57.9631 9.19502 57.7371 9.25726 57.5355 9.38174C57.3408 9.50622 57.2435 9.65837 57.2435 9.83817C57.2435 10.1286 57.5181 10.3361 58.0674 10.4606L58.8392 10.6577C59.8544 10.9066 60.3619 11.4149 60.3619 12.1826Z" fill="#5F6368"/>
    <path d="M63.5426 13.7593C62.7917 13.7593 62.1728 13.5035 61.6861 12.9917C61.1994 12.4799 60.956 11.8333 60.956 11.0519C60.956 10.2773 61.1924 9.63416 61.6653 9.12241C62.1381 8.60373 62.743 8.3444 63.48 8.3444C64.2379 8.3444 64.8394 8.5899 65.2844 9.08091C65.7363 9.56501 65.9623 10.2462 65.9623 11.1245L65.9519 11.2282H61.9364C61.9503 11.7261 62.1172 12.1272 62.437 12.4315C62.7569 12.7358 63.1393 12.888 63.5843 12.888C64.1962 12.888 64.676 12.5837 65.0236 11.9751L65.8789 12.39C65.6494 12.8188 65.3296 13.1542 64.9193 13.3963C64.516 13.6383 64.0571 13.7593 63.5426 13.7593ZM62.0094 10.4398H64.9402C64.9124 10.0871 64.7664 9.79668 64.5021 9.56846C64.2449 9.33333 63.8972 9.21577 63.4592 9.21577C63.0976 9.21577 62.7847 9.32642 62.5205 9.54772C62.2632 9.76902 62.0929 10.0664 62.0094 10.4398Z" fill="#5F6368"/>
    <path d="M67.7993 13.5934H66.8398V8.51037H67.7576V9.34025H67.7993C67.8967 9.07054 68.0948 8.84232 68.3938 8.6556C68.6998 8.46196 68.9987 8.36515 69.2908 8.36515C69.5689 8.36515 69.8053 8.40664 70 8.48963L69.708 9.41286C69.5898 9.36445 69.402 9.34025 69.1448 9.34025C68.7832 9.34025 68.4668 9.48548 68.1957 9.77593C67.9314 10.0664 67.7993 10.4053 67.7993 10.7925V13.5934Z" fill="#5F6368"/>
    <path d="M21.5756 18.262C21.281 18.5604 21.0418 18.9134 20.8582 19.321C20.6789 19.7213 20.5892 20.1143 20.5892 20.5C20.5892 20.8894 20.6789 21.2824 20.8582 21.679C21.0418 22.0866 21.281 22.4396 21.5756 22.738L21.1401 23C20.7857 22.647 20.506 22.254 20.301 21.821C20.1003 21.3734 20 20.933 20 20.5C20 20.0633 20.1003 19.6248 20.301 19.1845C20.5017 18.7515 20.7814 18.3566 21.1401 18L21.5756 18.262Z" fill="#5F6368"/>
    <path d="M22.1653 22.2576V18.3493H23.8242C24.1871 18.3493 24.4988 18.4512 24.7593 18.655C25.0197 18.8552 25.1499 19.1081 25.1499 19.4138C25.1499 19.7995 24.9429 20.0706 24.5287 20.2271V20.2489C24.7635 20.3144 24.9514 20.429 25.0923 20.5928C25.2332 20.7529 25.3037 20.9367 25.3037 21.1441C25.3037 21.4643 25.167 21.73 24.8938 21.941C24.629 22.1521 24.3024 22.2576 23.9138 22.2576H22.1653ZM22.7546 18.8297V20.0251H23.8242C24.0334 20.0251 24.2084 19.9651 24.3493 19.845C24.4903 19.7213 24.5607 19.5811 24.5607 19.4247C24.5607 19.2718 24.4924 19.1336 24.3558 19.0098C24.2191 18.8897 24.0505 18.8297 23.8498 18.8297H22.7546ZM22.7546 20.4945V21.7773H23.9394C24.1529 21.7773 24.3344 21.7136 24.4838 21.5862C24.629 21.4589 24.7016 21.3079 24.7016 21.1332C24.7016 20.9622 24.6269 20.813 24.4774 20.6856C24.328 20.5582 24.1401 20.4945 23.9138 20.4945H22.7546Z" fill="#5F6368"/>
    <path d="M28.6454 18.3493V18.8297H26.5574V20.0688H28.4404V20.5382H26.5574V21.7773H28.6454V22.2576H25.9682V18.3493H28.6454Z" fill="#5F6368"/>
    <path d="M31.0023 18.8297V22.2576H30.413V18.8297H29.1321V18.3493H32.2832V18.8297H31.0023Z" fill="#5F6368"/>
    <path d="M34.1445 18.9662L33.3952 20.7293H34.9195L34.1701 18.9662H34.1445ZM32.7483 22.2576H32.095L33.8243 18.3493H34.4904L36.2197 22.2576H35.5664L35.1244 21.1987H33.1966L32.7483 22.2576Z" fill="#5F6368"/>
    <path d="M36.8599 18C37.0393 18.1747 37.1973 18.3603 37.3339 18.5568C37.4748 18.7533 37.5944 18.9625 37.6926 19.1845C37.8975 19.6212 38 20.0597 38 20.5C38 20.9403 37.8975 21.3806 37.6926 21.821C37.4962 22.2504 37.2186 22.6434 36.8599 23L36.4244 22.738C36.719 22.4396 36.9582 22.0866 37.1418 21.679C37.3211 21.2824 37.4108 20.8894 37.4108 20.5C37.4108 20.1143 37.3211 19.7213 37.1418 19.321C36.9582 18.9134 36.719 18.5604 36.4244 18.262L36.8599 18Z" fill="#5F6368"/>
    <defs>
        <linearGradient id="paint0_linear_2526_1400" x1="2.08057" y1="10.6553" x2="8.04583" y2="10.6553" gradientUnits="userSpaceOnUse">
            <stop stop-color="#C8C8C8"/>
            <stop offset="1" stop-color="#CDCDCD"/>
        </linearGradient>
        <linearGradient id="paint1_linear_2526_1400" x1="6.94043" y1="12.5344" x2="14.0113" y2="12.5344" gradientUnits="userSpaceOnUse">
            <stop stop-color="#D9D9D9"/>
            <stop offset="1" stop-color="#E2E2E2"/>
        </linearGradient>
        <clipPath id="clip0_2526_1400">
            <rect width="16" height="12" fill="white" transform="translate(0 5)"/>
        </clipPath>
    </defs>
</svg>
