<svg width="72" height="24" viewBox="0 0 72 24" fill="none" xmlns="http://www.w3.org/2000/svg">
    <path d="M19.0727 3V3.55H19.6332V3H19.0727ZM19.0727 4.1V4.65H19.6332V4.1H19.0727ZM17.3911 4.65V5.2H17.9516V4.65H17.3911Z" fill="#FDB511"/>
    <path d="M10.0576 5.0625C5.60679 5.0625 2 8.60156 2 12.9688C2 17.3359 5.60679 20.875 10.0576 20.875C14.5083 20.875 18.1151 17.3359 18.1151 12.9688C18.1151 8.60156 14.5083 5.0625 10.0576 5.0625ZM10.0576 7.58333C13.0859 7.58333 15.5461 9.99726 15.5461 12.9688C15.5461 15.9402 13.0859 18.3542 10.0576 18.3542C7.0292 18.3542 4.59243 15.9402 4.59243 12.9688C4.59243 9.99726 7.0292 7.58333 10.0576 7.58333Z" fill="#FDB511"/>
    <path d="M22.7907 17.1524C21.6323 17.1524 20.6607 16.8701 19.876 16.3054L20.6271 15.0954C21.2549 15.5281 21.9649 15.7444 22.7571 15.7444C23.1457 15.7444 23.4521 15.6711 23.6763 15.5244C23.9006 15.3704 24.0127 15.1578 24.0127 14.8864C24.0127 14.8131 24.0052 14.7471 23.9902 14.6884C23.9753 14.6298 23.9491 14.5748 23.9118 14.5234C23.8744 14.4648 23.837 14.4171 23.7997 14.3804C23.7623 14.3364 23.7025 14.2924 23.6203 14.2484C23.5456 14.2044 23.4783 14.1678 23.4185 14.1384C23.3662 14.1091 23.2802 14.0724 23.1607 14.0284C23.0411 13.9844 22.9402 13.9514 22.858 13.9294C22.7832 13.9001 22.6674 13.8598 22.5105 13.8084C22.3535 13.7571 22.2227 13.7131 22.1181 13.6764C21.8416 13.5811 21.6061 13.4821 21.4118 13.3794C21.2175 13.2694 21.0194 13.1301 20.8177 12.9614C20.6159 12.7854 20.4627 12.5654 20.358 12.3014C20.2534 12.0301 20.2011 11.7221 20.2011 11.3774C20.2011 10.6808 20.4477 10.1418 20.941 9.76043C21.4342 9.37177 22.0844 9.17744 22.8916 9.17743C23.8632 9.17744 24.6517 9.35344 25.257 9.70543L24.6853 10.9704C24.1173 10.7064 23.5381 10.5744 22.9477 10.5744C22.1704 10.5744 21.7818 10.8238 21.7818 11.3224C21.7818 11.4398 21.8042 11.5424 21.849 11.6304C21.8939 11.7184 21.9424 11.7918 21.9948 11.8504C22.0471 11.9091 22.1405 11.9678 22.275 12.0264C22.417 12.0851 22.5329 12.1291 22.6226 12.1584C22.7197 12.1878 22.8767 12.2354 23.0934 12.3014C23.1906 12.3308 23.2653 12.3528 23.3176 12.3674C23.5792 12.4481 23.8034 12.5251 23.9902 12.5984C24.1771 12.6718 24.3826 12.7781 24.6068 12.9174C24.831 13.0494 25.0141 13.1998 25.1561 13.3684C25.2981 13.5371 25.4177 13.7498 25.5149 14.0064C25.612 14.2631 25.6606 14.5491 25.6606 14.8644C25.6606 15.5538 25.4102 16.1074 24.9095 16.5254C24.4162 16.9434 23.71 17.1524 22.7907 17.1524Z" fill="black"/>
    <path d="M28.4274 17.3064L26.3086 11.3554H28.0686L29.1561 15.5134L30.0753 11.3554H31.7233L29.9856 17.1194C29.5821 18.4541 28.7413 19.1214 27.4633 19.1214C27.1643 19.1214 26.8467 19.0884 26.5104 19.0224L26.6898 17.8564C26.9887 17.8858 27.1793 17.9004 27.2615 17.9004C27.5679 17.9004 27.8071 17.8528 27.979 17.7574C28.1509 17.6694 28.3003 17.5191 28.4274 17.3064Z" fill="black"/>
    <path d="M37.2817 12.1034C37.8422 11.5168 38.4401 11.2234 39.0754 11.2234C39.6658 11.2234 40.0806 11.4214 40.3198 11.8174C40.5664 12.2134 40.6897 12.7084 40.6897 13.3024V17.0424H38.9857V13.2804C38.9857 12.8258 38.8063 12.5984 38.4476 12.5984C38.1636 12.5984 37.846 12.7524 37.4947 13.0604V17.0424H35.7907V13.2804C35.7907 12.8258 35.6113 12.5984 35.2526 12.5984C34.9238 12.5984 34.6061 12.7598 34.2997 13.0824V17.0424H32.5957V11.3554H33.6495L33.9858 12.2244C34.5762 11.5571 35.2078 11.2234 35.8804 11.2234C36.553 11.2234 37.0201 11.5168 37.2817 12.1034Z" fill="black"/>
    <path d="M44.946 13.4014V13.2584C44.946 13.0018 44.8862 12.8148 44.7666 12.6974C44.6545 12.5801 44.4565 12.5214 44.1725 12.5214C43.7315 12.5214 43.1897 12.6681 42.547 12.9614L41.964 11.8614C42.7114 11.4361 43.4961 11.2234 44.3182 11.2234C45.088 11.2234 45.6672 11.4104 46.0559 11.7844C46.452 12.1511 46.65 12.6754 46.65 13.3574V17.0424H45.5962C45.4019 16.6391 45.301 16.4374 45.2935 16.4374C44.7629 16.9141 44.1949 17.1524 43.5895 17.1524C43.0739 17.1524 42.6404 17.0058 42.2891 16.7124C41.9453 16.4118 41.7734 16.0048 41.7734 15.4914C41.7734 14.8901 41.9715 14.4501 42.3676 14.1714C42.831 13.8341 43.6904 13.5774 44.946 13.4014ZM44.946 15.6344V14.4354C44.2061 14.5821 43.7577 14.7434 43.6008 14.9194C43.4961 15.0294 43.4438 15.1798 43.4438 15.3704C43.4438 15.7738 43.6419 15.9754 44.038 15.9754C44.3668 15.9754 44.6695 15.8618 44.946 15.6344Z" fill="black"/>
    <path d="M48.0103 17.0424V11.3554H49.064L49.4004 12.2244C49.9908 11.5571 50.6372 11.2234 51.3398 11.2234C52.4459 11.2234 52.9989 11.9164 52.9989 13.3024V17.0424H51.2949V13.2804C51.2949 12.8258 51.1006 12.5984 50.712 12.5984C50.3533 12.5984 50.0207 12.7598 49.7143 13.0824V17.0424H48.0103Z" fill="black"/>
    <path d="M54.7626 12.4994H53.9106V11.3554H54.7851L55.0765 9.73843H56.4666V11.3554H57.6998V12.4994H56.4666V15.2384C56.4666 15.4878 56.5077 15.6601 56.59 15.7554C56.6722 15.8508 56.8403 15.8984 57.0944 15.8984C57.2364 15.8984 57.4345 15.8618 57.6886 15.7884L57.8904 16.9434C57.4644 17.0828 57.0309 17.1524 56.59 17.1524C55.3717 17.1524 54.7626 16.5438 54.7626 15.3264V12.4994Z" fill="black"/>
    <path d="M60.3494 14.6884C60.3868 15.0771 60.4951 15.3631 60.6745 15.5464C60.8614 15.7298 61.1379 15.8214 61.5041 15.8214C61.7059 15.8214 61.9077 15.7921 62.1095 15.7334C62.3187 15.6748 62.4719 15.6198 62.5691 15.5684C62.6737 15.5171 62.8269 15.4364 63.0287 15.3264L63.7014 16.3824C63.4697 16.5511 63.2716 16.6831 63.1072 16.7784C62.9428 16.8664 62.7074 16.9508 62.4009 17.0314C62.0945 17.1121 61.7545 17.1524 61.3808 17.1524C60.5288 17.1524 59.8487 16.8958 59.3405 16.3824C58.8397 15.8618 58.5894 15.1541 58.5894 14.2594C58.5894 13.3648 58.8285 12.6351 59.3068 12.0704C59.7851 11.5058 60.4428 11.2234 61.2799 11.2234C62.1394 11.2234 62.7821 11.5058 63.2081 12.0704C63.6341 12.6351 63.8471 13.3611 63.8471 14.2484V14.6884H60.3494ZM60.3494 13.7094H62.1095C62.1095 12.8514 61.8292 12.4224 61.2687 12.4224C60.9996 12.4224 60.7904 12.5251 60.6409 12.7304C60.4914 12.9284 60.3943 13.2548 60.3494 13.7094Z" fill="black"/>
    <path d="M67.4897 17.1524C66.5629 17.1524 65.8641 16.8848 65.3933 16.3494C64.9299 15.8068 64.6982 15.0991 64.6982 14.2264C64.6982 13.3538 64.9411 12.6351 65.4269 12.0704C65.9127 11.5058 66.6003 11.2234 67.4897 11.2234C68.2744 11.2234 68.9134 11.4361 69.4067 11.8614L68.6107 12.9724C68.4089 12.8258 68.2333 12.7268 68.0838 12.6754C67.9343 12.6168 67.74 12.5874 67.5009 12.5874C66.8058 12.5874 66.4583 13.1264 66.4583 14.2044C66.4583 15.2604 66.8133 15.7884 67.5233 15.7884C67.9044 15.7884 68.2893 15.6381 68.678 15.3374L69.4964 16.3714C68.9657 16.8921 68.2968 17.1524 67.4897 17.1524Z" fill="black"/>
    <path d="M12.3462 9.04999C10.8831 10.8442 10.5144 11.6321 9.93153 13.0827C9.27021 11.7703 8.48097 10.8645 7.1146 10.2646C6.85575 10.1997 6.72847 10.1621 6.55407 10.4021C6.37967 10.642 6.48542 10.8579 6.6942 11.1125C7.24132 11.7797 7.85616 12.3962 8.28236 13.1521C8.78201 14.0383 9.40409 15.4988 9.61361 15.8792C9.78025 16.1816 10.1833 16.3146 10.3376 16.3146C11.1645 16.2186 11.1648 15.8061 11.3224 15.091C11.578 13.9185 11.9091 12.7063 13.4672 11.25V9.04999H12.3462Z" fill="black"/>
    <path d="M18.512 3.54999V4.09999H19.0725V3.54999H18.512ZM18.512 4.09999H17.3909V4.64999H18.512V4.09999ZM17.3909 4.64999H16.8304V5.74999H17.3909V4.64999ZM17.3909 5.74999V6.29999H17.9515V5.74999H17.3909ZM17.9515 5.74999H18.512V5.19999H17.9515V5.74999ZM17.3909 6.29999H16.8304V6.84999H16.2699V6.29999H15.1488V6.84999H14.5883V7.39999H15.1488V7.94999H14.5883V7.39999H14.0278V7.94999H13.4673V8.49999H12.9067V10.7H14.0278V10.15H14.5883V9.59999H15.1488V9.04999H14.5883V8.49999H15.1488V9.04999H15.7094V8.49999H16.2699V7.94999H16.8304V7.39999H17.3909V6.29999ZM16.2699 6.29999H16.8304V5.74999H16.2699V6.29999ZM16.2699 5.74999V5.19999H15.7094V5.74999H16.2699Z" fill="black"/>
</svg>
