<svg width="72" height="24" viewBox="0 0 72 24" fill="none" xmlns="http://www.w3.org/2000/svg">
<path d="M11 20.9364V17.3509H11.7308L12.378 19.1053C12.4189 19.2186 12.458 19.3355 12.4952 19.4561C12.5323 19.5731 12.5714 19.6901 12.6123 19.807H12.6346C12.6755 19.6901 12.7127 19.5731 12.7462 19.4561C12.7834 19.3355 12.8224 19.2186 12.8634 19.1053L13.4938 17.3509H14.2302V20.9364H13.6333V19.2971C13.6333 19.2131 13.6351 19.1217 13.6388 19.023C13.6463 18.9243 13.6537 18.8257 13.6611 18.727C13.6686 18.6246 13.6779 18.526 13.689 18.4309C13.7002 18.3322 13.7095 18.2409 13.7169 18.1568H13.6946L13.3989 18.9901L12.802 20.602H12.417L11.8145 18.9901L11.5244 18.1568H11.5021C11.5095 18.2409 11.517 18.3322 11.5244 18.4309C11.5356 18.526 11.5449 18.6246 11.5523 18.727C11.5635 18.8257 11.5709 18.9243 11.5746 19.023C11.5821 19.1217 11.5858 19.2131 11.5858 19.2971V20.9364H11Z" fill="#E4E4E4"/>
<path d="M15.1848 20.9364V18.2445H15.8264V20.9364H15.1848ZM15.5084 17.773C15.3931 17.773 15.2983 17.7401 15.2239 17.6743C15.1495 17.6086 15.1123 17.5227 15.1123 17.4167C15.1123 17.3107 15.1495 17.2248 15.2239 17.159C15.2983 17.0895 15.3931 17.0548 15.5084 17.0548C15.6237 17.0548 15.7186 17.0895 15.793 17.159C15.8673 17.2248 15.9045 17.3107 15.9045 17.4167C15.9045 17.5227 15.8673 17.6086 15.793 17.6743C15.7186 17.7401 15.6237 17.773 15.5084 17.773Z" fill="#E4E4E4"/>
<path d="M17.8723 21.0022C17.6864 21.0022 17.5116 20.9711 17.3479 20.909C17.188 20.8469 17.0485 20.7555 16.9295 20.6349C16.8105 20.5143 16.7175 20.3662 16.6505 20.1908C16.5836 20.0154 16.5501 19.8162 16.5501 19.5932C16.5501 19.3702 16.5873 19.1711 16.6617 18.9956C16.7361 18.8202 16.8365 18.6721 16.963 18.5515C17.0894 18.4309 17.2345 18.3395 17.3981 18.2774C17.5655 18.2116 17.7403 18.1787 17.9225 18.1787C18.1011 18.1787 18.2536 18.208 18.38 18.2664C18.5102 18.3249 18.6255 18.3962 18.7259 18.4803L18.4135 18.8914C18.3391 18.8293 18.2647 18.7818 18.1903 18.7489C18.1197 18.7124 18.0416 18.6941 17.956 18.6941C17.7329 18.6941 17.5525 18.7763 17.4149 18.9408C17.2772 19.1016 17.2084 19.3191 17.2084 19.5932C17.2084 19.8637 17.2754 20.0811 17.4093 20.2456C17.5469 20.4064 17.7236 20.4868 17.9393 20.4868C18.0471 20.4868 18.1476 20.4649 18.2405 20.4211C18.3372 20.3735 18.4246 20.3187 18.5027 20.2566L18.765 20.6732C18.6348 20.7829 18.4916 20.8651 18.3354 20.92C18.1829 20.9748 18.0285 21.0022 17.8723 21.0022Z" fill="#E4E4E4"/>
<path d="M19.3893 20.9364V18.2445H19.9193L19.9639 18.7215H19.9863C20.083 18.5461 20.2001 18.4126 20.3377 18.3213C20.4753 18.2262 20.6167 18.1787 20.7617 18.1787C20.8919 18.1787 20.996 18.197 21.0741 18.2336L20.9626 18.7818C20.9142 18.7672 20.8696 18.7562 20.8287 18.7489C20.7878 18.7416 20.7376 18.7379 20.678 18.7379C20.5702 18.7379 20.4567 18.78 20.3377 18.864C20.2187 18.9444 20.1164 19.087 20.0309 19.2917V20.9364H19.3893Z" fill="#E4E4E4"/>
<path d="M22.6211 21.0022C22.45 21.0022 22.2863 20.9711 22.1301 20.909C21.9739 20.8469 21.8345 20.7555 21.7117 20.6349C21.5927 20.5143 21.4979 20.3662 21.4272 20.1908C21.3565 20.0154 21.3212 19.8162 21.3212 19.5932C21.3212 19.3702 21.3565 19.1711 21.4272 18.9956C21.4979 18.8202 21.5927 18.6721 21.7117 18.5515C21.8345 18.4309 21.9739 18.3395 22.1301 18.2774C22.2863 18.2116 22.45 18.1787 22.6211 18.1787C22.7922 18.1787 22.9558 18.2116 23.112 18.2774C23.272 18.3395 23.4114 18.4309 23.5304 18.5515C23.6495 18.6721 23.7443 18.8202 23.815 18.9956C23.8894 19.1711 23.9265 19.3702 23.9265 19.5932C23.9265 19.8162 23.8894 20.0154 23.815 20.1908C23.7443 20.3662 23.6495 20.5143 23.5304 20.6349C23.4114 20.7555 23.272 20.8469 23.112 20.909C22.9558 20.9711 22.7922 21.0022 22.6211 21.0022ZM22.6211 20.4868C22.8219 20.4868 22.98 20.4064 23.0953 20.2456C23.2106 20.0811 23.2682 19.8637 23.2682 19.5932C23.2682 19.3191 23.2106 19.1016 23.0953 18.9408C22.98 18.7763 22.8219 18.6941 22.6211 18.6941C22.4202 18.6941 22.2622 18.7763 22.1469 18.9408C22.0353 19.1016 21.9795 19.3191 21.9795 19.5932C21.9795 19.8637 22.0353 20.0811 22.1469 20.2456C22.2622 20.4064 22.4202 20.4868 22.6211 20.4868Z" fill="#E4E4E4"/>
<path d="M25.3878 21.0022C25.1981 21.0022 25.0103 20.9675 24.8243 20.898C24.6421 20.8249 24.484 20.7354 24.3501 20.6294L24.6514 20.2237C24.7741 20.3187 24.895 20.3936 25.014 20.4485C25.1367 20.4996 25.2688 20.5252 25.4101 20.5252C25.5589 20.5252 25.6686 20.496 25.7393 20.4375C25.8099 20.3754 25.8453 20.2968 25.8453 20.2018C25.8453 20.1469 25.8285 20.0994 25.7951 20.0592C25.7616 20.0154 25.7169 19.977 25.6612 19.9441C25.6054 19.9112 25.5421 19.8819 25.4715 19.8564C25.4008 19.8271 25.3301 19.7979 25.2595 19.7686C25.1702 19.7357 25.0791 19.6974 24.9861 19.6535C24.8931 19.6096 24.8094 19.5567 24.7351 19.4945C24.6644 19.4324 24.6049 19.3611 24.5565 19.2807C24.5119 19.1966 24.4896 19.098 24.4896 18.9846C24.4896 18.7471 24.5788 18.5534 24.7574 18.4035C24.9359 18.2537 25.1795 18.1787 25.4882 18.1787C25.6779 18.1787 25.849 18.2116 26.0015 18.2774C26.154 18.3432 26.286 18.4181 26.3976 18.5022L26.1019 18.886C26.0052 18.8165 25.9066 18.7617 25.8062 18.7215C25.7095 18.6776 25.6072 18.6557 25.4994 18.6557C25.3618 18.6557 25.2595 18.6849 25.1925 18.7434C25.1293 18.7982 25.0977 18.8677 25.0977 18.9518C25.0977 19.0066 25.1126 19.0541 25.1423 19.0943C25.1758 19.1308 25.2186 19.1637 25.2706 19.193C25.3227 19.2222 25.3822 19.2496 25.4492 19.2752C25.5198 19.3008 25.5924 19.3264 25.6667 19.352C25.7597 19.3849 25.8527 19.4232 25.9457 19.4671C26.0387 19.5073 26.1224 19.5585 26.1967 19.6206C26.2748 19.6827 26.3362 19.7595 26.3808 19.8509C26.4292 19.9386 26.4534 20.0446 26.4534 20.1689C26.4534 20.2858 26.4292 20.3955 26.3808 20.4978C26.3362 20.5965 26.2693 20.6842 26.18 20.761C26.0907 20.8341 25.9792 20.8925 25.8453 20.9364C25.7114 20.9803 25.5589 21.0022 25.3878 21.0022Z" fill="#E4E4E4"/>
<path d="M28.2312 21.0022C28.0601 21.0022 27.8964 20.9711 27.7402 20.909C27.584 20.8469 27.4445 20.7555 27.3218 20.6349C27.2028 20.5143 27.1079 20.3662 27.0373 20.1908C26.9666 20.0154 26.9313 19.8162 26.9313 19.5932C26.9313 19.3702 26.9666 19.1711 27.0373 18.9956C27.1079 18.8202 27.2028 18.6721 27.3218 18.5515C27.4445 18.4309 27.584 18.3395 27.7402 18.2774C27.8964 18.2116 28.0601 18.1787 28.2312 18.1787C28.4023 18.1787 28.5659 18.2116 28.7221 18.2774C28.882 18.3395 29.0215 18.4309 29.1405 18.5515C29.2596 18.6721 29.3544 18.8202 29.4251 18.9956C29.4994 19.1711 29.5366 19.3702 29.5366 19.5932C29.5366 19.8162 29.4994 20.0154 29.4251 20.1908C29.3544 20.3662 29.2596 20.5143 29.1405 20.6349C29.0215 20.7555 28.882 20.8469 28.7221 20.909C28.5659 20.9711 28.4023 21.0022 28.2312 21.0022ZM28.2312 20.4868C28.432 20.4868 28.5901 20.4064 28.7054 20.2456C28.8207 20.0811 28.8783 19.8637 28.8783 19.5932C28.8783 19.3191 28.8207 19.1016 28.7054 18.9408C28.5901 18.7763 28.432 18.6941 28.2312 18.6941C28.0303 18.6941 27.8723 18.7763 27.757 18.9408C27.6454 19.1016 27.5896 19.3191 27.5896 19.5932C27.5896 19.8637 27.6454 20.0811 27.757 20.2456C27.8723 20.4064 28.0303 20.4868 28.2312 20.4868Z" fill="#E4E4E4"/>
<path d="M30.3451 20.9364V18.7434H29.9769V18.2719L30.3451 18.2445V17.9649C30.3451 17.826 30.3619 17.6981 30.3954 17.5811C30.4288 17.4605 30.4828 17.3582 30.5571 17.2741C30.6315 17.1864 30.7245 17.1188 30.8361 17.0713C30.9514 17.0238 31.0909 17 31.2545 17C31.3512 17 31.4423 17.0091 31.5279 17.0274C31.6171 17.0457 31.6934 17.0676 31.7566 17.0932L31.6339 17.5647C31.5335 17.5208 31.433 17.4989 31.3326 17.4989C31.102 17.4989 30.9867 17.6506 30.9867 17.9539V18.2445H31.9296L32.0077 17.5099H32.5377V18.2445H33.2406V18.7434H32.5377V20.0263C32.5377 20.3406 32.6678 20.4978 32.9282 20.4978C32.9765 20.4978 33.0249 20.4923 33.0732 20.4814C33.1253 20.4704 33.1718 20.4558 33.2127 20.4375L33.3243 20.9035C33.2499 20.9291 33.1644 20.951 33.0677 20.9693C32.9747 20.9912 32.8724 21.0022 32.7608 21.0022C32.6046 21.0022 32.4707 20.9784 32.3591 20.9309C32.2513 20.8834 32.162 20.8176 32.0914 20.7336C32.0244 20.6458 31.9742 20.5435 31.9407 20.4265C31.911 20.3059 31.8961 20.1725 31.8961 20.0263V18.7434H30.9867V20.9364H30.3451Z" fill="#E4E4E4"/>
<path d="M36.6817 21.0022C36.4362 21.0022 36.2075 20.962 35.9955 20.8816C35.7872 20.8012 35.6049 20.6824 35.4487 20.5252C35.2962 20.3681 35.1772 20.1743 35.0917 19.9441C35.0061 19.7138 34.9634 19.4507 34.9634 19.1546C34.9634 18.8622 35.008 18.6009 35.0973 18.3706C35.1865 18.1367 35.3074 17.9393 35.4599 17.7785C35.6161 17.6177 35.7983 17.4952 36.0066 17.4112C36.2186 17.3271 36.4455 17.2851 36.6873 17.2851C36.9476 17.2851 37.167 17.3326 37.3456 17.4276C37.5278 17.519 37.6766 17.6232 37.7919 17.7401L37.446 18.1513C37.353 18.0636 37.2489 17.9905 37.1336 17.932C37.022 17.8699 36.8807 17.8388 36.7096 17.8388C36.5459 17.8388 36.3972 17.8699 36.2633 17.932C36.1331 17.9905 36.0196 18.0764 35.9229 18.1897C35.83 18.2993 35.7574 18.4346 35.7054 18.5954C35.6533 18.7562 35.6273 18.9371 35.6273 19.1382C35.6273 19.5475 35.7202 19.8692 35.9062 20.1031C36.0959 20.3333 36.3748 20.4485 36.743 20.4485C36.8472 20.4485 36.9457 20.4357 37.0387 20.4101C37.1317 20.3808 37.208 20.3406 37.2675 20.2895V19.5164H36.5757V18.9956H37.8477V20.5746C37.7249 20.6952 37.5613 20.7975 37.3567 20.8816C37.1559 20.962 36.9309 21.0022 36.6817 21.0022Z" fill="#E4E4E4"/>
<path d="M38.6841 20.9364V18.2445H39.2141L39.2587 18.7215H39.2811C39.3778 18.5461 39.4949 18.4126 39.6325 18.3213C39.7701 18.2262 39.9115 18.1787 40.0565 18.1787C40.1867 18.1787 40.2908 18.197 40.369 18.2336L40.2574 18.7818C40.209 18.7672 40.1644 18.7562 40.1235 18.7489C40.0826 18.7416 40.0324 18.7379 39.9729 18.7379C39.865 18.7379 39.7516 18.78 39.6325 18.864C39.5135 18.9444 39.4112 19.087 39.3257 19.2917V20.9364H38.6841Z" fill="#E4E4E4"/>
<path d="M41.3658 21.0022C41.124 21.0022 40.9288 20.9309 40.78 20.7884C40.6312 20.6422 40.5569 20.4503 40.5569 20.2127C40.5569 20.0702 40.5866 19.9441 40.6461 19.8344C40.7093 19.7211 40.806 19.6243 40.9362 19.5439C41.0701 19.4635 41.2375 19.3958 41.4383 19.341C41.6429 19.2862 41.8865 19.2442 42.1692 19.2149C42.1654 19.1455 42.1543 19.0797 42.1357 19.0175C42.1208 18.9518 42.0929 18.8951 42.052 18.8476C42.0148 18.7964 41.9646 18.758 41.9014 18.7325C41.8381 18.7032 41.76 18.6886 41.6671 18.6886C41.5332 18.6886 41.4011 18.7142 41.271 18.7654C41.1445 18.8165 41.0199 18.8787 40.8972 18.9518L40.6629 18.5296C40.8153 18.4346 40.9864 18.3523 41.1761 18.2829C41.3658 18.2135 41.5704 18.1787 41.7898 18.1787C42.132 18.1787 42.3867 18.2792 42.5541 18.4803C42.7252 18.6776 42.8107 18.9645 42.8107 19.341V20.9364H42.2807L42.2361 20.6404H42.2138C42.0911 20.7427 41.959 20.8286 41.8177 20.898C41.6801 20.9675 41.5294 21.0022 41.3658 21.0022ZM41.5722 20.5088C41.6838 20.5088 41.7842 20.4832 41.8735 20.432C41.9665 20.3808 42.065 20.3077 42.1692 20.2127V19.6096C41.9832 19.6316 41.827 19.6608 41.7005 19.6974C41.5741 19.7339 41.4718 19.776 41.3937 19.8235C41.3156 19.8673 41.2598 19.9185 41.2263 19.977C41.1929 20.0355 41.1761 20.0976 41.1761 20.1634C41.1761 20.284 41.2133 20.3717 41.2877 20.4265C41.3621 20.4814 41.4569 20.5088 41.5722 20.5088Z" fill="#E4E4E4"/>
<path d="M43.6622 22V18.2445H44.1922L44.2369 18.5296H44.2592C44.3745 18.4346 44.5028 18.3523 44.6441 18.2829C44.7854 18.2135 44.9324 18.1787 45.0848 18.1787C45.2559 18.1787 45.4066 18.2116 45.5367 18.2774C45.6706 18.3395 45.7841 18.4309 45.8771 18.5515C45.97 18.6721 46.0407 18.8165 46.0891 18.9846C46.1374 19.1528 46.1616 19.341 46.1616 19.5493C46.1616 19.7796 46.1281 19.9861 46.0612 20.1689C45.9979 20.348 45.9124 20.4996 45.8045 20.6239C45.6967 20.7445 45.5721 20.8377 45.4307 20.9035C45.2894 20.9693 45.1425 21.0022 44.99 21.0022C44.871 21.0022 44.752 20.9766 44.633 20.9254C44.5139 20.8743 44.3986 20.8012 44.2871 20.7061L44.3038 21.1557V22H43.6622ZM44.8561 20.4814C45.0384 20.4814 45.1908 20.4046 45.3136 20.2511C45.4363 20.0939 45.4977 19.8618 45.4977 19.5548C45.4977 19.2844 45.4512 19.0742 45.3582 18.9243C45.2652 18.7745 45.1146 18.6996 44.9063 18.6996C44.7129 18.6996 44.5121 18.8001 44.3038 19.0011V20.2566C44.4042 20.3406 44.5009 20.3991 44.5939 20.432C44.6869 20.4649 44.7743 20.4814 44.8561 20.4814Z" fill="#E4E4E4"/>
<path d="M46.8949 20.9364V17.0658H47.5365V18.0636L47.5142 18.5844C47.6295 18.4784 47.756 18.3852 47.8936 18.3048C48.0349 18.2208 48.2004 18.1787 48.3901 18.1787C48.6839 18.1787 48.8978 18.2719 49.0317 18.4583C49.1656 18.6411 49.2325 18.9042 49.2325 19.2478V20.9364H48.5909V19.33C48.5909 19.1071 48.5575 18.9499 48.4905 18.8586C48.4236 18.7672 48.3139 18.7215 48.1614 18.7215C48.0423 18.7215 47.9363 18.7507 47.8434 18.8092C47.7541 18.864 47.6518 18.9463 47.5365 19.0559V20.9364H46.8949Z" fill="#E4E4E4"/>
<path d="M51.3459 20.9364V17.3509H52.0767L52.7239 19.1053C52.7648 19.2186 52.8038 19.3355 52.841 19.4561C52.8782 19.5731 52.9173 19.6901 52.9582 19.807H52.9805C53.0214 19.6901 53.0586 19.5731 53.0921 19.4561C53.1293 19.3355 53.1683 19.2186 53.2092 19.1053L53.8397 17.3509H54.5761V20.9364H53.9791V19.2971C53.9791 19.2131 53.981 19.1217 53.9847 19.023C53.9922 18.9243 53.9996 18.8257 54.007 18.727C54.0145 18.6246 54.0238 18.526 54.0349 18.4309C54.0461 18.3322 54.0554 18.2409 54.0628 18.1568H54.0405L53.7448 18.9901L53.1479 20.602H52.7629L52.1604 18.9901L51.8703 18.1568H51.848C51.8554 18.2409 51.8629 18.3322 51.8703 18.4309C51.8815 18.526 51.8908 18.6246 51.8982 18.727C51.9094 18.8257 51.9168 18.9243 51.9205 19.023C51.928 19.1217 51.9317 19.2131 51.9317 19.2971V20.9364H51.3459Z" fill="#E4E4E4"/>
<path d="M56.1946 21.0022C55.9529 21.0022 55.7576 20.9309 55.6088 20.7884C55.4601 20.6422 55.3857 20.4503 55.3857 20.2127C55.3857 20.0702 55.4154 19.9441 55.4749 19.8344C55.5382 19.7211 55.6349 19.6243 55.7651 19.5439C55.8989 19.4635 56.0663 19.3958 56.2672 19.341C56.4717 19.2862 56.7153 19.2442 56.998 19.2149C56.9943 19.1455 56.9831 19.0797 56.9645 19.0175C56.9496 18.9518 56.9217 18.8951 56.8808 18.8476C56.8436 18.7964 56.7934 18.758 56.7302 18.7325C56.667 18.7032 56.5889 18.6886 56.4959 18.6886C56.362 18.6886 56.23 18.7142 56.0998 18.7654C55.9733 18.8165 55.8487 18.8787 55.726 18.9518L55.4917 18.5296C55.6442 18.4346 55.8153 18.3523 56.0049 18.2829C56.1946 18.2135 56.3992 18.1787 56.6186 18.1787C56.9608 18.1787 57.2156 18.2792 57.3829 18.4803C57.554 18.6776 57.6396 18.9645 57.6396 19.341V20.9364H57.1096L57.0649 20.6404H57.0426C56.9199 20.7427 56.7879 20.8286 56.6465 20.898C56.5089 20.9675 56.3583 21.0022 56.1946 21.0022ZM56.4011 20.5088C56.5126 20.5088 56.613 20.4832 56.7023 20.432C56.7953 20.3808 56.8939 20.3077 56.998 20.2127V19.6096C56.812 19.6316 56.6558 19.6608 56.5294 19.6974C56.4029 19.7339 56.3006 19.776 56.2225 19.8235C56.1444 19.8673 56.0886 19.9185 56.0552 19.977C56.0217 20.0355 56.0049 20.0976 56.0049 20.1634C56.0049 20.284 56.0421 20.3717 56.1165 20.4265C56.1909 20.4814 56.2858 20.5088 56.4011 20.5088Z" fill="#E4E4E4"/>
<path d="M58.4911 20.9364V18.2445H59.1326V20.9364H58.4911ZM58.8146 17.773C58.6993 17.773 58.6045 17.7401 58.5301 17.6743C58.4557 17.6086 58.4185 17.5227 58.4185 17.4167C58.4185 17.3107 58.4557 17.2248 58.5301 17.159C58.6045 17.0895 58.6993 17.0548 58.8146 17.0548C58.9299 17.0548 59.0248 17.0895 59.0992 17.159C59.1735 17.2248 59.2107 17.3107 59.2107 17.4167C59.2107 17.5227 59.1735 17.6086 59.0992 17.6743C59.0248 17.7401 58.9299 17.773 58.8146 17.773Z" fill="#E4E4E4"/>
<path d="M60.6597 21.0022C60.4291 21.0022 60.2673 20.9346 60.1743 20.7993C60.0813 20.6641 60.0348 20.4795 60.0348 20.2456V17.0658H60.6764V20.2785C60.6764 20.3553 60.6913 20.4101 60.7211 20.443C60.7508 20.4722 60.7824 20.4868 60.8159 20.4868C60.8308 20.4868 60.8438 20.4868 60.8549 20.4868C60.8698 20.4868 60.8903 20.4832 60.9163 20.4759L61 20.9474C60.9145 20.9839 60.801 21.0022 60.6597 21.0022Z" fill="#E4E4E4"/>
<path d="M30.9526 3.60024V11.4002H29.6196V5.2794H29.6019L27.2204 11.4002H26.3317L23.8969 5.2794H23.8791V11.4002H22.6528V3.60024H24.5723L26.776 9.378H26.8116L29.1398 3.60024H30.9526ZM32.0545 4.19607C32.0545 3.9794 32.1256 3.79885 32.2855 3.6544C32.4455 3.50996 32.6232 3.43774 32.8365 3.43774C33.0675 3.43774 33.263 3.50996 33.4052 3.6544C33.5473 3.79885 33.6362 3.9794 33.6362 4.19607C33.6362 4.41274 33.5651 4.59329 33.4052 4.73773C33.2452 4.88218 33.0675 4.9544 32.8365 4.9544C32.6054 4.9544 32.4277 4.88218 32.2855 4.73773C32.1433 4.57524 32.0545 4.39468 32.0545 4.19607ZM33.494 5.80301V11.4002H32.1966V5.80301H33.494ZM37.4217 10.4433C37.6172 10.4433 37.8305 10.4072 38.0616 10.2988C38.2926 10.2086 38.5059 10.0822 38.7014 9.93772V11.1655C38.4881 11.2919 38.2571 11.3822 37.9905 11.4363C37.7239 11.4905 37.4395 11.5266 37.1196 11.5266C36.3021 11.5266 35.6445 11.2738 35.1469 10.7502C34.6315 10.2266 34.3827 9.55856 34.3827 8.76411C34.3827 7.86134 34.6492 7.12106 35.1646 6.54329C35.68 5.96551 36.4087 5.67662 37.3684 5.67662C37.6172 5.67662 37.8661 5.71273 38.0971 5.7669C38.3459 5.82107 38.5414 5.91134 38.6836 5.98357V7.24745C38.4881 7.10301 38.2748 6.97662 38.0793 6.9044C37.8661 6.83217 37.6528 6.77801 37.4395 6.77801C36.9241 6.77801 36.5154 6.94051 36.1954 7.28356C35.8755 7.62662 35.7334 8.078 35.7334 8.65578C35.7334 9.2155 35.8933 9.66689 36.1954 9.97383C36.4976 10.2808 36.9063 10.4433 37.4217 10.4433ZM42.3803 5.71273C42.4869 5.71273 42.5758 5.71273 42.6646 5.73079C42.7535 5.74884 42.8246 5.7669 42.8779 5.78495V7.12106C42.8068 7.0669 42.7179 7.01273 42.5758 6.97662C42.4336 6.94051 42.2914 6.9044 42.0959 6.9044C41.776 6.9044 41.5094 7.04884 41.2961 7.31967C41.0829 7.59051 40.9585 8.00578 40.9585 8.58356V11.4002H39.6611V5.80301H40.9585V6.68773H40.9762C41.1006 6.38079 41.2784 6.14606 41.5094 5.96551C41.7582 5.80301 42.0426 5.71273 42.3803 5.71273ZM42.949 8.69189C42.949 7.77106 43.2156 7.03079 43.7132 6.48912C44.2286 5.94745 44.9395 5.67662 45.8459 5.67662C46.699 5.67662 47.3743 5.9294 47.8542 6.45301C48.334 6.97662 48.5829 7.68078 48.5829 8.5655C48.5829 9.46828 48.3163 10.1905 47.8186 10.7322C47.3032 11.2738 46.6101 11.5447 45.7215 11.5447C44.8684 11.5447 44.1931 11.2919 43.6954 10.7863C43.1978 10.2627 42.949 9.55856 42.949 8.69189ZM44.2997 8.63773C44.2997 9.2155 44.4241 9.66689 44.6907 9.97383C44.9573 10.2808 45.3305 10.4433 45.8103 10.4433C46.2724 10.4433 46.6457 10.2988 46.8945 9.97383C47.1433 9.66689 47.2677 9.2155 47.2677 8.60161C47.2677 8.00578 47.1433 7.55439 46.8945 7.2294C46.6457 6.92245 46.2724 6.75995 45.8281 6.75995C45.3483 6.75995 44.9928 6.92245 44.7262 7.24745C44.4241 7.59051 44.2997 8.04189 44.2997 8.63773ZM50.5201 7.28356C50.5201 7.46412 50.5734 7.62662 50.6978 7.73495C50.8222 7.84328 51.071 7.96967 51.4798 8.13217C51.9952 8.34884 52.3684 8.58356 52.5639 8.83634C52.7772 9.10717 52.8838 9.41411 52.8838 9.79328C52.8838 10.3169 52.6883 10.7322 52.2795 11.0572C51.8885 11.3822 51.3376 11.5266 50.6622 11.5266C50.4312 11.5266 50.1824 11.4905 49.898 11.4363C49.6137 11.3822 49.3826 11.3099 49.1871 11.2197V9.91967C49.4182 10.0822 49.6847 10.2266 49.9513 10.3169C50.2179 10.4072 50.4667 10.4613 50.6978 10.4613C50.9821 10.4613 51.2132 10.4252 51.3376 10.3349C51.4798 10.2447 51.5508 10.1183 51.5508 9.91967C51.5508 9.73911 51.4798 9.59467 51.3376 9.45022C51.1954 9.32383 50.911 9.17939 50.5201 9.01689C50.0402 8.81828 49.7025 8.58356 49.507 8.33078C49.3115 8.078 49.2049 7.75301 49.2049 7.35578C49.2049 6.85023 49.4004 6.43495 49.7914 6.10995C50.1824 5.78495 50.6978 5.62245 51.3198 5.62245C51.5153 5.62245 51.7286 5.64051 51.9596 5.69468C52.1907 5.74884 52.4039 5.80301 52.5639 5.85718V7.13912C52.3862 7.03078 52.1907 6.92245 51.9596 6.83217C51.7286 6.7419 51.4975 6.70579 51.2843 6.70579C51.0355 6.70579 50.84 6.75995 50.7155 6.85023C50.5911 6.97662 50.5201 7.10301 50.5201 7.28356ZM53.4347 8.69189C53.4347 7.77106 53.7013 7.03079 54.199 6.48912C54.7144 5.94745 55.4253 5.67662 56.3316 5.67662C57.1847 5.67662 57.8601 5.9294 58.3399 6.45301C58.8198 6.97662 59.0686 7.68078 59.0686 8.5655C59.0686 9.46828 58.802 10.1905 58.3044 10.7322C57.789 11.2738 57.0959 11.5447 56.2072 11.5447C55.3542 11.5447 54.6788 11.2919 54.1812 10.7863C53.7013 10.2627 53.4347 9.55856 53.4347 8.69189ZM54.7854 8.63773C54.7854 9.2155 54.9099 9.66689 55.1764 9.97383C55.443 10.2808 55.8162 10.4433 56.2961 10.4433C56.7582 10.4433 57.1314 10.2988 57.3802 9.97383C57.629 9.66689 57.7534 9.2155 57.7534 8.60161C57.7534 8.00578 57.629 7.55439 57.3802 7.2294C57.1314 6.92245 56.7582 6.75995 56.3139 6.75995C55.834 6.75995 55.4786 6.92245 55.212 7.24745C54.9276 7.59051 54.7854 8.04189 54.7854 8.63773ZM63.3873 6.88634H61.4501V11.4002H60.135V6.88634H59.2108V5.80301H60.135V5.02662C60.135 4.44885 60.3304 3.96135 60.7037 3.58218C61.0769 3.20302 61.5567 3.02246 62.1432 3.02246C62.3032 3.02246 62.4454 3.04052 62.5698 3.04052C62.6942 3.04052 62.8008 3.07663 62.8897 3.11274V4.25024C62.8541 4.23218 62.7653 4.19607 62.6586 4.15996C62.552 4.12385 62.4276 4.10579 62.2854 4.10579C62.0188 4.10579 61.8056 4.19607 61.6634 4.35857C61.5212 4.52107 61.4501 4.7919 61.4501 5.1169V5.78495H63.3873V4.52107L64.6847 4.12385V5.78495H65.9999V6.86829H64.6847V9.48633C64.6847 9.82939 64.7558 10.0641 64.8624 10.2086C64.9868 10.353 65.1823 10.4252 65.4489 10.4252C65.52 10.4252 65.6089 10.4072 65.7155 10.3711C65.8221 10.3349 65.911 10.2988 65.9821 10.2447V11.328C65.8932 11.3822 65.7688 11.4183 65.5733 11.4544C65.3778 11.4905 65.2001 11.5086 65.0046 11.5086C64.4537 11.5086 64.0449 11.3641 63.7783 11.0752C63.5117 10.7863 63.3695 10.3349 63.3695 9.73911L63.3873 6.88634Z" fill="#E4E4E4"/>
<path d="M12.0782 1H6V7.17499H12.0782V1Z" fill="#F25022"/>
<path d="M18.796 1H12.7178V7.17499H18.796V1Z" fill="#7FBA00"/>
<path d="M12.0782 7.8252H6V14.0002H12.0782V7.8252Z" fill="#00A4EF"/>
<path d="M18.796 7.8252H12.7178V14.0002H18.796V7.8252Z" fill="#FFB900"/>
</svg>
