<svg width="72" height="24" viewBox="0 0 72 24" fill="none" xmlns="http://www.w3.org/2000/svg">
    <path d="M9.74827 21.0103C10.6293 21.0103 11.4458 20.4769 11.4504 19.1692C11.4504 19.041 11.4458 18.9692 11.4412 18.8974H9.61911V19.4462H10.8553C10.8323 20.0615 10.4033 20.4205 9.77594 20.4205C9.01944 20.4205 8.60889 19.8872 8.60889 19.1692C8.60889 18.3949 9.05634 17.8513 9.82668 17.8513C10.3249 17.8513 10.7123 18.0615 11.0583 18.3436H11.0629V17.6769C10.7769 17.4256 10.3203 17.2564 9.8313 17.2564C8.66886 17.2564 8 18.1385 8 19.1744C8 20.2051 8.63657 21.0103 9.74827 21.0103Z" fill="#737276"/>
    <path d="M12.1664 20.9231H12.7291V19.1949C12.8491 18.8872 13.112 18.7333 13.4487 18.7333C13.4902 18.7333 13.5225 18.7333 13.5687 18.7436V18.1179C13.5225 18.1128 13.4995 18.1128 13.4764 18.1128C13.1858 18.1128 12.9136 18.3231 12.7199 18.7436V18.1744H12.1664V20.9231Z" fill="#737276"/>
    <path d="M14.7878 21C15.1661 21 15.4521 20.8308 15.6781 20.5538L15.6919 20.9231H16.2132V19.1795C16.2132 18.5077 15.8903 18.0974 15.203 18.0974C14.8524 18.0974 14.4972 18.2 14.1513 18.4359V19.0308H14.1559C14.4649 18.7795 14.8017 18.6359 15.1292 18.6359C15.4936 18.6359 15.6504 18.8308 15.6504 19.1538V19.2564C14.7094 19.3077 14.3081 19.5231 14.1466 19.7077C14.0313 19.8359 13.9483 20.0154 13.9483 20.2462C13.9483 20.6769 14.2343 21 14.7878 21ZM14.9124 20.5333C14.6587 20.5333 14.5018 20.4 14.5018 20.1949C14.5018 20.1128 14.5295 20.0256 14.5895 19.959C14.7279 19.8051 15.0277 19.7077 15.6504 19.6564V20.1795C15.4936 20.3641 15.2214 20.5333 14.9124 20.5333Z" fill="#737276"/>
    <path d="M17.0572 21.9179H17.62V20.8103C17.7999 20.9282 17.9983 21 18.275 21C19.0315 21 19.6127 20.3641 19.6127 19.5026C19.6127 18.6051 19.0961 18.0974 18.4734 18.0974C18.0813 18.0974 17.7953 18.3026 17.6108 18.5385L17.6062 18.1744H17.0572V21.9179ZM18.2289 20.4667C17.9798 20.4667 17.7953 20.3744 17.62 20.2154V18.9385C17.7814 18.7692 18.0305 18.6308 18.2889 18.6308C18.7179 18.6308 19.0454 18.9282 19.0454 19.5385C19.0454 20.0872 18.7271 20.4667 18.2289 20.4667Z" fill="#737276"/>
    <path d="M20.3338 20.9231H20.8966V19.0667C21.0949 18.841 21.3302 18.6513 21.6254 18.6513C21.9022 18.6513 22.1143 18.7897 22.1143 19.2462V20.9231H22.6771V19.1179C22.6771 18.4205 22.3311 18.0974 21.8191 18.0974C21.4132 18.0974 21.1272 18.3333 20.8873 18.6256V17.0564H20.3338V20.9231Z" fill="#737276"/>
    <path d="M24.9613 20.9231H25.5379V18.359H25.5702L26.7695 20.6821H26.8156L28.0242 18.359H28.0565V20.9231H28.6423V17.3333H27.9273L26.8064 19.5538L25.6624 17.3333H24.9613V20.9231Z" fill="#737276"/>
    <path d="M30.3102 21C30.6885 21 30.9745 20.8308 31.2005 20.5538L31.2143 20.9231H31.7356V19.1795C31.7356 18.5077 31.4127 18.0974 30.7254 18.0974C30.3748 18.0974 30.0196 18.2 29.6736 18.4359V19.0308H29.6782C29.9873 18.7795 30.324 18.6359 30.6516 18.6359C31.016 18.6359 31.1728 18.8308 31.1728 19.1538V19.2564C30.2318 19.3077 29.8305 19.5231 29.669 19.7077C29.5537 19.8359 29.4707 20.0154 29.4707 20.2462C29.4707 20.6769 29.7567 21 30.3102 21ZM30.4347 20.5333C30.181 20.5333 30.0242 20.4 30.0242 20.1949C30.0242 20.1128 30.0519 20.0256 30.1119 19.959C30.2502 19.8051 30.5501 19.7077 31.1728 19.6564V20.1795C31.016 20.3641 30.7438 20.5333 30.4347 20.5333Z" fill="#737276"/>
    <path d="M32.8748 17.7487C33.1009 17.7487 33.2392 17.5744 33.2392 17.3744V17.3692C33.2392 17.1692 33.1009 17 32.8702 17C32.6396 17 32.5012 17.1692 32.5012 17.3692V17.3744C32.5012 17.5744 32.6396 17.7487 32.8748 17.7487ZM32.5888 20.9231H33.1516V18.1744H32.5888V20.9231Z" fill="#737276"/>
    <path d="M34.0545 20.9231H34.6173V17.0564H34.0545V20.9231Z" fill="#737276"/>
    <path d="M38.2484 21.0051C39.3693 21.0051 39.6322 20.3436 39.6322 19.8821C39.6322 19.1538 39.051 18.9641 38.4052 18.8359C37.824 18.7128 37.4457 18.6513 37.4457 18.3179C37.4457 18.041 37.6902 17.8513 38.1884 17.8513C38.6082 17.8513 39.0741 18 39.4477 18.2667H39.4523V17.5949C39.1063 17.3744 38.6451 17.2513 38.2345 17.2513C37.2797 17.2513 36.8276 17.7897 36.8276 18.3846C36.8276 19.0564 37.3996 19.2564 38.0408 19.3846C38.8111 19.5333 39.0141 19.6308 39.0141 19.9231C39.0141 20.2205 38.7512 20.4051 38.253 20.4051C37.7871 20.4051 37.2566 20.2359 36.8045 19.9538H36.7999V20.6256C37.1782 20.841 37.6441 21.0051 38.2484 21.0051Z" fill="#737276"/>
    <path d="M40.6385 17.7487C40.8645 17.7487 41.0029 17.5744 41.0029 17.3744V17.3692C41.0029 17.1692 40.8645 17 40.6338 17C40.4032 17 40.2648 17.1692 40.2648 17.3692V17.3744C40.2648 17.5744 40.4032 17.7487 40.6385 17.7487ZM40.3525 20.9231H40.9152V18.1744H40.3525V20.9231Z" fill="#737276"/>
    <path d="M41.8089 20.9231H42.3717V19.0667C42.57 18.841 42.8053 18.6513 43.1005 18.6513C43.3773 18.6513 43.5894 18.7897 43.5894 19.2462V20.9231H44.1522V19.1179C44.1522 18.4205 43.8062 18.0974 43.2942 18.0974C42.8883 18.0974 42.6023 18.3333 42.3624 18.6256V18.1744H41.8089V20.9231Z" fill="#737276"/>
    <path d="M46.0054 20.0462C46.748 20.0462 47.117 19.5846 47.117 19.0718C47.117 18.7795 46.9925 18.5179 46.7803 18.3487L47.2877 17.6821V17.6769H46.6696L46.4113 18.1538C46.296 18.1179 46.1714 18.0974 46.0146 18.0974C45.2581 18.0974 44.889 18.5846 44.889 19.0974C44.889 19.4359 45.0413 19.7538 45.3918 19.9231L45.2581 20.6513C44.866 20.8359 44.746 21.0821 44.746 21.2974C44.746 21.7128 45.1797 22 46.033 22C46.9787 22 47.3431 21.5692 47.3431 21.2C47.3431 20.7179 46.8587 20.4718 45.7147 20.3795L45.7701 20.0308C45.8439 20.041 45.9223 20.0462 46.0054 20.0462ZM46.0054 19.6C45.664 19.6 45.4287 19.4154 45.4287 19.0821C45.4287 18.759 45.6686 18.5436 46.0146 18.5436C46.3513 18.5436 46.5866 18.7487 46.5866 19.0667C46.5866 19.4051 46.3421 19.6 46.0054 19.6ZM46.0792 21.559C45.604 21.559 45.2119 21.4256 45.2119 21.1692C45.2119 21.0462 45.2858 20.9436 45.4564 20.8359C46.3836 20.8821 46.8264 21.0205 46.8264 21.241C46.8264 21.4154 46.5543 21.559 46.0792 21.559Z" fill="#737276"/>
    <path d="M47.9162 20.9231H48.479V17.0564H47.9162V20.9231Z" fill="#737276"/>
    <path d="M50.5213 18.0974C49.7233 18.0974 49.2112 18.7487 49.2112 19.6103C49.2112 20.4051 49.6679 21 50.6043 21C51.0102 21 51.347 20.8615 51.5684 20.7128V20.1538H51.5638C51.2778 20.3538 50.9872 20.4718 50.6228 20.4718C50.12 20.4718 49.8247 20.2 49.774 19.7231H51.6976C51.7068 19.6564 51.7114 19.5846 51.7114 19.5179C51.7114 18.7333 51.3378 18.0974 50.5213 18.0974ZM50.5074 18.6103C50.9226 18.6103 51.1486 18.8974 51.1763 19.2974H49.7925C49.8709 18.8718 50.1292 18.6103 50.5074 18.6103Z" fill="#737276"/>
    <path d="M55.3321 21.0051C56.1993 21.0051 56.859 20.6051 56.859 19.5231V17.3333H56.2685V19.5333C56.2685 20.1846 55.8441 20.4 55.3413 20.4C54.8385 20.4 54.4142 20.1795 54.4142 19.5128V17.3333H53.8237V19.5436C53.8237 20.6051 54.4649 21.0051 55.3321 21.0051Z" fill="#737276"/>
    <path d="M58.7934 21C59.6283 21 59.8451 20.5179 59.8451 20.1436C59.8451 19.6872 59.6098 19.4615 58.964 19.3026C58.4105 19.1641 58.2767 19.0974 58.2767 18.9128C58.2767 18.7333 58.4197 18.6103 58.7011 18.6103C58.9963 18.6103 59.3838 18.7385 59.6929 18.9333H59.6975V18.3641C59.4945 18.2359 59.1209 18.0974 58.7472 18.0974C58.083 18.0974 57.7232 18.4872 57.7232 18.9641C57.7232 19.4308 58.0092 19.6256 58.6135 19.7641C59.1993 19.9026 59.2915 19.9795 59.2915 20.1641C59.2915 20.359 59.1485 20.4821 58.8164 20.4821C58.4382 20.4821 58.0322 20.3436 57.714 20.1128H57.7093V20.6821C58.0553 20.8974 58.4336 21 58.7934 21Z" fill="#737276"/>
    <path d="M61.695 18.0974C60.897 18.0974 60.3849 18.7487 60.3849 19.6103C60.3849 20.4051 60.8416 21 61.778 21C62.1839 21 62.5207 20.8615 62.7421 20.7128V20.1538H62.7375C62.4515 20.3538 62.1609 20.4718 61.7965 20.4718C61.2937 20.4718 60.9984 20.2 60.9477 19.7231H62.8713C62.8805 19.6564 62.8851 19.5846 62.8851 19.5179C62.8851 18.7333 62.5114 18.0974 61.695 18.0974ZM61.6811 18.6103C62.0963 18.6103 62.3223 18.8974 62.35 19.2974H60.9661C61.0446 18.8718 61.3029 18.6103 61.6811 18.6103Z" fill="#737276"/>
    <path d="M63.5977 20.9231H64.1605V19.1949C64.2804 18.8872 64.5433 18.7333 64.8801 18.7333C64.9216 18.7333 64.9539 18.7333 65 18.7436V18.1179C64.9539 18.1128 64.9308 18.1128 64.9077 18.1128C64.6171 18.1128 64.345 18.3231 64.1512 18.7436V18.1744H63.5977V20.9231Z" fill="#737276"/>
    <path d="M30.9526 3.59993V11.3999H29.6196V5.2791H29.6019L27.2204 11.3999H26.3317L23.8969 5.2791H23.8791V11.3999H22.6528V3.59993H24.5723L26.776 9.3777H26.8116L29.1398 3.59993H30.9526ZM32.0545 4.19576C32.0545 3.9791 32.1256 3.79854 32.2855 3.6541C32.4455 3.50965 32.6232 3.43743 32.8365 3.43743C33.0675 3.43743 33.263 3.50965 33.4052 3.6541C33.5473 3.79854 33.6362 3.9791 33.6362 4.19576C33.6362 4.41243 33.5651 4.59299 33.4052 4.73743C33.2452 4.88187 33.0675 4.9541 32.8365 4.9541C32.6054 4.9541 32.4277 4.88187 32.2855 4.73743C32.1433 4.57493 32.0545 4.39437 32.0545 4.19576ZM33.494 5.80271V11.3999H32.1966V5.80271H33.494ZM37.4217 10.443C37.6172 10.443 37.8305 10.4069 38.0616 10.2985C38.2926 10.2083 38.5059 10.0819 38.7014 9.93742V11.1652C38.4881 11.2916 38.2571 11.3819 37.9905 11.436C37.7239 11.4902 37.4395 11.5263 37.1196 11.5263C36.3021 11.5263 35.6445 11.2735 35.1469 10.7499C34.6315 10.2263 34.3827 9.55825 34.3827 8.76381C34.3827 7.86103 34.6492 7.12076 35.1646 6.54298C35.68 5.9652 36.4087 5.67632 37.3684 5.67632C37.6172 5.67632 37.8661 5.71243 38.0971 5.76659C38.3459 5.82076 38.5414 5.91104 38.6836 5.98326V7.24715C38.4881 7.1027 38.2748 6.97631 38.0793 6.90409C37.8661 6.83187 37.6528 6.7777 37.4395 6.7777C36.9241 6.7777 36.5154 6.9402 36.1954 7.28326C35.8755 7.62631 35.7334 8.0777 35.7334 8.65548C35.7334 9.2152 35.8933 9.66658 36.1954 9.97353C36.4976 10.2805 36.9063 10.443 37.4217 10.443ZM42.3803 5.71243C42.4869 5.71243 42.5758 5.71243 42.6646 5.73048C42.7535 5.74854 42.8246 5.76659 42.8779 5.78465V7.12076C42.8068 7.06659 42.7179 7.01242 42.5758 6.97631C42.4336 6.9402 42.2914 6.90409 42.0959 6.90409C41.776 6.90409 41.5094 7.04854 41.2961 7.31937C41.0829 7.5902 40.9585 8.00548 40.9585 8.58325V11.3999H39.6611V5.80271H40.9585V6.68742H40.9762C41.1006 6.38048 41.2784 6.14576 41.5094 5.9652C41.7582 5.8027 42.0426 5.71243 42.3803 5.71243ZM42.949 8.69159C42.949 7.77076 43.2156 7.03048 43.7132 6.48881C44.2286 5.94715 44.9395 5.67632 45.8459 5.67632C46.699 5.67632 47.3743 5.92909 47.8542 6.4527C48.334 6.97631 48.5829 7.68048 48.5829 8.5652C48.5829 9.46797 48.3163 10.1902 47.8186 10.7319C47.3032 11.2735 46.6101 11.5444 45.7215 11.5444C44.8684 11.5444 44.1931 11.2916 43.6954 10.786C43.1978 10.2624 42.949 9.55825 42.949 8.69159ZM44.2997 8.63742C44.2997 9.2152 44.4241 9.66658 44.6907 9.97353C44.9573 10.2805 45.3305 10.443 45.8103 10.443C46.2724 10.443 46.6457 10.2985 46.8945 9.97353C47.1433 9.66658 47.2677 9.2152 47.2677 8.60131C47.2677 8.00548 47.1433 7.55409 46.8945 7.22909C46.6457 6.92215 46.2724 6.75965 45.8281 6.75965C45.3483 6.75965 44.9928 6.92215 44.7262 7.24715C44.4241 7.5902 44.2997 8.04159 44.2997 8.63742ZM50.5201 7.28326C50.5201 7.46381 50.5734 7.62631 50.6978 7.73464C50.8222 7.84298 51.071 7.96937 51.4798 8.13187C51.9952 8.34853 52.3684 8.58325 52.5639 8.83603C52.7772 9.10686 52.8838 9.41381 52.8838 9.79297C52.8838 10.3166 52.6883 10.7319 52.2795 11.0569C51.8885 11.3819 51.3376 11.5263 50.6622 11.5263C50.4312 11.5263 50.1824 11.4902 49.898 11.436C49.6137 11.3819 49.3826 11.3096 49.1871 11.2194V9.91936C49.4182 10.0819 49.6847 10.2263 49.9513 10.3166C50.2179 10.4069 50.4667 10.461 50.6978 10.461C50.9821 10.461 51.2132 10.4249 51.3376 10.3346C51.4798 10.2444 51.5508 10.118 51.5508 9.91936C51.5508 9.73881 51.4798 9.59436 51.3376 9.44992C51.1954 9.32353 50.911 9.17909 50.5201 9.01659C50.0402 8.81798 49.7025 8.58325 49.507 8.33048C49.3115 8.0777 49.2049 7.7527 49.2049 7.35548C49.2049 6.84992 49.4004 6.43465 49.7914 6.10965C50.1824 5.78465 50.6978 5.62215 51.3198 5.62215C51.5153 5.62215 51.7286 5.64021 51.9596 5.69437C52.1907 5.74854 52.4039 5.8027 52.5639 5.85687V7.13881C52.3862 7.03048 52.1907 6.92215 51.9596 6.83187C51.7286 6.74159 51.4975 6.70548 51.2843 6.70548C51.0355 6.70548 50.84 6.75965 50.7155 6.84992C50.5911 6.97631 50.5201 7.1027 50.5201 7.28326ZM53.4347 8.69159C53.4347 7.77076 53.7013 7.03048 54.199 6.48881C54.7144 5.94715 55.4253 5.67632 56.3316 5.67632C57.1847 5.67632 57.8601 5.92909 58.3399 6.4527C58.8198 6.97631 59.0686 7.68048 59.0686 8.5652C59.0686 9.46797 58.802 10.1902 58.3044 10.7319C57.789 11.2735 57.0959 11.5444 56.2072 11.5444C55.3542 11.5444 54.6788 11.2916 54.1812 10.786C53.7013 10.2624 53.4347 9.55825 53.4347 8.69159ZM54.7854 8.63742C54.7854 9.2152 54.9099 9.66658 55.1764 9.97353C55.443 10.2805 55.8162 10.443 56.2961 10.443C56.7582 10.443 57.1314 10.2985 57.3802 9.97353C57.629 9.66658 57.7534 9.2152 57.7534 8.60131C57.7534 8.00548 57.629 7.55409 57.3802 7.22909C57.1314 6.92215 56.7582 6.75965 56.3139 6.75965C55.834 6.75965 55.4786 6.92215 55.212 7.24715C54.9276 7.5902 54.7854 8.04159 54.7854 8.63742ZM63.3873 6.88604H61.4501V11.3999H60.135V6.88604H59.2108V5.80271H60.135V5.02632C60.135 4.44854 60.3304 3.96104 60.7037 3.58188C61.0769 3.20271 61.5567 3.02216 62.1432 3.02216C62.3032 3.02216 62.4454 3.04021 62.5698 3.04021C62.6942 3.04021 62.8008 3.07632 62.8897 3.11243V4.24993C62.8541 4.23188 62.7653 4.19576 62.6586 4.15965C62.552 4.12354 62.4276 4.10549 62.2854 4.10549C62.0188 4.10549 61.8056 4.19576 61.6634 4.35826C61.5212 4.52076 61.4501 4.7916 61.4501 5.1166V5.78465H63.3873V4.52076L64.6847 4.12354V5.78465H65.9999V6.86798H64.6847V9.48603C64.6847 9.82908 64.7558 10.0638 64.8624 10.2083C64.9868 10.3527 65.1823 10.4249 65.4489 10.4249C65.52 10.4249 65.6089 10.4069 65.7155 10.3707C65.8221 10.3346 65.911 10.2985 65.9821 10.2444V11.3277C65.8932 11.3819 65.7688 11.418 65.5733 11.4541C65.3778 11.4902 65.2001 11.5082 65.0046 11.5082C64.4537 11.5082 64.0449 11.3638 63.7783 11.0749C63.5117 10.786 63.3695 10.3346 63.3695 9.73881L63.3873 6.88604Z" fill="#737373"/>
    <path d="M12.0782 1H6V7.17499H12.0782V1Z" fill="#F25022"/>
    <path d="M18.796 1H12.7178V7.17499H18.796V1Z" fill="#7FBA00"/>
    <path d="M12.0782 7.82501H6V14H12.0782V7.82501Z" fill="#00A4EF"/>
    <path d="M18.796 7.82501H12.7178V14H18.796V7.82501Z" fill="#FFB900"/>
</svg>
