<svg width="61" height="21" viewBox="0 0 61 21" fill="none" xmlns="http://www.w3.org/2000/svg">
    <g clip-path="url(#clip0_2521_751)">
        <path d="M20.191 6.97724C20.3232 6.07122 21.0755 4.98815 22.5598 4.98815C23.912 4.98815 24.705 5.9879 24.7965 6.97724H20.191ZM18.3305 7.67499C18.3305 10.1431 20.0588 11.7885 22.5903 11.7885C23.2298 11.7937 23.8627 11.6567 24.4454 11.387C25.0281 11.1173 25.5468 10.7213 25.9657 10.2264C25.9959 10.1936 26.016 10.1523 26.0232 10.1078C26.0305 10.0633 26.0246 10.0176 26.0063 9.97649L25.9657 9.93484L25.0812 9.07047C25.0379 9.03498 24.9841 9.01564 24.9287 9.01564C24.8732 9.01564 24.8194 9.03498 24.7762 9.07047C24.3085 9.49745 23.6273 10.1119 22.5395 10.1119C21.2788 10.1119 20.3943 9.34124 20.1707 8.34149H26.3317C26.397 8.3419 26.4609 8.32229 26.5153 8.28517C26.5696 8.24806 26.6119 8.19513 26.6367 8.1332V7.70623C26.6367 5.37347 25.1625 3.42604 22.6208 3.42604C19.9267 3.42604 18.3305 5.34223 18.3305 7.67499ZM27.7855 11.4345C27.7855 11.5074 27.8262 11.6427 27.9583 11.6427H29.3207C29.3918 11.6427 29.524 11.6011 29.524 11.4657V0.176844C29.5253 0.153239 29.5218 0.129612 29.5136 0.107516C29.5053 0.0854203 29.4927 0.0653543 29.4763 0.0486352C29.46 0.031916 29.4404 0.0189228 29.4188 0.0105072C29.3973 0.00209154 29.3742 -0.00155608 29.3512 -0.000195145H27.9583C27.9348 -0.00391813 27.9107 -0.00190868 27.8881 0.00567168C27.8655 0.013252 27.8449 0.0261898 27.8281 0.0434342C27.8113 0.0606786 27.7986 0.0817453 27.7912 0.104925C27.7838 0.128104 27.7819 0.152743 27.7855 0.176844V11.4345ZM15.5753 11.4345C15.5753 11.5074 15.616 11.6427 15.7482 11.6427H17.1105C17.1817 11.6427 17.3138 11.6011 17.3138 11.4657V6.92517C17.3138 5.01939 16.226 3.41562 13.847 3.41562H13.8063C12.6575 3.41562 11.773 3.80095 11.2647 4.27999V3.85302C11.2647 3.71763 11.1935 3.64473 11.0918 3.64473H9.77017C9.699 3.64473 9.56683 3.68639 9.56683 3.82177V11.4865C9.56683 11.5594 9.6075 11.6948 9.73967 11.6948H11.1223C11.1935 11.6948 11.3257 11.6532 11.3257 11.5178V7.22718C11.3257 5.93583 12.0068 4.93608 13.5318 4.93608C15.0568 4.93608 15.6465 5.88376 15.6465 7.21676L15.5753 11.4345ZM40.5345 13.8089C41.114 14.5379 42.395 15.4126 44.2047 15.4126C46.6955 15.4126 48.2205 13.8505 48.2205 11.3407V3.87385C48.2205 3.80095 48.1798 3.66556 48.0477 3.66556H46.7463C46.6752 3.66556 46.543 3.70722 46.543 3.8426V4.31123C45.994 3.83219 45.2823 3.44687 44.0928 3.44687C41.8562 3.44687 39.8737 5.12353 39.8737 7.63333C39.8737 10.1431 41.7748 11.8198 44.0928 11.8198C44.9626 11.8146 45.8075 11.5225 46.5023 10.9867V11.5074C46.5023 12.9341 45.689 13.8401 44.1843 13.8401C42.9643 13.8401 42.1103 13.1424 41.602 12.6217C41.553 12.586 41.4944 12.5669 41.4343 12.5669C41.3741 12.5669 41.3155 12.586 41.2665 12.6217L40.5548 13.486C40.5122 13.5273 40.4865 13.5835 40.4827 13.6434C40.4789 13.7033 40.4974 13.7624 40.5345 13.8089ZM6.66933 7.63333C6.66933 9.06006 5.612 10.1848 4.25983 10.1848C2.867 10.1848 1.891 8.96633 1.891 7.63333V7.5396C1.891 6.18577 2.867 5.07146 4.25983 5.07146C5.612 5.02981 6.66933 6.2066 6.66933 7.63333ZM0 7.63333C0 9.92442 1.80967 11.8198 4.21917 11.8198C6.66933 11.8198 8.43833 9.91401 8.43833 7.63333V7.5396C8.43833 5.2485 6.62867 3.42604 4.21917 3.42604C1.80967 3.42604 0 5.23809 0 7.63333ZM37.1998 7.63333C37.1998 9.06006 36.1425 10.1848 34.7903 10.1848C33.4382 10.1848 32.4215 8.96633 32.4215 7.63333V7.5396C32.4215 6.18577 33.3975 5.07146 34.7903 5.07146C36.1832 5.02981 37.1998 6.2066 37.1998 7.63333ZM30.5407 7.63333C30.5407 9.92442 32.3503 11.8198 34.7598 11.8198C37.1693 11.8198 38.979 9.91401 38.979 7.63333V7.5396C38.979 5.2485 37.1693 3.42604 34.7598 3.42604C32.3503 3.42604 30.5407 5.23809 30.5407 7.63333ZM49.8777 11.4345C49.8777 11.5074 49.9183 11.6427 50.0505 11.6427H51.4128C51.484 11.6427 51.6162 11.6011 51.6162 11.4657V3.80095C51.6175 3.77734 51.6139 3.75371 51.6057 3.73162C51.5975 3.70952 51.5848 3.68946 51.5685 3.67274C51.5522 3.65602 51.5326 3.64302 51.511 3.63461C51.4894 3.62619 51.4664 3.62254 51.4433 3.6239H50.0505C50.027 3.62018 50.0029 3.62219 49.9803 3.62977C49.9577 3.63736 49.9371 3.65029 49.9203 3.66753C49.9034 3.68478 49.8908 3.70585 49.8834 3.72902C49.876 3.7522 49.874 3.77684 49.8777 3.80095V11.4345ZM49.8777 1.61399C49.8777 1.68689 49.9183 1.82227 50.0505 1.82227H51.4128C51.484 1.82227 51.6162 1.78061 51.6162 1.64523V0.187259C51.6175 0.163653 51.6139 0.140027 51.6057 0.117931C51.5975 0.095835 51.5848 0.075769 51.5685 0.0590499C51.5522 0.0423308 51.5326 0.029336 51.511 0.0209203C51.4894 0.0125047 51.4664 0.00885864 51.4433 0.0102196H50.0505C50.027 0.00649659 50.0029 0.00850604 49.9803 0.0160864C49.9577 0.0236668 49.9371 0.0366045 49.9203 0.0538489C49.9034 0.0710933 49.8908 0.0921585 49.8834 0.115338C49.876 0.138517 49.874 0.163157 49.8777 0.187259V1.61399ZM59.2615 11.4345C59.2615 11.5074 59.3022 11.6427 59.4343 11.6427H60.7967C60.8678 11.6427 61 11.6011 61 11.4657V6.92517C61 5.01939 59.9122 3.41562 57.5332 3.41562H57.4925C56.3437 3.41562 55.4592 3.80095 54.9508 4.27999V3.85302C54.9508 3.71763 54.8797 3.64473 54.778 3.64473H53.4563C53.3852 3.64473 53.253 3.68639 53.253 3.82177V11.4865C53.253 11.5594 53.2937 11.6948 53.4258 11.6948H54.7882C54.8593 11.6948 54.9915 11.6532 54.9915 11.5178V7.22718C54.9915 5.93583 55.6727 4.93608 57.1977 4.93608C58.7227 4.93608 59.3123 5.88376 59.3123 7.22718L59.2615 11.4345ZM46.543 7.63333C46.543 9.06006 45.4857 10.1848 44.1335 10.1848C42.7407 10.1848 41.7647 8.96633 41.7647 7.63333V7.5396C41.7647 6.18577 42.7407 5.07146 44.1335 5.07146C45.4958 5.02981 46.543 6.2066 46.543 7.63333Z" fill="#1C1F2A"/>
        <path d="M25.0508 16.8396H25.3659V18.058C25.4488 17.9383 25.5586 17.8409 25.686 17.7738C25.8134 17.7067 25.9547 17.6721 26.0979 17.6727C26.6673 17.6727 27.074 18.1309 27.074 18.8495C27.074 19.5681 26.6571 20.0263 26.0979 20.0263C25.9555 20.0226 25.8157 19.9861 25.6889 19.9194C25.5622 19.8527 25.4518 19.7575 25.3659 19.641V19.9638H25.0508V16.8396ZM26.0369 19.6722C26.4843 19.6722 26.7384 19.2869 26.7384 18.787C26.7384 18.2871 26.4944 17.9018 26.0369 17.9018C25.9045 17.906 25.775 17.9433 25.6599 18.0105C25.5447 18.0777 25.4473 18.1726 25.3761 18.2871V19.2869C25.4476 19.4011 25.5451 19.4958 25.6602 19.5629C25.7753 19.63 25.9046 19.6675 26.0369 19.6722ZM27.8059 20.5262C27.9788 20.5262 28.0499 20.4845 28.1211 20.2762L28.294 19.9534L27.3891 17.6935H27.7653L28.4973 19.5264L29.2293 17.6935H29.6054L28.4973 20.4116C28.4488 20.5499 28.3587 20.6689 28.2399 20.7512C28.1211 20.8336 27.9798 20.8751 27.8365 20.8698C27.7653 20.8698 27.6331 20.8698 27.5924 20.8282L27.6331 20.5053C27.6331 20.5262 27.7144 20.5262 27.8059 20.5262ZM42.4053 16.9125C42.4065 16.8935 42.4144 16.8757 42.4275 16.8623C42.4406 16.8489 42.458 16.8408 42.4764 16.8396H42.9848C43.0033 16.8408 43.0207 16.8489 43.0338 16.8623C43.0469 16.8757 43.0548 16.8935 43.0559 16.9125V19.8076C43.0548 19.8265 43.0469 19.8444 43.0338 19.8578C43.0207 19.8712 43.0033 19.8793 42.9848 19.8805H42.4764C42.458 19.8793 42.4406 19.8712 42.4275 19.8578C42.4144 19.8444 42.4065 19.8265 42.4053 19.8076V16.9125ZM43.6049 16.9125C43.6061 16.8935 43.614 16.8757 43.6271 16.8623C43.6402 16.8489 43.6576 16.8408 43.6761 16.8396H44.7131C45.1068 16.8396 45.4843 16.9998 45.7627 17.2849C46.0411 17.57 46.1974 17.9568 46.1974 18.36C46.1974 18.7633 46.0411 19.15 45.7627 19.4352C45.4843 19.7203 45.1068 19.8805 44.7131 19.8805H43.6761C43.6576 19.8793 43.6402 19.8712 43.6271 19.8578C43.614 19.8444 43.6061 19.8265 43.6049 19.8076V16.9125ZM44.7233 19.2452C45.2113 19.2452 45.5163 18.8599 45.5163 18.36C45.5163 17.8602 45.2011 17.4748 44.7233 17.4748H44.2759V19.2452H44.7233ZM46.6753 16.9125C46.6765 16.8935 46.6844 16.8757 46.6975 16.8623C46.7106 16.8489 46.728 16.8408 46.7464 16.8396H48.5154C48.5339 16.8408 48.5513 16.8489 48.5644 16.8623C48.5775 16.8757 48.5854 16.8935 48.5866 16.9125V17.3915C48.5854 17.4105 48.5775 17.4283 48.5644 17.4417C48.5513 17.4551 48.5339 17.4632 48.5154 17.4644H47.3259V18.006H48.3019C48.3204 18.0072 48.3378 18.0153 48.3509 18.0287C48.364 18.0421 48.3719 18.0599 48.3731 18.0789V18.5579C48.3719 18.5768 48.364 18.5947 48.3509 18.6081C48.3378 18.6215 48.3204 18.6296 48.3019 18.6308H47.3259V19.2244H48.5154C48.5339 19.2256 48.5513 19.2337 48.5644 19.2471C48.5775 19.2605 48.5854 19.2784 48.5866 19.2973V19.7763C48.5854 19.7953 48.5775 19.8131 48.5644 19.8265C48.5513 19.8399 48.5339 19.848 48.5154 19.8492H46.7464C46.728 19.848 46.7106 19.8399 46.6975 19.8265C46.6844 19.8131 46.6765 19.7953 46.6753 19.7763V16.9125ZM49.0746 16.8604C49.0758 16.8415 49.0837 16.8236 49.0968 16.8102C49.1099 16.7968 49.1273 16.7887 49.1458 16.7875H49.2068C49.2474 16.7875 49.2779 16.8292 49.3186 16.85L50.9554 18.4746V16.9333C50.9566 16.9144 50.9645 16.8965 50.9776 16.8831C50.9907 16.8697 51.0081 16.8616 51.0266 16.8604H51.5349C51.5534 16.8616 51.5708 16.8697 51.5839 16.8831C51.597 16.8965 51.6049 16.9144 51.6061 16.9333V19.8701C51.6075 19.88 51.6066 19.8901 51.6035 19.8995C51.6004 19.909 51.5952 19.9176 51.5883 19.9247C51.5814 19.9318 51.573 19.9371 51.5637 19.9403C51.5545 19.9434 51.5446 19.9444 51.5349 19.943H51.4943C51.4543 19.9385 51.4159 19.9242 51.3824 19.9013L49.7354 18.1726V19.7972C49.7342 19.8161 49.7264 19.8339 49.7133 19.8474C49.7002 19.8608 49.6828 19.8688 49.6643 19.8701H49.1559C49.1375 19.8688 49.12 19.8608 49.107 19.8474C49.0939 19.8339 49.086 19.8161 49.0848 19.7972V16.8604M52.8769 17.4748H52.2771C52.2586 17.4736 52.2412 17.4655 52.2281 17.4521C52.215 17.4387 52.2071 17.4209 52.2059 17.4019V16.9229C52.2071 16.904 52.215 16.8861 52.2281 16.8727C52.2412 16.8593 52.2586 16.8512 52.2771 16.85H54.1783C54.1968 16.8512 54.2142 16.8593 54.2273 16.8727C54.2404 16.8861 54.2483 16.904 54.2494 16.9229V17.4019C54.2483 17.4209 54.2404 17.4387 54.2273 17.4521C54.2142 17.4655 54.1968 17.4736 54.1783 17.4748H53.5784V19.8076C53.5773 19.8265 53.5694 19.8444 53.5563 19.8578C53.5432 19.8712 53.5258 19.8793 53.5073 19.8805H52.9989C52.9805 19.8793 52.963 19.8712 52.95 19.8578C52.9369 19.8444 52.929 19.8265 52.9278 19.8076V17.4748M54.7984 16.9125C54.7996 16.8935 54.8075 16.8757 54.8206 16.8623C54.8337 16.8489 54.8511 16.8408 54.8696 16.8396H55.3779C55.3964 16.8408 55.4138 16.8489 55.4269 16.8623C55.44 16.8757 55.4479 16.8935 55.4491 16.9125V19.8076C55.4479 19.8265 55.44 19.8444 55.4269 19.8578C55.4138 19.8712 55.3964 19.8793 55.3779 19.8805H54.8696C54.8511 19.8793 54.8337 19.8712 54.8206 19.8578C54.8075 19.8444 54.7996 19.8265 54.7984 19.8076V16.9125ZM56.6996 17.4748H56.0998C56.0813 17.4736 56.0639 17.4655 56.0508 17.4521C56.0377 17.4387 56.0298 17.4209 56.0286 17.4019V16.9229C56.0298 16.904 56.0377 16.8861 56.0508 16.8727C56.0639 16.8593 56.0813 16.8512 56.0998 16.85H58.0009C58.0194 16.8512 58.0368 16.8593 58.0499 16.8727C58.063 16.8861 58.0709 16.904 58.0721 16.9229V17.4019C58.0709 17.4209 58.063 17.4387 58.0499 17.4521C58.0368 17.4655 58.0194 17.4736 58.0009 17.4748H57.4011V19.8076C57.3999 19.8265 57.392 19.8444 57.3789 19.8578C57.3658 19.8712 57.3484 19.8793 57.3299 19.8805H56.8216C56.8031 19.8793 56.7857 19.8712 56.7726 19.8578C56.7595 19.8444 56.7516 19.8265 56.7504 19.8076V17.4748M59.3734 18.4225L58.4279 16.9541C58.4183 16.9412 58.4125 16.9258 58.4113 16.9096C58.41 16.8934 58.4133 16.8772 58.4209 16.8629C58.4284 16.8486 58.4398 16.8368 58.4536 16.829C58.4675 16.8212 58.4833 16.8176 58.4991 16.8187H59.0481C59.0627 16.8176 59.0772 16.821 59.0899 16.8284C59.1026 16.8358 59.1128 16.847 59.1193 16.8604L59.6988 17.7456L60.2783 16.8604C60.2867 16.8488 60.2973 16.8391 60.3096 16.8319C60.3218 16.8247 60.3354 16.8203 60.3494 16.8187H60.8984C60.9696 16.8187 60.9899 16.8916 60.9696 16.9541L60.0139 18.4017V19.7868C60.0128 19.8057 60.0049 19.8235 59.9918 19.8369C59.9787 19.8504 59.9613 19.8584 59.9428 19.8597H59.4344C59.416 19.8584 59.3986 19.8504 59.3855 19.8369C59.3724 19.8235 59.3645 19.8057 59.3633 19.7868L59.3734 18.4225Z" fill="#40535D"/>
        <path d="M35.2683 16.8812C35.2695 16.8623 35.2774 16.8445 35.2905 16.831C35.3036 16.8176 35.321 16.8096 35.3395 16.8083H35.4005C35.4412 16.8083 35.4717 16.85 35.5123 16.8708L37.1492 18.4954V16.9541C37.1504 16.9352 37.1582 16.9174 37.1713 16.9039C37.1844 16.8905 37.2019 16.8825 37.2203 16.8812H37.7287C37.7472 16.8825 37.7646 16.8905 37.7777 16.9039C37.7908 16.9174 37.7986 16.9352 37.7998 16.9541V19.8909C37.8012 19.9008 37.8003 19.9109 37.7972 19.9204C37.7941 19.9298 37.7889 19.9384 37.782 19.9455C37.7751 19.9526 37.7667 19.9579 37.7574 19.9611C37.7482 19.9643 37.7383 19.9652 37.7287 19.9638H37.688C37.648 19.9593 37.6096 19.945 37.5762 19.9221L35.919 18.2038V19.8284C35.9178 19.8473 35.9099 19.8652 35.8968 19.8786C35.8837 19.892 35.8663 19.9001 35.8478 19.9013H35.3395C35.321 19.9001 35.3036 19.892 35.2905 19.8786C35.2774 19.8652 35.2695 19.8473 35.2683 19.8284V16.8812ZM38.3488 16.9125C38.35 16.8935 38.3579 16.8757 38.371 16.8623C38.3841 16.8489 38.4015 16.8408 38.42 16.8396H40.189C40.2075 16.8408 40.2249 16.8489 40.238 16.8623C40.2511 16.8757 40.259 16.8935 40.2602 16.9125V17.3915C40.259 17.4104 40.2511 17.4283 40.238 17.4417C40.2249 17.4551 40.2075 17.4632 40.189 17.4644H38.9995V18.0059H39.9755C39.994 18.0072 40.0114 18.0152 40.0245 18.0287C40.0376 18.0421 40.0455 18.0599 40.0467 18.0788V18.5579C40.0455 18.5768 40.0376 18.5947 40.0245 18.6081C40.0114 18.6215 39.994 18.6296 39.9755 18.6308H38.9995V19.2244H40.189C40.2075 19.2256 40.2249 19.2337 40.238 19.2471C40.2511 19.2605 40.259 19.2784 40.2602 19.2973V19.7763C40.259 19.7953 40.2511 19.8131 40.238 19.8265C40.2249 19.8399 40.2075 19.848 40.189 19.8492H38.42C38.4015 19.848 38.3841 19.8399 38.371 19.8265C38.3579 19.8131 38.35 19.7953 38.3488 19.7763V16.9125ZM33.174 16.0898C33.5496 16.0924 33.9181 16.1956 34.2427 16.3893C34.5673 16.5829 34.8368 16.8602 35.0243 17.1937L34.8007 17.329C34.6369 17.0389 34.4011 16.7984 34.1172 16.6319C33.8332 16.4655 33.5113 16.379 33.1842 16.3814V16.0898H33.174ZM34.4957 20.6407C34.0913 20.8763 33.6341 21.0001 33.1689 21.0001C32.7037 21.0001 32.2465 20.8763 31.8422 20.6407C31.435 20.4054 31.0962 20.0634 30.8605 19.6499C30.6247 19.2363 30.5005 18.766 30.5005 18.2871C30.5005 17.8082 30.6247 17.3379 30.8605 16.9244C31.0962 16.5108 31.435 16.1689 31.8422 15.9335C32.2465 15.698 32.7037 15.5742 33.1689 15.5742C33.6341 15.5742 34.0913 15.698 34.4957 15.9335L34.3635 16.1627C34.0021 15.9426 33.5894 15.8265 33.1689 15.8265C32.7485 15.8265 32.3358 15.9426 31.9743 16.1627C31.611 16.3799 31.3086 16.6897 31.0967 17.0619C30.8847 17.4342 30.7702 17.8562 30.7645 18.2871C30.765 18.7192 30.8772 19.1433 31.0897 19.5165C31.3022 19.8897 31.6074 20.1985 31.9743 20.4116C32.3358 20.6316 32.7485 20.7478 33.1689 20.7478C33.5894 20.7478 34.0021 20.6316 34.3635 20.4116L34.4957 20.6407ZM33.174 16.6417C33.4897 16.6417 33.7983 16.7376 34.0608 16.9173C34.3233 17.0969 34.5279 17.3523 34.6487 17.651C34.7695 17.9498 34.8011 18.2785 34.7395 18.5957C34.6779 18.9129 34.5259 19.2042 34.3027 19.4328C34.0794 19.6615 33.795 19.8172 33.4854 19.8803C33.1758 19.9434 32.8548 19.911 32.5632 19.7873C32.2715 19.6635 32.0222 19.454 31.8468 19.1851C31.6715 18.9162 31.5778 18.6001 31.5778 18.2767C31.5773 18.0618 31.6182 17.849 31.6982 17.6504C31.7783 17.4518 31.8958 17.2713 32.0441 17.1194C32.1925 16.9674 32.3686 16.847 32.5625 16.765C32.7564 16.6831 32.9642 16.6412 33.174 16.6417ZM32.2285 18.2871C32.2285 18.4746 32.2828 18.6578 32.3844 18.8136C32.4861 18.9695 32.6306 19.0909 32.7996 19.1627C32.9687 19.2344 33.1547 19.2532 33.3342 19.2166C33.5136 19.18 33.6785 19.0898 33.8079 18.9572C33.9372 18.8247 34.0254 18.6558 34.0611 18.472C34.0968 18.2882 34.0784 18.0976 34.0084 17.9245C33.9384 17.7513 33.8198 17.6033 33.6677 17.4992C33.5155 17.395 33.3366 17.3394 33.1537 17.3394C33.0318 17.3381 32.9109 17.3616 32.798 17.4087C32.6852 17.4559 32.5826 17.5256 32.4964 17.6139C32.4103 17.7022 32.3422 17.8072 32.2962 17.9228C32.2501 18.0384 32.2271 18.1623 32.2285 18.2871ZM34.7702 19.2348C34.5235 19.674 34.1165 19.9947 33.6389 20.1266C33.1613 20.2584 32.6521 20.1905 32.2234 19.9378C31.7947 19.685 31.4815 19.2682 31.3528 18.779C31.2241 18.2898 31.2905 17.7682 31.5372 17.329L31.3135 17.1937C31.162 17.443 31.061 17.7211 31.0167 18.0113C30.9724 18.3015 30.9856 18.5979 31.0555 18.8828C31.1255 19.1677 31.2507 19.4352 31.4238 19.6694C31.5969 19.9036 31.8143 20.0997 32.0629 20.2459C32.3116 20.3922 32.5865 20.4856 32.8712 20.5207C33.156 20.5557 33.4446 20.5317 33.7201 20.4499C33.9955 20.3682 34.2521 20.2305 34.4744 20.045C34.6967 19.8595 34.8803 19.63 35.0142 19.3702L34.7702 19.2348Z" fill="#04AADA"/>
    </g>
    <defs>
        <clipPath id="clip0_2521_751">
            <rect width="61" height="21" fill="white"/>
        </clipPath>
    </defs>
</svg>
