<svg width="72" height="24" viewBox="0 0 72 24" fill="none" xmlns="http://www.w3.org/2000/svg">
    <g clip-path="url(#clip0_2530_1257)">
        <path d="M26.191 8.97724C26.3232 8.07122 27.0755 6.98815 28.5598 6.98815C29.912 6.98815 30.705 7.9879 30.7965 8.97724H26.191ZM24.3305 9.67499C24.3305 12.1431 26.0588 13.7885 28.5903 13.7885C29.2298 13.7937 29.8627 13.6567 30.4454 13.387C31.0281 13.1173 31.5468 12.7213 31.9657 12.2264C31.9959 12.1936 32.016 12.1523 32.0232 12.1078C32.0305 12.0633 32.0246 12.0176 32.0063 11.9765L31.9657 11.9348L31.0812 11.0705C31.0379 11.035 30.9841 11.0156 30.9287 11.0156C30.8732 11.0156 30.8194 11.035 30.7762 11.0705C30.3085 11.4974 29.6273 12.1119 28.5395 12.1119C27.2788 12.1119 26.3943 11.3412 26.1707 10.3415H32.3317C32.397 10.3419 32.4609 10.3223 32.5153 10.2852C32.5696 10.2481 32.6119 10.1951 32.6367 10.1332V9.70623C32.6367 7.37347 31.1625 5.42604 28.6208 5.42604C25.9267 5.42604 24.3305 7.34223 24.3305 9.67499ZM33.7855 13.4345C33.7855 13.5074 33.8262 13.6427 33.9583 13.6427H35.3207C35.3918 13.6427 35.524 13.6011 35.524 13.4657V2.17684C35.5253 2.15324 35.5218 2.12961 35.5136 2.10752C35.5053 2.08542 35.4927 2.06535 35.4763 2.04864C35.46 2.03192 35.4404 2.01892 35.4188 2.01051C35.3973 2.00209 35.3742 1.99844 35.3512 1.9998H33.9583C33.9348 1.99608 33.9107 1.99809 33.8881 2.00567C33.8655 2.01325 33.8449 2.02619 33.8281 2.04343C33.8113 2.06068 33.7986 2.08175 33.7912 2.10492C33.7838 2.1281 33.7819 2.15274 33.7855 2.17684V13.4345ZM21.5753 13.4345C21.5753 13.5074 21.616 13.6427 21.7482 13.6427H23.1105C23.1817 13.6427 23.3138 13.6011 23.3138 13.4657V8.92517C23.3138 7.01939 22.226 5.41562 19.847 5.41562H19.8063C18.6575 5.41562 17.773 5.80095 17.2647 6.27999V5.85302C17.2647 5.71763 17.1935 5.64473 17.0918 5.64473H15.7702C15.699 5.64473 15.5668 5.68639 15.5668 5.82177V13.4865C15.5668 13.5594 15.6075 13.6948 15.7397 13.6948H17.1223C17.1935 13.6948 17.3257 13.6532 17.3257 13.5178V9.22718C17.3257 7.93583 18.0068 6.93608 19.5318 6.93608C21.0568 6.93608 21.6465 7.88376 21.6465 9.21676L21.5753 13.4345ZM46.5345 15.8089C47.114 16.5379 48.395 17.4126 50.2047 17.4126C52.6955 17.4126 54.2205 15.8505 54.2205 13.3407V5.87385C54.2205 5.80095 54.1798 5.66556 54.0477 5.66556H52.7463C52.6752 5.66556 52.543 5.70722 52.543 5.8426V6.31123C51.994 5.83219 51.2823 5.44687 50.0928 5.44687C47.8562 5.44687 45.8737 7.12353 45.8737 9.63333C45.8737 12.1431 47.7748 13.8198 50.0928 13.8198C50.9626 13.8146 51.8075 13.5225 52.5023 12.9867V13.5074C52.5023 14.9341 51.689 15.8401 50.1843 15.8401C48.9643 15.8401 48.1103 15.1424 47.602 14.6217C47.553 14.586 47.4944 14.5669 47.4343 14.5669C47.3741 14.5669 47.3155 14.586 47.2665 14.6217L46.5548 15.486C46.5122 15.5273 46.4865 15.5835 46.4827 15.6434C46.4789 15.7033 46.4974 15.7624 46.5345 15.8089ZM12.6693 9.63333C12.6693 11.0601 11.612 12.1848 10.2598 12.1848C8.867 12.1848 7.891 10.9663 7.891 9.63333V9.5396C7.891 8.18577 8.867 7.07146 10.2598 7.07146C11.612 7.02981 12.6693 8.2066 12.6693 9.63333ZM6 9.63333C6 11.9244 7.80967 13.8198 10.2192 13.8198C12.6693 13.8198 14.4383 11.914 14.4383 9.63333V9.5396C14.4383 7.2485 12.6287 5.42604 10.2192 5.42604C7.80967 5.42604 6 7.23809 6 9.63333ZM43.1998 9.63333C43.1998 11.0601 42.1425 12.1848 40.7903 12.1848C39.4382 12.1848 38.4215 10.9663 38.4215 9.63333V9.5396C38.4215 8.18577 39.3975 7.07146 40.7903 7.07146C42.1832 7.02981 43.1998 8.2066 43.1998 9.63333ZM36.5407 9.63333C36.5407 11.9244 38.3503 13.8198 40.7598 13.8198C43.1693 13.8198 44.979 11.914 44.979 9.63333V9.5396C44.979 7.2485 43.1693 5.42604 40.7598 5.42604C38.3503 5.42604 36.5407 7.23809 36.5407 9.63333ZM55.8777 13.4345C55.8777 13.5074 55.9183 13.6427 56.0505 13.6427H57.4128C57.484 13.6427 57.6162 13.6011 57.6162 13.4657V5.80095C57.6175 5.77734 57.6139 5.75371 57.6057 5.73162C57.5975 5.70952 57.5848 5.68946 57.5685 5.67274C57.5522 5.65602 57.5326 5.64302 57.511 5.63461C57.4894 5.62619 57.4664 5.62254 57.4433 5.6239H56.0505C56.027 5.62018 56.0029 5.62219 55.9803 5.62977C55.9577 5.63736 55.9371 5.65029 55.9203 5.66753C55.9034 5.68478 55.8908 5.70585 55.8834 5.72902C55.876 5.7522 55.874 5.77684 55.8777 5.80095V13.4345ZM55.8777 3.61399C55.8777 3.68689 55.9183 3.82227 56.0505 3.82227H57.4128C57.484 3.82227 57.6162 3.78061 57.6162 3.64523V2.18726C57.6175 2.16365 57.6139 2.14003 57.6057 2.11793C57.5975 2.09583 57.5848 2.07577 57.5685 2.05905C57.5522 2.04233 57.5326 2.02934 57.511 2.02092C57.4894 2.0125 57.4664 2.00886 57.4433 2.01022H56.0505C56.027 2.0065 56.0029 2.00851 55.9803 2.01609C55.9577 2.02367 55.9371 2.0366 55.9203 2.05385C55.9034 2.07109 55.8908 2.09216 55.8834 2.11534C55.876 2.13852 55.874 2.16316 55.8777 2.18726V3.61399ZM65.2615 13.4345C65.2615 13.5074 65.3022 13.6427 65.4343 13.6427H66.7967C66.8678 13.6427 67 13.6011 67 13.4657V8.92517C67 7.01939 65.9122 5.41562 63.5332 5.41562H63.4925C62.3437 5.41562 61.4592 5.80095 60.9508 6.27999V5.85302C60.9508 5.71763 60.8797 5.64473 60.778 5.64473H59.4563C59.3852 5.64473 59.253 5.68639 59.253 5.82177V13.4865C59.253 13.5594 59.2937 13.6948 59.4258 13.6948H60.7882C60.8593 13.6948 60.9915 13.6532 60.9915 13.5178V9.22718C60.9915 7.93583 61.6727 6.93608 63.1977 6.93608C64.7227 6.93608 65.3123 7.88376 65.3123 9.22718L65.2615 13.4345ZM52.543 9.63333C52.543 11.0601 51.4857 12.1848 50.1335 12.1848C48.7407 12.1848 47.7647 10.9663 47.7647 9.63333V9.5396C47.7647 8.18577 48.7407 7.07146 50.1335 7.07146C51.4958 7.02981 52.543 8.2066 52.543 9.63333Z" fill="white"/>
        <path d="M31.0508 18.8396H31.3659V20.058C31.4488 19.9383 31.5586 19.8409 31.686 19.7738C31.8134 19.7067 31.9547 19.6721 32.0979 19.6727C32.6673 19.6727 33.074 20.1309 33.074 20.8495C33.074 21.5681 32.6571 22.0263 32.0979 22.0263C31.9555 22.0226 31.8157 21.9861 31.6889 21.9194C31.5622 21.8527 31.4518 21.7575 31.3659 21.641V21.9638H31.0508V18.8396ZM32.0369 21.6722C32.4843 21.6722 32.7384 21.2869 32.7384 20.787C32.7384 20.2871 32.4944 19.9018 32.0369 19.9018C31.9045 19.906 31.775 19.9433 31.6599 20.0105C31.5447 20.0777 31.4473 20.1726 31.3761 20.2871V21.2869C31.4476 21.4011 31.5451 21.4958 31.6602 21.5629C31.7753 21.63 31.9046 21.6675 32.0369 21.6722ZM33.8059 22.5262C33.9788 22.5262 34.0499 22.4845 34.1211 22.2762L34.294 21.9534L33.3891 19.6935H33.7653L34.4973 21.5264L35.2293 19.6935H35.6054L34.4973 22.4116C34.4488 22.5499 34.3587 22.6689 34.2399 22.7512C34.1211 22.8336 33.9798 22.8751 33.8365 22.8698C33.7653 22.8698 33.6331 22.8698 33.5924 22.8282L33.6331 22.5053C33.6331 22.5262 33.7144 22.5262 33.8059 22.5262ZM48.4053 18.9125C48.4065 18.8935 48.4144 18.8757 48.4275 18.8623C48.4406 18.8489 48.458 18.8408 48.4764 18.8396H48.9848C49.0033 18.8408 49.0207 18.8489 49.0338 18.8623C49.0469 18.8757 49.0548 18.8935 49.0559 18.9125V21.8076C49.0548 21.8265 49.0469 21.8444 49.0338 21.8578C49.0207 21.8712 49.0033 21.8793 48.9848 21.8805H48.4764C48.458 21.8793 48.4406 21.8712 48.4275 21.8578C48.4144 21.8444 48.4065 21.8265 48.4053 21.8076V18.9125ZM49.6049 18.9125C49.6061 18.8935 49.614 18.8757 49.6271 18.8623C49.6402 18.8489 49.6576 18.8408 49.6761 18.8396H50.7131C51.1068 18.8396 51.4843 18.9998 51.7627 19.2849C52.0411 19.57 52.1974 19.9568 52.1974 20.36C52.1974 20.7633 52.0411 21.15 51.7627 21.4352C51.4843 21.7203 51.1068 21.8805 50.7131 21.8805H49.6761C49.6576 21.8793 49.6402 21.8712 49.6271 21.8578C49.614 21.8444 49.6061 21.8265 49.6049 21.8076V18.9125ZM50.7233 21.2452C51.2113 21.2452 51.5163 20.8599 51.5163 20.36C51.5163 19.8602 51.2011 19.4748 50.7233 19.4748H50.2759V21.2452H50.7233ZM52.6753 18.9125C52.6765 18.8935 52.6844 18.8757 52.6975 18.8623C52.7106 18.8489 52.728 18.8408 52.7464 18.8396H54.5154C54.5339 18.8408 54.5513 18.8489 54.5644 18.8623C54.5775 18.8757 54.5854 18.8935 54.5866 18.9125V19.3915C54.5854 19.4105 54.5775 19.4283 54.5644 19.4417C54.5513 19.4551 54.5339 19.4632 54.5154 19.4644H53.3259V20.006H54.3019C54.3204 20.0072 54.3378 20.0153 54.3509 20.0287C54.364 20.0421 54.3719 20.0599 54.3731 20.0789V20.5579C54.3719 20.5768 54.364 20.5947 54.3509 20.6081C54.3378 20.6215 54.3204 20.6296 54.3019 20.6308H53.3259V21.2244H54.5154C54.5339 21.2256 54.5513 21.2337 54.5644 21.2471C54.5775 21.2605 54.5854 21.2784 54.5866 21.2973V21.7763C54.5854 21.7953 54.5775 21.8131 54.5644 21.8265C54.5513 21.8399 54.5339 21.848 54.5154 21.8492H52.7464C52.728 21.848 52.7106 21.8399 52.6975 21.8265C52.6844 21.8131 52.6765 21.7953 52.6753 21.7763V18.9125ZM55.0746 18.8604C55.0758 18.8415 55.0837 18.8236 55.0968 18.8102C55.1099 18.7968 55.1273 18.7887 55.1458 18.7875H55.2068C55.2474 18.7875 55.2779 18.8292 55.3186 18.85L56.9554 20.4746V18.9333C56.9566 18.9144 56.9645 18.8965 56.9776 18.8831C56.9907 18.8697 57.0081 18.8616 57.0266 18.8604H57.5349C57.5534 18.8616 57.5708 18.8697 57.5839 18.8831C57.597 18.8965 57.6049 18.9144 57.6061 18.9333V21.8701C57.6075 21.88 57.6066 21.8901 57.6035 21.8995C57.6004 21.909 57.5952 21.9176 57.5883 21.9247C57.5814 21.9318 57.573 21.9371 57.5637 21.9403C57.5545 21.9434 57.5446 21.9444 57.5349 21.943H57.4943C57.4543 21.9385 57.4159 21.9242 57.3824 21.9013L55.7354 20.1726V21.7972C55.7342 21.8161 55.7264 21.8339 55.7133 21.8474C55.7002 21.8608 55.6828 21.8688 55.6643 21.8701H55.1559C55.1375 21.8688 55.12 21.8608 55.107 21.8474C55.0939 21.8339 55.086 21.8161 55.0848 21.7972V18.8604M58.8769 19.4748H58.2771C58.2586 19.4736 58.2412 19.4655 58.2281 19.4521C58.215 19.4387 58.2071 19.4209 58.2059 19.4019V18.9229C58.2071 18.904 58.215 18.8861 58.2281 18.8727C58.2412 18.8593 58.2586 18.8512 58.2771 18.85H60.1783C60.1968 18.8512 60.2142 18.8593 60.2273 18.8727C60.2404 18.8861 60.2483 18.904 60.2494 18.9229V19.4019C60.2483 19.4209 60.2404 19.4387 60.2273 19.4521C60.2142 19.4655 60.1968 19.4736 60.1783 19.4748H59.5784V21.8076C59.5773 21.8265 59.5694 21.8444 59.5563 21.8578C59.5432 21.8712 59.5258 21.8793 59.5073 21.8805H58.9989C58.9805 21.8793 58.963 21.8712 58.95 21.8578C58.9369 21.8444 58.929 21.8265 58.9278 21.8076V19.4748M60.7984 18.9125C60.7996 18.8935 60.8075 18.8757 60.8206 18.8623C60.8337 18.8489 60.8511 18.8408 60.8696 18.8396H61.3779C61.3964 18.8408 61.4138 18.8489 61.4269 18.8623C61.44 18.8757 61.4479 18.8935 61.4491 18.9125V21.8076C61.4479 21.8265 61.44 21.8444 61.4269 21.8578C61.4138 21.8712 61.3964 21.8793 61.3779 21.8805H60.8696C60.8511 21.8793 60.8337 21.8712 60.8206 21.8578C60.8075 21.8444 60.7996 21.8265 60.7984 21.8076V18.9125ZM62.6996 19.4748H62.0998C62.0813 19.4736 62.0639 19.4655 62.0508 19.4521C62.0377 19.4387 62.0298 19.4209 62.0286 19.4019V18.9229C62.0298 18.904 62.0377 18.8861 62.0508 18.8727C62.0639 18.8593 62.0813 18.8512 62.0998 18.85H64.0009C64.0194 18.8512 64.0368 18.8593 64.0499 18.8727C64.063 18.8861 64.0709 18.904 64.0721 18.9229V19.4019C64.0709 19.4209 64.063 19.4387 64.0499 19.4521C64.0368 19.4655 64.0194 19.4736 64.0009 19.4748H63.4011V21.8076C63.3999 21.8265 63.392 21.8444 63.3789 21.8578C63.3658 21.8712 63.3484 21.8793 63.3299 21.8805H62.8216C62.8031 21.8793 62.7857 21.8712 62.7726 21.8578C62.7595 21.8444 62.7516 21.8265 62.7504 21.8076V19.4748M65.3734 20.4225L64.4279 18.9541C64.4183 18.9412 64.4125 18.9258 64.4113 18.9096C64.41 18.8934 64.4133 18.8772 64.4209 18.8629C64.4284 18.8486 64.4398 18.8368 64.4536 18.829C64.4675 18.8212 64.4833 18.8176 64.4991 18.8187H65.0481C65.0627 18.8176 65.0772 18.821 65.0899 18.8284C65.1026 18.8358 65.1128 18.847 65.1193 18.8604L65.6988 19.7456L66.2783 18.8604C66.2867 18.8488 66.2973 18.8391 66.3096 18.8319C66.3218 18.8247 66.3354 18.8203 66.3494 18.8187H66.8984C66.9696 18.8187 66.9899 18.8916 66.9696 18.9541L66.0139 20.4017V21.7868C66.0128 21.8057 66.0049 21.8235 65.9918 21.8369C65.9787 21.8504 65.9613 21.8584 65.9428 21.8597H65.4344C65.416 21.8584 65.3986 21.8504 65.3855 21.8369C65.3724 21.8235 65.3645 21.8057 65.3633 21.7868L65.3734 20.4225Z" fill="#D3D3D3"/>
        <path d="M41.2683 18.8812C41.2695 18.8623 41.2774 18.8445 41.2905 18.831C41.3036 18.8176 41.321 18.8096 41.3395 18.8083H41.4005C41.4412 18.8083 41.4717 18.85 41.5123 18.8708L43.1492 20.4954V18.9541C43.1504 18.9352 43.1582 18.9174 43.1713 18.9039C43.1844 18.8905 43.2019 18.8825 43.2203 18.8812H43.7287C43.7472 18.8825 43.7646 18.8905 43.7777 18.9039C43.7908 18.9174 43.7986 18.9352 43.7998 18.9541V21.8909C43.8012 21.9008 43.8003 21.9109 43.7972 21.9204C43.7941 21.9298 43.7889 21.9384 43.782 21.9455C43.7751 21.9526 43.7667 21.9579 43.7574 21.9611C43.7482 21.9643 43.7383 21.9652 43.7287 21.9638H43.688C43.648 21.9593 43.6096 21.945 43.5762 21.9221L41.919 20.2038V21.8284C41.9178 21.8473 41.9099 21.8652 41.8968 21.8786C41.8837 21.892 41.8663 21.9001 41.8478 21.9013H41.3395C41.321 21.9001 41.3036 21.892 41.2905 21.8786C41.2774 21.8652 41.2695 21.8473 41.2683 21.8284V18.8812ZM44.3488 18.9125C44.35 18.8935 44.3579 18.8757 44.371 18.8623C44.3841 18.8489 44.4015 18.8408 44.42 18.8396H46.189C46.2075 18.8408 46.2249 18.8489 46.238 18.8623C46.2511 18.8757 46.259 18.8935 46.2602 18.9125V19.3915C46.259 19.4104 46.2511 19.4283 46.238 19.4417C46.2249 19.4551 46.2075 19.4632 46.189 19.4644H44.9995V20.0059H45.9755C45.994 20.0072 46.0114 20.0152 46.0245 20.0287C46.0376 20.0421 46.0455 20.0599 46.0467 20.0788V20.5579C46.0455 20.5768 46.0376 20.5947 46.0245 20.6081C46.0114 20.6215 45.994 20.6296 45.9755 20.6308H44.9995V21.2244H46.189C46.2075 21.2256 46.2249 21.2337 46.238 21.2471C46.2511 21.2605 46.259 21.2784 46.2602 21.2973V21.7763C46.259 21.7953 46.2511 21.8131 46.238 21.8265C46.2249 21.8399 46.2075 21.848 46.189 21.8492H44.42C44.4015 21.848 44.3841 21.8399 44.371 21.8265C44.3579 21.8131 44.35 21.7953 44.3488 21.7763V18.9125ZM39.174 18.0898C39.5496 18.0924 39.9181 18.1956 40.2427 18.3893C40.5673 18.5829 40.8368 18.8602 41.0243 19.1937L40.8007 19.329C40.6369 19.0389 40.4011 18.7984 40.1172 18.6319C39.8332 18.4655 39.5113 18.379 39.1842 18.3814V18.0898H39.174ZM40.4957 22.6407C40.0913 22.8763 39.6341 23.0001 39.1689 23.0001C38.7037 23.0001 38.2465 22.8763 37.8422 22.6407C37.435 22.4054 37.0962 22.0634 36.8605 21.6499C36.6247 21.2363 36.5005 20.766 36.5005 20.2871C36.5005 19.8082 36.6247 19.3379 36.8605 18.9244C37.0962 18.5108 37.435 18.1689 37.8422 17.9335C38.2465 17.698 38.7037 17.5742 39.1689 17.5742C39.6341 17.5742 40.0913 17.698 40.4957 17.9335L40.3635 18.1627C40.0021 17.9426 39.5894 17.8265 39.1689 17.8265C38.7485 17.8265 38.3358 17.9426 37.9743 18.1627C37.611 18.3799 37.3086 18.6897 37.0967 19.0619C36.8847 19.4342 36.7702 19.8562 36.7645 20.2871C36.765 20.7192 36.8772 21.1433 37.0897 21.5165C37.3022 21.8897 37.6074 22.1985 37.9743 22.4116C38.3358 22.6316 38.7485 22.7478 39.1689 22.7478C39.5894 22.7478 40.0021 22.6316 40.3635 22.4116L40.4957 22.6407ZM39.174 18.6417C39.4897 18.6417 39.7983 18.7376 40.0608 18.9173C40.3233 19.0969 40.5279 19.3523 40.6487 19.651C40.7695 19.9498 40.8011 20.2785 40.7395 20.5957C40.6779 20.9129 40.5259 21.2042 40.3027 21.4328C40.0794 21.6615 39.795 21.8172 39.4854 21.8803C39.1758 21.9434 38.8548 21.911 38.5632 21.7873C38.2715 21.6635 38.0222 21.454 37.8468 21.1851C37.6715 20.9162 37.5778 20.6001 37.5778 20.2767C37.5773 20.0618 37.6182 19.849 37.6982 19.6504C37.7783 19.4518 37.8958 19.2713 38.0441 19.1194C38.1925 18.9674 38.3686 18.847 38.5625 18.765C38.7564 18.6831 38.9642 18.6412 39.174 18.6417ZM38.2285 20.2871C38.2285 20.4746 38.2828 20.6578 38.3844 20.8136C38.4861 20.9695 38.6306 21.0909 38.7996 21.1627C38.9687 21.2344 39.1547 21.2532 39.3342 21.2166C39.5136 21.18 39.6785 21.0898 39.8079 20.9572C39.9372 20.8247 40.0254 20.6558 40.0611 20.472C40.0968 20.2882 40.0784 20.0976 40.0084 19.9245C39.9384 19.7513 39.8198 19.6033 39.6677 19.4992C39.5155 19.395 39.3366 19.3394 39.1537 19.3394C39.0318 19.3381 38.9109 19.3616 38.798 19.4087C38.6852 19.4559 38.5826 19.5256 38.4964 19.6139C38.4103 19.7022 38.3422 19.8072 38.2962 19.9228C38.2501 20.0384 38.2271 20.1623 38.2285 20.2871ZM40.7702 21.2348C40.5235 21.674 40.1165 21.9947 39.6389 22.1266C39.1613 22.2584 38.6521 22.1905 38.2234 21.9378C37.7947 21.685 37.4815 21.2682 37.3528 20.779C37.2241 20.2898 37.2905 19.7682 37.5372 19.329L37.3135 19.1937C37.162 19.443 37.061 19.7211 37.0167 20.0113C36.9724 20.3015 36.9856 20.5979 37.0555 20.8828C37.1255 21.1677 37.2507 21.4352 37.4238 21.6694C37.5969 21.9036 37.8143 22.0997 38.0629 22.2459C38.3116 22.3922 38.5865 22.4856 38.8712 22.5207C39.156 22.5557 39.4446 22.5317 39.7201 22.4499C39.9955 22.3682 40.2521 22.2305 40.4744 22.045C40.6967 21.8595 40.8803 21.63 41.0142 21.3702L40.7702 21.2348Z" fill="#04AADA"/>
    </g>
    <defs>
        <clipPath id="clip0_2530_1257">
            <rect width="61" height="21" fill="white" transform="translate(6 2)"/>
        </clipPath>
    </defs>
</svg>
