<svg width="72" height="24" viewBox="0 0 72 24" fill="none" xmlns="http://www.w3.org/2000/svg">
<g clip-path="url(#clip0_2827_1515)">
<path d="M12.1572 14.9814C10.5074 14.9814 9.17562 13.6397 9.17562 11.9899C9.17562 10.3401 10.5173 9.00828 12.1671 9.00828C13.5287 9.00828 14.7114 9.93257 15.0494 11.2544H18.1303V6.03662H6.18408V17.963H18.1303V12.7353H15.0494C14.7015 14.0571 13.5188 14.9715 12.1572 14.9814Z" fill="#FE5000"/>
<path d="M20.7046 12.0396C20.7046 9.83325 22.3544 8.33252 24.4117 8.33252C25.9224 8.33252 26.8069 9.08786 27.3535 9.94258L26.2702 10.4991C25.8826 9.84319 25.167 9.44565 24.4018 9.44565C23.0302 9.44565 21.9867 10.529 21.9867 12.0396C21.9867 13.5503 23.0501 14.6336 24.4018 14.6336C25.167 14.6436 25.8826 14.246 26.2702 13.5801L27.3535 14.1367C26.797 15.0014 25.9224 15.7468 24.4117 15.7468C22.3445 15.7666 20.7046 14.256 20.7046 12.0396Z" fill="white"/>
<path d="M32.0543 9.44565C30.5933 9.44565 29.669 10.5488 29.669 12.0396C29.669 13.5304 30.5933 14.6336 32.0543 14.6336C33.5152 14.6336 34.4395 13.5205 34.4395 12.0396C34.4395 10.5687 33.5053 9.44565 32.0543 9.44565ZM32.0543 8.33252C34.2109 8.33252 35.7316 9.90282 35.7316 12.0396C35.7316 14.1764 34.2209 15.7468 32.0543 15.7468C29.8876 15.7468 28.377 14.1764 28.377 12.0396C28.377 9.90282 29.9075 8.33252 32.0543 8.33252Z" fill="white"/>
<path d="M40.1743 14.5242C41.7347 14.5242 42.6391 13.411 42.6391 12.0495C42.6391 10.658 41.7744 9.56479 40.1743 9.56479H38.763V14.5341H40.1743V14.5242ZM37.5107 8.45166H40.1842C42.4304 8.45166 43.941 9.94246 43.941 12.0495C43.941 14.1564 42.4204 15.6373 40.1842 15.6373H37.5107V8.45166Z" fill="white"/>
<path d="M45.8193 8.45166H50.7489V9.55485H47.0815V11.4233H50.6694V12.5265H47.0815V14.5242H50.7489V15.6373H45.8193V8.45166Z" fill="white"/>
<path d="M54.337 12.6955H55.9769V10.0717L54.337 12.6955ZM55.9769 14.3155H52.5381V12.8843L55.2613 8.45166H57.8354V12.6955H58.71V14.3155H57.8354V15.6274H55.9769V14.3155Z" fill="white"/>
<path d="M60.1806 14.1867C63.2914 11.9306 63.8678 11.4337 63.8678 10.728C63.8678 10.2311 63.4007 9.97271 62.8442 9.97271C62.0789 9.97271 61.4726 10.2709 60.9558 10.7579L59.9321 9.53541C60.6974 8.70056 61.8404 8.34277 62.8342 8.34277C64.5238 8.34277 65.7363 9.29688 65.7363 10.728C65.7363 11.8213 64.9512 12.7555 63.0231 14.0078H65.8158V15.6179H60.1806V14.1867Z" fill="white"/>
</g>
<defs>
<clipPath id="clip0_2827_1515">
<rect width="60" height="12" fill="white" transform="translate(6 6)"/>
</clipPath>
</defs>
</svg>
