<svg width="72" height="24" viewBox="0 0 72 24" fill="none" xmlns="http://www.w3.org/2000/svg">
    <path d="M12.4286 12.4962C12.4286 14.522 10.7311 16.1608 8.63281 16.1608V8.83156C10.7311 8.83156 12.4286 10.4704 12.4286 12.4962Z" fill="#00CC66"/>
    <path d="M4.83703 12.4962C4.83703 14.522 6.53452 16.1608 8.63282 16.1608V18.9226C4.95491 18.9074 1.99216 16.0243 2.00002 12.4734C2.01573 8.95296 4.97849 6.09256 8.63282 6.08498V8.83156C6.53452 8.83156 4.83703 10.4704 4.83703 12.4962Z" fill="#00CC66"/>
    <path d="M16.3813 16.1077V16.1001L19.4856 12.4127L16.6171 8.96813V8.96054H18.5739L20.5308 11.4036L22.519 8.96054H24.4444V8.96813L21.5839 12.3824L24.6566 16.1001V16.1077H22.6841L20.5229 13.3991L18.3225 16.1077H16.3813Z" fill="#1E1E1E"/>
    <path d="M25.9771 8.95296H29.8829C31.6511 8.95296 32.5784 9.93171 32.5784 11.525C32.5784 13.3308 31.3839 14.173 29.7178 14.173H27.6038V16.1077H25.9771V8.95296ZM29.7493 12.7542C30.5666 12.7542 30.9202 12.2534 30.9202 11.5706C30.9202 10.7967 30.5273 10.3718 29.71 10.3718H27.596V12.7542H29.7493Z" fill="#1E1E1E"/>
    <path d="M35.9028 8.95296H38.4098L41.2861 16.1077H39.5807L38.9127 14.4082H35.3527L34.6768 16.1077H33.0029L35.9028 8.95296ZM35.9107 13.0273H38.3626L37.3331 10.4325H36.9402L35.9107 13.0273Z" fill="#1E1E1E"/>
    <path d="M42.6772 8.95296H44.4769L48.2098 13.7026H48.2491V8.95296H49.8366V16.1077H48.1548L44.304 11.1912H44.2647V16.1077H42.6772V8.95296Z" fill="#1E1E1E"/>
    <path d="M51.7227 15.5463V13.9454H51.7305C52.7757 14.4992 54.0253 14.8331 55.0548 14.8331C56.0607 14.8331 56.5715 14.5448 56.5715 14.0744C56.5715 13.5812 56.1471 13.4446 54.4575 13.1563C53.1765 12.9439 51.7305 12.5569 51.7305 11.1305C51.7305 9.93171 52.7443 8.79362 55.0548 8.79362C55.99 8.79362 57.0588 9.05159 57.8132 9.46889V11.0698H57.8053C56.9566 10.5463 55.8799 10.2352 54.929 10.2352C53.8681 10.2352 53.4359 10.5387 53.4359 10.9788C53.4359 11.5781 54.3475 11.6464 55.5106 11.8437C56.7916 12.0713 58.2847 12.4279 58.2847 13.9681C58.2847 14.8179 57.8053 16.2671 55.0548 16.2671C53.6402 16.2671 52.5793 15.9484 51.7227 15.5463Z" fill="#1E1E1E"/>
    <path d="M59.7856 8.95296H65.9548L66.0098 10.3718H61.4046V11.692H65.106V13.1108H61.4046V14.6813H66.167L66.112 16.1001H59.7856V8.95296Z" fill="#1E1E1E"/>
    <path d="M66.7168 8.98331H67.3219V9.13505H67.1176V9.71927H66.9211V9.13505H66.7168V8.98331Z" fill="#1E1E1E"/>
    <path d="M68.2492 8.98331V9.71927H68.0763V9.29438C68.0763 9.2868 68.0763 9.27921 68.0763 9.27162L67.9034 9.60546C67.8956 9.62064 67.8877 9.62822 67.872 9.63581C67.8563 9.6434 67.8484 9.6434 67.8327 9.6434H67.8091C67.7934 9.6434 67.7777 9.6434 67.7698 9.63581C67.7541 9.62822 67.7463 9.62064 67.7384 9.60546L67.5577 9.27162C67.5577 9.27921 67.5577 9.2868 67.5577 9.29438V9.71927H67.3848V8.98331H67.5498C67.5577 8.98331 67.5655 8.98331 67.5655 8.98331C67.5734 8.98331 67.5734 8.99089 67.5812 8.99089C67.5891 8.99848 67.5891 8.99848 67.597 9.00607L67.7856 9.37026C67.7934 9.38543 67.8013 9.39302 67.8091 9.40819C67.8091 9.41578 67.817 9.42337 67.817 9.43095C67.817 9.42337 67.8249 9.41578 67.8249 9.40819C67.8327 9.39302 67.8406 9.37784 67.8484 9.37026L68.037 9.00607C68.037 8.99848 68.0449 8.99089 68.0528 8.99089C68.0606 8.98331 68.0606 8.98331 68.0685 8.98331C68.0763 8.98331 68.0842 8.98331 68.0842 8.98331H68.2492Z" fill="#1E1E1E"/>
</svg>
