<svg width="72" height="24" viewBox="0 0 72 24" fill="none" xmlns="http://www.w3.org/2000/svg">
    <path d="M12.4288 12.4992C12.4287 13.4716 12.0286 14.4042 11.3163 15.0918C10.6041 15.7795 9.63812 16.1658 8.63086 16.1658V8.83258C9.6381 8.83262 10.6041 9.21893 11.3163 9.90654C12.0286 10.5941 12.4287 11.5267 12.4288 12.4992Z" fill="#00CC66"/>
    <path d="M4.83307 12.4992C4.83311 13.4716 5.23325 14.4042 5.94547 15.0918C6.65769 15.7794 7.62366 16.1658 8.6309 16.1658V18.9303C6.87019 18.9245 5.18365 18.2451 3.94077 17.0411C2.69788 15.837 2 14.2064 2 12.5066C2 10.8067 2.69788 9.17612 3.94077 7.97206C5.18365 6.768 6.87019 6.08864 8.6309 6.08279V8.83259C7.62368 8.83265 6.65772 9.21897 5.9455 9.90658C5.23328 10.5942 4.83313 11.5268 4.83307 12.4992Z" fill="#00CC66"/>
    <path d="M16.3838 16.1049V16.0946L19.4848 12.4061L16.6163 8.96271V8.95255H18.5742L20.5322 11.3945L22.5219 8.95255H24.4481V8.96271L21.591 12.3754L24.6601 16.0946V16.1049H22.6809L20.5221 13.3972L18.3208 16.1049H16.3838Z" fill="white"/>
    <path d="M25.9722 8.95255H29.8775C31.6449 8.95255 32.5763 9.93343 32.5763 11.5274C32.5763 13.3359 31.3803 14.1738 29.7188 14.1738H27.602V16.1049H25.9722V8.95255ZM29.7505 12.7538C30.5654 12.7538 30.9253 12.253 30.9253 11.5686C30.9253 10.792 30.5337 10.3731 29.7188 10.3731H27.602V12.7535L29.7505 12.7538Z" fill="white"/>
    <path d="M35.9 8.95255H38.4083L41.2869 16.1049H39.583L38.9163 14.4087H35.36L34.6827 16.1049H33.0107L35.9 8.95255ZM35.9105 13.0294H38.366L37.3393 10.434H36.9475L35.9105 13.0294Z" fill="white"/>
    <path d="M42.6733 8.95255H44.4726L48.2085 13.7037H48.2508V8.95255H49.8383V16.1049H48.1555L44.3034 11.1902H44.261V16.1049H42.6735L42.6733 8.95255Z" fill="white"/>
    <path d="M51.7222 15.5429V13.9388H51.7327C52.7805 14.4905 54.0292 14.8276 55.0559 14.8276C56.0613 14.8276 56.5693 14.5416 56.5693 14.0716C56.5693 13.5811 56.146 13.4381 54.4527 13.152C53.1722 12.9374 51.7222 12.5494 51.7222 11.1289C51.7222 9.93343 52.7381 8.78903 55.0453 8.78903C55.9767 8.78903 57.0456 9.0445 57.8076 9.46339V11.0676H57.7971C56.9504 10.5465 55.8709 10.2297 54.9184 10.2297C53.8601 10.2297 53.4261 10.5362 53.4261 10.9756C53.4261 11.5784 54.3363 11.6397 55.5004 11.8441C56.781 12.0689 58.2733 12.4265 58.2733 13.9694C58.2733 14.8175 57.7971 16.2684 55.0454 16.2684C53.6379 16.2684 52.5796 15.9516 51.7222 15.5429Z" fill="white"/>
    <path d="M59.7871 8.95255H65.9572L66.0101 10.3728H61.4064V11.6909H65.1106V13.1109H61.4064V14.6844H66.1689L66.1159 16.1047H59.7871V8.95255Z" fill="white"/>
    <path d="M66.7144 8.98183H67.3248V9.13198H67.1153V9.71901H66.9242V9.13198H66.7144V8.98183Z" fill="white"/>
    <path d="M68.2497 8.98183V9.71932H68.0783V9.29571C68.0783 9.28927 68.0783 9.28229 68.0791 9.27417L67.9025 9.6049C67.8959 9.61723 67.886 9.62753 67.8736 9.63464C67.8613 9.64135 67.8473 9.64483 67.8331 9.64473H67.8101C67.796 9.64479 67.7821 9.64131 67.7697 9.63464C67.7574 9.62757 67.7475 9.61725 67.7411 9.6049L67.5635 9.27265C67.5648 9.28018 67.5653 9.28779 67.5651 9.29541V9.71932H67.3931V8.98183H67.5549C67.561 8.98257 67.567 8.98379 67.5729 8.98547C67.5784 8.98786 67.5835 8.99126 67.5877 8.99548C67.5928 9.00034 67.597 9.00595 67.6002 9.0121L67.7921 9.37682C67.7989 9.38972 67.8058 9.4027 67.8121 9.41651C67.8152 9.42295 67.8181 9.43039 67.8213 9.4376C67.8249 9.43052 67.8281 9.42322 67.8307 9.41575C67.8369 9.4019 67.844 9.3884 67.8517 9.37531L68.0422 9.0121C68.0458 9.00625 68.0499 9.00069 68.0545 8.99548C68.059 8.99116 68.0643 8.98775 68.0702 8.98547C68.0761 8.98377 68.0821 8.98255 68.0882 8.98183H68.2497Z" fill="white"/>
</svg>
